<?xml version="1.0" encoding="utf-8"?>
<svg xmlns="http://www.w3.org/2000/svg" xmlns:xlink="http://www.w3.org/1999/xlink" width="600" height="400" viewBox="0 0 2400 1600">
<defs>
  <clipPath id="clip740">
    <rect x="0" y="0" width="2400" height="1600"/>
  </clipPath>
</defs>
<path clip-path="url(#clip740)" d="M0 1600 L2400 1600 L2400 0 L0 0  Z" fill="#ffffff" fill-rule="evenodd" fill-opacity="1"/>
<defs>
  <clipPath id="clip741">
    <rect x="480" y="0" width="1681" height="1600"/>
  </clipPath>
</defs>
<path clip-path="url(#clip740)" d="M242.135 1423.18 L2352.76 1423.18 L2352.76 47.2441 L242.135 47.2441  Z" fill="#ffffff" fill-rule="evenodd" fill-opacity="1"/>
<defs>
  <clipPath id="clip742">
    <rect x="242" y="47" width="2112" height="1377"/>
  </clipPath>
</defs>
<polyline clip-path="url(#clip742)" style="stroke:#000000; stroke-linecap:round; stroke-linejoin:round; stroke-width:2; stroke-opacity:0.1; fill:none" points="414.116,1423.18 414.116,47.2441 "/>
<polyline clip-path="url(#clip742)" style="stroke:#000000; stroke-linecap:round; stroke-linejoin:round; stroke-width:2; stroke-opacity:0.1; fill:none" points="708.559,1423.18 708.559,47.2441 "/>
<polyline clip-path="url(#clip742)" style="stroke:#000000; stroke-linecap:round; stroke-linejoin:round; stroke-width:2; stroke-opacity:0.1; fill:none" points="1003,1423.18 1003,47.2441 "/>
<polyline clip-path="url(#clip742)" style="stroke:#000000; stroke-linecap:round; stroke-linejoin:round; stroke-width:2; stroke-opacity:0.1; fill:none" points="1297.45,1423.18 1297.45,47.2441 "/>
<polyline clip-path="url(#clip742)" style="stroke:#000000; stroke-linecap:round; stroke-linejoin:round; stroke-width:2; stroke-opacity:0.1; fill:none" points="1591.89,1423.18 1591.89,47.2441 "/>
<polyline clip-path="url(#clip742)" style="stroke:#000000; stroke-linecap:round; stroke-linejoin:round; stroke-width:2; stroke-opacity:0.1; fill:none" points="1886.33,1423.18 1886.33,47.2441 "/>
<polyline clip-path="url(#clip742)" style="stroke:#000000; stroke-linecap:round; stroke-linejoin:round; stroke-width:2; stroke-opacity:0.1; fill:none" points="2180.77,1423.18 2180.77,47.2441 "/>
<polyline clip-path="url(#clip740)" style="stroke:#000000; stroke-linecap:round; stroke-linejoin:round; stroke-width:4; stroke-opacity:1; fill:none" points="242.135,1423.18 2352.76,1423.18 "/>
<polyline clip-path="url(#clip740)" style="stroke:#000000; stroke-linecap:round; stroke-linejoin:round; stroke-width:4; stroke-opacity:1; fill:none" points="414.116,1423.18 414.116,1404.28 "/>
<polyline clip-path="url(#clip740)" style="stroke:#000000; stroke-linecap:round; stroke-linejoin:round; stroke-width:4; stroke-opacity:1; fill:none" points="708.559,1423.18 708.559,1404.28 "/>
<polyline clip-path="url(#clip740)" style="stroke:#000000; stroke-linecap:round; stroke-linejoin:round; stroke-width:4; stroke-opacity:1; fill:none" points="1003,1423.18 1003,1404.28 "/>
<polyline clip-path="url(#clip740)" style="stroke:#000000; stroke-linecap:round; stroke-linejoin:round; stroke-width:4; stroke-opacity:1; fill:none" points="1297.45,1423.18 1297.45,1404.28 "/>
<polyline clip-path="url(#clip740)" style="stroke:#000000; stroke-linecap:round; stroke-linejoin:round; stroke-width:4; stroke-opacity:1; fill:none" points="1591.89,1423.18 1591.89,1404.28 "/>
<polyline clip-path="url(#clip740)" style="stroke:#000000; stroke-linecap:round; stroke-linejoin:round; stroke-width:4; stroke-opacity:1; fill:none" points="1886.33,1423.18 1886.33,1404.28 "/>
<polyline clip-path="url(#clip740)" style="stroke:#000000; stroke-linecap:round; stroke-linejoin:round; stroke-width:4; stroke-opacity:1; fill:none" points="2180.77,1423.18 2180.77,1404.28 "/>
<path clip-path="url(#clip740)" d="M368.179 1468.75 L397.854 1468.75 L397.854 1472.69 L368.179 1472.69 L368.179 1468.75 Z" fill="#000000" fill-rule="evenodd" fill-opacity="1" /><path clip-path="url(#clip740)" d="M422.114 1466.95 Q425.47 1467.66 427.345 1469.93 Q429.243 1472.2 429.243 1475.53 Q429.243 1480.65 425.725 1483.45 Q422.206 1486.25 415.725 1486.25 Q413.549 1486.25 411.234 1485.81 Q408.942 1485.39 406.489 1484.54 L406.489 1480.02 Q408.433 1481.16 410.748 1481.74 Q413.063 1482.32 415.586 1482.32 Q419.984 1482.32 422.276 1480.58 Q424.59 1478.84 424.59 1475.53 Q424.59 1472.48 422.438 1470.77 Q420.308 1469.03 416.489 1469.03 L412.461 1469.03 L412.461 1465.19 L416.674 1465.19 Q420.123 1465.19 421.951 1463.82 Q423.78 1462.43 423.78 1459.84 Q423.78 1457.18 421.882 1455.77 Q420.007 1454.33 416.489 1454.33 Q414.567 1454.33 412.368 1454.75 Q410.169 1455.16 407.53 1456.04 L407.53 1451.88 Q410.192 1451.14 412.507 1450.77 Q414.845 1450.39 416.905 1450.39 Q422.229 1450.39 425.331 1452.83 Q428.433 1455.23 428.433 1459.35 Q428.433 1462.22 426.789 1464.21 Q425.146 1466.18 422.114 1466.95 Z" fill="#000000" fill-rule="evenodd" fill-opacity="1" /><path clip-path="url(#clip740)" d="M448.109 1454.1 Q444.498 1454.1 442.669 1457.66 Q440.863 1461.2 440.863 1468.33 Q440.863 1475.44 442.669 1479.01 Q444.498 1482.55 448.109 1482.55 Q451.743 1482.55 453.549 1479.01 Q455.377 1475.44 455.377 1468.33 Q455.377 1461.2 453.549 1457.66 Q451.743 1454.1 448.109 1454.1 M448.109 1450.39 Q453.919 1450.39 456.974 1455 Q460.053 1459.58 460.053 1468.33 Q460.053 1477.06 456.974 1481.67 Q453.919 1486.25 448.109 1486.25 Q442.299 1486.25 439.22 1481.67 Q436.164 1477.06 436.164 1468.33 Q436.164 1459.58 439.22 1455 Q442.299 1450.39 448.109 1450.39 Z" fill="#000000" fill-rule="evenodd" fill-opacity="1" /><path clip-path="url(#clip740)" d="M662.622 1468.75 L692.298 1468.75 L692.298 1472.69 L662.622 1472.69 L662.622 1468.75 Z" fill="#000000" fill-rule="evenodd" fill-opacity="1" /><path clip-path="url(#clip740)" d="M706.418 1481.64 L722.737 1481.64 L722.737 1485.58 L700.793 1485.58 L700.793 1481.64 Q703.455 1478.89 708.038 1474.26 Q712.645 1469.61 713.825 1468.27 Q716.071 1465.74 716.95 1464.01 Q717.853 1462.25 717.853 1460.56 Q717.853 1457.8 715.909 1456.07 Q713.987 1454.33 710.885 1454.33 Q708.686 1454.33 706.233 1455.09 Q703.802 1455.86 701.024 1457.41 L701.024 1452.69 Q703.848 1451.55 706.302 1450.97 Q708.756 1450.39 710.793 1450.39 Q716.163 1450.39 719.358 1453.08 Q722.552 1455.77 722.552 1460.26 Q722.552 1462.39 721.742 1464.31 Q720.955 1466.2 718.848 1468.8 Q718.27 1469.47 715.168 1472.69 Q712.066 1475.88 706.418 1481.64 Z" fill="#000000" fill-rule="evenodd" fill-opacity="1" /><path clip-path="url(#clip740)" d="M742.552 1454.1 Q738.941 1454.1 737.112 1457.66 Q735.307 1461.2 735.307 1468.33 Q735.307 1475.44 737.112 1479.01 Q738.941 1482.55 742.552 1482.55 Q746.186 1482.55 747.992 1479.01 Q749.82 1475.44 749.82 1468.33 Q749.82 1461.2 747.992 1457.66 Q746.186 1454.1 742.552 1454.1 M742.552 1450.39 Q748.362 1450.39 751.418 1455 Q754.496 1459.58 754.496 1468.33 Q754.496 1477.06 751.418 1481.67 Q748.362 1486.25 742.552 1486.25 Q736.742 1486.25 733.663 1481.67 Q730.607 1477.06 730.607 1468.33 Q730.607 1459.58 733.663 1455 Q736.742 1450.39 742.552 1450.39 Z" fill="#000000" fill-rule="evenodd" fill-opacity="1" /><path clip-path="url(#clip740)" d="M957.065 1468.75 L986.741 1468.75 L986.741 1472.69 L957.065 1472.69 L957.065 1468.75 Z" fill="#000000" fill-rule="evenodd" fill-opacity="1" /><path clip-path="url(#clip740)" d="M997.643 1481.64 L1005.28 1481.64 L1005.28 1455.28 L996.972 1456.95 L996.972 1452.69 L1005.24 1451.02 L1009.91 1451.02 L1009.91 1481.64 L1017.55 1481.64 L1017.55 1485.58 L997.643 1485.58 L997.643 1481.64 Z" fill="#000000" fill-rule="evenodd" fill-opacity="1" /><path clip-path="url(#clip740)" d="M1037 1454.1 Q1033.38 1454.1 1031.56 1457.66 Q1029.75 1461.2 1029.75 1468.33 Q1029.75 1475.44 1031.56 1479.01 Q1033.38 1482.55 1037 1482.55 Q1040.63 1482.55 1042.43 1479.01 Q1044.26 1475.44 1044.26 1468.33 Q1044.26 1461.2 1042.43 1457.66 Q1040.63 1454.1 1037 1454.1 M1037 1450.39 Q1042.81 1450.39 1045.86 1455 Q1048.94 1459.58 1048.94 1468.33 Q1048.94 1477.06 1045.86 1481.67 Q1042.81 1486.25 1037 1486.25 Q1031.18 1486.25 1028.11 1481.67 Q1025.05 1477.06 1025.05 1468.33 Q1025.05 1459.58 1028.11 1455 Q1031.18 1450.39 1037 1450.39 Z" fill="#000000" fill-rule="evenodd" fill-opacity="1" /><path clip-path="url(#clip740)" d="M1297.45 1454.1 Q1293.83 1454.1 1292.01 1457.66 Q1290.2 1461.2 1290.2 1468.33 Q1290.2 1475.44 1292.01 1479.01 Q1293.83 1482.55 1297.45 1482.55 Q1301.08 1482.55 1302.89 1479.01 Q1304.71 1475.44 1304.71 1468.33 Q1304.71 1461.2 1302.89 1457.66 Q1301.08 1454.1 1297.45 1454.1 M1297.45 1450.39 Q1303.26 1450.39 1306.31 1455 Q1309.39 1459.58 1309.39 1468.33 Q1309.39 1477.06 1306.31 1481.67 Q1303.26 1486.25 1297.45 1486.25 Q1291.64 1486.25 1288.56 1481.67 Q1285.5 1477.06 1285.5 1468.33 Q1285.5 1459.58 1288.56 1455 Q1291.64 1450.39 1297.45 1450.39 Z" fill="#000000" fill-rule="evenodd" fill-opacity="1" /><path clip-path="url(#clip740)" d="M1566.58 1481.64 L1574.21 1481.64 L1574.21 1455.28 L1565.9 1456.95 L1565.9 1452.69 L1574.17 1451.02 L1578.84 1451.02 L1578.84 1481.64 L1586.48 1481.64 L1586.48 1485.58 L1566.58 1485.58 L1566.58 1481.64 Z" fill="#000000" fill-rule="evenodd" fill-opacity="1" /><path clip-path="url(#clip740)" d="M1605.93 1454.1 Q1602.32 1454.1 1600.49 1457.66 Q1598.68 1461.2 1598.68 1468.33 Q1598.68 1475.44 1600.49 1479.01 Q1602.32 1482.55 1605.93 1482.55 Q1609.56 1482.55 1611.37 1479.01 Q1613.2 1475.44 1613.2 1468.33 Q1613.2 1461.2 1611.37 1457.66 Q1609.56 1454.1 1605.93 1454.1 M1605.93 1450.39 Q1611.74 1450.39 1614.79 1455 Q1617.87 1459.58 1617.87 1468.33 Q1617.87 1477.06 1614.79 1481.67 Q1611.74 1486.25 1605.93 1486.25 Q1600.12 1486.25 1597.04 1481.67 Q1593.98 1477.06 1593.98 1468.33 Q1593.98 1459.58 1597.04 1455 Q1600.12 1450.39 1605.93 1450.39 Z" fill="#000000" fill-rule="evenodd" fill-opacity="1" /><path clip-path="url(#clip740)" d="M1865.1 1481.64 L1881.42 1481.64 L1881.42 1485.58 L1859.48 1485.58 L1859.48 1481.64 Q1862.14 1478.89 1866.73 1474.26 Q1871.33 1469.61 1872.51 1468.27 Q1874.76 1465.74 1875.64 1464.01 Q1876.54 1462.25 1876.54 1460.56 Q1876.54 1457.8 1874.6 1456.07 Q1872.67 1454.33 1869.57 1454.33 Q1867.37 1454.33 1864.92 1455.09 Q1862.49 1455.86 1859.71 1457.41 L1859.71 1452.69 Q1862.54 1451.55 1864.99 1450.97 Q1867.44 1450.39 1869.48 1450.39 Q1874.85 1450.39 1878.04 1453.08 Q1881.24 1455.77 1881.24 1460.26 Q1881.24 1462.39 1880.43 1464.31 Q1879.64 1466.2 1877.54 1468.8 Q1876.96 1469.47 1873.85 1472.69 Q1870.75 1475.88 1865.1 1481.64 Z" fill="#000000" fill-rule="evenodd" fill-opacity="1" /><path clip-path="url(#clip740)" d="M1901.24 1454.1 Q1897.63 1454.1 1895.8 1457.66 Q1893.99 1461.2 1893.99 1468.33 Q1893.99 1475.44 1895.8 1479.01 Q1897.63 1482.55 1901.24 1482.55 Q1904.87 1482.55 1906.68 1479.01 Q1908.51 1475.44 1908.51 1468.33 Q1908.51 1461.2 1906.68 1457.66 Q1904.87 1454.1 1901.24 1454.1 M1901.24 1450.39 Q1907.05 1450.39 1910.1 1455 Q1913.18 1459.58 1913.18 1468.33 Q1913.18 1477.06 1910.1 1481.67 Q1907.05 1486.25 1901.24 1486.25 Q1895.43 1486.25 1892.35 1481.67 Q1889.29 1477.06 1889.29 1468.33 Q1889.29 1459.58 1892.35 1455 Q1895.43 1450.39 1901.24 1450.39 Z" fill="#000000" fill-rule="evenodd" fill-opacity="1" /><path clip-path="url(#clip740)" d="M2169.62 1466.95 Q2172.97 1467.66 2174.85 1469.93 Q2176.75 1472.2 2176.75 1475.53 Q2176.75 1480.65 2173.23 1483.45 Q2169.71 1486.25 2163.23 1486.25 Q2161.05 1486.25 2158.74 1485.81 Q2156.45 1485.39 2153.99 1484.54 L2153.99 1480.02 Q2155.94 1481.16 2158.25 1481.74 Q2160.57 1482.32 2163.09 1482.32 Q2167.49 1482.32 2169.78 1480.58 Q2172.09 1478.84 2172.09 1475.53 Q2172.09 1472.48 2169.94 1470.77 Q2167.81 1469.03 2163.99 1469.03 L2159.96 1469.03 L2159.96 1465.19 L2164.18 1465.19 Q2167.63 1465.19 2169.46 1463.82 Q2171.28 1462.43 2171.28 1459.84 Q2171.28 1457.18 2169.39 1455.77 Q2167.51 1454.33 2163.99 1454.33 Q2162.07 1454.33 2159.87 1454.75 Q2157.67 1455.16 2155.03 1456.04 L2155.03 1451.88 Q2157.7 1451.14 2160.01 1450.77 Q2162.35 1450.39 2164.41 1450.39 Q2169.73 1450.39 2172.83 1452.83 Q2175.94 1455.23 2175.94 1459.35 Q2175.94 1462.22 2174.29 1464.21 Q2172.65 1466.18 2169.62 1466.95 Z" fill="#000000" fill-rule="evenodd" fill-opacity="1" /><path clip-path="url(#clip740)" d="M2195.61 1454.1 Q2192 1454.1 2190.17 1457.66 Q2188.37 1461.2 2188.37 1468.33 Q2188.37 1475.44 2190.17 1479.01 Q2192 1482.55 2195.61 1482.55 Q2199.25 1482.55 2201.05 1479.01 Q2202.88 1475.44 2202.88 1468.33 Q2202.88 1461.2 2201.05 1457.66 Q2199.25 1454.1 2195.61 1454.1 M2195.61 1450.39 Q2201.42 1450.39 2204.48 1455 Q2207.56 1459.58 2207.56 1468.33 Q2207.56 1477.06 2204.48 1481.67 Q2201.42 1486.25 2195.61 1486.25 Q2189.8 1486.25 2186.72 1481.67 Q2183.67 1477.06 2183.67 1468.33 Q2183.67 1459.58 2186.72 1455 Q2189.8 1450.39 2195.61 1450.39 Z" fill="#000000" fill-rule="evenodd" fill-opacity="1" /><path clip-path="url(#clip740)" d="M1302.65 1551.46 L1301.25 1544.11 Q1299.82 1536.57 1294.15 1536.57 Q1289.89 1536.57 1287.94 1540.07 Q1285.49 1544.46 1285.49 1550.25 Q1285.49 1557.25 1287.88 1560.6 Q1290.3 1564 1294.15 1564 Q1298.42 1564 1300.71 1557.22 L1302.65 1551.46 M1305.93 1541.72 L1309.08 1532.4 L1314.3 1532.4 L1307.77 1551.72 L1309.05 1558.69 Q1309.33 1560.25 1310.45 1561.55 Q1311.75 1563.08 1312.77 1563.08 L1315.57 1563.08 L1315.57 1568.04 L1312.07 1568.04 Q1309.08 1568.04 1306.41 1565.37 Q1305.1 1564.03 1304.56 1561.23 Q1303.09 1564.77 1300.1 1567.53 Q1298.7 1568.84 1294.15 1568.84 Q1286.67 1568.84 1283.04 1564 Q1279.32 1559 1279.32 1550.25 Q1279.32 1540.89 1283.36 1536.5 Q1287.85 1531.6 1294.15 1531.6 Q1304.05 1531.6 1305.93 1541.72 Z" fill="#000000" fill-rule="evenodd" fill-opacity="1" /><polyline clip-path="url(#clip742)" style="stroke:#000000; stroke-linecap:round; stroke-linejoin:round; stroke-width:2; stroke-opacity:0.1; fill:none" points="242.135,1311.06 2352.76,1311.06 "/>
<polyline clip-path="url(#clip742)" style="stroke:#000000; stroke-linecap:round; stroke-linejoin:round; stroke-width:2; stroke-opacity:0.1; fill:none" points="242.135,1119.11 2352.76,1119.11 "/>
<polyline clip-path="url(#clip742)" style="stroke:#000000; stroke-linecap:round; stroke-linejoin:round; stroke-width:2; stroke-opacity:0.1; fill:none" points="242.135,927.162 2352.76,927.162 "/>
<polyline clip-path="url(#clip742)" style="stroke:#000000; stroke-linecap:round; stroke-linejoin:round; stroke-width:2; stroke-opacity:0.1; fill:none" points="242.135,735.212 2352.76,735.212 "/>
<polyline clip-path="url(#clip742)" style="stroke:#000000; stroke-linecap:round; stroke-linejoin:round; stroke-width:2; stroke-opacity:0.1; fill:none" points="242.135,543.261 2352.76,543.261 "/>
<polyline clip-path="url(#clip742)" style="stroke:#000000; stroke-linecap:round; stroke-linejoin:round; stroke-width:2; stroke-opacity:0.1; fill:none" points="242.135,351.311 2352.76,351.311 "/>
<polyline clip-path="url(#clip742)" style="stroke:#000000; stroke-linecap:round; stroke-linejoin:round; stroke-width:2; stroke-opacity:0.1; fill:none" points="242.135,159.36 2352.76,159.36 "/>
<polyline clip-path="url(#clip740)" style="stroke:#000000; stroke-linecap:round; stroke-linejoin:round; stroke-width:4; stroke-opacity:1; fill:none" points="242.135,1423.18 242.135,47.2441 "/>
<polyline clip-path="url(#clip740)" style="stroke:#000000; stroke-linecap:round; stroke-linejoin:round; stroke-width:4; stroke-opacity:1; fill:none" points="242.135,1311.06 261.032,1311.06 "/>
<polyline clip-path="url(#clip740)" style="stroke:#000000; stroke-linecap:round; stroke-linejoin:round; stroke-width:4; stroke-opacity:1; fill:none" points="242.135,1119.11 261.032,1119.11 "/>
<polyline clip-path="url(#clip740)" style="stroke:#000000; stroke-linecap:round; stroke-linejoin:round; stroke-width:4; stroke-opacity:1; fill:none" points="242.135,927.162 261.032,927.162 "/>
<polyline clip-path="url(#clip740)" style="stroke:#000000; stroke-linecap:round; stroke-linejoin:round; stroke-width:4; stroke-opacity:1; fill:none" points="242.135,735.212 261.032,735.212 "/>
<polyline clip-path="url(#clip740)" style="stroke:#000000; stroke-linecap:round; stroke-linejoin:round; stroke-width:4; stroke-opacity:1; fill:none" points="242.135,543.261 261.032,543.261 "/>
<polyline clip-path="url(#clip740)" style="stroke:#000000; stroke-linecap:round; stroke-linejoin:round; stroke-width:4; stroke-opacity:1; fill:none" points="242.135,351.311 261.032,351.311 "/>
<polyline clip-path="url(#clip740)" style="stroke:#000000; stroke-linecap:round; stroke-linejoin:round; stroke-width:4; stroke-opacity:1; fill:none" points="242.135,159.36 261.032,159.36 "/>
<path clip-path="url(#clip740)" d="M114.26 1311.51 L143.936 1311.51 L143.936 1315.45 L114.26 1315.45 L114.26 1311.51 Z" fill="#000000" fill-rule="evenodd" fill-opacity="1" /><path clip-path="url(#clip740)" d="M168.195 1309.71 Q171.552 1310.43 173.427 1312.7 Q175.325 1314.96 175.325 1318.3 Q175.325 1323.41 171.806 1326.21 Q168.288 1329.01 161.806 1329.01 Q159.63 1329.01 157.315 1328.58 Q155.024 1328.16 152.57 1327.3 L152.57 1322.79 Q154.515 1323.92 156.829 1324.5 Q159.144 1325.08 161.667 1325.08 Q166.065 1325.08 168.357 1323.34 Q170.672 1321.61 170.672 1318.3 Q170.672 1315.24 168.519 1313.53 Q166.39 1311.79 162.57 1311.79 L158.542 1311.79 L158.542 1307.95 L162.755 1307.95 Q166.204 1307.95 168.033 1306.58 Q169.862 1305.2 169.862 1302.6 Q169.862 1299.94 167.964 1298.53 Q166.089 1297.09 162.57 1297.09 Q160.649 1297.09 158.45 1297.51 Q156.251 1297.93 153.612 1298.81 L153.612 1294.64 Q156.274 1293.9 158.589 1293.53 Q160.927 1293.16 162.987 1293.16 Q168.311 1293.16 171.413 1295.59 Q174.514 1298 174.514 1302.12 Q174.514 1304.99 172.871 1306.98 Q171.227 1308.95 168.195 1309.71 Z" fill="#000000" fill-rule="evenodd" fill-opacity="1" /><path clip-path="url(#clip740)" d="M194.19 1296.86 Q190.579 1296.86 188.75 1300.43 Q186.945 1303.97 186.945 1311.1 Q186.945 1318.2 188.75 1321.77 Q190.579 1325.31 194.19 1325.31 Q197.825 1325.31 199.63 1321.77 Q201.459 1318.2 201.459 1311.1 Q201.459 1303.97 199.63 1300.43 Q197.825 1296.86 194.19 1296.86 M194.19 1293.16 Q200 1293.16 203.056 1297.76 Q206.135 1302.35 206.135 1311.1 Q206.135 1319.83 203.056 1324.43 Q200 1329.01 194.19 1329.01 Q188.38 1329.01 185.301 1324.43 Q182.246 1319.83 182.246 1311.1 Q182.246 1302.35 185.301 1297.76 Q188.38 1293.16 194.19 1293.16 Z" fill="#000000" fill-rule="evenodd" fill-opacity="1" /><path clip-path="url(#clip740)" d="M114.26 1119.56 L143.936 1119.56 L143.936 1123.5 L114.26 1123.5 L114.26 1119.56 Z" fill="#000000" fill-rule="evenodd" fill-opacity="1" /><path clip-path="url(#clip740)" d="M158.056 1132.46 L174.376 1132.46 L174.376 1136.39 L152.431 1136.39 L152.431 1132.46 Q155.093 1129.7 159.677 1125.07 Q164.283 1120.42 165.464 1119.08 Q167.709 1116.56 168.589 1114.82 Q169.491 1113.06 169.491 1111.37 Q169.491 1108.62 167.547 1106.88 Q165.626 1105.14 162.524 1105.14 Q160.325 1105.14 157.871 1105.91 Q155.44 1106.67 152.663 1108.22 L152.663 1103.5 Q155.487 1102.37 157.94 1101.79 Q160.394 1101.21 162.431 1101.21 Q167.802 1101.21 170.996 1103.89 Q174.19 1106.58 174.19 1111.07 Q174.19 1113.2 173.38 1115.12 Q172.593 1117.02 170.487 1119.61 Q169.908 1120.28 166.806 1123.5 Q163.704 1126.69 158.056 1132.46 Z" fill="#000000" fill-rule="evenodd" fill-opacity="1" /><path clip-path="url(#clip740)" d="M194.19 1104.91 Q190.579 1104.91 188.75 1108.48 Q186.945 1112.02 186.945 1119.15 Q186.945 1126.25 188.75 1129.82 Q190.579 1133.36 194.19 1133.36 Q197.825 1133.36 199.63 1129.82 Q201.459 1126.25 201.459 1119.15 Q201.459 1112.02 199.63 1108.48 Q197.825 1104.91 194.19 1104.91 M194.19 1101.21 Q200 1101.21 203.056 1105.81 Q206.135 1110.4 206.135 1119.15 Q206.135 1127.87 203.056 1132.48 Q200 1137.06 194.19 1137.06 Q188.38 1137.06 185.301 1132.48 Q182.246 1127.87 182.246 1119.15 Q182.246 1110.4 185.301 1105.81 Q188.38 1101.21 194.19 1101.21 Z" fill="#000000" fill-rule="evenodd" fill-opacity="1" /><path clip-path="url(#clip740)" d="M114.26 927.614 L143.936 927.614 L143.936 931.549 L114.26 931.549 L114.26 927.614 Z" fill="#000000" fill-rule="evenodd" fill-opacity="1" /><path clip-path="url(#clip740)" d="M154.839 940.507 L162.477 940.507 L162.477 914.142 L154.167 915.808 L154.167 911.549 L162.431 909.882 L167.107 909.882 L167.107 940.507 L174.746 940.507 L174.746 944.442 L154.839 944.442 L154.839 940.507 Z" fill="#000000" fill-rule="evenodd" fill-opacity="1" /><path clip-path="url(#clip740)" d="M194.19 912.961 Q190.579 912.961 188.75 916.526 Q186.945 920.068 186.945 927.197 Q186.945 934.304 188.75 937.868 Q190.579 941.41 194.19 941.41 Q197.825 941.41 199.63 937.868 Q201.459 934.304 201.459 927.197 Q201.459 920.068 199.63 916.526 Q197.825 912.961 194.19 912.961 M194.19 909.257 Q200 909.257 203.056 913.864 Q206.135 918.447 206.135 927.197 Q206.135 935.924 203.056 940.53 Q200 945.114 194.19 945.114 Q188.38 945.114 185.301 940.53 Q182.246 935.924 182.246 927.197 Q182.246 918.447 185.301 913.864 Q188.38 909.257 194.19 909.257 Z" fill="#000000" fill-rule="evenodd" fill-opacity="1" /><path clip-path="url(#clip740)" d="M194.19 721.011 Q190.579 721.011 188.75 724.575 Q186.945 728.117 186.945 735.247 Q186.945 742.353 188.75 745.918 Q190.579 749.46 194.19 749.46 Q197.825 749.46 199.63 745.918 Q201.459 742.353 201.459 735.247 Q201.459 728.117 199.63 724.575 Q197.825 721.011 194.19 721.011 M194.19 717.307 Q200 717.307 203.056 721.913 Q206.135 726.497 206.135 735.247 Q206.135 743.973 203.056 748.58 Q200 753.163 194.19 753.163 Q188.38 753.163 185.301 748.58 Q182.246 743.973 182.246 735.247 Q182.246 726.497 185.301 721.913 Q188.38 717.307 194.19 717.307 Z" fill="#000000" fill-rule="evenodd" fill-opacity="1" /><path clip-path="url(#clip740)" d="M154.839 556.606 L162.477 556.606 L162.477 530.241 L154.167 531.907 L154.167 527.648 L162.431 525.981 L167.107 525.981 L167.107 556.606 L174.746 556.606 L174.746 560.541 L154.839 560.541 L154.839 556.606 Z" fill="#000000" fill-rule="evenodd" fill-opacity="1" /><path clip-path="url(#clip740)" d="M194.19 529.06 Q190.579 529.06 188.75 532.625 Q186.945 536.167 186.945 543.296 Q186.945 550.403 188.75 553.967 Q190.579 557.509 194.19 557.509 Q197.825 557.509 199.63 553.967 Q201.459 550.403 201.459 543.296 Q201.459 536.167 199.63 532.625 Q197.825 529.06 194.19 529.06 M194.19 525.356 Q200 525.356 203.056 529.963 Q206.135 534.546 206.135 543.296 Q206.135 552.023 203.056 556.629 Q200 561.213 194.19 561.213 Q188.38 561.213 185.301 556.629 Q182.246 552.023 182.246 543.296 Q182.246 534.546 185.301 529.963 Q188.38 525.356 194.19 525.356 Z" fill="#000000" fill-rule="evenodd" fill-opacity="1" /><path clip-path="url(#clip740)" d="M158.056 364.656 L174.376 364.656 L174.376 368.591 L152.431 368.591 L152.431 364.656 Q155.093 361.901 159.677 357.272 Q164.283 352.619 165.464 351.276 Q167.709 348.753 168.589 347.017 Q169.491 345.258 169.491 343.568 Q169.491 340.813 167.547 339.077 Q165.626 337.341 162.524 337.341 Q160.325 337.341 157.871 338.105 Q155.44 338.869 152.663 340.42 L152.663 335.698 Q155.487 334.563 157.94 333.985 Q160.394 333.406 162.431 333.406 Q167.802 333.406 170.996 336.091 Q174.19 338.776 174.19 343.267 Q174.19 345.397 173.38 347.318 Q172.593 349.216 170.487 351.809 Q169.908 352.48 166.806 355.697 Q163.704 358.892 158.056 364.656 Z" fill="#000000" fill-rule="evenodd" fill-opacity="1" /><path clip-path="url(#clip740)" d="M194.19 337.11 Q190.579 337.11 188.75 340.674 Q186.945 344.216 186.945 351.346 Q186.945 358.452 188.75 362.017 Q190.579 365.559 194.19 365.559 Q197.825 365.559 199.63 362.017 Q201.459 358.452 201.459 351.346 Q201.459 344.216 199.63 340.674 Q197.825 337.11 194.19 337.11 M194.19 333.406 Q200 333.406 203.056 338.012 Q206.135 342.596 206.135 351.346 Q206.135 360.072 203.056 364.679 Q200 369.262 194.19 369.262 Q188.38 369.262 185.301 364.679 Q182.246 360.072 182.246 351.346 Q182.246 342.596 185.301 338.012 Q188.38 333.406 194.19 333.406 Z" fill="#000000" fill-rule="evenodd" fill-opacity="1" /><path clip-path="url(#clip740)" d="M168.195 158.006 Q171.552 158.724 173.427 160.992 Q175.325 163.261 175.325 166.594 Q175.325 171.71 171.806 174.511 Q168.288 177.312 161.806 177.312 Q159.63 177.312 157.315 176.872 Q155.024 176.455 152.57 175.599 L152.57 171.085 Q154.515 172.219 156.829 172.798 Q159.144 173.377 161.667 173.377 Q166.065 173.377 168.357 171.64 Q170.672 169.904 170.672 166.594 Q170.672 163.539 168.519 161.826 Q166.39 160.09 162.57 160.09 L158.542 160.09 L158.542 156.247 L162.755 156.247 Q166.204 156.247 168.033 154.881 Q169.862 153.492 169.862 150.9 Q169.862 148.238 167.964 146.826 Q166.089 145.391 162.57 145.391 Q160.649 145.391 158.45 145.807 Q156.251 146.224 153.612 147.104 L153.612 142.937 Q156.274 142.196 158.589 141.826 Q160.927 141.455 162.987 141.455 Q168.311 141.455 171.413 143.886 Q174.514 146.293 174.514 150.414 Q174.514 153.284 172.871 155.275 Q171.227 157.242 168.195 158.006 Z" fill="#000000" fill-rule="evenodd" fill-opacity="1" /><path clip-path="url(#clip740)" d="M194.19 145.159 Q190.579 145.159 188.75 148.724 Q186.945 152.266 186.945 159.395 Q186.945 166.502 188.75 170.066 Q190.579 173.608 194.19 173.608 Q197.825 173.608 199.63 170.066 Q201.459 166.502 201.459 159.395 Q201.459 152.266 199.63 148.724 Q197.825 145.159 194.19 145.159 M194.19 141.455 Q200 141.455 203.056 146.062 Q206.135 150.645 206.135 159.395 Q206.135 168.122 203.056 172.728 Q200 177.312 194.19 177.312 Q188.38 177.312 185.301 172.728 Q182.246 168.122 182.246 159.395 Q182.246 150.645 185.301 146.062 Q188.38 141.455 194.19 141.455 Z" fill="#000000" fill-rule="evenodd" fill-opacity="1" /><path clip-path="url(#clip740)" d="M61.808 744.729 L77.5631 744.729 L77.5631 750.617 L28.579 750.617 Q14.0652 750.617 14.0652 737.058 Q14.0652 723.244 26.3192 723.244 Q35.0402 723.244 38.223 728.719 Q41.0876 719.807 49.5858 719.807 Q64.6726 719.807 64.6726 735.148 Q64.6726 741.896 61.808 744.729 M54.1691 744.729 Q59.6755 741.196 59.6755 734.926 Q59.6755 725.759 49.6813 725.759 Q40.7057 725.759 41.4059 740.527 L35.995 740.527 Q35.995 728.974 25.8099 728.974 Q18.8395 728.974 18.8395 736.421 Q18.8395 744.729 28.77 744.729 L54.1691 744.729 Z" fill="#000000" fill-rule="evenodd" fill-opacity="1" /><circle clip-path="url(#clip742)" cx="1326.89" cy="735.212" r="14.4" fill="#000000" fill-rule="evenodd" fill-opacity="1" stroke="none"/>
<circle clip-path="url(#clip742)" cx="1340.99" cy="735.212" r="14.4" fill="#000000" fill-rule="evenodd" fill-opacity="1" stroke="none"/>
<circle clip-path="url(#clip742)" cx="1361.83" cy="735.212" r="14.4" fill="#000000" fill-rule="evenodd" fill-opacity="1" stroke="none"/>
<circle clip-path="url(#clip742)" cx="1392.66" cy="735.212" r="14.4" fill="#000000" fill-rule="evenodd" fill-opacity="1" stroke="none"/>
<circle clip-path="url(#clip742)" cx="1438.24" cy="735.212" r="14.4" fill="#000000" fill-rule="evenodd" fill-opacity="1" stroke="none"/>
<circle clip-path="url(#clip742)" cx="1505.65" cy="735.212" r="14.4" fill="#000000" fill-rule="evenodd" fill-opacity="1" stroke="none"/>
<circle clip-path="url(#clip742)" cx="1605.33" cy="735.212" r="14.4" fill="#000000" fill-rule="evenodd" fill-opacity="1" stroke="none"/>
<circle clip-path="url(#clip742)" cx="1752.73" cy="735.212" r="14.4" fill="#000000" fill-rule="evenodd" fill-opacity="1" stroke="none"/>
<circle clip-path="url(#clip742)" cx="1970.7" cy="735.212" r="14.4" fill="#000000" fill-rule="evenodd" fill-opacity="1" stroke="none"/>
<circle clip-path="url(#clip742)" cx="2293.02" cy="735.212" r="14.4" fill="#000000" fill-rule="evenodd" fill-opacity="1" stroke="none"/>
<circle clip-path="url(#clip742)" cx="1325.45" cy="729.28" r="14.4" fill="#000000" fill-rule="evenodd" fill-opacity="1" stroke="none"/>
<circle clip-path="url(#clip742)" cx="1338.86" cy="726.441" r="14.4" fill="#000000" fill-rule="evenodd" fill-opacity="1" stroke="none"/>
<circle clip-path="url(#clip742)" cx="1358.68" cy="722.241" r="14.4" fill="#000000" fill-rule="evenodd" fill-opacity="1" stroke="none"/>
<circle clip-path="url(#clip742)" cx="1388" cy="716.031" r="14.4" fill="#000000" fill-rule="evenodd" fill-opacity="1" stroke="none"/>
<circle clip-path="url(#clip742)" cx="1431.35" cy="706.848" r="14.4" fill="#000000" fill-rule="evenodd" fill-opacity="1" stroke="none"/>
<circle clip-path="url(#clip742)" cx="1495.46" cy="693.269" r="14.4" fill="#000000" fill-rule="evenodd" fill-opacity="1" stroke="none"/>
<circle clip-path="url(#clip742)" cx="1590.26" cy="673.189" r="14.4" fill="#000000" fill-rule="evenodd" fill-opacity="1" stroke="none"/>
<circle clip-path="url(#clip742)" cx="1730.44" cy="643.495" r="14.4" fill="#000000" fill-rule="evenodd" fill-opacity="1" stroke="none"/>
<circle clip-path="url(#clip742)" cx="1937.75" cy="599.584" r="14.4" fill="#000000" fill-rule="evenodd" fill-opacity="1" stroke="none"/>
<circle clip-path="url(#clip742)" cx="2244.29" cy="534.652" r="14.4" fill="#000000" fill-rule="evenodd" fill-opacity="1" stroke="none"/>
<circle clip-path="url(#clip742)" cx="1321.27" cy="723.929" r="14.4" fill="#000000" fill-rule="evenodd" fill-opacity="1" stroke="none"/>
<circle clip-path="url(#clip742)" cx="1332.67" cy="718.528" r="14.4" fill="#000000" fill-rule="evenodd" fill-opacity="1" stroke="none"/>
<circle clip-path="url(#clip742)" cx="1349.54" cy="710.54" r="14.4" fill="#000000" fill-rule="evenodd" fill-opacity="1" stroke="none"/>
<circle clip-path="url(#clip742)" cx="1374.47" cy="698.728" r="14.4" fill="#000000" fill-rule="evenodd" fill-opacity="1" stroke="none"/>
<circle clip-path="url(#clip742)" cx="1411.35" cy="681.261" r="14.4" fill="#000000" fill-rule="evenodd" fill-opacity="1" stroke="none"/>
<circle clip-path="url(#clip742)" cx="1465.88" cy="655.432" r="14.4" fill="#000000" fill-rule="evenodd" fill-opacity="1" stroke="none"/>
<circle clip-path="url(#clip742)" cx="1546.53" cy="617.237" r="14.4" fill="#000000" fill-rule="evenodd" fill-opacity="1" stroke="none"/>
<circle clip-path="url(#clip742)" cx="1665.78" cy="560.756" r="14.4" fill="#000000" fill-rule="evenodd" fill-opacity="1" stroke="none"/>
<circle clip-path="url(#clip742)" cx="1842.12" cy="477.233" r="14.4" fill="#000000" fill-rule="evenodd" fill-opacity="1" stroke="none"/>
<circle clip-path="url(#clip742)" cx="2102.88" cy="353.724" r="14.4" fill="#000000" fill-rule="evenodd" fill-opacity="1" stroke="none"/>
<circle clip-path="url(#clip742)" cx="1314.75" cy="719.683" r="14.4" fill="#000000" fill-rule="evenodd" fill-opacity="1" stroke="none"/>
<circle clip-path="url(#clip742)" cx="1323.04" cy="712.248" r="14.4" fill="#000000" fill-rule="evenodd" fill-opacity="1" stroke="none"/>
<circle clip-path="url(#clip742)" cx="1335.29" cy="701.254" r="14.4" fill="#000000" fill-rule="evenodd" fill-opacity="1" stroke="none"/>
<circle clip-path="url(#clip742)" cx="1353.41" cy="684.996" r="14.4" fill="#000000" fill-rule="evenodd" fill-opacity="1" stroke="none"/>
<circle clip-path="url(#clip742)" cx="1380.2" cy="660.955" r="14.4" fill="#000000" fill-rule="evenodd" fill-opacity="1" stroke="none"/>
<circle clip-path="url(#clip742)" cx="1419.82" cy="625.404" r="14.4" fill="#000000" fill-rule="evenodd" fill-opacity="1" stroke="none"/>
<circle clip-path="url(#clip742)" cx="1478.41" cy="572.833" r="14.4" fill="#000000" fill-rule="evenodd" fill-opacity="1" stroke="none"/>
<circle clip-path="url(#clip742)" cx="1565.05" cy="495.093" r="14.4" fill="#000000" fill-rule="evenodd" fill-opacity="1" stroke="none"/>
<circle clip-path="url(#clip742)" cx="1693.17" cy="380.135" r="14.4" fill="#000000" fill-rule="evenodd" fill-opacity="1" stroke="none"/>
<circle clip-path="url(#clip742)" cx="1882.63" cy="210.139" r="14.4" fill="#000000" fill-rule="evenodd" fill-opacity="1" stroke="none"/>
<circle clip-path="url(#clip742)" cx="1306.54" cy="716.956" r="14.4" fill="#000000" fill-rule="evenodd" fill-opacity="1" stroke="none"/>
<circle clip-path="url(#clip742)" cx="1310.9" cy="708.216" r="14.4" fill="#000000" fill-rule="evenodd" fill-opacity="1" stroke="none"/>
<circle clip-path="url(#clip742)" cx="1317.34" cy="695.292" r="14.4" fill="#000000" fill-rule="evenodd" fill-opacity="1" stroke="none"/>
<circle clip-path="url(#clip742)" cx="1326.87" cy="676.18" r="14.4" fill="#000000" fill-rule="evenodd" fill-opacity="1" stroke="none"/>
<circle clip-path="url(#clip742)" cx="1340.95" cy="647.918" r="14.4" fill="#000000" fill-rule="evenodd" fill-opacity="1" stroke="none"/>
<circle clip-path="url(#clip742)" cx="1361.78" cy="606.126" r="14.4" fill="#000000" fill-rule="evenodd" fill-opacity="1" stroke="none"/>
<circle clip-path="url(#clip742)" cx="1392.59" cy="544.324" r="14.4" fill="#000000" fill-rule="evenodd" fill-opacity="1" stroke="none"/>
<circle clip-path="url(#clip742)" cx="1438.14" cy="452.936" r="14.4" fill="#000000" fill-rule="evenodd" fill-opacity="1" stroke="none"/>
<circle clip-path="url(#clip742)" cx="1505.49" cy="317.794" r="14.4" fill="#000000" fill-rule="evenodd" fill-opacity="1" stroke="none"/>
<circle clip-path="url(#clip742)" cx="1605.1" cy="117.951" r="14.4" fill="#000000" fill-rule="evenodd" fill-opacity="1" stroke="none"/>
<circle clip-path="url(#clip742)" cx="1297.45" cy="716.017" r="14.4" fill="#000000" fill-rule="evenodd" fill-opacity="1" stroke="none"/>
<circle clip-path="url(#clip742)" cx="1297.45" cy="706.827" r="14.4" fill="#000000" fill-rule="evenodd" fill-opacity="1" stroke="none"/>
<circle clip-path="url(#clip742)" cx="1297.45" cy="693.238" r="14.4" fill="#000000" fill-rule="evenodd" fill-opacity="1" stroke="none"/>
<circle clip-path="url(#clip742)" cx="1297.45" cy="673.142" r="14.4" fill="#000000" fill-rule="evenodd" fill-opacity="1" stroke="none"/>
<circle clip-path="url(#clip742)" cx="1297.45" cy="643.426" r="14.4" fill="#000000" fill-rule="evenodd" fill-opacity="1" stroke="none"/>
<circle clip-path="url(#clip742)" cx="1297.45" cy="599.482" r="14.4" fill="#000000" fill-rule="evenodd" fill-opacity="1" stroke="none"/>
<circle clip-path="url(#clip742)" cx="1297.45" cy="534.501" r="14.4" fill="#000000" fill-rule="evenodd" fill-opacity="1" stroke="none"/>
<circle clip-path="url(#clip742)" cx="1297.45" cy="438.409" r="14.4" fill="#000000" fill-rule="evenodd" fill-opacity="1" stroke="none"/>
<circle clip-path="url(#clip742)" cx="1297.45" cy="296.312" r="14.4" fill="#000000" fill-rule="evenodd" fill-opacity="1" stroke="none"/>
<circle clip-path="url(#clip742)" cx="1297.45" cy="86.1857" r="14.4" fill="#000000" fill-rule="evenodd" fill-opacity="1" stroke="none"/>
<circle clip-path="url(#clip742)" cx="1288.35" cy="716.956" r="14.4" fill="#000000" fill-rule="evenodd" fill-opacity="1" stroke="none"/>
<circle clip-path="url(#clip742)" cx="1283.99" cy="708.216" r="14.4" fill="#000000" fill-rule="evenodd" fill-opacity="1" stroke="none"/>
<circle clip-path="url(#clip742)" cx="1277.55" cy="695.292" r="14.4" fill="#000000" fill-rule="evenodd" fill-opacity="1" stroke="none"/>
<circle clip-path="url(#clip742)" cx="1268.02" cy="676.18" r="14.4" fill="#000000" fill-rule="evenodd" fill-opacity="1" stroke="none"/>
<circle clip-path="url(#clip742)" cx="1253.94" cy="647.918" r="14.4" fill="#000000" fill-rule="evenodd" fill-opacity="1" stroke="none"/>
<circle clip-path="url(#clip742)" cx="1233.11" cy="606.126" r="14.4" fill="#000000" fill-rule="evenodd" fill-opacity="1" stroke="none"/>
<circle clip-path="url(#clip742)" cx="1202.3" cy="544.324" r="14.4" fill="#000000" fill-rule="evenodd" fill-opacity="1" stroke="none"/>
<circle clip-path="url(#clip742)" cx="1156.76" cy="452.936" r="14.4" fill="#000000" fill-rule="evenodd" fill-opacity="1" stroke="none"/>
<circle clip-path="url(#clip742)" cx="1089.4" cy="317.794" r="14.4" fill="#000000" fill-rule="evenodd" fill-opacity="1" stroke="none"/>
<circle clip-path="url(#clip742)" cx="989.795" cy="117.951" r="14.4" fill="#000000" fill-rule="evenodd" fill-opacity="1" stroke="none"/>
<circle clip-path="url(#clip742)" cx="1280.14" cy="719.683" r="14.4" fill="#000000" fill-rule="evenodd" fill-opacity="1" stroke="none"/>
<circle clip-path="url(#clip742)" cx="1271.85" cy="712.248" r="14.4" fill="#000000" fill-rule="evenodd" fill-opacity="1" stroke="none"/>
<circle clip-path="url(#clip742)" cx="1259.6" cy="701.254" r="14.4" fill="#000000" fill-rule="evenodd" fill-opacity="1" stroke="none"/>
<circle clip-path="url(#clip742)" cx="1241.48" cy="684.996" r="14.4" fill="#000000" fill-rule="evenodd" fill-opacity="1" stroke="none"/>
<circle clip-path="url(#clip742)" cx="1214.69" cy="660.955" r="14.4" fill="#000000" fill-rule="evenodd" fill-opacity="1" stroke="none"/>
<circle clip-path="url(#clip742)" cx="1175.07" cy="625.404" r="14.4" fill="#000000" fill-rule="evenodd" fill-opacity="1" stroke="none"/>
<circle clip-path="url(#clip742)" cx="1116.48" cy="572.833" r="14.4" fill="#000000" fill-rule="evenodd" fill-opacity="1" stroke="none"/>
<circle clip-path="url(#clip742)" cx="1029.84" cy="495.093" r="14.4" fill="#000000" fill-rule="evenodd" fill-opacity="1" stroke="none"/>
<circle clip-path="url(#clip742)" cx="901.718" cy="380.135" r="14.4" fill="#000000" fill-rule="evenodd" fill-opacity="1" stroke="none"/>
<circle clip-path="url(#clip742)" cx="712.26" cy="210.139" r="14.4" fill="#000000" fill-rule="evenodd" fill-opacity="1" stroke="none"/>
<circle clip-path="url(#clip742)" cx="1273.62" cy="723.929" r="14.4" fill="#000000" fill-rule="evenodd" fill-opacity="1" stroke="none"/>
<circle clip-path="url(#clip742)" cx="1262.22" cy="718.528" r="14.4" fill="#000000" fill-rule="evenodd" fill-opacity="1" stroke="none"/>
<circle clip-path="url(#clip742)" cx="1245.36" cy="710.54" r="14.4" fill="#000000" fill-rule="evenodd" fill-opacity="1" stroke="none"/>
<circle clip-path="url(#clip742)" cx="1220.42" cy="698.728" r="14.4" fill="#000000" fill-rule="evenodd" fill-opacity="1" stroke="none"/>
<circle clip-path="url(#clip742)" cx="1183.54" cy="681.261" r="14.4" fill="#000000" fill-rule="evenodd" fill-opacity="1" stroke="none"/>
<circle clip-path="url(#clip742)" cx="1129.01" cy="655.432" r="14.4" fill="#000000" fill-rule="evenodd" fill-opacity="1" stroke="none"/>
<circle clip-path="url(#clip742)" cx="1048.36" cy="617.237" r="14.4" fill="#000000" fill-rule="evenodd" fill-opacity="1" stroke="none"/>
<circle clip-path="url(#clip742)" cx="929.114" cy="560.756" r="14.4" fill="#000000" fill-rule="evenodd" fill-opacity="1" stroke="none"/>
<circle clip-path="url(#clip742)" cx="752.773" cy="477.233" r="14.4" fill="#000000" fill-rule="evenodd" fill-opacity="1" stroke="none"/>
<circle clip-path="url(#clip742)" cx="492.007" cy="353.724" r="14.4" fill="#000000" fill-rule="evenodd" fill-opacity="1" stroke="none"/>
<circle clip-path="url(#clip742)" cx="1269.44" cy="729.28" r="14.4" fill="#000000" fill-rule="evenodd" fill-opacity="1" stroke="none"/>
<circle clip-path="url(#clip742)" cx="1256.04" cy="726.441" r="14.4" fill="#000000" fill-rule="evenodd" fill-opacity="1" stroke="none"/>
<circle clip-path="url(#clip742)" cx="1236.21" cy="722.241" r="14.4" fill="#000000" fill-rule="evenodd" fill-opacity="1" stroke="none"/>
<circle clip-path="url(#clip742)" cx="1206.89" cy="716.031" r="14.4" fill="#000000" fill-rule="evenodd" fill-opacity="1" stroke="none"/>
<circle clip-path="url(#clip742)" cx="1163.54" cy="706.848" r="14.4" fill="#000000" fill-rule="evenodd" fill-opacity="1" stroke="none"/>
<circle clip-path="url(#clip742)" cx="1099.43" cy="693.269" r="14.4" fill="#000000" fill-rule="evenodd" fill-opacity="1" stroke="none"/>
<circle clip-path="url(#clip742)" cx="1004.63" cy="673.189" r="14.4" fill="#000000" fill-rule="evenodd" fill-opacity="1" stroke="none"/>
<circle clip-path="url(#clip742)" cx="864.446" cy="643.495" r="14.4" fill="#000000" fill-rule="evenodd" fill-opacity="1" stroke="none"/>
<circle clip-path="url(#clip742)" cx="657.145" cy="599.584" r="14.4" fill="#000000" fill-rule="evenodd" fill-opacity="1" stroke="none"/>
<circle clip-path="url(#clip742)" cx="350.596" cy="534.652" r="14.4" fill="#000000" fill-rule="evenodd" fill-opacity="1" stroke="none"/>
<circle clip-path="url(#clip742)" cx="1268" cy="735.212" r="14.4" fill="#000000" fill-rule="evenodd" fill-opacity="1" stroke="none"/>
<circle clip-path="url(#clip742)" cx="1253.9" cy="735.212" r="14.4" fill="#000000" fill-rule="evenodd" fill-opacity="1" stroke="none"/>
<circle clip-path="url(#clip742)" cx="1233.06" cy="735.212" r="14.4" fill="#000000" fill-rule="evenodd" fill-opacity="1" stroke="none"/>
<circle clip-path="url(#clip742)" cx="1202.23" cy="735.212" r="14.4" fill="#000000" fill-rule="evenodd" fill-opacity="1" stroke="none"/>
<circle clip-path="url(#clip742)" cx="1156.65" cy="735.212" r="14.4" fill="#000000" fill-rule="evenodd" fill-opacity="1" stroke="none"/>
<circle clip-path="url(#clip742)" cx="1089.24" cy="735.212" r="14.4" fill="#000000" fill-rule="evenodd" fill-opacity="1" stroke="none"/>
<circle clip-path="url(#clip742)" cx="989.564" cy="735.212" r="14.4" fill="#000000" fill-rule="evenodd" fill-opacity="1" stroke="none"/>
<circle clip-path="url(#clip742)" cx="842.163" cy="735.212" r="14.4" fill="#000000" fill-rule="evenodd" fill-opacity="1" stroke="none"/>
<circle clip-path="url(#clip742)" cx="624.194" cy="735.212" r="14.4" fill="#000000" fill-rule="evenodd" fill-opacity="1" stroke="none"/>
<circle clip-path="url(#clip742)" cx="301.869" cy="735.212" r="14.4" fill="#000000" fill-rule="evenodd" fill-opacity="1" stroke="none"/>
<circle clip-path="url(#clip742)" cx="1269.44" cy="741.144" r="14.4" fill="#000000" fill-rule="evenodd" fill-opacity="1" stroke="none"/>
<circle clip-path="url(#clip742)" cx="1256.04" cy="743.983" r="14.4" fill="#000000" fill-rule="evenodd" fill-opacity="1" stroke="none"/>
<circle clip-path="url(#clip742)" cx="1236.21" cy="748.183" r="14.4" fill="#000000" fill-rule="evenodd" fill-opacity="1" stroke="none"/>
<circle clip-path="url(#clip742)" cx="1206.89" cy="754.393" r="14.4" fill="#000000" fill-rule="evenodd" fill-opacity="1" stroke="none"/>
<circle clip-path="url(#clip742)" cx="1163.54" cy="763.575" r="14.4" fill="#000000" fill-rule="evenodd" fill-opacity="1" stroke="none"/>
<circle clip-path="url(#clip742)" cx="1099.43" cy="777.155" r="14.4" fill="#000000" fill-rule="evenodd" fill-opacity="1" stroke="none"/>
<circle clip-path="url(#clip742)" cx="1004.63" cy="797.235" r="14.4" fill="#000000" fill-rule="evenodd" fill-opacity="1" stroke="none"/>
<circle clip-path="url(#clip742)" cx="864.446" cy="826.929" r="14.4" fill="#000000" fill-rule="evenodd" fill-opacity="1" stroke="none"/>
<circle clip-path="url(#clip742)" cx="657.145" cy="870.839" r="14.4" fill="#000000" fill-rule="evenodd" fill-opacity="1" stroke="none"/>
<circle clip-path="url(#clip742)" cx="350.596" cy="935.772" r="14.4" fill="#000000" fill-rule="evenodd" fill-opacity="1" stroke="none"/>
<circle clip-path="url(#clip742)" cx="1273.62" cy="746.495" r="14.4" fill="#000000" fill-rule="evenodd" fill-opacity="1" stroke="none"/>
<circle clip-path="url(#clip742)" cx="1262.22" cy="751.896" r="14.4" fill="#000000" fill-rule="evenodd" fill-opacity="1" stroke="none"/>
<circle clip-path="url(#clip742)" cx="1245.36" cy="759.884" r="14.4" fill="#000000" fill-rule="evenodd" fill-opacity="1" stroke="none"/>
<circle clip-path="url(#clip742)" cx="1220.42" cy="771.696" r="14.4" fill="#000000" fill-rule="evenodd" fill-opacity="1" stroke="none"/>
<circle clip-path="url(#clip742)" cx="1183.54" cy="789.163" r="14.4" fill="#000000" fill-rule="evenodd" fill-opacity="1" stroke="none"/>
<circle clip-path="url(#clip742)" cx="1129.01" cy="814.992" r="14.4" fill="#000000" fill-rule="evenodd" fill-opacity="1" stroke="none"/>
<circle clip-path="url(#clip742)" cx="1048.36" cy="853.187" r="14.4" fill="#000000" fill-rule="evenodd" fill-opacity="1" stroke="none"/>
<circle clip-path="url(#clip742)" cx="929.114" cy="909.668" r="14.4" fill="#000000" fill-rule="evenodd" fill-opacity="1" stroke="none"/>
<circle clip-path="url(#clip742)" cx="752.773" cy="993.191" r="14.4" fill="#000000" fill-rule="evenodd" fill-opacity="1" stroke="none"/>
<circle clip-path="url(#clip742)" cx="492.007" cy="1116.7" r="14.4" fill="#000000" fill-rule="evenodd" fill-opacity="1" stroke="none"/>
<circle clip-path="url(#clip742)" cx="1280.14" cy="750.741" r="14.4" fill="#000000" fill-rule="evenodd" fill-opacity="1" stroke="none"/>
<circle clip-path="url(#clip742)" cx="1271.85" cy="758.176" r="14.4" fill="#000000" fill-rule="evenodd" fill-opacity="1" stroke="none"/>
<circle clip-path="url(#clip742)" cx="1259.6" cy="769.17" r="14.4" fill="#000000" fill-rule="evenodd" fill-opacity="1" stroke="none"/>
<circle clip-path="url(#clip742)" cx="1241.48" cy="785.427" r="14.4" fill="#000000" fill-rule="evenodd" fill-opacity="1" stroke="none"/>
<circle clip-path="url(#clip742)" cx="1214.69" cy="809.469" r="14.4" fill="#000000" fill-rule="evenodd" fill-opacity="1" stroke="none"/>
<circle clip-path="url(#clip742)" cx="1175.07" cy="845.019" r="14.4" fill="#000000" fill-rule="evenodd" fill-opacity="1" stroke="none"/>
<circle clip-path="url(#clip742)" cx="1116.48" cy="897.591" r="14.4" fill="#000000" fill-rule="evenodd" fill-opacity="1" stroke="none"/>
<circle clip-path="url(#clip742)" cx="1029.84" cy="975.331" r="14.4" fill="#000000" fill-rule="evenodd" fill-opacity="1" stroke="none"/>
<circle clip-path="url(#clip742)" cx="901.718" cy="1090.29" r="14.4" fill="#000000" fill-rule="evenodd" fill-opacity="1" stroke="none"/>
<circle clip-path="url(#clip742)" cx="712.26" cy="1260.29" r="14.4" fill="#000000" fill-rule="evenodd" fill-opacity="1" stroke="none"/>
<circle clip-path="url(#clip742)" cx="1288.35" cy="753.468" r="14.4" fill="#000000" fill-rule="evenodd" fill-opacity="1" stroke="none"/>
<circle clip-path="url(#clip742)" cx="1283.99" cy="762.208" r="14.4" fill="#000000" fill-rule="evenodd" fill-opacity="1" stroke="none"/>
<circle clip-path="url(#clip742)" cx="1277.55" cy="775.132" r="14.4" fill="#000000" fill-rule="evenodd" fill-opacity="1" stroke="none"/>
<circle clip-path="url(#clip742)" cx="1268.02" cy="794.244" r="14.4" fill="#000000" fill-rule="evenodd" fill-opacity="1" stroke="none"/>
<circle clip-path="url(#clip742)" cx="1253.94" cy="822.506" r="14.4" fill="#000000" fill-rule="evenodd" fill-opacity="1" stroke="none"/>
<circle clip-path="url(#clip742)" cx="1233.11" cy="864.298" r="14.4" fill="#000000" fill-rule="evenodd" fill-opacity="1" stroke="none"/>
<circle clip-path="url(#clip742)" cx="1202.3" cy="926.1" r="14.4" fill="#000000" fill-rule="evenodd" fill-opacity="1" stroke="none"/>
<circle clip-path="url(#clip742)" cx="1156.76" cy="1017.49" r="14.4" fill="#000000" fill-rule="evenodd" fill-opacity="1" stroke="none"/>
<circle clip-path="url(#clip742)" cx="1089.4" cy="1152.63" r="14.4" fill="#000000" fill-rule="evenodd" fill-opacity="1" stroke="none"/>
<circle clip-path="url(#clip742)" cx="989.795" cy="1352.47" r="14.4" fill="#000000" fill-rule="evenodd" fill-opacity="1" stroke="none"/>
<circle clip-path="url(#clip742)" cx="1297.45" cy="754.407" r="14.4" fill="#000000" fill-rule="evenodd" fill-opacity="1" stroke="none"/>
<circle clip-path="url(#clip742)" cx="1297.45" cy="763.597" r="14.4" fill="#000000" fill-rule="evenodd" fill-opacity="1" stroke="none"/>
<circle clip-path="url(#clip742)" cx="1297.45" cy="777.186" r="14.4" fill="#000000" fill-rule="evenodd" fill-opacity="1" stroke="none"/>
<circle clip-path="url(#clip742)" cx="1297.45" cy="797.282" r="14.4" fill="#000000" fill-rule="evenodd" fill-opacity="1" stroke="none"/>
<circle clip-path="url(#clip742)" cx="1297.45" cy="826.998" r="14.4" fill="#000000" fill-rule="evenodd" fill-opacity="1" stroke="none"/>
<circle clip-path="url(#clip742)" cx="1297.45" cy="870.941" r="14.4" fill="#000000" fill-rule="evenodd" fill-opacity="1" stroke="none"/>
<circle clip-path="url(#clip742)" cx="1297.45" cy="935.923" r="14.4" fill="#000000" fill-rule="evenodd" fill-opacity="1" stroke="none"/>
<circle clip-path="url(#clip742)" cx="1297.45" cy="1032.01" r="14.4" fill="#000000" fill-rule="evenodd" fill-opacity="1" stroke="none"/>
<circle clip-path="url(#clip742)" cx="1297.45" cy="1174.11" r="14.4" fill="#000000" fill-rule="evenodd" fill-opacity="1" stroke="none"/>
<circle clip-path="url(#clip742)" cx="1297.45" cy="1384.24" r="14.4" fill="#000000" fill-rule="evenodd" fill-opacity="1" stroke="none"/>
<circle clip-path="url(#clip742)" cx="1306.54" cy="753.468" r="14.4" fill="#000000" fill-rule="evenodd" fill-opacity="1" stroke="none"/>
<circle clip-path="url(#clip742)" cx="1310.9" cy="762.208" r="14.4" fill="#000000" fill-rule="evenodd" fill-opacity="1" stroke="none"/>
<circle clip-path="url(#clip742)" cx="1317.34" cy="775.132" r="14.4" fill="#000000" fill-rule="evenodd" fill-opacity="1" stroke="none"/>
<circle clip-path="url(#clip742)" cx="1326.87" cy="794.244" r="14.4" fill="#000000" fill-rule="evenodd" fill-opacity="1" stroke="none"/>
<circle clip-path="url(#clip742)" cx="1340.95" cy="822.506" r="14.4" fill="#000000" fill-rule="evenodd" fill-opacity="1" stroke="none"/>
<circle clip-path="url(#clip742)" cx="1361.78" cy="864.298" r="14.4" fill="#000000" fill-rule="evenodd" fill-opacity="1" stroke="none"/>
<circle clip-path="url(#clip742)" cx="1392.59" cy="926.1" r="14.4" fill="#000000" fill-rule="evenodd" fill-opacity="1" stroke="none"/>
<circle clip-path="url(#clip742)" cx="1438.14" cy="1017.49" r="14.4" fill="#000000" fill-rule="evenodd" fill-opacity="1" stroke="none"/>
<circle clip-path="url(#clip742)" cx="1505.49" cy="1152.63" r="14.4" fill="#000000" fill-rule="evenodd" fill-opacity="1" stroke="none"/>
<circle clip-path="url(#clip742)" cx="1605.1" cy="1352.47" r="14.4" fill="#000000" fill-rule="evenodd" fill-opacity="1" stroke="none"/>
<circle clip-path="url(#clip742)" cx="1314.75" cy="750.741" r="14.4" fill="#000000" fill-rule="evenodd" fill-opacity="1" stroke="none"/>
<circle clip-path="url(#clip742)" cx="1323.04" cy="758.176" r="14.4" fill="#000000" fill-rule="evenodd" fill-opacity="1" stroke="none"/>
<circle clip-path="url(#clip742)" cx="1335.29" cy="769.17" r="14.4" fill="#000000" fill-rule="evenodd" fill-opacity="1" stroke="none"/>
<circle clip-path="url(#clip742)" cx="1353.41" cy="785.427" r="14.4" fill="#000000" fill-rule="evenodd" fill-opacity="1" stroke="none"/>
<circle clip-path="url(#clip742)" cx="1380.2" cy="809.469" r="14.4" fill="#000000" fill-rule="evenodd" fill-opacity="1" stroke="none"/>
<circle clip-path="url(#clip742)" cx="1419.82" cy="845.019" r="14.4" fill="#000000" fill-rule="evenodd" fill-opacity="1" stroke="none"/>
<circle clip-path="url(#clip742)" cx="1478.41" cy="897.591" r="14.4" fill="#000000" fill-rule="evenodd" fill-opacity="1" stroke="none"/>
<circle clip-path="url(#clip742)" cx="1565.05" cy="975.331" r="14.4" fill="#000000" fill-rule="evenodd" fill-opacity="1" stroke="none"/>
<circle clip-path="url(#clip742)" cx="1693.17" cy="1090.29" r="14.4" fill="#000000" fill-rule="evenodd" fill-opacity="1" stroke="none"/>
<circle clip-path="url(#clip742)" cx="1882.63" cy="1260.29" r="14.4" fill="#000000" fill-rule="evenodd" fill-opacity="1" stroke="none"/>
<circle clip-path="url(#clip742)" cx="1321.27" cy="746.495" r="14.4" fill="#000000" fill-rule="evenodd" fill-opacity="1" stroke="none"/>
<circle clip-path="url(#clip742)" cx="1332.67" cy="751.896" r="14.4" fill="#000000" fill-rule="evenodd" fill-opacity="1" stroke="none"/>
<circle clip-path="url(#clip742)" cx="1349.54" cy="759.884" r="14.4" fill="#000000" fill-rule="evenodd" fill-opacity="1" stroke="none"/>
<circle clip-path="url(#clip742)" cx="1374.47" cy="771.696" r="14.4" fill="#000000" fill-rule="evenodd" fill-opacity="1" stroke="none"/>
<circle clip-path="url(#clip742)" cx="1411.35" cy="789.163" r="14.4" fill="#000000" fill-rule="evenodd" fill-opacity="1" stroke="none"/>
<circle clip-path="url(#clip742)" cx="1465.88" cy="814.992" r="14.4" fill="#000000" fill-rule="evenodd" fill-opacity="1" stroke="none"/>
<circle clip-path="url(#clip742)" cx="1546.53" cy="853.187" r="14.4" fill="#000000" fill-rule="evenodd" fill-opacity="1" stroke="none"/>
<circle clip-path="url(#clip742)" cx="1665.78" cy="909.668" r="14.4" fill="#000000" fill-rule="evenodd" fill-opacity="1" stroke="none"/>
<circle clip-path="url(#clip742)" cx="1842.12" cy="993.191" r="14.4" fill="#000000" fill-rule="evenodd" fill-opacity="1" stroke="none"/>
<circle clip-path="url(#clip742)" cx="2102.88" cy="1116.7" r="14.4" fill="#000000" fill-rule="evenodd" fill-opacity="1" stroke="none"/>
<circle clip-path="url(#clip742)" cx="1325.45" cy="741.144" r="14.4" fill="#000000" fill-rule="evenodd" fill-opacity="1" stroke="none"/>
<circle clip-path="url(#clip742)" cx="1338.86" cy="743.983" r="14.4" fill="#000000" fill-rule="evenodd" fill-opacity="1" stroke="none"/>
<circle clip-path="url(#clip742)" cx="1358.68" cy="748.183" r="14.4" fill="#000000" fill-rule="evenodd" fill-opacity="1" stroke="none"/>
<circle clip-path="url(#clip742)" cx="1388" cy="754.393" r="14.4" fill="#000000" fill-rule="evenodd" fill-opacity="1" stroke="none"/>
<circle clip-path="url(#clip742)" cx="1431.35" cy="763.575" r="14.4" fill="#000000" fill-rule="evenodd" fill-opacity="1" stroke="none"/>
<circle clip-path="url(#clip742)" cx="1495.46" cy="777.155" r="14.4" fill="#000000" fill-rule="evenodd" fill-opacity="1" stroke="none"/>
<circle clip-path="url(#clip742)" cx="1590.26" cy="797.235" r="14.4" fill="#000000" fill-rule="evenodd" fill-opacity="1" stroke="none"/>
<circle clip-path="url(#clip742)" cx="1730.44" cy="826.929" r="14.4" fill="#000000" fill-rule="evenodd" fill-opacity="1" stroke="none"/>
<circle clip-path="url(#clip742)" cx="1937.75" cy="870.839" r="14.4" fill="#000000" fill-rule="evenodd" fill-opacity="1" stroke="none"/>
<circle clip-path="url(#clip742)" cx="2244.29" cy="935.772" r="14.4" fill="#000000" fill-rule="evenodd" fill-opacity="1" stroke="none"/>
</svg>
