<?xml version="1.0" encoding="utf-8"?>
<svg xmlns="http://www.w3.org/2000/svg" xmlns:xlink="http://www.w3.org/1999/xlink" width="600" height="400" viewBox="0 0 2400 1600">
<defs>
  <clipPath id="clip230">
    <rect x="0" y="0" width="2400" height="1600"/>
  </clipPath>
</defs>
<path clip-path="url(#clip230)" d="M0 1600 L2400 1600 L2400 0 L0 0  Z" fill="#ffffff" fill-rule="evenodd" fill-opacity="1"/>
<defs>
  <clipPath id="clip231">
    <rect x="480" y="0" width="1681" height="1600"/>
  </clipPath>
</defs>
<path clip-path="url(#clip230)" d="M210.977 1423.18 L2352.76 1423.18 L2352.76 47.2441 L210.977 47.2441  Z" fill="#ffffff" fill-rule="evenodd" fill-opacity="1"/>
<defs>
  <clipPath id="clip232">
    <rect x="210" y="47" width="2143" height="1377"/>
  </clipPath>
</defs>
<polyline clip-path="url(#clip232)" style="stroke:#000000; stroke-linecap:round; stroke-linejoin:round; stroke-width:2; stroke-opacity:0.1; fill:none" points="271.594,1423.18 271.594,47.2441 "/>
<polyline clip-path="url(#clip232)" style="stroke:#000000; stroke-linecap:round; stroke-linejoin:round; stroke-width:2; stroke-opacity:0.1; fill:none" points="945.109,1423.18 945.109,47.2441 "/>
<polyline clip-path="url(#clip232)" style="stroke:#000000; stroke-linecap:round; stroke-linejoin:round; stroke-width:2; stroke-opacity:0.1; fill:none" points="1618.62,1423.18 1618.62,47.2441 "/>
<polyline clip-path="url(#clip232)" style="stroke:#000000; stroke-linecap:round; stroke-linejoin:round; stroke-width:2; stroke-opacity:0.1; fill:none" points="2292.14,1423.18 2292.14,47.2441 "/>
<polyline clip-path="url(#clip230)" style="stroke:#000000; stroke-linecap:round; stroke-linejoin:round; stroke-width:4; stroke-opacity:1; fill:none" points="210.977,1423.18 2352.76,1423.18 "/>
<polyline clip-path="url(#clip230)" style="stroke:#000000; stroke-linecap:round; stroke-linejoin:round; stroke-width:4; stroke-opacity:1; fill:none" points="271.594,1423.18 271.594,1404.28 "/>
<polyline clip-path="url(#clip230)" style="stroke:#000000; stroke-linecap:round; stroke-linejoin:round; stroke-width:4; stroke-opacity:1; fill:none" points="945.109,1423.18 945.109,1404.28 "/>
<polyline clip-path="url(#clip230)" style="stroke:#000000; stroke-linecap:round; stroke-linejoin:round; stroke-width:4; stroke-opacity:1; fill:none" points="1618.62,1423.18 1618.62,1404.28 "/>
<polyline clip-path="url(#clip230)" style="stroke:#000000; stroke-linecap:round; stroke-linejoin:round; stroke-width:4; stroke-opacity:1; fill:none" points="2292.14,1423.18 2292.14,1404.28 "/>
<path clip-path="url(#clip230)" d="M271.594 1454.1 Q267.983 1454.1 266.154 1457.66 Q264.348 1461.2 264.348 1468.33 Q264.348 1475.44 266.154 1479.01 Q267.983 1482.55 271.594 1482.55 Q275.228 1482.55 277.034 1479.01 Q278.862 1475.44 278.862 1468.33 Q278.862 1461.2 277.034 1457.66 Q275.228 1454.1 271.594 1454.1 M271.594 1450.39 Q277.404 1450.39 280.459 1455 Q283.538 1459.58 283.538 1468.33 Q283.538 1477.06 280.459 1481.67 Q277.404 1486.25 271.594 1486.25 Q265.784 1486.25 262.705 1481.67 Q259.649 1477.06 259.649 1468.33 Q259.649 1459.58 262.705 1455 Q265.784 1450.39 271.594 1450.39 Z" fill="#000000" fill-rule="evenodd" fill-opacity="1" /><path clip-path="url(#clip230)" d="M919.797 1481.64 L927.436 1481.64 L927.436 1455.28 L919.125 1456.95 L919.125 1452.69 L927.389 1451.02 L932.065 1451.02 L932.065 1481.64 L939.704 1481.64 L939.704 1485.58 L919.797 1485.58 L919.797 1481.64 Z" fill="#000000" fill-rule="evenodd" fill-opacity="1" /><path clip-path="url(#clip230)" d="M959.148 1454.1 Q955.537 1454.1 953.709 1457.66 Q951.903 1461.2 951.903 1468.33 Q951.903 1475.44 953.709 1479.01 Q955.537 1482.55 959.148 1482.55 Q962.783 1482.55 964.588 1479.01 Q966.417 1475.44 966.417 1468.33 Q966.417 1461.2 964.588 1457.66 Q962.783 1454.1 959.148 1454.1 M959.148 1450.39 Q964.958 1450.39 968.014 1455 Q971.093 1459.58 971.093 1468.33 Q971.093 1477.06 968.014 1481.67 Q964.958 1486.25 959.148 1486.25 Q953.338 1486.25 950.259 1481.67 Q947.204 1477.06 947.204 1468.33 Q947.204 1459.58 950.259 1455 Q953.338 1450.39 959.148 1450.39 Z" fill="#000000" fill-rule="evenodd" fill-opacity="1" /><path clip-path="url(#clip230)" d="M1597.4 1481.64 L1613.72 1481.64 L1613.72 1485.58 L1591.77 1485.58 L1591.77 1481.64 Q1594.43 1478.89 1599.02 1474.26 Q1603.62 1469.61 1604.8 1468.27 Q1607.05 1465.74 1607.93 1464.01 Q1608.83 1462.25 1608.83 1460.56 Q1608.83 1457.8 1606.89 1456.07 Q1604.97 1454.33 1601.87 1454.33 Q1599.67 1454.33 1597.21 1455.09 Q1594.78 1455.86 1592 1457.41 L1592 1452.69 Q1594.83 1451.55 1597.28 1450.97 Q1599.74 1450.39 1601.77 1450.39 Q1607.14 1450.39 1610.34 1453.08 Q1613.53 1455.77 1613.53 1460.26 Q1613.53 1462.39 1612.72 1464.31 Q1611.93 1466.2 1609.83 1468.8 Q1609.25 1469.47 1606.15 1472.69 Q1603.05 1475.88 1597.4 1481.64 Z" fill="#000000" fill-rule="evenodd" fill-opacity="1" /><path clip-path="url(#clip230)" d="M1633.53 1454.1 Q1629.92 1454.1 1628.09 1457.66 Q1626.29 1461.2 1626.29 1468.33 Q1626.29 1475.44 1628.09 1479.01 Q1629.92 1482.55 1633.53 1482.55 Q1637.17 1482.55 1638.97 1479.01 Q1640.8 1475.44 1640.8 1468.33 Q1640.8 1461.2 1638.97 1457.66 Q1637.17 1454.1 1633.53 1454.1 M1633.53 1450.39 Q1639.34 1450.39 1642.4 1455 Q1645.48 1459.58 1645.48 1468.33 Q1645.48 1477.06 1642.4 1481.67 Q1639.34 1486.25 1633.53 1486.25 Q1627.72 1486.25 1624.64 1481.67 Q1621.59 1477.06 1621.59 1468.33 Q1621.59 1459.58 1624.64 1455 Q1627.72 1450.39 1633.53 1450.39 Z" fill="#000000" fill-rule="evenodd" fill-opacity="1" /><path clip-path="url(#clip230)" d="M2280.98 1466.95 Q2284.34 1467.66 2286.21 1469.93 Q2288.11 1472.2 2288.11 1475.53 Q2288.11 1480.65 2284.59 1483.45 Q2281.07 1486.25 2274.59 1486.25 Q2272.42 1486.25 2270.1 1485.81 Q2267.81 1485.39 2265.36 1484.54 L2265.36 1480.02 Q2267.3 1481.16 2269.62 1481.74 Q2271.93 1482.32 2274.45 1482.32 Q2278.85 1482.32 2281.14 1480.58 Q2283.46 1478.84 2283.46 1475.53 Q2283.46 1472.48 2281.31 1470.77 Q2279.18 1469.03 2275.36 1469.03 L2271.33 1469.03 L2271.33 1465.19 L2275.54 1465.19 Q2278.99 1465.19 2280.82 1463.82 Q2282.65 1462.43 2282.65 1459.84 Q2282.65 1457.18 2280.75 1455.77 Q2278.88 1454.33 2275.36 1454.33 Q2273.44 1454.33 2271.24 1454.75 Q2269.04 1455.16 2266.4 1456.04 L2266.4 1451.88 Q2269.06 1451.14 2271.38 1450.77 Q2273.71 1450.39 2275.77 1450.39 Q2281.1 1450.39 2284.2 1452.83 Q2287.3 1455.23 2287.3 1459.35 Q2287.3 1462.22 2285.66 1464.21 Q2284.01 1466.18 2280.98 1466.95 Z" fill="#000000" fill-rule="evenodd" fill-opacity="1" /><path clip-path="url(#clip230)" d="M2306.98 1454.1 Q2303.37 1454.1 2301.54 1457.66 Q2299.73 1461.2 2299.73 1468.33 Q2299.73 1475.44 2301.54 1479.01 Q2303.37 1482.55 2306.98 1482.55 Q2310.61 1482.55 2312.42 1479.01 Q2314.25 1475.44 2314.25 1468.33 Q2314.25 1461.2 2312.42 1457.66 Q2310.61 1454.1 2306.98 1454.1 M2306.98 1450.39 Q2312.79 1450.39 2315.84 1455 Q2318.92 1459.58 2318.92 1468.33 Q2318.92 1477.06 2315.84 1481.67 Q2312.79 1486.25 2306.98 1486.25 Q2301.17 1486.25 2298.09 1481.67 Q2295.03 1477.06 2295.03 1468.33 Q2295.03 1459.58 2298.09 1455 Q2301.17 1450.39 2306.98 1450.39 Z" fill="#000000" fill-rule="evenodd" fill-opacity="1" /><path clip-path="url(#clip230)" d="M1292.31 1537.87 Q1291.32 1537.3 1290.14 1537.04 Q1289 1536.76 1287.6 1536.76 Q1282.63 1536.76 1279.96 1540 Q1277.32 1543.22 1277.32 1549.27 L1277.32 1568.04 L1271.43 1568.04 L1271.43 1532.4 L1277.32 1532.4 L1277.32 1537.93 Q1279.16 1534.69 1282.12 1533.13 Q1285.08 1531.54 1289.31 1531.54 Q1289.92 1531.54 1290.65 1531.63 Q1291.38 1531.7 1292.27 1531.85 L1292.31 1537.87 Z" fill="#000000" fill-rule="evenodd" fill-opacity="1" /><polyline clip-path="url(#clip232)" style="stroke:#000000; stroke-linecap:round; stroke-linejoin:round; stroke-width:2; stroke-opacity:0.1; fill:none" points="210.977,1223.33 2352.76,1223.33 "/>
<polyline clip-path="url(#clip232)" style="stroke:#000000; stroke-linecap:round; stroke-linejoin:round; stroke-width:2; stroke-opacity:0.1; fill:none" points="210.977,886.571 2352.76,886.571 "/>
<polyline clip-path="url(#clip232)" style="stroke:#000000; stroke-linecap:round; stroke-linejoin:round; stroke-width:2; stroke-opacity:0.1; fill:none" points="210.977,549.813 2352.76,549.813 "/>
<polyline clip-path="url(#clip232)" style="stroke:#000000; stroke-linecap:round; stroke-linejoin:round; stroke-width:2; stroke-opacity:0.1; fill:none" points="210.977,213.055 2352.76,213.055 "/>
<polyline clip-path="url(#clip230)" style="stroke:#000000; stroke-linecap:round; stroke-linejoin:round; stroke-width:4; stroke-opacity:1; fill:none" points="210.977,1423.18 210.977,47.2441 "/>
<polyline clip-path="url(#clip230)" style="stroke:#000000; stroke-linecap:round; stroke-linejoin:round; stroke-width:4; stroke-opacity:1; fill:none" points="210.977,1223.33 229.875,1223.33 "/>
<polyline clip-path="url(#clip230)" style="stroke:#000000; stroke-linecap:round; stroke-linejoin:round; stroke-width:4; stroke-opacity:1; fill:none" points="210.977,886.571 229.875,886.571 "/>
<polyline clip-path="url(#clip230)" style="stroke:#000000; stroke-linecap:round; stroke-linejoin:round; stroke-width:4; stroke-opacity:1; fill:none" points="210.977,549.813 229.875,549.813 "/>
<polyline clip-path="url(#clip230)" style="stroke:#000000; stroke-linecap:round; stroke-linejoin:round; stroke-width:4; stroke-opacity:1; fill:none" points="210.977,213.055 229.875,213.055 "/>
<path clip-path="url(#clip230)" d="M114.26 1223.78 L143.936 1223.78 L143.936 1227.71 L114.26 1227.71 L114.26 1223.78 Z" fill="#000000" fill-rule="evenodd" fill-opacity="1" /><path clip-path="url(#clip230)" d="M154.075 1206.05 L172.431 1206.05 L172.431 1209.98 L158.357 1209.98 L158.357 1218.46 Q159.376 1218.11 160.394 1217.95 Q161.413 1217.76 162.431 1217.76 Q168.218 1217.76 171.598 1220.93 Q174.977 1224.1 174.977 1229.52 Q174.977 1235.1 171.505 1238.2 Q168.033 1241.28 161.714 1241.28 Q159.538 1241.28 157.269 1240.91 Q155.024 1240.54 152.616 1239.8 L152.616 1235.1 Q154.7 1236.23 156.922 1236.79 Q159.144 1237.34 161.621 1237.34 Q165.626 1237.34 167.964 1235.24 Q170.302 1233.13 170.302 1229.52 Q170.302 1225.91 167.964 1223.8 Q165.626 1221.7 161.621 1221.7 Q159.746 1221.7 157.871 1222.11 Q156.019 1222.53 154.075 1223.41 L154.075 1206.05 Z" fill="#000000" fill-rule="evenodd" fill-opacity="1" /><path clip-path="url(#clip230)" d="M163.033 872.369 Q159.422 872.369 157.593 875.934 Q155.788 879.476 155.788 886.605 Q155.788 893.712 157.593 897.277 Q159.422 900.818 163.033 900.818 Q166.667 900.818 168.473 897.277 Q170.302 893.712 170.302 886.605 Q170.302 879.476 168.473 875.934 Q166.667 872.369 163.033 872.369 M163.033 868.666 Q168.843 868.666 171.899 873.272 Q174.977 877.855 174.977 886.605 Q174.977 895.332 171.899 899.939 Q168.843 904.522 163.033 904.522 Q157.223 904.522 154.144 899.939 Q151.089 895.332 151.089 886.605 Q151.089 877.855 154.144 873.272 Q157.223 868.666 163.033 868.666 Z" fill="#000000" fill-rule="evenodd" fill-opacity="1" /><path clip-path="url(#clip230)" d="M154.075 532.533 L172.431 532.533 L172.431 536.468 L158.357 536.468 L158.357 544.94 Q159.376 544.593 160.394 544.431 Q161.413 544.246 162.431 544.246 Q168.218 544.246 171.598 547.417 Q174.977 550.589 174.977 556.005 Q174.977 561.584 171.505 564.686 Q168.033 567.764 161.714 567.764 Q159.538 567.764 157.269 567.394 Q155.024 567.024 152.616 566.283 L152.616 561.584 Q154.7 562.718 156.922 563.274 Q159.144 563.829 161.621 563.829 Q165.626 563.829 167.964 561.723 Q170.302 559.616 170.302 556.005 Q170.302 552.394 167.964 550.288 Q165.626 548.181 161.621 548.181 Q159.746 548.181 157.871 548.598 Q156.019 549.014 154.075 549.894 L154.075 532.533 Z" fill="#000000" fill-rule="evenodd" fill-opacity="1" /><path clip-path="url(#clip230)" d="M123.681 226.4 L131.32 226.4 L131.32 200.035 L123.01 201.701 L123.01 197.442 L131.274 195.775 L135.95 195.775 L135.95 226.4 L143.589 226.4 L143.589 230.335 L123.681 230.335 L123.681 226.4 Z" fill="#000000" fill-rule="evenodd" fill-opacity="1" /><path clip-path="url(#clip230)" d="M163.033 198.854 Q159.422 198.854 157.593 202.419 Q155.788 205.961 155.788 213.09 Q155.788 220.197 157.593 223.761 Q159.422 227.303 163.033 227.303 Q166.667 227.303 168.473 223.761 Q170.302 220.197 170.302 213.09 Q170.302 205.961 168.473 202.419 Q166.667 198.854 163.033 198.854 M163.033 195.15 Q168.843 195.15 171.899 199.757 Q174.977 204.34 174.977 213.09 Q174.977 221.817 171.899 226.423 Q168.843 231.007 163.033 231.007 Q157.223 231.007 154.144 226.423 Q151.089 221.817 151.089 213.09 Q151.089 204.34 154.144 199.757 Q157.223 195.15 163.033 195.15 Z" fill="#000000" fill-rule="evenodd" fill-opacity="1" /><path clip-path="url(#clip230)" d="M42.4881 805.505 L64.0042 805.505 L64.0042 811.362 L42.679 811.362 Q37.6183 811.362 35.1038 813.335 Q32.5894 815.308 32.5894 819.255 Q32.5894 823.998 35.6131 826.735 Q38.6368 829.472 43.8567 829.472 L64.0042 829.472 L64.0042 835.36 L14.479 835.36 L14.479 829.472 L33.8944 829.472 Q30.6797 827.371 29.0883 824.539 Q27.4968 821.674 27.4968 817.95 Q27.4968 811.807 31.3163 808.656 Q35.1038 805.505 42.4881 805.505 Z" fill="#000000" fill-rule="evenodd" fill-opacity="1" /><path clip-path="url(#clip230)" d="M44.7161 763.332 L47.5806 763.332 L47.5806 790.259 Q53.6281 789.877 56.8109 786.631 Q59.9619 783.353 59.9619 777.528 Q59.9619 774.154 59.1344 771.003 Q58.3069 767.82 56.6518 764.701 L62.1899 764.701 Q63.5267 767.852 64.227 771.162 Q64.9272 774.472 64.9272 777.878 Q64.9272 786.408 59.9619 791.405 Q54.9967 796.37 46.5303 796.37 Q37.7774 796.37 32.6531 791.66 Q27.4968 786.917 27.4968 778.897 Q27.4968 771.703 32.1438 767.534 Q36.7589 763.332 44.7161 763.332 M42.9973 769.189 Q38.1912 769.253 35.3266 771.894 Q32.4621 774.504 32.4621 778.833 Q32.4621 783.735 35.2312 786.695 Q38.0002 789.623 43.0292 790.068 L42.9973 769.189 Z" fill="#000000" fill-rule="evenodd" fill-opacity="1" /><path clip-path="url(#clip230)" d="M28.3562 753.72 L28.3562 747.864 L64.0042 747.864 L64.0042 753.72 L28.3562 753.72 M14.479 753.72 L14.479 747.864 L21.895 747.864 L21.895 753.72 L14.479 753.72 Z" fill="#000000" fill-rule="evenodd" fill-opacity="1" /><path clip-path="url(#clip230)" d="M45.7664 712.152 Q39.4007 712.152 35.8996 714.794 Q32.3984 717.404 32.3984 722.146 Q32.3984 726.857 35.8996 729.499 Q39.4007 732.109 45.7664 732.109 Q52.1003 732.109 55.6014 729.499 Q59.1026 726.857 59.1026 722.146 Q59.1026 717.404 55.6014 714.794 Q52.1003 712.152 45.7664 712.152 M59.58 706.296 Q68.683 706.296 73.1071 710.338 Q77.5631 714.38 77.5631 722.719 Q77.5631 725.807 77.0857 728.544 Q76.6401 731.281 75.6852 733.859 L69.9879 733.859 Q71.3884 731.281 72.0568 728.767 Q72.7252 726.252 72.7252 723.642 Q72.7252 717.881 69.7015 715.017 Q66.7096 712.152 60.6303 712.152 L57.7339 712.152 Q60.885 713.966 62.4446 716.799 Q64.0042 719.632 64.0042 723.579 Q64.0042 730.135 59.0071 734.146 Q54.01 738.156 45.7664 738.156 Q37.491 738.156 32.4939 734.146 Q27.4968 730.135 27.4968 723.579 Q27.4968 719.632 29.0564 716.799 Q30.616 713.966 33.7671 712.152 L28.3562 712.152 L28.3562 706.296 L59.58 706.296 Z" fill="#000000" fill-rule="evenodd" fill-opacity="1" /><path clip-path="url(#clip230)" d="M42.4881 664.6 L64.0042 664.6 L64.0042 670.457 L42.679 670.457 Q37.6183 670.457 35.1038 672.43 Q32.5894 674.404 32.5894 678.35 Q32.5894 683.093 35.6131 685.83 Q38.6368 688.567 43.8567 688.567 L64.0042 688.567 L64.0042 694.456 L14.479 694.456 L14.479 688.567 L33.8944 688.567 Q30.6797 686.467 29.0883 683.634 Q27.4968 680.769 27.4968 677.045 Q27.4968 670.902 31.3163 667.751 Q35.1038 664.6 42.4881 664.6 Z" fill="#000000" fill-rule="evenodd" fill-opacity="1" /><path clip-path="url(#clip230)" d="M18.2347 647.127 L28.3562 647.127 L28.3562 635.063 L32.9077 635.063 L32.9077 647.127 L52.2594 647.127 Q56.6199 647.127 57.8613 645.949 Q59.1026 644.739 59.1026 641.079 L59.1026 635.063 L64.0042 635.063 L64.0042 641.079 Q64.0042 647.859 61.4897 650.437 Q58.9434 653.015 52.2594 653.015 L32.9077 653.015 L32.9077 657.312 L28.3562 657.312 L28.3562 653.015 L18.2347 653.015 L18.2347 647.127 Z" fill="#000000" fill-rule="evenodd" fill-opacity="1" /><polyline clip-path="url(#clip232)" style="stroke:#009af9; stroke-linecap:round; stroke-linejoin:round; stroke-width:4; stroke-opacity:1; fill:none" points="271.594,886.571 278.351,886.571 285.109,886.571 291.867,886.571 298.625,886.571 305.382,886.571 312.14,886.571 318.898,886.571 325.655,886.571 332.413,886.571 339.171,886.571 345.928,886.571 352.686,886.571 359.444,886.571 366.201,886.571 372.959,886.571 379.717,886.571 386.474,886.571 393.232,886.571 399.99,886.571 406.747,886.571 413.505,886.571 420.263,886.571 427.02,886.571 433.778,886.571 440.536,886.571 447.293,886.571 454.051,886.571 460.809,886.571 467.566,886.571 474.324,886.571 481.082,886.571 487.839,886.571 494.597,886.571 501.355,886.571 508.113,886.571 514.87,886.571 521.628,886.571 528.386,886.571 535.143,886.571 541.901,886.571 548.659,886.571 555.416,886.571 562.174,886.571 568.932,886.571 575.689,886.571 582.447,886.571 589.205,886.571 595.962,886.571 602.72,886.571 609.478,886.571 616.235,886.571 622.993,886.571 629.751,886.571 636.508,886.571 643.266,886.571 650.024,886.571 656.781,886.571 663.539,886.571 670.297,886.571 677.054,886.571 683.812,886.571 690.57,886.571 697.328,886.571 704.085,886.571 710.843,886.571 717.601,886.571 724.358,886.571 731.116,886.571 737.874,886.571 744.631,886.571 751.389,886.571 758.147,886.571 764.904,886.571 771.662,886.571 778.42,886.571 785.177,886.571 791.935,886.571 798.693,886.571 805.45,886.571 812.208,886.571 818.966,886.571 825.723,886.571 832.481,886.571 839.239,886.571 845.996,886.571 852.754,886.571 859.512,886.571 866.269,886.571 873.027,886.571 879.785,886.571 886.542,886.571 893.3,886.571 900.058,886.571 906.816,886.571 913.573,886.571 920.331,886.571 927.089,886.571 933.846,886.571 940.604,886.571 947.362,886.571 954.119,886.571 960.877,886.571 967.635,886.571 974.392,886.571 981.15,886.571 987.908,886.571 994.665,886.571 1001.42,886.571 1008.18,886.571 1014.94,816.697 1021.7,785.951 1028.45,769.938 1035.21,760.782 1041.97,755.871 1048.73,753.517 1055.48,752.348 1062.24,751.187 1069,749.046 1075.76,745.163 1082.52,739.031 1089.27,730.43 1096.03,719.426 1102.79,706.361 1109.55,691.808 1116.3,676.521 1123.06,661.357 1129.82,647.197 1136.58,634.865 1143.33,625.05 1150.09,618.243 1156.85,614.691 1163.61,614.371 1170.36,616.995 1177.12,622.031 1183.88,628.752 1190.64,636.301 1197.4,643.763 1204.15,650.253 1210.91,654.991 1217.67,657.372 1224.43,657.02 1231.18,653.823 1237.94,647.941 1244.7,639.793 1251.46,630.016 1258.21,619.41 1264.97,608.869 1271.73,599.291 1278.49,591.507 1285.25,586.202 1292,583.853 1298.76,584.686 1305.52,588.658 1312.28,595.459 1319.03,604.538 1325.79,615.16 1332.55,626.462 1339.31,637.54 1346.06,647.524 1352.82,655.661 1359.58,661.381 1366.34,664.348 1373.1,664.492 1379.85,662.015 1386.61,657.373 1393.37,651.239 1400.13,644.438 1406.88,637.877 1413.64,632.464 1420.4,629.026 1427.16,628.239 1433.91,630.565 1440.67,636.214 1447.43,645.129 1454.19,656.989 1460.95,671.245 1467.7,687.172 1474.46,703.938 1481.22,720.683 1487.98,736.609 1494.73,751.056 1501.49,763.579 1508.25,774.008 1515.01,782.497 1521.76,789.566 1528.52,796.162 1535.28,803.821 1542.04,815.29 1548.79,838.855 1555.55,886.571 1562.31,886.571 1569.07,886.571 1575.83,886.571 1582.58,886.571 1589.34,886.571 1596.1,886.571 1602.86,886.571 1609.61,886.571 1616.37,886.571 1623.13,886.571 1629.89,886.571 1636.64,886.571 1643.4,886.571 1650.16,886.571 1656.92,886.571 1663.68,886.571 1670.43,886.571 1677.19,886.571 1683.95,886.571 1690.71,886.571 1697.46,886.571 1704.22,886.571 1710.98,886.571 1717.74,886.571 1724.49,886.571 1731.25,886.571 1738.01,886.571 1744.77,886.571 1751.53,886.571 1758.28,886.571 1765.04,886.571 1771.8,886.571 1778.56,886.571 1785.31,886.571 1792.07,886.571 1798.83,886.571 1805.59,886.571 1812.34,886.571 1819.1,886.571 1825.86,886.571 1832.62,886.571 1839.38,886.571 1846.13,886.571 1852.89,886.571 1859.65,886.571 1866.41,886.571 1873.16,886.571 1879.92,886.571 1886.68,886.571 1893.44,886.571 1900.19,886.571 1906.95,886.571 1913.71,886.571 1920.47,886.571 1927.22,886.571 1933.98,886.571 1940.74,886.571 1947.5,886.571 1954.26,886.571 1961.01,886.571 1967.77,886.571 1974.53,886.571 1981.29,886.571 1988.04,886.571 1994.8,886.571 2001.56,886.571 2008.32,886.571 2015.07,886.571 2021.83,886.571 2028.59,886.571 2035.35,886.571 2042.11,886.571 2048.86,886.571 2055.62,886.571 2062.38,886.571 2069.14,886.571 2075.89,886.571 2082.65,886.571 2089.41,886.571 2096.17,886.571 2102.92,886.571 2109.68,886.571 2116.44,886.571 2123.2,886.571 2129.96,886.571 2136.71,886.571 2143.47,886.571 2150.23,886.571 2156.99,886.571 2163.74,886.571 2170.5,886.571 2177.26,886.571 2184.02,886.571 2190.77,886.571 2197.53,886.571 2204.29,886.571 2211.05,886.571 2217.81,886.571 2224.56,886.571 2231.32,886.571 2238.08,886.571 2244.84,886.571 2251.59,886.571 2258.35,886.571 2265.11,886.571 2271.87,886.571 2278.62,886.571 2285.38,886.571 2292.14,886.571 "/>
<path clip-path="url(#clip230)" d="M2014.76 196.789 L2281.36 196.789 L2281.36 93.1086 L2014.76 93.1086  Z" fill="#ffffff" fill-rule="evenodd" fill-opacity="1"/>
<polyline clip-path="url(#clip230)" style="stroke:#000000; stroke-linecap:round; stroke-linejoin:round; stroke-width:4; stroke-opacity:1; fill:none" points="2014.76,196.789 2281.36,196.789 2281.36,93.1086 2014.76,93.1086 2014.76,196.789 "/>
<polyline clip-path="url(#clip230)" style="stroke:#009af9; stroke-linecap:round; stroke-linejoin:round; stroke-width:4; stroke-opacity:1; fill:none" points="2038.55,144.949 2181.34,144.949 "/>
<path clip-path="url(#clip230)" d="M2218.98 164.636 Q2217.17 169.266 2215.46 170.678 Q2213.75 172.09 2210.88 172.09 L2207.47 172.09 L2207.47 168.525 L2209.97 168.525 Q2211.73 168.525 2212.7 167.692 Q2213.68 166.858 2214.86 163.756 L2215.62 161.812 L2205.14 136.303 L2209.65 136.303 L2217.75 156.581 L2225.85 136.303 L2230.37 136.303 L2218.98 164.636 Z" fill="#000000" fill-rule="evenodd" fill-opacity="1" /><path clip-path="url(#clip230)" d="M2237.66 158.293 L2245.3 158.293 L2245.3 131.928 L2236.99 133.595 L2236.99 129.335 L2245.25 127.669 L2249.93 127.669 L2249.93 158.293 L2257.57 158.293 L2257.57 162.229 L2237.66 162.229 L2237.66 158.293 Z" fill="#000000" fill-rule="evenodd" fill-opacity="1" /></svg>
