<?xml version="1.0" encoding="utf-8"?>
<svg xmlns="http://www.w3.org/2000/svg" xmlns:xlink="http://www.w3.org/1999/xlink" width="600" height="400" viewBox="0 0 2400 1600">
<defs>
  <clipPath id="clip950">
    <rect x="0" y="0" width="2400" height="1600"/>
  </clipPath>
</defs>
<path clip-path="url(#clip950)" d="M0 1600 L2400 1600 L2400 0 L0 0  Z" fill="#ffffff" fill-rule="evenodd" fill-opacity="1"/>
<defs>
  <clipPath id="clip951">
    <rect x="480" y="0" width="1681" height="1600"/>
  </clipPath>
</defs>
<path clip-path="url(#clip950)" d="M216.436 1486.45 L2352.76 1486.45 L2352.76 47.2441 L216.436 47.2441  Z" fill="#ffffff" fill-rule="evenodd" fill-opacity="1"/>
<defs>
  <clipPath id="clip952">
    <rect x="216" y="47" width="2137" height="1440"/>
  </clipPath>
</defs>
<polyline clip-path="url(#clip952)" style="stroke:#000000; stroke-linecap:round; stroke-linejoin:round; stroke-width:2; stroke-opacity:0.1; fill:none" points="509.443,1486.45 509.443,47.2441 "/>
<polyline clip-path="url(#clip952)" style="stroke:#000000; stroke-linecap:round; stroke-linejoin:round; stroke-width:2; stroke-opacity:0.1; fill:none" points="897.02,1486.45 897.02,47.2441 "/>
<polyline clip-path="url(#clip952)" style="stroke:#000000; stroke-linecap:round; stroke-linejoin:round; stroke-width:2; stroke-opacity:0.1; fill:none" points="1284.6,1486.45 1284.6,47.2441 "/>
<polyline clip-path="url(#clip952)" style="stroke:#000000; stroke-linecap:round; stroke-linejoin:round; stroke-width:2; stroke-opacity:0.1; fill:none" points="1672.17,1486.45 1672.17,47.2441 "/>
<polyline clip-path="url(#clip952)" style="stroke:#000000; stroke-linecap:round; stroke-linejoin:round; stroke-width:2; stroke-opacity:0.1; fill:none" points="2059.75,1486.45 2059.75,47.2441 "/>
<polyline clip-path="url(#clip950)" style="stroke:#000000; stroke-linecap:round; stroke-linejoin:round; stroke-width:4; stroke-opacity:1; fill:none" points="216.436,1486.45 2352.76,1486.45 "/>
<polyline clip-path="url(#clip950)" style="stroke:#000000; stroke-linecap:round; stroke-linejoin:round; stroke-width:4; stroke-opacity:1; fill:none" points="509.443,1486.45 509.443,1467.55 "/>
<polyline clip-path="url(#clip950)" style="stroke:#000000; stroke-linecap:round; stroke-linejoin:round; stroke-width:4; stroke-opacity:1; fill:none" points="897.02,1486.45 897.02,1467.55 "/>
<polyline clip-path="url(#clip950)" style="stroke:#000000; stroke-linecap:round; stroke-linejoin:round; stroke-width:4; stroke-opacity:1; fill:none" points="1284.6,1486.45 1284.6,1467.55 "/>
<polyline clip-path="url(#clip950)" style="stroke:#000000; stroke-linecap:round; stroke-linejoin:round; stroke-width:4; stroke-opacity:1; fill:none" points="1672.17,1486.45 1672.17,1467.55 "/>
<polyline clip-path="url(#clip950)" style="stroke:#000000; stroke-linecap:round; stroke-linejoin:round; stroke-width:4; stroke-opacity:1; fill:none" points="2059.75,1486.45 2059.75,1467.55 "/>
<path clip-path="url(#clip950)" d="M472.245 1517.37 Q468.634 1517.37 466.805 1520.93 Q464.999 1524.47 464.999 1531.6 Q464.999 1538.71 466.805 1542.27 Q468.634 1545.82 472.245 1545.82 Q475.879 1545.82 477.684 1542.27 Q479.513 1538.71 479.513 1531.6 Q479.513 1524.47 477.684 1520.93 Q475.879 1517.37 472.245 1517.37 M472.245 1513.66 Q478.055 1513.66 481.11 1518.27 Q484.189 1522.85 484.189 1531.6 Q484.189 1540.33 481.11 1544.94 Q478.055 1549.52 472.245 1549.52 Q466.434 1549.52 463.356 1544.94 Q460.3 1540.33 460.3 1531.6 Q460.3 1522.85 463.356 1518.27 Q466.434 1513.66 472.245 1513.66 Z" fill="#000000" fill-rule="evenodd" fill-opacity="1" /><path clip-path="url(#clip950)" d="M492.407 1542.97 L497.291 1542.97 L497.291 1548.85 L492.407 1548.85 L492.407 1542.97 Z" fill="#000000" fill-rule="evenodd" fill-opacity="1" /><path clip-path="url(#clip950)" d="M511.504 1544.91 L527.823 1544.91 L527.823 1548.85 L505.879 1548.85 L505.879 1544.91 Q508.541 1542.16 513.124 1537.53 Q517.73 1532.88 518.911 1531.53 Q521.156 1529.01 522.036 1527.27 Q522.939 1525.51 522.939 1523.82 Q522.939 1521.07 520.994 1519.33 Q519.073 1517.6 515.971 1517.6 Q513.772 1517.6 511.318 1518.36 Q508.888 1519.13 506.11 1520.68 L506.11 1515.95 Q508.934 1514.82 511.388 1514.24 Q513.842 1513.66 515.879 1513.66 Q521.249 1513.66 524.443 1516.35 Q527.638 1519.03 527.638 1523.52 Q527.638 1525.65 526.828 1527.57 Q526.041 1529.47 523.934 1532.07 Q523.355 1532.74 520.254 1535.95 Q517.152 1539.15 511.504 1544.91 Z" fill="#000000" fill-rule="evenodd" fill-opacity="1" /><path clip-path="url(#clip950)" d="M537.684 1514.29 L556.04 1514.29 L556.04 1518.22 L541.966 1518.22 L541.966 1526.7 Q542.985 1526.35 544.003 1526.19 Q545.022 1526 546.041 1526 Q551.828 1526 555.207 1529.17 Q558.587 1532.34 558.587 1537.76 Q558.587 1543.34 555.115 1546.44 Q551.642 1549.52 545.323 1549.52 Q543.147 1549.52 540.879 1549.15 Q538.633 1548.78 536.226 1548.04 L536.226 1543.34 Q538.309 1544.47 540.531 1545.03 Q542.753 1545.58 545.23 1545.58 Q549.235 1545.58 551.573 1543.48 Q553.911 1541.37 553.911 1537.76 Q553.911 1534.15 551.573 1532.04 Q549.235 1529.94 545.23 1529.94 Q543.355 1529.94 541.48 1530.35 Q539.629 1530.77 537.684 1531.65 L537.684 1514.29 Z" fill="#000000" fill-rule="evenodd" fill-opacity="1" /><path clip-path="url(#clip950)" d="M859.323 1517.37 Q855.712 1517.37 853.883 1520.93 Q852.078 1524.47 852.078 1531.6 Q852.078 1538.71 853.883 1542.27 Q855.712 1545.82 859.323 1545.82 Q862.957 1545.82 864.763 1542.27 Q866.592 1538.71 866.592 1531.6 Q866.592 1524.47 864.763 1520.93 Q862.957 1517.37 859.323 1517.37 M859.323 1513.66 Q865.133 1513.66 868.189 1518.27 Q871.268 1522.85 871.268 1531.6 Q871.268 1540.33 868.189 1544.94 Q865.133 1549.52 859.323 1549.52 Q853.513 1549.52 850.434 1544.94 Q847.379 1540.33 847.379 1531.6 Q847.379 1522.85 850.434 1518.27 Q853.513 1513.66 859.323 1513.66 Z" fill="#000000" fill-rule="evenodd" fill-opacity="1" /><path clip-path="url(#clip950)" d="M879.485 1542.97 L884.369 1542.97 L884.369 1548.85 L879.485 1548.85 L879.485 1542.97 Z" fill="#000000" fill-rule="evenodd" fill-opacity="1" /><path clip-path="url(#clip950)" d="M894.601 1514.29 L912.957 1514.29 L912.957 1518.22 L898.883 1518.22 L898.883 1526.7 Q899.902 1526.35 900.92 1526.19 Q901.939 1526 902.957 1526 Q908.744 1526 912.124 1529.17 Q915.503 1532.34 915.503 1537.76 Q915.503 1543.34 912.031 1546.44 Q908.559 1549.52 902.24 1549.52 Q900.064 1549.52 897.795 1549.15 Q895.55 1548.78 893.142 1548.04 L893.142 1543.34 Q895.226 1544.47 897.448 1545.03 Q899.67 1545.58 902.147 1545.58 Q906.152 1545.58 908.49 1543.48 Q910.827 1541.37 910.827 1537.76 Q910.827 1534.15 908.49 1532.04 Q906.152 1529.94 902.147 1529.94 Q900.272 1529.94 898.397 1530.35 Q896.545 1530.77 894.601 1531.65 L894.601 1514.29 Z" fill="#000000" fill-rule="evenodd" fill-opacity="1" /><path clip-path="url(#clip950)" d="M934.716 1517.37 Q931.105 1517.37 929.276 1520.93 Q927.471 1524.47 927.471 1531.6 Q927.471 1538.71 929.276 1542.27 Q931.105 1545.82 934.716 1545.82 Q938.35 1545.82 940.156 1542.27 Q941.985 1538.71 941.985 1531.6 Q941.985 1524.47 940.156 1520.93 Q938.35 1517.37 934.716 1517.37 M934.716 1513.66 Q940.526 1513.66 943.582 1518.27 Q946.661 1522.85 946.661 1531.6 Q946.661 1540.33 943.582 1544.94 Q940.526 1549.52 934.716 1549.52 Q928.906 1549.52 925.827 1544.94 Q922.772 1540.33 922.772 1531.6 Q922.772 1522.85 925.827 1518.27 Q928.906 1513.66 934.716 1513.66 Z" fill="#000000" fill-rule="evenodd" fill-opacity="1" /><path clip-path="url(#clip950)" d="M1247.4 1517.37 Q1243.79 1517.37 1241.96 1520.93 Q1240.15 1524.47 1240.15 1531.6 Q1240.15 1538.71 1241.96 1542.27 Q1243.79 1545.82 1247.4 1545.82 Q1251.03 1545.82 1252.84 1542.27 Q1254.67 1538.71 1254.67 1531.6 Q1254.67 1524.47 1252.84 1520.93 Q1251.03 1517.37 1247.4 1517.37 M1247.4 1513.66 Q1253.21 1513.66 1256.26 1518.27 Q1259.34 1522.85 1259.34 1531.6 Q1259.34 1540.33 1256.26 1544.94 Q1253.21 1549.52 1247.4 1549.52 Q1241.59 1549.52 1238.51 1544.94 Q1235.45 1540.33 1235.45 1531.6 Q1235.45 1522.85 1238.51 1518.27 Q1241.59 1513.66 1247.4 1513.66 Z" fill="#000000" fill-rule="evenodd" fill-opacity="1" /><path clip-path="url(#clip950)" d="M1267.56 1542.97 L1272.44 1542.97 L1272.44 1548.85 L1267.56 1548.85 L1267.56 1542.97 Z" fill="#000000" fill-rule="evenodd" fill-opacity="1" /><path clip-path="url(#clip950)" d="M1281.45 1514.29 L1303.67 1514.29 L1303.67 1516.28 L1291.12 1548.85 L1286.24 1548.85 L1298.04 1518.22 L1281.45 1518.22 L1281.45 1514.29 Z" fill="#000000" fill-rule="evenodd" fill-opacity="1" /><path clip-path="url(#clip950)" d="M1312.84 1514.29 L1331.19 1514.29 L1331.19 1518.22 L1317.12 1518.22 L1317.12 1526.7 Q1318.14 1526.35 1319.16 1526.19 Q1320.17 1526 1321.19 1526 Q1326.98 1526 1330.36 1529.17 Q1333.74 1532.34 1333.74 1537.76 Q1333.74 1543.34 1330.27 1546.44 Q1326.79 1549.52 1320.48 1549.52 Q1318.3 1549.52 1316.03 1549.15 Q1313.79 1548.78 1311.38 1548.04 L1311.38 1543.34 Q1313.46 1544.47 1315.68 1545.03 Q1317.91 1545.58 1320.38 1545.58 Q1324.39 1545.58 1326.73 1543.48 Q1329.06 1541.37 1329.06 1537.76 Q1329.06 1534.15 1326.73 1532.04 Q1324.39 1529.94 1320.38 1529.94 Q1318.51 1529.94 1316.63 1530.35 Q1314.78 1530.77 1312.84 1531.65 L1312.84 1514.29 Z" fill="#000000" fill-rule="evenodd" fill-opacity="1" /><path clip-path="url(#clip950)" d="M1624.24 1544.91 L1631.88 1544.91 L1631.88 1518.55 L1623.57 1520.21 L1623.57 1515.95 L1631.84 1514.29 L1636.51 1514.29 L1636.51 1544.91 L1644.15 1544.91 L1644.15 1548.85 L1624.24 1548.85 L1624.24 1544.91 Z" fill="#000000" fill-rule="evenodd" fill-opacity="1" /><path clip-path="url(#clip950)" d="M1653.6 1542.97 L1658.48 1542.97 L1658.48 1548.85 L1653.6 1548.85 L1653.6 1542.97 Z" fill="#000000" fill-rule="evenodd" fill-opacity="1" /><path clip-path="url(#clip950)" d="M1678.67 1517.37 Q1675.05 1517.37 1673.23 1520.93 Q1671.42 1524.47 1671.42 1531.6 Q1671.42 1538.71 1673.23 1542.27 Q1675.05 1545.82 1678.67 1545.82 Q1682.3 1545.82 1684.1 1542.27 Q1685.93 1538.71 1685.93 1531.6 Q1685.93 1524.47 1684.1 1520.93 Q1682.3 1517.37 1678.67 1517.37 M1678.67 1513.66 Q1684.48 1513.66 1687.53 1518.27 Q1690.61 1522.85 1690.61 1531.6 Q1690.61 1540.33 1687.53 1544.94 Q1684.48 1549.52 1678.67 1549.52 Q1672.85 1549.52 1669.78 1544.94 Q1666.72 1540.33 1666.72 1531.6 Q1666.72 1522.85 1669.78 1518.27 Q1672.85 1513.66 1678.67 1513.66 Z" fill="#000000" fill-rule="evenodd" fill-opacity="1" /><path clip-path="url(#clip950)" d="M1708.83 1517.37 Q1705.22 1517.37 1703.39 1520.93 Q1701.58 1524.47 1701.58 1531.6 Q1701.58 1538.71 1703.39 1542.27 Q1705.22 1545.82 1708.83 1545.82 Q1712.46 1545.82 1714.27 1542.27 Q1716.1 1538.71 1716.1 1531.6 Q1716.1 1524.47 1714.27 1520.93 Q1712.46 1517.37 1708.83 1517.37 M1708.83 1513.66 Q1714.64 1513.66 1717.69 1518.27 Q1720.77 1522.85 1720.77 1531.6 Q1720.77 1540.33 1717.69 1544.94 Q1714.64 1549.52 1708.83 1549.52 Q1703.02 1549.52 1699.94 1544.94 Q1696.88 1540.33 1696.88 1531.6 Q1696.88 1522.85 1699.94 1518.27 Q1703.02 1513.66 1708.83 1513.66 Z" fill="#000000" fill-rule="evenodd" fill-opacity="1" /><path clip-path="url(#clip950)" d="M2012.32 1544.91 L2019.96 1544.91 L2019.96 1518.55 L2011.65 1520.21 L2011.65 1515.95 L2019.91 1514.29 L2024.59 1514.29 L2024.59 1544.91 L2032.23 1544.91 L2032.23 1548.85 L2012.32 1548.85 L2012.32 1544.91 Z" fill="#000000" fill-rule="evenodd" fill-opacity="1" /><path clip-path="url(#clip950)" d="M2041.67 1542.97 L2046.55 1542.97 L2046.55 1548.85 L2041.67 1548.85 L2041.67 1542.97 Z" fill="#000000" fill-rule="evenodd" fill-opacity="1" /><path clip-path="url(#clip950)" d="M2060.77 1544.91 L2077.09 1544.91 L2077.09 1548.85 L2055.14 1548.85 L2055.14 1544.91 Q2057.8 1542.16 2062.39 1537.53 Q2066.99 1532.88 2068.17 1531.53 Q2070.42 1529.01 2071.3 1527.27 Q2072.2 1525.51 2072.2 1523.82 Q2072.2 1521.07 2070.26 1519.33 Q2068.34 1517.6 2065.23 1517.6 Q2063.04 1517.6 2060.58 1518.36 Q2058.15 1519.13 2055.37 1520.68 L2055.37 1515.95 Q2058.2 1514.82 2060.65 1514.24 Q2063.1 1513.66 2065.14 1513.66 Q2070.51 1513.66 2073.71 1516.35 Q2076.9 1519.03 2076.9 1523.52 Q2076.9 1525.65 2076.09 1527.57 Q2075.3 1529.47 2073.2 1532.07 Q2072.62 1532.74 2069.52 1535.95 Q2066.41 1539.15 2060.77 1544.91 Z" fill="#000000" fill-rule="evenodd" fill-opacity="1" /><path clip-path="url(#clip950)" d="M2086.95 1514.29 L2105.3 1514.29 L2105.3 1518.22 L2091.23 1518.22 L2091.23 1526.7 Q2092.25 1526.35 2093.27 1526.19 Q2094.29 1526 2095.3 1526 Q2101.09 1526 2104.47 1529.17 Q2107.85 1532.34 2107.85 1537.76 Q2107.85 1543.34 2104.38 1546.44 Q2100.91 1549.52 2094.59 1549.52 Q2092.41 1549.52 2090.14 1549.15 Q2087.9 1548.78 2085.49 1548.04 L2085.49 1543.34 Q2087.57 1544.47 2089.79 1545.03 Q2092.02 1545.58 2094.49 1545.58 Q2098.5 1545.58 2100.84 1543.48 Q2103.17 1541.37 2103.17 1537.76 Q2103.17 1534.15 2100.84 1532.04 Q2098.5 1529.94 2094.49 1529.94 Q2092.62 1529.94 2090.74 1530.35 Q2088.89 1530.77 2086.95 1531.65 L2086.95 1514.29 Z" fill="#000000" fill-rule="evenodd" fill-opacity="1" /><polyline clip-path="url(#clip952)" style="stroke:#000000; stroke-linecap:round; stroke-linejoin:round; stroke-width:2; stroke-opacity:0.1; fill:none" points="216.436,1445.72 2352.76,1445.72 "/>
<polyline clip-path="url(#clip952)" style="stroke:#000000; stroke-linecap:round; stroke-linejoin:round; stroke-width:2; stroke-opacity:0.1; fill:none" points="216.436,1168.18 2352.76,1168.18 "/>
<polyline clip-path="url(#clip952)" style="stroke:#000000; stroke-linecap:round; stroke-linejoin:round; stroke-width:2; stroke-opacity:0.1; fill:none" points="216.436,890.637 2352.76,890.637 "/>
<polyline clip-path="url(#clip952)" style="stroke:#000000; stroke-linecap:round; stroke-linejoin:round; stroke-width:2; stroke-opacity:0.1; fill:none" points="216.436,613.097 2352.76,613.097 "/>
<polyline clip-path="url(#clip952)" style="stroke:#000000; stroke-linecap:round; stroke-linejoin:round; stroke-width:2; stroke-opacity:0.1; fill:none" points="216.436,335.558 2352.76,335.558 "/>
<polyline clip-path="url(#clip952)" style="stroke:#000000; stroke-linecap:round; stroke-linejoin:round; stroke-width:2; stroke-opacity:0.1; fill:none" points="216.436,58.018 2352.76,58.018 "/>
<polyline clip-path="url(#clip950)" style="stroke:#000000; stroke-linecap:round; stroke-linejoin:round; stroke-width:4; stroke-opacity:1; fill:none" points="216.436,1486.45 216.436,47.2441 "/>
<polyline clip-path="url(#clip950)" style="stroke:#000000; stroke-linecap:round; stroke-linejoin:round; stroke-width:4; stroke-opacity:1; fill:none" points="216.436,1445.72 235.334,1445.72 "/>
<polyline clip-path="url(#clip950)" style="stroke:#000000; stroke-linecap:round; stroke-linejoin:round; stroke-width:4; stroke-opacity:1; fill:none" points="216.436,1168.18 235.334,1168.18 "/>
<polyline clip-path="url(#clip950)" style="stroke:#000000; stroke-linecap:round; stroke-linejoin:round; stroke-width:4; stroke-opacity:1; fill:none" points="216.436,890.637 235.334,890.637 "/>
<polyline clip-path="url(#clip950)" style="stroke:#000000; stroke-linecap:round; stroke-linejoin:round; stroke-width:4; stroke-opacity:1; fill:none" points="216.436,613.097 235.334,613.097 "/>
<polyline clip-path="url(#clip950)" style="stroke:#000000; stroke-linecap:round; stroke-linejoin:round; stroke-width:4; stroke-opacity:1; fill:none" points="216.436,335.558 235.334,335.558 "/>
<polyline clip-path="url(#clip950)" style="stroke:#000000; stroke-linecap:round; stroke-linejoin:round; stroke-width:4; stroke-opacity:1; fill:none" points="216.436,58.018 235.334,58.018 "/>
<path clip-path="url(#clip950)" d="M62.9365 1431.51 Q59.3254 1431.51 57.4967 1435.08 Q55.6912 1438.62 55.6912 1445.75 Q55.6912 1452.86 57.4967 1456.42 Q59.3254 1459.96 62.9365 1459.96 Q66.5707 1459.96 68.3763 1456.42 Q70.205 1452.86 70.205 1445.75 Q70.205 1438.62 68.3763 1435.08 Q66.5707 1431.51 62.9365 1431.51 M62.9365 1427.81 Q68.7467 1427.81 71.8022 1432.42 Q74.8809 1437 74.8809 1445.75 Q74.8809 1454.48 71.8022 1459.08 Q68.7467 1463.67 62.9365 1463.67 Q57.1264 1463.67 54.0477 1459.08 Q50.9921 1454.48 50.9921 1445.75 Q50.9921 1437 54.0477 1432.42 Q57.1264 1427.81 62.9365 1427.81 Z" fill="#000000" fill-rule="evenodd" fill-opacity="1" /><path clip-path="url(#clip950)" d="M83.0984 1457.12 L87.9827 1457.12 L87.9827 1463 L83.0984 1463 L83.0984 1457.12 Z" fill="#000000" fill-rule="evenodd" fill-opacity="1" /><path clip-path="url(#clip950)" d="M108.168 1431.51 Q104.557 1431.51 102.728 1435.08 Q100.922 1438.62 100.922 1445.75 Q100.922 1452.86 102.728 1456.42 Q104.557 1459.96 108.168 1459.96 Q111.802 1459.96 113.608 1456.42 Q115.436 1452.86 115.436 1445.75 Q115.436 1438.62 113.608 1435.08 Q111.802 1431.51 108.168 1431.51 M108.168 1427.81 Q113.978 1427.81 117.033 1432.42 Q120.112 1437 120.112 1445.75 Q120.112 1454.48 117.033 1459.08 Q113.978 1463.67 108.168 1463.67 Q102.358 1463.67 99.2789 1459.08 Q96.2234 1454.48 96.2234 1445.75 Q96.2234 1437 99.2789 1432.42 Q102.358 1427.81 108.168 1427.81 Z" fill="#000000" fill-rule="evenodd" fill-opacity="1" /><path clip-path="url(#clip950)" d="M138.33 1431.51 Q134.719 1431.51 132.89 1435.08 Q131.084 1438.62 131.084 1445.75 Q131.084 1452.86 132.89 1456.42 Q134.719 1459.96 138.33 1459.96 Q141.964 1459.96 143.769 1456.42 Q145.598 1452.86 145.598 1445.75 Q145.598 1438.62 143.769 1435.08 Q141.964 1431.51 138.33 1431.51 M138.33 1427.81 Q144.14 1427.81 147.195 1432.42 Q150.274 1437 150.274 1445.75 Q150.274 1454.48 147.195 1459.08 Q144.14 1463.67 138.33 1463.67 Q132.519 1463.67 129.441 1459.08 Q126.385 1454.48 126.385 1445.75 Q126.385 1437 129.441 1432.42 Q132.519 1427.81 138.33 1427.81 Z" fill="#000000" fill-rule="evenodd" fill-opacity="1" /><path clip-path="url(#clip950)" d="M168.491 1431.51 Q164.88 1431.51 163.052 1435.08 Q161.246 1438.62 161.246 1445.75 Q161.246 1452.86 163.052 1456.42 Q164.88 1459.96 168.491 1459.96 Q172.126 1459.96 173.931 1456.42 Q175.76 1452.86 175.76 1445.75 Q175.76 1438.62 173.931 1435.08 Q172.126 1431.51 168.491 1431.51 M168.491 1427.81 Q174.302 1427.81 177.357 1432.42 Q180.436 1437 180.436 1445.75 Q180.436 1454.48 177.357 1459.08 Q174.302 1463.67 168.491 1463.67 Q162.681 1463.67 159.603 1459.08 Q156.547 1454.48 156.547 1445.75 Q156.547 1437 159.603 1432.42 Q162.681 1427.81 168.491 1427.81 Z" fill="#000000" fill-rule="evenodd" fill-opacity="1" /><path clip-path="url(#clip950)" d="M63.9319 1153.97 Q60.3208 1153.97 58.4921 1157.54 Q56.6865 1161.08 56.6865 1168.21 Q56.6865 1175.32 58.4921 1178.88 Q60.3208 1182.42 63.9319 1182.42 Q67.5661 1182.42 69.3717 1178.88 Q71.2004 1175.32 71.2004 1168.21 Q71.2004 1161.08 69.3717 1157.54 Q67.5661 1153.97 63.9319 1153.97 M63.9319 1150.27 Q69.742 1150.27 72.7976 1154.88 Q75.8763 1159.46 75.8763 1168.21 Q75.8763 1176.94 72.7976 1181.54 Q69.742 1186.13 63.9319 1186.13 Q58.1217 1186.13 55.043 1181.54 Q51.9875 1176.94 51.9875 1168.21 Q51.9875 1159.46 55.043 1154.88 Q58.1217 1150.27 63.9319 1150.27 Z" fill="#000000" fill-rule="evenodd" fill-opacity="1" /><path clip-path="url(#clip950)" d="M84.0938 1179.58 L88.978 1179.58 L88.978 1185.46 L84.0938 1185.46 L84.0938 1179.58 Z" fill="#000000" fill-rule="evenodd" fill-opacity="1" /><path clip-path="url(#clip950)" d="M109.163 1153.97 Q105.552 1153.97 103.723 1157.54 Q101.918 1161.08 101.918 1168.21 Q101.918 1175.32 103.723 1178.88 Q105.552 1182.42 109.163 1182.42 Q112.797 1182.42 114.603 1178.88 Q116.432 1175.32 116.432 1168.21 Q116.432 1161.08 114.603 1157.54 Q112.797 1153.97 109.163 1153.97 M109.163 1150.27 Q114.973 1150.27 118.029 1154.88 Q121.107 1159.46 121.107 1168.21 Q121.107 1176.94 118.029 1181.54 Q114.973 1186.13 109.163 1186.13 Q103.353 1186.13 100.274 1181.54 Q97.2187 1176.94 97.2187 1168.21 Q97.2187 1159.46 100.274 1154.88 Q103.353 1150.27 109.163 1150.27 Z" fill="#000000" fill-rule="evenodd" fill-opacity="1" /><path clip-path="url(#clip950)" d="M139.325 1153.97 Q135.714 1153.97 133.885 1157.54 Q132.08 1161.08 132.08 1168.21 Q132.08 1175.32 133.885 1178.88 Q135.714 1182.42 139.325 1182.42 Q142.959 1182.42 144.765 1178.88 Q146.593 1175.32 146.593 1168.21 Q146.593 1161.08 144.765 1157.54 Q142.959 1153.97 139.325 1153.97 M139.325 1150.27 Q145.135 1150.27 148.191 1154.88 Q151.269 1159.46 151.269 1168.21 Q151.269 1176.94 148.191 1181.54 Q145.135 1186.13 139.325 1186.13 Q133.515 1186.13 130.436 1181.54 Q127.381 1176.94 127.381 1168.21 Q127.381 1159.46 130.436 1154.88 Q133.515 1150.27 139.325 1150.27 Z" fill="#000000" fill-rule="evenodd" fill-opacity="1" /><path clip-path="url(#clip950)" d="M159.533 1150.9 L177.89 1150.9 L177.89 1154.83 L163.816 1154.83 L163.816 1163.3 Q164.834 1162.96 165.853 1162.79 Q166.871 1162.61 167.89 1162.61 Q173.677 1162.61 177.056 1165.78 Q180.436 1168.95 180.436 1174.37 Q180.436 1179.95 176.964 1183.05 Q173.491 1186.13 167.172 1186.13 Q164.996 1186.13 162.728 1185.76 Q160.482 1185.39 158.075 1184.65 L158.075 1179.95 Q160.158 1181.08 162.38 1181.64 Q164.603 1182.19 167.079 1182.19 Q171.084 1182.19 173.422 1180.09 Q175.76 1177.98 175.76 1174.37 Q175.76 1170.76 173.422 1168.65 Q171.084 1166.54 167.079 1166.54 Q165.204 1166.54 163.329 1166.96 Q161.478 1167.38 159.533 1168.26 L159.533 1150.9 Z" fill="#000000" fill-rule="evenodd" fill-opacity="1" /><path clip-path="url(#clip950)" d="M62.9365 876.435 Q59.3254 876.435 57.4967 880 Q55.6912 883.542 55.6912 890.671 Q55.6912 897.778 57.4967 901.343 Q59.3254 904.884 62.9365 904.884 Q66.5707 904.884 68.3763 901.343 Q70.205 897.778 70.205 890.671 Q70.205 883.542 68.3763 880 Q66.5707 876.435 62.9365 876.435 M62.9365 872.732 Q68.7467 872.732 71.8022 877.338 Q74.8809 881.921 74.8809 890.671 Q74.8809 899.398 71.8022 904.005 Q68.7467 908.588 62.9365 908.588 Q57.1264 908.588 54.0477 904.005 Q50.9921 899.398 50.9921 890.671 Q50.9921 881.921 54.0477 877.338 Q57.1264 872.732 62.9365 872.732 Z" fill="#000000" fill-rule="evenodd" fill-opacity="1" /><path clip-path="url(#clip950)" d="M83.0984 902.037 L87.9827 902.037 L87.9827 907.917 L83.0984 907.917 L83.0984 902.037 Z" fill="#000000" fill-rule="evenodd" fill-opacity="1" /><path clip-path="url(#clip950)" d="M108.168 876.435 Q104.557 876.435 102.728 880 Q100.922 883.542 100.922 890.671 Q100.922 897.778 102.728 901.343 Q104.557 904.884 108.168 904.884 Q111.802 904.884 113.608 901.343 Q115.436 897.778 115.436 890.671 Q115.436 883.542 113.608 880 Q111.802 876.435 108.168 876.435 M108.168 872.732 Q113.978 872.732 117.033 877.338 Q120.112 881.921 120.112 890.671 Q120.112 899.398 117.033 904.005 Q113.978 908.588 108.168 908.588 Q102.358 908.588 99.2789 904.005 Q96.2234 899.398 96.2234 890.671 Q96.2234 881.921 99.2789 877.338 Q102.358 872.732 108.168 872.732 Z" fill="#000000" fill-rule="evenodd" fill-opacity="1" /><path clip-path="url(#clip950)" d="M129.14 903.981 L136.779 903.981 L136.779 877.616 L128.469 879.283 L128.469 875.023 L136.732 873.357 L141.408 873.357 L141.408 903.981 L149.047 903.981 L149.047 907.917 L129.14 907.917 L129.14 903.981 Z" fill="#000000" fill-rule="evenodd" fill-opacity="1" /><path clip-path="url(#clip950)" d="M168.491 876.435 Q164.88 876.435 163.052 880 Q161.246 883.542 161.246 890.671 Q161.246 897.778 163.052 901.343 Q164.88 904.884 168.491 904.884 Q172.126 904.884 173.931 901.343 Q175.76 897.778 175.76 890.671 Q175.76 883.542 173.931 880 Q172.126 876.435 168.491 876.435 M168.491 872.732 Q174.302 872.732 177.357 877.338 Q180.436 881.921 180.436 890.671 Q180.436 899.398 177.357 904.005 Q174.302 908.588 168.491 908.588 Q162.681 908.588 159.603 904.005 Q156.547 899.398 156.547 890.671 Q156.547 881.921 159.603 877.338 Q162.681 872.732 168.491 872.732 Z" fill="#000000" fill-rule="evenodd" fill-opacity="1" /><path clip-path="url(#clip950)" d="M63.9319 598.896 Q60.3208 598.896 58.4921 602.461 Q56.6865 606.002 56.6865 613.132 Q56.6865 620.238 58.4921 623.803 Q60.3208 627.345 63.9319 627.345 Q67.5661 627.345 69.3717 623.803 Q71.2004 620.238 71.2004 613.132 Q71.2004 606.002 69.3717 602.461 Q67.5661 598.896 63.9319 598.896 M63.9319 595.192 Q69.742 595.192 72.7976 599.799 Q75.8763 604.382 75.8763 613.132 Q75.8763 621.859 72.7976 626.465 Q69.742 631.048 63.9319 631.048 Q58.1217 631.048 55.043 626.465 Q51.9875 621.859 51.9875 613.132 Q51.9875 604.382 55.043 599.799 Q58.1217 595.192 63.9319 595.192 Z" fill="#000000" fill-rule="evenodd" fill-opacity="1" /><path clip-path="url(#clip950)" d="M84.0938 624.497 L88.978 624.497 L88.978 630.377 L84.0938 630.377 L84.0938 624.497 Z" fill="#000000" fill-rule="evenodd" fill-opacity="1" /><path clip-path="url(#clip950)" d="M109.163 598.896 Q105.552 598.896 103.723 602.461 Q101.918 606.002 101.918 613.132 Q101.918 620.238 103.723 623.803 Q105.552 627.345 109.163 627.345 Q112.797 627.345 114.603 623.803 Q116.432 620.238 116.432 613.132 Q116.432 606.002 114.603 602.461 Q112.797 598.896 109.163 598.896 M109.163 595.192 Q114.973 595.192 118.029 599.799 Q121.107 604.382 121.107 613.132 Q121.107 621.859 118.029 626.465 Q114.973 631.048 109.163 631.048 Q103.353 631.048 100.274 626.465 Q97.2187 621.859 97.2187 613.132 Q97.2187 604.382 100.274 599.799 Q103.353 595.192 109.163 595.192 Z" fill="#000000" fill-rule="evenodd" fill-opacity="1" /><path clip-path="url(#clip950)" d="M130.135 626.442 L137.774 626.442 L137.774 600.076 L129.464 601.743 L129.464 597.484 L137.728 595.817 L142.404 595.817 L142.404 626.442 L150.043 626.442 L150.043 630.377 L130.135 630.377 L130.135 626.442 Z" fill="#000000" fill-rule="evenodd" fill-opacity="1" /><path clip-path="url(#clip950)" d="M159.533 595.817 L177.89 595.817 L177.89 599.752 L163.816 599.752 L163.816 608.224 Q164.834 607.877 165.853 607.715 Q166.871 607.53 167.89 607.53 Q173.677 607.53 177.056 610.701 Q180.436 613.873 180.436 619.289 Q180.436 624.868 176.964 627.97 Q173.491 631.048 167.172 631.048 Q164.996 631.048 162.728 630.678 Q160.482 630.308 158.075 629.567 L158.075 624.868 Q160.158 626.002 162.38 626.558 Q164.603 627.113 167.079 627.113 Q171.084 627.113 173.422 625.007 Q175.76 622.9 175.76 619.289 Q175.76 615.678 173.422 613.572 Q171.084 611.465 167.079 611.465 Q165.204 611.465 163.329 611.882 Q161.478 612.298 159.533 613.178 L159.533 595.817 Z" fill="#000000" fill-rule="evenodd" fill-opacity="1" /><path clip-path="url(#clip950)" d="M62.9365 321.356 Q59.3254 321.356 57.4967 324.921 Q55.6912 328.463 55.6912 335.592 Q55.6912 342.699 57.4967 346.264 Q59.3254 349.805 62.9365 349.805 Q66.5707 349.805 68.3763 346.264 Q70.205 342.699 70.205 335.592 Q70.205 328.463 68.3763 324.921 Q66.5707 321.356 62.9365 321.356 M62.9365 317.653 Q68.7467 317.653 71.8022 322.259 Q74.8809 326.842 74.8809 335.592 Q74.8809 344.319 71.8022 348.926 Q68.7467 353.509 62.9365 353.509 Q57.1264 353.509 54.0477 348.926 Q50.9921 344.319 50.9921 335.592 Q50.9921 326.842 54.0477 322.259 Q57.1264 317.653 62.9365 317.653 Z" fill="#000000" fill-rule="evenodd" fill-opacity="1" /><path clip-path="url(#clip950)" d="M83.0984 346.958 L87.9827 346.958 L87.9827 352.838 L83.0984 352.838 L83.0984 346.958 Z" fill="#000000" fill-rule="evenodd" fill-opacity="1" /><path clip-path="url(#clip950)" d="M108.168 321.356 Q104.557 321.356 102.728 324.921 Q100.922 328.463 100.922 335.592 Q100.922 342.699 102.728 346.264 Q104.557 349.805 108.168 349.805 Q111.802 349.805 113.608 346.264 Q115.436 342.699 115.436 335.592 Q115.436 328.463 113.608 324.921 Q111.802 321.356 108.168 321.356 M108.168 317.653 Q113.978 317.653 117.033 322.259 Q120.112 326.842 120.112 335.592 Q120.112 344.319 117.033 348.926 Q113.978 353.509 108.168 353.509 Q102.358 353.509 99.2789 348.926 Q96.2234 344.319 96.2234 335.592 Q96.2234 326.842 99.2789 322.259 Q102.358 317.653 108.168 317.653 Z" fill="#000000" fill-rule="evenodd" fill-opacity="1" /><path clip-path="url(#clip950)" d="M132.357 348.902 L148.677 348.902 L148.677 352.838 L126.732 352.838 L126.732 348.902 Q129.394 346.148 133.978 341.518 Q138.584 336.865 139.765 335.523 Q142.01 333 142.89 331.264 Q143.793 329.504 143.793 327.815 Q143.793 325.06 141.848 323.324 Q139.927 321.588 136.825 321.588 Q134.626 321.588 132.172 322.352 Q129.742 323.115 126.964 324.666 L126.964 319.944 Q129.788 318.81 132.242 318.231 Q134.695 317.653 136.732 317.653 Q142.103 317.653 145.297 320.338 Q148.492 323.023 148.492 327.514 Q148.492 329.643 147.681 331.565 Q146.894 333.463 144.788 336.055 Q144.209 336.727 141.107 339.944 Q138.006 343.139 132.357 348.902 Z" fill="#000000" fill-rule="evenodd" fill-opacity="1" /><path clip-path="url(#clip950)" d="M168.491 321.356 Q164.88 321.356 163.052 324.921 Q161.246 328.463 161.246 335.592 Q161.246 342.699 163.052 346.264 Q164.88 349.805 168.491 349.805 Q172.126 349.805 173.931 346.264 Q175.76 342.699 175.76 335.592 Q175.76 328.463 173.931 324.921 Q172.126 321.356 168.491 321.356 M168.491 317.653 Q174.302 317.653 177.357 322.259 Q180.436 326.842 180.436 335.592 Q180.436 344.319 177.357 348.926 Q174.302 353.509 168.491 353.509 Q162.681 353.509 159.603 348.926 Q156.547 344.319 156.547 335.592 Q156.547 326.842 159.603 322.259 Q162.681 317.653 168.491 317.653 Z" fill="#000000" fill-rule="evenodd" fill-opacity="1" /><path clip-path="url(#clip950)" d="M63.9319 43.8167 Q60.3208 43.8167 58.4921 47.3815 Q56.6865 50.9231 56.6865 58.0527 Q56.6865 65.1592 58.4921 68.724 Q60.3208 72.2656 63.9319 72.2656 Q67.5661 72.2656 69.3717 68.724 Q71.2004 65.1592 71.2004 58.0527 Q71.2004 50.9231 69.3717 47.3815 Q67.5661 43.8167 63.9319 43.8167 M63.9319 40.113 Q69.742 40.113 72.7976 44.7195 Q75.8763 49.3028 75.8763 58.0527 Q75.8763 66.7795 72.7976 71.386 Q69.742 75.9693 63.9319 75.9693 Q58.1217 75.9693 55.043 71.386 Q51.9875 66.7795 51.9875 58.0527 Q51.9875 49.3028 55.043 44.7195 Q58.1217 40.113 63.9319 40.113 Z" fill="#000000" fill-rule="evenodd" fill-opacity="1" /><path clip-path="url(#clip950)" d="M84.0938 69.4184 L88.978 69.4184 L88.978 75.298 L84.0938 75.298 L84.0938 69.4184 Z" fill="#000000" fill-rule="evenodd" fill-opacity="1" /><path clip-path="url(#clip950)" d="M109.163 43.8167 Q105.552 43.8167 103.723 47.3815 Q101.918 50.9231 101.918 58.0527 Q101.918 65.1592 103.723 68.724 Q105.552 72.2656 109.163 72.2656 Q112.797 72.2656 114.603 68.724 Q116.432 65.1592 116.432 58.0527 Q116.432 50.9231 114.603 47.3815 Q112.797 43.8167 109.163 43.8167 M109.163 40.113 Q114.973 40.113 118.029 44.7195 Q121.107 49.3028 121.107 58.0527 Q121.107 66.7795 118.029 71.386 Q114.973 75.9693 109.163 75.9693 Q103.353 75.9693 100.274 71.386 Q97.2187 66.7795 97.2187 58.0527 Q97.2187 49.3028 100.274 44.7195 Q103.353 40.113 109.163 40.113 Z" fill="#000000" fill-rule="evenodd" fill-opacity="1" /><path clip-path="url(#clip950)" d="M133.353 71.3628 L149.672 71.3628 L149.672 75.298 L127.728 75.298 L127.728 71.3628 Q130.39 68.6082 134.973 63.9786 Q139.58 59.3259 140.76 57.9833 Q143.006 55.4602 143.885 53.7241 Q144.788 51.9648 144.788 50.275 Q144.788 47.5204 142.843 45.7843 Q140.922 44.0482 137.82 44.0482 Q135.621 44.0482 133.168 44.8121 Q130.737 45.5759 127.959 47.1269 L127.959 42.4047 Q130.783 41.2704 133.237 40.6917 Q135.691 40.113 137.728 40.113 Q143.098 40.113 146.293 42.7982 Q149.487 45.4834 149.487 49.9741 Q149.487 52.1037 148.677 54.025 Q147.89 55.9231 145.783 58.5157 Q145.205 59.187 142.103 62.4046 Q139.001 65.599 133.353 71.3628 Z" fill="#000000" fill-rule="evenodd" fill-opacity="1" /><path clip-path="url(#clip950)" d="M159.533 40.738 L177.89 40.738 L177.89 44.6732 L163.816 44.6732 L163.816 53.1453 Q164.834 52.7981 165.853 52.6361 Q166.871 52.4509 167.89 52.4509 Q173.677 52.4509 177.056 55.6222 Q180.436 58.7935 180.436 64.2101 Q180.436 69.7888 176.964 72.8906 Q173.491 75.9693 167.172 75.9693 Q164.996 75.9693 162.728 75.5989 Q160.482 75.2286 158.075 74.4878 L158.075 69.7888 Q160.158 70.923 162.38 71.4786 Q164.603 72.0341 167.079 72.0341 Q171.084 72.0341 173.422 69.9277 Q175.76 67.8212 175.76 64.2101 Q175.76 60.599 173.422 58.4925 Q171.084 56.3861 167.079 56.3861 Q165.204 56.3861 163.329 56.8027 Q161.478 57.2194 159.533 58.099 L159.533 40.738 Z" fill="#000000" fill-rule="evenodd" fill-opacity="1" /><polyline clip-path="url(#clip952)" style="stroke:#009af9; stroke-linecap:round; stroke-linejoin:round; stroke-width:4; stroke-opacity:1; fill:none" points="276.898,1445.72 287.025,1445.72 297.153,1445.72 307.281,1445.72 317.408,1445.72 327.536,1445.72 337.663,1445.72 347.791,1445.72 357.919,1445.72 368.046,1445.72 378.174,1445.72 388.302,1445.72 398.429,1445.72 408.557,1445.72 418.684,1445.72 428.812,1445.72 438.94,1445.72 449.067,1445.72 459.195,1445.72 469.323,1445.72 479.45,1445.72 489.578,1445.72 499.705,1445.72 509.833,1445.72 519.961,1445.72 530.088,1445.72 540.216,1445.72 550.343,1445.72 560.471,1445.72 570.599,1445.72 580.726,1445.72 590.854,1445.72 600.982,1445.72 611.109,1445.72 621.237,1445.72 631.364,1445.72 641.492,1445.72 651.62,1445.72 661.747,1445.72 671.875,1445.72 682.003,1445.72 692.13,1445.72 702.258,1445.72 712.385,1445.72 722.513,1445.72 732.641,1445.72 742.768,1445.72 752.896,1445.72 763.023,1445.72 773.151,1445.72 783.279,1445.72 793.406,1445.54 803.534,1438.4 813.662,1433.8 823.789,1428.86 833.917,1421.11 844.044,1418.31 854.172,1413.19 864.3,1409.83 874.427,1405.6 884.555,1403.97 894.683,1399.08 904.81,1395.06 914.938,1393.71 925.065,1388.38 935.193,1387.55 945.321,1381.34 955.448,1376.86 965.576,1365.68 975.704,1345.91 985.831,1295.46 995.959,1205.44 1006.09,1194.35 1016.21,1234.41 1026.34,1257.92 1036.47,1266.8 1046.6,1266.53 1056.72,1262.7 1066.85,1238.54 1076.98,1145.39 1087.11,1097.53 1097.23,1121.06 1107.36,1124.45 1117.49,1090.12 1127.62,1102.74 1137.75,1114.25 1147.87,1123.94 1158,1127.19 1168.13,1138 1178.26,1132.52 1188.38,1136.24 1198.51,1137.39 1208.64,1136.37 1218.77,1137.57 1228.89,1130.93 1239.02,1135.45 1249.15,1131.25 1259.28,1130.39 1269.4,1128.38 1279.53,1125.38 1289.66,1121.68 1299.79,1119.57 1309.91,1119.49 1320.04,1113.06 1330.17,1110.67 1340.3,1108.71 1350.43,1105.93 1360.55,1098.37 1370.68,1130.86 1380.81,1146.15 1390.94,1148.95 1401.06,1150.54 1411.19,1144 1421.32,1141.85 1431.45,1133.47 1441.57,1117.66 1451.7,1076.22 1461.83,1058.69 1471.96,1050.04 1482.08,1044.92 1492.21,1041.34 1502.34,1039.68 1512.47,1028.94 1522.59,1025.95 1532.72,1017.26 1542.85,1016.54 1552.98,1003.14 1563.11,1006.36 1573.23,991.294 1583.36,985.755 1593.49,980.445 1603.62,976.223 1613.74,964.814 1623.87,957.234 1634,954.061 1644.13,938.86 1654.25,943.907 1664.38,917.279 1674.51,921.392 1684.64,908.18 1694.76,905.828 1704.89,886.966 1715.02,877.603 1725.15,870.785 1735.27,862.939 1745.4,852.582 1755.53,841.566 1765.66,823.475 1775.79,810.134 1785.91,804.223 1796.04,787.215 1806.17,781.389 1816.3,760.465 1826.42,753.698 1836.55,726.425 1846.68,707.347 1856.81,690.633 1866.93,681.386 1877.06,646.969 1887.19,603.485 1897.32,633.952 1907.44,540.669 1917.57,513.696 1927.7,479.043 1937.83,406.466 1947.95,233.124 1958.08,297.583 1968.21,311.251 1978.34,314.518 1988.47,269.08 1998.59,119.738 2008.72,259.865 2018.85,340.506 2028.98,387.317 2039.1,569.669 2049.23,647.207 2059.36,1302.38 2069.49,1416.43 2079.61,1445.72 2089.74,1445.72 2099.87,1445.72 2110,1445.72 2120.12,1445.72 2130.25,1445.72 2140.38,1445.72 2150.51,1445.72 2160.63,1445.72 2170.76,1445.72 2180.89,1445.72 2191.02,1445.72 2201.15,1445.72 2211.27,1445.72 2221.4,1445.72 2231.53,1445.72 2241.66,1445.72 2251.78,1445.72 2261.91,1445.72 2272.04,1445.72 2282.17,1445.72 2292.29,1445.72 "/>
<polyline clip-path="url(#clip952)" style="stroke:#e26f46; stroke-linecap:round; stroke-linejoin:round; stroke-width:4; stroke-opacity:1; fill:none" points="276.898,1445.72 287.025,1445.72 297.153,1445.72 307.281,1445.72 317.408,1445.72 327.536,1445.72 337.663,1445.72 347.791,1445.72 357.919,1445.72 368.046,1445.72 378.174,1445.72 388.302,1445.72 398.429,1445.72 408.557,1445.72 418.684,1445.72 428.812,1445.72 438.94,1445.72 449.067,1445.72 459.195,1445.72 469.323,1445.72 479.45,1445.72 489.578,1445.72 499.705,1445.72 509.833,1445.72 519.961,1445.72 530.088,1445.72 540.216,1445.72 550.343,1445.72 560.471,1445.72 570.599,1445.72 580.726,1445.72 590.854,1445.72 600.982,1445.72 611.109,1445.72 621.237,1445.72 631.364,1445.72 641.492,1445.72 651.62,1445.72 661.747,1445.72 671.875,1445.72 682.003,1445.72 692.13,1445.72 702.258,1445.72 712.385,1445.72 722.513,1445.72 732.641,1445.72 742.768,1445.72 752.896,1445.72 763.023,1445.72 773.151,1445.72 783.279,1445.72 793.406,1445.72 803.534,1445.72 813.662,1445.72 823.789,1445.72 833.917,1445.72 844.044,1445.72 854.172,1445.72 864.3,1445.72 874.427,1445.72 884.555,1444.4 894.683,1439.66 904.81,1430.31 914.938,1425.38 925.065,1418.43 935.193,1411.27 945.321,1403.98 955.448,1393.45 965.576,1372.72 975.704,1330.27 985.831,1244.45 995.959,1199.53 1006.09,1219.1 1016.21,1261.22 1026.34,1274.26 1036.47,1275.62 1046.6,1271.27 1056.72,1261.29 1066.85,1219.95 1076.98,1097.86 1087.11,1086.85 1097.23,1101.3 1107.36,1107.49 1117.49,1059.08 1127.62,1078.73 1137.75,1094.78 1147.87,1103.79 1158,1113.27 1168.13,1114.59 1178.26,1119.51 1188.38,1119.1 1198.51,1119.98 1208.64,1122.54 1218.77,1121.82 1228.89,1120.91 1239.02,1121.54 1249.15,1119.96 1259.28,1116.52 1269.4,1118.94 1279.53,1110.25 1289.66,1113.53 1299.79,1110.94 1309.91,1108.7 1320.04,1106.76 1330.17,1102.81 1340.3,1099.27 1350.43,1097.23 1360.55,1116.61 1370.68,1150.32 1380.81,1157.12 1390.94,1164.93 1401.06,1168.56 1411.19,1156.63 1421.32,1148.67 1431.45,1134.21 1441.57,1098.45 1451.7,1059.57 1461.83,1055.48 1471.96,1048.85 1482.08,1047.54 1492.21,1038.51 1502.34,1039.7 1512.47,1037.2 1522.59,1028.84 1532.72,1020.04 1542.85,1018.26 1552.98,1015.63 1563.11,1006.45 1573.23,999.626 1583.36,994.349 1593.49,990.065 1603.62,980.429 1613.74,972.867 1623.87,969.761 1634,961.539 1644.13,953.516 1654.25,937.905 1664.38,944.525 1674.51,928.825 1684.64,916.49 1694.76,912.085 1704.89,906.322 1715.02,899.979 1725.15,884.501 1735.27,879.568 1745.4,870.584 1755.53,849.262 1765.66,851.681 1775.79,828.717 1785.91,807.457 1796.04,806.52 1806.17,789.55 1816.3,772.47 1826.42,751.051 1836.55,748.952 1846.68,728.87 1856.81,703.674 1866.93,672.274 1877.06,642.483 1887.19,622.481 1897.32,594.395 1907.44,530.705 1917.57,506.592 1927.7,403.01 1937.83,205.549 1947.95,282.965 1958.08,328.88 1968.21,325.97 1978.34,309.161 1988.47,225.379 1998.59,87.9763 2008.72,247.142 2018.85,359.186 2028.98,405.384 2039.1,569.135 2049.23,540.107 2059.36,1224.73 2069.49,1445.72 2079.61,1445.72 2089.74,1445.72 2099.87,1445.72 2110,1445.72 2120.12,1445.72 2130.25,1445.72 2140.38,1445.72 2150.51,1445.72 2160.63,1445.72 2170.76,1445.72 2180.89,1445.72 2191.02,1445.72 2201.15,1445.72 2211.27,1445.72 2221.4,1445.72 2231.53,1445.72 2241.66,1445.72 2251.78,1445.72 2261.91,1445.72 2272.04,1445.72 2282.17,1445.72 2292.29,1445.72 "/>
<polyline clip-path="url(#clip952)" style="stroke:#3da44d; stroke-linecap:round; stroke-linejoin:round; stroke-width:4; stroke-opacity:1; fill:none" points="276.898,1445.72 287.025,1445.72 297.153,1445.72 307.281,1445.72 317.408,1445.72 327.536,1445.72 337.663,1445.72 347.791,1445.72 357.919,1445.72 368.046,1445.72 378.174,1445.72 388.302,1445.72 398.429,1445.72 408.557,1445.72 418.684,1445.72 428.812,1445.72 438.94,1445.72 449.067,1445.72 459.195,1445.72 469.323,1445.72 479.45,1445.72 489.578,1445.72 499.705,1445.72 509.833,1445.72 519.961,1445.72 530.088,1445.72 540.216,1445.72 550.343,1445.72 560.471,1445.72 570.599,1445.72 580.726,1445.72 590.854,1445.72 600.982,1445.72 611.109,1445.72 621.237,1445.72 631.364,1445.72 641.492,1445.72 651.62,1445.72 661.747,1445.72 671.875,1445.72 682.003,1445.72 692.13,1445.72 702.258,1445.56 712.385,1439.12 722.513,1432.36 732.641,1428.62 742.768,1424.48 752.896,1422.64 763.023,1418.88 773.151,1416.55 783.279,1412.63 793.406,1410.9 803.534,1406.49 813.662,1405.18 823.789,1400.78 833.917,1398.31 844.044,1395.38 854.172,1392.46 864.3,1389.74 874.427,1385.19 884.555,1383.31 894.683,1379.31 904.81,1376.37 914.938,1373.37 925.065,1369.68 935.193,1365.83 945.321,1362.28 955.448,1359.51 965.576,1354.86 975.704,1352.4 985.831,1347.66 995.959,1344 1006.09,1339.87 1016.21,1336.74 1026.34,1332.73 1036.47,1327.98 1046.6,1324.53 1056.72,1319.6 1066.85,1315.84 1076.98,1311.17 1087.11,1307.1 1097.23,1302.8 1107.36,1297.15 1117.49,1294.99 1127.62,1287.22 1137.75,1284.94 1147.87,1278.74 1158,1273.91 1168.13,1270.42 1178.26,1264.57 1188.38,1259.83 1198.51,1253.62 1208.64,1248.53 1218.77,1241.9 1228.89,1239.27 1239.02,1235.07 1249.15,1223.57 1259.28,1224.7 1269.4,1213.15 1279.53,1210.29 1289.66,1203.57 1299.79,1198.38 1309.91,1192.84 1320.04,1188.41 1330.17,1177.62 1340.3,1173.74 1350.43,1169.51 1360.55,1160.23 1370.68,1154.3 1380.81,1150.13 1390.94,1141.1 1401.06,1135.37 1411.19,1127.37 1421.32,1120.95 1431.45,1118.26 1441.57,1124.9 1451.7,1132.47 1461.83,1131.24 1471.96,1133.55 1482.08,1134.23 1492.21,1128.36 1502.34,1134.03 1512.47,1128.14 1522.59,1127.62 1532.72,1122.4 1542.85,1120.29 1552.98,1118.79 1563.11,1111.09 1573.23,1108.79 1583.36,1103.09 1593.49,1099.66 1603.62,1091.59 1613.74,1083.91 1623.87,1079.67 1634,1071.83 1644.13,1060.3 1654.25,1053.57 1664.38,1043.61 1674.51,1035.58 1684.64,1023.5 1694.76,1006.63 1704.89,1005.32 1715.02,994.224 1725.15,979.77 1735.27,980.042 1745.4,953.325 1755.53,937.759 1765.66,936.496 1775.79,933.132 1785.91,916.042 1796.04,896.784 1806.17,877.671 1816.3,879.864 1826.42,847.915 1836.55,832.736 1846.68,806.562 1856.81,770.248 1866.93,736.662 1877.06,715.936 1887.19,714.925 1897.32,699.527 1907.44,707.881 1917.57,692.741 1927.7,691.086 1937.83,696.612 1947.95,685.185 1958.08,684.32 1968.21,672.481 1978.34,654.626 1988.47,689.758 1998.59,682.091 2008.72,673.338 2018.85,680.029 2028.98,689.064 2039.1,683.401 2049.23,685.149 2059.36,686.782 2069.49,697.145 2079.61,706.378 2089.74,716.836 2099.87,740.587 2110,733.335 2120.12,749.18 2130.25,742.53 2140.38,775.32 2150.51,787.808 2160.63,796.523 2170.76,818.966 2180.89,832.189 2191.02,859.95 2201.15,892.852 2211.27,913.953 2221.4,953.86 2231.53,976.759 2241.66,1033.25 2251.78,1073.51 2261.91,1134.22 2272.04,1232.95 2282.17,1397.14 2292.29,1445.72 "/>
<polyline clip-path="url(#clip952)" style="stroke:#c271d2; stroke-linecap:round; stroke-linejoin:round; stroke-width:4; stroke-opacity:1; fill:none" points="276.898,1445.72 287.025,1445.72 297.153,1445.72 307.281,1445.72 317.408,1445.72 327.536,1445.72 337.663,1445.72 347.791,1445.72 357.919,1445.72 368.046,1445.72 378.174,1445.72 388.302,1445.72 398.429,1445.72 408.557,1445.72 418.684,1445.72 428.812,1445.72 438.94,1445.72 449.067,1445.72 459.195,1445.72 469.323,1445.72 479.45,1445.72 489.578,1445.72 499.705,1445.72 509.833,1445.72 519.961,1445.72 530.088,1445.72 540.216,1445.72 550.343,1445.72 560.471,1445.72 570.599,1445.72 580.726,1445.72 590.854,1445.72 600.982,1445.72 611.109,1445.72 621.237,1445.72 631.364,1445.72 641.492,1445.72 651.62,1445.72 661.747,1445.72 671.875,1445.72 682.003,1445.72 692.13,1445.72 702.258,1445.72 712.385,1445.72 722.513,1445.72 732.641,1445.72 742.768,1445.72 752.896,1445.72 763.023,1445.72 773.151,1445.72 783.279,1445.72 793.406,1445.72 803.534,1445.72 813.662,1445.72 823.789,1445.72 833.917,1445.72 844.044,1445.72 854.172,1445.25 864.3,1432.41 874.427,1422.21 884.555,1414.59 894.683,1407.82 904.81,1401.33 914.938,1394.9 925.065,1390.31 935.193,1384.31 945.321,1377.64 955.448,1372.73 965.576,1367.44 975.704,1362.71 985.831,1356.39 995.959,1351.77 1006.09,1346.31 1016.21,1340.2 1026.34,1333.84 1036.47,1330.01 1046.6,1323.7 1056.72,1318.14 1066.85,1311.34 1076.98,1306.92 1087.11,1300.27 1097.23,1294.23 1107.36,1288.59 1117.49,1280.53 1127.62,1276.87 1137.75,1269.02 1147.87,1263.99 1158,1256.65 1168.13,1250.24 1178.26,1245.25 1188.38,1236.28 1198.51,1231.49 1208.64,1225.02 1218.77,1215.7 1228.89,1211.18 1239.02,1202.87 1249.15,1196.92 1259.28,1189.69 1269.4,1182.91 1279.53,1175.15 1289.66,1167.6 1299.79,1161.85 1309.91,1152.25 1320.04,1146.13 1330.17,1138.24 1340.3,1128.36 1350.43,1123.86 1360.55,1115.5 1370.68,1106.91 1380.81,1098.69 1390.94,1091.51 1401.06,1083.59 1411.19,1076.3 1421.32,1064.11 1431.45,1063.28 1441.57,1073.91 1451.7,1086.13 1461.83,1089.77 1471.96,1091.08 1482.08,1092.6 1492.21,1091.91 1502.34,1092.33 1512.47,1091.64 1522.59,1088.82 1532.72,1089.88 1542.85,1087.25 1552.98,1082.13 1563.11,1078.78 1573.23,1077.83 1583.36,1071.52 1593.49,1063.95 1603.62,1061.2 1613.74,1052.43 1623.87,1046.36 1634,1040.58 1644.13,1026.99 1654.25,1021.07 1664.38,1009.01 1674.51,999.233 1684.64,988.21 1694.76,976.89 1704.89,964.535 1715.02,950.577 1725.15,938.296 1735.27,914.585 1745.4,918.079 1755.53,897.237 1765.66,884.389 1775.79,868.96 1785.91,851.07 1796.04,838.655 1806.17,826.12 1816.3,804.43 1826.42,779.838 1836.55,761.125 1846.68,723.312 1856.81,683.173 1866.93,616.14 1877.06,618.322 1887.19,593.493 1897.32,607.668 1907.44,578.605 1917.57,604.645 1927.7,594.507 1937.83,581.137 1947.95,583.548 1958.08,594.493 1968.21,601.622 1978.34,592.296 1988.47,598.257 1998.59,598.133 2008.72,604.767 2018.85,615.992 2028.98,616.896 2039.1,619.875 2049.23,642.862 2059.36,673.682 2069.49,689.924 2079.61,702.96 2089.74,717.819 2099.87,737.558 2110,758.343 2120.12,779.979 2130.25,816.863 2140.38,846.692 2150.51,890.138 2160.63,924.799 2170.76,963.132 2180.89,1027.88 2191.02,1076.33 2201.15,1157.26 2211.27,1270.93 2221.4,1432.65 2231.53,1445.72 2241.66,1445.72 2251.78,1445.72 2261.91,1445.72 2272.04,1445.72 2282.17,1445.72 2292.29,1445.72 "/>
<path clip-path="url(#clip950)" d="M287.647 354.418 L982.04 354.418 L982.04 95.2176 L287.647 95.2176  Z" fill="#ffffff" fill-rule="evenodd" fill-opacity="1"/>
<polyline clip-path="url(#clip950)" style="stroke:#000000; stroke-linecap:round; stroke-linejoin:round; stroke-width:4; stroke-opacity:1; fill:none" points="287.647,354.418 982.04,354.418 982.04,95.2176 287.647,95.2176 287.647,354.418 "/>
<polyline clip-path="url(#clip950)" style="stroke:#009af9; stroke-linecap:round; stroke-linejoin:round; stroke-width:4; stroke-opacity:1; fill:none" points="311.383,147.058 453.805,147.058 "/>
<path clip-path="url(#clip950)" d="M484.648 129.778 L489.324 129.778 L489.324 161.93 Q489.324 168.18 486.94 171.004 Q484.579 173.828 479.324 173.828 L477.542 173.828 L477.542 169.893 L479 169.893 Q482.102 169.893 483.375 168.157 Q484.648 166.421 484.648 161.93 L484.648 129.778 Z" fill="#000000" fill-rule="evenodd" fill-opacity="1" /><path clip-path="url(#clip950)" d="M508.491 141.398 Q505.065 141.398 503.074 144.083 Q501.083 146.745 501.083 151.398 Q501.083 156.051 503.051 158.736 Q505.042 161.398 508.491 161.398 Q511.893 161.398 513.884 158.713 Q515.875 156.027 515.875 151.398 Q515.875 146.791 513.884 144.106 Q511.893 141.398 508.491 141.398 M508.491 137.787 Q514.046 137.787 517.217 141.398 Q520.389 145.009 520.389 151.398 Q520.389 157.764 517.217 161.398 Q514.046 165.009 508.491 165.009 Q502.912 165.009 499.741 161.398 Q496.592 157.764 496.592 151.398 Q496.592 145.009 499.741 141.398 Q502.912 137.787 508.491 137.787 Z" fill="#000000" fill-rule="evenodd" fill-opacity="1" /><path clip-path="url(#clip950)" d="M549 148.689 L549 164.338 L544.74 164.338 L544.74 148.828 Q544.74 145.148 543.305 143.319 Q541.87 141.49 539 141.49 Q535.551 141.49 533.56 143.69 Q531.569 145.889 531.569 149.685 L531.569 164.338 L527.287 164.338 L527.287 128.319 L531.569 128.319 L531.569 142.44 Q533.097 140.102 535.157 138.944 Q537.24 137.787 539.949 137.787 Q544.416 137.787 546.708 140.565 Q549 143.319 549 148.689 Z" fill="#000000" fill-rule="evenodd" fill-opacity="1" /><path clip-path="url(#clip950)" d="M569.277 151.305 Q564.115 151.305 562.125 152.486 Q560.134 153.666 560.134 156.514 Q560.134 158.782 561.615 160.125 Q563.12 161.444 565.689 161.444 Q569.231 161.444 571.361 158.944 Q573.513 156.421 573.513 152.254 L573.513 151.305 L569.277 151.305 M577.773 149.546 L577.773 164.338 L573.513 164.338 L573.513 160.402 Q572.055 162.763 569.879 163.898 Q567.703 165.009 564.555 165.009 Q560.574 165.009 558.213 162.787 Q555.875 160.541 555.875 156.791 Q555.875 152.416 558.791 150.194 Q561.731 147.972 567.541 147.972 L573.513 147.972 L573.513 147.555 Q573.513 144.615 571.569 143.018 Q569.648 141.398 566.152 141.398 Q563.93 141.398 561.824 141.93 Q559.717 142.463 557.773 143.527 L557.773 139.592 Q560.111 138.69 562.31 138.25 Q564.509 137.787 566.592 137.787 Q572.217 137.787 574.995 140.703 Q577.773 143.62 577.773 149.546 Z" fill="#000000" fill-rule="evenodd" fill-opacity="1" /><path clip-path="url(#clip950)" d="M608.097 148.689 L608.097 164.338 L603.837 164.338 L603.837 148.828 Q603.837 145.148 602.402 143.319 Q600.967 141.49 598.097 141.49 Q594.648 141.49 592.657 143.69 Q590.666 145.889 590.666 149.685 L590.666 164.338 L586.384 164.338 L586.384 138.412 L590.666 138.412 L590.666 142.44 Q592.194 140.102 594.254 138.944 Q596.337 137.787 599.046 137.787 Q603.513 137.787 605.805 140.565 Q608.097 143.319 608.097 148.689 Z" fill="#000000" fill-rule="evenodd" fill-opacity="1" /><path clip-path="url(#clip950)" d="M638.143 148.689 L638.143 164.338 L633.883 164.338 L633.883 148.828 Q633.883 145.148 632.448 143.319 Q631.013 141.49 628.143 141.49 Q624.694 141.49 622.703 143.69 Q620.712 145.889 620.712 149.685 L620.712 164.338 L616.43 164.338 L616.43 138.412 L620.712 138.412 L620.712 142.44 Q622.24 140.102 624.3 138.944 Q626.383 137.787 629.092 137.787 Q633.559 137.787 635.851 140.565 Q638.143 143.319 638.143 148.689 Z" fill="#000000" fill-rule="evenodd" fill-opacity="1" /><path clip-path="url(#clip950)" d="M663.166 139.176 L663.166 143.203 Q661.36 142.277 659.416 141.815 Q657.471 141.352 655.388 141.352 Q652.217 141.352 650.619 142.324 Q649.045 143.296 649.045 145.24 Q649.045 146.722 650.18 147.578 Q651.314 148.412 654.74 149.176 L656.198 149.5 Q660.735 150.472 662.633 152.254 Q664.555 154.014 664.555 157.185 Q664.555 160.796 661.684 162.902 Q658.837 165.009 653.837 165.009 Q651.754 165.009 649.485 164.592 Q647.24 164.199 644.74 163.388 L644.74 158.99 Q647.101 160.217 649.393 160.842 Q651.684 161.444 653.93 161.444 Q656.939 161.444 658.559 160.426 Q660.18 159.384 660.18 157.509 Q660.18 155.773 658.999 154.847 Q657.842 153.921 653.883 153.064 L652.402 152.717 Q648.444 151.884 646.684 150.171 Q644.925 148.435 644.925 145.426 Q644.925 141.768 647.518 139.778 Q650.11 137.787 654.879 137.787 Q657.24 137.787 659.323 138.134 Q661.406 138.481 663.166 139.176 Z" fill="#000000" fill-rule="evenodd" fill-opacity="1" /><path clip-path="url(#clip950)" d="M693.513 150.31 L693.513 152.393 L673.929 152.393 Q674.207 156.791 676.568 159.106 Q678.953 161.398 683.189 161.398 Q685.642 161.398 687.934 160.796 Q690.249 160.194 692.517 158.99 L692.517 163.018 Q690.226 163.99 687.818 164.5 Q685.411 165.009 682.934 165.009 Q676.73 165.009 673.096 161.398 Q669.485 157.787 669.485 151.629 Q669.485 145.264 672.911 141.537 Q676.36 137.787 682.193 137.787 Q687.425 137.787 690.457 141.166 Q693.513 144.523 693.513 150.31 M689.253 149.06 Q689.207 145.565 687.286 143.481 Q685.388 141.398 682.24 141.398 Q678.675 141.398 676.522 143.412 Q674.392 145.426 674.068 149.083 L689.253 149.06 Z" fill="#000000" fill-rule="evenodd" fill-opacity="1" /><path clip-path="url(#clip950)" d="M722.054 148.689 L722.054 164.338 L717.795 164.338 L717.795 148.828 Q717.795 145.148 716.36 143.319 Q714.925 141.49 712.054 141.49 Q708.605 141.49 706.615 143.69 Q704.624 145.889 704.624 149.685 L704.624 164.338 L700.341 164.338 L700.341 138.412 L704.624 138.412 L704.624 142.44 Q706.152 140.102 708.212 138.944 Q710.295 137.787 713.003 137.787 Q717.471 137.787 719.763 140.565 Q722.054 143.319 722.054 148.689 Z" fill="#000000" fill-rule="evenodd" fill-opacity="1" /><path clip-path="url(#clip950)" d="M730.156 128.319 L739.971 128.319 L739.971 131.629 L734.415 131.629 L734.415 167.277 L739.971 167.277 L739.971 170.588 L730.156 170.588 L730.156 128.319 Z" fill="#000000" fill-rule="evenodd" fill-opacity="1" /><path clip-path="url(#clip950)" d="M753.258 131.051 L753.258 138.412 L762.031 138.412 L762.031 141.722 L753.258 141.722 L753.258 155.796 Q753.258 158.967 754.114 159.87 Q754.994 160.773 757.656 160.773 L762.031 160.773 L762.031 164.338 L757.656 164.338 Q752.725 164.338 750.85 162.509 Q748.975 160.657 748.975 155.796 L748.975 141.722 L745.85 141.722 L745.85 138.412 L748.975 138.412 L748.975 131.051 L753.258 131.051 Z" fill="#000000" fill-rule="evenodd" fill-opacity="1" /><path clip-path="url(#clip950)" d="M789.184 148.689 L789.184 164.338 L784.924 164.338 L784.924 148.828 Q784.924 145.148 783.489 143.319 Q782.054 141.49 779.184 141.49 Q775.735 141.49 773.744 143.69 Q771.753 145.889 771.753 149.685 L771.753 164.338 L767.471 164.338 L767.471 128.319 L771.753 128.319 L771.753 142.44 Q773.281 140.102 775.341 138.944 Q777.424 137.787 780.133 137.787 Q784.6 137.787 786.892 140.565 Q789.184 143.319 789.184 148.689 Z" fill="#000000" fill-rule="evenodd" fill-opacity="1" /><path clip-path="url(#clip950)" d="M797.679 138.412 L801.938 138.412 L801.938 164.338 L797.679 164.338 L797.679 138.412 M797.679 128.319 L801.938 128.319 L801.938 133.713 L797.679 133.713 L797.679 128.319 Z" fill="#000000" fill-rule="evenodd" fill-opacity="1" /><path clip-path="url(#clip950)" d="M829.507 139.407 L829.507 143.389 Q827.702 142.393 825.873 141.907 Q824.068 141.398 822.216 141.398 Q818.072 141.398 815.781 144.037 Q813.489 146.652 813.489 151.398 Q813.489 156.143 815.781 158.782 Q818.072 161.398 822.216 161.398 Q824.068 161.398 825.873 160.912 Q827.702 160.402 829.507 159.407 L829.507 163.342 Q827.725 164.176 825.804 164.592 Q823.906 165.009 821.753 165.009 Q815.896 165.009 812.447 161.328 Q808.998 157.648 808.998 151.398 Q808.998 145.055 812.47 141.421 Q815.966 137.787 822.031 137.787 Q823.998 137.787 825.873 138.203 Q827.748 138.597 829.507 139.407 Z" fill="#000000" fill-rule="evenodd" fill-opacity="1" /><path clip-path="url(#clip950)" d="M836.753 128.319 L841.035 128.319 L841.035 149.592 L853.743 138.412 L859.183 138.412 L845.433 150.541 L859.762 164.338 L854.206 164.338 L841.035 151.676 L841.035 164.338 L836.753 164.338 L836.753 128.319 Z" fill="#000000" fill-rule="evenodd" fill-opacity="1" /><path clip-path="url(#clip950)" d="M874.322 128.319 L874.322 170.588 L864.507 170.588 L864.507 167.277 L870.04 167.277 L870.04 131.629 L864.507 131.629 L864.507 128.319 L874.322 128.319 Z" fill="#000000" fill-rule="evenodd" fill-opacity="1" /><polyline clip-path="url(#clip950)" style="stroke:#e26f46; stroke-linecap:round; stroke-linejoin:round; stroke-width:4; stroke-opacity:1; fill:none" points="311.383,198.898 453.805,198.898 "/>
<path clip-path="url(#clip950)" d="M499.787 182.752 L499.787 187.312 Q497.125 186.039 494.764 185.414 Q492.403 184.789 490.204 184.789 Q486.384 184.789 484.301 186.27 Q482.241 187.752 482.241 190.483 Q482.241 192.775 483.606 193.955 Q484.995 195.113 488.838 195.83 L491.662 196.409 Q496.893 197.405 499.37 199.928 Q501.87 202.428 501.87 206.641 Q501.87 211.664 498.491 214.256 Q495.134 216.849 488.63 216.849 Q486.176 216.849 483.398 216.293 Q480.643 215.738 477.681 214.65 L477.681 209.835 Q480.528 211.432 483.259 212.242 Q485.991 213.053 488.63 213.053 Q492.634 213.053 494.81 211.479 Q496.986 209.904 496.986 206.988 Q496.986 204.442 495.412 203.006 Q493.861 201.571 490.296 200.854 L487.449 200.298 Q482.218 199.256 479.88 197.034 Q477.542 194.812 477.542 190.854 Q477.542 186.27 480.759 183.631 Q484 180.993 489.671 180.993 Q492.102 180.993 494.625 181.432 Q497.148 181.872 499.787 182.752 Z" fill="#000000" fill-rule="evenodd" fill-opacity="1" /><path clip-path="url(#clip950)" d="M527.634 191.247 L527.634 195.229 Q525.828 194.233 524 193.747 Q522.194 193.238 520.342 193.238 Q516.199 193.238 513.907 195.877 Q511.616 198.492 511.616 203.238 Q511.616 207.983 513.907 210.622 Q516.199 213.238 520.342 213.238 Q522.194 213.238 524 212.752 Q525.828 212.242 527.634 211.247 L527.634 215.182 Q525.852 216.016 523.93 216.432 Q522.032 216.849 519.879 216.849 Q514.023 216.849 510.574 213.168 Q507.125 209.488 507.125 203.238 Q507.125 196.895 510.597 193.261 Q514.092 189.627 520.157 189.627 Q522.125 189.627 524 190.043 Q525.875 190.437 527.634 191.247 Z" fill="#000000" fill-rule="evenodd" fill-opacity="1" /><path clip-path="url(#clip950)" d="M556.592 200.529 L556.592 216.178 L552.333 216.178 L552.333 200.668 Q552.333 196.988 550.898 195.159 Q549.463 193.33 546.592 193.33 Q543.143 193.33 541.152 195.53 Q539.162 197.729 539.162 201.525 L539.162 216.178 L534.879 216.178 L534.879 180.159 L539.162 180.159 L539.162 194.28 Q540.689 191.942 542.75 190.784 Q544.833 189.627 547.541 189.627 Q552.009 189.627 554.301 192.405 Q556.592 195.159 556.592 200.529 Z" fill="#000000" fill-rule="evenodd" fill-opacity="1" /><path clip-path="url(#clip950)" d="M562.611 190.252 L566.87 190.252 L572.194 210.483 L577.495 190.252 L582.518 190.252 L587.842 210.483 L593.143 190.252 L597.402 190.252 L590.62 216.178 L585.597 216.178 L580.018 194.928 L574.416 216.178 L569.393 216.178 L562.611 190.252 Z" fill="#000000" fill-rule="evenodd" fill-opacity="1" /><path clip-path="url(#clip950)" d="M615.643 203.145 Q610.481 203.145 608.49 204.326 Q606.499 205.506 606.499 208.354 Q606.499 210.622 607.981 211.965 Q609.485 213.284 612.055 213.284 Q615.596 213.284 617.726 210.784 Q619.879 208.261 619.879 204.094 L619.879 203.145 L615.643 203.145 M624.138 201.386 L624.138 216.178 L619.879 216.178 L619.879 212.242 Q618.421 214.603 616.245 215.738 Q614.069 216.849 610.921 216.849 Q606.939 216.849 604.578 214.627 Q602.24 212.381 602.24 208.631 Q602.24 204.256 605.157 202.034 Q608.097 199.812 613.907 199.812 L619.879 199.812 L619.879 199.395 Q619.879 196.455 617.934 194.858 Q616.013 193.238 612.518 193.238 Q610.296 193.238 608.189 193.77 Q606.083 194.303 604.138 195.367 L604.138 191.432 Q606.476 190.53 608.675 190.09 Q610.874 189.627 612.958 189.627 Q618.583 189.627 621.36 192.543 Q624.138 195.46 624.138 201.386 Z" fill="#000000" fill-rule="evenodd" fill-opacity="1" /><path clip-path="url(#clip950)" d="M647.934 194.233 Q647.217 193.817 646.36 193.631 Q645.527 193.423 644.508 193.423 Q640.897 193.423 638.953 195.784 Q637.032 198.122 637.032 202.52 L637.032 216.178 L632.749 216.178 L632.749 190.252 L637.032 190.252 L637.032 194.28 Q638.374 191.918 640.527 190.784 Q642.68 189.627 645.758 189.627 Q646.198 189.627 646.731 189.696 Q647.263 189.743 647.911 189.858 L647.934 194.233 Z" fill="#000000" fill-rule="evenodd" fill-opacity="1" /><path clip-path="url(#clip950)" d="M650.55 190.252 L670.781 190.252 L670.781 194.141 L654.763 212.775 L670.781 212.775 L670.781 216.178 L649.971 216.178 L649.971 212.289 L665.99 193.655 L650.55 193.655 L650.55 190.252 Z" fill="#000000" fill-rule="evenodd" fill-opacity="1" /><path clip-path="url(#clip950)" d="M693.814 191.016 L693.814 195.043 Q692.008 194.117 690.064 193.655 Q688.119 193.192 686.036 193.192 Q682.865 193.192 681.267 194.164 Q679.693 195.136 679.693 197.08 Q679.693 198.562 680.828 199.418 Q681.962 200.252 685.388 201.016 L686.846 201.34 Q691.383 202.312 693.281 204.094 Q695.203 205.854 695.203 209.025 Q695.203 212.636 692.332 214.742 Q689.485 216.849 684.485 216.849 Q682.402 216.849 680.133 216.432 Q677.888 216.039 675.388 215.228 L675.388 210.83 Q677.749 212.057 680.041 212.682 Q682.332 213.284 684.578 213.284 Q687.587 213.284 689.207 212.266 Q690.828 211.224 690.828 209.349 Q690.828 207.613 689.647 206.687 Q688.49 205.761 684.531 204.904 L683.05 204.557 Q679.092 203.724 677.332 202.011 Q675.573 200.275 675.573 197.266 Q675.573 193.608 678.166 191.618 Q680.758 189.627 685.527 189.627 Q687.888 189.627 689.971 189.974 Q692.054 190.321 693.814 191.016 Z" fill="#000000" fill-rule="evenodd" fill-opacity="1" /><path clip-path="url(#clip950)" d="M720.642 191.247 L720.642 195.229 Q718.837 194.233 717.008 193.747 Q715.202 193.238 713.351 193.238 Q709.207 193.238 706.915 195.877 Q704.624 198.492 704.624 203.238 Q704.624 207.983 706.915 210.622 Q709.207 213.238 713.351 213.238 Q715.202 213.238 717.008 212.752 Q718.837 212.242 720.642 211.247 L720.642 215.182 Q718.86 216.016 716.939 216.432 Q715.04 216.849 712.888 216.849 Q707.031 216.849 703.582 213.168 Q700.133 209.488 700.133 203.238 Q700.133 196.895 703.605 193.261 Q707.101 189.627 713.165 189.627 Q715.133 189.627 717.008 190.043 Q718.883 190.437 720.642 191.247 Z" fill="#000000" fill-rule="evenodd" fill-opacity="1" /><path clip-path="url(#clip950)" d="M749.6 200.529 L749.6 216.178 L745.341 216.178 L745.341 200.668 Q745.341 196.988 743.906 195.159 Q742.471 193.33 739.6 193.33 Q736.151 193.33 734.161 195.53 Q732.17 197.729 732.17 201.525 L732.17 216.178 L727.888 216.178 L727.888 180.159 L732.17 180.159 L732.17 194.28 Q733.698 191.942 735.758 190.784 Q737.841 189.627 740.55 189.627 Q745.017 189.627 747.309 192.405 Q749.6 195.159 749.6 200.529 Z" fill="#000000" fill-rule="evenodd" fill-opacity="1" /><path clip-path="url(#clip950)" d="M758.096 190.252 L762.355 190.252 L762.355 216.178 L758.096 216.178 L758.096 190.252 M758.096 180.159 L762.355 180.159 L762.355 185.553 L758.096 185.553 L758.096 180.159 Z" fill="#000000" fill-rule="evenodd" fill-opacity="1" /><path clip-path="url(#clip950)" d="M771.267 180.159 L775.526 180.159 L775.526 216.178 L771.267 216.178 L771.267 180.159 Z" fill="#000000" fill-rule="evenodd" fill-opacity="1" /><path clip-path="url(#clip950)" d="M801.498 194.187 L801.498 180.159 L805.757 180.159 L805.757 216.178 L801.498 216.178 L801.498 212.289 Q800.156 214.603 798.095 215.738 Q796.058 216.849 793.188 216.849 Q788.489 216.849 785.526 213.099 Q782.586 209.349 782.586 203.238 Q782.586 197.127 785.526 193.377 Q788.489 189.627 793.188 189.627 Q796.058 189.627 798.095 190.761 Q800.156 191.872 801.498 194.187 M786.984 203.238 Q786.984 207.937 788.906 210.622 Q790.85 213.284 794.23 213.284 Q797.609 213.284 799.554 210.622 Q801.498 207.937 801.498 203.238 Q801.498 198.539 799.554 195.877 Q797.609 193.192 794.23 193.192 Q790.85 193.192 788.906 195.877 Q786.984 198.539 786.984 203.238 Z" fill="#000000" fill-rule="evenodd" fill-opacity="1" /><path clip-path="url(#clip950)" d="M814.137 180.159 L823.952 180.159 L823.952 183.469 L818.396 183.469 L818.396 219.117 L823.952 219.117 L823.952 222.428 L814.137 222.428 L814.137 180.159 Z" fill="#000000" fill-rule="evenodd" fill-opacity="1" /><path clip-path="url(#clip950)" d="M837.239 182.891 L837.239 190.252 L846.012 190.252 L846.012 193.562 L837.239 193.562 L837.239 207.636 Q837.239 210.807 838.095 211.71 Q838.975 212.613 841.637 212.613 L846.012 212.613 L846.012 216.178 L841.637 216.178 Q836.706 216.178 834.831 214.349 Q832.956 212.497 832.956 207.636 L832.956 193.562 L829.831 193.562 L829.831 190.252 L832.956 190.252 L832.956 182.891 L837.239 182.891 Z" fill="#000000" fill-rule="evenodd" fill-opacity="1" /><path clip-path="url(#clip950)" d="M873.165 200.529 L873.165 216.178 L868.905 216.178 L868.905 200.668 Q868.905 196.988 867.47 195.159 Q866.035 193.33 863.165 193.33 Q859.716 193.33 857.725 195.53 Q855.734 197.729 855.734 201.525 L855.734 216.178 L851.452 216.178 L851.452 180.159 L855.734 180.159 L855.734 194.28 Q857.262 191.942 859.322 190.784 Q861.405 189.627 864.114 189.627 Q868.581 189.627 870.873 192.405 Q873.165 195.159 873.165 200.529 Z" fill="#000000" fill-rule="evenodd" fill-opacity="1" /><path clip-path="url(#clip950)" d="M881.66 190.252 L885.919 190.252 L885.919 216.178 L881.66 216.178 L881.66 190.252 M881.66 180.159 L885.919 180.159 L885.919 185.553 L881.66 185.553 L881.66 180.159 Z" fill="#000000" fill-rule="evenodd" fill-opacity="1" /><path clip-path="url(#clip950)" d="M913.488 191.247 L913.488 195.229 Q911.683 194.233 909.854 193.747 Q908.049 193.238 906.197 193.238 Q902.053 193.238 899.762 195.877 Q897.47 198.492 897.47 203.238 Q897.47 207.983 899.762 210.622 Q902.053 213.238 906.197 213.238 Q908.049 213.238 909.854 212.752 Q911.683 212.242 913.488 211.247 L913.488 215.182 Q911.706 216.016 909.785 216.432 Q907.887 216.849 905.734 216.849 Q899.877 216.849 896.428 213.168 Q892.979 209.488 892.979 203.238 Q892.979 196.895 896.451 193.261 Q899.947 189.627 906.012 189.627 Q907.979 189.627 909.854 190.043 Q911.729 190.437 913.488 191.247 Z" fill="#000000" fill-rule="evenodd" fill-opacity="1" /><path clip-path="url(#clip950)" d="M920.734 180.159 L925.016 180.159 L925.016 201.432 L937.724 190.252 L943.164 190.252 L929.414 202.381 L943.743 216.178 L938.187 216.178 L925.016 203.516 L925.016 216.178 L920.734 216.178 L920.734 180.159 Z" fill="#000000" fill-rule="evenodd" fill-opacity="1" /><path clip-path="url(#clip950)" d="M958.303 180.159 L958.303 222.428 L948.488 222.428 L948.488 219.117 L954.021 219.117 L954.021 183.469 L948.488 183.469 L948.488 180.159 L958.303 180.159 Z" fill="#000000" fill-rule="evenodd" fill-opacity="1" /><polyline clip-path="url(#clip950)" style="stroke:#3da44d; stroke-linecap:round; stroke-linejoin:round; stroke-width:4; stroke-opacity:1; fill:none" points="311.383,250.738 453.805,250.738 "/>
<path clip-path="url(#clip950)" d="M484.648 233.458 L489.324 233.458 L489.324 265.61 Q489.324 271.86 486.94 274.684 Q484.579 277.508 479.324 277.508 L477.542 277.508 L477.542 273.573 L479 273.573 Q482.102 273.573 483.375 271.837 Q484.648 270.101 484.648 265.61 L484.648 233.458 Z" fill="#000000" fill-rule="evenodd" fill-opacity="1" /><path clip-path="url(#clip950)" d="M508.491 245.078 Q505.065 245.078 503.074 247.763 Q501.083 250.425 501.083 255.078 Q501.083 259.731 503.051 262.416 Q505.042 265.078 508.491 265.078 Q511.893 265.078 513.884 262.393 Q515.875 259.707 515.875 255.078 Q515.875 250.471 513.884 247.786 Q511.893 245.078 508.491 245.078 M508.491 241.467 Q514.046 241.467 517.217 245.078 Q520.389 248.689 520.389 255.078 Q520.389 261.444 517.217 265.078 Q514.046 268.689 508.491 268.689 Q502.912 268.689 499.741 265.078 Q496.592 261.444 496.592 255.078 Q496.592 248.689 499.741 245.078 Q502.912 241.467 508.491 241.467 Z" fill="#000000" fill-rule="evenodd" fill-opacity="1" /><path clip-path="url(#clip950)" d="M549 252.369 L549 268.018 L544.74 268.018 L544.74 252.508 Q544.74 248.828 543.305 246.999 Q541.87 245.17 539 245.17 Q535.551 245.17 533.56 247.37 Q531.569 249.569 531.569 253.365 L531.569 268.018 L527.287 268.018 L527.287 231.999 L531.569 231.999 L531.569 246.12 Q533.097 243.782 535.157 242.624 Q537.24 241.467 539.949 241.467 Q544.416 241.467 546.708 244.245 Q549 246.999 549 252.369 Z" fill="#000000" fill-rule="evenodd" fill-opacity="1" /><path clip-path="url(#clip950)" d="M569.277 254.985 Q564.115 254.985 562.125 256.166 Q560.134 257.346 560.134 260.194 Q560.134 262.462 561.615 263.805 Q563.12 265.124 565.689 265.124 Q569.231 265.124 571.361 262.624 Q573.513 260.101 573.513 255.934 L573.513 254.985 L569.277 254.985 M577.773 253.226 L577.773 268.018 L573.513 268.018 L573.513 264.082 Q572.055 266.443 569.879 267.578 Q567.703 268.689 564.555 268.689 Q560.574 268.689 558.213 266.467 Q555.875 264.221 555.875 260.471 Q555.875 256.096 558.791 253.874 Q561.731 251.652 567.541 251.652 L573.513 251.652 L573.513 251.235 Q573.513 248.295 571.569 246.698 Q569.648 245.078 566.152 245.078 Q563.93 245.078 561.824 245.61 Q559.717 246.143 557.773 247.207 L557.773 243.272 Q560.111 242.37 562.31 241.93 Q564.509 241.467 566.592 241.467 Q572.217 241.467 574.995 244.383 Q577.773 247.3 577.773 253.226 Z" fill="#000000" fill-rule="evenodd" fill-opacity="1" /><path clip-path="url(#clip950)" d="M608.097 252.369 L608.097 268.018 L603.837 268.018 L603.837 252.508 Q603.837 248.828 602.402 246.999 Q600.967 245.17 598.097 245.17 Q594.648 245.17 592.657 247.37 Q590.666 249.569 590.666 253.365 L590.666 268.018 L586.384 268.018 L586.384 242.092 L590.666 242.092 L590.666 246.12 Q592.194 243.782 594.254 242.624 Q596.337 241.467 599.046 241.467 Q603.513 241.467 605.805 244.245 Q608.097 246.999 608.097 252.369 Z" fill="#000000" fill-rule="evenodd" fill-opacity="1" /><path clip-path="url(#clip950)" d="M638.143 252.369 L638.143 268.018 L633.883 268.018 L633.883 252.508 Q633.883 248.828 632.448 246.999 Q631.013 245.17 628.143 245.17 Q624.694 245.17 622.703 247.37 Q620.712 249.569 620.712 253.365 L620.712 268.018 L616.43 268.018 L616.43 242.092 L620.712 242.092 L620.712 246.12 Q622.24 243.782 624.3 242.624 Q626.383 241.467 629.092 241.467 Q633.559 241.467 635.851 244.245 Q638.143 246.999 638.143 252.369 Z" fill="#000000" fill-rule="evenodd" fill-opacity="1" /><path clip-path="url(#clip950)" d="M663.166 242.856 L663.166 246.883 Q661.36 245.957 659.416 245.495 Q657.471 245.032 655.388 245.032 Q652.217 245.032 650.619 246.004 Q649.045 246.976 649.045 248.92 Q649.045 250.402 650.18 251.258 Q651.314 252.092 654.74 252.856 L656.198 253.18 Q660.735 254.152 662.633 255.934 Q664.555 257.694 664.555 260.865 Q664.555 264.476 661.684 266.582 Q658.837 268.689 653.837 268.689 Q651.754 268.689 649.485 268.272 Q647.24 267.879 644.74 267.068 L644.74 262.67 Q647.101 263.897 649.393 264.522 Q651.684 265.124 653.93 265.124 Q656.939 265.124 658.559 264.106 Q660.18 263.064 660.18 261.189 Q660.18 259.453 658.999 258.527 Q657.842 257.601 653.883 256.744 L652.402 256.397 Q648.444 255.564 646.684 253.851 Q644.925 252.115 644.925 249.106 Q644.925 245.448 647.518 243.458 Q650.11 241.467 654.879 241.467 Q657.24 241.467 659.323 241.814 Q661.406 242.161 663.166 242.856 Z" fill="#000000" fill-rule="evenodd" fill-opacity="1" /><path clip-path="url(#clip950)" d="M693.513 253.99 L693.513 256.073 L673.929 256.073 Q674.207 260.471 676.568 262.786 Q678.953 265.078 683.189 265.078 Q685.642 265.078 687.934 264.476 Q690.249 263.874 692.517 262.67 L692.517 266.698 Q690.226 267.67 687.818 268.18 Q685.411 268.689 682.934 268.689 Q676.73 268.689 673.096 265.078 Q669.485 261.467 669.485 255.309 Q669.485 248.944 672.911 245.217 Q676.36 241.467 682.193 241.467 Q687.425 241.467 690.457 244.846 Q693.513 248.203 693.513 253.99 M689.253 252.74 Q689.207 249.245 687.286 247.161 Q685.388 245.078 682.24 245.078 Q678.675 245.078 676.522 247.092 Q674.392 249.106 674.068 252.763 L689.253 252.74 Z" fill="#000000" fill-rule="evenodd" fill-opacity="1" /><path clip-path="url(#clip950)" d="M722.054 252.369 L722.054 268.018 L717.795 268.018 L717.795 252.508 Q717.795 248.828 716.36 246.999 Q714.925 245.17 712.054 245.17 Q708.605 245.17 706.615 247.37 Q704.624 249.569 704.624 253.365 L704.624 268.018 L700.341 268.018 L700.341 242.092 L704.624 242.092 L704.624 246.12 Q706.152 243.782 708.212 242.624 Q710.295 241.467 713.003 241.467 Q717.471 241.467 719.763 244.245 Q722.054 246.999 722.054 252.369 Z" fill="#000000" fill-rule="evenodd" fill-opacity="1" /><path clip-path="url(#clip950)" d="M730.156 231.999 L739.971 231.999 L739.971 235.309 L734.415 235.309 L734.415 270.957 L739.971 270.957 L739.971 274.268 L730.156 274.268 L730.156 231.999 Z" fill="#000000" fill-rule="evenodd" fill-opacity="1" /><path clip-path="url(#clip950)" d="M753.258 234.731 L753.258 242.092 L762.031 242.092 L762.031 245.402 L753.258 245.402 L753.258 259.476 Q753.258 262.647 754.114 263.55 Q754.994 264.453 757.656 264.453 L762.031 264.453 L762.031 268.018 L757.656 268.018 Q752.725 268.018 750.85 266.189 Q748.975 264.337 748.975 259.476 L748.975 245.402 L745.85 245.402 L745.85 242.092 L748.975 242.092 L748.975 234.731 L753.258 234.731 Z" fill="#000000" fill-rule="evenodd" fill-opacity="1" /><path clip-path="url(#clip950)" d="M789.184 252.369 L789.184 268.018 L784.924 268.018 L784.924 252.508 Q784.924 248.828 783.489 246.999 Q782.054 245.17 779.184 245.17 Q775.735 245.17 773.744 247.37 Q771.753 249.569 771.753 253.365 L771.753 268.018 L767.471 268.018 L767.471 231.999 L771.753 231.999 L771.753 246.12 Q773.281 243.782 775.341 242.624 Q777.424 241.467 780.133 241.467 Q784.6 241.467 786.892 244.245 Q789.184 246.999 789.184 252.369 Z" fill="#000000" fill-rule="evenodd" fill-opacity="1" /><path clip-path="url(#clip950)" d="M797.679 242.092 L801.938 242.092 L801.938 268.018 L797.679 268.018 L797.679 242.092 M797.679 231.999 L801.938 231.999 L801.938 237.393 L797.679 237.393 L797.679 231.999 Z" fill="#000000" fill-rule="evenodd" fill-opacity="1" /><path clip-path="url(#clip950)" d="M832.401 252.369 L832.401 268.018 L828.142 268.018 L828.142 252.508 Q828.142 248.828 826.706 246.999 Q825.271 245.17 822.401 245.17 Q818.952 245.17 816.961 247.37 Q814.97 249.569 814.97 253.365 L814.97 268.018 L810.688 268.018 L810.688 242.092 L814.97 242.092 L814.97 246.12 Q816.498 243.782 818.558 242.624 Q820.642 241.467 823.35 241.467 Q827.818 241.467 830.109 244.245 Q832.401 246.999 832.401 252.369 Z" fill="#000000" fill-rule="evenodd" fill-opacity="1" /><path clip-path="url(#clip950)" d="M850.85 231.999 L850.85 274.268 L841.035 274.268 L841.035 270.957 L846.567 270.957 L846.567 235.309 L841.035 235.309 L841.035 231.999 L850.85 231.999 Z" fill="#000000" fill-rule="evenodd" fill-opacity="1" /><polyline clip-path="url(#clip950)" style="stroke:#c271d2; stroke-linecap:round; stroke-linejoin:round; stroke-width:4; stroke-opacity:1; fill:none" points="311.383,302.578 453.805,302.578 "/>
<path clip-path="url(#clip950)" d="M499.787 286.432 L499.787 290.992 Q497.125 289.719 494.764 289.094 Q492.403 288.469 490.204 288.469 Q486.384 288.469 484.301 289.95 Q482.241 291.432 482.241 294.163 Q482.241 296.455 483.606 297.635 Q484.995 298.793 488.838 299.51 L491.662 300.089 Q496.893 301.085 499.37 303.608 Q501.87 306.108 501.87 310.321 Q501.87 315.344 498.491 317.936 Q495.134 320.529 488.63 320.529 Q486.176 320.529 483.398 319.973 Q480.643 319.418 477.681 318.33 L477.681 313.515 Q480.528 315.112 483.259 315.922 Q485.991 316.733 488.63 316.733 Q492.634 316.733 494.81 315.159 Q496.986 313.584 496.986 310.668 Q496.986 308.122 495.412 306.686 Q493.861 305.251 490.296 304.534 L487.449 303.978 Q482.218 302.936 479.88 300.714 Q477.542 298.492 477.542 294.534 Q477.542 289.95 480.759 287.311 Q484 284.673 489.671 284.673 Q492.102 284.673 494.625 285.112 Q497.148 285.552 499.787 286.432 Z" fill="#000000" fill-rule="evenodd" fill-opacity="1" /><path clip-path="url(#clip950)" d="M527.634 294.927 L527.634 298.909 Q525.828 297.913 524 297.427 Q522.194 296.918 520.342 296.918 Q516.199 296.918 513.907 299.557 Q511.616 302.172 511.616 306.918 Q511.616 311.663 513.907 314.302 Q516.199 316.918 520.342 316.918 Q522.194 316.918 524 316.432 Q525.828 315.922 527.634 314.927 L527.634 318.862 Q525.852 319.696 523.93 320.112 Q522.032 320.529 519.879 320.529 Q514.023 320.529 510.574 316.848 Q507.125 313.168 507.125 306.918 Q507.125 300.575 510.597 296.941 Q514.092 293.307 520.157 293.307 Q522.125 293.307 524 293.723 Q525.875 294.117 527.634 294.927 Z" fill="#000000" fill-rule="evenodd" fill-opacity="1" /><path clip-path="url(#clip950)" d="M556.592 304.209 L556.592 319.858 L552.333 319.858 L552.333 304.348 Q552.333 300.668 550.898 298.839 Q549.463 297.01 546.592 297.01 Q543.143 297.01 541.152 299.21 Q539.162 301.409 539.162 305.205 L539.162 319.858 L534.879 319.858 L534.879 283.839 L539.162 283.839 L539.162 297.96 Q540.689 295.622 542.75 294.464 Q544.833 293.307 547.541 293.307 Q552.009 293.307 554.301 296.085 Q556.592 298.839 556.592 304.209 Z" fill="#000000" fill-rule="evenodd" fill-opacity="1" /><path clip-path="url(#clip950)" d="M562.611 293.932 L566.87 293.932 L572.194 314.163 L577.495 293.932 L582.518 293.932 L587.842 314.163 L593.143 293.932 L597.402 293.932 L590.62 319.858 L585.597 319.858 L580.018 298.608 L574.416 319.858 L569.393 319.858 L562.611 293.932 Z" fill="#000000" fill-rule="evenodd" fill-opacity="1" /><path clip-path="url(#clip950)" d="M615.643 306.825 Q610.481 306.825 608.49 308.006 Q606.499 309.186 606.499 312.034 Q606.499 314.302 607.981 315.645 Q609.485 316.964 612.055 316.964 Q615.596 316.964 617.726 314.464 Q619.879 311.941 619.879 307.774 L619.879 306.825 L615.643 306.825 M624.138 305.066 L624.138 319.858 L619.879 319.858 L619.879 315.922 Q618.421 318.283 616.245 319.418 Q614.069 320.529 610.921 320.529 Q606.939 320.529 604.578 318.307 Q602.24 316.061 602.24 312.311 Q602.24 307.936 605.157 305.714 Q608.097 303.492 613.907 303.492 L619.879 303.492 L619.879 303.075 Q619.879 300.135 617.934 298.538 Q616.013 296.918 612.518 296.918 Q610.296 296.918 608.189 297.45 Q606.083 297.983 604.138 299.047 L604.138 295.112 Q606.476 294.21 608.675 293.77 Q610.874 293.307 612.958 293.307 Q618.583 293.307 621.36 296.223 Q624.138 299.14 624.138 305.066 Z" fill="#000000" fill-rule="evenodd" fill-opacity="1" /><path clip-path="url(#clip950)" d="M647.934 297.913 Q647.217 297.497 646.36 297.311 Q645.527 297.103 644.508 297.103 Q640.897 297.103 638.953 299.464 Q637.032 301.802 637.032 306.2 L637.032 319.858 L632.749 319.858 L632.749 293.932 L637.032 293.932 L637.032 297.96 Q638.374 295.598 640.527 294.464 Q642.68 293.307 645.758 293.307 Q646.198 293.307 646.731 293.376 Q647.263 293.423 647.911 293.538 L647.934 297.913 Z" fill="#000000" fill-rule="evenodd" fill-opacity="1" /><path clip-path="url(#clip950)" d="M650.55 293.932 L670.781 293.932 L670.781 297.821 L654.763 316.455 L670.781 316.455 L670.781 319.858 L649.971 319.858 L649.971 315.969 L665.99 297.335 L650.55 297.335 L650.55 293.932 Z" fill="#000000" fill-rule="evenodd" fill-opacity="1" /><path clip-path="url(#clip950)" d="M693.814 294.696 L693.814 298.723 Q692.008 297.797 690.064 297.335 Q688.119 296.872 686.036 296.872 Q682.865 296.872 681.267 297.844 Q679.693 298.816 679.693 300.76 Q679.693 302.242 680.828 303.098 Q681.962 303.932 685.388 304.696 L686.846 305.02 Q691.383 305.992 693.281 307.774 Q695.203 309.534 695.203 312.705 Q695.203 316.316 692.332 318.422 Q689.485 320.529 684.485 320.529 Q682.402 320.529 680.133 320.112 Q677.888 319.719 675.388 318.908 L675.388 314.51 Q677.749 315.737 680.041 316.362 Q682.332 316.964 684.578 316.964 Q687.587 316.964 689.207 315.946 Q690.828 314.904 690.828 313.029 Q690.828 311.293 689.647 310.367 Q688.49 309.441 684.531 308.584 L683.05 308.237 Q679.092 307.404 677.332 305.691 Q675.573 303.955 675.573 300.946 Q675.573 297.288 678.166 295.298 Q680.758 293.307 685.527 293.307 Q687.888 293.307 689.971 293.654 Q692.054 294.001 693.814 294.696 Z" fill="#000000" fill-rule="evenodd" fill-opacity="1" /><path clip-path="url(#clip950)" d="M720.642 294.927 L720.642 298.909 Q718.837 297.913 717.008 297.427 Q715.202 296.918 713.351 296.918 Q709.207 296.918 706.915 299.557 Q704.624 302.172 704.624 306.918 Q704.624 311.663 706.915 314.302 Q709.207 316.918 713.351 316.918 Q715.202 316.918 717.008 316.432 Q718.837 315.922 720.642 314.927 L720.642 318.862 Q718.86 319.696 716.939 320.112 Q715.04 320.529 712.888 320.529 Q707.031 320.529 703.582 316.848 Q700.133 313.168 700.133 306.918 Q700.133 300.575 703.605 296.941 Q707.101 293.307 713.165 293.307 Q715.133 293.307 717.008 293.723 Q718.883 294.117 720.642 294.927 Z" fill="#000000" fill-rule="evenodd" fill-opacity="1" /><path clip-path="url(#clip950)" d="M749.6 304.209 L749.6 319.858 L745.341 319.858 L745.341 304.348 Q745.341 300.668 743.906 298.839 Q742.471 297.01 739.6 297.01 Q736.151 297.01 734.161 299.21 Q732.17 301.409 732.17 305.205 L732.17 319.858 L727.888 319.858 L727.888 283.839 L732.17 283.839 L732.17 297.96 Q733.698 295.622 735.758 294.464 Q737.841 293.307 740.55 293.307 Q745.017 293.307 747.309 296.085 Q749.6 298.839 749.6 304.209 Z" fill="#000000" fill-rule="evenodd" fill-opacity="1" /><path clip-path="url(#clip950)" d="M758.096 293.932 L762.355 293.932 L762.355 319.858 L758.096 319.858 L758.096 293.932 M758.096 283.839 L762.355 283.839 L762.355 289.233 L758.096 289.233 L758.096 283.839 Z" fill="#000000" fill-rule="evenodd" fill-opacity="1" /><path clip-path="url(#clip950)" d="M771.267 283.839 L775.526 283.839 L775.526 319.858 L771.267 319.858 L771.267 283.839 Z" fill="#000000" fill-rule="evenodd" fill-opacity="1" /><path clip-path="url(#clip950)" d="M801.498 297.867 L801.498 283.839 L805.757 283.839 L805.757 319.858 L801.498 319.858 L801.498 315.969 Q800.156 318.283 798.095 319.418 Q796.058 320.529 793.188 320.529 Q788.489 320.529 785.526 316.779 Q782.586 313.029 782.586 306.918 Q782.586 300.807 785.526 297.057 Q788.489 293.307 793.188 293.307 Q796.058 293.307 798.095 294.441 Q800.156 295.552 801.498 297.867 M786.984 306.918 Q786.984 311.617 788.906 314.302 Q790.85 316.964 794.23 316.964 Q797.609 316.964 799.554 314.302 Q801.498 311.617 801.498 306.918 Q801.498 302.219 799.554 299.557 Q797.609 296.872 794.23 296.872 Q790.85 296.872 788.906 299.557 Q786.984 302.219 786.984 306.918 Z" fill="#000000" fill-rule="evenodd" fill-opacity="1" /><path clip-path="url(#clip950)" d="M814.137 283.839 L823.952 283.839 L823.952 287.149 L818.396 287.149 L818.396 322.797 L823.952 322.797 L823.952 326.108 L814.137 326.108 L814.137 283.839 Z" fill="#000000" fill-rule="evenodd" fill-opacity="1" /><path clip-path="url(#clip950)" d="M837.239 286.571 L837.239 293.932 L846.012 293.932 L846.012 297.242 L837.239 297.242 L837.239 311.316 Q837.239 314.487 838.095 315.39 Q838.975 316.293 841.637 316.293 L846.012 316.293 L846.012 319.858 L841.637 319.858 Q836.706 319.858 834.831 318.029 Q832.956 316.177 832.956 311.316 L832.956 297.242 L829.831 297.242 L829.831 293.932 L832.956 293.932 L832.956 286.571 L837.239 286.571 Z" fill="#000000" fill-rule="evenodd" fill-opacity="1" /><path clip-path="url(#clip950)" d="M873.165 304.209 L873.165 319.858 L868.905 319.858 L868.905 304.348 Q868.905 300.668 867.47 298.839 Q866.035 297.01 863.165 297.01 Q859.716 297.01 857.725 299.21 Q855.734 301.409 855.734 305.205 L855.734 319.858 L851.452 319.858 L851.452 283.839 L855.734 283.839 L855.734 297.96 Q857.262 295.622 859.322 294.464 Q861.405 293.307 864.114 293.307 Q868.581 293.307 870.873 296.085 Q873.165 298.839 873.165 304.209 Z" fill="#000000" fill-rule="evenodd" fill-opacity="1" /><path clip-path="url(#clip950)" d="M881.66 293.932 L885.919 293.932 L885.919 319.858 L881.66 319.858 L881.66 293.932 M881.66 283.839 L885.919 283.839 L885.919 289.233 L881.66 289.233 L881.66 283.839 Z" fill="#000000" fill-rule="evenodd" fill-opacity="1" /><path clip-path="url(#clip950)" d="M916.382 304.209 L916.382 319.858 L912.123 319.858 L912.123 304.348 Q912.123 300.668 910.687 298.839 Q909.252 297.01 906.382 297.01 Q902.933 297.01 900.942 299.21 Q898.951 301.409 898.951 305.205 L898.951 319.858 L894.669 319.858 L894.669 293.932 L898.951 293.932 L898.951 297.96 Q900.479 295.622 902.539 294.464 Q904.623 293.307 907.331 293.307 Q911.799 293.307 914.09 296.085 Q916.382 298.839 916.382 304.209 Z" fill="#000000" fill-rule="evenodd" fill-opacity="1" /><path clip-path="url(#clip950)" d="M934.831 283.839 L934.831 326.108 L925.016 326.108 L925.016 322.797 L930.548 322.797 L930.548 287.149 L925.016 287.149 L925.016 283.839 L934.831 283.839 Z" fill="#000000" fill-rule="evenodd" fill-opacity="1" /></svg>
