<?xml version="1.0" encoding="utf-8"?>
<svg xmlns="http://www.w3.org/2000/svg" xmlns:xlink="http://www.w3.org/1999/xlink" width="600" height="400" viewBox="0 0 2400 1600">
<defs>
  <clipPath id="clip540">
    <rect x="0" y="0" width="2400" height="1600"/>
  </clipPath>
</defs>
<path clip-path="url(#clip540)" d="M0 1600 L2400 1600 L2400 0 L0 0  Z" fill="#ffffff" fill-rule="evenodd" fill-opacity="1"/>
<defs>
  <clipPath id="clip541">
    <rect x="480" y="0" width="1681" height="1600"/>
  </clipPath>
</defs>
<path clip-path="url(#clip540)" d="M263.037 1423.18 L2352.76 1423.18 L2352.76 47.2441 L263.037 47.2441  Z" fill="#ffffff" fill-rule="evenodd" fill-opacity="1"/>
<defs>
  <clipPath id="clip542">
    <rect x="263" y="47" width="2091" height="1377"/>
  </clipPath>
</defs>
<polyline clip-path="url(#clip542)" style="stroke:#000000; stroke-linecap:round; stroke-linejoin:round; stroke-width:2; stroke-opacity:0.1; fill:none" points="558.216,1423.18 558.216,47.2441 "/>
<polyline clip-path="url(#clip542)" style="stroke:#000000; stroke-linecap:round; stroke-linejoin:round; stroke-width:2; stroke-opacity:0.1; fill:none" points="959.208,1423.18 959.208,47.2441 "/>
<polyline clip-path="url(#clip542)" style="stroke:#000000; stroke-linecap:round; stroke-linejoin:round; stroke-width:2; stroke-opacity:0.1; fill:none" points="1360.2,1423.18 1360.2,47.2441 "/>
<polyline clip-path="url(#clip542)" style="stroke:#000000; stroke-linecap:round; stroke-linejoin:round; stroke-width:2; stroke-opacity:0.1; fill:none" points="1761.19,1423.18 1761.19,47.2441 "/>
<polyline clip-path="url(#clip542)" style="stroke:#000000; stroke-linecap:round; stroke-linejoin:round; stroke-width:2; stroke-opacity:0.1; fill:none" points="2162.18,1423.18 2162.18,47.2441 "/>
<polyline clip-path="url(#clip540)" style="stroke:#000000; stroke-linecap:round; stroke-linejoin:round; stroke-width:4; stroke-opacity:1; fill:none" points="263.037,1423.18 2352.76,1423.18 "/>
<polyline clip-path="url(#clip540)" style="stroke:#000000; stroke-linecap:round; stroke-linejoin:round; stroke-width:4; stroke-opacity:1; fill:none" points="558.216,1423.18 558.216,1404.28 "/>
<polyline clip-path="url(#clip540)" style="stroke:#000000; stroke-linecap:round; stroke-linejoin:round; stroke-width:4; stroke-opacity:1; fill:none" points="959.208,1423.18 959.208,1404.28 "/>
<polyline clip-path="url(#clip540)" style="stroke:#000000; stroke-linecap:round; stroke-linejoin:round; stroke-width:4; stroke-opacity:1; fill:none" points="1360.2,1423.18 1360.2,1404.28 "/>
<polyline clip-path="url(#clip540)" style="stroke:#000000; stroke-linecap:round; stroke-linejoin:round; stroke-width:4; stroke-opacity:1; fill:none" points="1761.19,1423.18 1761.19,1404.28 "/>
<polyline clip-path="url(#clip540)" style="stroke:#000000; stroke-linecap:round; stroke-linejoin:round; stroke-width:4; stroke-opacity:1; fill:none" points="2162.18,1423.18 2162.18,1404.28 "/>
<path clip-path="url(#clip540)" d="M528.158 1468.75 L557.834 1468.75 L557.834 1472.69 L528.158 1472.69 L528.158 1468.75 Z" fill="#000000" fill-rule="nonzero" fill-opacity="1" /><path clip-path="url(#clip540)" d="M571.954 1481.64 L588.273 1481.64 L588.273 1485.58 L566.329 1485.58 L566.329 1481.64 Q568.991 1478.89 573.574 1474.26 Q578.181 1469.61 579.361 1468.27 Q581.607 1465.74 582.486 1464.01 Q583.389 1462.25 583.389 1460.56 Q583.389 1457.8 581.445 1456.07 Q579.524 1454.33 576.422 1454.33 Q574.223 1454.33 571.769 1455.09 Q569.338 1455.86 566.561 1457.41 L566.561 1452.69 Q569.385 1451.55 571.838 1450.97 Q574.292 1450.39 576.329 1450.39 Q581.699 1450.39 584.894 1453.08 Q588.088 1455.77 588.088 1460.26 Q588.088 1462.39 587.278 1464.31 Q586.491 1466.2 584.385 1468.8 Q583.806 1469.47 580.704 1472.69 Q577.602 1475.88 571.954 1481.64 Z" fill="#000000" fill-rule="nonzero" fill-opacity="1" /><path clip-path="url(#clip540)" d="M959.208 1454.1 Q955.597 1454.1 953.768 1457.66 Q951.963 1461.2 951.963 1468.33 Q951.963 1475.44 953.768 1479.01 Q955.597 1482.55 959.208 1482.55 Q962.842 1482.55 964.648 1479.01 Q966.476 1475.44 966.476 1468.33 Q966.476 1461.2 964.648 1457.66 Q962.842 1454.1 959.208 1454.1 M959.208 1450.39 Q965.018 1450.39 968.074 1455 Q971.152 1459.58 971.152 1468.33 Q971.152 1477.06 968.074 1481.67 Q965.018 1486.25 959.208 1486.25 Q953.398 1486.25 950.319 1481.67 Q947.263 1477.06 947.263 1468.33 Q947.263 1459.58 950.319 1455 Q953.398 1450.39 959.208 1450.39 Z" fill="#000000" fill-rule="nonzero" fill-opacity="1" /><path clip-path="url(#clip540)" d="M1354.85 1481.64 L1371.17 1481.64 L1371.17 1485.58 L1349.23 1485.58 L1349.23 1481.64 Q1351.89 1478.89 1356.47 1474.26 Q1361.08 1469.61 1362.26 1468.27 Q1364.51 1465.74 1365.39 1464.01 Q1366.29 1462.25 1366.29 1460.56 Q1366.29 1457.8 1364.34 1456.07 Q1362.42 1454.33 1359.32 1454.33 Q1357.12 1454.33 1354.67 1455.09 Q1352.24 1455.86 1349.46 1457.41 L1349.46 1452.69 Q1352.28 1451.55 1354.74 1450.97 Q1357.19 1450.39 1359.23 1450.39 Q1364.6 1450.39 1367.79 1453.08 Q1370.99 1455.77 1370.99 1460.26 Q1370.99 1462.39 1370.18 1464.31 Q1369.39 1466.2 1367.28 1468.8 Q1366.7 1469.47 1363.6 1472.69 Q1360.5 1475.88 1354.85 1481.64 Z" fill="#000000" fill-rule="nonzero" fill-opacity="1" /><path clip-path="url(#clip540)" d="M1764.2 1455.09 L1752.4 1473.54 L1764.2 1473.54 L1764.2 1455.09 M1762.97 1451.02 L1768.85 1451.02 L1768.85 1473.54 L1773.78 1473.54 L1773.78 1477.43 L1768.85 1477.43 L1768.85 1485.58 L1764.2 1485.58 L1764.2 1477.43 L1748.6 1477.43 L1748.6 1472.92 L1762.97 1451.02 Z" fill="#000000" fill-rule="nonzero" fill-opacity="1" /><path clip-path="url(#clip540)" d="M2162.59 1466.44 Q2159.44 1466.44 2157.59 1468.59 Q2155.76 1470.74 2155.76 1474.49 Q2155.76 1478.22 2157.59 1480.39 Q2159.44 1482.55 2162.59 1482.55 Q2165.74 1482.55 2167.57 1480.39 Q2169.42 1478.22 2169.42 1474.49 Q2169.42 1470.74 2167.57 1468.59 Q2165.74 1466.44 2162.59 1466.44 M2171.87 1451.78 L2171.87 1456.04 Q2170.11 1455.21 2168.31 1454.77 Q2166.52 1454.33 2164.77 1454.33 Q2160.14 1454.33 2157.68 1457.45 Q2155.25 1460.58 2154.9 1466.9 Q2156.27 1464.89 2158.33 1463.82 Q2160.39 1462.73 2162.87 1462.73 Q2168.08 1462.73 2171.08 1465.9 Q2174.12 1469.05 2174.12 1474.49 Q2174.12 1479.82 2170.97 1483.03 Q2167.82 1486.25 2162.59 1486.25 Q2156.59 1486.25 2153.42 1481.67 Q2150.25 1477.06 2150.25 1468.33 Q2150.25 1460.14 2154.14 1455.28 Q2158.03 1450.39 2164.58 1450.39 Q2166.34 1450.39 2168.12 1450.74 Q2169.93 1451.09 2171.87 1451.78 Z" fill="#000000" fill-rule="nonzero" fill-opacity="1" /><path clip-path="url(#clip540)" d="M1313.1 1551.46 L1311.7 1544.11 Q1310.27 1536.57 1304.6 1536.57 Q1300.34 1536.57 1298.4 1540.07 Q1295.95 1544.46 1295.95 1550.25 Q1295.95 1557.25 1298.33 1560.6 Q1300.75 1564 1304.6 1564 Q1308.87 1564 1311.16 1557.22 L1313.1 1551.46 M1316.38 1541.72 L1319.53 1532.4 L1324.75 1532.4 L1318.22 1551.72 L1319.5 1558.69 Q1319.78 1560.25 1320.9 1561.55 Q1322.2 1563.08 1323.22 1563.08 L1326.02 1563.08 L1326.02 1568.04 L1322.52 1568.04 Q1319.53 1568.04 1316.86 1565.37 Q1315.55 1564.03 1315.01 1561.23 Q1313.55 1564.77 1310.55 1567.53 Q1309.15 1568.84 1304.6 1568.84 Q1297.12 1568.84 1293.49 1564 Q1289.77 1559 1289.77 1550.25 Q1289.77 1540.89 1293.81 1536.5 Q1298.3 1531.6 1304.6 1531.6 Q1314.5 1531.6 1316.38 1541.72 Z" fill="#000000" fill-rule="nonzero" fill-opacity="1" /><polyline clip-path="url(#clip542)" style="stroke:#000000; stroke-linecap:round; stroke-linejoin:round; stroke-width:2; stroke-opacity:0.1; fill:none" points="263.037,1363.36 2352.76,1363.36 "/>
<polyline clip-path="url(#clip542)" style="stroke:#000000; stroke-linecap:round; stroke-linejoin:round; stroke-width:2; stroke-opacity:0.1; fill:none" points="263.037,1095 2352.76,1095 "/>
<polyline clip-path="url(#clip542)" style="stroke:#000000; stroke-linecap:round; stroke-linejoin:round; stroke-width:2; stroke-opacity:0.1; fill:none" points="263.037,826.638 2352.76,826.638 "/>
<polyline clip-path="url(#clip542)" style="stroke:#000000; stroke-linecap:round; stroke-linejoin:round; stroke-width:2; stroke-opacity:0.1; fill:none" points="263.037,558.278 2352.76,558.278 "/>
<polyline clip-path="url(#clip542)" style="stroke:#000000; stroke-linecap:round; stroke-linejoin:round; stroke-width:2; stroke-opacity:0.1; fill:none" points="263.037,289.918 2352.76,289.918 "/>
<polyline clip-path="url(#clip540)" style="stroke:#000000; stroke-linecap:round; stroke-linejoin:round; stroke-width:4; stroke-opacity:1; fill:none" points="263.037,1423.18 263.037,47.2441 "/>
<polyline clip-path="url(#clip540)" style="stroke:#000000; stroke-linecap:round; stroke-linejoin:round; stroke-width:4; stroke-opacity:1; fill:none" points="263.037,1363.36 281.935,1363.36 "/>
<polyline clip-path="url(#clip540)" style="stroke:#000000; stroke-linecap:round; stroke-linejoin:round; stroke-width:4; stroke-opacity:1; fill:none" points="263.037,1095 281.935,1095 "/>
<polyline clip-path="url(#clip540)" style="stroke:#000000; stroke-linecap:round; stroke-linejoin:round; stroke-width:4; stroke-opacity:1; fill:none" points="263.037,826.638 281.935,826.638 "/>
<polyline clip-path="url(#clip540)" style="stroke:#000000; stroke-linecap:round; stroke-linejoin:round; stroke-width:4; stroke-opacity:1; fill:none" points="263.037,558.278 281.935,558.278 "/>
<polyline clip-path="url(#clip540)" style="stroke:#000000; stroke-linecap:round; stroke-linejoin:round; stroke-width:4; stroke-opacity:1; fill:none" points="263.037,289.918 281.935,289.918 "/>
<path clip-path="url(#clip540)" d="M115.418 1376.7 L123.056 1376.7 L123.056 1350.34 L114.746 1352 L114.746 1347.75 L123.01 1346.08 L127.686 1346.08 L127.686 1376.7 L135.325 1376.7 L135.325 1380.64 L115.418 1380.64 L115.418 1376.7 Z" fill="#000000" fill-rule="nonzero" fill-opacity="1" /><path clip-path="url(#clip540)" d="M154.769 1349.16 Q151.158 1349.16 149.329 1352.72 Q147.524 1356.26 147.524 1363.39 Q147.524 1370.5 149.329 1374.07 Q151.158 1377.61 154.769 1377.61 Q158.403 1377.61 160.209 1374.07 Q162.038 1370.5 162.038 1363.39 Q162.038 1356.26 160.209 1352.72 Q158.403 1349.16 154.769 1349.16 M154.769 1345.45 Q160.579 1345.45 163.635 1350.06 Q166.714 1354.64 166.714 1363.39 Q166.714 1372.12 163.635 1376.73 Q160.579 1381.31 154.769 1381.31 Q148.959 1381.31 145.88 1376.73 Q142.825 1372.12 142.825 1363.39 Q142.825 1354.64 145.88 1350.06 Q148.959 1345.45 154.769 1345.45 Z" fill="#000000" fill-rule="nonzero" fill-opacity="1" /><path clip-path="url(#clip540)" d="M184.931 1349.16 Q181.32 1349.16 179.491 1352.72 Q177.686 1356.26 177.686 1363.39 Q177.686 1370.5 179.491 1374.07 Q181.32 1377.61 184.931 1377.61 Q188.565 1377.61 190.371 1374.07 Q192.2 1370.5 192.2 1363.39 Q192.2 1356.26 190.371 1352.72 Q188.565 1349.16 184.931 1349.16 M184.931 1345.45 Q190.741 1345.45 193.797 1350.06 Q196.875 1354.64 196.875 1363.39 Q196.875 1372.12 193.797 1376.73 Q190.741 1381.31 184.931 1381.31 Q179.121 1381.31 176.042 1376.73 Q172.987 1372.12 172.987 1363.39 Q172.987 1354.64 176.042 1350.06 Q179.121 1345.45 184.931 1345.45 Z" fill="#000000" fill-rule="nonzero" fill-opacity="1" /><path clip-path="url(#clip540)" d="M215.093 1349.16 Q211.482 1349.16 209.653 1352.72 Q207.848 1356.26 207.848 1363.39 Q207.848 1370.5 209.653 1374.07 Q211.482 1377.61 215.093 1377.61 Q218.727 1377.61 220.533 1374.07 Q222.361 1370.5 222.361 1363.39 Q222.361 1356.26 220.533 1352.72 Q218.727 1349.16 215.093 1349.16 M215.093 1345.45 Q220.903 1345.45 223.959 1350.06 Q227.037 1354.64 227.037 1363.39 Q227.037 1372.12 223.959 1376.73 Q220.903 1381.31 215.093 1381.31 Q209.283 1381.31 206.204 1376.73 Q203.149 1372.12 203.149 1363.39 Q203.149 1354.64 206.204 1350.06 Q209.283 1345.45 215.093 1345.45 Z" fill="#000000" fill-rule="nonzero" fill-opacity="1" /><path clip-path="url(#clip540)" d="M116.644 1108.34 L124.283 1108.34 L124.283 1081.98 L115.973 1083.64 L115.973 1079.39 L124.237 1077.72 L128.913 1077.72 L128.913 1108.34 L136.552 1108.34 L136.552 1112.28 L116.644 1112.28 L116.644 1108.34 Z" fill="#000000" fill-rule="nonzero" fill-opacity="1" /><path clip-path="url(#clip540)" d="M155.996 1080.8 Q152.385 1080.8 150.556 1084.36 Q148.751 1087.9 148.751 1095.03 Q148.751 1102.14 150.556 1105.7 Q152.385 1109.25 155.996 1109.25 Q159.63 1109.25 161.436 1105.7 Q163.265 1102.14 163.265 1095.03 Q163.265 1087.9 161.436 1084.36 Q159.63 1080.8 155.996 1080.8 M155.996 1077.09 Q161.806 1077.09 164.862 1081.7 Q167.94 1086.28 167.94 1095.03 Q167.94 1103.76 164.862 1108.37 Q161.806 1112.95 155.996 1112.95 Q150.186 1112.95 147.107 1108.37 Q144.052 1103.76 144.052 1095.03 Q144.052 1086.28 147.107 1081.7 Q150.186 1077.09 155.996 1077.09 Z" fill="#000000" fill-rule="nonzero" fill-opacity="1" /><path clip-path="url(#clip540)" d="M186.158 1080.8 Q182.547 1080.8 180.718 1084.36 Q178.913 1087.9 178.913 1095.03 Q178.913 1102.14 180.718 1105.7 Q182.547 1109.25 186.158 1109.25 Q189.792 1109.25 191.598 1105.7 Q193.426 1102.14 193.426 1095.03 Q193.426 1087.9 191.598 1084.36 Q189.792 1080.8 186.158 1080.8 M186.158 1077.09 Q191.968 1077.09 195.024 1081.7 Q198.102 1086.28 198.102 1095.03 Q198.102 1103.76 195.024 1108.37 Q191.968 1112.95 186.158 1112.95 Q180.348 1112.95 177.269 1108.37 Q174.214 1103.76 174.214 1095.03 Q174.214 1086.28 177.269 1081.7 Q180.348 1077.09 186.158 1077.09 Z" fill="#000000" fill-rule="nonzero" fill-opacity="1" /><path clip-path="url(#clip540)" d="M207.13 1108.34 L214.769 1108.34 L214.769 1081.98 L206.459 1083.64 L206.459 1079.39 L214.723 1077.72 L219.398 1077.72 L219.398 1108.34 L227.037 1108.34 L227.037 1112.28 L207.13 1112.28 L207.13 1108.34 Z" fill="#000000" fill-rule="nonzero" fill-opacity="1" /><path clip-path="url(#clip540)" d="M117.015 839.983 L124.654 839.983 L124.654 813.618 L116.343 815.284 L116.343 811.025 L124.607 809.358 L129.283 809.358 L129.283 839.983 L136.922 839.983 L136.922 843.918 L117.015 843.918 L117.015 839.983 Z" fill="#000000" fill-rule="nonzero" fill-opacity="1" /><path clip-path="url(#clip540)" d="M156.366 812.437 Q152.755 812.437 150.927 816.002 Q149.121 819.544 149.121 826.673 Q149.121 833.78 150.927 837.344 Q152.755 840.886 156.366 840.886 Q160.001 840.886 161.806 837.344 Q163.635 833.78 163.635 826.673 Q163.635 819.544 161.806 816.002 Q160.001 812.437 156.366 812.437 M156.366 808.733 Q162.177 808.733 165.232 813.34 Q168.311 817.923 168.311 826.673 Q168.311 835.4 165.232 840.006 Q162.177 844.59 156.366 844.59 Q150.556 844.59 147.478 840.006 Q144.422 835.4 144.422 826.673 Q144.422 817.923 147.478 813.34 Q150.556 808.733 156.366 808.733 Z" fill="#000000" fill-rule="nonzero" fill-opacity="1" /><path clip-path="url(#clip540)" d="M186.528 812.437 Q182.917 812.437 181.089 816.002 Q179.283 819.544 179.283 826.673 Q179.283 833.78 181.089 837.344 Q182.917 840.886 186.528 840.886 Q190.163 840.886 191.968 837.344 Q193.797 833.78 193.797 826.673 Q193.797 819.544 191.968 816.002 Q190.163 812.437 186.528 812.437 M186.528 808.733 Q192.338 808.733 195.394 813.34 Q198.473 817.923 198.473 826.673 Q198.473 835.4 195.394 840.006 Q192.338 844.59 186.528 844.59 Q180.718 844.59 177.639 840.006 Q174.584 835.4 174.584 826.673 Q174.584 817.923 177.639 813.34 Q180.718 808.733 186.528 808.733 Z" fill="#000000" fill-rule="nonzero" fill-opacity="1" /><path clip-path="url(#clip540)" d="M210.718 839.983 L227.037 839.983 L227.037 843.918 L205.093 843.918 L205.093 839.983 Q207.755 837.229 212.338 832.599 Q216.945 827.946 218.125 826.604 Q220.371 824.081 221.25 822.345 Q222.153 820.585 222.153 818.895 Q222.153 816.141 220.209 814.405 Q218.287 812.669 215.186 812.669 Q212.986 812.669 210.533 813.433 Q208.102 814.196 205.324 815.747 L205.324 811.025 Q208.149 809.891 210.602 809.312 Q213.056 808.733 215.093 808.733 Q220.463 808.733 223.658 811.419 Q226.852 814.104 226.852 818.595 Q226.852 820.724 226.042 822.645 Q225.255 824.544 223.148 827.136 Q222.57 827.807 219.468 831.025 Q216.366 834.219 210.718 839.983 Z" fill="#000000" fill-rule="nonzero" fill-opacity="1" /><path clip-path="url(#clip540)" d="M116.066 571.623 L123.705 571.623 L123.705 545.257 L115.394 546.924 L115.394 542.665 L123.658 540.998 L128.334 540.998 L128.334 571.623 L135.973 571.623 L135.973 575.558 L116.066 575.558 L116.066 571.623 Z" fill="#000000" fill-rule="nonzero" fill-opacity="1" /><path clip-path="url(#clip540)" d="M155.417 544.077 Q151.806 544.077 149.978 547.642 Q148.172 551.183 148.172 558.313 Q148.172 565.419 149.978 568.984 Q151.806 572.526 155.417 572.526 Q159.052 572.526 160.857 568.984 Q162.686 565.419 162.686 558.313 Q162.686 551.183 160.857 547.642 Q159.052 544.077 155.417 544.077 M155.417 540.373 Q161.227 540.373 164.283 544.98 Q167.362 549.563 167.362 558.313 Q167.362 567.04 164.283 571.646 Q161.227 576.229 155.417 576.229 Q149.607 576.229 146.529 571.646 Q143.473 567.04 143.473 558.313 Q143.473 549.563 146.529 544.98 Q149.607 540.373 155.417 540.373 Z" fill="#000000" fill-rule="nonzero" fill-opacity="1" /><path clip-path="url(#clip540)" d="M185.579 544.077 Q181.968 544.077 180.139 547.642 Q178.334 551.183 178.334 558.313 Q178.334 565.419 180.139 568.984 Q181.968 572.526 185.579 572.526 Q189.213 572.526 191.019 568.984 Q192.848 565.419 192.848 558.313 Q192.848 551.183 191.019 547.642 Q189.213 544.077 185.579 544.077 M185.579 540.373 Q191.389 540.373 194.445 544.98 Q197.524 549.563 197.524 558.313 Q197.524 567.04 194.445 571.646 Q191.389 576.229 185.579 576.229 Q179.769 576.229 176.69 571.646 Q173.635 567.04 173.635 558.313 Q173.635 549.563 176.69 544.98 Q179.769 540.373 185.579 540.373 Z" fill="#000000" fill-rule="nonzero" fill-opacity="1" /><path clip-path="url(#clip540)" d="M219.908 556.924 Q223.264 557.642 225.139 559.91 Q227.037 562.179 227.037 565.512 Q227.037 570.628 223.519 573.429 Q220 576.229 213.519 576.229 Q211.343 576.229 209.028 575.79 Q206.737 575.373 204.283 574.517 L204.283 570.003 Q206.227 571.137 208.542 571.716 Q210.857 572.294 213.38 572.294 Q217.778 572.294 220.07 570.558 Q222.385 568.822 222.385 565.512 Q222.385 562.456 220.232 560.743 Q218.102 559.007 214.283 559.007 L210.255 559.007 L210.255 555.165 L214.468 555.165 Q217.917 555.165 219.746 553.799 Q221.574 552.41 221.574 549.818 Q221.574 547.156 219.676 545.744 Q217.801 544.308 214.283 544.308 Q212.361 544.308 210.162 544.725 Q207.963 545.142 205.324 546.021 L205.324 541.855 Q207.987 541.114 210.301 540.744 Q212.639 540.373 214.699 540.373 Q220.023 540.373 223.125 542.804 Q226.227 545.211 226.227 549.331 Q226.227 552.202 224.584 554.193 Q222.94 556.16 219.908 556.924 Z" fill="#000000" fill-rule="nonzero" fill-opacity="1" /><path clip-path="url(#clip540)" d="M114.931 303.263 L122.57 303.263 L122.57 276.897 L114.26 278.564 L114.26 274.305 L122.524 272.638 L127.2 272.638 L127.2 303.263 L134.839 303.263 L134.839 307.198 L114.931 307.198 L114.931 303.263 Z" fill="#000000" fill-rule="nonzero" fill-opacity="1" /><path clip-path="url(#clip540)" d="M154.283 275.717 Q150.672 275.717 148.843 279.281 Q147.038 282.823 147.038 289.953 Q147.038 297.059 148.843 300.624 Q150.672 304.165 154.283 304.165 Q157.917 304.165 159.723 300.624 Q161.552 297.059 161.552 289.953 Q161.552 282.823 159.723 279.281 Q157.917 275.717 154.283 275.717 M154.283 272.013 Q160.093 272.013 163.149 276.619 Q166.227 281.203 166.227 289.953 Q166.227 298.679 163.149 303.286 Q160.093 307.869 154.283 307.869 Q148.473 307.869 145.394 303.286 Q142.339 298.679 142.339 289.953 Q142.339 281.203 145.394 276.619 Q148.473 272.013 154.283 272.013 Z" fill="#000000" fill-rule="nonzero" fill-opacity="1" /><path clip-path="url(#clip540)" d="M184.445 275.717 Q180.834 275.717 179.005 279.281 Q177.2 282.823 177.2 289.953 Q177.2 297.059 179.005 300.624 Q180.834 304.165 184.445 304.165 Q188.079 304.165 189.885 300.624 Q191.713 297.059 191.713 289.953 Q191.713 282.823 189.885 279.281 Q188.079 275.717 184.445 275.717 M184.445 272.013 Q190.255 272.013 193.311 276.619 Q196.389 281.203 196.389 289.953 Q196.389 298.679 193.311 303.286 Q190.255 307.869 184.445 307.869 Q178.635 307.869 175.556 303.286 Q172.501 298.679 172.501 289.953 Q172.501 281.203 175.556 276.619 Q178.635 272.013 184.445 272.013 Z" fill="#000000" fill-rule="nonzero" fill-opacity="1" /><path clip-path="url(#clip540)" d="M217.454 276.712 L205.649 295.161 L217.454 295.161 L217.454 276.712 M216.227 272.638 L222.107 272.638 L222.107 295.161 L227.037 295.161 L227.037 299.05 L222.107 299.05 L222.107 307.198 L217.454 307.198 L217.454 299.05 L201.852 299.05 L201.852 294.536 L216.227 272.638 Z" fill="#000000" fill-rule="nonzero" fill-opacity="1" /><path clip-path="url(#clip540)" d="M58.657 913.34 L77.5631 913.34 L77.5631 919.229 L28.3562 919.229 L28.3562 913.34 L33.7671 913.34 Q30.5842 911.494 29.0564 908.693 Q27.4968 905.861 27.4968 901.946 Q27.4968 895.453 32.6531 891.41 Q37.8093 887.336 46.212 887.336 Q54.6147 887.336 59.771 891.41 Q64.9272 895.453 64.9272 901.946 Q64.9272 905.861 63.3994 908.693 Q61.8398 911.494 58.657 913.34 M46.212 893.416 Q39.7508 893.416 36.0905 896.089 Q32.3984 898.731 32.3984 903.378 Q32.3984 908.025 36.0905 910.699 Q39.7508 913.34 46.212 913.34 Q52.6732 913.34 56.3653 910.699 Q60.0256 908.025 60.0256 903.378 Q60.0256 898.731 56.3653 896.089 Q52.6732 893.416 46.212 893.416 Z" fill="#000000" fill-rule="nonzero" fill-opacity="1" /><path clip-path="url(#clip540)" d="M46.0847 861.428 Q46.0847 868.526 47.7079 871.263 Q49.3312 874 53.2461 874 Q56.3653 874 58.2114 871.963 Q60.0256 869.894 60.0256 866.361 Q60.0256 861.492 56.5881 858.563 Q53.1188 855.603 47.3897 855.603 L46.0847 855.603 L46.0847 861.428 M43.6657 849.747 L64.0042 849.747 L64.0042 855.603 L58.5933 855.603 Q61.8398 857.609 63.3994 860.6 Q64.9272 863.592 64.9272 867.921 Q64.9272 873.396 61.8716 876.642 Q58.7843 879.857 53.6281 879.857 Q47.6125 879.857 44.5569 875.846 Q41.5014 871.804 41.5014 863.815 L41.5014 855.603 L40.9285 855.603 Q36.8862 855.603 34.6901 858.277 Q32.4621 860.919 32.4621 865.725 Q32.4621 868.78 33.1941 871.677 Q33.9262 874.573 35.3903 877.247 L29.9795 877.247 Q28.7381 874.032 28.1334 871.008 Q27.4968 867.985 27.4968 865.12 Q27.4968 857.386 31.5072 853.566 Q35.5176 849.747 43.6657 849.747 Z" fill="#000000" fill-rule="nonzero" fill-opacity="1" /><path clip-path="url(#clip540)" d="M18.2347 831.891 L28.3562 831.891 L28.3562 819.828 L32.9077 819.828 L32.9077 831.891 L52.2594 831.891 Q56.6199 831.891 57.8613 830.713 Q59.1026 829.504 59.1026 825.844 L59.1026 819.828 L64.0042 819.828 L64.0042 825.844 Q64.0042 832.623 61.4897 835.201 Q58.9434 837.779 52.2594 837.779 L32.9077 837.779 L32.9077 842.076 L28.3562 842.076 L28.3562 837.779 L18.2347 837.779 L18.2347 831.891 Z" fill="#000000" fill-rule="nonzero" fill-opacity="1" /><path clip-path="url(#clip540)" d="M42.4881 782.493 L64.0042 782.493 L64.0042 788.35 L42.679 788.35 Q37.6183 788.35 35.1038 790.323 Q32.5894 792.296 32.5894 796.243 Q32.5894 800.986 35.6131 803.723 Q38.6368 806.46 43.8567 806.46 L64.0042 806.46 L64.0042 812.348 L14.479 812.348 L14.479 806.46 L33.8944 806.46 Q30.6797 804.359 29.0883 801.527 Q27.4968 798.662 27.4968 794.938 Q27.4968 788.795 31.3163 785.644 Q35.1038 782.493 42.4881 782.493 Z" fill="#000000" fill-rule="nonzero" fill-opacity="1" /><path clip-path="url(#clip540)" d="M43.5384 773.772 L43.5384 756.617 L48.7583 756.617 L48.7583 773.772 L43.5384 773.772 Z" fill="#000000" fill-rule="nonzero" fill-opacity="1" /><path clip-path="url(#clip540)" d="M14.479 747.291 L14.479 741.434 L64.0042 741.434 L64.0042 747.291 L14.479 747.291 Z" fill="#000000" fill-rule="nonzero" fill-opacity="1" /><path clip-path="url(#clip540)" d="M44.7161 698.689 L47.5806 698.689 L47.5806 725.616 Q53.6281 725.234 56.8109 721.987 Q59.9619 718.709 59.9619 712.884 Q59.9619 709.51 59.1344 706.359 Q58.3069 703.177 56.6518 700.057 L62.1899 700.057 Q63.5267 703.208 64.227 706.519 Q64.9272 709.829 64.9272 713.234 Q64.9272 721.764 59.9619 726.761 Q54.9967 731.727 46.5303 731.727 Q37.7774 731.727 32.6531 727.016 Q27.4968 722.274 27.4968 714.253 Q27.4968 707.06 32.1438 702.89 Q36.7589 698.689 44.7161 698.689 M42.9973 704.545 Q38.1912 704.609 35.3266 707.251 Q32.4621 709.861 32.4621 714.189 Q32.4621 719.091 35.2312 722.051 Q38.0002 724.979 43.0292 725.425 L42.9973 704.545 Z" fill="#000000" fill-rule="nonzero" fill-opacity="1" /><path clip-path="url(#clip540)" d="M42.4881 659.444 L64.0042 659.444 L64.0042 665.301 L42.679 665.301 Q37.6183 665.301 35.1038 667.274 Q32.5894 669.247 32.5894 673.194 Q32.5894 677.937 35.6131 680.674 Q38.6368 683.411 43.8567 683.411 L64.0042 683.411 L64.0042 689.299 L28.3562 689.299 L28.3562 683.411 L33.8944 683.411 Q30.6797 681.31 29.0883 678.478 Q27.4968 675.613 27.4968 671.889 Q27.4968 665.746 31.3163 662.595 Q35.1038 659.444 42.4881 659.444 Z" fill="#000000" fill-rule="nonzero" fill-opacity="1" /><path clip-path="url(#clip540)" d="M45.7664 624.305 Q39.4007 624.305 35.8996 626.947 Q32.3984 629.557 32.3984 634.3 Q32.3984 639.01 35.8996 641.652 Q39.4007 644.262 45.7664 644.262 Q52.1003 644.262 55.6014 641.652 Q59.1026 639.01 59.1026 634.3 Q59.1026 629.557 55.6014 626.947 Q52.1003 624.305 45.7664 624.305 M59.58 618.449 Q68.683 618.449 73.1071 622.491 Q77.5631 626.533 77.5631 634.873 Q77.5631 637.96 77.0857 640.697 Q76.6401 643.434 75.6852 646.013 L69.9879 646.013 Q71.3884 643.434 72.0568 640.92 Q72.7252 638.405 72.7252 635.796 Q72.7252 630.035 69.7015 627.17 Q66.7096 624.305 60.6303 624.305 L57.7339 624.305 Q60.885 626.12 62.4446 628.952 Q64.0042 631.785 64.0042 635.732 Q64.0042 642.289 59.0071 646.299 Q54.01 650.309 45.7664 650.309 Q37.491 650.309 32.4939 646.299 Q27.4968 642.289 27.4968 635.732 Q27.4968 631.785 29.0564 628.952 Q30.616 626.12 33.7671 624.305 L28.3562 624.305 L28.3562 618.449 L59.58 618.449 Z" fill="#000000" fill-rule="nonzero" fill-opacity="1" /><path clip-path="url(#clip540)" d="M18.2347 600.593 L28.3562 600.593 L28.3562 588.53 L32.9077 588.53 L32.9077 600.593 L52.2594 600.593 Q56.6199 600.593 57.8613 599.416 Q59.1026 598.206 59.1026 594.546 L59.1026 588.53 L64.0042 588.53 L64.0042 594.546 Q64.0042 601.325 61.4897 603.903 Q58.9434 606.481 52.2594 606.481 L32.9077 606.481 L32.9077 610.778 L28.3562 610.778 L28.3562 606.481 L18.2347 606.481 L18.2347 600.593 Z" fill="#000000" fill-rule="nonzero" fill-opacity="1" /><path clip-path="url(#clip540)" d="M42.4881 551.195 L64.0042 551.195 L64.0042 557.052 L42.679 557.052 Q37.6183 557.052 35.1038 559.025 Q32.5894 560.998 32.5894 564.945 Q32.5894 569.688 35.6131 572.425 Q38.6368 575.162 43.8567 575.162 L64.0042 575.162 L64.0042 581.05 L14.479 581.05 L14.479 575.162 L33.8944 575.162 Q30.6797 573.062 29.0883 570.229 Q27.4968 567.364 27.4968 563.64 Q27.4968 557.497 31.3163 554.346 Q35.1038 551.195 42.4881 551.195 Z" fill="#000000" fill-rule="nonzero" fill-opacity="1" /><polyline clip-path="url(#clip542)" style="stroke:#009af9; stroke-linecap:round; stroke-linejoin:round; stroke-width:4; stroke-opacity:1; fill:none" points="322.18,86.1857 335.591,423.002 349.003,604.736 362.414,715.591 375.825,800.789 389.236,864.692 402.647,920.778 416.058,961.787 429.469,997.493 442.88,1036.13 456.291,1062.59 469.702,1087.01 483.114,1109.04 496.525,1119.64 509.936,1137.34 523.347,1153.97 536.758,1165.27 550.169,1178.96 563.58,1191.85 576.991,1203.4 590.402,1214.29 603.814,1223.16 617.225,1233.08 630.636,1236.85 644.047,1244.44 657.458,1250.81 670.869,1264.97 684.28,1270.92 697.691,1270.5 711.102,1275.81 724.513,1280.2 737.925,1292.79 751.336,1295.76 764.747,1301.11 778.158,1301.99 791.569,1305.82 804.98,1307.97 818.391,1316.55 831.802,1320.43 845.213,1320.36 858.625,1322.05 872.036,1329.34 885.447,1327.19 898.858,1327.59 912.269,1336.44 925.68,1336.93 939.091,1336.6 952.502,1336.22 965.913,1339.41 979.325,1348.39 992.736,1346.72 1006.15,1347.39 1019.56,1352.3 1032.97,1355.81 1046.38,1353.67 1059.79,1357.26 1073.2,1357.05 1086.61,1360.48 1100.02,1363.78 1113.44,1358.77 1126.85,1361.11 1140.26,1360 1153.67,1366.55 1167.08,1366.94 1180.49,1368.42 1193.9,1369.61 1207.31,1370.82 1220.72,1371.63 1234.14,1369.33 1247.55,1371.47 1260.96,1371.63 1274.37,1371.29 1287.78,1375.84 1301.19,1374.96 1314.6,1375.17 1328.01,1375.61 1341.42,1374.83 1354.84,1374.91 1368.25,1373.41 1381.66,1380.95 1395.07,1375.05 1408.48,1382.42 1421.89,1380.84 1435.3,1379.39 1448.71,1377.7 1462.12,1376.04 1475.54,1383.14 1488.95,1381.84 1502.36,1378.59 1515.77,1376.53 1529.18,1382.44 1542.59,1384.24 1556,1381.56 1569.41,1378.12 1582.82,1383.88 1596.24,1381.57 1609.65,1379.45 1623.06,1375.43 1636.47,1380.67 1649.88,1377.6 1663.29,1374.42 1676.7,1378.91 1690.11,1375.44 1703.52,1380.14 1716.94,1376.38 1730.35,1377.49 1743.76,1372.74 1757.17,1377.56 1770.58,1371.43 1783.99,1376.79 1797.4,1372.21 1810.81,1367.38 1824.22,1371.51 1837.64,1367.32 1851.05,1370.27 1864.46,1365.41 1877.87,1360.92 1891.28,1363.13 1904.69,1358.12 1918.1,1360.97 1931.51,1355.03 1944.92,1357.38 1958.34,1351.56 1971.75,1353.66 1985.16,1347.41 1998.57,1348.27 2011.98,1341.98 2025.39,1342.55 2038.8,1335.99 2052.21,1336.45 2065.62,1332.33 2079.04,1324.95 2092.45,1316.39 2105.86,1316.79 2119.27,1309.08 2132.68,1301.2 2146.09,1293.23 2159.5,1285.44 2172.91,1268.96 2186.32,1259.89 2199.74,1249.33 2213.15,1229.66 2226.56,1207.74 2239.97,1174.28 2253.38,1133.96 2266.79,1073.35 2280.2,964.731 2293.61,452.305 "/>
<path clip-path="url(#clip540)" d="M2021.7 196.789 L2283.1 196.789 L2283.1 93.1086 L2021.7 93.1086  Z" fill="#ffffff" fill-rule="evenodd" fill-opacity="1"/>
<polyline clip-path="url(#clip540)" style="stroke:#000000; stroke-linecap:round; stroke-linejoin:round; stroke-width:4; stroke-opacity:1; fill:none" points="2021.7,196.789 2283.1,196.789 2283.1,93.1086 2021.7,93.1086 2021.7,196.789 "/>
<polyline clip-path="url(#clip540)" style="stroke:#009af9; stroke-linecap:round; stroke-linejoin:round; stroke-width:4; stroke-opacity:1; fill:none" points="2044.92,144.949 2184.23,144.949 "/>
<path clip-path="url(#clip540)" d="M2221.29 164.636 Q2219.49 169.266 2217.77 170.678 Q2216.06 172.09 2213.19 172.09 L2209.79 172.09 L2209.79 168.525 L2212.29 168.525 Q2214.05 168.525 2215.02 167.692 Q2215.99 166.858 2217.17 163.756 L2217.94 161.812 L2207.45 136.303 L2211.96 136.303 L2220.06 156.581 L2228.17 136.303 L2232.68 136.303 L2221.29 164.636 Z" fill="#000000" fill-rule="nonzero" fill-opacity="1" /><path clip-path="url(#clip540)" d="M2239.97 158.293 L2247.61 158.293 L2247.61 131.928 L2239.3 133.595 L2239.3 129.335 L2247.56 127.669 L2252.24 127.669 L2252.24 158.293 L2259.88 158.293 L2259.88 162.229 L2239.97 162.229 L2239.97 158.293 Z" fill="#000000" fill-rule="nonzero" fill-opacity="1" /></svg>
