<?xml version="1.0" encoding="utf-8"?>
<svg xmlns="http://www.w3.org/2000/svg" xmlns:xlink="http://www.w3.org/1999/xlink" width="600" height="400" viewBox="0 0 2400 1600">
<defs>
  <clipPath id="clip860">
    <rect x="0" y="0" width="2400" height="1600"/>
  </clipPath>
</defs>
<path clip-path="url(#clip860)" d="M0 1600 L2400 1600 L2400 0 L0 0  Z" fill="#ffffff" fill-rule="evenodd" fill-opacity="1"/>
<defs>
  <clipPath id="clip861">
    <rect x="480" y="0" width="1681" height="1600"/>
  </clipPath>
</defs>
<path clip-path="url(#clip860)" d="M546.209 1486.45 L1985.41 1486.45 L1985.41 47.2441 L546.209 47.2441  Z" fill="#ffffff" fill-rule="evenodd" fill-opacity="1"/>
<defs>
  <clipPath id="clip862">
    <rect x="546" y="47" width="1440" height="1440"/>
  </clipPath>
</defs>
<polyline clip-path="url(#clip862)" style="stroke:#000000; stroke-linecap:round; stroke-linejoin:round; stroke-width:2; stroke-opacity:0.1; fill:none" points="546.209,1486.45 546.209,47.2441 "/>
<polyline clip-path="url(#clip862)" style="stroke:#000000; stroke-linecap:round; stroke-linejoin:round; stroke-width:2; stroke-opacity:0.1; fill:none" points="906.01,1486.45 906.01,47.2441 "/>
<polyline clip-path="url(#clip862)" style="stroke:#000000; stroke-linecap:round; stroke-linejoin:round; stroke-width:2; stroke-opacity:0.1; fill:none" points="1265.81,1486.45 1265.81,47.2441 "/>
<polyline clip-path="url(#clip862)" style="stroke:#000000; stroke-linecap:round; stroke-linejoin:round; stroke-width:2; stroke-opacity:0.1; fill:none" points="1625.61,1486.45 1625.61,47.2441 "/>
<polyline clip-path="url(#clip862)" style="stroke:#000000; stroke-linecap:round; stroke-linejoin:round; stroke-width:2; stroke-opacity:0.1; fill:none" points="1985.41,1486.45 1985.41,47.2441 "/>
<polyline clip-path="url(#clip860)" style="stroke:#000000; stroke-linecap:round; stroke-linejoin:round; stroke-width:4; stroke-opacity:1; fill:none" points="546.209,1486.45 1985.41,1486.45 "/>
<polyline clip-path="url(#clip860)" style="stroke:#000000; stroke-linecap:round; stroke-linejoin:round; stroke-width:4; stroke-opacity:1; fill:none" points="546.209,1486.45 546.209,1467.55 "/>
<polyline clip-path="url(#clip860)" style="stroke:#000000; stroke-linecap:round; stroke-linejoin:round; stroke-width:4; stroke-opacity:1; fill:none" points="906.01,1486.45 906.01,1467.55 "/>
<polyline clip-path="url(#clip860)" style="stroke:#000000; stroke-linecap:round; stroke-linejoin:round; stroke-width:4; stroke-opacity:1; fill:none" points="1265.81,1486.45 1265.81,1467.55 "/>
<polyline clip-path="url(#clip860)" style="stroke:#000000; stroke-linecap:round; stroke-linejoin:round; stroke-width:4; stroke-opacity:1; fill:none" points="1625.61,1486.45 1625.61,1467.55 "/>
<polyline clip-path="url(#clip860)" style="stroke:#000000; stroke-linecap:round; stroke-linejoin:round; stroke-width:4; stroke-opacity:1; fill:none" points="1985.41,1486.45 1985.41,1467.55 "/>
<path clip-path="url(#clip860)" d="M500.272 1532.02 L529.948 1532.02 L529.948 1535.95 L500.272 1535.95 L500.272 1532.02 Z" fill="#000000" fill-rule="nonzero" fill-opacity="1" /><path clip-path="url(#clip860)" d="M540.851 1544.91 L548.489 1544.91 L548.489 1518.55 L540.179 1520.21 L540.179 1515.95 L548.443 1514.29 L553.119 1514.29 L553.119 1544.91 L560.758 1544.91 L560.758 1548.85 L540.851 1548.85 L540.851 1544.91 Z" fill="#000000" fill-rule="nonzero" fill-opacity="1" /><path clip-path="url(#clip860)" d="M580.202 1517.37 Q576.591 1517.37 574.762 1520.93 Q572.957 1524.47 572.957 1531.6 Q572.957 1538.71 574.762 1542.27 Q576.591 1545.82 580.202 1545.82 Q583.836 1545.82 585.642 1542.27 Q587.471 1538.71 587.471 1531.6 Q587.471 1524.47 585.642 1520.93 Q583.836 1517.37 580.202 1517.37 M580.202 1513.66 Q586.012 1513.66 589.068 1518.27 Q592.147 1522.85 592.147 1531.6 Q592.147 1540.33 589.068 1544.94 Q586.012 1549.52 580.202 1549.52 Q574.392 1549.52 571.313 1544.94 Q568.258 1540.33 568.258 1531.6 Q568.258 1522.85 571.313 1518.27 Q574.392 1513.66 580.202 1513.66 Z" fill="#000000" fill-rule="nonzero" fill-opacity="1" /><path clip-path="url(#clip860)" d="M875.652 1532.02 L905.327 1532.02 L905.327 1535.95 L875.652 1535.95 L875.652 1532.02 Z" fill="#000000" fill-rule="nonzero" fill-opacity="1" /><path clip-path="url(#clip860)" d="M915.466 1514.29 L933.823 1514.29 L933.823 1518.22 L919.749 1518.22 L919.749 1526.7 Q920.767 1526.35 921.786 1526.19 Q922.804 1526 923.823 1526 Q929.61 1526 932.989 1529.17 Q936.369 1532.34 936.369 1537.76 Q936.369 1543.34 932.897 1546.44 Q929.425 1549.52 923.105 1549.52 Q920.929 1549.52 918.661 1549.15 Q916.415 1548.78 914.008 1548.04 L914.008 1543.34 Q916.091 1544.47 918.313 1545.03 Q920.536 1545.58 923.013 1545.58 Q927.017 1545.58 929.355 1543.48 Q931.693 1541.37 931.693 1537.76 Q931.693 1534.15 929.355 1532.04 Q927.017 1529.94 923.013 1529.94 Q921.138 1529.94 919.263 1530.35 Q917.411 1530.77 915.466 1531.65 L915.466 1514.29 Z" fill="#000000" fill-rule="nonzero" fill-opacity="1" /><path clip-path="url(#clip860)" d="M1265.81 1517.37 Q1262.2 1517.37 1260.37 1520.93 Q1258.57 1524.47 1258.57 1531.6 Q1258.57 1538.71 1260.37 1542.27 Q1262.2 1545.82 1265.81 1545.82 Q1269.45 1545.82 1271.25 1542.27 Q1273.08 1538.71 1273.08 1531.6 Q1273.08 1524.47 1271.25 1520.93 Q1269.45 1517.37 1265.81 1517.37 M1265.81 1513.66 Q1271.62 1513.66 1274.68 1518.27 Q1277.76 1522.85 1277.76 1531.6 Q1277.76 1540.33 1274.68 1544.94 Q1271.62 1549.52 1265.81 1549.52 Q1260 1549.52 1256.92 1544.94 Q1253.87 1540.33 1253.87 1531.6 Q1253.87 1522.85 1256.92 1518.27 Q1260 1513.66 1265.81 1513.66 Z" fill="#000000" fill-rule="nonzero" fill-opacity="1" /><path clip-path="url(#clip860)" d="M1615.89 1514.29 L1634.25 1514.29 L1634.25 1518.22 L1620.17 1518.22 L1620.17 1526.7 Q1621.19 1526.35 1622.21 1526.19 Q1623.23 1526 1624.25 1526 Q1630.03 1526 1633.41 1529.17 Q1636.79 1532.34 1636.79 1537.76 Q1636.79 1543.34 1633.32 1546.44 Q1629.85 1549.52 1623.53 1549.52 Q1621.35 1549.52 1619.08 1549.15 Q1616.84 1548.78 1614.43 1548.04 L1614.43 1543.34 Q1616.52 1544.47 1618.74 1545.03 Q1620.96 1545.58 1623.44 1545.58 Q1627.44 1545.58 1629.78 1543.48 Q1632.12 1541.37 1632.12 1537.76 Q1632.12 1534.15 1629.78 1532.04 Q1627.44 1529.94 1623.44 1529.94 Q1621.56 1529.94 1619.69 1530.35 Q1617.83 1530.77 1615.89 1531.65 L1615.89 1514.29 Z" fill="#000000" fill-rule="nonzero" fill-opacity="1" /><path clip-path="url(#clip860)" d="M1960.1 1544.91 L1967.74 1544.91 L1967.74 1518.55 L1959.43 1520.21 L1959.43 1515.95 L1967.69 1514.29 L1972.37 1514.29 L1972.37 1544.91 L1980.01 1544.91 L1980.01 1548.85 L1960.1 1548.85 L1960.1 1544.91 Z" fill="#000000" fill-rule="nonzero" fill-opacity="1" /><path clip-path="url(#clip860)" d="M1999.45 1517.37 Q1995.84 1517.37 1994.01 1520.93 Q1992.21 1524.47 1992.21 1531.6 Q1992.21 1538.71 1994.01 1542.27 Q1995.84 1545.82 1999.45 1545.82 Q2003.09 1545.82 2004.89 1542.27 Q2006.72 1538.71 2006.72 1531.6 Q2006.72 1524.47 2004.89 1520.93 Q2003.09 1517.37 1999.45 1517.37 M1999.45 1513.66 Q2005.26 1513.66 2008.32 1518.27 Q2011.4 1522.85 2011.4 1531.6 Q2011.4 1540.33 2008.32 1544.94 Q2005.26 1549.52 1999.45 1549.52 Q1993.64 1549.52 1990.56 1544.94 Q1987.51 1540.33 1987.51 1531.6 Q1987.51 1522.85 1990.56 1518.27 Q1993.64 1513.66 1999.45 1513.66 Z" fill="#000000" fill-rule="nonzero" fill-opacity="1" /><polyline clip-path="url(#clip862)" style="stroke:#000000; stroke-linecap:round; stroke-linejoin:round; stroke-width:2; stroke-opacity:0.1; fill:none" points="546.209,1486.45 1985.41,1486.45 "/>
<polyline clip-path="url(#clip862)" style="stroke:#000000; stroke-linecap:round; stroke-linejoin:round; stroke-width:2; stroke-opacity:0.1; fill:none" points="546.209,1126.65 1985.41,1126.65 "/>
<polyline clip-path="url(#clip862)" style="stroke:#000000; stroke-linecap:round; stroke-linejoin:round; stroke-width:2; stroke-opacity:0.1; fill:none" points="546.209,766.846 1985.41,766.846 "/>
<polyline clip-path="url(#clip862)" style="stroke:#000000; stroke-linecap:round; stroke-linejoin:round; stroke-width:2; stroke-opacity:0.1; fill:none" points="546.209,407.045 1985.41,407.045 "/>
<polyline clip-path="url(#clip862)" style="stroke:#000000; stroke-linecap:round; stroke-linejoin:round; stroke-width:2; stroke-opacity:0.1; fill:none" points="546.209,47.2441 1985.41,47.2441 "/>
<polyline clip-path="url(#clip860)" style="stroke:#000000; stroke-linecap:round; stroke-linejoin:round; stroke-width:4; stroke-opacity:1; fill:none" points="546.209,1486.45 546.209,47.2441 "/>
<polyline clip-path="url(#clip860)" style="stroke:#000000; stroke-linecap:round; stroke-linejoin:round; stroke-width:4; stroke-opacity:1; fill:none" points="546.209,1486.45 558.72,1486.45 "/>
<polyline clip-path="url(#clip860)" style="stroke:#000000; stroke-linecap:round; stroke-linejoin:round; stroke-width:4; stroke-opacity:1; fill:none" points="546.209,1126.65 558.72,1126.65 "/>
<polyline clip-path="url(#clip860)" style="stroke:#000000; stroke-linecap:round; stroke-linejoin:round; stroke-width:4; stroke-opacity:1; fill:none" points="546.209,766.846 558.72,766.846 "/>
<polyline clip-path="url(#clip860)" style="stroke:#000000; stroke-linecap:round; stroke-linejoin:round; stroke-width:4; stroke-opacity:1; fill:none" points="546.209,407.045 558.72,407.045 "/>
<polyline clip-path="url(#clip860)" style="stroke:#000000; stroke-linecap:round; stroke-linejoin:round; stroke-width:4; stroke-opacity:1; fill:none" points="546.209,47.2441 558.72,47.2441 "/>
<path clip-path="url(#clip860)" d="M418.335 1486.9 L448.011 1486.9 L448.011 1490.83 L418.335 1490.83 L418.335 1486.9 Z" fill="#000000" fill-rule="nonzero" fill-opacity="1" /><path clip-path="url(#clip860)" d="M458.913 1499.79 L466.552 1499.79 L466.552 1473.43 L458.242 1475.09 L458.242 1470.83 L466.506 1469.17 L471.182 1469.17 L471.182 1499.79 L478.821 1499.79 L478.821 1503.73 L458.913 1503.73 L458.913 1499.79 Z" fill="#000000" fill-rule="nonzero" fill-opacity="1" /><path clip-path="url(#clip860)" d="M498.265 1472.25 Q494.654 1472.25 492.825 1475.81 Q491.02 1479.35 491.02 1486.48 Q491.02 1493.59 492.825 1497.15 Q494.654 1500.7 498.265 1500.7 Q501.899 1500.7 503.705 1497.15 Q505.533 1493.59 505.533 1486.48 Q505.533 1479.35 503.705 1475.81 Q501.899 1472.25 498.265 1472.25 M498.265 1468.54 Q504.075 1468.54 507.131 1473.15 Q510.209 1477.73 510.209 1486.48 Q510.209 1495.21 507.131 1499.82 Q504.075 1504.4 498.265 1504.4 Q492.455 1504.4 489.376 1499.82 Q486.321 1495.21 486.321 1486.48 Q486.321 1477.73 489.376 1473.15 Q492.455 1468.54 498.265 1468.54 Z" fill="#000000" fill-rule="nonzero" fill-opacity="1" /><path clip-path="url(#clip860)" d="M449.492 1127.1 L479.168 1127.1 L479.168 1131.03 L449.492 1131.03 L449.492 1127.1 Z" fill="#000000" fill-rule="nonzero" fill-opacity="1" /><path clip-path="url(#clip860)" d="M489.307 1109.37 L507.663 1109.37 L507.663 1113.3 L493.589 1113.3 L493.589 1121.77 Q494.608 1121.43 495.626 1121.27 Q496.645 1121.08 497.663 1121.08 Q503.45 1121.08 506.83 1124.25 Q510.209 1127.42 510.209 1132.84 Q510.209 1138.42 506.737 1141.52 Q503.265 1144.6 496.946 1144.6 Q494.77 1144.6 492.501 1144.23 Q490.256 1143.86 487.848 1143.12 L487.848 1138.42 Q489.932 1139.55 492.154 1140.11 Q494.376 1140.66 496.853 1140.66 Q500.858 1140.66 503.196 1138.56 Q505.533 1136.45 505.533 1132.84 Q505.533 1129.23 503.196 1127.12 Q500.858 1125.01 496.853 1125.01 Q494.978 1125.01 493.103 1125.43 Q491.251 1125.85 489.307 1126.73 L489.307 1109.37 Z" fill="#000000" fill-rule="nonzero" fill-opacity="1" /><path clip-path="url(#clip860)" d="M498.265 752.645 Q494.654 752.645 492.825 756.209 Q491.02 759.751 491.02 766.881 Q491.02 773.987 492.825 777.552 Q494.654 781.094 498.265 781.094 Q501.899 781.094 503.705 777.552 Q505.533 773.987 505.533 766.881 Q505.533 759.751 503.705 756.209 Q501.899 752.645 498.265 752.645 M498.265 748.941 Q504.075 748.941 507.131 753.547 Q510.209 758.131 510.209 766.881 Q510.209 775.608 507.131 780.214 Q504.075 784.797 498.265 784.797 Q492.455 784.797 489.376 780.214 Q486.321 775.608 486.321 766.881 Q486.321 758.131 489.376 753.547 Q492.455 748.941 498.265 748.941 Z" fill="#000000" fill-rule="nonzero" fill-opacity="1" /><path clip-path="url(#clip860)" d="M489.307 389.765 L507.663 389.765 L507.663 393.7 L493.589 393.7 L493.589 402.172 Q494.608 401.825 495.626 401.663 Q496.645 401.478 497.663 401.478 Q503.45 401.478 506.83 404.649 Q510.209 407.82 510.209 413.237 Q510.209 418.816 506.737 421.918 Q503.265 424.996 496.946 424.996 Q494.77 424.996 492.501 424.626 Q490.256 424.256 487.848 423.515 L487.848 418.816 Q489.932 419.95 492.154 420.506 Q494.376 421.061 496.853 421.061 Q500.858 421.061 503.196 418.955 Q505.533 416.848 505.533 413.237 Q505.533 409.626 503.196 407.52 Q500.858 405.413 496.853 405.413 Q494.978 405.413 493.103 405.83 Q491.251 406.246 489.307 407.126 L489.307 389.765 Z" fill="#000000" fill-rule="nonzero" fill-opacity="1" /><path clip-path="url(#clip860)" d="M458.913 60.5889 L466.552 60.5889 L466.552 34.2233 L458.242 35.89 L458.242 31.6308 L466.506 29.9641 L471.182 29.9641 L471.182 60.5889 L478.821 60.5889 L478.821 64.5241 L458.913 64.5241 L458.913 60.5889 Z" fill="#000000" fill-rule="nonzero" fill-opacity="1" /><path clip-path="url(#clip860)" d="M498.265 33.0428 Q494.654 33.0428 492.825 36.6076 Q491.02 40.1492 491.02 47.2788 Q491.02 54.3853 492.825 57.9501 Q494.654 61.4917 498.265 61.4917 Q501.899 61.4917 503.705 57.9501 Q505.533 54.3853 505.533 47.2788 Q505.533 40.1492 503.705 36.6076 Q501.899 33.0428 498.265 33.0428 M498.265 29.3391 Q504.075 29.3391 507.131 33.9456 Q510.209 38.5289 510.209 47.2788 Q510.209 56.0056 507.131 60.6121 Q504.075 65.1954 498.265 65.1954 Q492.455 65.1954 489.376 60.6121 Q486.321 56.0056 486.321 47.2788 Q486.321 38.5289 489.376 33.9456 Q492.455 29.3391 498.265 29.3391 Z" fill="#000000" fill-rule="nonzero" fill-opacity="1" /><polyline clip-path="url(#clip862)" style="stroke:#009af9; stroke-linecap:round; stroke-linejoin:round; stroke-width:4; stroke-opacity:1; fill:none" points="1441.36,892.492 1460.45,860.234 1473.67,825.16 1480.62,788.329 1481.1,750.85 1475.09,713.853 1462.77,678.454 1444.51,645.719 1420.86,616.636 1392.55,592.081 1360.41,572.794 1325.42,559.357 1288.63,552.175 1251.15,551.464 1214.12,557.245 1178.64,569.346 1145.8,587.399 1116.57,610.863 1091.84,639.028 1072.35,671.047 1058.7,705.953 1051.29,742.695 1050.34,780.165 1055.89,817.234 1067.77,852.784 1085.62,885.743 1108.9,915.118 1136.92,940.023 1168.81,959.707 1203.63,973.578 1240.33,981.217 1277.79,982.394 1314.89,977.073 1350.52,965.414 1383.59,947.77 1413.11,924.672 1438.18,896.816 1458.07,865.042 1472.15,830.308 1480.02,793.66 1481.43,756.205 1476.34,719.07 1464.9,683.376 1447.46,650.197 1424.55,620.536 1396.85,595.284 1365.2,575.205 1330.55,560.902 1293.96,552.808 1256.51,551.166 1219.34,556.026 1183.58,567.24 1150.29,584.473 1120.49,607.202 1095.07,634.744 1074.79,666.269 1060.27,700.825 1051.95,737.372 1050.08,774.807 1054.71,812.002 1065.7,847.836 1082.72,881.228 1105.27,911.173 1132.65,936.766 1164.05,957.238 1198.51,971.969 1235.01,980.518 1272.43,982.625 1309.65,978.228 1345.56,967.458 1379.05,950.641 1409.14,928.283 1434.9,901.059 1455.57,869.789 1470.51,835.416 1479.29,798.975 1481.63,761.566 1477.46,724.317 1466.91,688.349 1450.31,654.747 1428.14,624.525 1401.07,598.593 1369.93,577.734 1335.65,562.575 1299.27,553.573 1261.87,551.001 1224.6,554.936 1188.57,565.259 1154.86,581.658 1124.5,603.64 1098.4,630.542 1077.35,661.553 1061.98,695.738 1052.75,732.067 1049.95,769.444 1053.65,806.742 1063.75,842.838 1079.94,876.643 1101.73,907.139 1128.47,933.405 1159.35,954.65 1193.44,970.234 1229.71,979.686 1267.07,982.723 1304.39,979.252 1340.55,969.378 1374.45,953.398 1405.08,931.795 1431.51,905.219 1452.95,874.472 1468.75,840.481 1478.42,804.27 1481.69,766.931 1478.45,729.589 1468.8,693.37 1453.03,659.367 1431.62,628.603 1405.21,602.007 1374.6,580.379 1340.71,564.373 1304.56,554.471 1267.24,550.97 1229.88,553.977 1193.6,563.401 1159.5,578.958 1128.6,600.179 1101.84,626.424 1080.02,656.902 1063.81,690.695 1053.68,726.783 1049.95,764.079 1052.72,801.458 1061.92,837.794 1077.27,871.991 1098.3,903.018 1124.37,929.94 1154.72,951.946 1188.41,968.373 1224.43,978.724 1261.7,982.687 1299.1,980.145 1335.49,971.172 1369.78,956.04 1400.94,935.205 1428.02,909.294 1450.22,879.09 1466.85,845.501 1477.43,809.542 1481.62,772.295 1479.31,734.885 1470.57,698.437 1455.65,664.052 1435.01,632.766 1409.26,605.522 1379.2,583.14 1345.71,566.297 1309.82,555.499 1272.6,551.072 1235.18,553.15 1198.68,561.67 1164.2,576.374 1132.79,596.821 1105.38,622.393 1082.81,652.32 1065.76,685.699 1054.74,721.524 1050.08,758.715 1051.93,796.152 1060.22,832.705 1074.71,867.273 1094.96,898.813 1120.36,926.375 1150.15,949.129 1183.42,966.387 1219.18,977.63 1256.34,982.519 1293.79,980.906 1330.39,972.841 1365.05,958.565 1396.71,938.511 1424.43,913.281 1447.37,883.637 1464.84,850.473 1476.3,814.787 1481.42,777.657 1480.04,740.2 1472.2,703.547 1458.14,668.802 1438.29,637.012 1413.23,609.136 1383.73,586.015 1350.67,568.344 1315.06,556.658 1277.96,551.308 1240.5,552.455 1203.8,560.065 1168.96,573.908 1137.05,593.568 1109.02,618.451 1085.72,647.808 1067.84,680.753 1055.93,716.293 1050.35,753.357 1051.27,790.828 1058.65,827.576 1072.28,862.493 1091.74,894.527 1116.45,922.712 1145.66,946.198 1178.49,964.278 1213.96,976.406 1250.98,982.217 1288.46,981.535 1325.25,974.382 1360.25,960.972 1392.41,941.711 1420.75,917.178 1444.41,888.113 1462.7,855.393 1475.04,820.003 1481.09,783.011 1480.64,745.532 1473.71,708.695 1460.52,673.611 1441.46,641.338 1417.1,612.848 1388.19,589.001 1355.58,570.514 1320.27,557.947 1283.31,551.676 1245.83,551.892 1208.95,558.588 1173.79,571.561 1141.4,590.422 1112.76,614.601 1088.73,643.369 1070.04,675.86 1057.25,711.093 1050.75,748.007 1050.74,785.489 1057.2,822.409 1069.96,857.654 1088.62,890.162 1112.62,918.952 1141.24,943.157 1173.61,962.047 1208.76,975.053 1245.64,981.782 1283.12,982.032 1320.08,975.795 1355.4,963.259 1388.02,944.803 1416.96,920.981 1441.34,892.514 1460.44,860.258 1473.66,825.186 1480.62,788.356 1481.1,750.877 1475.09,713.879 1462.78,678.478 1444.52,645.742 1420.88,616.655 1392.57,592.097 1360.43,572.806 1325.44,559.364 1288.66,552.177 1251.18,551.462 1214.15,557.239 1178.67,569.335 1145.82,587.385 1116.59,610.844 1091.85,639.007 1072.36,671.023 1058.7,705.928 1051.29,742.669 1050.34,780.139 1055.89,817.208 1067.76,852.759 1085.61,885.72 1108.89,915.098 1136.89,940.007 1168.79,959.695 1203.61,973.571 1240.3,981.214 1277.77,982.395 1314.87,977.079 1350.49,965.425 1383.56,947.785 1413.09,924.69 1438.17,896.837 1458.05,865.065 1472.15,830.333 1480.02,793.687 1481.43,756.232 1476.34,719.096 1464.91,683.4 1447.48,650.22 1424.57,620.555 1396.87,595.3 1365.22,575.217 1330.58,560.91 1293.98,552.811 1256.54,551.165 1219.37,556.02 1183.6,567.23 1150.32,584.458 1120.51,607.184 1095.08,634.723 1074.8,666.245 1060.28,700.8 1051.96,737.345 1050.08,774.78 1054.7,811.976 1065.69,847.811 1082.71,881.206 1105.25,911.153 1132.63,936.75 1164.03,957.225 1198.49,971.961 1234.98,980.514 1272.41,982.626 1309.63,978.233 1345.53,967.468 1379.03,950.655 1409.12,928.301 1434.88,901.08 1455.55,869.812 1470.5,835.441 1479.28,799.002 1481.63,761.593 1477.47,724.343 1466.92,688.374 1450.32,654.77 1428.15,624.545 1401.09,598.61 1369.95,577.746 1335.68,562.583 1299.29,553.578 1261.9,551.001 1224.62,554.931 1188.59,565.249 1154.88,581.645 1124.52,603.623 1098.42,630.522 1077.36,661.53 1061.99,695.713 1052.75,732.04 1049.95,769.417 1053.64,806.716 1063.74,842.813 1079.92,876.62 1101.71,907.118 1128.45,933.388 1159.33,954.637 1193.41,970.225 1229.68,979.682 1267.04,982.723 1304.36,979.257 1340.52,969.387 1374.43,953.411 1405.06,931.812 1431.5,905.24 1452.94,874.496 1468.74,840.506 1478.42,804.296 1481.69,766.958 1478.46,729.615 1468.81,693.396 1453.05,659.39 1431.64,628.623 1405.23,602.024 1374.62,580.393 1340.73,564.382 1304.58,554.475 1267.26,550.97 1229.9,553.973 1193.62,563.392 1159.52,578.945 1128.62,600.162 1101.86,626.404 1080.04,656.88 1063.82,690.67 1053.69,726.757 1049.95,764.052 1052.72,801.431 1061.91,837.768 1077.25,871.967 1098.28,902.997 1124.35,929.923 1154.69,951.933 1188.38,968.363 1224.4,978.718 1261.68,982.687 1299.07,980.149 1335.47,971.181 1369.76,956.053 1400.92,935.221 1428.01,909.314 1450.2,879.112 1466.84,845.526 "/>
<polyline clip-path="url(#clip862)" style="stroke:#e26f46; stroke-linecap:round; stroke-linejoin:round; stroke-width:4; stroke-opacity:1; fill:none" points="1553.65,766.846 1553.2,750.775 1551.86,734.754 1549.62,718.834 1546.5,703.063 1542.5,687.491 1537.63,672.167 1531.92,657.138 1525.38,642.451 1518.03,628.152 1509.9,614.286 1501,600.896 1491.37,588.024 1481.03,575.71 1470.02,563.992 1458.38,552.906 1446.13,542.489 1433.33,532.771 1420,523.783 1406.18,515.554 1391.93,508.108 1377.29,501.47 1362.3,495.66 1347.01,490.696 1331.47,486.593 1315.72,483.364 1299.81,481.02 1283.8,479.568 1267.73,479.012 1251.66,479.353 1235.63,480.592 1219.69,482.724 1203.9,485.742 1188.3,489.637 1172.95,494.397 1157.88,500.007 1143.15,506.449 1128.8,513.704 1114.88,521.748 1101.43,530.557 1088.5,540.103 1076.11,550.357 1064.32,561.286 1053.16,572.856 1042.66,585.032 1032.86,597.774 1023.78,611.044 1015.46,624.8 1007.92,639 1001.18,653.598 995.275,668.549 990.208,683.807 986.002,699.325 982.669,715.052 980.219,730.942 978.659,746.943 977.996,763.007 978.231,779.082 979.362,795.119 981.388,811.068 984.301,826.88 988.092,842.503 992.749,857.891 998.258,872.995 1004.6,887.768 1011.76,902.163 1019.71,916.136 1028.43,929.644 1037.89,942.643 1048.06,955.094 1058.91,966.958 1070.41,978.198 1082.51,988.778 1095.19,998.666 1108.4,1007.83 1122.1,1016.24 1136.25,1023.88 1150.8,1030.71 1165.71,1036.72 1180.94,1041.89 1196.43,1046.2 1212.13,1049.64 1228,1052.19 1243.99,1053.86 1260.05,1054.63 1276.13,1054.5 1292.17,1053.48 1308.14,1051.56 1323.97,1048.75 1339.61,1045.06 1355.03,1040.51 1370.17,1035.1 1384.99,1028.86 1399.43,1021.79 1413.46,1013.94 1427.02,1005.31 1440.08,995.934 1452.6,985.846 1464.54,975.075 1475.86,963.655 1486.52,951.621 1496.49,939.01 1505.74,925.862 1514.24,912.218 1521.97,898.121 1528.9,883.614 1535.01,868.743 1540.28,853.553 1544.69,838.094 1548.24,822.412 1550.9,806.557 1552.67,790.577 1553.55,774.524 1553.53,758.447 1552.61,742.396 1550.8,726.421 1548.1,710.573 1544.52,694.9 1540.06,679.451 1534.76,664.275 1528.61,649.419 1521.64,634.93 1513.88,620.852 1505.34,607.229 1496.06,594.104 1486.05,581.519 1475.36,569.511 1464.02,558.119 1452.05,547.379 1439.51,537.322 1426.42,527.982 1412.84,519.388 1398.79,511.565 1384.33,504.538 1369.5,498.33 1354.35,492.96 1338.92,488.444 1323.26,484.796 1307.42,482.029 1291.46,480.15 1275.41,479.165 1259.33,479.078 1243.27,479.889 1227.29,481.595 1211.42,484.191 1195.73,487.668 1180.25,492.017 1165.04,497.223 1150.14,503.27 1135.6,510.139 1121.47,517.809 1107.8,526.256 1094.61,535.454 1081.96,545.374 1069.88,555.984 1058.41,567.253 1047.59,579.144 1037.45,591.62 1028.02,604.644 1019.34,618.173 1011.42,632.166 1004.3,646.579 997.993,661.368 992.522,676.485 987.903,691.885 984.151,707.518 981.278,723.336 979.293,739.29 978.201,755.33 978.007,771.406 978.71,787.468 980.309,803.466 982.799,819.349 986.172,835.068 990.417,850.575 995.522,865.82 1001.47,880.757 1008.24,895.338 1015.82,909.518 1024.17,923.254 1033.28,936.501 1043.12,949.219 1053.65,961.368 1064.84,972.91 1076.66,983.81 1089.07,994.032 1102.03,1003.55 1115.5,1012.32 1129.44,1020.33 1143.8,1027.55 1158.55,1033.95 1173.63,1039.53 1189,1044.25 1204.61,1048.1 1220.4,1051.08 1236.35,1053.17 1252.38,1054.37 1268.45,1054.67 1284.52,1054.08 1300.53,1052.59 1316.43,1050.2 1332.17,1046.93 1347.7,1042.79 1362.98,1037.79 1377.96,1031.94 1392.58,1025.27 1406.81,1017.79 1420.6,1009.52 1433.91,1000.5 1446.69,990.751 1458.91,980.302 1470.53,969.188 1481.51,957.442 1491.81,945.102 1501.41,932.206 1510.28,918.794 1518.38,904.907 1525.7,890.59 1532.2,875.887 1537.87,860.844 1542.7,845.508 1546.66,829.926 1549.74,814.147 1551.94,798.221 1553.24,782.197 1553.65,766.125 1553.16,750.055 1551.78,734.038 1549.5,718.123 1546.34,702.36 1542.3,686.798 1537.4,671.486 1531.65,656.471 1525.07,641.801 1517.69,627.521 1509.51,613.675 1500.58,600.308 1490.92,587.46 1480.55,575.171 1469.51,563.481 1457.84,552.425 1445.57,542.038 1432.74,532.352 1419.39,523.398 1405.55,515.203 1391.29,507.793 1376.63,501.192 1361.62,495.419 1346.32,490.493 1330.76,486.429 1315,483.24 1299.09,480.936 1283.08,479.524 1267.01,479.008 1250.94,479.39 1234.91,480.669 1218.98,482.84 1203.2,485.898 1187.61,489.832 1172.26,494.63 1157.21,500.278 1142.5,506.757 1128.17,514.048 1114.27,522.127 1100.84,530.97 1087.93,540.548 1075.57,550.833 1063.81,561.791 1052.68,573.389 1042.21,585.591 1032.44,598.358 1023.39,611.651 1015.11,625.428 1007.6,639.646 1000.9,654.261 995.029,669.227 990.001,684.498 985.834,700.026 982.54,715.762 980.13,731.657 978.61,747.663 977.987,763.728 978.262,779.803 979.434,795.837 981.5,811.781 984.452,827.585 988.282,843.199 992.978,858.575 998.525,873.665 1004.91,888.422 1012.1,902.799 1020.09,916.752 1028.84,930.238 1038.33,943.214 1048.53,955.639 1059.41,967.476 1070.94,978.687 1083.07,989.237 1095.77,999.093 1109,1008.22 1122.72,1016.6 1136.89,1024.2 1151.46,1031 1166.39,1036.97 1181.63,1042.1 1197.13,1046.37 1212.84,1049.77 1228.72,1052.29 1244.71,1053.91 1260.77,1054.64 1276.85,1054.48 1292.89,1053.41 1308.85,1051.45 1324.67,1048.6 1340.31,1044.88 1355.72,1040.29 1370.85,1034.84 1385.64,1028.56 1400.07,1021.46 1414.08,1013.56 1427.62,1004.9 1440.66,995.496 1453.15,985.377 1465.06,974.577 1476.35,963.128 1486.98,951.067 1496.92,938.432 1506.14,925.261 1514.61,911.595 1522.3,897.479 1529.2,882.954 1535.27,868.068 1540.5,852.865 1544.87,837.395 1548.38,821.704 1551,805.842 1552.73,789.859 1553.57,773.803 1553.51,757.726 1552.55,741.678 1550.7,725.707 1547.96,709.866 1544.33,694.202 1539.84,678.764 1534.5,663.602 1528.32,648.761 1521.31,634.289 1513.51,620.231 1504.94,606.629 1495.62,593.528 1485.59,580.968 1474.87,568.987 1463.49,557.623 1451.5,546.913 1438.93,536.888 1425.83,527.581 1412.22,519.02 1398.15,511.232 1383.67,504.242 1368.83,498.071 1353.66,492.739 1338.22,488.261 1322.55,484.653 1306.71,481.925 1290.74,480.086 1274.69,479.142 1258.61,479.095 1242.56,479.946 1226.57,481.692 1210.71,484.328 1195.03,487.845 1179.56,492.232 1164.36,497.476 1149.48,503.56 1134.96,510.466 1120.85,518.172 1107.19,526.653 1094.03,535.884 1081.4,545.835 1069.35,556.476 1057.91,567.773 1047.12,579.691 1037.01,592.193 1027.62,605.24 1018.97,618.791 1011.09,632.804 1004,647.235 997.73,662.039 992.296,677.17 987.716,692.581 984.003,708.224 981.17,724.049 979.224,740.008 978.173,756.051 978.019,772.128 978.763,788.188 980.402,804.181 982.932,820.058 986.344,835.769 990.628,851.265 "/>
<polyline clip-path="url(#clip862)" style="stroke:#3da44d; stroke-linecap:round; stroke-linejoin:round; stroke-width:4; stroke-opacity:1; fill:none" points="1625.61,766.846 1625.44,755.84 1624.94,744.844 1624.1,733.868 1622.92,722.923 1621.41,712.02 1619.57,701.168 1617.39,690.377 1614.89,679.658 1612.06,669.02 1608.9,658.474 1605.43,648.03 1601.63,637.697 1597.53,627.484 1593.11,617.402 1588.38,607.46 1583.36,597.667 1578.03,588.032 1572.42,578.565 1566.51,569.274 1560.33,560.168 1553.87,551.255 1547.14,542.545 1540.15,534.044 1532.9,525.761 1525.4,517.703 1517.65,509.879 1509.68,502.295 1501.47,494.959 1493.04,487.878 1484.4,481.057 1475.56,474.504 1466.52,468.225 1457.29,462.225 1447.88,456.511 1438.3,451.086 1428.56,445.958 1418.67,441.129 1408.63,436.606 1398.46,432.391 1388.17,428.49 1377.76,424.905 1367.25,421.641 1356.64,418.699 1345.95,416.084 1335.18,413.796 1324.35,411.839 1313.46,410.215 1302.53,408.924 1291.57,407.968 1280.58,407.348 1269.57,407.065 1258.56,407.118 1247.56,407.508 1236.58,408.234 1225.62,409.296 1214.71,410.693 1203.83,412.423 1193.02,414.485 1182.28,416.876 1171.61,419.595 1161.03,422.64 1150.55,426.006 1140.18,429.691 1129.92,433.692 1119.8,438.005 1109.81,442.625 1099.96,447.549 1090.27,452.772 1080.75,458.289 1071.39,464.094 1062.22,470.183 1053.24,476.55 1044.46,483.188 1035.89,490.092 1027.53,497.255 1019.4,504.67 1011.49,512.331 1003.82,520.23 996.403,528.359 989.234,536.712 982.323,545.28 975.678,554.056 969.305,563.031 963.209,572.196 957.396,581.544 951.872,591.065 946.642,600.751 941.71,610.592 937.082,620.58 932.762,630.704 928.753,640.956 925.06,651.325 921.685,661.803 918.633,672.379 915.906,683.044 913.506,693.786 911.436,704.598 909.698,715.467 908.293,726.385 907.222,737.34 906.487,748.324 906.089,759.324 906.027,770.331 906.302,781.336 906.914,792.326 907.861,803.293 909.144,814.226 910.76,825.114 912.708,835.948 914.988,846.717 917.595,857.412 920.528,868.021 923.785,878.536 927.362,888.946 931.255,899.243 935.462,909.415 939.977,919.453 944.798,929.349 949.919,939.093 955.336,948.676 961.044,958.088 967.037,967.322 973.309,976.367 979.855,985.217 986.669,993.862 993.744,1002.29 1001.07,1010.51 1008.65,1018.49 1016.47,1026.24 1024.52,1033.75 1032.8,1041 1041.29,1048 1050,1054.74 1058.91,1061.21 1068.01,1067.4 1077.3,1073.31 1086.76,1078.93 1096.39,1084.26 1106.18,1089.3 1116.12,1094.03 1126.2,1098.45 1136.4,1102.57 1146.73,1106.37 1157.18,1109.86 1167.72,1113.02 1178.36,1115.86 1189.07,1118.37 1199.86,1120.55 1210.71,1122.4 1221.62,1123.92 1232.56,1125.11 1243.53,1125.96 1254.53,1126.47 1265.54,1126.65 1276.54,1126.49 1287.54,1125.99 1298.51,1125.16 1309.46,1123.99 1320.36,1122.49 1331.22,1120.65 1342.01,1118.49 1352.73,1115.99 1363.37,1113.17 1373.92,1110.02 1384.37,1106.55 1394.7,1102.77 1404.92,1098.67 1415,1094.26 1424.95,1089.54 1434.75,1084.52 1444.39,1079.2 1453.86,1073.6 1463.15,1067.7 1472.26,1061.52 1481.18,1055.07 1489.9,1048.35 1498.4,1041.36 1506.69,1034.12 1514.75,1026.62 1522.59,1018.89 1530.17,1010.91 1537.52,1002.71 1544.61,994.29 1551.43,985.655 1557.99,976.815 1564.28,967.779 1570.29,958.555 1576.01,949.151 1581.44,939.577 1586.57,929.841 1591.41,919.953 1595.94,909.921 1600.16,899.755 1604.07,889.465 1607.67,879.06 1610.94,868.55 1613.89,857.945 1616.51,847.255 1618.81,836.489 1620.77,825.658 1622.41,814.773 1623.71,803.842 1624.67,792.876 1625.3,781.887 1625.59,770.883 1625.54,759.875 1625.16,748.874 1624.45,737.89 1623.39,726.933 1622,716.013 1620.28,705.141 1618.23,694.327 1615.84,683.58 1613.13,672.911 1610.1,662.331 1606.74,651.848 1603.06,641.473 1599.07,631.215 1594.76,621.084 1590.15,611.089 1585.24,601.241 1580.02,591.547 1574.51,582.017 1568.71,572.66 1562.63,563.486 1556.27,554.501 1549.64,545.715 1542.74,537.136 1535.58,528.773 1528.18,520.632 1520.52,512.721 1512.63,505.048 1504.5,497.621 1496.16,490.445 1487.59,483.528 1478.82,476.876 1469.85,470.496 1460.69,464.393 1451.35,458.573 1441.83,453.042 1432.15,447.804 1422.31,442.865 1412.33,438.229 1402.21,433.901 1391.96,429.884 1381.59,426.183 1371.12,422.801 1360.54,419.74 1349.88,417.005 1339.14,414.597 1328.33,412.518 1317.46,410.772 1306.55,409.358 1295.59,408.28 1284.61,407.536 1273.61,407.13 1262.6,407.059 1251.6,407.326 1240.61,407.929 1229.64,408.868 1218.7,410.142 1207.82,411.75 1196.98,413.69 1186.21,415.961 1175.51,418.56 1164.9,421.486 1154.38,424.734 1143.97,428.303 1133.67,432.188 1123.5,436.387 1113.45,440.895 1103.55,445.708 1093.81,450.822 1084.22,456.232 1074.8,461.932 1065.56,467.918 1056.51,474.183 1047.66,480.723 1039.01,487.53 1030.57,494.598 1022.35,501.922 1014.36,509.493 1006.61,517.306 999.096,525.352 991.833,533.623 984.827,542.114 978.084,550.814 971.61,559.717 965.412,568.813 959.495,578.095 953.864,587.554 948.525,597.18 943.484,606.966 938.744,616.901 934.31,626.976 930.187,637.182 926.377,647.509 922.886,657.949 919.715,668.49 916.868,679.123 914.348,689.838 912.157,700.626 910.296,711.475 908.769,722.376 907.576,733.319 906.718,744.293 906.196,755.288 906.011,766.294 906.162,777.301 906.65,788.298 907.475,799.275 908.634,810.221 910.128,821.127 911.955,831.982 914.113,842.776 916.601,853.499 919.415,864.141 922.553,874.692 926.013,885.141 929.791,895.48 933.883,905.699 938.286,915.788 942.995,925.737 948.007,935.538 953.316,945.181 958.917,954.657 964.806,963.957 970.977,973.072 977.423,981.995 984.139,990.716 991.12,999.228 998.357,1007.52 1005.84,1015.59 1013.57,1023.43 1021.54,1031.02 1029.74,1038.37 1038.15,1045.47 1046.78,1052.3 1055.62,1058.87 1064.65,1065.16 1073.87,1071.17 1083.27,1076.9 1092.84,1082.34 1102.57,1087.48 1112.45,1092.33 1122.48,1096.87 1132.65,1101.1 1142.93,1105.01 1153.34,1108.61 1163.84,1111.9 1174.45,1114.85 1185.13,1117.49 1195.9,1119.79 1206.73,1121.76 1217.61,1123.4 1228.54,1124.71 1239.51,1125.68 1250.49,1126.32 1261.5,1126.62 1272.51,1126.58 1283.51,1126.21 1294.49,1125.5 1305.45,1124.46 1316.37,1123.08 1327.24,1121.36 1338.06,1119.32 1348.81,1116.94 1359.48,1114.24 1370.06,1111.21 1380.55,1107.86 1390.93,1104.19 1401.19,1100.21 1411.32,1095.91 1421.32,1091.31 1431.17,1086.4 1440.87,1081.19 1450.4,1075.69 1459.76,1069.9 1468.94,1063.82 1477.93,1057.47 1486.72,1050.84 1495.31,1043.95 1503.68,1036.8 1511.82,1029.4 1519.74,1021.75 1527.42,1013.86 1534.85,1005.75 1542.04,997.404 1548.96,988.846 1555.62,980.08 1562,971.115 1568.11,961.959 1573.94,952.62 1579.48,943.108 1584.73,933.43 1589.67,923.596 1594.32,913.616 1598.65,903.498 1602.68,893.253 "/>
<polyline clip-path="url(#clip862)" style="stroke:#c271d2; stroke-linecap:round; stroke-linejoin:round; stroke-width:4; stroke-opacity:1; fill:none" points="1697.57,766.846 1697.47,757.337 1697.15,747.833 1696.63,738.339 1695.9,728.858 1694.96,719.395 1693.81,709.956 1692.45,700.544 1690.89,691.164 1689.12,681.821 1687.14,672.519 1684.96,663.263 1682.58,654.057 1680,644.906 1677.21,635.814 1674.22,626.786 1671.04,617.825 1667.66,608.937 1664.09,600.126 1660.32,591.395 1656.36,582.749 1652.21,574.193 1647.87,565.73 1643.35,557.365 1638.64,549.101 1633.76,540.943 1628.69,532.895 1623.45,524.96 1618.04,517.142 1612.46,509.446 1606.7,501.874 1600.79,494.431 1594.7,487.12 1588.46,479.945 1582.07,472.908 1575.52,466.015 1568.82,459.267 1561.97,452.669 1554.98,446.223 1547.85,439.932 1540.58,433.8 1533.18,427.83 1525.65,422.024 1517.99,416.385 1510.21,410.916 1502.31,405.62 1494.3,400.499 1486.18,395.556 1477.95,390.793 1469.61,386.212 1461.18,381.816 1452.66,377.607 1444.04,373.587 1435.33,369.757 1426.55,366.12 1417.68,362.677 1408.75,359.431 1399.74,356.382 1390.67,353.532 1381.53,350.882 1372.35,348.435 1363.11,346.19 1353.82,344.149 1344.49,342.314 1335.12,340.684 1325.72,339.261 1316.29,338.045 1306.83,337.038 1297.35,336.239 1287.86,335.648 1278.36,335.267 1268.85,335.096 1259.35,335.133 1249.84,335.38 1240.34,335.837 1230.85,336.502 1221.39,337.376 1211.94,338.459 1202.52,339.749 1193.13,341.247 1183.77,342.951 1174.46,344.86 1165.18,346.975 1155.96,349.292 1146.79,351.813 1137.68,354.535 1128.63,357.456 1119.65,360.577 1110.74,363.894 1101.9,367.407 1093.15,371.114 1084.47,375.012 1075.89,379.101 1067.39,383.378 1059,387.84 1050.7,392.487 1042.51,397.315 1034.42,402.323 1026.45,407.507 1018.6,412.865 1010.86,418.396 1003.25,424.095 995.764,429.96 988.41,435.989 981.191,442.179 974.11,448.526 967.17,455.027 960.376,461.679 953.729,468.48 947.234,475.425 940.893,482.512 934.71,489.736 928.688,497.095 922.829,504.585 917.136,512.202 911.613,519.943 906.261,527.803 901.084,535.78 896.084,543.868 891.263,552.065 886.623,560.365 882.168,568.766 877.899,577.263 873.818,585.852 869.927,594.529 866.228,603.289 862.723,612.129 859.413,621.043 856.301,630.029 853.387,639.08 850.673,648.194 848.161,657.365 845.851,666.59 843.745,675.863 841.844,685.18 840.148,694.537 838.659,703.929 837.377,713.351 836.303,722.799 835.437,732.269 834.78,741.756 834.332,751.254 834.093,760.76 834.064,770.269 834.244,779.777 834.633,789.278 835.232,798.769 836.039,808.243 837.055,817.698 838.279,827.128 839.71,836.529 841.348,845.896 843.192,855.225 845.241,864.511 847.494,873.749 849.95,882.936 852.607,892.066 855.465,901.136 858.522,910.14 861.777,919.075 865.227,927.936 868.872,936.719 872.709,945.419 876.737,954.033 880.954,962.557 885.358,970.985 889.946,979.314 894.716,987.54 899.666,995.659 904.794,1003.67 910.097,1011.56 915.573,1019.33 921.218,1026.99 927.031,1034.51 933.008,1041.91 939.146,1049.17 945.443,1056.3 951.895,1063.28 958.5,1070.12 965.253,1076.82 972.153,1083.36 979.194,1089.75 986.375,1095.99 993.692,1102.06 1001.14,1107.97 1008.72,1113.72 1016.42,1119.3 1024.24,1124.7 1032.18,1129.94 1040.23,1134.99 1048.4,1139.87 1056.66,1144.57 1065.03,1149.08 1073.5,1153.41 1082.06,1157.55 1090.71,1161.51 1099.44,1165.27 1108.26,1168.83 1117.15,1172.21 1126.11,1175.38 1135.14,1178.36 1144.24,1181.14 1153.39,1183.71 1162.6,1186.09 1171.86,1188.26 1181.16,1190.23 1190.5,1191.99 1199.89,1193.54 1209.3,1194.89 1218.74,1196.03 1228.2,1196.97 1237.68,1197.69 1247.18,1198.2 1256.68,1198.51 1266.19,1198.61 1275.7,1198.49 1285.2,1198.17 1294.7,1197.64 1304.18,1196.9 1313.64,1195.95 1323.08,1194.79 1332.49,1193.43 1341.87,1191.86 1351.21,1190.08 1360.51,1188.09 1369.76,1185.91 1378.97,1183.52 1388.12,1180.92 1397.21,1178.13 1406.23,1175.13 1415.19,1171.94 1424.07,1168.56 1432.88,1164.97 1441.61,1161.2 1450.25,1157.23 1458.8,1153.07 1467.26,1148.73 1475.62,1144.2 1483.88,1139.49 1492.04,1134.59 1500.08,1129.52 1508.01,1124.28 1515.83,1118.86 1523.52,1113.26 1531.08,1107.5 1538.52,1101.58 1545.83,1095.49 1553,1089.25 1560.03,1082.84 1566.92,1076.29 1573.66,1069.58 1580.25,1062.73 1586.69,1055.73 1592.97,1048.59 1599.1,1041.32 1605.06,1033.91 1610.86,1026.38 1616.49,1018.72 1621.96,1010.93 1627.25,1003.03 1632.36,995.013 1637.3,986.885 1642.05,978.651 1646.62,970.314 1651.01,961.878 1655.21,953.347 1659.23,944.726 1663.05,936.019 1666.68,927.229 1670.11,918.362 1673.35,909.422 1676.39,900.412 1679.24,891.337 1681.88,882.202 1684.32,873.011 1686.55,863.769 1688.59,854.48 1690.41,845.148 1692.03,835.778 1693.45,826.374 1694.66,816.942 1695.66,807.486 1696.45,798.009 1697.03,788.518 1697.4,779.016 1697.56,769.508 1697.52,759.999 1697.26,750.493 1696.8,740.996 1696.12,731.51 1695.24,722.042 1694.15,712.596 1692.85,703.176 1691.35,693.786 1689.63,684.433 1687.72,675.119 1685.59,665.85 1683.27,656.629 1680.74,647.462 1678.01,638.354 1675.08,629.307 1671.95,620.327 1668.63,611.418 1665.11,602.585 1661.39,593.831 1657.48,585.161 1653.39,576.579 1649.1,568.09 1644.63,559.697 1639.98,551.404 1635.15,543.216 1630.13,535.137 1624.94,527.17 1619.57,519.319 1614.04,511.588 1608.33,503.981 1602.46,496.502 1596.42,489.153 1590.23,481.939 1583.87,474.864 1577.37,467.93 1570.71,461.141 1563.9,454.501 1556.95,448.012 1549.86,441.677 1542.63,435.501 1535.26,429.485 1527.77,423.632 1520.15,417.947 1512.4,412.43 1504.54,407.085 1496.56,401.915 1488.46,396.922 1480.26,392.108 1471.96,387.476 1463.55,383.028 1455.05,378.767 1446.46,374.693 1437.78,370.81 1429.02,367.119 1420.17,363.621 1411.26,360.32 1402.27,357.215 1393.21,354.309 1384.1,351.604 1374.92,349.099 1365.7,346.798 1356.42,344.7 1347.1,342.807 1337.75,341.119 1328.35,339.638 1318.93,338.365 1309.48,337.299 1300.01,336.441 1290.52,335.793 1281.02,335.353 1271.52,335.123 1262.01,335.102 1252.5,335.29 1243,335.688 1233.51,336.295 1224.04,337.111 1214.58,338.135 1205.15,339.367 1195.75,340.807 1186.39,342.453 1177.06,344.305 1167.78,346.362 1158.54,348.623 1149.35,351.087 1140.23,353.752 1131.16,356.618 1122.16,359.683 1113.23,362.946 1104.37,366.404 1095.59,370.057 1086.89,373.902 1078.28,377.937 1069.76,382.161 1061.34,386.572 1053.01,391.168 1044.79,395.945 1036.68,400.903 1028.67,406.038 1020.78,411.348 1013.01,416.83 1005.37,422.482 997.846,428.302 990.455,434.285 983.198,440.43 976.078,446.733 969.099,453.191 962.263,459.802 955.575,466.561 949.037,473.466 942.653,480.514 936.425,487.7 930.357,495.022 924.452,502.475 918.713,510.057 "/>
</svg>
