<svg xmlns="http://www.w3.org/2000/svg" xmlns:xlink="http://www.w3.org/1999/xlink" width="600" height="400" viewBox="0 0 2400 1600">
<defs>
  <clipPath id="clip280">
    <rect x="0" y="0" width="2400" height="1600"></rect>
  </clipPath>
</defs>
<path clip-path="url(#clip280)" d="
M0 1600 L2400 1600 L2400 0 L0 0  Z
  " fill="#ffffff" fill-rule="evenodd" fill-opacity="1"></path>
<defs>
  <clipPath id="clip281">
    <rect x="480" y="0" width="1681" height="1600"></rect>
  </clipPath>
</defs>
<path clip-path="url(#clip280)" d="
M304.699 1486.45 L2352.76 1486.45 L2352.76 47.2441 L304.699 47.2441  Z
  " fill="#ffffff" fill-rule="evenodd" fill-opacity="1"></path>
<defs>
  <clipPath id="clip282">
    <rect x="304" y="47" width="2049" height="1440"></rect>
  </clipPath>
</defs>
<polyline clip-path="url(#clip282)" style="stroke:#000000; stroke-linecap:butt; stroke-linejoin:round; stroke-width:2; stroke-opacity:0.1; fill:none" points="
  362.663,1486.45 362.663,47.2441 
  "></polyline>
<polyline clip-path="url(#clip282)" style="stroke:#000000; stroke-linecap:butt; stroke-linejoin:round; stroke-width:2; stroke-opacity:0.1; fill:none" points="
  711.207,1486.45 711.207,47.2441 
  "></polyline>
<polyline clip-path="url(#clip282)" style="stroke:#000000; stroke-linecap:butt; stroke-linejoin:round; stroke-width:2; stroke-opacity:0.1; fill:none" points="
  1059.75,1486.45 1059.75,47.2441 
  "></polyline>
<polyline clip-path="url(#clip282)" style="stroke:#000000; stroke-linecap:butt; stroke-linejoin:round; stroke-width:2; stroke-opacity:0.1; fill:none" points="
  1408.29,1486.45 1408.29,47.2441 
  "></polyline>
<polyline clip-path="url(#clip282)" style="stroke:#000000; stroke-linecap:butt; stroke-linejoin:round; stroke-width:2; stroke-opacity:0.1; fill:none" points="
  1756.84,1486.45 1756.84,47.2441 
  "></polyline>
<polyline clip-path="url(#clip282)" style="stroke:#000000; stroke-linecap:butt; stroke-linejoin:round; stroke-width:2; stroke-opacity:0.1; fill:none" points="
  2105.38,1486.45 2105.38,47.2441 
  "></polyline>
<polyline clip-path="url(#clip280)" style="stroke:#000000; stroke-linecap:butt; stroke-linejoin:round; stroke-width:4; stroke-opacity:1; fill:none" points="
  304.699,1486.45 2352.76,1486.45 
  "></polyline>
<polyline clip-path="url(#clip280)" style="stroke:#000000; stroke-linecap:butt; stroke-linejoin:round; stroke-width:4; stroke-opacity:1; fill:none" points="
  362.663,1486.45 362.663,1467.55 
  "></polyline>
<polyline clip-path="url(#clip280)" style="stroke:#000000; stroke-linecap:butt; stroke-linejoin:round; stroke-width:4; stroke-opacity:1; fill:none" points="
  711.207,1486.45 711.207,1467.55 
  "></polyline>
<polyline clip-path="url(#clip280)" style="stroke:#000000; stroke-linecap:butt; stroke-linejoin:round; stroke-width:4; stroke-opacity:1; fill:none" points="
  1059.75,1486.45 1059.75,1467.55 
  "></polyline>
<polyline clip-path="url(#clip280)" style="stroke:#000000; stroke-linecap:butt; stroke-linejoin:round; stroke-width:4; stroke-opacity:1; fill:none" points="
  1408.29,1486.45 1408.29,1467.55 
  "></polyline>
<polyline clip-path="url(#clip280)" style="stroke:#000000; stroke-linecap:butt; stroke-linejoin:round; stroke-width:4; stroke-opacity:1; fill:none" points="
  1756.84,1486.45 1756.84,1467.55 
  "></polyline>
<polyline clip-path="url(#clip280)" style="stroke:#000000; stroke-linecap:butt; stroke-linejoin:round; stroke-width:4; stroke-opacity:1; fill:none" points="
  2105.38,1486.45 2105.38,1467.55 
  "></polyline>
<path clip-path="url(#clip280)" d="M340.048 1517.37 Q336.436 1517.37 334.608 1520.93 Q332.802 1524.47 332.802 1531.6 Q332.802 1538.71 334.608 1542.27 Q336.436 1545.82 340.048 1545.82 Q343.682 1545.82 345.487 1542.27 Q347.316 1538.71 347.316 1531.6 Q347.316 1524.47 345.487 1520.93 Q343.682 1517.37 340.048 1517.37 M340.048 1513.66 Q345.858 1513.66 348.913 1518.27 Q351.992 1522.85 351.992 1531.6 Q351.992 1540.33 348.913 1544.94 Q345.858 1549.52 340.048 1549.52 Q334.237 1549.52 331.159 1544.94 Q328.103 1540.33 328.103 1531.6 Q328.103 1522.85 331.159 1518.27 Q334.237 1513.66 340.048 1513.66 Z" fill="#000000" fill-rule="evenodd" fill-opacity="1"></path><path clip-path="url(#clip280)" d="M360.209 1542.97 L365.094 1542.97 L365.094 1548.85 L360.209 1548.85 L360.209 1542.97 Z" fill="#000000" fill-rule="evenodd" fill-opacity="1"></path><path clip-path="url(#clip280)" d="M385.279 1517.37 Q381.668 1517.37 379.839 1520.93 Q378.033 1524.47 378.033 1531.6 Q378.033 1538.71 379.839 1542.27 Q381.668 1545.82 385.279 1545.82 Q388.913 1545.82 390.719 1542.27 Q392.547 1538.71 392.547 1531.6 Q392.547 1524.47 390.719 1520.93 Q388.913 1517.37 385.279 1517.37 M385.279 1513.66 Q391.089 1513.66 394.144 1518.27 Q397.223 1522.85 397.223 1531.6 Q397.223 1540.33 394.144 1544.94 Q391.089 1549.52 385.279 1549.52 Q379.469 1549.52 376.39 1544.94 Q373.334 1540.33 373.334 1531.6 Q373.334 1522.85 376.39 1518.27 Q379.469 1513.66 385.279 1513.66 Z" fill="#000000" fill-rule="evenodd" fill-opacity="1"></path><path clip-path="url(#clip280)" d="M682.943 1544.91 L699.262 1544.91 L699.262 1548.85 L677.318 1548.85 L677.318 1544.91 Q679.98 1542.16 684.563 1537.53 Q689.17 1532.88 690.35 1531.53 Q692.596 1529.01 693.475 1527.27 Q694.378 1525.51 694.378 1523.82 Q694.378 1521.07 692.434 1519.33 Q690.512 1517.6 687.411 1517.6 Q685.212 1517.6 682.758 1518.36 Q680.327 1519.13 677.55 1520.68 L677.55 1515.95 Q680.374 1514.82 682.827 1514.24 Q685.281 1513.66 687.318 1513.66 Q692.688 1513.66 695.883 1516.35 Q699.077 1519.03 699.077 1523.52 Q699.077 1525.65 698.267 1527.57 Q697.48 1529.47 695.374 1532.07 Q694.795 1532.74 691.693 1535.95 Q688.591 1539.15 682.943 1544.91 Z" fill="#000000" fill-rule="evenodd" fill-opacity="1"></path><path clip-path="url(#clip280)" d="M709.077 1542.97 L713.961 1542.97 L713.961 1548.85 L709.077 1548.85 L709.077 1542.97 Z" fill="#000000" fill-rule="evenodd" fill-opacity="1"></path><path clip-path="url(#clip280)" d="M724.193 1514.29 L742.549 1514.29 L742.549 1518.22 L728.475 1518.22 L728.475 1526.7 Q729.494 1526.35 730.512 1526.19 Q731.531 1526 732.549 1526 Q738.336 1526 741.716 1529.17 Q745.096 1532.34 745.096 1537.76 Q745.096 1543.34 741.623 1546.44 Q738.151 1549.52 731.832 1549.52 Q729.656 1549.52 727.387 1549.15 Q725.142 1548.78 722.735 1548.04 L722.735 1543.34 Q724.818 1544.47 727.04 1545.03 Q729.262 1545.58 731.739 1545.58 Q735.744 1545.58 738.082 1543.48 Q740.42 1541.37 740.42 1537.76 Q740.42 1534.15 738.082 1532.04 Q735.744 1529.94 731.739 1529.94 Q729.864 1529.94 727.989 1530.35 Q726.137 1530.77 724.193 1531.65 L724.193 1514.29 Z" fill="#000000" fill-rule="evenodd" fill-opacity="1"></path><path clip-path="url(#clip280)" d="M1026.92 1514.29 L1045.27 1514.29 L1045.27 1518.22 L1031.2 1518.22 L1031.2 1526.7 Q1032.22 1526.35 1033.23 1526.19 Q1034.25 1526 1035.27 1526 Q1041.06 1526 1044.44 1529.17 Q1047.82 1532.34 1047.82 1537.76 Q1047.82 1543.34 1044.35 1546.44 Q1040.87 1549.52 1034.55 1549.52 Q1032.38 1549.52 1030.11 1549.15 Q1027.86 1548.78 1025.46 1548.04 L1025.46 1543.34 Q1027.54 1544.47 1029.76 1545.03 Q1031.98 1545.58 1034.46 1545.58 Q1038.47 1545.58 1040.8 1543.48 Q1043.14 1541.37 1043.14 1537.76 Q1043.14 1534.15 1040.8 1532.04 Q1038.47 1529.94 1034.46 1529.94 Q1032.59 1529.94 1030.71 1530.35 Q1028.86 1530.77 1026.92 1531.65 L1026.92 1514.29 Z" fill="#000000" fill-rule="evenodd" fill-opacity="1"></path><path clip-path="url(#clip280)" d="M1057.03 1542.97 L1061.91 1542.97 L1061.91 1548.85 L1057.03 1548.85 L1057.03 1542.97 Z" fill="#000000" fill-rule="evenodd" fill-opacity="1"></path><path clip-path="url(#clip280)" d="M1082.1 1517.37 Q1078.49 1517.37 1076.66 1520.93 Q1074.85 1524.47 1074.85 1531.6 Q1074.85 1538.71 1076.66 1542.27 Q1078.49 1545.82 1082.1 1545.82 Q1085.73 1545.82 1087.54 1542.27 Q1089.37 1538.71 1089.37 1531.6 Q1089.37 1524.47 1087.54 1520.93 Q1085.73 1517.37 1082.1 1517.37 M1082.1 1513.66 Q1087.91 1513.66 1090.97 1518.27 Q1094.04 1522.85 1094.04 1531.6 Q1094.04 1540.33 1090.97 1544.94 Q1087.91 1549.52 1082.1 1549.52 Q1076.29 1549.52 1073.21 1544.94 Q1070.16 1540.33 1070.16 1531.6 Q1070.16 1522.85 1073.21 1518.27 Q1076.29 1513.66 1082.1 1513.66 Z" fill="#000000" fill-rule="evenodd" fill-opacity="1"></path><path clip-path="url(#clip280)" d="M1374.61 1514.29 L1396.84 1514.29 L1396.84 1516.28 L1384.29 1548.85 L1379.41 1548.85 L1391.21 1518.22 L1374.61 1518.22 L1374.61 1514.29 Z" fill="#000000" fill-rule="evenodd" fill-opacity="1"></path><path clip-path="url(#clip280)" d="M1405.96 1542.97 L1410.84 1542.97 L1410.84 1548.85 L1405.96 1548.85 L1405.96 1542.97 Z" fill="#000000" fill-rule="evenodd" fill-opacity="1"></path><path clip-path="url(#clip280)" d="M1421.07 1514.29 L1439.43 1514.29 L1439.43 1518.22 L1425.35 1518.22 L1425.35 1526.7 Q1426.37 1526.35 1427.39 1526.19 Q1428.41 1526 1429.43 1526 Q1435.22 1526 1438.59 1529.17 Q1441.97 1532.34 1441.97 1537.76 Q1441.97 1543.34 1438.5 1546.44 Q1435.03 1549.52 1428.71 1549.52 Q1426.53 1549.52 1424.27 1549.15 Q1422.02 1548.78 1419.61 1548.04 L1419.61 1543.34 Q1421.7 1544.47 1423.92 1545.03 Q1426.14 1545.58 1428.62 1545.58 Q1432.62 1545.58 1434.96 1543.48 Q1437.3 1541.37 1437.3 1537.76 Q1437.3 1534.15 1434.96 1532.04 Q1432.62 1529.94 1428.62 1529.94 Q1426.74 1529.94 1424.87 1530.35 Q1423.02 1530.77 1421.07 1531.65 L1421.07 1514.29 Z" fill="#000000" fill-rule="evenodd" fill-opacity="1"></path><path clip-path="url(#clip280)" d="M1708.91 1544.91 L1716.55 1544.91 L1716.55 1518.55 L1708.24 1520.21 L1708.24 1515.95 L1716.5 1514.29 L1721.18 1514.29 L1721.18 1544.91 L1728.82 1544.91 L1728.82 1548.85 L1708.91 1548.85 L1708.91 1544.91 Z" fill="#000000" fill-rule="evenodd" fill-opacity="1"></path><path clip-path="url(#clip280)" d="M1748.26 1517.37 Q1744.65 1517.37 1742.82 1520.93 Q1741.02 1524.47 1741.02 1531.6 Q1741.02 1538.71 1742.82 1542.27 Q1744.65 1545.82 1748.26 1545.82 Q1751.9 1545.82 1753.7 1542.27 Q1755.53 1538.71 1755.53 1531.6 Q1755.53 1524.47 1753.7 1520.93 Q1751.9 1517.37 1748.26 1517.37 M1748.26 1513.66 Q1754.07 1513.66 1757.13 1518.27 Q1760.21 1522.85 1760.21 1531.6 Q1760.21 1540.33 1757.13 1544.94 Q1754.07 1549.52 1748.26 1549.52 Q1742.45 1549.52 1739.37 1544.94 Q1736.32 1540.33 1736.32 1531.6 Q1736.32 1522.85 1739.37 1518.27 Q1742.45 1513.66 1748.26 1513.66 Z" fill="#000000" fill-rule="evenodd" fill-opacity="1"></path><path clip-path="url(#clip280)" d="M1768.42 1542.97 L1773.31 1542.97 L1773.31 1548.85 L1768.42 1548.85 L1768.42 1542.97 Z" fill="#000000" fill-rule="evenodd" fill-opacity="1"></path><path clip-path="url(#clip280)" d="M1793.49 1517.37 Q1789.88 1517.37 1788.05 1520.93 Q1786.25 1524.47 1786.25 1531.6 Q1786.25 1538.71 1788.05 1542.27 Q1789.88 1545.82 1793.49 1545.82 Q1797.13 1545.82 1798.93 1542.27 Q1800.76 1538.71 1800.76 1531.6 Q1800.76 1524.47 1798.93 1520.93 Q1797.13 1517.37 1793.49 1517.37 M1793.49 1513.66 Q1799.3 1513.66 1802.36 1518.27 Q1805.44 1522.85 1805.44 1531.6 Q1805.44 1540.33 1802.36 1544.94 Q1799.3 1549.52 1793.49 1549.52 Q1787.68 1549.52 1784.6 1544.94 Q1781.55 1540.33 1781.55 1531.6 Q1781.55 1522.85 1784.6 1518.27 Q1787.68 1513.66 1793.49 1513.66 Z" fill="#000000" fill-rule="evenodd" fill-opacity="1"></path><path clip-path="url(#clip280)" d="M2057.95 1544.91 L2065.59 1544.91 L2065.59 1518.55 L2057.28 1520.21 L2057.28 1515.95 L2065.54 1514.29 L2070.22 1514.29 L2070.22 1544.91 L2077.86 1544.91 L2077.86 1548.85 L2057.95 1548.85 L2057.95 1544.91 Z" fill="#000000" fill-rule="evenodd" fill-opacity="1"></path><path clip-path="url(#clip280)" d="M2091.33 1544.91 L2107.65 1544.91 L2107.65 1548.85 L2085.71 1548.85 L2085.71 1544.91 Q2088.37 1542.16 2092.95 1537.53 Q2097.56 1532.88 2098.74 1531.53 Q2100.98 1529.01 2101.86 1527.27 Q2102.77 1525.51 2102.77 1523.82 Q2102.77 1521.07 2100.82 1519.33 Q2098.9 1517.6 2095.8 1517.6 Q2093.6 1517.6 2091.15 1518.36 Q2088.71 1519.13 2085.94 1520.68 L2085.94 1515.95 Q2088.76 1514.82 2091.21 1514.24 Q2093.67 1513.66 2095.71 1513.66 Q2101.08 1513.66 2104.27 1516.35 Q2107.46 1519.03 2107.46 1523.52 Q2107.46 1525.65 2106.65 1527.57 Q2105.87 1529.47 2103.76 1532.07 Q2103.18 1532.74 2100.08 1535.95 Q2096.98 1539.15 2091.33 1544.91 Z" fill="#000000" fill-rule="evenodd" fill-opacity="1"></path><path clip-path="url(#clip280)" d="M2117.46 1542.97 L2122.35 1542.97 L2122.35 1548.85 L2117.46 1548.85 L2117.46 1542.97 Z" fill="#000000" fill-rule="evenodd" fill-opacity="1"></path><path clip-path="url(#clip280)" d="M2132.58 1514.29 L2150.94 1514.29 L2150.94 1518.22 L2136.86 1518.22 L2136.86 1526.7 Q2137.88 1526.35 2138.9 1526.19 Q2139.92 1526 2140.94 1526 Q2146.72 1526 2150.1 1529.17 Q2153.48 1532.34 2153.48 1537.76 Q2153.48 1543.34 2150.01 1546.44 Q2146.54 1549.52 2140.22 1549.52 Q2138.04 1549.52 2135.77 1549.15 Q2133.53 1548.78 2131.12 1548.04 L2131.12 1543.34 Q2133.21 1544.47 2135.43 1545.03 Q2137.65 1545.58 2140.13 1545.58 Q2144.13 1545.58 2146.47 1543.48 Q2148.81 1541.37 2148.81 1537.76 Q2148.81 1534.15 2146.47 1532.04 Q2144.13 1529.94 2140.13 1529.94 Q2138.25 1529.94 2136.38 1530.35 Q2134.52 1530.77 2132.58 1531.65 L2132.58 1514.29 Z" fill="#000000" fill-rule="evenodd" fill-opacity="1"></path><polyline clip-path="url(#clip282)" style="stroke:#000000; stroke-linecap:butt; stroke-linejoin:round; stroke-width:2; stroke-opacity:0.1; fill:none" points="
  304.699,1445.72 2352.76,1445.72 
  "></polyline>
<polyline clip-path="url(#clip282)" style="stroke:#000000; stroke-linecap:butt; stroke-linejoin:round; stroke-width:2; stroke-opacity:0.1; fill:none" points="
  304.699,1000.64 2352.76,1000.64 
  "></polyline>
<polyline clip-path="url(#clip282)" style="stroke:#000000; stroke-linecap:butt; stroke-linejoin:round; stroke-width:2; stroke-opacity:0.1; fill:none" points="
  304.699,555.57 2352.76,555.57 
  "></polyline>
<polyline clip-path="url(#clip282)" style="stroke:#000000; stroke-linecap:butt; stroke-linejoin:round; stroke-width:2; stroke-opacity:0.1; fill:none" points="
  304.699,110.497 2352.76,110.497 
  "></polyline>
<polyline clip-path="url(#clip280)" style="stroke:#000000; stroke-linecap:butt; stroke-linejoin:round; stroke-width:4; stroke-opacity:1; fill:none" points="
  304.699,1486.45 304.699,47.2441 
  "></polyline>
<polyline clip-path="url(#clip280)" style="stroke:#000000; stroke-linecap:butt; stroke-linejoin:round; stroke-width:4; stroke-opacity:1; fill:none" points="
  304.699,1445.72 323.597,1445.72 
  "></polyline>
<polyline clip-path="url(#clip280)" style="stroke:#000000; stroke-linecap:butt; stroke-linejoin:round; stroke-width:4; stroke-opacity:1; fill:none" points="
  304.699,1000.64 323.597,1000.64 
  "></polyline>
<polyline clip-path="url(#clip280)" style="stroke:#000000; stroke-linecap:butt; stroke-linejoin:round; stroke-width:4; stroke-opacity:1; fill:none" points="
  304.699,555.57 323.597,555.57 
  "></polyline>
<polyline clip-path="url(#clip280)" style="stroke:#000000; stroke-linecap:butt; stroke-linejoin:round; stroke-width:4; stroke-opacity:1; fill:none" points="
  304.699,110.497 323.597,110.497 
  "></polyline>
<path clip-path="url(#clip280)" d="M256.755 1431.51 Q253.144 1431.51 251.315 1435.08 Q249.51 1438.62 249.51 1445.75 Q249.51 1452.86 251.315 1456.42 Q253.144 1459.96 256.755 1459.96 Q260.389 1459.96 262.195 1456.42 Q264.023 1452.86 264.023 1445.75 Q264.023 1438.62 262.195 1435.08 Q260.389 1431.51 256.755 1431.51 M256.755 1427.81 Q262.565 1427.81 265.621 1432.42 Q268.699 1437 268.699 1445.75 Q268.699 1454.48 265.621 1459.08 Q262.565 1463.67 256.755 1463.67 Q250.945 1463.67 247.866 1459.08 Q244.811 1454.48 244.811 1445.75 Q244.811 1437 247.866 1432.42 Q250.945 1427.81 256.755 1427.81 Z" fill="#000000" fill-rule="evenodd" fill-opacity="1"></path><path clip-path="url(#clip280)" d="M52.8743 989.81 L71.2307 989.81 L71.2307 993.746 L57.1567 993.746 L57.1567 1002.22 Q58.1752 1001.87 59.1938 1001.71 Q60.2123 1001.52 61.2308 1001.52 Q67.0178 1001.52 70.3974 1004.69 Q73.777 1007.87 73.777 1013.28 Q73.777 1018.86 70.3048 1021.96 Q66.8326 1025.04 60.5132 1025.04 Q58.3373 1025.04 56.0688 1024.67 Q53.8234 1024.3 51.416 1023.56 L51.416 1018.86 Q53.4993 1020 55.7216 1020.55 Q57.9438 1021.11 60.4206 1021.11 Q64.4252 1021.11 66.7632 1019 Q69.1011 1016.89 69.1011 1013.28 Q69.1011 1009.67 66.7632 1007.56 Q64.4252 1005.46 60.4206 1005.46 Q58.5456 1005.46 56.6706 1005.88 Q54.8188 1006.29 52.8743 1007.17 L52.8743 989.81 Z" fill="#000000" fill-rule="evenodd" fill-opacity="1"></path><path clip-path="url(#clip280)" d="M82.9899 1018.49 L87.8742 1018.49 L87.8742 1024.37 L82.9899 1024.37 L82.9899 1018.49 Z" fill="#000000" fill-rule="evenodd" fill-opacity="1"></path><path clip-path="url(#clip280)" d="M108.059 992.889 Q104.448 992.889 102.619 996.454 Q100.814 999.996 100.814 1007.13 Q100.814 1014.23 102.619 1017.8 Q104.448 1021.34 108.059 1021.34 Q111.693 1021.34 113.499 1017.8 Q115.328 1014.23 115.328 1007.13 Q115.328 999.996 113.499 996.454 Q111.693 992.889 108.059 992.889 M108.059 989.185 Q113.869 989.185 116.925 993.792 Q120.004 998.375 120.004 1007.13 Q120.004 1015.85 116.925 1020.46 Q113.869 1025.04 108.059 1025.04 Q102.249 1025.04 99.1704 1020.46 Q96.1149 1015.85 96.1149 1007.13 Q96.1149 998.375 99.1704 993.792 Q102.249 989.185 108.059 989.185 Z" fill="#000000" fill-rule="evenodd" fill-opacity="1"></path><path clip-path="url(#clip280)" d="M138.221 992.889 Q134.61 992.889 132.781 996.454 Q130.976 999.996 130.976 1007.13 Q130.976 1014.23 132.781 1017.8 Q134.61 1021.34 138.221 1021.34 Q141.855 1021.34 143.661 1017.8 Q145.49 1014.23 145.49 1007.13 Q145.49 999.996 143.661 996.454 Q141.855 992.889 138.221 992.889 M138.221 989.185 Q144.031 989.185 147.087 993.792 Q150.165 998.375 150.165 1007.13 Q150.165 1015.85 147.087 1020.46 Q144.031 1025.04 138.221 1025.04 Q132.411 1025.04 129.332 1020.46 Q126.277 1015.85 126.277 1007.13 Q126.277 998.375 129.332 993.792 Q132.411 989.185 138.221 989.185 Z" fill="#000000" fill-rule="evenodd" fill-opacity="1"></path><path clip-path="url(#clip280)" d="M186.554 998.908 L175.976 1009.53 L186.554 1020.11 L183.8 1022.91 L173.175 1012.29 L162.55 1022.91 L159.818 1020.11 L170.374 1009.53 L159.818 998.908 L162.55 996.107 L173.175 1006.73 L183.8 996.107 L186.554 998.908 Z" fill="#000000" fill-rule="evenodd" fill-opacity="1"></path><path clip-path="url(#clip280)" d="M198.915 1020.44 L206.554 1020.44 L206.554 994.07 L198.244 995.736 L198.244 991.477 L206.508 989.81 L211.184 989.81 L211.184 1020.44 L218.823 1020.44 L218.823 1024.37 L198.915 1024.37 L198.915 1020.44 Z" fill="#000000" fill-rule="evenodd" fill-opacity="1"></path><path clip-path="url(#clip280)" d="M238.267 992.889 Q234.656 992.889 232.827 996.454 Q231.022 999.996 231.022 1007.13 Q231.022 1014.23 232.827 1017.8 Q234.656 1021.34 238.267 1021.34 Q241.901 1021.34 243.707 1017.8 Q245.535 1014.23 245.535 1007.13 Q245.535 999.996 243.707 996.454 Q241.901 992.889 238.267 992.889 M238.267 989.185 Q244.077 989.185 247.133 993.792 Q250.211 998.375 250.211 1007.13 Q250.211 1015.85 247.133 1020.46 Q244.077 1025.04 238.267 1025.04 Q232.457 1025.04 229.378 1020.46 Q226.322 1015.85 226.322 1007.13 Q226.322 998.375 229.378 993.792 Q232.457 989.185 238.267 989.185 Z" fill="#000000" fill-rule="evenodd" fill-opacity="1"></path><path clip-path="url(#clip280)" d="M262.906 981.82 Q265.634 982.403 267.157 984.246 Q268.699 986.089 268.699 988.797 Q268.699 992.954 265.841 995.23 Q262.982 997.505 257.716 997.505 Q255.948 997.505 254.067 997.148 Q252.205 996.81 250.211 996.114 L250.211 992.446 Q251.791 993.368 253.672 993.838 Q255.553 994.308 257.603 994.308 Q261.176 994.308 263.038 992.898 Q264.919 991.487 264.919 988.797 Q264.919 986.315 263.17 984.923 Q261.439 983.512 258.336 983.512 L255.064 983.512 L255.064 980.39 L258.487 980.39 Q261.289 980.39 262.775 979.281 Q264.261 978.152 264.261 976.046 Q264.261 973.883 262.718 972.736 Q261.195 971.569 258.336 971.569 Q256.775 971.569 254.988 971.908 Q253.202 972.247 251.058 972.961 L251.058 969.576 Q253.22 968.974 255.101 968.673 Q257.001 968.372 258.675 968.372 Q263.001 968.372 265.521 970.347 Q268.041 972.303 268.041 975.651 Q268.041 977.983 266.706 979.6 Q265.37 981.199 262.906 981.82 Z" fill="#000000" fill-rule="evenodd" fill-opacity="1"></path><path clip-path="url(#clip280)" d="M51.6634 575.362 L59.3023 575.362 L59.3023 548.997 L50.9921 550.663 L50.9921 546.404 L59.256 544.737 L63.9319 544.737 L63.9319 575.362 L71.5707 575.362 L71.5707 579.297 L51.6634 579.297 L51.6634 575.362 Z" fill="#000000" fill-rule="evenodd" fill-opacity="1"></path><path clip-path="url(#clip280)" d="M81.0151 573.418 L85.8993 573.418 L85.8993 579.297 L81.0151 579.297 L81.0151 573.418 Z" fill="#000000" fill-rule="evenodd" fill-opacity="1"></path><path clip-path="url(#clip280)" d="M106.084 547.816 Q102.473 547.816 100.645 551.381 Q98.8391 554.923 98.8391 562.052 Q98.8391 569.159 100.645 572.723 Q102.473 576.265 106.084 576.265 Q109.719 576.265 111.524 572.723 Q113.353 569.159 113.353 562.052 Q113.353 554.923 111.524 551.381 Q109.719 547.816 106.084 547.816 M106.084 544.112 Q111.895 544.112 114.95 548.719 Q118.029 553.302 118.029 562.052 Q118.029 570.779 114.95 575.385 Q111.895 579.969 106.084 579.969 Q100.274 579.969 97.1956 575.385 Q94.14 570.779 94.14 562.052 Q94.14 553.302 97.1956 548.719 Q100.274 544.112 106.084 544.112 Z" fill="#000000" fill-rule="evenodd" fill-opacity="1"></path><path clip-path="url(#clip280)" d="M136.246 547.816 Q132.635 547.816 130.807 551.381 Q129.001 554.923 129.001 562.052 Q129.001 569.159 130.807 572.723 Q132.635 576.265 136.246 576.265 Q139.881 576.265 141.686 572.723 Q143.515 569.159 143.515 562.052 Q143.515 554.923 141.686 551.381 Q139.881 547.816 136.246 547.816 M136.246 544.112 Q142.056 544.112 145.112 548.719 Q148.191 553.302 148.191 562.052 Q148.191 570.779 145.112 575.385 Q142.056 579.969 136.246 579.969 Q130.436 579.969 127.357 575.385 Q124.302 570.779 124.302 562.052 Q124.302 553.302 127.357 548.719 Q130.436 544.112 136.246 544.112 Z" fill="#000000" fill-rule="evenodd" fill-opacity="1"></path><path clip-path="url(#clip280)" d="M184.579 553.835 L174.001 564.46 L184.579 575.038 L181.825 577.839 L171.2 567.214 L160.575 577.839 L157.843 575.038 L168.399 564.46 L157.843 553.835 L160.575 551.034 L171.2 561.659 L181.825 551.034 L184.579 553.835 Z" fill="#000000" fill-rule="evenodd" fill-opacity="1"></path><path clip-path="url(#clip280)" d="M196.94 575.362 L204.579 575.362 L204.579 548.997 L196.269 550.663 L196.269 546.404 L204.533 544.737 L209.209 544.737 L209.209 575.362 L216.848 575.362 L216.848 579.297 L196.94 579.297 L196.94 575.362 Z" fill="#000000" fill-rule="evenodd" fill-opacity="1"></path><path clip-path="url(#clip280)" d="M236.292 547.816 Q232.681 547.816 230.852 551.381 Q229.047 554.923 229.047 562.052 Q229.047 569.159 230.852 572.723 Q232.681 576.265 236.292 576.265 Q239.926 576.265 241.732 572.723 Q243.561 569.159 243.561 562.052 Q243.561 554.923 241.732 551.381 Q239.926 547.816 236.292 547.816 M236.292 544.112 Q242.102 544.112 245.158 548.719 Q248.236 553.302 248.236 562.052 Q248.236 570.779 245.158 575.385 Q242.102 579.969 236.292 579.969 Q230.482 579.969 227.403 575.385 Q224.348 570.779 224.348 562.052 Q224.348 553.302 227.403 548.719 Q230.482 544.112 236.292 544.112 Z" fill="#000000" fill-rule="evenodd" fill-opacity="1"></path><path clip-path="url(#clip280)" d="M260.913 527.117 L251.321 542.107 L260.913 542.107 L260.913 527.117 M259.916 523.807 L264.693 523.807 L264.693 542.107 L268.699 542.107 L268.699 545.267 L264.693 545.267 L264.693 551.887 L260.913 551.887 L260.913 545.267 L248.236 545.267 L248.236 541.599 L259.916 523.807 Z" fill="#000000" fill-rule="evenodd" fill-opacity="1"></path><path clip-path="url(#clip280)" d="M51.6634 130.289 L59.3023 130.289 L59.3023 103.924 L50.9921 105.59 L50.9921 101.331 L59.256 99.6646 L63.9319 99.6646 L63.9319 130.289 L71.5707 130.289 L71.5707 134.225 L51.6634 134.225 L51.6634 130.289 Z" fill="#000000" fill-rule="evenodd" fill-opacity="1"></path><path clip-path="url(#clip280)" d="M81.0151 128.345 L85.8993 128.345 L85.8993 134.225 L81.0151 134.225 L81.0151 128.345 Z" fill="#000000" fill-rule="evenodd" fill-opacity="1"></path><path clip-path="url(#clip280)" d="M96.1308 99.6646 L114.487 99.6646 L114.487 103.6 L100.413 103.6 L100.413 112.072 Q101.432 111.725 102.45 111.563 Q103.469 111.377 104.487 111.377 Q110.274 111.377 113.654 114.549 Q117.033 117.72 117.033 123.137 Q117.033 128.715 113.561 131.817 Q110.089 134.896 103.77 134.896 Q101.594 134.896 99.3252 134.525 Q97.0798 134.155 94.6724 133.414 L94.6724 128.715 Q96.7558 129.85 98.978 130.405 Q101.2 130.961 103.677 130.961 Q107.682 130.961 110.02 128.854 Q112.358 126.748 112.358 123.137 Q112.358 119.526 110.02 117.419 Q107.682 115.313 103.677 115.313 Q101.802 115.313 99.927 115.729 Q98.0752 116.146 96.1308 117.026 L96.1308 99.6646 Z" fill="#000000" fill-rule="evenodd" fill-opacity="1"></path><path clip-path="url(#clip280)" d="M136.246 102.743 Q132.635 102.743 130.807 106.308 Q129.001 109.85 129.001 116.979 Q129.001 124.086 130.807 127.651 Q132.635 131.192 136.246 131.192 Q139.881 131.192 141.686 127.651 Q143.515 124.086 143.515 116.979 Q143.515 109.85 141.686 106.308 Q139.881 102.743 136.246 102.743 M136.246 99.0396 Q142.056 99.0396 145.112 103.646 Q148.191 108.229 148.191 116.979 Q148.191 125.706 145.112 130.313 Q142.056 134.896 136.246 134.896 Q130.436 134.896 127.357 130.313 Q124.302 125.706 124.302 116.979 Q124.302 108.229 127.357 103.646 Q130.436 99.0396 136.246 99.0396 Z" fill="#000000" fill-rule="evenodd" fill-opacity="1"></path><path clip-path="url(#clip280)" d="M184.579 108.762 L174.001 119.387 L184.579 129.965 L181.825 132.766 L171.2 122.141 L160.575 132.766 L157.843 129.965 L168.399 119.387 L157.843 108.762 L160.575 105.961 L171.2 116.586 L181.825 105.961 L184.579 108.762 Z" fill="#000000" fill-rule="evenodd" fill-opacity="1"></path><path clip-path="url(#clip280)" d="M196.94 130.289 L204.579 130.289 L204.579 103.924 L196.269 105.59 L196.269 101.331 L204.533 99.6646 L209.209 99.6646 L209.209 130.289 L216.848 130.289 L216.848 134.225 L196.94 134.225 L196.94 130.289 Z" fill="#000000" fill-rule="evenodd" fill-opacity="1"></path><path clip-path="url(#clip280)" d="M236.292 102.743 Q232.681 102.743 230.852 106.308 Q229.047 109.85 229.047 116.979 Q229.047 124.086 230.852 127.651 Q232.681 131.192 236.292 131.192 Q239.926 131.192 241.732 127.651 Q243.561 124.086 243.561 116.979 Q243.561 109.85 241.732 106.308 Q239.926 102.743 236.292 102.743 M236.292 99.0396 Q242.102 99.0396 245.158 103.646 Q248.236 108.229 248.236 116.979 Q248.236 125.706 245.158 130.313 Q242.102 134.896 236.292 134.896 Q230.482 134.896 227.403 130.313 Q224.348 125.706 224.348 116.979 Q224.348 108.229 227.403 103.646 Q230.482 99.0396 236.292 99.0396 Z" fill="#000000" fill-rule="evenodd" fill-opacity="1"></path><path clip-path="url(#clip280)" d="M260.913 82.0443 L251.321 97.0341 L260.913 97.0341 L260.913 82.0443 M259.916 78.7342 L264.693 78.7342 L264.693 97.0341 L268.699 97.0341 L268.699 100.194 L264.693 100.194 L264.693 106.814 L260.913 106.814 L260.913 100.194 L248.236 100.194 L248.236 96.5263 L259.916 78.7342 Z" fill="#000000" fill-rule="evenodd" fill-opacity="1"></path><polyline clip-path="url(#clip282)" style="stroke:#009af9; stroke-linecap:butt; stroke-linejoin:round; stroke-width:4; stroke-opacity:1; fill:none" points="
  362.663,1443.58 382.379,1443.58 402.094,1443.58 402.094,1443.31 421.81,1443.31 421.81,1442.87 441.526,1442.87 441.526,1443.31 461.241,1443.31 
  461.241,1443.05 480.957,1443.05 480.957,1442.78 500.672,1442.78 500.672,1443.05 520.388,1443.05 520.388,1442.24 540.104,1442.24 540.104,1442.16 559.819,1442.16 
  559.819,1442.33 579.535,1442.33 579.535,1442.78 599.25,1442.78 599.25,1441.18 618.966,1441.18 618.966,1441.89 638.682,1441.89 638.682,1440.91 658.397,1440.91 
  658.397,1441 678.113,1441 678.113,1440.02 697.828,1440.02 697.828,1439.93 717.544,1439.93 717.544,1439.13 737.26,1439.13 737.26,1438.59 756.975,1438.59 
  756.975,1437.7 776.691,1437.7 776.691,1437.79 796.406,1437.79 796.406,1436.46 816.122,1436.46 816.122,1434.86 835.838,1434.86 835.838,1433.7 855.553,1433.7 
  855.553,1431.83 875.269,1431.83 875.269,1430.67 894.984,1430.67 894.984,1427.38 914.7,1427.38 914.7,1424.8 934.416,1424.8 934.416,1421.41 954.131,1421.41 
  954.131,1414.83 973.847,1414.83 973.847,1411 993.562,1411 993.562,1402.19 1013.28,1402.19 1013.28,1390.35 1032.99,1390.35 1032.99,1375.84 1052.71,1375.84 
  1052.71,1356.52 1072.42,1356.52 1072.42,1325.64 1092.14,1325.64 1092.14,1281.93 1111.86,1281.93 1111.86,1211.34 1131.57,1211.34 1131.57,1103.81 1151.29,1103.81 
  1151.29,912.607 1171,912.607 1171,557.528 1190.72,557.528 1190.72,87.9763 1210.43,87.9763 1210.43,532.604 1230.15,532.604 1230.15,915.189 1249.87,915.189 
  1249.87,1158.02 1269.58,1158.02 1269.58,1197.81 1289.3,1197.81 1289.3,1214.19 1309.01,1214.19 1309.01,1207.87 1328.73,1207.87 1328.73,1180.19 1348.44,1180.19 
  1348.44,1126.69 1368.16,1126.69 1368.16,1013.99 1387.87,1013.99 1387.87,804.366 1407.59,804.366 1407.59,684.107 1427.31,684.107 1427.31,303.303 1447.02,303.303 
  1447.02,581.206 1466.74,581.206 1466.74,1086.19 1486.45,1086.19 1486.45,1282.28 1506.17,1282.28 1506.17,1366.49 1525.88,1366.49 1525.88,1406.91 1545.6,1406.91 
  1545.6,1443.22 1565.31,1443.22 1565.31,1445.72 1585.03,1445.72 1604.75,1445.72 1624.46,1445.72 1644.18,1445.72 
  1663.89,1445.72 1683.61,1445.72 1703.32,1445.72 1723.04,1445.72 1742.76,1445.72 
  1762.47,1445.72 1782.19,1445.72 1801.9,1445.72 1821.62,1445.72 1841.33,1445.72 
  1861.05,1445.72 1880.76,1445.72 1900.48,1445.72 1920.2,1445.72 1939.91,1445.72 
  1959.63,1445.72 1979.34,1445.72 1999.06,1445.72 2018.77,1445.72 2038.49,1445.72 
  2058.2,1445.72 2077.92,1445.72 2097.64,1445.72 2117.35,1445.72 2137.07,1445.72 
  2156.78,1445.72 2176.5,1445.72 2196.21,1445.72 2215.93,1445.72 2235.65,1445.72 
  2255.36,1445.72 2275.08,1445.72 2294.79,1445.72 
  "></polyline>
<path clip-path="url(#clip280)" d="
M2004.5 198.898 L2284.49 198.898 L2284.49 95.2176 L2004.5 95.2176  Z
  " fill="#ffffff" fill-rule="evenodd" fill-opacity="1"></path>
<polyline clip-path="url(#clip280)" style="stroke:#000000; stroke-linecap:butt; stroke-linejoin:round; stroke-width:4; stroke-opacity:1; fill:none" points="
  2004.5,198.898 2284.49,198.898 2284.49,95.2176 2004.5,95.2176 2004.5,198.898 
  "></polyline>
<polyline clip-path="url(#clip280)" style="stroke:#009af9; stroke-linecap:butt; stroke-linejoin:round; stroke-width:4; stroke-opacity:1; fill:none" points="
  2027.25,147.058 2163.79,147.058 
  "></polyline>
<path clip-path="url(#clip280)" d="M2200.39 166.745 Q2198.58 171.375 2196.87 172.787 Q2195.16 174.199 2192.29 174.199 L2188.88 174.199 L2188.88 170.634 L2191.38 170.634 Q2193.14 170.634 2194.11 169.8 Q2195.09 168.967 2196.27 165.865 L2197.03 163.921 L2186.54 138.412 L2191.06 138.412 L2199.16 158.689 L2207.26 138.412 L2211.78 138.412 L2200.39 166.745 Z" fill="#000000" fill-rule="evenodd" fill-opacity="1"></path><path clip-path="url(#clip280)" d="M2219.07 160.402 L2226.71 160.402 L2226.71 134.037 L2218.4 135.703 L2218.4 131.444 L2226.66 129.778 L2231.34 129.778 L2231.34 160.402 L2238.97 160.402 L2238.97 164.338 L2219.07 164.338 L2219.07 160.402 Z" fill="#000000" fill-rule="evenodd" fill-opacity="1"></path></svg>