<?xml version="1.0" encoding="utf-8"?>
<svg xmlns="http://www.w3.org/2000/svg" xmlns:xlink="http://www.w3.org/1999/xlink" width="600" height="400" viewBox="0 0 2400 1600">
<defs>
  <clipPath id="clip780">
    <rect x="0" y="0" width="2400" height="1600"/>
  </clipPath>
</defs>
<path clip-path="url(#clip780)" d="M0 1600 L2400 1600 L2400 0 L0 0  Z" fill="#ffffff" fill-rule="evenodd" fill-opacity="1"/>
<defs>
  <clipPath id="clip781">
    <rect x="480" y="0" width="1681" height="1600"/>
  </clipPath>
</defs>
<path clip-path="url(#clip780)" d="M334.861 1486.45 L2352.76 1486.45 L2352.76 47.2441 L334.861 47.2441  Z" fill="#ffffff" fill-rule="evenodd" fill-opacity="1"/>
<defs>
  <clipPath id="clip782">
    <rect x="334" y="47" width="2019" height="1440"/>
  </clipPath>
</defs>
<polyline clip-path="url(#clip782)" style="stroke:#000000; stroke-linecap:round; stroke-linejoin:round; stroke-width:2; stroke-opacity:0.1; fill:none" points="391.971,1486.45 391.971,47.2441 "/>
<polyline clip-path="url(#clip782)" style="stroke:#000000; stroke-linecap:round; stroke-linejoin:round; stroke-width:2; stroke-opacity:0.1; fill:none" points="872.746,1486.45 872.746,47.2441 "/>
<polyline clip-path="url(#clip782)" style="stroke:#000000; stroke-linecap:round; stroke-linejoin:round; stroke-width:2; stroke-opacity:0.1; fill:none" points="1353.52,1486.45 1353.52,47.2441 "/>
<polyline clip-path="url(#clip782)" style="stroke:#000000; stroke-linecap:round; stroke-linejoin:round; stroke-width:2; stroke-opacity:0.1; fill:none" points="1834.3,1486.45 1834.3,47.2441 "/>
<polyline clip-path="url(#clip782)" style="stroke:#000000; stroke-linecap:round; stroke-linejoin:round; stroke-width:2; stroke-opacity:0.1; fill:none" points="2315.07,1486.45 2315.07,47.2441 "/>
<polyline clip-path="url(#clip780)" style="stroke:#000000; stroke-linecap:round; stroke-linejoin:round; stroke-width:4; stroke-opacity:1; fill:none" points="334.861,1486.45 2352.76,1486.45 "/>
<polyline clip-path="url(#clip780)" style="stroke:#000000; stroke-linecap:round; stroke-linejoin:round; stroke-width:4; stroke-opacity:1; fill:none" points="391.971,1486.45 391.971,1467.55 "/>
<polyline clip-path="url(#clip780)" style="stroke:#000000; stroke-linecap:round; stroke-linejoin:round; stroke-width:4; stroke-opacity:1; fill:none" points="872.746,1486.45 872.746,1467.55 "/>
<polyline clip-path="url(#clip780)" style="stroke:#000000; stroke-linecap:round; stroke-linejoin:round; stroke-width:4; stroke-opacity:1; fill:none" points="1353.52,1486.45 1353.52,1467.55 "/>
<polyline clip-path="url(#clip780)" style="stroke:#000000; stroke-linecap:round; stroke-linejoin:round; stroke-width:4; stroke-opacity:1; fill:none" points="1834.3,1486.45 1834.3,1467.55 "/>
<polyline clip-path="url(#clip780)" style="stroke:#000000; stroke-linecap:round; stroke-linejoin:round; stroke-width:4; stroke-opacity:1; fill:none" points="2315.07,1486.45 2315.07,1467.55 "/>
<path clip-path="url(#clip780)" d="M369.356 1517.37 Q365.745 1517.37 363.916 1520.93 Q362.11 1524.47 362.11 1531.6 Q362.11 1538.71 363.916 1542.27 Q365.745 1545.82 369.356 1545.82 Q372.99 1545.82 374.796 1542.27 Q376.624 1538.71 376.624 1531.6 Q376.624 1524.47 374.796 1520.93 Q372.99 1517.37 369.356 1517.37 M369.356 1513.66 Q375.166 1513.66 378.221 1518.27 Q381.3 1522.85 381.3 1531.6 Q381.3 1540.33 378.221 1544.94 Q375.166 1549.52 369.356 1549.52 Q363.546 1549.52 360.467 1544.94 Q357.411 1540.33 357.411 1531.6 Q357.411 1522.85 360.467 1518.27 Q363.546 1513.66 369.356 1513.66 Z" fill="#000000" fill-rule="nonzero" fill-opacity="1" /><path clip-path="url(#clip780)" d="M389.518 1542.97 L394.402 1542.97 L394.402 1548.85 L389.518 1548.85 L389.518 1542.97 Z" fill="#000000" fill-rule="nonzero" fill-opacity="1" /><path clip-path="url(#clip780)" d="M414.587 1517.37 Q410.976 1517.37 409.147 1520.93 Q407.342 1524.47 407.342 1531.6 Q407.342 1538.71 409.147 1542.27 Q410.976 1545.82 414.587 1545.82 Q418.221 1545.82 420.027 1542.27 Q421.855 1538.71 421.855 1531.6 Q421.855 1524.47 420.027 1520.93 Q418.221 1517.37 414.587 1517.37 M414.587 1513.66 Q420.397 1513.66 423.453 1518.27 Q426.531 1522.85 426.531 1531.6 Q426.531 1540.33 423.453 1544.94 Q420.397 1549.52 414.587 1549.52 Q408.777 1549.52 405.698 1544.94 Q402.643 1540.33 402.643 1531.6 Q402.643 1522.85 405.698 1518.27 Q408.777 1513.66 414.587 1513.66 Z" fill="#000000" fill-rule="nonzero" fill-opacity="1" /><path clip-path="url(#clip780)" d="M844.483 1544.91 L860.802 1544.91 L860.802 1548.85 L838.858 1548.85 L838.858 1544.91 Q841.52 1542.16 846.103 1537.53 Q850.709 1532.88 851.89 1531.53 Q854.135 1529.01 855.015 1527.27 Q855.918 1525.51 855.918 1523.82 Q855.918 1521.07 853.973 1519.33 Q852.052 1517.6 848.95 1517.6 Q846.751 1517.6 844.297 1518.36 Q841.867 1519.13 839.089 1520.68 L839.089 1515.95 Q841.913 1514.82 844.367 1514.24 Q846.82 1513.66 848.858 1513.66 Q854.228 1513.66 857.422 1516.35 Q860.617 1519.03 860.617 1523.52 Q860.617 1525.65 859.807 1527.57 Q859.02 1529.47 856.913 1532.07 Q856.334 1532.74 853.232 1535.95 Q850.131 1539.15 844.483 1544.91 Z" fill="#000000" fill-rule="nonzero" fill-opacity="1" /><path clip-path="url(#clip780)" d="M870.617 1542.97 L875.501 1542.97 L875.501 1548.85 L870.617 1548.85 L870.617 1542.97 Z" fill="#000000" fill-rule="nonzero" fill-opacity="1" /><path clip-path="url(#clip780)" d="M885.732 1514.29 L904.089 1514.29 L904.089 1518.22 L890.015 1518.22 L890.015 1526.7 Q891.033 1526.35 892.052 1526.19 Q893.07 1526 894.089 1526 Q899.876 1526 903.255 1529.17 Q906.635 1532.34 906.635 1537.76 Q906.635 1543.34 903.163 1546.44 Q899.691 1549.52 893.371 1549.52 Q891.195 1549.52 888.927 1549.15 Q886.681 1548.78 884.274 1548.04 L884.274 1543.34 Q886.357 1544.47 888.58 1545.03 Q890.802 1545.58 893.279 1545.58 Q897.283 1545.58 899.621 1543.48 Q901.959 1541.37 901.959 1537.76 Q901.959 1534.15 899.621 1532.04 Q897.283 1529.94 893.279 1529.94 Q891.404 1529.94 889.529 1530.35 Q887.677 1530.77 885.732 1531.65 L885.732 1514.29 Z" fill="#000000" fill-rule="nonzero" fill-opacity="1" /><path clip-path="url(#clip780)" d="M1320.69 1514.29 L1339.04 1514.29 L1339.04 1518.22 L1324.97 1518.22 L1324.97 1526.7 Q1325.99 1526.35 1327.01 1526.19 Q1328.02 1526 1329.04 1526 Q1334.83 1526 1338.21 1529.17 Q1341.59 1532.34 1341.59 1537.76 Q1341.59 1543.34 1338.12 1546.44 Q1334.64 1549.52 1328.32 1549.52 Q1326.15 1549.52 1323.88 1549.15 Q1321.63 1548.78 1319.23 1548.04 L1319.23 1543.34 Q1321.31 1544.47 1323.53 1545.03 Q1325.76 1545.58 1328.23 1545.58 Q1332.24 1545.58 1334.57 1543.48 Q1336.91 1541.37 1336.91 1537.76 Q1336.91 1534.15 1334.57 1532.04 Q1332.24 1529.94 1328.23 1529.94 Q1326.36 1529.94 1324.48 1530.35 Q1322.63 1530.77 1320.69 1531.65 L1320.69 1514.29 Z" fill="#000000" fill-rule="nonzero" fill-opacity="1" /><path clip-path="url(#clip780)" d="M1350.8 1542.97 L1355.69 1542.97 L1355.69 1548.85 L1350.8 1548.85 L1350.8 1542.97 Z" fill="#000000" fill-rule="nonzero" fill-opacity="1" /><path clip-path="url(#clip780)" d="M1375.87 1517.37 Q1372.26 1517.37 1370.43 1520.93 Q1368.63 1524.47 1368.63 1531.6 Q1368.63 1538.71 1370.43 1542.27 Q1372.26 1545.82 1375.87 1545.82 Q1379.5 1545.82 1381.31 1542.27 Q1383.14 1538.71 1383.14 1531.6 Q1383.14 1524.47 1381.31 1520.93 Q1379.5 1517.37 1375.87 1517.37 M1375.87 1513.66 Q1381.68 1513.66 1384.74 1518.27 Q1387.81 1522.85 1387.81 1531.6 Q1387.81 1540.33 1384.74 1544.94 Q1381.68 1549.52 1375.87 1549.52 Q1370.06 1549.52 1366.98 1544.94 Q1363.93 1540.33 1363.93 1531.6 Q1363.93 1522.85 1366.98 1518.27 Q1370.06 1513.66 1375.87 1513.66 Z" fill="#000000" fill-rule="nonzero" fill-opacity="1" /><path clip-path="url(#clip780)" d="M1800.62 1514.29 L1822.84 1514.29 L1822.84 1516.28 L1810.29 1548.85 L1805.41 1548.85 L1817.21 1518.22 L1800.62 1518.22 L1800.62 1514.29 Z" fill="#000000" fill-rule="nonzero" fill-opacity="1" /><path clip-path="url(#clip780)" d="M1831.96 1542.97 L1836.84 1542.97 L1836.84 1548.85 L1831.96 1548.85 L1831.96 1542.97 Z" fill="#000000" fill-rule="nonzero" fill-opacity="1" /><path clip-path="url(#clip780)" d="M1847.07 1514.29 L1865.43 1514.29 L1865.43 1518.22 L1851.36 1518.22 L1851.36 1526.7 Q1852.37 1526.35 1853.39 1526.19 Q1854.41 1526 1855.43 1526 Q1861.22 1526 1864.6 1529.17 Q1867.98 1532.34 1867.98 1537.76 Q1867.98 1543.34 1864.5 1546.44 Q1861.03 1549.52 1854.71 1549.52 Q1852.54 1549.52 1850.27 1549.15 Q1848.02 1548.78 1845.62 1548.04 L1845.62 1543.34 Q1847.7 1544.47 1849.92 1545.03 Q1852.14 1545.58 1854.62 1545.58 Q1858.62 1545.58 1860.96 1543.48 Q1863.3 1541.37 1863.3 1537.76 Q1863.3 1534.15 1860.96 1532.04 Q1858.62 1529.94 1854.62 1529.94 Q1852.75 1529.94 1850.87 1530.35 Q1849.02 1530.77 1847.07 1531.65 L1847.07 1514.29 Z" fill="#000000" fill-rule="nonzero" fill-opacity="1" /><path clip-path="url(#clip780)" d="M2267.14 1544.91 L2274.78 1544.91 L2274.78 1518.55 L2266.47 1520.21 L2266.47 1515.95 L2274.74 1514.29 L2279.41 1514.29 L2279.41 1544.91 L2287.05 1544.91 L2287.05 1548.85 L2267.14 1548.85 L2267.14 1544.91 Z" fill="#000000" fill-rule="nonzero" fill-opacity="1" /><path clip-path="url(#clip780)" d="M2306.49 1517.37 Q2302.88 1517.37 2301.05 1520.93 Q2299.25 1524.47 2299.25 1531.6 Q2299.25 1538.71 2301.05 1542.27 Q2302.88 1545.82 2306.49 1545.82 Q2310.13 1545.82 2311.93 1542.27 Q2313.76 1538.71 2313.76 1531.6 Q2313.76 1524.47 2311.93 1520.93 Q2310.13 1517.37 2306.49 1517.37 M2306.49 1513.66 Q2312.3 1513.66 2315.36 1518.27 Q2318.44 1522.85 2318.44 1531.6 Q2318.44 1540.33 2315.36 1544.94 Q2312.3 1549.52 2306.49 1549.52 Q2300.68 1549.52 2297.61 1544.94 Q2294.55 1540.33 2294.55 1531.6 Q2294.55 1522.85 2297.61 1518.27 Q2300.68 1513.66 2306.49 1513.66 Z" fill="#000000" fill-rule="nonzero" fill-opacity="1" /><path clip-path="url(#clip780)" d="M2326.66 1542.97 L2331.54 1542.97 L2331.54 1548.85 L2326.66 1548.85 L2326.66 1542.97 Z" fill="#000000" fill-rule="nonzero" fill-opacity="1" /><path clip-path="url(#clip780)" d="M2351.73 1517.37 Q2348.11 1517.37 2346.29 1520.93 Q2344.48 1524.47 2344.48 1531.6 Q2344.48 1538.71 2346.29 1542.27 Q2348.11 1545.82 2351.73 1545.82 Q2355.36 1545.82 2357.17 1542.27 Q2358.99 1538.71 2358.99 1531.6 Q2358.99 1524.47 2357.17 1520.93 Q2355.36 1517.37 2351.73 1517.37 M2351.73 1513.66 Q2357.54 1513.66 2360.59 1518.27 Q2363.67 1522.85 2363.67 1531.6 Q2363.67 1540.33 2360.59 1544.94 Q2357.54 1549.52 2351.73 1549.52 Q2345.92 1549.52 2342.84 1544.94 Q2339.78 1540.33 2339.78 1531.6 Q2339.78 1522.85 2342.84 1518.27 Q2345.92 1513.66 2351.73 1513.66 Z" fill="#000000" fill-rule="nonzero" fill-opacity="1" /><polyline clip-path="url(#clip782)" style="stroke:#000000; stroke-linecap:round; stroke-linejoin:round; stroke-width:2; stroke-opacity:0.1; fill:none" points="334.861,1445.72 2352.76,1445.72 "/>
<polyline clip-path="url(#clip782)" style="stroke:#000000; stroke-linecap:round; stroke-linejoin:round; stroke-width:2; stroke-opacity:0.1; fill:none" points="334.861,1202.67 2352.76,1202.67 "/>
<polyline clip-path="url(#clip782)" style="stroke:#000000; stroke-linecap:round; stroke-linejoin:round; stroke-width:2; stroke-opacity:0.1; fill:none" points="334.861,959.628 2352.76,959.628 "/>
<polyline clip-path="url(#clip782)" style="stroke:#000000; stroke-linecap:round; stroke-linejoin:round; stroke-width:2; stroke-opacity:0.1; fill:none" points="334.861,716.585 2352.76,716.585 "/>
<polyline clip-path="url(#clip782)" style="stroke:#000000; stroke-linecap:round; stroke-linejoin:round; stroke-width:2; stroke-opacity:0.1; fill:none" points="334.861,473.541 2352.76,473.541 "/>
<polyline clip-path="url(#clip782)" style="stroke:#000000; stroke-linecap:round; stroke-linejoin:round; stroke-width:2; stroke-opacity:0.1; fill:none" points="334.861,230.497 2352.76,230.497 "/>
<polyline clip-path="url(#clip780)" style="stroke:#000000; stroke-linecap:round; stroke-linejoin:round; stroke-width:4; stroke-opacity:1; fill:none" points="334.861,1486.45 334.861,47.2441 "/>
<polyline clip-path="url(#clip780)" style="stroke:#000000; stroke-linecap:round; stroke-linejoin:round; stroke-width:4; stroke-opacity:1; fill:none" points="334.861,1445.72 353.759,1445.72 "/>
<polyline clip-path="url(#clip780)" style="stroke:#000000; stroke-linecap:round; stroke-linejoin:round; stroke-width:4; stroke-opacity:1; fill:none" points="334.861,1202.67 353.759,1202.67 "/>
<polyline clip-path="url(#clip780)" style="stroke:#000000; stroke-linecap:round; stroke-linejoin:round; stroke-width:4; stroke-opacity:1; fill:none" points="334.861,959.628 353.759,959.628 "/>
<polyline clip-path="url(#clip780)" style="stroke:#000000; stroke-linecap:round; stroke-linejoin:round; stroke-width:4; stroke-opacity:1; fill:none" points="334.861,716.585 353.759,716.585 "/>
<polyline clip-path="url(#clip780)" style="stroke:#000000; stroke-linecap:round; stroke-linejoin:round; stroke-width:4; stroke-opacity:1; fill:none" points="334.861,473.541 353.759,473.541 "/>
<polyline clip-path="url(#clip780)" style="stroke:#000000; stroke-linecap:round; stroke-linejoin:round; stroke-width:4; stroke-opacity:1; fill:none" points="334.861,230.497 353.759,230.497 "/>
<path clip-path="url(#clip780)" d="M286.917 1431.51 Q283.306 1431.51 281.477 1435.08 Q279.671 1438.62 279.671 1445.75 Q279.671 1452.86 281.477 1456.42 Q283.306 1459.96 286.917 1459.96 Q290.551 1459.96 292.357 1456.42 Q294.185 1452.86 294.185 1445.75 Q294.185 1438.62 292.357 1435.08 Q290.551 1431.51 286.917 1431.51 M286.917 1427.81 Q292.727 1427.81 295.782 1432.42 Q298.861 1437 298.861 1445.75 Q298.861 1454.48 295.782 1459.08 Q292.727 1463.67 286.917 1463.67 Q281.107 1463.67 278.028 1459.08 Q274.972 1454.48 274.972 1445.75 Q274.972 1437 278.028 1432.42 Q281.107 1427.81 286.917 1427.81 Z" fill="#000000" fill-rule="nonzero" fill-opacity="1" /><path clip-path="url(#clip780)" d="M56.8558 1222.46 L73.1752 1222.46 L73.1752 1226.4 L51.2308 1226.4 L51.2308 1222.46 Q53.8929 1219.71 58.4762 1215.08 Q63.0826 1210.43 64.2632 1209.08 Q66.5085 1206.56 67.3882 1204.83 Q68.2909 1203.07 68.2909 1201.38 Q68.2909 1198.62 66.3465 1196.89 Q64.4252 1195.15 61.3234 1195.15 Q59.1243 1195.15 56.6706 1195.91 Q54.2401 1196.68 51.4623 1198.23 L51.4623 1193.51 Q54.2864 1192.37 56.7401 1191.79 Q59.1938 1191.21 61.2308 1191.21 Q66.6011 1191.21 69.7956 1193.9 Q72.99 1196.58 72.99 1201.08 Q72.99 1203.21 72.1798 1205.13 Q71.3928 1207.02 69.2863 1209.62 Q68.7076 1210.29 65.6058 1213.51 Q62.5039 1216.7 56.8558 1222.46 Z" fill="#000000" fill-rule="nonzero" fill-opacity="1" /><path clip-path="url(#clip780)" d="M82.9899 1220.52 L87.8742 1220.52 L87.8742 1226.4 L82.9899 1226.4 L82.9899 1220.52 Z" fill="#000000" fill-rule="nonzero" fill-opacity="1" /><path clip-path="url(#clip780)" d="M98.1056 1191.84 L116.462 1191.84 L116.462 1195.77 L102.388 1195.77 L102.388 1204.25 Q103.406 1203.9 104.425 1203.74 Q105.444 1203.55 106.462 1203.55 Q112.249 1203.55 115.629 1206.72 Q119.008 1209.9 119.008 1215.31 Q119.008 1220.89 115.536 1223.99 Q112.064 1227.07 105.744 1227.07 Q103.569 1227.07 101.3 1226.7 Q99.0547 1226.33 96.6473 1225.59 L96.6473 1220.89 Q98.7306 1222.02 100.953 1222.58 Q103.175 1223.14 105.652 1223.14 Q109.656 1223.14 111.994 1221.03 Q114.332 1218.92 114.332 1215.31 Q114.332 1211.7 111.994 1209.59 Q109.656 1207.49 105.652 1207.49 Q103.777 1207.49 101.902 1207.9 Q100.05 1208.32 98.1056 1209.2 L98.1056 1191.84 Z" fill="#000000" fill-rule="nonzero" fill-opacity="1" /><path clip-path="url(#clip780)" d="M138.221 1194.92 Q134.61 1194.92 132.781 1198.48 Q130.976 1202.02 130.976 1209.15 Q130.976 1216.26 132.781 1219.83 Q134.61 1223.37 138.221 1223.37 Q141.855 1223.37 143.661 1219.83 Q145.49 1216.26 145.49 1209.15 Q145.49 1202.02 143.661 1198.48 Q141.855 1194.92 138.221 1194.92 M138.221 1191.21 Q144.031 1191.21 147.087 1195.82 Q150.165 1200.4 150.165 1209.15 Q150.165 1217.88 147.087 1222.49 Q144.031 1227.07 138.221 1227.07 Q132.411 1227.07 129.332 1222.49 Q126.277 1217.88 126.277 1209.15 Q126.277 1200.4 129.332 1195.82 Q132.411 1191.21 138.221 1191.21 Z" fill="#000000" fill-rule="nonzero" fill-opacity="1" /><path clip-path="url(#clip780)" d="M168.383 1194.92 Q164.772 1194.92 162.943 1198.48 Q161.138 1202.02 161.138 1209.15 Q161.138 1216.26 162.943 1219.83 Q164.772 1223.37 168.383 1223.37 Q172.017 1223.37 173.823 1219.83 Q175.651 1216.26 175.651 1209.15 Q175.651 1202.02 173.823 1198.48 Q172.017 1194.92 168.383 1194.92 M168.383 1191.21 Q174.193 1191.21 177.249 1195.82 Q180.327 1200.4 180.327 1209.15 Q180.327 1217.88 177.249 1222.49 Q174.193 1227.07 168.383 1227.07 Q162.573 1227.07 159.494 1222.49 Q156.439 1217.88 156.439 1209.15 Q156.439 1200.4 159.494 1195.82 Q162.573 1191.21 168.383 1191.21 Z" fill="#000000" fill-rule="nonzero" fill-opacity="1" /><path clip-path="url(#clip780)" d="M216.716 1200.94 L206.137 1211.56 L216.716 1222.14 L213.961 1224.94 L203.337 1214.32 L192.712 1224.94 L189.98 1222.14 L200.536 1211.56 L189.98 1200.94 L192.712 1198.14 L203.337 1208.76 L213.961 1198.14 L216.716 1200.94 Z" fill="#000000" fill-rule="nonzero" fill-opacity="1" /><path clip-path="url(#clip780)" d="M229.077 1222.46 L236.716 1222.46 L236.716 1196.1 L228.406 1197.77 L228.406 1193.51 L236.67 1191.84 L241.346 1191.84 L241.346 1222.46 L248.984 1222.46 L248.984 1226.4 L229.077 1226.4 L229.077 1222.46 Z" fill="#000000" fill-rule="nonzero" fill-opacity="1" /><path clip-path="url(#clip780)" d="M268.429 1194.92 Q264.818 1194.92 262.989 1198.48 Q261.183 1202.02 261.183 1209.15 Q261.183 1216.26 262.989 1219.83 Q264.818 1223.37 268.429 1223.37 Q272.063 1223.37 273.869 1219.83 Q275.697 1216.26 275.697 1209.15 Q275.697 1202.02 273.869 1198.48 Q272.063 1194.92 268.429 1194.92 M268.429 1191.21 Q274.239 1191.21 277.294 1195.82 Q280.373 1200.4 280.373 1209.15 Q280.373 1217.88 277.294 1222.49 Q274.239 1227.07 268.429 1227.07 Q262.619 1227.07 259.54 1222.49 Q256.484 1217.88 256.484 1209.15 Q256.484 1200.4 259.54 1195.82 Q262.619 1191.21 268.429 1191.21 Z" fill="#000000" fill-rule="nonzero" fill-opacity="1" /><path clip-path="url(#clip780)" d="M293.068 1183.85 Q295.796 1184.43 297.319 1186.28 Q298.861 1188.12 298.861 1190.83 Q298.861 1194.98 296.002 1197.26 Q293.144 1199.53 287.877 1199.53 Q286.11 1199.53 284.229 1199.18 Q282.367 1198.84 280.373 1198.14 L280.373 1194.48 Q281.953 1195.4 283.834 1195.87 Q285.715 1196.34 287.765 1196.34 Q291.338 1196.34 293.2 1194.93 Q295.081 1193.52 295.081 1190.83 Q295.081 1188.34 293.332 1186.95 Q291.601 1185.54 288.498 1185.54 L285.226 1185.54 L285.226 1182.42 L288.649 1182.42 Q291.451 1182.42 292.937 1181.31 Q294.423 1180.18 294.423 1178.07 Q294.423 1175.91 292.88 1174.76 Q291.357 1173.6 288.498 1173.6 Q286.937 1173.6 285.15 1173.94 Q283.364 1174.28 281.219 1174.99 L281.219 1171.61 Q283.382 1171 285.263 1170.7 Q287.163 1170.4 288.837 1170.4 Q293.162 1170.4 295.683 1172.38 Q298.203 1174.33 298.203 1177.68 Q298.203 1180.01 296.868 1181.63 Q295.532 1183.23 293.068 1183.85 Z" fill="#000000" fill-rule="nonzero" fill-opacity="1" /><path clip-path="url(#clip780)" d="M52.8743 948.796 L71.2307 948.796 L71.2307 952.731 L57.1567 952.731 L57.1567 961.203 Q58.1752 960.856 59.1938 960.694 Q60.2123 960.509 61.2308 960.509 Q67.0178 960.509 70.3974 963.68 Q73.777 966.851 73.777 972.268 Q73.777 977.847 70.3048 980.948 Q66.8326 984.027 60.5132 984.027 Q58.3373 984.027 56.0688 983.657 Q53.8234 983.286 51.416 982.546 L51.416 977.847 Q53.4993 978.981 55.7216 979.536 Q57.9438 980.092 60.4206 980.092 Q64.4252 980.092 66.7632 977.986 Q69.1011 975.879 69.1011 972.268 Q69.1011 968.657 66.7632 966.55 Q64.4252 964.444 60.4206 964.444 Q58.5456 964.444 56.6706 964.861 Q54.8188 965.277 52.8743 966.157 L52.8743 948.796 Z" fill="#000000" fill-rule="nonzero" fill-opacity="1" /><path clip-path="url(#clip780)" d="M82.9899 977.476 L87.8742 977.476 L87.8742 983.356 L82.9899 983.356 L82.9899 977.476 Z" fill="#000000" fill-rule="nonzero" fill-opacity="1" /><path clip-path="url(#clip780)" d="M108.059 951.875 Q104.448 951.875 102.619 955.439 Q100.814 958.981 100.814 966.111 Q100.814 973.217 102.619 976.782 Q104.448 980.323 108.059 980.323 Q111.693 980.323 113.499 976.782 Q115.328 973.217 115.328 966.111 Q115.328 958.981 113.499 955.439 Q111.693 951.875 108.059 951.875 M108.059 948.171 Q113.869 948.171 116.925 952.777 Q120.004 957.361 120.004 966.111 Q120.004 974.837 116.925 979.444 Q113.869 984.027 108.059 984.027 Q102.249 984.027 99.1704 979.444 Q96.1149 974.837 96.1149 966.111 Q96.1149 957.361 99.1704 952.777 Q102.249 948.171 108.059 948.171 Z" fill="#000000" fill-rule="nonzero" fill-opacity="1" /><path clip-path="url(#clip780)" d="M138.221 951.875 Q134.61 951.875 132.781 955.439 Q130.976 958.981 130.976 966.111 Q130.976 973.217 132.781 976.782 Q134.61 980.323 138.221 980.323 Q141.855 980.323 143.661 976.782 Q145.49 973.217 145.49 966.111 Q145.49 958.981 143.661 955.439 Q141.855 951.875 138.221 951.875 M138.221 948.171 Q144.031 948.171 147.087 952.777 Q150.165 957.361 150.165 966.111 Q150.165 974.837 147.087 979.444 Q144.031 984.027 138.221 984.027 Q132.411 984.027 129.332 979.444 Q126.277 974.837 126.277 966.111 Q126.277 957.361 129.332 952.777 Q132.411 948.171 138.221 948.171 Z" fill="#000000" fill-rule="nonzero" fill-opacity="1" /><path clip-path="url(#clip780)" d="M168.383 951.875 Q164.772 951.875 162.943 955.439 Q161.138 958.981 161.138 966.111 Q161.138 973.217 162.943 976.782 Q164.772 980.323 168.383 980.323 Q172.017 980.323 173.823 976.782 Q175.651 973.217 175.651 966.111 Q175.651 958.981 173.823 955.439 Q172.017 951.875 168.383 951.875 M168.383 948.171 Q174.193 948.171 177.249 952.777 Q180.327 957.361 180.327 966.111 Q180.327 974.837 177.249 979.444 Q174.193 984.027 168.383 984.027 Q162.573 984.027 159.494 979.444 Q156.439 974.837 156.439 966.111 Q156.439 957.361 159.494 952.777 Q162.573 948.171 168.383 948.171 Z" fill="#000000" fill-rule="nonzero" fill-opacity="1" /><path clip-path="url(#clip780)" d="M216.716 957.893 L206.137 968.518 L216.716 979.097 L213.961 981.898 L203.337 971.273 L192.712 981.898 L189.98 979.097 L200.536 968.518 L189.98 957.893 L192.712 955.092 L203.337 965.717 L213.961 955.092 L216.716 957.893 Z" fill="#000000" fill-rule="nonzero" fill-opacity="1" /><path clip-path="url(#clip780)" d="M229.077 979.421 L236.716 979.421 L236.716 953.055 L228.406 954.722 L228.406 950.463 L236.67 948.796 L241.346 948.796 L241.346 979.421 L248.984 979.421 L248.984 983.356 L229.077 983.356 L229.077 979.421 Z" fill="#000000" fill-rule="nonzero" fill-opacity="1" /><path clip-path="url(#clip780)" d="M268.429 951.875 Q264.818 951.875 262.989 955.439 Q261.183 958.981 261.183 966.111 Q261.183 973.217 262.989 976.782 Q264.818 980.323 268.429 980.323 Q272.063 980.323 273.869 976.782 Q275.697 973.217 275.697 966.111 Q275.697 958.981 273.869 955.439 Q272.063 951.875 268.429 951.875 M268.429 948.171 Q274.239 948.171 277.294 952.777 Q280.373 957.361 280.373 966.111 Q280.373 974.837 277.294 979.444 Q274.239 984.027 268.429 984.027 Q262.619 984.027 259.54 979.444 Q256.484 974.837 256.484 966.111 Q256.484 957.361 259.54 952.777 Q262.619 948.171 268.429 948.171 Z" fill="#000000" fill-rule="nonzero" fill-opacity="1" /><path clip-path="url(#clip780)" d="M293.068 940.805 Q295.796 941.388 297.319 943.231 Q298.861 945.075 298.861 947.783 Q298.861 951.939 296.002 954.215 Q293.144 956.491 287.877 956.491 Q286.11 956.491 284.229 956.134 Q282.367 955.795 280.373 955.099 L280.373 951.432 Q281.953 952.353 283.834 952.823 Q285.715 953.294 287.765 953.294 Q291.338 953.294 293.2 951.883 Q295.081 950.472 295.081 947.783 Q295.081 945.3 293.332 943.908 Q291.601 942.498 288.498 942.498 L285.226 942.498 L285.226 939.376 L288.649 939.376 Q291.451 939.376 292.937 938.266 Q294.423 937.138 294.423 935.031 Q294.423 932.868 292.88 931.721 Q291.357 930.555 288.498 930.555 Q286.937 930.555 285.15 930.894 Q283.364 931.232 281.219 931.947 L281.219 928.561 Q283.382 927.959 285.263 927.659 Q287.163 927.358 288.837 927.358 Q293.162 927.358 295.683 929.332 Q298.203 931.288 298.203 934.636 Q298.203 936.968 296.868 938.586 Q295.532 940.185 293.068 940.805 Z" fill="#000000" fill-rule="nonzero" fill-opacity="1" /><path clip-path="url(#clip780)" d="M51.6475 705.752 L73.8696 705.752 L73.8696 707.743 L61.3234 740.312 L56.4391 740.312 L68.2446 709.687 L51.6475 709.687 L51.6475 705.752 Z" fill="#000000" fill-rule="nonzero" fill-opacity="1" /><path clip-path="url(#clip780)" d="M82.9899 734.433 L87.8742 734.433 L87.8742 740.312 L82.9899 740.312 L82.9899 734.433 Z" fill="#000000" fill-rule="nonzero" fill-opacity="1" /><path clip-path="url(#clip780)" d="M98.1056 705.752 L116.462 705.752 L116.462 709.687 L102.388 709.687 L102.388 718.159 Q103.406 717.812 104.425 717.65 Q105.444 717.465 106.462 717.465 Q112.249 717.465 115.629 720.636 Q119.008 723.808 119.008 729.224 Q119.008 734.803 115.536 737.905 Q112.064 740.983 105.744 740.983 Q103.569 740.983 101.3 740.613 Q99.0547 740.243 96.6473 739.502 L96.6473 734.803 Q98.7306 735.937 100.953 736.493 Q103.175 737.048 105.652 737.048 Q109.656 737.048 111.994 734.942 Q114.332 732.835 114.332 729.224 Q114.332 725.613 111.994 723.507 Q109.656 721.4 105.652 721.4 Q103.777 721.4 101.902 721.817 Q100.05 722.234 98.1056 723.113 L98.1056 705.752 Z" fill="#000000" fill-rule="nonzero" fill-opacity="1" /><path clip-path="url(#clip780)" d="M138.221 708.831 Q134.61 708.831 132.781 712.396 Q130.976 715.937 130.976 723.067 Q130.976 730.173 132.781 733.738 Q134.61 737.28 138.221 737.28 Q141.855 737.28 143.661 733.738 Q145.49 730.173 145.49 723.067 Q145.49 715.937 143.661 712.396 Q141.855 708.831 138.221 708.831 M138.221 705.127 Q144.031 705.127 147.087 709.734 Q150.165 714.317 150.165 723.067 Q150.165 731.794 147.087 736.4 Q144.031 740.983 138.221 740.983 Q132.411 740.983 129.332 736.4 Q126.277 731.794 126.277 723.067 Q126.277 714.317 129.332 709.734 Q132.411 705.127 138.221 705.127 Z" fill="#000000" fill-rule="nonzero" fill-opacity="1" /><path clip-path="url(#clip780)" d="M168.383 708.831 Q164.772 708.831 162.943 712.396 Q161.138 715.937 161.138 723.067 Q161.138 730.173 162.943 733.738 Q164.772 737.28 168.383 737.28 Q172.017 737.28 173.823 733.738 Q175.651 730.173 175.651 723.067 Q175.651 715.937 173.823 712.396 Q172.017 708.831 168.383 708.831 M168.383 705.127 Q174.193 705.127 177.249 709.734 Q180.327 714.317 180.327 723.067 Q180.327 731.794 177.249 736.4 Q174.193 740.983 168.383 740.983 Q162.573 740.983 159.494 736.4 Q156.439 731.794 156.439 723.067 Q156.439 714.317 159.494 709.734 Q162.573 705.127 168.383 705.127 Z" fill="#000000" fill-rule="nonzero" fill-opacity="1" /><path clip-path="url(#clip780)" d="M216.716 714.849 L206.137 725.474 L216.716 736.053 L213.961 738.854 L203.337 728.229 L192.712 738.854 L189.98 736.053 L200.536 725.474 L189.98 714.849 L192.712 712.048 L203.337 722.673 L213.961 712.048 L216.716 714.849 Z" fill="#000000" fill-rule="nonzero" fill-opacity="1" /><path clip-path="url(#clip780)" d="M229.077 736.377 L236.716 736.377 L236.716 710.011 L228.406 711.678 L228.406 707.419 L236.67 705.752 L241.346 705.752 L241.346 736.377 L248.984 736.377 L248.984 740.312 L229.077 740.312 L229.077 736.377 Z" fill="#000000" fill-rule="nonzero" fill-opacity="1" /><path clip-path="url(#clip780)" d="M268.429 708.831 Q264.818 708.831 262.989 712.396 Q261.183 715.937 261.183 723.067 Q261.183 730.173 262.989 733.738 Q264.818 737.28 268.429 737.28 Q272.063 737.28 273.869 733.738 Q275.697 730.173 275.697 723.067 Q275.697 715.937 273.869 712.396 Q272.063 708.831 268.429 708.831 M268.429 705.127 Q274.239 705.127 277.294 709.734 Q280.373 714.317 280.373 723.067 Q280.373 731.794 277.294 736.4 Q274.239 740.983 268.429 740.983 Q262.619 740.983 259.54 736.4 Q256.484 731.794 256.484 723.067 Q256.484 714.317 259.54 709.734 Q262.619 705.127 268.429 705.127 Z" fill="#000000" fill-rule="nonzero" fill-opacity="1" /><path clip-path="url(#clip780)" d="M293.068 697.761 Q295.796 698.345 297.319 700.188 Q298.861 702.031 298.861 704.739 Q298.861 708.896 296.002 711.171 Q293.144 713.447 287.877 713.447 Q286.11 713.447 284.229 713.09 Q282.367 712.751 280.373 712.055 L280.373 708.388 Q281.953 709.309 283.834 709.78 Q285.715 710.25 287.765 710.25 Q291.338 710.25 293.2 708.839 Q295.081 707.429 295.081 704.739 Q295.081 702.257 293.332 700.865 Q291.601 699.454 288.498 699.454 L285.226 699.454 L285.226 696.332 L288.649 696.332 Q291.451 696.332 292.937 695.222 Q294.423 694.094 294.423 691.988 Q294.423 689.825 292.88 688.677 Q291.357 687.511 288.498 687.511 Q286.937 687.511 285.15 687.85 Q283.364 688.188 281.219 688.903 L281.219 685.518 Q283.382 684.916 285.263 684.615 Q287.163 684.314 288.837 684.314 Q293.162 684.314 295.683 686.289 Q298.203 688.245 298.203 691.593 Q298.203 693.925 296.868 695.542 Q295.532 697.141 293.068 697.761 Z" fill="#000000" fill-rule="nonzero" fill-opacity="1" /><path clip-path="url(#clip780)" d="M51.6634 493.333 L59.3023 493.333 L59.3023 466.968 L50.9921 468.634 L50.9921 464.375 L59.256 462.708 L63.9319 462.708 L63.9319 493.333 L71.5707 493.333 L71.5707 497.268 L51.6634 497.268 L51.6634 493.333 Z" fill="#000000" fill-rule="nonzero" fill-opacity="1" /><path clip-path="url(#clip780)" d="M81.0151 491.389 L85.8993 491.389 L85.8993 497.268 L81.0151 497.268 L81.0151 491.389 Z" fill="#000000" fill-rule="nonzero" fill-opacity="1" /><path clip-path="url(#clip780)" d="M106.084 465.787 Q102.473 465.787 100.645 469.352 Q98.8391 472.894 98.8391 480.023 Q98.8391 487.13 100.645 490.694 Q102.473 494.236 106.084 494.236 Q109.719 494.236 111.524 490.694 Q113.353 487.13 113.353 480.023 Q113.353 472.894 111.524 469.352 Q109.719 465.787 106.084 465.787 M106.084 462.083 Q111.895 462.083 114.95 466.69 Q118.029 471.273 118.029 480.023 Q118.029 488.75 114.95 493.356 Q111.895 497.94 106.084 497.94 Q100.274 497.94 97.1956 493.356 Q94.14 488.75 94.14 480.023 Q94.14 471.273 97.1956 466.69 Q100.274 462.083 106.084 462.083 Z" fill="#000000" fill-rule="nonzero" fill-opacity="1" /><path clip-path="url(#clip780)" d="M136.246 465.787 Q132.635 465.787 130.807 469.352 Q129.001 472.894 129.001 480.023 Q129.001 487.13 130.807 490.694 Q132.635 494.236 136.246 494.236 Q139.881 494.236 141.686 490.694 Q143.515 487.13 143.515 480.023 Q143.515 472.894 141.686 469.352 Q139.881 465.787 136.246 465.787 M136.246 462.083 Q142.056 462.083 145.112 466.69 Q148.191 471.273 148.191 480.023 Q148.191 488.75 145.112 493.356 Q142.056 497.94 136.246 497.94 Q130.436 497.94 127.357 493.356 Q124.302 488.75 124.302 480.023 Q124.302 471.273 127.357 466.69 Q130.436 462.083 136.246 462.083 Z" fill="#000000" fill-rule="nonzero" fill-opacity="1" /><path clip-path="url(#clip780)" d="M166.408 465.787 Q162.797 465.787 160.968 469.352 Q159.163 472.894 159.163 480.023 Q159.163 487.13 160.968 490.694 Q162.797 494.236 166.408 494.236 Q170.042 494.236 171.848 490.694 Q173.677 487.13 173.677 480.023 Q173.677 472.894 171.848 469.352 Q170.042 465.787 166.408 465.787 M166.408 462.083 Q172.218 462.083 175.274 466.69 Q178.353 471.273 178.353 480.023 Q178.353 488.75 175.274 493.356 Q172.218 497.94 166.408 497.94 Q160.598 497.94 157.519 493.356 Q154.464 488.75 154.464 480.023 Q154.464 471.273 157.519 466.69 Q160.598 462.083 166.408 462.083 Z" fill="#000000" fill-rule="nonzero" fill-opacity="1" /><path clip-path="url(#clip780)" d="M214.741 471.806 L204.163 482.431 L214.741 493.009 L211.987 495.81 L201.362 485.185 L190.737 495.81 L188.005 493.009 L198.561 482.431 L188.005 471.806 L190.737 469.005 L201.362 479.63 L211.987 469.005 L214.741 471.806 Z" fill="#000000" fill-rule="nonzero" fill-opacity="1" /><path clip-path="url(#clip780)" d="M227.102 493.333 L234.741 493.333 L234.741 466.968 L226.431 468.634 L226.431 464.375 L234.695 462.708 L239.371 462.708 L239.371 493.333 L247.01 493.333 L247.01 497.268 L227.102 497.268 L227.102 493.333 Z" fill="#000000" fill-rule="nonzero" fill-opacity="1" /><path clip-path="url(#clip780)" d="M266.454 465.787 Q262.843 465.787 261.014 469.352 Q259.209 472.894 259.209 480.023 Q259.209 487.13 261.014 490.694 Q262.843 494.236 266.454 494.236 Q270.088 494.236 271.894 490.694 Q273.722 487.13 273.722 480.023 Q273.722 472.894 271.894 469.352 Q270.088 465.787 266.454 465.787 M266.454 462.083 Q272.264 462.083 275.32 466.69 Q278.398 471.273 278.398 480.023 Q278.398 488.75 275.32 493.356 Q272.264 497.94 266.454 497.94 Q260.644 497.94 257.565 493.356 Q254.51 488.75 254.51 480.023 Q254.51 471.273 257.565 466.69 Q260.644 462.083 266.454 462.083 Z" fill="#000000" fill-rule="nonzero" fill-opacity="1" /><path clip-path="url(#clip780)" d="M291.075 445.088 L281.483 460.078 L291.075 460.078 L291.075 445.088 M290.078 441.778 L294.855 441.778 L294.855 460.078 L298.861 460.078 L298.861 463.238 L294.855 463.238 L294.855 469.858 L291.075 469.858 L291.075 463.238 L278.398 463.238 L278.398 459.57 L290.078 441.778 Z" fill="#000000" fill-rule="nonzero" fill-opacity="1" /><path clip-path="url(#clip780)" d="M51.6634 250.29 L59.3023 250.29 L59.3023 223.924 L50.9921 225.591 L50.9921 221.331 L59.256 219.665 L63.9319 219.665 L63.9319 250.29 L71.5707 250.29 L71.5707 254.225 L51.6634 254.225 L51.6634 250.29 Z" fill="#000000" fill-rule="nonzero" fill-opacity="1" /><path clip-path="url(#clip780)" d="M81.0151 248.345 L85.8993 248.345 L85.8993 254.225 L81.0151 254.225 L81.0151 248.345 Z" fill="#000000" fill-rule="nonzero" fill-opacity="1" /><path clip-path="url(#clip780)" d="M100.112 250.29 L116.432 250.29 L116.432 254.225 L94.4873 254.225 L94.4873 250.29 Q97.1493 247.535 101.733 242.905 Q106.339 238.253 107.52 236.91 Q109.765 234.387 110.645 232.651 Q111.547 230.892 111.547 229.202 Q111.547 226.447 109.603 224.711 Q107.682 222.975 104.58 222.975 Q102.381 222.975 99.927 223.739 Q97.4965 224.503 94.7187 226.054 L94.7187 221.331 Q97.5428 220.197 99.9965 219.618 Q102.45 219.04 104.487 219.04 Q109.858 219.04 113.052 221.725 Q116.246 224.41 116.246 228.901 Q116.246 231.03 115.436 232.952 Q114.649 234.85 112.543 237.442 Q111.964 238.114 108.862 241.331 Q105.76 244.526 100.112 250.29 Z" fill="#000000" fill-rule="nonzero" fill-opacity="1" /><path clip-path="url(#clip780)" d="M126.293 219.665 L144.649 219.665 L144.649 223.6 L130.575 223.6 L130.575 232.072 Q131.594 231.725 132.612 231.563 Q133.631 231.378 134.649 231.378 Q140.436 231.378 143.816 234.549 Q147.195 237.72 147.195 243.137 Q147.195 248.715 143.723 251.817 Q140.251 254.896 133.931 254.896 Q131.756 254.896 129.487 254.526 Q127.242 254.155 124.834 253.415 L124.834 248.715 Q126.918 249.85 129.14 250.405 Q131.362 250.961 133.839 250.961 Q137.844 250.961 140.181 248.854 Q142.519 246.748 142.519 243.137 Q142.519 239.526 140.181 237.419 Q137.844 235.313 133.839 235.313 Q131.964 235.313 130.089 235.729 Q128.237 236.146 126.293 237.026 L126.293 219.665 Z" fill="#000000" fill-rule="nonzero" fill-opacity="1" /><path clip-path="url(#clip780)" d="M166.408 222.743 Q162.797 222.743 160.968 226.308 Q159.163 229.85 159.163 236.979 Q159.163 244.086 160.968 247.651 Q162.797 251.192 166.408 251.192 Q170.042 251.192 171.848 247.651 Q173.677 244.086 173.677 236.979 Q173.677 229.85 171.848 226.308 Q170.042 222.743 166.408 222.743 M166.408 219.04 Q172.218 219.04 175.274 223.646 Q178.353 228.229 178.353 236.979 Q178.353 245.706 175.274 250.313 Q172.218 254.896 166.408 254.896 Q160.598 254.896 157.519 250.313 Q154.464 245.706 154.464 236.979 Q154.464 228.229 157.519 223.646 Q160.598 219.04 166.408 219.04 Z" fill="#000000" fill-rule="nonzero" fill-opacity="1" /><path clip-path="url(#clip780)" d="M214.741 228.762 L204.163 239.387 L214.741 249.965 L211.987 252.766 L201.362 242.141 L190.737 252.766 L188.005 249.965 L198.561 239.387 L188.005 228.762 L190.737 225.961 L201.362 236.586 L211.987 225.961 L214.741 228.762 Z" fill="#000000" fill-rule="nonzero" fill-opacity="1" /><path clip-path="url(#clip780)" d="M227.102 250.29 L234.741 250.29 L234.741 223.924 L226.431 225.591 L226.431 221.331 L234.695 219.665 L239.371 219.665 L239.371 250.29 L247.01 250.29 L247.01 254.225 L227.102 254.225 L227.102 250.29 Z" fill="#000000" fill-rule="nonzero" fill-opacity="1" /><path clip-path="url(#clip780)" d="M266.454 222.743 Q262.843 222.743 261.014 226.308 Q259.209 229.85 259.209 236.979 Q259.209 244.086 261.014 247.651 Q262.843 251.192 266.454 251.192 Q270.088 251.192 271.894 247.651 Q273.722 244.086 273.722 236.979 Q273.722 229.85 271.894 226.308 Q270.088 222.743 266.454 222.743 M266.454 219.04 Q272.264 219.04 275.32 223.646 Q278.398 228.229 278.398 236.979 Q278.398 245.706 275.32 250.313 Q272.264 254.896 266.454 254.896 Q260.644 254.896 257.565 250.313 Q254.51 245.706 254.51 236.979 Q254.51 228.229 257.565 223.646 Q260.644 219.04 266.454 219.04 Z" fill="#000000" fill-rule="nonzero" fill-opacity="1" /><path clip-path="url(#clip780)" d="M291.075 202.044 L281.483 217.034 L291.075 217.034 L291.075 202.044 M290.078 198.734 L294.855 198.734 L294.855 217.034 L298.861 217.034 L298.861 220.194 L294.855 220.194 L294.855 226.814 L291.075 226.814 L291.075 220.194 L278.398 220.194 L278.398 216.526 L290.078 198.734 Z" fill="#000000" fill-rule="nonzero" fill-opacity="1" /><polyline clip-path="url(#clip782)" style="stroke:#009af9; stroke-linecap:round; stroke-linejoin:round; stroke-width:4; stroke-opacity:1; fill:none" points="391.971,1443.97 391.971,1443.38 411.397,1443.38 411.397,1443.97 430.822,1443.97 430.822,1443.09 450.247,1443.09 450.247,1443.29 469.672,1443.29 469.672,1442.9 489.098,1442.9 489.098,1443.48 508.523,1443.48 508.523,1443.09 527.948,1443.09 527.948,1442.9 547.373,1442.9 547.373,1443.09 566.799,1443.09 566.799,1443.48 586.224,1443.48 586.224,1442.31 605.649,1442.31 605.649,1442.51 625.074,1442.51 625.074,1442.41 644.5,1442.41 644.5,1441.83 663.925,1441.83 663.925,1442.7 683.35,1442.7 683.35,1441.44 702.775,1441.44 702.775,1442.22 722.201,1442.22 722.201,1441.34 741.626,1441.34 741.626,1440.76 761.051,1440.76 761.051,1441.05 780.476,1441.05 780.476,1440.66 799.902,1440.66 799.902,1440.85 819.327,1440.85 819.327,1439.4 838.752,1439.4 838.752,1439.01 858.177,1439.01 858.177,1438.52 877.603,1438.52 877.603,1439.1 897.028,1439.1 897.028,1437.06 916.453,1437.06 916.453,1436.77 935.878,1436.77 935.878,1437.26 955.304,1437.26 955.304,1433.76 974.729,1433.76 974.729,1434.92 994.154,1434.92 994.154,1433.37 1013.58,1433.37 1013.58,1430.74 1033,1430.74 1033,1429.48 1052.43,1429.48 1052.43,1428.22 1071.86,1428.22 1071.86,1424.81 1091.28,1424.81 1091.28,1422.87 1110.71,1422.87 1110.71,1419.37 1130.13,1419.37 1130.13,1415.29 1149.56,1415.29 1149.56,1411.11 1168.98,1411.11 1168.98,1403.43 1188.41,1403.43 1188.41,1396.23 1207.83,1396.23 1207.83,1387.58 1227.26,1387.58 1227.26,1373.87 1246.68,1373.87 1246.68,1358.71 1266.11,1358.71 1266.11,1337.51 1285.53,1337.51 1285.53,1306.6 1304.96,1306.6 1304.96,1265.18 1324.38,1265.18 1324.38,1209.57 1343.81,1209.57 1343.81,1125.19 1363.23,1125.19 1363.23,997.057 1382.66,997.057 1382.66,796.108 1402.08,796.108 1402.08,467.999 1421.51,467.999 1421.51,87.9763 1440.93,87.9763 1440.93,482.29 1460.36,482.29 1460.36,654.851 1479.79,654.851 1479.79,746.333 1499.21,746.333 1499.21,806.9 1518.64,806.9 1518.64,845.398 1538.06,845.398 1538.06,873.007 1557.49,873.007 1557.49,887.104 1576.91,887.104 1576.91,891.382 1596.34,891.382 1596.34,888.368 1615.76,888.368 1615.76,878.063 1635.19,878.063 1635.19,859.203 1654.61,859.203 1654.61,832.954 1674.04,832.954 1674.04,790.567 1693.46,790.567 1693.46,713.96 1712.89,713.96 1712.89,525.649 1732.31,525.649 1732.31,225.15 1751.74,225.15 1751.74,829.357 1771.16,829.357 1771.16,1135.49 1790.59,1135.49 1790.59,1278.11 1810.01,1278.11 1810.01,1352.29 1829.44,1352.29 1829.44,1392.83 1848.86,1392.83 1848.86,1420.44 1868.29,1420.44 1868.29,1445.72 1887.72,1445.72 1907.14,1445.72 1926.57,1445.72 1945.99,1445.72 1965.42,1445.72 1984.84,1445.72 2004.27,1445.72 2023.69,1445.72 2043.12,1445.72 2062.54,1445.72 2081.97,1445.72 2101.39,1445.72 2120.82,1445.72 2140.24,1445.72 2159.67,1445.72 2179.09,1445.72 2198.52,1445.72 2217.94,1445.72 2237.37,1445.72 2256.8,1445.72 2276.22,1445.72 2295.65,1445.72 "/>
<path clip-path="url(#clip780)" d="M2031.27 198.898 L2285.49 198.898 L2285.49 95.2176 L2031.27 95.2176  Z" fill="#ffffff" fill-rule="evenodd" fill-opacity="1"/>
<polyline clip-path="url(#clip780)" style="stroke:#000000; stroke-linecap:round; stroke-linejoin:round; stroke-width:4; stroke-opacity:1; fill:none" points="2031.27,198.898 2285.49,198.898 2285.49,95.2176 2031.27,95.2176 2031.27,198.898 "/>
<polyline clip-path="url(#clip780)" style="stroke:#009af9; stroke-linecap:round; stroke-linejoin:round; stroke-width:4; stroke-opacity:1; fill:none" points="2053.69,147.058 2188.22,147.058 "/>
<path clip-path="url(#clip780)" d="M2224.48 166.745 Q2222.68 171.375 2220.97 172.787 Q2219.25 174.199 2216.38 174.199 L2212.98 174.199 L2212.98 170.634 L2215.48 170.634 Q2217.24 170.634 2218.21 169.8 Q2219.18 168.967 2220.36 165.865 L2221.13 163.921 L2210.64 138.412 L2215.16 138.412 L2223.26 158.689 L2231.36 138.412 L2235.87 138.412 L2224.48 166.745 Z" fill="#000000" fill-rule="nonzero" fill-opacity="1" /><path clip-path="url(#clip780)" d="M2243.16 160.402 L2250.8 160.402 L2250.8 134.037 L2242.49 135.703 L2242.49 131.444 L2250.76 129.778 L2255.43 129.778 L2255.43 160.402 L2263.07 160.402 L2263.07 164.338 L2243.16 164.338 L2243.16 160.402 Z" fill="#000000" fill-rule="nonzero" fill-opacity="1" /></svg>
