<?xml version="1.0" encoding="utf-8"?>
<svg xmlns="http://www.w3.org/2000/svg" xmlns:xlink="http://www.w3.org/1999/xlink" width="600" height="400" viewBox="0 0 2400 1600">
<defs>
  <clipPath id="clip810">
    <rect x="0" y="0" width="2400" height="1600"/>
  </clipPath>
</defs>
<path clip-path="url(#clip810)" d="M0 1600 L2400 1600 L2400 0 L0 0  Z" fill="#ffffff" fill-rule="evenodd" fill-opacity="1"/>
<defs>
  <clipPath id="clip811">
    <rect x="480" y="0" width="1681" height="1600"/>
  </clipPath>
</defs>
<path clip-path="url(#clip810)" d="M186.274 1486.45 L2352.76 1486.45 L2352.76 47.2441 L186.274 47.2441  Z" fill="#ffffff" fill-rule="evenodd" fill-opacity="1"/>
<defs>
  <clipPath id="clip812">
    <rect x="186" y="47" width="2167" height="1440"/>
  </clipPath>
</defs>
<polyline clip-path="url(#clip812)" style="stroke:#000000; stroke-linecap:round; stroke-linejoin:round; stroke-width:2; stroke-opacity:0.1; fill:none" points="245.503,1486.45 245.503,47.2441 "/>
<polyline clip-path="url(#clip812)" style="stroke:#000000; stroke-linecap:round; stroke-linejoin:round; stroke-width:2; stroke-opacity:0.1; fill:none" points="757.513,1486.45 757.513,47.2441 "/>
<polyline clip-path="url(#clip812)" style="stroke:#000000; stroke-linecap:round; stroke-linejoin:round; stroke-width:2; stroke-opacity:0.1; fill:none" points="1269.52,1486.45 1269.52,47.2441 "/>
<polyline clip-path="url(#clip812)" style="stroke:#000000; stroke-linecap:round; stroke-linejoin:round; stroke-width:2; stroke-opacity:0.1; fill:none" points="1781.53,1486.45 1781.53,47.2441 "/>
<polyline clip-path="url(#clip812)" style="stroke:#000000; stroke-linecap:round; stroke-linejoin:round; stroke-width:2; stroke-opacity:0.1; fill:none" points="2293.54,1486.45 2293.54,47.2441 "/>
<polyline clip-path="url(#clip810)" style="stroke:#000000; stroke-linecap:round; stroke-linejoin:round; stroke-width:4; stroke-opacity:1; fill:none" points="186.274,1486.45 2352.76,1486.45 "/>
<polyline clip-path="url(#clip810)" style="stroke:#000000; stroke-linecap:round; stroke-linejoin:round; stroke-width:4; stroke-opacity:1; fill:none" points="245.503,1486.45 245.503,1467.55 "/>
<polyline clip-path="url(#clip810)" style="stroke:#000000; stroke-linecap:round; stroke-linejoin:round; stroke-width:4; stroke-opacity:1; fill:none" points="757.513,1486.45 757.513,1467.55 "/>
<polyline clip-path="url(#clip810)" style="stroke:#000000; stroke-linecap:round; stroke-linejoin:round; stroke-width:4; stroke-opacity:1; fill:none" points="1269.52,1486.45 1269.52,1467.55 "/>
<polyline clip-path="url(#clip810)" style="stroke:#000000; stroke-linecap:round; stroke-linejoin:round; stroke-width:4; stroke-opacity:1; fill:none" points="1781.53,1486.45 1781.53,1467.55 "/>
<polyline clip-path="url(#clip810)" style="stroke:#000000; stroke-linecap:round; stroke-linejoin:round; stroke-width:4; stroke-opacity:1; fill:none" points="2293.54,1486.45 2293.54,1467.55 "/>
<path clip-path="url(#clip810)" d="M207.807 1517.37 Q204.196 1517.37 202.367 1520.93 Q200.561 1524.47 200.561 1531.6 Q200.561 1538.71 202.367 1542.27 Q204.196 1545.82 207.807 1545.82 Q211.441 1545.82 213.247 1542.27 Q215.075 1538.71 215.075 1531.6 Q215.075 1524.47 213.247 1520.93 Q211.441 1517.37 207.807 1517.37 M207.807 1513.66 Q213.617 1513.66 216.672 1518.27 Q219.751 1522.85 219.751 1531.6 Q219.751 1540.33 216.672 1544.94 Q213.617 1549.52 207.807 1549.52 Q201.997 1549.52 198.918 1544.94 Q195.862 1540.33 195.862 1531.6 Q195.862 1522.85 198.918 1518.27 Q201.997 1513.66 207.807 1513.66 Z" fill="#000000" fill-rule="nonzero" fill-opacity="1" /><path clip-path="url(#clip810)" d="M227.969 1542.97 L232.853 1542.97 L232.853 1548.85 L227.969 1548.85 L227.969 1542.97 Z" fill="#000000" fill-rule="nonzero" fill-opacity="1" /><path clip-path="url(#clip810)" d="M253.038 1517.37 Q249.427 1517.37 247.598 1520.93 Q245.793 1524.47 245.793 1531.6 Q245.793 1538.71 247.598 1542.27 Q249.427 1545.82 253.038 1545.82 Q256.672 1545.82 258.478 1542.27 Q260.306 1538.71 260.306 1531.6 Q260.306 1524.47 258.478 1520.93 Q256.672 1517.37 253.038 1517.37 M253.038 1513.66 Q258.848 1513.66 261.904 1518.27 Q264.982 1522.85 264.982 1531.6 Q264.982 1540.33 261.904 1544.94 Q258.848 1549.52 253.038 1549.52 Q247.228 1549.52 244.149 1544.94 Q241.094 1540.33 241.094 1531.6 Q241.094 1522.85 244.149 1518.27 Q247.228 1513.66 253.038 1513.66 Z" fill="#000000" fill-rule="nonzero" fill-opacity="1" /><path clip-path="url(#clip810)" d="M283.2 1517.37 Q279.589 1517.37 277.76 1520.93 Q275.955 1524.47 275.955 1531.6 Q275.955 1538.71 277.76 1542.27 Q279.589 1545.82 283.2 1545.82 Q286.834 1545.82 288.64 1542.27 Q290.468 1538.71 290.468 1531.6 Q290.468 1524.47 288.64 1520.93 Q286.834 1517.37 283.2 1517.37 M283.2 1513.66 Q289.01 1513.66 292.066 1518.27 Q295.144 1522.85 295.144 1531.6 Q295.144 1540.33 292.066 1544.94 Q289.01 1549.52 283.2 1549.52 Q277.39 1549.52 274.311 1544.94 Q271.255 1540.33 271.255 1531.6 Q271.255 1522.85 274.311 1518.27 Q277.39 1513.66 283.2 1513.66 Z" fill="#000000" fill-rule="nonzero" fill-opacity="1" /><path clip-path="url(#clip810)" d="M720.314 1517.37 Q716.703 1517.37 714.875 1520.93 Q713.069 1524.47 713.069 1531.6 Q713.069 1538.71 714.875 1542.27 Q716.703 1545.82 720.314 1545.82 Q723.949 1545.82 725.754 1542.27 Q727.583 1538.71 727.583 1531.6 Q727.583 1524.47 725.754 1520.93 Q723.949 1517.37 720.314 1517.37 M720.314 1513.66 Q726.125 1513.66 729.18 1518.27 Q732.259 1522.85 732.259 1531.6 Q732.259 1540.33 729.18 1544.94 Q726.125 1549.52 720.314 1549.52 Q714.504 1549.52 711.426 1544.94 Q708.37 1540.33 708.37 1531.6 Q708.37 1522.85 711.426 1518.27 Q714.504 1513.66 720.314 1513.66 Z" fill="#000000" fill-rule="nonzero" fill-opacity="1" /><path clip-path="url(#clip810)" d="M740.476 1542.97 L745.361 1542.97 L745.361 1548.85 L740.476 1548.85 L740.476 1542.97 Z" fill="#000000" fill-rule="nonzero" fill-opacity="1" /><path clip-path="url(#clip810)" d="M759.573 1544.91 L775.893 1544.91 L775.893 1548.85 L753.948 1548.85 L753.948 1544.91 Q756.61 1542.16 761.194 1537.53 Q765.8 1532.88 766.981 1531.53 Q769.226 1529.01 770.106 1527.27 Q771.009 1525.51 771.009 1523.82 Q771.009 1521.07 769.064 1519.33 Q767.143 1517.6 764.041 1517.6 Q761.842 1517.6 759.388 1518.36 Q756.958 1519.13 754.18 1520.68 L754.18 1515.95 Q757.004 1514.82 759.458 1514.24 Q761.911 1513.66 763.948 1513.66 Q769.319 1513.66 772.513 1516.35 Q775.708 1519.03 775.708 1523.52 Q775.708 1525.65 774.897 1527.57 Q774.11 1529.47 772.004 1532.07 Q771.425 1532.74 768.323 1535.95 Q765.222 1539.15 759.573 1544.91 Z" fill="#000000" fill-rule="nonzero" fill-opacity="1" /><path clip-path="url(#clip810)" d="M785.754 1514.29 L804.11 1514.29 L804.11 1518.22 L790.036 1518.22 L790.036 1526.7 Q791.055 1526.35 792.073 1526.19 Q793.092 1526 794.11 1526 Q799.897 1526 803.277 1529.17 Q806.657 1532.34 806.657 1537.76 Q806.657 1543.34 803.184 1546.44 Q799.712 1549.52 793.393 1549.52 Q791.217 1549.52 788.948 1549.15 Q786.703 1548.78 784.296 1548.04 L784.296 1543.34 Q786.379 1544.47 788.601 1545.03 Q790.823 1545.58 793.3 1545.58 Q797.305 1545.58 799.643 1543.48 Q801.981 1541.37 801.981 1537.76 Q801.981 1534.15 799.643 1532.04 Q797.305 1529.94 793.3 1529.94 Q791.425 1529.94 789.55 1530.35 Q787.698 1530.77 785.754 1531.65 L785.754 1514.29 Z" fill="#000000" fill-rule="nonzero" fill-opacity="1" /><path clip-path="url(#clip810)" d="M1231.83 1517.37 Q1228.22 1517.37 1226.39 1520.93 Q1224.58 1524.47 1224.58 1531.6 Q1224.58 1538.71 1226.39 1542.27 Q1228.22 1545.82 1231.83 1545.82 Q1235.46 1545.82 1237.27 1542.27 Q1239.1 1538.71 1239.1 1531.6 Q1239.1 1524.47 1237.27 1520.93 Q1235.46 1517.37 1231.83 1517.37 M1231.83 1513.66 Q1237.64 1513.66 1240.69 1518.27 Q1243.77 1522.85 1243.77 1531.6 Q1243.77 1540.33 1240.69 1544.94 Q1237.64 1549.52 1231.83 1549.52 Q1226.02 1549.52 1222.94 1544.94 Q1219.88 1540.33 1219.88 1531.6 Q1219.88 1522.85 1222.94 1518.27 Q1226.02 1513.66 1231.83 1513.66 Z" fill="#000000" fill-rule="nonzero" fill-opacity="1" /><path clip-path="url(#clip810)" d="M1251.99 1542.97 L1256.87 1542.97 L1256.87 1548.85 L1251.99 1548.85 L1251.99 1542.97 Z" fill="#000000" fill-rule="nonzero" fill-opacity="1" /><path clip-path="url(#clip810)" d="M1267.1 1514.29 L1285.46 1514.29 L1285.46 1518.22 L1271.39 1518.22 L1271.39 1526.7 Q1272.41 1526.35 1273.42 1526.19 Q1274.44 1526 1275.46 1526 Q1281.25 1526 1284.63 1529.17 Q1288.01 1532.34 1288.01 1537.76 Q1288.01 1543.34 1284.53 1546.44 Q1281.06 1549.52 1274.74 1549.52 Q1272.57 1549.52 1270.3 1549.15 Q1268.05 1548.78 1265.65 1548.04 L1265.65 1543.34 Q1267.73 1544.47 1269.95 1545.03 Q1272.17 1545.58 1274.65 1545.58 Q1278.66 1545.58 1280.99 1543.48 Q1283.33 1541.37 1283.33 1537.76 Q1283.33 1534.15 1280.99 1532.04 Q1278.66 1529.94 1274.65 1529.94 Q1272.78 1529.94 1270.9 1530.35 Q1269.05 1530.77 1267.1 1531.65 L1267.1 1514.29 Z" fill="#000000" fill-rule="nonzero" fill-opacity="1" /><path clip-path="url(#clip810)" d="M1307.22 1517.37 Q1303.61 1517.37 1301.78 1520.93 Q1299.97 1524.47 1299.97 1531.6 Q1299.97 1538.71 1301.78 1542.27 Q1303.61 1545.82 1307.22 1545.82 Q1310.85 1545.82 1312.66 1542.27 Q1314.49 1538.71 1314.49 1531.6 Q1314.49 1524.47 1312.66 1520.93 Q1310.85 1517.37 1307.22 1517.37 M1307.22 1513.66 Q1313.03 1513.66 1316.09 1518.27 Q1319.16 1522.85 1319.16 1531.6 Q1319.16 1540.33 1316.09 1544.94 Q1313.03 1549.52 1307.22 1549.52 Q1301.41 1549.52 1298.33 1544.94 Q1295.28 1540.33 1295.28 1531.6 Q1295.28 1522.85 1298.33 1518.27 Q1301.41 1513.66 1307.22 1513.66 Z" fill="#000000" fill-rule="nonzero" fill-opacity="1" /><path clip-path="url(#clip810)" d="M1744.33 1517.37 Q1740.72 1517.37 1738.89 1520.93 Q1737.09 1524.47 1737.09 1531.6 Q1737.09 1538.71 1738.89 1542.27 Q1740.72 1545.82 1744.33 1545.82 Q1747.97 1545.82 1749.77 1542.27 Q1751.6 1538.71 1751.6 1531.6 Q1751.6 1524.47 1749.77 1520.93 Q1747.97 1517.37 1744.33 1517.37 M1744.33 1513.66 Q1750.14 1513.66 1753.2 1518.27 Q1756.28 1522.85 1756.28 1531.6 Q1756.28 1540.33 1753.2 1544.94 Q1750.14 1549.52 1744.33 1549.52 Q1738.52 1549.52 1735.45 1544.94 Q1732.39 1540.33 1732.39 1531.6 Q1732.39 1522.85 1735.45 1518.27 Q1738.52 1513.66 1744.33 1513.66 Z" fill="#000000" fill-rule="nonzero" fill-opacity="1" /><path clip-path="url(#clip810)" d="M1764.5 1542.97 L1769.38 1542.97 L1769.38 1548.85 L1764.5 1548.85 L1764.5 1542.97 Z" fill="#000000" fill-rule="nonzero" fill-opacity="1" /><path clip-path="url(#clip810)" d="M1778.39 1514.29 L1800.61 1514.29 L1800.61 1516.28 L1788.06 1548.85 L1783.18 1548.85 L1794.98 1518.22 L1778.39 1518.22 L1778.39 1514.29 Z" fill="#000000" fill-rule="nonzero" fill-opacity="1" /><path clip-path="url(#clip810)" d="M1809.77 1514.29 L1828.13 1514.29 L1828.13 1518.22 L1814.06 1518.22 L1814.06 1526.7 Q1815.07 1526.35 1816.09 1526.19 Q1817.11 1526 1818.13 1526 Q1823.92 1526 1827.3 1529.17 Q1830.68 1532.34 1830.68 1537.76 Q1830.68 1543.34 1827.2 1546.44 Q1823.73 1549.52 1817.41 1549.52 Q1815.24 1549.52 1812.97 1549.15 Q1810.72 1548.78 1808.32 1548.04 L1808.32 1543.34 Q1810.4 1544.47 1812.62 1545.03 Q1814.84 1545.58 1817.32 1545.58 Q1821.32 1545.58 1823.66 1543.48 Q1826 1541.37 1826 1537.76 Q1826 1534.15 1823.66 1532.04 Q1821.32 1529.94 1817.32 1529.94 Q1815.45 1529.94 1813.57 1530.35 Q1811.72 1530.77 1809.77 1531.65 L1809.77 1514.29 Z" fill="#000000" fill-rule="nonzero" fill-opacity="1" /><path clip-path="url(#clip810)" d="M2245.62 1544.91 L2253.25 1544.91 L2253.25 1518.55 L2244.94 1520.21 L2244.94 1515.95 L2253.21 1514.29 L2257.88 1514.29 L2257.88 1544.91 L2265.52 1544.91 L2265.52 1548.85 L2245.62 1548.85 L2245.62 1544.91 Z" fill="#000000" fill-rule="nonzero" fill-opacity="1" /><path clip-path="url(#clip810)" d="M2274.97 1542.97 L2279.85 1542.97 L2279.85 1548.85 L2274.97 1548.85 L2274.97 1542.97 Z" fill="#000000" fill-rule="nonzero" fill-opacity="1" /><path clip-path="url(#clip810)" d="M2300.04 1517.37 Q2296.43 1517.37 2294.6 1520.93 Q2292.79 1524.47 2292.79 1531.6 Q2292.79 1538.71 2294.6 1542.27 Q2296.43 1545.82 2300.04 1545.82 Q2303.67 1545.82 2305.48 1542.27 Q2307.3 1538.71 2307.3 1531.6 Q2307.3 1524.47 2305.48 1520.93 Q2303.67 1517.37 2300.04 1517.37 M2300.04 1513.66 Q2305.85 1513.66 2308.9 1518.27 Q2311.98 1522.85 2311.98 1531.6 Q2311.98 1540.33 2308.9 1544.94 Q2305.85 1549.52 2300.04 1549.52 Q2294.23 1549.52 2291.15 1544.94 Q2288.09 1540.33 2288.09 1531.6 Q2288.09 1522.85 2291.15 1518.27 Q2294.23 1513.66 2300.04 1513.66 Z" fill="#000000" fill-rule="nonzero" fill-opacity="1" /><path clip-path="url(#clip810)" d="M2330.2 1517.37 Q2326.59 1517.37 2324.76 1520.93 Q2322.95 1524.47 2322.95 1531.6 Q2322.95 1538.71 2324.76 1542.27 Q2326.59 1545.82 2330.2 1545.82 Q2333.83 1545.82 2335.64 1542.27 Q2337.47 1538.71 2337.47 1531.6 Q2337.47 1524.47 2335.64 1520.93 Q2333.83 1517.37 2330.2 1517.37 M2330.2 1513.66 Q2336.01 1513.66 2339.06 1518.27 Q2342.14 1522.85 2342.14 1531.6 Q2342.14 1540.33 2339.06 1544.94 Q2336.01 1549.52 2330.2 1549.52 Q2324.39 1549.52 2321.31 1544.94 Q2318.25 1540.33 2318.25 1531.6 Q2318.25 1522.85 2321.31 1518.27 Q2324.39 1513.66 2330.2 1513.66 Z" fill="#000000" fill-rule="nonzero" fill-opacity="1" /><polyline clip-path="url(#clip812)" style="stroke:#000000; stroke-linecap:round; stroke-linejoin:round; stroke-width:2; stroke-opacity:0.1; fill:none" points="186.274,1293.54 2352.76,1293.54 "/>
<polyline clip-path="url(#clip812)" style="stroke:#000000; stroke-linecap:round; stroke-linejoin:round; stroke-width:2; stroke-opacity:0.1; fill:none" points="186.274,998.421 2352.76,998.421 "/>
<polyline clip-path="url(#clip812)" style="stroke:#000000; stroke-linecap:round; stroke-linejoin:round; stroke-width:2; stroke-opacity:0.1; fill:none" points="186.274,703.303 2352.76,703.303 "/>
<polyline clip-path="url(#clip812)" style="stroke:#000000; stroke-linecap:round; stroke-linejoin:round; stroke-width:2; stroke-opacity:0.1; fill:none" points="186.274,408.184 2352.76,408.184 "/>
<polyline clip-path="url(#clip812)" style="stroke:#000000; stroke-linecap:round; stroke-linejoin:round; stroke-width:2; stroke-opacity:0.1; fill:none" points="186.274,113.066 2352.76,113.066 "/>
<polyline clip-path="url(#clip810)" style="stroke:#000000; stroke-linecap:round; stroke-linejoin:round; stroke-width:4; stroke-opacity:1; fill:none" points="186.274,1486.45 186.274,47.2441 "/>
<polyline clip-path="url(#clip810)" style="stroke:#000000; stroke-linecap:round; stroke-linejoin:round; stroke-width:4; stroke-opacity:1; fill:none" points="186.274,1293.54 205.172,1293.54 "/>
<polyline clip-path="url(#clip810)" style="stroke:#000000; stroke-linecap:round; stroke-linejoin:round; stroke-width:4; stroke-opacity:1; fill:none" points="186.274,998.421 205.172,998.421 "/>
<polyline clip-path="url(#clip810)" style="stroke:#000000; stroke-linecap:round; stroke-linejoin:round; stroke-width:4; stroke-opacity:1; fill:none" points="186.274,703.303 205.172,703.303 "/>
<polyline clip-path="url(#clip810)" style="stroke:#000000; stroke-linecap:round; stroke-linejoin:round; stroke-width:4; stroke-opacity:1; fill:none" points="186.274,408.184 205.172,408.184 "/>
<polyline clip-path="url(#clip810)" style="stroke:#000000; stroke-linecap:round; stroke-linejoin:round; stroke-width:4; stroke-opacity:1; fill:none" points="186.274,113.066 205.172,113.066 "/>
<path clip-path="url(#clip810)" d="M63.9319 1279.34 Q60.3208 1279.34 58.4921 1282.9 Q56.6865 1286.44 56.6865 1293.57 Q56.6865 1300.68 58.4921 1304.25 Q60.3208 1307.79 63.9319 1307.79 Q67.5661 1307.79 69.3717 1304.25 Q71.2004 1300.68 71.2004 1293.57 Q71.2004 1286.44 69.3717 1282.9 Q67.5661 1279.34 63.9319 1279.34 M63.9319 1275.63 Q69.742 1275.63 72.7976 1280.24 Q75.8763 1284.82 75.8763 1293.57 Q75.8763 1302.3 72.7976 1306.91 Q69.742 1311.49 63.9319 1311.49 Q58.1217 1311.49 55.043 1306.91 Q51.9875 1302.3 51.9875 1293.57 Q51.9875 1284.82 55.043 1280.24 Q58.1217 1275.63 63.9319 1275.63 Z" fill="#000000" fill-rule="nonzero" fill-opacity="1" /><path clip-path="url(#clip810)" d="M84.0938 1304.94 L88.978 1304.94 L88.978 1310.82 L84.0938 1310.82 L84.0938 1304.94 Z" fill="#000000" fill-rule="nonzero" fill-opacity="1" /><path clip-path="url(#clip810)" d="M109.163 1279.34 Q105.552 1279.34 103.723 1282.9 Q101.918 1286.44 101.918 1293.57 Q101.918 1300.68 103.723 1304.25 Q105.552 1307.79 109.163 1307.79 Q112.797 1307.79 114.603 1304.25 Q116.432 1300.68 116.432 1293.57 Q116.432 1286.44 114.603 1282.9 Q112.797 1279.34 109.163 1279.34 M109.163 1275.63 Q114.973 1275.63 118.029 1280.24 Q121.107 1284.82 121.107 1293.57 Q121.107 1302.3 118.029 1306.91 Q114.973 1311.49 109.163 1311.49 Q103.353 1311.49 100.274 1306.91 Q97.2187 1302.3 97.2187 1293.57 Q97.2187 1284.82 100.274 1280.24 Q103.353 1275.63 109.163 1275.63 Z" fill="#000000" fill-rule="nonzero" fill-opacity="1" /><path clip-path="url(#clip810)" d="M129.371 1276.26 L147.728 1276.26 L147.728 1280.19 L133.654 1280.19 L133.654 1288.67 Q134.672 1288.32 135.691 1288.16 Q136.709 1287.97 137.728 1287.97 Q143.515 1287.97 146.894 1291.14 Q150.274 1294.32 150.274 1299.73 Q150.274 1305.31 146.802 1308.41 Q143.33 1311.49 137.01 1311.49 Q134.834 1311.49 132.566 1311.12 Q130.32 1310.75 127.913 1310.01 L127.913 1305.31 Q129.996 1306.44 132.219 1307 Q134.441 1307.56 136.918 1307.56 Q140.922 1307.56 143.26 1305.45 Q145.598 1303.34 145.598 1299.73 Q145.598 1296.12 143.26 1294.01 Q140.922 1291.91 136.918 1291.91 Q135.043 1291.91 133.168 1292.32 Q131.316 1292.74 129.371 1293.62 L129.371 1276.26 Z" fill="#000000" fill-rule="nonzero" fill-opacity="1" /><path clip-path="url(#clip810)" d="M62.9365 984.22 Q59.3254 984.22 57.4967 987.785 Q55.6912 991.326 55.6912 998.456 Q55.6912 1005.56 57.4967 1009.13 Q59.3254 1012.67 62.9365 1012.67 Q66.5707 1012.67 68.3763 1009.13 Q70.205 1005.56 70.205 998.456 Q70.205 991.326 68.3763 987.785 Q66.5707 984.22 62.9365 984.22 M62.9365 980.516 Q68.7467 980.516 71.8022 985.123 Q74.8809 989.706 74.8809 998.456 Q74.8809 1007.18 71.8022 1011.79 Q68.7467 1016.37 62.9365 1016.37 Q57.1264 1016.37 54.0477 1011.79 Q50.9921 1007.18 50.9921 998.456 Q50.9921 989.706 54.0477 985.123 Q57.1264 980.516 62.9365 980.516 Z" fill="#000000" fill-rule="nonzero" fill-opacity="1" /><path clip-path="url(#clip810)" d="M83.0984 1009.82 L87.9827 1009.82 L87.9827 1015.7 L83.0984 1015.7 L83.0984 1009.82 Z" fill="#000000" fill-rule="nonzero" fill-opacity="1" /><path clip-path="url(#clip810)" d="M98.978 1011.77 L106.617 1011.77 L106.617 985.4 L98.3067 987.067 L98.3067 982.808 L106.571 981.141 L111.246 981.141 L111.246 1011.77 L118.885 1011.77 L118.885 1015.7 L98.978 1015.7 L98.978 1011.77 Z" fill="#000000" fill-rule="nonzero" fill-opacity="1" /><path clip-path="url(#clip810)" d="M138.33 984.22 Q134.719 984.22 132.89 987.785 Q131.084 991.326 131.084 998.456 Q131.084 1005.56 132.89 1009.13 Q134.719 1012.67 138.33 1012.67 Q141.964 1012.67 143.769 1009.13 Q145.598 1005.56 145.598 998.456 Q145.598 991.326 143.769 987.785 Q141.964 984.22 138.33 984.22 M138.33 980.516 Q144.14 980.516 147.195 985.123 Q150.274 989.706 150.274 998.456 Q150.274 1007.18 147.195 1011.79 Q144.14 1016.37 138.33 1016.37 Q132.519 1016.37 129.441 1011.79 Q126.385 1007.18 126.385 998.456 Q126.385 989.706 129.441 985.123 Q132.519 980.516 138.33 980.516 Z" fill="#000000" fill-rule="nonzero" fill-opacity="1" /><path clip-path="url(#clip810)" d="M63.9319 689.101 Q60.3208 689.101 58.4921 692.666 Q56.6865 696.208 56.6865 703.337 Q56.6865 710.444 58.4921 714.009 Q60.3208 717.55 63.9319 717.55 Q67.5661 717.55 69.3717 714.009 Q71.2004 710.444 71.2004 703.337 Q71.2004 696.208 69.3717 692.666 Q67.5661 689.101 63.9319 689.101 M63.9319 685.398 Q69.742 685.398 72.7976 690.004 Q75.8763 694.587 75.8763 703.337 Q75.8763 712.064 72.7976 716.671 Q69.742 721.254 63.9319 721.254 Q58.1217 721.254 55.043 716.671 Q51.9875 712.064 51.9875 703.337 Q51.9875 694.587 55.043 690.004 Q58.1217 685.398 63.9319 685.398 Z" fill="#000000" fill-rule="nonzero" fill-opacity="1" /><path clip-path="url(#clip810)" d="M84.0938 714.703 L88.978 714.703 L88.978 720.583 L84.0938 720.583 L84.0938 714.703 Z" fill="#000000" fill-rule="nonzero" fill-opacity="1" /><path clip-path="url(#clip810)" d="M99.9733 716.647 L107.612 716.647 L107.612 690.282 L99.3021 691.949 L99.3021 687.689 L107.566 686.023 L112.242 686.023 L112.242 716.647 L119.881 716.647 L119.881 720.583 L99.9733 720.583 L99.9733 716.647 Z" fill="#000000" fill-rule="nonzero" fill-opacity="1" /><path clip-path="url(#clip810)" d="M129.371 686.023 L147.728 686.023 L147.728 689.958 L133.654 689.958 L133.654 698.43 Q134.672 698.083 135.691 697.921 Q136.709 697.736 137.728 697.736 Q143.515 697.736 146.894 700.907 Q150.274 704.078 150.274 709.495 Q150.274 715.073 146.802 718.175 Q143.33 721.254 137.01 721.254 Q134.834 721.254 132.566 720.884 Q130.32 720.513 127.913 719.772 L127.913 715.073 Q129.996 716.208 132.219 716.763 Q134.441 717.319 136.918 717.319 Q140.922 717.319 143.26 715.212 Q145.598 713.106 145.598 709.495 Q145.598 705.884 143.26 703.777 Q140.922 701.671 136.918 701.671 Q135.043 701.671 133.168 702.087 Q131.316 702.504 129.371 703.384 L129.371 686.023 Z" fill="#000000" fill-rule="nonzero" fill-opacity="1" /><path clip-path="url(#clip810)" d="M62.9365 393.983 Q59.3254 393.983 57.4967 397.548 Q55.6912 401.089 55.6912 408.219 Q55.6912 415.325 57.4967 418.89 Q59.3254 422.432 62.9365 422.432 Q66.5707 422.432 68.3763 418.89 Q70.205 415.325 70.205 408.219 Q70.205 401.089 68.3763 397.548 Q66.5707 393.983 62.9365 393.983 M62.9365 390.279 Q68.7467 390.279 71.8022 394.886 Q74.8809 399.469 74.8809 408.219 Q74.8809 416.946 71.8022 421.552 Q68.7467 426.135 62.9365 426.135 Q57.1264 426.135 54.0477 421.552 Q50.9921 416.946 50.9921 408.219 Q50.9921 399.469 54.0477 394.886 Q57.1264 390.279 62.9365 390.279 Z" fill="#000000" fill-rule="nonzero" fill-opacity="1" /><path clip-path="url(#clip810)" d="M83.0984 419.585 L87.9827 419.585 L87.9827 425.464 L83.0984 425.464 L83.0984 419.585 Z" fill="#000000" fill-rule="nonzero" fill-opacity="1" /><path clip-path="url(#clip810)" d="M102.196 421.529 L118.515 421.529 L118.515 425.464 L96.5706 425.464 L96.5706 421.529 Q99.2326 418.774 103.816 414.145 Q108.422 409.492 109.603 408.149 Q111.848 405.626 112.728 403.89 Q113.631 402.131 113.631 400.441 Q113.631 397.687 111.686 395.95 Q109.765 394.214 106.663 394.214 Q104.464 394.214 102.01 394.978 Q99.5798 395.742 96.8021 397.293 L96.8021 392.571 Q99.6261 391.437 102.08 390.858 Q104.534 390.279 106.571 390.279 Q111.941 390.279 115.135 392.964 Q118.33 395.649 118.33 400.14 Q118.33 402.27 117.52 404.191 Q116.733 406.089 114.626 408.682 Q114.047 409.353 110.946 412.571 Q107.844 415.765 102.196 421.529 Z" fill="#000000" fill-rule="nonzero" fill-opacity="1" /><path clip-path="url(#clip810)" d="M138.33 393.983 Q134.719 393.983 132.89 397.548 Q131.084 401.089 131.084 408.219 Q131.084 415.325 132.89 418.89 Q134.719 422.432 138.33 422.432 Q141.964 422.432 143.769 418.89 Q145.598 415.325 145.598 408.219 Q145.598 401.089 143.769 397.548 Q141.964 393.983 138.33 393.983 M138.33 390.279 Q144.14 390.279 147.195 394.886 Q150.274 399.469 150.274 408.219 Q150.274 416.946 147.195 421.552 Q144.14 426.135 138.33 426.135 Q132.519 426.135 129.441 421.552 Q126.385 416.946 126.385 408.219 Q126.385 399.469 129.441 394.886 Q132.519 390.279 138.33 390.279 Z" fill="#000000" fill-rule="nonzero" fill-opacity="1" /><path clip-path="url(#clip810)" d="M63.9319 98.8643 Q60.3208 98.8643 58.4921 102.429 Q56.6865 105.971 56.6865 113.1 Q56.6865 120.207 58.4921 123.772 Q60.3208 127.313 63.9319 127.313 Q67.5661 127.313 69.3717 123.772 Q71.2004 120.207 71.2004 113.1 Q71.2004 105.971 69.3717 102.429 Q67.5661 98.8643 63.9319 98.8643 M63.9319 95.1606 Q69.742 95.1606 72.7976 99.7671 Q75.8763 104.35 75.8763 113.1 Q75.8763 121.827 72.7976 126.434 Q69.742 131.017 63.9319 131.017 Q58.1217 131.017 55.043 126.434 Q51.9875 121.827 51.9875 113.1 Q51.9875 104.35 55.043 99.7671 Q58.1217 95.1606 63.9319 95.1606 Z" fill="#000000" fill-rule="nonzero" fill-opacity="1" /><path clip-path="url(#clip810)" d="M84.0938 124.466 L88.978 124.466 L88.978 130.346 L84.0938 130.346 L84.0938 124.466 Z" fill="#000000" fill-rule="nonzero" fill-opacity="1" /><path clip-path="url(#clip810)" d="M103.191 126.41 L119.51 126.41 L119.51 130.346 L97.566 130.346 L97.566 126.41 Q100.228 123.656 104.811 119.026 Q109.418 114.373 110.598 113.031 Q112.844 110.508 113.723 108.772 Q114.626 107.012 114.626 105.323 Q114.626 102.568 112.682 100.832 Q110.76 99.0958 107.658 99.0958 Q105.459 99.0958 103.006 99.8597 Q100.575 100.624 97.7974 102.174 L97.7974 97.4523 Q100.621 96.318 103.075 95.7393 Q105.529 95.1606 107.566 95.1606 Q112.936 95.1606 116.131 97.8458 Q119.325 100.531 119.325 105.022 Q119.325 107.151 118.515 109.073 Q117.728 110.971 115.621 113.563 Q115.043 114.235 111.941 117.452 Q108.839 120.647 103.191 126.41 Z" fill="#000000" fill-rule="nonzero" fill-opacity="1" /><path clip-path="url(#clip810)" d="M129.371 95.7856 L147.728 95.7856 L147.728 99.7208 L133.654 99.7208 L133.654 108.193 Q134.672 107.846 135.691 107.684 Q136.709 107.499 137.728 107.499 Q143.515 107.499 146.894 110.67 Q150.274 113.841 150.274 119.258 Q150.274 124.836 146.802 127.938 Q143.33 131.017 137.01 131.017 Q134.834 131.017 132.566 130.647 Q130.32 130.276 127.913 129.535 L127.913 124.836 Q129.996 125.971 132.219 126.526 Q134.441 127.082 136.918 127.082 Q140.922 127.082 143.26 124.975 Q145.598 122.869 145.598 119.258 Q145.598 115.647 143.26 113.54 Q140.922 111.434 136.918 111.434 Q135.043 111.434 133.168 111.85 Q131.316 112.267 129.371 113.147 L129.371 95.7856 Z" fill="#000000" fill-rule="nonzero" fill-opacity="1" /><polyline clip-path="url(#clip812)" style="stroke:#009af9; stroke-linecap:round; stroke-linejoin:round; stroke-width:4; stroke-opacity:1; fill:none" points="1243.18,125.502 1207.93,125.623 1172.78,125.735 1137.78,125.838 1102.96,125.932 1068.36,126.018 1034.03,126.094 999.996,126.162 966.305,126.22 932.991,126.269 900.093,126.31 881.751,126.328 867.647,126.341 844.509,126.358 835.688,126.363 807.958,126.375 804.253,126.376 773.376,126.38 772.15,126.38 743.091,126.375 737.139,126.373 713.432,126.361 702.977,126.354 684.432,126.339 669.715,126.323 656.121,126.307 637.402,126.281 628.533,126.267 606.086,126.227 601.696,126.218 575.813,126.161 575.64,126.16 550.396,126.094 546.627,126.084 525.989,126.02 518.573,125.995 502.447,125.938 491.692,125.896 479.798,125.847 466.024,125.786 458.064,125.748 441.608,125.665 437.272,125.642 418.48,125.534 417.444,125.528 398.603,125.406 396.676,125.393 380.77,125.277 376.229,125.241 363.965,125.14 357.17,125.081 348.208,124.997 339.529,124.91 333.518,124.847 323.332,124.731 319.91,124.69 308.608,124.543 307.403,124.526 296.009,124.357 295.377,124.346 285.744,124.18 283.664,124.141 276.621,123.999 273.486,123.929 268.65,123.811 264.862,123.709 261.842,123.618 257.807,123.48 257.694,123.476 256.208,123.419 252.334,123.246 251.753,123.215 248.486,123.008 248.455,123.007 249.013,121.984 250.113,121.901 253.098,121.718 253.187,121.713 254.044,121.668 258.973,121.44 259.174,121.432 265.5,121.193 266.366,121.163 273.019,120.951 275.358,120.882 281.722,120.706 285.94,120.597 289.257,120.516 291.604,120.459 298.099,120.31 302.656,120.21 311.821,120.02 314.866,119.96 327.087,119.729 328.225,119.708 342.718,119.455 343.88,119.435 358.332,119.2 362.175,119.14 375.052,118.945 381.951,118.844 392.859,118.69 403.178,118.548 411.738,118.434 425.828,118.252 431.666,118.178 449.869,117.956 452.625,117.923 474.591,117.668 475.268,117.661 497.541,117.414 501.987,117.367 521.451,117.162 529.987,117.074 546.293,116.91 559.229,116.784 572.042,116.661 589.667,116.496 598.667,116.413 621.257,116.211 626.14,116.168 653.95,115.929 654.429,115.925 683.503,115.685 687.698,115.651 713.327,115.448 722.447,115.377 743.867,115.214 758.143,115.108 775.088,114.984 794.731,114.844 806.953,114.758 832.153,114.585 839.424,114.536 870.349,114.332 872.463,114.318 906.03,114.106 940.085,113.898 974.585,113.696 1009.49,113.499 1044.76,113.308 1080.34,113.123 1116.19,112.945 1152.28,112.773 1188.54,112.608 1224.95,112.45 1261.44,112.299 1297.97,112.156 1334.51,112.021 1370.99,111.894 1407.37,111.776 1443.6,111.665 1479.64,111.564 1515.44,111.471 1550.95,111.387 1586.12,111.313 1620.91,111.248 1623.11,111.244 1655.27,111.192 1662.84,111.181 1689.15,111.146 1701.93,111.131 1722.51,111.11 1740.29,111.094 1755.3,111.083 1777.86,111.07 1787.47,111.067 1814.56,111.06 1819,111.06 1849.82,111.064 1850.33,111.064 1879.9,111.077 1885.1,111.081 1909.19,111.101 1918.81,111.111 1937.67,111.135 1951.4,111.156 1965.28,111.179 1982.8,111.214 1991.99,111.234 2012.96,111.285 2017.76,111.298 2041.83,111.37 2042.56,111.373 2066.35,111.457 2069.34,111.469 2089.11,111.551 2095.45,111.58 2110.79,111.656 2120.12,111.705 2131.37,111.77 2143.28,111.843 2150.82,111.893 2164.91,111.994 2169.12,112.026 2184.97,112.157 2186.24,112.168 2202.16,112.319 2203.41,112.332 2216.85,112.479 2220.21,112.519 2230.3,112.648 2235.33,112.717 2242.49,112.825 2245.08,112.866 2248.74,112.927 2253.4,113.01 2260.44,113.148 2263.03,113.203 2270.39,113.379 2271.35,113.404 2278.36,113.612 2278.58,113.62 2284.04,113.828 2284.99,113.871 2285.09,113.875 2288.41,114.05 2289.63,114.131 2291.44,114.279 2290.29,115.247 2290.26,115.251 2286.65,115.503 2286.01,115.54 2281.73,115.763 2280.08,115.838 2279.96,115.843 2275.5,116.027 2272.16,116.151 2267.98,116.294 2262.64,116.462 2259.18,116.564 2251.4,116.777 2249.11,116.837 2238.49,117.096 2237.79,117.112 2225.25,117.389 2223.92,117.417 2211.49,117.669 2207.73,117.741 2196.54,117.948 2189.94,118.066 2180.42,118.23 2170.6,118.392 2163.16,118.511 2149.75,118.718 2144.79,118.792 2127.42,119.044 2125.32,119.073 2104.79,119.353 2103.66,119.368 2083.23,119.632 2078.52,119.691 2060.67,119.909 2052.05,120.012 2037.14,120.185 2024.28,120.33 2012.67,120.458 1995.29,120.644 1987.3,120.728 1965.11,120.955 1961.07,120.996 1934,121.26 1933.81,121.261 1906.13,121.52 1901.45,121.563 1877.51,121.776 1868.07,121.858 1848.17,122.028 1833.75,122.148 1818.15,122.275 1798.54,122.432 1787.49,122.518 1762.5,122.708 1756.23,122.754 1725.69,122.977 1724.41,122.986 1692.06,123.211 1688.19,123.238 1659.24,123.43 1650.05,123.49 1625.98,123.643 1611.34,123.734 1592.32,123.85 1558.31,124.049 1523.99,124.241 1489.4,124.426 1454.57,124.604 1419.56,124.774 1384.41,124.936 1349.15,125.09 1313.84,125.236 1278.5,125.373 1243.18,125.502 "/>
<polyline clip-path="url(#clip812)" style="stroke:#e26f46; stroke-linecap:round; stroke-linejoin:round; stroke-width:4; stroke-opacity:1; fill:none" points="978.646,345.389 955.638,345.583 932.959,345.696 910.598,345.727 888.542,345.678 866.781,345.547 845.305,345.335 824.104,345.042 803.171,344.666 782.497,344.207 762.078,343.663 750.68,343.319 741.906,343.034 727.486,342.525 721.978,342.317 704.617,341.612 702.292,341.512 682.844,340.616 682.069,340.578 663.635,339.627 659.842,339.419 644.665,338.544 637.936,338.133 625.937,337.364 616.356,336.715 607.454,336.085 595.109,335.163 589.221,334.704 574.204,333.473 571.246,333.22 553.654,331.641 553.536,331.63 536.102,329.932 533.474,329.664 518.955,328.124 513.682,327.538 502.108,326.204 494.301,325.263 485.578,324.172 475.355,322.835 469.382,322.024 456.872,320.251 453.537,319.761 438.883,317.515 438.064,317.385 422.986,314.892 421.422,314.622 408.326,312.287 404.526,311.58 394.109,309.57 388.235,308.386 380.362,306.745 372.589,305.052 367.112,303.815 357.634,301.578 354.388,300.785 343.413,297.981 342.218,297.664 330.633,294.453 329.973,294.264 319.662,291.168 317.362,290.446 309.336,287.814 305.624,286.539 299.685,284.405 294.807,282.559 290.737,280.947 284.955,278.534 284.787,278.461 282.52,277.464 276.112,274.475 275.063,273.959 268.392,270.442 268.318,270.402 262.53,266.946 261.612,266.35 257.5,263.469 256.029,262.332 254.476,261.051 253.324,260.027 251.601,258.37 250.021,256.647 248.357,254.486 247.608,253.312 247.667,240.083 249.362,238.038 250.649,236.815 251.738,235.913 252.545,235.295 254.916,233.703 256.686,232.667 260.474,230.74 261.791,230.145 267.328,227.922 267.861,227.729 274.899,225.417 275.48,225.243 282.904,223.202 284.933,222.692 291.878,221.076 295.686,220.259 301.819,219.027 307.738,217.925 312.728,217.049 321.088,215.675 324.602,215.128 335.733,213.494 337.44,213.255 351.241,211.417 351.671,211.362 366.001,209.601 368.898,209.26 381.72,207.796 387.411,207.169 398.393,205.991 407.206,205.072 416.02,204.174 428.278,202.953 434.596,202.334 450.623,200.792 454.119,200.46 474.235,198.577 474.585,198.544 495.99,196.576 499.109,196.292 518.33,194.549 525.238,193.927 541.602,192.456 552.615,191.47 565.798,190.291 581.231,188.912 590.915,188.048 611.078,186.248 616.945,185.724 642.143,183.471 643.881,183.315 671.714,180.821 700.437,178.24 730.038,175.573 760.506,172.82 791.828,169.985 823.991,167.07 856.977,164.081 890.77,161.024 925.349,157.904 960.694,154.732 996.78,151.515 1033.58,148.264 1071.07,144.991 1109.21,141.709 1147.97,138.431 1187.31,135.172 1227.2,131.95 1267.57,128.781 1308.4,125.683 1349.62,122.677 1391.18,119.783 1393.83,119.604 1433.01,117.022 1442.34,116.429 1475.05,114.417 1491.11,113.47 1517.22,111.99 1540.03,110.762 1559.45,109.765 1588.96,108.342 1601.66,107.765 1637.77,106.248 1643.75,106.015 1685.63,104.538 1686.32,104.515 1727.19,103.357 1734.45,103.182 1768.34,102.495 1781.99,102.281 1808.95,101.973 1828.75,101.848 1848.9,101.812 1874.54,101.911 1888.07,102.031 1919.16,102.499 1926.31,102.646 1962.4,103.634 1963.5,103.671 1999.48,105.116 2004.02,105.334 2034.1,106.991 2043.79,107.611 2067.21,109.3 2081.47,110.472 2098.66,112.044 2116.81,113.914 2128.27,115.219 2149.58,117.931 2155.91,118.817 2179.53,122.506 2181.41,122.829 2204.62,127.238 2206.41,127.616 2225.4,132.025 2230.02,133.231 2243.62,137.166 2250.15,139.313 2259.15,142.633 2262.29,143.918 2266.61,145.818 2271.89,148.398 2279.26,152.698 2281.75,154.427 2287.97,159.898 2288.66,160.684 2290.2,162.663 2291.37,180.463 2289.91,182.854 2289.72,183.122 2286.27,187.264 2282.53,190.762 2278.24,194.108 2275.3,196.146 2271.26,198.703 2267.36,200.958 2256.25,206.623 2253.74,207.783 2237.7,214.471 2237.49,214.55 2218.77,221.23 2215.81,222.204 2197.73,227.797 2191.33,229.645 2190.86,229.78 2174.56,234.228 2163.11,237.165 2149.43,240.503 2132.85,244.33 2122.54,246.604 2100.39,251.251 2094.09,252.52 2066.04,257.906 2064.26,258.235 2033.26,263.744 2030.09,264.286 2001.26,269.04 1992.82,270.378 1968.44,274.118 1954.52,276.176 1934.98,278.976 1915.44,281.681 1901.03,283.617 1875.82,286.89 1866.73,288.037 1835.86,291.81 1832.22,292.244 1797.61,296.237 1795.76,296.445 1763.01,300.024 1755.68,300.802 1728.52,303.609 1715.76,304.89 1694.22,306.999 1676.13,308.718 1660.17,310.197 1636.9,312.296 1626.44,313.215 1598.13,315.634 1593.08,316.054 1560.13,318.725 1559.91,318.742 1527.62,321.232 1522.28,321.632 1495.57,323.582 1485.28,324.312 1464.01,325.783 1448.94,326.794 1432.96,327.839 1413.28,329.087 1402.41,329.757 1378.31,331.198 1372.37,331.543 1344.02,333.138 1342.85,333.202 1313.83,334.74 1310.42,334.914 1285.33,336.159 1277.5,336.533 1257.31,337.467 1245.24,338.003 1229.79,338.666 1202.75,339.76 1176.17,340.754 1150.04,341.649 1124.35,342.45 1099.08,343.159 1074.23,343.777 1049.77,344.308 1025.7,344.752 1002,345.112 978.646,345.389 "/>
<polyline clip-path="url(#clip812)" style="stroke:#3da44d; stroke-linecap:round; stroke-linejoin:round; stroke-width:4; stroke-opacity:1; fill:none" points="878.434,562.716 862.556,562.656 846.897,562.531 831.435,562.341 816.15,562.084 801.022,561.759 786.032,561.366 771.165,560.901 756.401,560.363 741.727,559.749 727.126,559.055 718.926,558.628 712.586,558.278 702.112,557.663 698.092,557.413 685.349,556.575 683.633,556.456 669.198,555.4 668.619,555.356 654.776,554.24 651.907,553.996 640.358,552.969 635.199,552.485 625.937,551.578 618.482,550.811 611.506,550.061 601.749,548.959 597.061,548.406 584.993,546.914 582.597,546.605 568.212,544.659 568.115,544.646 553.613,542.516 551.406,542.176 539.097,540.203 534.58,539.444 524.571,537.693 517.745,536.441 510.045,534.971 500.916,533.143 495.529,532.02 484.115,529.523 481.041,528.823 467.37,525.556 466.599,525.364 452.227,521.624 450.718,521.213 437.953,517.586 434.202,516.467 423.81,513.23 417.875,511.288 409.835,508.542 401.797,505.652 396.071,503.503 386.039,499.539 382.566,498.104 370.678,492.928 369.369,492.332 356.537,486.181 355.799,485.81 344.129,479.656 341.493,478.187 332.204,472.755 327.856,470.068 320.826,465.501 314.983,461.481 310.056,457.914 302.971,452.467 302.763,452.303 299.954,450.025 291.911,443.089 290.579,441.875 281.985,433.525 281.889,433.425 274.219,425.026 272.98,423.567 267.324,416.447 265.25,413.618 261.336,407.872 258.75,403.699 256.283,399.364 253.521,393.938 252.186,391.004 249.648,384.603 249.589,384.434 249.059,382.875 247.59,348.956 248.069,347.586 249.572,344.083 250.762,341.849 253.433,337.808 254.393,336.58 258.236,332.434 258.543,332.144 258.951,331.765 264.423,327.383 264.881,327.063 270.797,323.406 272.43,322.523 278.061,319.797 281.171,318.467 286.207,316.52 291.091,314.833 295.224,313.531 302.175,311.554 305.106,310.789 314.415,308.566 315.845,308.249 327.438,305.871 327.801,305.802 339.881,303.615 342.327,303.2 353.17,301.443 357.991,300.7 367.305,299.319 374.789,298.25 382.284,297.21 392.723,295.8 398.109,295.087 411.792,293.306 414.78,292.922 431.999,290.729 432.298,290.691 450.666,288.374 453.347,288.036 469.887,285.95 475.84,285.197 489.963,283.404 499.484,282.187 510.897,280.721 524.281,278.987 532.692,277.889 550.237,275.578 555.35,274.899 577.355,271.948 578.875,271.742 603.269,268.413 628.534,264.906 654.671,261.219 681.681,257.351 709.564,253.301 738.32,249.072 767.945,244.667 798.438,240.092 829.794,235.352 862.008,230.456 895.072,225.414 928.978,220.238 963.714,214.942 999.27,209.543 1035.63,204.059 1072.77,198.511 1110.69,192.924 1149.35,187.324 1188.72,181.741 1228.79,176.209 1269.52,170.766 1272.13,170.424 1310.87,165.451 1320.15,164.291 1352.8,160.31 1368.93,158.406 1395.27,155.392 1418.41,152.847 1438.23,150.751 1468.51,147.701 1481.61,146.444 1519.12,143.062 1525.36,142.533 1569.41,139.084 1570.15,139.03 1613.67,136.166 1621.46,135.713 1658.07,133.851 1672.92,133.225 1702.49,132.215 1724.37,131.681 1746.82,131.333 1775.63,131.201 1790.95,131.281 1826.49,131.9 1834.73,132.134 1876.7,133.891 1878,133.961 1920.58,136.828 1926,137.276 1962.28,140.792 1974.08,142.142 2002.88,145.9 2020.59,148.559 2042.13,152.184 2065.12,156.567 2079.76,159.662 2107.25,166.181 2115.48,168.332 2146.48,177.377 2148.96,178.174 2179.87,189.146 2182.27,190.093 2207.83,201.18 2214.09,204.228 2232.48,214.191 2241.33,219.641 2253.45,228.07 2257.66,231.33 2263.42,236.153 2270.36,242.689 2279.8,253.556 2282.87,257.908 2284.18,259.957 2289.97,271.617 2290.68,273.574 2291.27,305.596 2290.23,308.717 2290.1,309.052 2283.79,321.637 2279.91,327.26 2271.13,337.494 2262.67,345.494 2253.39,353.035 2247.17,357.578 2238.78,363.216 2230.83,368.137 2208.67,380.257 2203.76,382.699 2172.99,396.48 2172.61,396.64 2137.87,409.896 2132.48,411.787 2100.07,422.427 2088.82,425.863 2087.99,426.112 2059.8,434.206 2040.38,439.423 2017.59,445.224 1990.54,451.713 1974.01,455.487 1939.27,463.001 1929.56,465.009 1887.32,473.32 1884.69,473.816 1839.83,481.938 1835.34,482.716 1795.3,489.411 1783.85,491.247 1751.4,496.273 1733.3,498.971 1708.36,502.566 1683.99,505.952 1666.36,508.327 1636.19,512.251 1625.52,513.598 1590.04,517.93 1585.93,518.417 1547.66,522.818 1545.65,523.043 1510.72,526.839 1503.05,527.646 1475.13,530.508 1462.25,531.787 1440.86,533.857 1423.23,535.512 1407.89,536.913 1385.92,538.861 1376.19,539.701 1350.26,541.871 1345.7,542.243 1316.37,544.561 1316.18,544.576 1288.16,546.673 1283.59,547.004 1261,548.597 1252.4,549.183 1234.83,550.347 1222.52,551.134 1209.6,551.937 1193.87,552.88 1185.26,553.38 1166.37,554.438 1161.75,554.687 1139.92,555.824 1139.02,555.869 1117.02,556.933 1114.45,557.052 1095.7,557.888 1089.89,558.135 1075.01,558.741 1066.17,559.083 1054.91,559.498 1035.37,560.165 1016.34,560.746 997.778,561.246 979.658,561.669 961.945,562.017 944.607,562.293 927.614,562.499 910.939,562.638 894.554,562.71 878.434,562.716 "/>
<polyline clip-path="url(#clip812)" style="stroke:#c271d2; stroke-linecap:round; stroke-linejoin:round; stroke-width:4; stroke-opacity:1; fill:none" points="804.311,875.575 795.135,875.415 786.046,875.228 777.026,875.012 768.057,874.766 759.123,874.49 750.206,874.182 741.291,873.84 732.359,873.463 723.396,873.047 714.384,872.591 709.279,872.315 705.308,872.091 698.701,871.701 696.149,871.544 687.998,871.019 686.893,870.945 677.52,870.289 677.141,870.261 668.013,869.571 666.104,869.421 658.354,868.785 654.857,868.486 648.524,867.924 643.372,867.446 638.504,866.978 631.617,866.286 628.274,865.938 619.562,864.99 617.813,864.793 607.175,863.538 607.102,863.529 596.119,862.132 594.422,861.906 584.842,860.583 581.271,860.067 573.251,858.862 567.69,857.988 561.325,856.946 553.646,855.627 549.045,854.804 539.111,852.937 536.392,852.405 524.061,849.861 523.353,849.709 509.915,846.671 508.476,846.329 496.074,843.236 492.35,842.255 481.831,839.343 475.686,837.54 467.197,834.918 458.51,832.065 452.196,829.875 440.87,825.686 436.868,824.12 422.847,818.238 421.272,817.538 405.487,810.008 404.559,809.535 389.619,801.395 386.171,799.366 373.8,791.561 367.892,787.515 358.186,780.368 349.978,773.775 342.959,767.69 332.721,757.969 332.419,757.664 328.313,753.435 316.434,739.995 314.451,737.557 301.567,720.082 301.423,719.869 289.835,701.128 287.96,697.762 279.395,680.912 276.256,674.031 270.344,659.757 266.446,649.205 262.734,638.063 258.584,623.955 256.575,616.29 252.738,599.444 252.648,599.002 251.838,594.904 248.564,575.046 248.468,574.343 248.446,498.34 249.494,493.407 251.895,484.741 252.765,482.183 256.265,473.78 256.546,473.206 256.919,472.463 261.915,464.099 262.333,463.508 267.719,456.928 269.202,455.392 274.303,450.782 277.112,448.603 281.647,445.503 286.032,442.9 289.733,440.943 295.941,438.058 298.551,436.967 306.823,433.884 308.092,433.454 318.35,430.297 318.67,430.206 329.323,427.404 331.477,426.88 341.011,424.696 345.244,423.784 353.414,422.103 359.974,420.815 366.537,419.568 375.671,417.888 380.382,417.041 392.344,414.933 394.956,414.479 410.002,411.892 410.264,411.848 426.312,409.115 428.654,408.717 443.107,406.257 448.311,405.369 460.658,403.251 468.985,401.814 478.972,400.079 490.689,398.027 498.056,396.726 513.434,393.985 517.918,393.178 537.231,389.669 538.566,389.424 560.007,385.455 582.248,381.263 605.295,376.842 629.154,372.185 653.831,367.29 679.329,362.152 705.653,356.769 732.804,351.141 760.785,345.267 789.595,339.148 819.234,332.786 849.698,326.185 880.985,319.351 913.088,312.29 946.002,305.013 979.717,297.531 1014.22,289.859 1049.51,282.016 1085.56,274.025 1122.36,265.912 1159.89,257.712 1162.3,257.189 1198.14,249.464 1206.74,247.628 1237.08,241.216 1252.1,238.083 1276.69,233.025 1298.35,228.647 1316.94,224.956 1345.44,219.431 1357.81,217.09 1393.34,210.572 1399.27,209.518 1441.29,202.348 1442,202.232 1483.84,195.705 1491.36,194.604 1526.87,189.734 1541.36,187.914 1570.35,184.597 1591.96,182.428 1614.24,180.483 1643.07,178.448 1658.5,177.599 1694.61,176.322 1703.05,176.177 1746.5,176.432 1747.85,176.468 1792.82,178.743 1798.61,179.194 1837.86,183.28 1850.81,185.045 1882.86,190.366 1902.9,194.424 1927.68,200.272 1954.65,207.746 1972.14,213.248 2005.72,225.362 2015.99,229.498 2055.68,247.523 2058.94,249.158 2100.59,272.276 2103.93,274.323 2140.42,298.785 2149.67,305.656 2177.78,328.487 2191.84,341.178 2211.85,361.038 2219.02,368.78 2229.07,380.285 2241.61,395.956 2259.66,422.126 2265.89,432.629 2281.59,465.646 2283.32,470.344 2287.11,482.117 2290.69,552.974 2290.52,553.739 2280.7,582.081 2273.98,594.46 2273.14,595.828 2257.85,616.481 2241.64,633.197 2223.37,648.523 2210.94,657.543 2194.01,668.51 2177.89,677.864 2132.79,700.014 2122.79,704.318 2060.83,727.589 2060.06,727.847 1992.01,748.53 1981.69,751.343 1921.02,766.537 1900.55,771.213 1899.05,771.547 1849.27,782.096 1816.17,788.566 1778.56,795.463 1735.62,802.808 1710.28,806.903 1659.15,814.679 1645.35,816.672 1587.79,824.554 1584.34,825.006 1527.48,832.116 1522,832.769 1474.8,838.188 1461.82,839.612 1426.19,843.381 1407.02,845.326 1381.42,847.834 1357.24,850.11 1340.23,851.659 1312.03,854.13 1302.32,854.954 1270.94,857.52 1267.39,857.8 1235.16,860.265 1233.51,860.387 1205.37,862.405 1199.34,862.822 1177.77,864.267 1168.04,864.896 1152.14,865.89 1139.28,866.666 1128.27,867.309 1112.75,868.181 1105.98,868.55 1088.2,869.48 1085.11,869.637 1065.52,870.589 1065.39,870.595 1047.07,871.424 1044.12,871.552 1029.66,872.156 1024.22,872.373 1013.18,872.796 1005.52,873.076 997.532,873.355 987.889,873.676 982.644,873.842 971.214,874.185 968.439,874.264 955.385,874.614 954.851,874.627 941.821,874.938 940.309,874.972 929.297,875.2 925.903,875.265 917.228,875.418 912.093,875.5 905.573,875.595 894.289,875.735 883.342,875.839 872.697,875.91 862.323,875.948 852.193,875.957 842.278,875.936 832.555,875.887 823.001,875.811 813.593,875.706 804.311,875.575 "/>
<polyline clip-path="url(#clip812)" style="stroke:#ac8d18; stroke-linecap:round; stroke-linejoin:round; stroke-width:4; stroke-opacity:1; fill:none" points="776.308,1112.25 770.744,1112.14 765.212,1112.01 759.697,1111.88 754.189,1111.73 748.675,1111.58 743.142,1111.41 737.579,1111.23 731.972,1111.03 726.309,1110.82 720.576,1110.6 717.31,1110.46 714.76,1110.36 710.498,1110.17 708.845,1110.09 703.538,1109.85 702.816,1109.81 696.657,1109.5 696.407,1109.49 690.349,1109.17 689.075,1109.1 683.875,1108.81 681.514,1108.67 677.214,1108.41 673.691,1108.2 670.342,1107.98 665.569,1107.67 663.237,1107.51 657.11,1107.08 655.871,1106.99 648.268,1106.41 648.215,1106.41 640.238,1105.77 638.994,1105.67 631.905,1105.06 629.234,1104.82 623.175,1104.26 618.924,1103.85 614.006,1103.36 607.996,1102.74 604.351,1102.35 596.371,1101.46 594.158,1101.2 583.962,1099.96 583.368,1099.88 571.919,1098.37 570.672,1098.19 559.744,1096.61 556.397,1096.1 546.77,1094.55 541.023,1093.58 532.923,1092.14 524.434,1090.53 518.129,1089.27 506.517,1086.78 502.318,1085.83 487.178,1082.14 485.434,1081.68 467.447,1076.62 466.36,1076.29 448.365,1070.4 444.078,1068.86 428.265,1062.69 420.47,1059.32 407.315,1053.06 395.85,1046.96 385.804,1041.02 370.769,1030.91 370.318,1030.58 364.165,1025.93 346.037,1010.16 342.971,1007.14 322.89,984.035 322.664,983.738 304.592,956.217 301.691,950.995 288.632,923.704 283.951,912.05 275.347,887.108 269.866,868.107 264.817,847.659 259.411,821.388 256.902,807.036 252.344,775.487 252.241,774.662 251.328,767.03 247.867,730.501 247.773,729.228 247.738,620.24 248.256,615.487 249.854,603.809 251.096,596.713 253.825,584.599 254.788,581.105 258.57,569.907 258.868,569.158 259.263,568.19 264.474,557.515 264.904,556.775 270.384,548.673 271.877,546.816 276.969,541.31 279.75,538.743 284.212,535.125 288.5,532.115 292.102,529.869 298.113,526.574 300.632,525.333 308.583,521.835 309.799,521.347 319.602,517.773 319.907,517.671 330.043,514.497 332.088,513.903 341.127,511.425 345.133,510.391 352.857,508.483 359.05,507.021 365.241,505.608 373.849,503.706 378.285,502.749 389.541,500.374 391.997,499.864 406.139,496.968 406.385,496.918 421.457,493.883 423.656,493.443 437.224,490.733 442.107,489.759 453.694,487.448 461.506,485.887 470.875,484.011 481.867,481.801 488.777,480.406 503.202,477.478 507.409,476.619 525.527,472.899 526.779,472.64 546.896,468.458 567.766,464.062 589.396,459.445 611.793,454.598 634.961,449.513 658.906,444.184 683.629,438.603 709.133,432.763 735.418,426.659 762.483,420.285 790.327,413.635 818.944,406.703 848.328,399.485 878.473,391.977 909.369,384.177 941.004,376.081 973.365,367.69 1006.44,359.005 1040.2,350.031 1074.64,340.773 1109.73,331.244 1111.98,330.63 1145.45,321.458 1153.48,319.249 1181.78,311.438 1195.79,307.563 1218.69,301.215 1238.85,295.621 1256.15,290.826 1282.64,283.494 1294.13,280.324 1327.11,271.276 1332.61,269.776 1371.56,259.266 1372.22,259.092 1410.95,248.903 1417.91,247.108 1450.75,238.82 1464.15,235.539 1490.94,229.188 1510.89,224.665 1531.49,220.216 1558.12,214.841 1572.38,212.161 1605.78,206.517 1613.6,205.339 1653.88,200.258 1655.14,200.128 1696.98,196.983 1702.39,196.754 1739.14,196.434 1751.32,196.842 1781.61,199.097 1800.67,201.502 1824.4,205.662 1850.47,211.849 1867.54,216.883 1900.73,229.082 1911.01,233.541 1951.43,254.404 1954.82,256.399 1998.91,286.123 2002.53,288.88 2043.17,323.189 2053.84,333.238 2087.38,367.762 2104.94,387.634 2131.08,419.58 2140.86,432.287 2155,451.406 2173.5,477.858 2202.45,522.912 2213.34,541.243 2244.54,599.509 2248.55,607.852 2258.07,628.786 2276.08,675.41 2276.86,677.77 2285.48,707.929 2291.02,800.288 2290.39,803.725 2284.88,824.403 2284.09,826.666 2266.98,860.243 2245.23,886.497 2218.06,909.731 2198.48,922.99 2170.81,938.665 2143.69,951.619 2065.79,980.658 2048.36,986.018 1941.25,1013.28 1939.94,1013.57 1827.31,1035.22 1810.86,1037.97 1717.92,1052.03 1688.07,1056.07 1685.92,1056.36 1616.65,1064.99 1573.07,1069.95 1525.84,1074.97 1474.77,1080 1445.99,1082.68 1390.77,1087.48 1376.49,1088.66 1319.56,1093.09 1316.27,1093.34 1264.07,1097.02 1259.23,1097.35 1218.72,1099.95 1207.94,1100.61 1179.13,1102.29 1164.06,1103.13 1144.38,1104.19 1126.24,1105.11 1113.72,1105.73 1093.38,1106.68 1086.48,1106.99 1064.59,1107.93 1062.15,1108.03 1040.29,1108.89 1039.18,1108.93 1020.53,1109.6 1016.57,1109.74 1002.57,1110.2 996.306,1110.39 986.158,1110.7 978.016,1110.93 971.092,1111.11 961.4,1111.36 957.192,1111.47 946.21,1111.72 944.31,1111.76 932.32,1112.01 932.242,1112.01 921.113,1112.21 919.327,1112.24 910.598,1112.38 907.322,1112.43 900.695,1112.52 896.107,1112.58 891.334,1112.63 885.58,1112.69 882.455,1112.72 875.655,1112.78 874.006,1112.79 866.257,1112.84 865.94,1112.84 858.216,1112.87 857.32,1112.87 850.797,1112.89 848.787,1112.89 843.652,1112.9 840.611,1112.89 836.75,1112.89 830.065,1112.87 823.574,1112.84 817.255,1112.8 811.087,1112.75 805.052,1112.69 799.133,1112.62 793.314,1112.54 787.579,1112.45 781.915,1112.36 776.308,1112.25 "/>
<polyline clip-path="url(#clip812)" style="stroke:#00a9ad; stroke-linecap:round; stroke-linejoin:round; stroke-width:4; stroke-opacity:1; fill:none" points="764.182,1445.35 762.639,1445.34 761.095,1445.32 759.548,1445.3 757.992,1445.28 756.425,1445.26 754.843,1445.25 753.241,1445.23 751.614,1445.2 749.959,1445.18 748.27,1445.16 747.301,1445.15 746.542,1445.14 745.266,1445.12 744.769,1445.11 743.165,1445.09 742.945,1445.08 741.064,1445.06 740.987,1445.06 739.117,1445.03 738.721,1445.02 737.096,1445 736.353,1444.98 734.992,1444.96 733.868,1444.94 732.793,1444.93 731.249,1444.9 730.489,1444.89 728.474,1444.85 728.064,1444.84 725.521,1444.8 725.503,1444.8 722.788,1444.75 722.36,1444.74 719.897,1444.69 718.958,1444.67 716.804,1444.63 715.273,1444.6 713.48,1444.56 711.256,1444.52 709.889,1444.49 706.845,1444.42 705.988,1444.4 701.964,1444.31 701.725,1444.3 697.036,1444.19 696.515,1444.18 691.842,1444.06 690.374,1444.02 686.044,1443.9 683.379,1443.83 679.514,1443.72 675.314,1443.59 672.09,1443.49 665.89,1443.29 663.558,1443.21 654.704,1442.9 653.636,1442.86 641.937,1442.41 641.187,1442.38 627.93,1441.8 624.511,1441.64 610.865,1440.96 603.447,1440.55 589.673,1439.74 576.127,1438.84 562.814,1437.86 539.735,1435.91 538.974,1435.84 528.139,1434.78 490.404,1430.27 483.011,1429.21 425.786,1418.1 425.052,1417.91 361.011,1394.06 350.255,1387.74 304.864,1343.47 291.163,1318.82 278.791,1286.1 271.077,1256.85 261.752,1204.45 255.275,1146.68 250.243,1074.57 248.496,1037.35 248.216,778.657 248.523,773.812 249.225,764.052 251.264,742.516 252.692,731.25 253.846,723.64 254.676,718.804 257.021,707.327 258.7,700.614 262.143,689.559 263.303,686.455 268.02,676.08 268.464,675.254 274.173,666.237 274.635,665.617 280.425,658.843 281.978,657.289 287.219,652.66 290.049,650.483 294.555,647.381 298.851,644.762 302.438,642.779 308.39,639.816 310.873,638.68 318.676,635.415 319.865,634.952 329.422,631.493 329.719,631.392 339.552,628.222 341.532,627.619 350.264,625.075 354.128,624.001 361.565,622.004 367.52,620.462 373.467,618.966 381.725,616.946 385.978,615.928 396.757,613.404 399.108,612.863 412.632,609.8 412.867,609.747 427.265,606.561 429.365,606.102 442.313,603.288 446.971,602.283 458.019,599.912 465.466,598.322 474.393,596.42 484.863,594.196 491.444,592.8 505.177,589.889 509.181,589.04 526.421,585.382 527.612,585.129 546.744,581.057 566.583,576.813 587.134,572.387 608.403,567.768 630.391,562.945 653.101,557.908 676.532,552.644 700.683,547.142 725.551,541.388 751.129,535.367 777.41,529.066 804.385,522.468 832.039,515.555 860.36,508.309 889.328,500.709 918.924,492.732 949.123,484.356 979.899,475.553 1011.22,466.295 1043.06,456.552 1075.38,446.29 1077.45,445.62 1108.14,435.473 1115.48,432.988 1141.3,424.063 1154.04,419.548 1174.81,412.017 1193.05,405.232 1208.63,399.293 1232.43,389.971 1242.71,385.844 1272.11,373.693 1277,371.623 1311.43,356.582 1312.01,356.324 1345.96,340.675 1352.03,337.79 1380.54,323.861 1392.1,318.029 1415.1,306.105 1432.12,296.992 1449.58,287.387 1472.01,274.663 1483.95,267.711 1511.69,251.075 1518.13,247.116 1551.08,226.35 1552.1,225.694 1585.81,203.617 1590.13,200.74 1619.23,181.175 1628.79,174.712 1652.34,158.827 1667.02,149.053 1685.14,137.275 1704.86,125.039 1717.66,117.564 1742.34,104.661 1749.93,101.209 1779.59,90.9382 1782.06,90.3609 1814.19,87.9763 1816.83,88.2693 1846.54,97.9718 1854.4,102.756 1879.45,125.245 1892.86,142.222 1913.39,175.402 1921.32,190.568 1933.06,215.459 1949.1,253.936 1976.36,330.012 1987.61,364.657 2024.84,488.188 2030.44,507.454 2079.71,676.115 2081.59,682.365 2137.96,857.612 2150.46,892.828 2151.83,896.598 2206.12,1034.04 2231.38,1091.53 2234.17,1097.74 2273.47,1186.95 2279.66,1202.98 2290.27,1237.95 2290.2,1287.64 2283.23,1302.47 2256.19,1328.6 2192.98,1356.1 2109.12,1375.77 1822.58,1409.21 1760.51,1413.81 1689.15,1418.48 1453.57,1430.64 1450.62,1430.77 1252.42,1438.15 1230.75,1438.82 1131.39,1441.57 1105.93,1442.18 1104.19,1442.23 1054.03,1443.31 1027.28,1443.81 1001.55,1444.26 976.799,1444.63 964.023,1444.81 941.465,1445.08 935.997,1445.14 915.449,1445.35 914.316,1445.36 897.053,1445.49 895.513,1445.5 882.977,1445.58 879.741,1445.6 871.268,1445.64 866.933,1445.66 861.361,1445.68 856.304,1445.69 852.857,1445.7 847.322,1445.71 845.464,1445.71 839.612,1445.72 838.964,1445.72 833.194,1445.72 832.904,1445.72 828.027,1445.71 826.997,1445.71 823.362,1445.71 821.742,1445.7 819.121,1445.7 817.023,1445.69 815.24,1445.69 812.748,1445.68 811.667,1445.68 808.846,1445.67 808.358,1445.67 805.279,1445.65 805.259,1445.65 802.4,1445.64 801.941,1445.64 799.696,1445.63 798.853,1445.62 797.145,1445.62 795.962,1445.61 794.729,1445.6 793.242,1445.59 792.433,1445.59 790.67,1445.58 790.241,1445.58 788.226,1445.56 788.144,1445.56 786.128,1445.55 785.894,1445.55 784.186,1445.53 783.659,1445.53 782.309,1445.52 781.509,1445.51 780.49,1445.51 778.721,1445.49 776.996,1445.48 775.309,1445.46 773.656,1445.45 772.032,1445.43 770.431,1445.42 768.85,1445.4 767.284,1445.39 765.729,1445.37 764.182,1445.35 "/>
</svg>
