<?xml version="1.0" encoding="utf-8"?>
<svg xmlns="http://www.w3.org/2000/svg" xmlns:xlink="http://www.w3.org/1999/xlink" width="600" height="400" viewBox="0 0 2400 1600">
<defs>
  <clipPath id="clip040">
    <rect x="0" y="0" width="2400" height="1600"/>
  </clipPath>
</defs>
<path clip-path="url(#clip040)" d="M0 1600 L2400 1600 L2400 0 L0 0  Z" fill="#ffffff" fill-rule="evenodd" fill-opacity="1"/>
<defs>
  <clipPath id="clip041">
    <rect x="480" y="0" width="1681" height="1600"/>
  </clipPath>
</defs>
<path clip-path="url(#clip040)" d="M186.274 1486.45 L2352.76 1486.45 L2352.76 47.2441 L186.274 47.2441  Z" fill="#ffffff" fill-rule="evenodd" fill-opacity="1"/>
<defs>
  <clipPath id="clip042">
    <rect x="186" y="47" width="2167" height="1440"/>
  </clipPath>
</defs>
<polyline clip-path="url(#clip042)" style="stroke:#000000; stroke-linecap:round; stroke-linejoin:round; stroke-width:2; stroke-opacity:0.1; fill:none" points="245.288,1486.45 245.288,47.2441 "/>
<polyline clip-path="url(#clip042)" style="stroke:#000000; stroke-linecap:round; stroke-linejoin:round; stroke-width:2; stroke-opacity:0.1; fill:none" points="757.338,1486.45 757.338,47.2441 "/>
<polyline clip-path="url(#clip042)" style="stroke:#000000; stroke-linecap:round; stroke-linejoin:round; stroke-width:2; stroke-opacity:0.1; fill:none" points="1269.39,1486.45 1269.39,47.2441 "/>
<polyline clip-path="url(#clip042)" style="stroke:#000000; stroke-linecap:round; stroke-linejoin:round; stroke-width:2; stroke-opacity:0.1; fill:none" points="1781.44,1486.45 1781.44,47.2441 "/>
<polyline clip-path="url(#clip042)" style="stroke:#000000; stroke-linecap:round; stroke-linejoin:round; stroke-width:2; stroke-opacity:0.1; fill:none" points="2293.49,1486.45 2293.49,47.2441 "/>
<polyline clip-path="url(#clip040)" style="stroke:#000000; stroke-linecap:round; stroke-linejoin:round; stroke-width:4; stroke-opacity:1; fill:none" points="186.274,1486.45 2352.76,1486.45 "/>
<polyline clip-path="url(#clip040)" style="stroke:#000000; stroke-linecap:round; stroke-linejoin:round; stroke-width:4; stroke-opacity:1; fill:none" points="245.288,1486.45 245.288,1467.55 "/>
<polyline clip-path="url(#clip040)" style="stroke:#000000; stroke-linecap:round; stroke-linejoin:round; stroke-width:4; stroke-opacity:1; fill:none" points="757.338,1486.45 757.338,1467.55 "/>
<polyline clip-path="url(#clip040)" style="stroke:#000000; stroke-linecap:round; stroke-linejoin:round; stroke-width:4; stroke-opacity:1; fill:none" points="1269.39,1486.45 1269.39,1467.55 "/>
<polyline clip-path="url(#clip040)" style="stroke:#000000; stroke-linecap:round; stroke-linejoin:round; stroke-width:4; stroke-opacity:1; fill:none" points="1781.44,1486.45 1781.44,1467.55 "/>
<polyline clip-path="url(#clip040)" style="stroke:#000000; stroke-linecap:round; stroke-linejoin:round; stroke-width:4; stroke-opacity:1; fill:none" points="2293.49,1486.45 2293.49,1467.55 "/>
<path clip-path="url(#clip040)" d="M207.592 1517.37 Q203.981 1517.37 202.152 1520.93 Q200.346 1524.47 200.346 1531.6 Q200.346 1538.71 202.152 1542.27 Q203.981 1545.82 207.592 1545.82 Q211.226 1545.82 213.031 1542.27 Q214.86 1538.71 214.86 1531.6 Q214.86 1524.47 213.031 1520.93 Q211.226 1517.37 207.592 1517.37 M207.592 1513.66 Q213.402 1513.66 216.457 1518.27 Q219.536 1522.85 219.536 1531.6 Q219.536 1540.33 216.457 1544.94 Q213.402 1549.52 207.592 1549.52 Q201.782 1549.52 198.703 1544.94 Q195.647 1540.33 195.647 1531.6 Q195.647 1522.85 198.703 1518.27 Q201.782 1513.66 207.592 1513.66 Z" fill="#000000" fill-rule="nonzero" fill-opacity="1" /><path clip-path="url(#clip040)" d="M227.754 1542.97 L232.638 1542.97 L232.638 1548.85 L227.754 1548.85 L227.754 1542.97 Z" fill="#000000" fill-rule="nonzero" fill-opacity="1" /><path clip-path="url(#clip040)" d="M252.823 1517.37 Q249.212 1517.37 247.383 1520.93 Q245.578 1524.47 245.578 1531.6 Q245.578 1538.71 247.383 1542.27 Q249.212 1545.82 252.823 1545.82 Q256.457 1545.82 258.263 1542.27 Q260.091 1538.71 260.091 1531.6 Q260.091 1524.47 258.263 1520.93 Q256.457 1517.37 252.823 1517.37 M252.823 1513.66 Q258.633 1513.66 261.689 1518.27 Q264.767 1522.85 264.767 1531.6 Q264.767 1540.33 261.689 1544.94 Q258.633 1549.52 252.823 1549.52 Q247.013 1549.52 243.934 1544.94 Q240.879 1540.33 240.879 1531.6 Q240.879 1522.85 243.934 1518.27 Q247.013 1513.66 252.823 1513.66 Z" fill="#000000" fill-rule="nonzero" fill-opacity="1" /><path clip-path="url(#clip040)" d="M282.985 1517.37 Q279.374 1517.37 277.545 1520.93 Q275.739 1524.47 275.739 1531.6 Q275.739 1538.71 277.545 1542.27 Q279.374 1545.82 282.985 1545.82 Q286.619 1545.82 288.425 1542.27 Q290.253 1538.71 290.253 1531.6 Q290.253 1524.47 288.425 1520.93 Q286.619 1517.37 282.985 1517.37 M282.985 1513.66 Q288.795 1513.66 291.85 1518.27 Q294.929 1522.85 294.929 1531.6 Q294.929 1540.33 291.85 1544.94 Q288.795 1549.52 282.985 1549.52 Q277.175 1549.52 274.096 1544.94 Q271.04 1540.33 271.04 1531.6 Q271.04 1522.85 274.096 1518.27 Q277.175 1513.66 282.985 1513.66 Z" fill="#000000" fill-rule="nonzero" fill-opacity="1" /><path clip-path="url(#clip040)" d="M720.14 1517.37 Q716.528 1517.37 714.7 1520.93 Q712.894 1524.47 712.894 1531.6 Q712.894 1538.71 714.7 1542.27 Q716.528 1545.82 720.14 1545.82 Q723.774 1545.82 725.579 1542.27 Q727.408 1538.71 727.408 1531.6 Q727.408 1524.47 725.579 1520.93 Q723.774 1517.37 720.14 1517.37 M720.14 1513.66 Q725.95 1513.66 729.005 1518.27 Q732.084 1522.85 732.084 1531.6 Q732.084 1540.33 729.005 1544.94 Q725.95 1549.52 720.14 1549.52 Q714.329 1549.52 711.251 1544.94 Q708.195 1540.33 708.195 1531.6 Q708.195 1522.85 711.251 1518.27 Q714.329 1513.66 720.14 1513.66 Z" fill="#000000" fill-rule="nonzero" fill-opacity="1" /><path clip-path="url(#clip040)" d="M740.301 1542.97 L745.186 1542.97 L745.186 1548.85 L740.301 1548.85 L740.301 1542.97 Z" fill="#000000" fill-rule="nonzero" fill-opacity="1" /><path clip-path="url(#clip040)" d="M759.399 1544.91 L775.718 1544.91 L775.718 1548.85 L753.774 1548.85 L753.774 1544.91 Q756.436 1542.16 761.019 1537.53 Q765.625 1532.88 766.806 1531.53 Q769.051 1529.01 769.931 1527.27 Q770.834 1525.51 770.834 1523.82 Q770.834 1521.07 768.889 1519.33 Q766.968 1517.6 763.866 1517.6 Q761.667 1517.6 759.213 1518.36 Q756.783 1519.13 754.005 1520.68 L754.005 1515.95 Q756.829 1514.82 759.283 1514.24 Q761.737 1513.66 763.774 1513.66 Q769.144 1513.66 772.338 1516.35 Q775.533 1519.03 775.533 1523.52 Q775.533 1525.65 774.723 1527.57 Q773.936 1529.47 771.829 1532.07 Q771.25 1532.74 768.149 1535.95 Q765.047 1539.15 759.399 1544.91 Z" fill="#000000" fill-rule="nonzero" fill-opacity="1" /><path clip-path="url(#clip040)" d="M785.579 1514.29 L803.935 1514.29 L803.935 1518.22 L789.861 1518.22 L789.861 1526.7 Q790.88 1526.35 791.898 1526.19 Q792.917 1526 793.935 1526 Q799.722 1526 803.102 1529.17 Q806.482 1532.34 806.482 1537.76 Q806.482 1543.34 803.009 1546.44 Q799.537 1549.52 793.218 1549.52 Q791.042 1549.52 788.773 1549.15 Q786.528 1548.78 784.121 1548.04 L784.121 1543.34 Q786.204 1544.47 788.426 1545.03 Q790.648 1545.58 793.125 1545.58 Q797.13 1545.58 799.468 1543.48 Q801.806 1541.37 801.806 1537.76 Q801.806 1534.15 799.468 1532.04 Q797.13 1529.94 793.125 1529.94 Q791.25 1529.94 789.375 1530.35 Q787.523 1530.77 785.579 1531.65 L785.579 1514.29 Z" fill="#000000" fill-rule="nonzero" fill-opacity="1" /><path clip-path="url(#clip040)" d="M1231.69 1517.37 Q1228.08 1517.37 1226.25 1520.93 Q1224.45 1524.47 1224.45 1531.6 Q1224.45 1538.71 1226.25 1542.27 Q1228.08 1545.82 1231.69 1545.82 Q1235.33 1545.82 1237.13 1542.27 Q1238.96 1538.71 1238.96 1531.6 Q1238.96 1524.47 1237.13 1520.93 Q1235.33 1517.37 1231.69 1517.37 M1231.69 1513.66 Q1237.5 1513.66 1240.56 1518.27 Q1243.64 1522.85 1243.64 1531.6 Q1243.64 1540.33 1240.56 1544.94 Q1237.5 1549.52 1231.69 1549.52 Q1225.88 1549.52 1222.8 1544.94 Q1219.75 1540.33 1219.75 1531.6 Q1219.75 1522.85 1222.8 1518.27 Q1225.88 1513.66 1231.69 1513.66 Z" fill="#000000" fill-rule="nonzero" fill-opacity="1" /><path clip-path="url(#clip040)" d="M1251.85 1542.97 L1256.74 1542.97 L1256.74 1548.85 L1251.85 1548.85 L1251.85 1542.97 Z" fill="#000000" fill-rule="nonzero" fill-opacity="1" /><path clip-path="url(#clip040)" d="M1266.97 1514.29 L1285.33 1514.29 L1285.33 1518.22 L1271.25 1518.22 L1271.25 1526.7 Q1272.27 1526.35 1273.29 1526.19 Q1274.31 1526 1275.33 1526 Q1281.11 1526 1284.49 1529.17 Q1287.87 1532.34 1287.87 1537.76 Q1287.87 1543.34 1284.4 1546.44 Q1280.93 1549.52 1274.61 1549.52 Q1272.43 1549.52 1270.16 1549.15 Q1267.92 1548.78 1265.51 1548.04 L1265.51 1543.34 Q1267.59 1544.47 1269.82 1545.03 Q1272.04 1545.58 1274.52 1545.58 Q1278.52 1545.58 1280.86 1543.48 Q1283.2 1541.37 1283.2 1537.76 Q1283.2 1534.15 1280.86 1532.04 Q1278.52 1529.94 1274.52 1529.94 Q1272.64 1529.94 1270.77 1530.35 Q1268.91 1530.77 1266.97 1531.65 L1266.97 1514.29 Z" fill="#000000" fill-rule="nonzero" fill-opacity="1" /><path clip-path="url(#clip040)" d="M1307.09 1517.37 Q1303.47 1517.37 1301.65 1520.93 Q1299.84 1524.47 1299.84 1531.6 Q1299.84 1538.71 1301.65 1542.27 Q1303.47 1545.82 1307.09 1545.82 Q1310.72 1545.82 1312.52 1542.27 Q1314.35 1538.71 1314.35 1531.6 Q1314.35 1524.47 1312.52 1520.93 Q1310.72 1517.37 1307.09 1517.37 M1307.09 1513.66 Q1312.9 1513.66 1315.95 1518.27 Q1319.03 1522.85 1319.03 1531.6 Q1319.03 1540.33 1315.95 1544.94 Q1312.9 1549.52 1307.09 1549.52 Q1301.27 1549.52 1298.2 1544.94 Q1295.14 1540.33 1295.14 1531.6 Q1295.14 1522.85 1298.2 1518.27 Q1301.27 1513.66 1307.09 1513.66 Z" fill="#000000" fill-rule="nonzero" fill-opacity="1" /><path clip-path="url(#clip040)" d="M1744.24 1517.37 Q1740.63 1517.37 1738.8 1520.93 Q1736.99 1524.47 1736.99 1531.6 Q1736.99 1538.71 1738.8 1542.27 Q1740.63 1545.82 1744.24 1545.82 Q1747.87 1545.82 1749.68 1542.27 Q1751.51 1538.71 1751.51 1531.6 Q1751.51 1524.47 1749.68 1520.93 Q1747.87 1517.37 1744.24 1517.37 M1744.24 1513.66 Q1750.05 1513.66 1753.11 1518.27 Q1756.18 1522.85 1756.18 1531.6 Q1756.18 1540.33 1753.11 1544.94 Q1750.05 1549.52 1744.24 1549.52 Q1738.43 1549.52 1735.35 1544.94 Q1732.3 1540.33 1732.3 1531.6 Q1732.3 1522.85 1735.35 1518.27 Q1738.43 1513.66 1744.24 1513.66 Z" fill="#000000" fill-rule="nonzero" fill-opacity="1" /><path clip-path="url(#clip040)" d="M1764.4 1542.97 L1769.29 1542.97 L1769.29 1548.85 L1764.4 1548.85 L1764.4 1542.97 Z" fill="#000000" fill-rule="nonzero" fill-opacity="1" /><path clip-path="url(#clip040)" d="M1778.29 1514.29 L1800.51 1514.29 L1800.51 1516.28 L1787.97 1548.85 L1783.08 1548.85 L1794.89 1518.22 L1778.29 1518.22 L1778.29 1514.29 Z" fill="#000000" fill-rule="nonzero" fill-opacity="1" /><path clip-path="url(#clip040)" d="M1809.68 1514.29 L1828.04 1514.29 L1828.04 1518.22 L1813.96 1518.22 L1813.96 1526.7 Q1814.98 1526.35 1816 1526.19 Q1817.02 1526 1818.04 1526 Q1823.82 1526 1827.2 1529.17 Q1830.58 1532.34 1830.58 1537.76 Q1830.58 1543.34 1827.11 1546.44 Q1823.64 1549.52 1817.32 1549.52 Q1815.14 1549.52 1812.87 1549.15 Q1810.63 1548.78 1808.22 1548.04 L1808.22 1543.34 Q1810.3 1544.47 1812.53 1545.03 Q1814.75 1545.58 1817.23 1545.58 Q1821.23 1545.58 1823.57 1543.48 Q1825.91 1541.37 1825.91 1537.76 Q1825.91 1534.15 1823.57 1532.04 Q1821.23 1529.94 1817.23 1529.94 Q1815.35 1529.94 1813.48 1530.35 Q1811.62 1530.77 1809.68 1531.65 L1809.68 1514.29 Z" fill="#000000" fill-rule="nonzero" fill-opacity="1" /><path clip-path="url(#clip040)" d="M2245.56 1544.91 L2253.2 1544.91 L2253.2 1518.55 L2244.89 1520.21 L2244.89 1515.95 L2253.15 1514.29 L2257.83 1514.29 L2257.83 1544.91 L2265.47 1544.91 L2265.47 1548.85 L2245.56 1548.85 L2245.56 1544.91 Z" fill="#000000" fill-rule="nonzero" fill-opacity="1" /><path clip-path="url(#clip040)" d="M2274.91 1542.97 L2279.8 1542.97 L2279.8 1548.85 L2274.91 1548.85 L2274.91 1542.97 Z" fill="#000000" fill-rule="nonzero" fill-opacity="1" /><path clip-path="url(#clip040)" d="M2299.98 1517.37 Q2296.37 1517.37 2294.54 1520.93 Q2292.74 1524.47 2292.74 1531.6 Q2292.74 1538.71 2294.54 1542.27 Q2296.37 1545.82 2299.98 1545.82 Q2303.62 1545.82 2305.42 1542.27 Q2307.25 1538.71 2307.25 1531.6 Q2307.25 1524.47 2305.42 1520.93 Q2303.62 1517.37 2299.98 1517.37 M2299.98 1513.66 Q2305.79 1513.66 2308.85 1518.27 Q2311.93 1522.85 2311.93 1531.6 Q2311.93 1540.33 2308.85 1544.94 Q2305.79 1549.52 2299.98 1549.52 Q2294.17 1549.52 2291.09 1544.94 Q2288.04 1540.33 2288.04 1531.6 Q2288.04 1522.85 2291.09 1518.27 Q2294.17 1513.66 2299.98 1513.66 Z" fill="#000000" fill-rule="nonzero" fill-opacity="1" /><path clip-path="url(#clip040)" d="M2330.14 1517.37 Q2326.53 1517.37 2324.7 1520.93 Q2322.9 1524.47 2322.9 1531.6 Q2322.9 1538.71 2324.7 1542.27 Q2326.53 1545.82 2330.14 1545.82 Q2333.78 1545.82 2335.58 1542.27 Q2337.41 1538.71 2337.41 1531.6 Q2337.41 1524.47 2335.58 1520.93 Q2333.78 1517.37 2330.14 1517.37 M2330.14 1513.66 Q2335.95 1513.66 2339.01 1518.27 Q2342.09 1522.85 2342.09 1531.6 Q2342.09 1540.33 2339.01 1544.94 Q2335.95 1549.52 2330.14 1549.52 Q2324.33 1549.52 2321.25 1544.94 Q2318.2 1540.33 2318.2 1531.6 Q2318.2 1522.85 2321.25 1518.27 Q2324.33 1513.66 2330.14 1513.66 Z" fill="#000000" fill-rule="nonzero" fill-opacity="1" /><polyline clip-path="url(#clip042)" style="stroke:#000000; stroke-linecap:round; stroke-linejoin:round; stroke-width:2; stroke-opacity:0.1; fill:none" points="186.274,1313.45 2352.76,1313.45 "/>
<polyline clip-path="url(#clip042)" style="stroke:#000000; stroke-linecap:round; stroke-linejoin:round; stroke-width:2; stroke-opacity:0.1; fill:none" points="186.274,1020.13 2352.76,1020.13 "/>
<polyline clip-path="url(#clip042)" style="stroke:#000000; stroke-linecap:round; stroke-linejoin:round; stroke-width:2; stroke-opacity:0.1; fill:none" points="186.274,726.808 2352.76,726.808 "/>
<polyline clip-path="url(#clip042)" style="stroke:#000000; stroke-linecap:round; stroke-linejoin:round; stroke-width:2; stroke-opacity:0.1; fill:none" points="186.274,433.488 2352.76,433.488 "/>
<polyline clip-path="url(#clip042)" style="stroke:#000000; stroke-linecap:round; stroke-linejoin:round; stroke-width:2; stroke-opacity:0.1; fill:none" points="186.274,140.167 2352.76,140.167 "/>
<polyline clip-path="url(#clip040)" style="stroke:#000000; stroke-linecap:round; stroke-linejoin:round; stroke-width:4; stroke-opacity:1; fill:none" points="186.274,1486.45 186.274,47.2441 "/>
<polyline clip-path="url(#clip040)" style="stroke:#000000; stroke-linecap:round; stroke-linejoin:round; stroke-width:4; stroke-opacity:1; fill:none" points="186.274,1313.45 205.172,1313.45 "/>
<polyline clip-path="url(#clip040)" style="stroke:#000000; stroke-linecap:round; stroke-linejoin:round; stroke-width:4; stroke-opacity:1; fill:none" points="186.274,1020.13 205.172,1020.13 "/>
<polyline clip-path="url(#clip040)" style="stroke:#000000; stroke-linecap:round; stroke-linejoin:round; stroke-width:4; stroke-opacity:1; fill:none" points="186.274,726.808 205.172,726.808 "/>
<polyline clip-path="url(#clip040)" style="stroke:#000000; stroke-linecap:round; stroke-linejoin:round; stroke-width:4; stroke-opacity:1; fill:none" points="186.274,433.488 205.172,433.488 "/>
<polyline clip-path="url(#clip040)" style="stroke:#000000; stroke-linecap:round; stroke-linejoin:round; stroke-width:4; stroke-opacity:1; fill:none" points="186.274,140.167 205.172,140.167 "/>
<path clip-path="url(#clip040)" d="M63.9319 1299.25 Q60.3208 1299.25 58.4921 1302.81 Q56.6865 1306.35 56.6865 1313.48 Q56.6865 1320.59 58.4921 1324.16 Q60.3208 1327.7 63.9319 1327.7 Q67.5661 1327.7 69.3717 1324.16 Q71.2004 1320.59 71.2004 1313.48 Q71.2004 1306.35 69.3717 1302.81 Q67.5661 1299.25 63.9319 1299.25 M63.9319 1295.54 Q69.742 1295.54 72.7976 1300.15 Q75.8763 1304.73 75.8763 1313.48 Q75.8763 1322.21 72.7976 1326.82 Q69.742 1331.4 63.9319 1331.4 Q58.1217 1331.4 55.043 1326.82 Q51.9875 1322.21 51.9875 1313.48 Q51.9875 1304.73 55.043 1300.15 Q58.1217 1295.54 63.9319 1295.54 Z" fill="#000000" fill-rule="nonzero" fill-opacity="1" /><path clip-path="url(#clip040)" d="M84.0938 1324.85 L88.978 1324.85 L88.978 1330.73 L84.0938 1330.73 L84.0938 1324.85 Z" fill="#000000" fill-rule="nonzero" fill-opacity="1" /><path clip-path="url(#clip040)" d="M109.163 1299.25 Q105.552 1299.25 103.723 1302.81 Q101.918 1306.35 101.918 1313.48 Q101.918 1320.59 103.723 1324.16 Q105.552 1327.7 109.163 1327.7 Q112.797 1327.7 114.603 1324.16 Q116.432 1320.59 116.432 1313.48 Q116.432 1306.35 114.603 1302.81 Q112.797 1299.25 109.163 1299.25 M109.163 1295.54 Q114.973 1295.54 118.029 1300.15 Q121.107 1304.73 121.107 1313.48 Q121.107 1322.21 118.029 1326.82 Q114.973 1331.4 109.163 1331.4 Q103.353 1331.4 100.274 1326.82 Q97.2187 1322.21 97.2187 1313.48 Q97.2187 1304.73 100.274 1300.15 Q103.353 1295.54 109.163 1295.54 Z" fill="#000000" fill-rule="nonzero" fill-opacity="1" /><path clip-path="url(#clip040)" d="M129.371 1296.17 L147.728 1296.17 L147.728 1300.1 L133.654 1300.1 L133.654 1308.58 Q134.672 1308.23 135.691 1308.07 Q136.709 1307.88 137.728 1307.88 Q143.515 1307.88 146.894 1311.05 Q150.274 1314.22 150.274 1319.64 Q150.274 1325.22 146.802 1328.32 Q143.33 1331.4 137.01 1331.4 Q134.834 1331.4 132.566 1331.03 Q130.32 1330.66 127.913 1329.92 L127.913 1325.22 Q129.996 1326.35 132.219 1326.91 Q134.441 1327.47 136.918 1327.47 Q140.922 1327.47 143.26 1325.36 Q145.598 1323.25 145.598 1319.64 Q145.598 1316.03 143.26 1313.92 Q140.922 1311.82 136.918 1311.82 Q135.043 1311.82 133.168 1312.23 Q131.316 1312.65 129.371 1313.53 L129.371 1296.17 Z" fill="#000000" fill-rule="nonzero" fill-opacity="1" /><path clip-path="url(#clip040)" d="M62.9365 1005.93 Q59.3254 1005.93 57.4967 1009.49 Q55.6912 1013.03 55.6912 1020.16 Q55.6912 1027.27 57.4967 1030.83 Q59.3254 1034.38 62.9365 1034.38 Q66.5707 1034.38 68.3763 1030.83 Q70.205 1027.27 70.205 1020.16 Q70.205 1013.03 68.3763 1009.49 Q66.5707 1005.93 62.9365 1005.93 M62.9365 1002.22 Q68.7467 1002.22 71.8022 1006.83 Q74.8809 1011.41 74.8809 1020.16 Q74.8809 1028.89 71.8022 1033.5 Q68.7467 1038.08 62.9365 1038.08 Q57.1264 1038.08 54.0477 1033.5 Q50.9921 1028.89 50.9921 1020.16 Q50.9921 1011.41 54.0477 1006.83 Q57.1264 1002.22 62.9365 1002.22 Z" fill="#000000" fill-rule="nonzero" fill-opacity="1" /><path clip-path="url(#clip040)" d="M83.0984 1031.53 L87.9827 1031.53 L87.9827 1037.41 L83.0984 1037.41 L83.0984 1031.53 Z" fill="#000000" fill-rule="nonzero" fill-opacity="1" /><path clip-path="url(#clip040)" d="M98.978 1033.47 L106.617 1033.47 L106.617 1007.11 L98.3067 1008.77 L98.3067 1004.52 L106.571 1002.85 L111.246 1002.85 L111.246 1033.47 L118.885 1033.47 L118.885 1037.41 L98.978 1037.41 L98.978 1033.47 Z" fill="#000000" fill-rule="nonzero" fill-opacity="1" /><path clip-path="url(#clip040)" d="M138.33 1005.93 Q134.719 1005.93 132.89 1009.49 Q131.084 1013.03 131.084 1020.16 Q131.084 1027.27 132.89 1030.83 Q134.719 1034.38 138.33 1034.38 Q141.964 1034.38 143.769 1030.83 Q145.598 1027.27 145.598 1020.16 Q145.598 1013.03 143.769 1009.49 Q141.964 1005.93 138.33 1005.93 M138.33 1002.22 Q144.14 1002.22 147.195 1006.83 Q150.274 1011.41 150.274 1020.16 Q150.274 1028.89 147.195 1033.5 Q144.14 1038.08 138.33 1038.08 Q132.519 1038.08 129.441 1033.5 Q126.385 1028.89 126.385 1020.16 Q126.385 1011.41 129.441 1006.83 Q132.519 1002.22 138.33 1002.22 Z" fill="#000000" fill-rule="nonzero" fill-opacity="1" /><path clip-path="url(#clip040)" d="M63.9319 712.607 Q60.3208 712.607 58.4921 716.172 Q56.6865 719.714 56.6865 726.843 Q56.6865 733.95 58.4921 737.514 Q60.3208 741.056 63.9319 741.056 Q67.5661 741.056 69.3717 737.514 Q71.2004 733.95 71.2004 726.843 Q71.2004 719.714 69.3717 716.172 Q67.5661 712.607 63.9319 712.607 M63.9319 708.903 Q69.742 708.903 72.7976 713.51 Q75.8763 718.093 75.8763 726.843 Q75.8763 735.57 72.7976 740.176 Q69.742 744.76 63.9319 744.76 Q58.1217 744.76 55.043 740.176 Q51.9875 735.57 51.9875 726.843 Q51.9875 718.093 55.043 713.51 Q58.1217 708.903 63.9319 708.903 Z" fill="#000000" fill-rule="nonzero" fill-opacity="1" /><path clip-path="url(#clip040)" d="M84.0938 738.209 L88.978 738.209 L88.978 744.088 L84.0938 744.088 L84.0938 738.209 Z" fill="#000000" fill-rule="nonzero" fill-opacity="1" /><path clip-path="url(#clip040)" d="M99.9733 740.153 L107.612 740.153 L107.612 713.788 L99.3021 715.454 L99.3021 711.195 L107.566 709.528 L112.242 709.528 L112.242 740.153 L119.881 740.153 L119.881 744.088 L99.9733 744.088 L99.9733 740.153 Z" fill="#000000" fill-rule="nonzero" fill-opacity="1" /><path clip-path="url(#clip040)" d="M129.371 709.528 L147.728 709.528 L147.728 713.464 L133.654 713.464 L133.654 721.936 Q134.672 721.589 135.691 721.427 Q136.709 721.241 137.728 721.241 Q143.515 721.241 146.894 724.413 Q150.274 727.584 150.274 733.001 Q150.274 738.579 146.802 741.681 Q143.33 744.76 137.01 744.76 Q134.834 744.76 132.566 744.389 Q130.32 744.019 127.913 743.278 L127.913 738.579 Q129.996 739.713 132.219 740.269 Q134.441 740.825 136.918 740.825 Q140.922 740.825 143.26 738.718 Q145.598 736.612 145.598 733.001 Q145.598 729.389 143.26 727.283 Q140.922 725.176 136.918 725.176 Q135.043 725.176 133.168 725.593 Q131.316 726.01 129.371 726.889 L129.371 709.528 Z" fill="#000000" fill-rule="nonzero" fill-opacity="1" /><path clip-path="url(#clip040)" d="M62.9365 419.287 Q59.3254 419.287 57.4967 422.851 Q55.6912 426.393 55.6912 433.523 Q55.6912 440.629 57.4967 444.194 Q59.3254 447.735 62.9365 447.735 Q66.5707 447.735 68.3763 444.194 Q70.205 440.629 70.205 433.523 Q70.205 426.393 68.3763 422.851 Q66.5707 419.287 62.9365 419.287 M62.9365 415.583 Q68.7467 415.583 71.8022 420.189 Q74.8809 424.773 74.8809 433.523 Q74.8809 442.249 71.8022 446.856 Q68.7467 451.439 62.9365 451.439 Q57.1264 451.439 54.0477 446.856 Q50.9921 442.249 50.9921 433.523 Q50.9921 424.773 54.0477 420.189 Q57.1264 415.583 62.9365 415.583 Z" fill="#000000" fill-rule="nonzero" fill-opacity="1" /><path clip-path="url(#clip040)" d="M83.0984 444.888 L87.9827 444.888 L87.9827 450.768 L83.0984 450.768 L83.0984 444.888 Z" fill="#000000" fill-rule="nonzero" fill-opacity="1" /><path clip-path="url(#clip040)" d="M102.196 446.833 L118.515 446.833 L118.515 450.768 L96.5706 450.768 L96.5706 446.833 Q99.2326 444.078 103.816 439.448 Q108.422 434.796 109.603 433.453 Q111.848 430.93 112.728 429.194 Q113.631 427.435 113.631 425.745 Q113.631 422.99 111.686 421.254 Q109.765 419.518 106.663 419.518 Q104.464 419.518 102.01 420.282 Q99.5798 421.046 96.8021 422.597 L96.8021 417.875 Q99.6261 416.74 102.08 416.162 Q104.534 415.583 106.571 415.583 Q111.941 415.583 115.135 418.268 Q118.33 420.953 118.33 425.444 Q118.33 427.574 117.52 429.495 Q116.733 431.393 114.626 433.986 Q114.047 434.657 110.946 437.874 Q107.844 441.069 102.196 446.833 Z" fill="#000000" fill-rule="nonzero" fill-opacity="1" /><path clip-path="url(#clip040)" d="M138.33 419.287 Q134.719 419.287 132.89 422.851 Q131.084 426.393 131.084 433.523 Q131.084 440.629 132.89 444.194 Q134.719 447.735 138.33 447.735 Q141.964 447.735 143.769 444.194 Q145.598 440.629 145.598 433.523 Q145.598 426.393 143.769 422.851 Q141.964 419.287 138.33 419.287 M138.33 415.583 Q144.14 415.583 147.195 420.189 Q150.274 424.773 150.274 433.523 Q150.274 442.249 147.195 446.856 Q144.14 451.439 138.33 451.439 Q132.519 451.439 129.441 446.856 Q126.385 442.249 126.385 433.523 Q126.385 424.773 129.441 420.189 Q132.519 415.583 138.33 415.583 Z" fill="#000000" fill-rule="nonzero" fill-opacity="1" /><path clip-path="url(#clip040)" d="M63.9319 125.966 Q60.3208 125.966 58.4921 129.531 Q56.6865 133.072 56.6865 140.202 Q56.6865 147.308 58.4921 150.873 Q60.3208 154.415 63.9319 154.415 Q67.5661 154.415 69.3717 150.873 Q71.2004 147.308 71.2004 140.202 Q71.2004 133.072 69.3717 129.531 Q67.5661 125.966 63.9319 125.966 M63.9319 122.262 Q69.742 122.262 72.7976 126.869 Q75.8763 131.452 75.8763 140.202 Q75.8763 148.929 72.7976 153.535 Q69.742 158.119 63.9319 158.119 Q58.1217 158.119 55.043 153.535 Q51.9875 148.929 51.9875 140.202 Q51.9875 131.452 55.043 126.869 Q58.1217 122.262 63.9319 122.262 Z" fill="#000000" fill-rule="nonzero" fill-opacity="1" /><path clip-path="url(#clip040)" d="M84.0938 151.568 L88.978 151.568 L88.978 157.447 L84.0938 157.447 L84.0938 151.568 Z" fill="#000000" fill-rule="nonzero" fill-opacity="1" /><path clip-path="url(#clip040)" d="M103.191 153.512 L119.51 153.512 L119.51 157.447 L97.566 157.447 L97.566 153.512 Q100.228 150.758 104.811 146.128 Q109.418 141.475 110.598 140.133 Q112.844 137.609 113.723 135.873 Q114.626 134.114 114.626 132.424 Q114.626 129.67 112.682 127.934 Q110.76 126.197 107.658 126.197 Q105.459 126.197 103.006 126.961 Q100.575 127.725 97.7974 129.276 L97.7974 124.554 Q100.621 123.42 103.075 122.841 Q105.529 122.262 107.566 122.262 Q112.936 122.262 116.131 124.948 Q119.325 127.633 119.325 132.123 Q119.325 134.253 118.515 136.174 Q117.728 138.072 115.621 140.665 Q115.043 141.336 111.941 144.554 Q108.839 147.748 103.191 153.512 Z" fill="#000000" fill-rule="nonzero" fill-opacity="1" /><path clip-path="url(#clip040)" d="M129.371 122.887 L147.728 122.887 L147.728 126.822 L133.654 126.822 L133.654 135.295 Q134.672 134.947 135.691 134.785 Q136.709 134.6 137.728 134.6 Q143.515 134.6 146.894 137.772 Q150.274 140.943 150.274 146.359 Q150.274 151.938 146.802 155.04 Q143.33 158.119 137.01 158.119 Q134.834 158.119 132.566 157.748 Q130.32 157.378 127.913 156.637 L127.913 151.938 Q129.996 153.072 132.219 153.628 Q134.441 154.183 136.918 154.183 Q140.922 154.183 143.26 152.077 Q145.598 149.971 145.598 146.359 Q145.598 142.748 143.26 140.642 Q140.922 138.535 136.918 138.535 Q135.043 138.535 133.168 138.952 Q131.316 139.369 129.371 140.248 L129.371 122.887 Z" fill="#000000" fill-rule="nonzero" fill-opacity="1" /><polyline clip-path="url(#clip042)" style="stroke:#009af9; stroke-linecap:round; stroke-linejoin:round; stroke-width:4; stroke-opacity:1; fill:none" points="1242.99,146.283 1207.72,146.405 1172.56,146.518 1137.55,146.624 1102.71,146.722 1068.1,146.812 1033.76,146.894 999.717,146.967 966.016,147.032 932.692,147.089 899.785,147.137 881.438,147.161 867.33,147.177 844.187,147.201 835.363,147.209 807.626,147.23 803.921,147.232 773.037,147.247 771.811,147.248 742.747,147.254 736.793,147.255 713.082,147.253 702.626,147.25 684.077,147.243 669.359,147.235 655.763,147.225 637.043,147.209 628.172,147.199 605.723,147.172 601.333,147.165 575.449,147.124 575.276,147.123 550.031,147.074 546.263,147.065 525.624,147.016 518.209,146.997 502.084,146.951 491.329,146.918 479.436,146.878 465.664,146.828 457.705,146.798 441.251,146.729 436.916,146.71 418.128,146.62 417.092,146.615 398.255,146.513 396.329,146.502 380.427,146.404 375.888,146.374 363.628,146.288 356.835,146.237 347.877,146.165 339.201,146.091 333.193,146.036 323.013,145.937 319.593,145.901 308.297,145.773 307.093,145.759 295.708,145.611 295.076,145.602 285.452,145.457 283.373,145.423 276.337,145.298 273.205,145.236 268.375,145.133 264.592,145.043 261.577,144.962 257.548,144.842 257.436,144.837 255.951,144.787 252.086,144.634 251.507,144.606 248.249,144.424 248.218,144.423 248.821,143.506 249.925,143.431 252.917,143.266 253.006,143.262 253.864,143.22 258.803,143.015 259.004,143.007 265.339,142.79 266.206,142.763 272.866,142.571 275.208,142.508 281.578,142.348 285.799,142.249 289.119,142.175 291.468,142.124 297.967,141.988 302.526,141.897 311.697,141.723 314.744,141.667 326.971,141.456 328.109,141.436 342.608,141.204 343.77,141.186 358.228,140.97 362.072,140.915 374.952,140.735 381.853,140.642 392.764,140.499 403.085,140.368 411.646,140.262 425.739,140.093 431.578,140.025 449.783,139.818 452.539,139.788 474.507,139.55 475.184,139.543 497.458,139.313 501.904,139.269 521.368,139.077 529.905,138.995 546.211,138.842 559.146,138.723 571.959,138.607 589.583,138.452 598.583,138.374 621.171,138.183 626.054,138.142 653.862,137.917 654.341,137.913 683.411,137.685 687.606,137.653 713.232,137.46 722.35,137.393 743.768,137.237 758.042,137.136 774.985,137.018 794.625,136.884 806.845,136.801 832.04,136.635 839.31,136.588 870.229,136.392 872.344,136.379 905.904,136.174 939.952,135.973 974.446,135.776 1009.34,135.584 1044.6,135.397 1080.18,135.216 1116.03,135.04 1152.1,134.869 1188.36,134.705 1224.76,134.548 1261.24,134.396 1297.77,134.252 1334.29,134.114 1370.77,133.984 1407.14,133.861 1443.37,133.746 1479.4,133.639 1515.2,133.539 1550.7,133.448 1585.87,133.366 1620.65,133.292 1622.85,133.287 1655.01,133.226 1662.58,133.213 1688.88,133.17 1701.67,133.151 1722.24,133.123 1740.02,133.101 1755.03,133.084 1777.59,133.063 1787.21,133.055 1814.29,133.038 1818.73,133.036 1849.55,133.025 1850.06,133.025 1879.63,133.024 1884.83,133.025 1908.93,133.033 1918.54,133.038 1937.4,133.051 1951.13,133.064 1965.02,133.079 1982.54,133.103 1991.73,133.117 2012.71,133.154 2017.51,133.164 2041.58,133.218 2042.31,133.22 2066.11,133.286 2069.1,133.295 2088.87,133.361 2095.22,133.385 2110.56,133.446 2119.89,133.487 2131.15,133.54 2143.07,133.601 2150.61,133.643 2164.71,133.728 2168.92,133.755 2184.77,133.867 2186.05,133.876 2201.97,134.006 2203.23,134.017 2216.68,134.145 2220.03,134.179 2230.14,134.291 2235.17,134.352 2242.34,134.446 2244.93,134.482 2248.6,134.536 2253.26,134.609 2260.3,134.731 2262.9,134.779 2270.27,134.935 2271.23,134.958 2278.25,135.143 2278.47,135.15 2283.95,135.335 2284.9,135.373 2285,135.378 2288.32,135.534 2289.55,135.607 2291.37,135.741 2290.26,136.616 2290.23,136.617 2286.63,136.849 2285.99,136.883 2281.72,137.087 2280.07,137.155 2279.95,137.16 2275.5,137.327 2272.16,137.44 2267.98,137.572 2262.65,137.725 2259.19,137.819 2251.43,138.016 2249.13,138.07 2238.52,138.309 2237.82,138.324 2225.28,138.58 2223.96,138.606 2211.53,138.837 2207.77,138.905 2196.58,139.097 2189.99,139.205 2180.47,139.357 2170.65,139.508 2163.22,139.618 2149.8,139.811 2144.84,139.88 2127.48,140.114 2125.38,140.142 2104.85,140.403 2103.72,140.417 2083.29,140.664 2078.58,140.719 2060.73,140.923 2052.1,141.019 2037.19,141.181 2024.34,141.317 2012.72,141.438 1995.34,141.613 1987.35,141.692 1965.16,141.906 1961.11,141.944 1934.04,142.193 1933.85,142.194 1906.17,142.439 1901.48,142.479 1877.54,142.681 1868.1,142.759 1848.19,142.92 1833.76,143.034 1818.16,143.155 1798.54,143.303 1787.49,143.385 1762.49,143.566 1756.22,143.611 1725.68,143.823 1724.39,143.832 1692.04,144.048 1688.16,144.073 1659.2,144.258 1650.01,144.316 1625.93,144.463 1611.28,144.551 1592.26,144.662 1558.24,144.855 1523.9,145.041 1489.29,145.221 1454.46,145.394 1419.44,145.56 1384.27,145.72 1349,145.872 1313.67,146.016 1278.32,146.153 1242.99,146.283 "/>
<polyline clip-path="url(#clip042)" style="stroke:#e26f46; stroke-linecap:round; stroke-linejoin:round; stroke-width:4; stroke-opacity:1; fill:none" points="977.915,357.943 954.796,358.14 932.011,358.26 909.548,358.304 887.395,358.272 865.542,358.164 843.978,357.979 822.695,357.718 801.684,357.379 780.937,356.963 760.45,356.468 749.016,356.153 740.215,355.892 725.753,355.426 720.23,355.235 702.822,354.587 700.491,354.495 680.996,353.671 680.219,353.636 661.746,352.76 657.944,352.568 642.74,351.761 635.999,351.382 623.981,350.672 614.387,350.074 605.474,349.491 593.115,348.639 587.222,348.215 572.193,347.078 569.233,346.844 551.634,345.384 551.516,345.374 534.08,343.805 531.453,343.557 516.938,342.133 511.668,341.592 500.103,340.358 492.302,339.488 483.59,338.479 473.379,337.244 467.415,336.494 454.928,334.855 451.599,334.402 436.978,332.328 436.161,332.208 421.124,329.905 419.564,329.656 406.51,327.501 402.723,326.848 392.345,324.992 386.493,323.902 378.655,322.388 370.917,320.828 365.466,319.688 356.037,317.628 352.809,316.898 341.898,314.318 340.71,314.024 329.2,311.075 328.545,310.901 318.309,308.059 316.026,307.393 308.065,304.98 304.384,303.811 298.498,301.857 293.667,300.165 289.637,298.691 283.917,296.486 283.751,296.419 281.51,295.504 275.178,292.782 274.143,292.311 267.562,289.108 267.489,289.073 261.791,285.927 260.889,285.386 256.851,282.778 255.41,281.748 253.89,280.582 252.765,279.657 251.085,278.161 249.55,276.607 247.941,274.65 247.615,261.762 249.359,259.95 250.676,258.87 251.786,258.065 252.607,257.519 255.015,256.11 256.809,255.197 260.639,253.498 261.97,252.974 267.553,251.021 268.091,250.852 275.174,248.822 275.759,248.67 283.22,246.882 285.258,246.436 292.229,245.021 296.05,244.304 302.201,243.228 308.135,242.261 313.135,241.495 321.51,240.29 325.029,239.81 336.174,238.372 337.882,238.161 351.692,236.538 352.123,236.489 366.458,234.926 369.355,234.622 382.175,233.316 387.866,232.753 398.844,231.694 407.652,230.865 416.46,230.051 428.708,228.94 435.021,228.375 451.031,226.962 454.523,226.656 474.615,224.915 474.964,224.885 496.34,223.054 499.455,222.788 518.647,221.154 525.543,220.567 541.88,219.179 552.874,218.244 566.034,217.123 581.438,215.809 591.103,214.982 611.226,213.255 617.081,212.751 642.228,210.579 643.962,210.429 671.736,208.012 700.395,205.501 729.928,202.896 760.325,200.198 791.572,197.41 823.655,194.536 856.559,191.579 890.267,188.546 924.757,185.444 960.01,182.281 996.001,179.066 1032.7,175.808 1070.09,172.521 1108.13,169.215 1146.79,165.905 1186.02,162.606 1225.8,159.334 1266.07,156.105 1306.79,152.939 1347.9,149.854 1389.35,146.871 1391.99,146.685 1431.07,144.01 1440.38,143.393 1473.01,141.295 1489.04,140.302 1515.08,138.746 1537.83,137.448 1557.21,136.389 1586.66,134.867 1599.33,134.245 1635.37,132.595 1641.33,132.34 1683.13,130.695 1683.83,130.67 1724.63,129.336 1731.87,129.129 1765.71,128.284 1779.34,128.005 1806.27,127.562 1826.04,127.333 1846.18,127.188 1871.8,127.142 1885.32,127.184 1916.4,127.462 1923.55,127.564 1959.64,128.314 1960.74,128.344 1996.74,129.535 2001.28,129.719 2031.4,131.146 2041.1,131.688 2064.57,133.182 2078.86,134.229 2096.09,135.644 2114.31,137.342 2125.81,138.531 2147.21,141.019 2153.57,141.835 2177.32,145.246 2179.21,145.546 2202.59,149.649 2204.4,150.002 2223.56,154.126 2228.24,155.257 2241.99,158.954 2248.62,160.975 2257.75,164.107 2260.95,165.319 2265.36,167.114 2270.74,169.554 2278.3,173.628 2280.87,175.265 2287.33,180.461 2288.06,181.206 2289.69,183.087 2290.31,202.327 2290.14,202.582 2286.87,206.536 2283.28,209.879 2279.14,213.076 2276.29,215.025 2272.35,217.471 2268.55,219.628 2257.68,225.047 2255.21,226.158 2239.43,232.56 2239.23,232.636 2220.76,239.033 2217.84,239.966 2199.96,245.324 2193.62,247.095 2193.15,247.224 2176.99,251.486 2165.63,254.301 2152.05,257.499 2135.58,261.167 2125.33,263.347 2103.29,267.799 2097.01,269.015 2069.07,274.178 2067.3,274.493 2036.38,279.772 2033.22,280.291 2004.44,284.845 1996.02,286.126 1971.67,289.71 1957.75,291.682 1938.22,294.363 1918.68,296.953 1904.26,298.807 1879.02,301.942 1869.93,303.039 1839.01,306.651 1835.37,307.065 1800.69,310.887 1798.84,311.086 1766.01,314.51 1758.66,315.255 1731.43,317.939 1718.63,319.165 1697.02,321.182 1678.87,322.826 1662.85,324.241 1639.49,326.246 1629,327.125 1600.57,329.438 1595.5,329.84 1562.41,332.391 1562.18,332.408 1529.75,334.788 1524.38,335.17 1497.55,337.034 1487.21,337.731 1465.84,339.136 1450.69,340.103 1434.63,341.102 1414.85,342.294 1403.92,342.935 1379.7,344.312 1373.73,344.642 1345.23,346.166 1344.05,346.228 1314.88,347.697 1311.45,347.864 1286.22,349.056 1278.35,349.413 1258.06,350.307 1245.92,350.82 1230.38,351.455 1203.19,352.504 1176.46,353.456 1150.19,354.316 1124.37,355.086 1098.97,355.769 1073.98,356.367 1049.4,356.882 1025.2,357.315 1001.38,357.668 977.915,357.943 "/>
<polyline clip-path="url(#clip042)" style="stroke:#3da44d; stroke-linecap:round; stroke-linejoin:round; stroke-width:4; stroke-opacity:1; fill:none" points="877.617,571.037 861.596,570.973 845.798,570.848 830.202,570.661 814.788,570.412 799.536,570.098 784.428,569.719 769.445,569.273 754.572,568.758 739.793,568.17 725.091,567.508 716.837,567.1 710.455,566.766 699.915,566.18 695.871,565.942 683.051,565.144 681.326,565.031 666.809,564.026 666.227,563.984 652.311,562.924 649.428,562.692 637.823,561.716 632.64,561.256 623.337,560.395 615.851,559.667 608.848,558.955 599.054,557.909 594.349,557.385 582.243,555.97 579.839,555.677 565.415,553.833 565.317,553.82 550.783,551.801 548.571,551.479 536.242,549.611 531.719,548.892 521.699,547.233 514.867,546.047 507.163,544.656 498.034,542.926 492.648,541.862 481.24,539.499 478.168,538.838 464.515,535.746 463.745,535.564 449.401,532.027 447.896,531.638 435.165,528.208 431.427,527.15 421.071,524.089 415.16,522.255 407.157,519.659 399.158,516.928 393.463,514.899 383.49,511.154 380.039,509.797 368.233,504.911 366.934,504.348 354.205,498.542 353.473,498.192 341.908,492.387 339.298,491.001 330.105,485.882 325.804,483.349 318.856,479.048 313.085,475.262 308.221,471.902 301.234,466.781 301.03,466.625 298.262,464.484 290.343,457.965 289.033,456.826 280.587,448.988 280.493,448.896 272.971,441.025 271.758,439.657 266.226,432.996 264.2,430.353 260.385,424.988 257.87,421.097 255.476,417.062 252.806,412.005 251.519,409.287 249.087,403.343 249.03,403.186 248.525,401.741 247.59,370.563 248.089,369.314 249.645,366.14 250.867,364.108 253.598,360.455 254.575,359.348 258.476,355.619 258.788,355.358 259.201,355.019 264.732,351.098 265.195,350.813 271.157,347.556 272.801,346.772 278.465,344.357 281.59,343.182 286.646,341.464 291.546,339.978 295.691,338.834 302.659,337.097 305.595,336.425 314.917,334.474 316.349,334.195 327.951,332.106 328.314,332.044 340.396,330.116 342.843,329.748 353.682,328.19 358.501,327.528 367.809,326.293 375.287,325.333 382.774,324.393 393.201,323.114 398.58,322.464 412.243,320.831 415.227,320.477 432.417,318.447 432.716,318.412 451.051,316.246 453.726,315.929 470.234,313.962 476.175,313.25 490.267,311.546 499.766,310.386 511.153,308.982 524.506,307.317 532.897,306.261 550.398,304.029 555.499,303.372 577.448,300.509 578.964,300.309 603.293,297.065 628.489,293.637 654.552,290.022 681.484,286.219 709.285,282.228 737.953,278.051 767.487,273.692 797.883,269.155 829.138,264.447 861.246,259.576 894.199,254.552 927.989,249.386 962.606,244.092 998.035,238.686 1034.26,233.185 1071.27,227.611 1109.05,221.986 1147.56,216.337 1186.79,210.692 1226.7,205.084 1267.27,199.55 1269.87,199.202 1308.46,194.13 1317.7,192.944 1350.22,188.866 1366.29,186.91 1392.52,183.807 1415.58,181.179 1435.31,179.007 1465.47,175.834 1478.52,174.52 1515.89,170.967 1522.1,170.408 1565.98,166.736 1566.71,166.678 1610.07,163.572 1617.83,163.074 1654.3,160.988 1669.1,160.266 1698.56,159.058 1720.38,158.37 1742.75,157.858 1771.47,157.504 1786.74,157.463 1822.18,157.786 1830.4,157.948 1872.28,159.327 1873.57,159.385 1916.08,161.839 1921.5,162.232 1957.74,165.369 1969.53,166.591 1998.33,170.023 2016.04,172.473 2037.61,175.836 2060.64,179.927 2075.32,182.827 2102.9,188.966 2111.17,190.999 2142.33,199.574 2144.84,200.333 2175.99,210.788 2178.43,211.693 2204.28,222.304 2210.62,225.225 2229.32,234.794 2238.34,240.035 2250.75,248.153 2255.08,251.295 2261.01,255.946 2268.2,262.257 2278.07,272.755 2281.32,276.965 2282.71,278.945 2289.01,290.229 2289.8,292.125 2291.44,296.884 2290.98,326.189 2290.88,326.515 2285.19,338.728 2281.59,344.186 2273.32,354.119 2265.27,361.886 2256.37,369.204 2250.37,373.614 2242.26,379.088 2234.55,383.863 2212.99,395.625 2208.18,397.994 2178.05,411.362 2177.68,411.516 2143.5,424.368 2138.19,426.2 2106.19,436.507 2095.06,439.835 2094.23,440.076 2066.31,447.91 2047.04,452.957 2024.4,458.567 1997.49,464.838 1981.03,468.483 1946.4,475.738 1936.71,477.675 1894.53,485.689 1891.9,486.168 1847.01,493.992 1842.52,494.742 1802.4,501.183 1790.92,502.949 1758.37,507.78 1740.19,510.371 1715.15,513.822 1690.66,517.07 1672.93,519.348 1642.58,523.109 1631.85,524.399 1596.13,528.545 1592,529.011 1553.44,533.22 1551.41,533.434 1516.21,537.06 1508.47,537.831 1480.31,540.562 1467.33,541.781 1445.74,543.755 1427.95,545.332 1412.47,546.666 1390.29,548.519 1380.46,549.318 1354.28,551.382 1349.68,551.736 1320.06,553.937 1319.86,553.951 1291.55,555.941 1286.94,556.255 1264.11,557.765 1255.42,558.321 1237.67,559.423 1225.23,560.169 1212.18,560.928 1196.28,561.82 1187.58,562.293 1168.48,563.292 1163.82,563.528 1141.75,564.6 1140.85,564.642 1118.61,565.646 1116.01,565.758 1097.06,566.545 1091.19,566.777 1076.16,567.347 1067.22,567.668 1055.85,568.058 1036.1,568.683 1016.87,569.227 998.121,569.694 979.818,570.087 961.928,570.41 944.418,570.664 927.26,570.853 910.425,570.977 893.886,571.038 877.617,571.037 "/>
<polyline clip-path="url(#clip042)" style="stroke:#c271d2; stroke-linecap:round; stroke-linejoin:round; stroke-width:4; stroke-opacity:1; fill:none" points="803.646,879.848 794.301,879.679 785.047,879.483 775.865,879.261 766.739,879.01 757.65,878.731 748.581,878.421 739.516,878.079 730.438,877.703 721.331,877.291 712.178,876.841 706.993,876.569 702.961,876.349 696.255,875.965 693.666,875.811 685.394,875.297 684.273,875.224 674.767,874.584 674.383,874.557 665.129,873.884 663.194,873.737 655.342,873.119 651.799,872.828 645.385,872.282 640.168,871.818 635.241,871.364 628.272,870.694 624.89,870.357 616.08,869.439 614.312,869.248 603.559,868.036 603.486,868.028 592.392,866.679 590.679,866.462 581.01,865.186 577.407,864.689 569.318,863.528 563.712,862.686 557.298,861.684 549.564,860.416 544.931,859.624 534.936,857.83 532.201,857.318 519.805,854.875 519.094,854.729 505.6,851.812 504.156,851.484 491.717,848.517 487.984,847.575 477.448,844.782 471.298,843.053 462.807,840.538 454.126,837.802 447.821,835.704 436.52,831.686 432.531,830.184 418.568,824.546 417,823.874 401.311,816.656 400.39,816.202 385.571,808.398 382.155,806.451 369.913,798.966 364.074,795.088 354.495,788.231 346.405,781.909 339.496,776.072 329.435,766.748 329.138,766.456 325.109,762.399 313.471,749.511 311.531,747.172 298.949,730.42 298.809,730.216 287.531,712.262 285.709,709.038 277.406,692.912 274.371,686.33 268.665,672.689 264.915,662.613 261.352,651.99 257.384,638.544 255.47,631.257 251.835,615.247 251.75,614.827 250.987,610.941 247.934,592.134 247.845,591.469 248.555,520.122 249.646,515.538 252.119,507.508 253.01,505.14 256.578,497.388 256.863,496.86 257.242,496.176 262.302,488.494 262.725,487.952 268.158,481.934 269.652,480.533 274.784,476.334 277.607,474.354 282.16,471.541 286.56,469.182 290.271,467.411 296.491,464.802 299.105,463.815 307.386,461.026 308.655,460.637 318.917,457.777 319.237,457.695 329.889,455.147 332.042,454.669 341.57,452.671 345.799,451.834 353.962,450.286 360.513,449.093 367.068,447.935 376.19,446.367 380.894,445.573 392.836,443.589 395.443,443.161 410.461,440.706 410.722,440.664 426.738,438.054 429.075,437.673 443.498,435.309 448.69,434.452 461.01,432.407 469.317,431.015 479.28,429.331 490.969,427.335 498.318,426.068 513.656,423.393 518.13,422.605 537.392,419.171 538.723,418.931 560.106,415.038 582.285,410.918 605.267,406.566 629.056,401.976 653.659,397.144 679.078,392.067 705.319,386.742 732.382,381.169 760.27,375.346 788.981,369.275 818.516,362.957 848.87,356.396 880.041,349.596 912.021,342.564 944.805,335.308 978.383,327.838 1012.74,320.17 1047.88,312.32 1083.77,304.308 1120.4,296.161 1157.75,287.91 1160.15,287.384 1195.81,279.593 1204.36,277.739 1234.55,271.254 1249.49,268.08 1273.94,262.947 1295.49,258.496 1313.98,254.736 1342.32,249.094 1354.61,246.696 1389.94,240.004 1395.83,238.917 1437.59,231.502 1438.29,231.382 1479.87,224.573 1487.34,223.416 1522.62,218.268 1537.02,216.326 1565.82,212.749 1587.27,210.371 1609.41,208.199 1638.03,205.85 1653.36,204.823 1689.22,203.104 1697.6,202.85 1740.74,202.513 1742.09,202.53 1786.74,204.134 1792.5,204.495 1831.48,207.944 1844.35,209.489 1876.2,214.247 1896.12,217.942 1920.76,223.326 1947.59,230.279 1965,235.436 1998.46,246.872 2008.7,250.796 2048.31,267.99 2051.57,269.556 2093.25,291.779 2096.59,293.752 2133.24,317.413 2142.56,324.078 2170.94,346.276 2185.2,358.645 2205.56,378.037 2212.9,385.607 2223.21,396.867 2236.14,412.22 2254.95,437.9 2261.53,448.217 2278.46,480.687 2280.39,485.311 2284.69,496.901 2291.32,522.729 2283.89,595.415 2278.02,607.614 2277.28,608.962 2263.49,629.307 2248.53,645.763 2231.44,660.841 2219.72,669.71 2203.65,680.487 2188.25,689.671 2144.85,711.394 2135.17,715.611 2074.81,738.371 2074.05,738.623 2007.18,758.795 1996.99,761.534 1936.91,776.304 1916.56,780.84 1915.07,781.164 1865.45,791.383 1832.38,797.639 1794.7,804.296 1751.58,811.373 1726.09,815.311 1674.55,822.776 1660.62,824.687 1602.43,832.227 1598.93,832.659 1541.31,839.441 1535.75,840.062 1487.83,845.214 1474.64,846.566 1438.4,850.139 1418.89,851.978 1392.83,854.348 1368.19,856.496 1350.85,857.955 1322.09,860.28 1312.18,861.054 1280.16,863.46 1276.54,863.723 1243.64,866.029 1241.95,866.143 1213.22,868.025 1207.05,868.414 1185.02,869.757 1175.07,870.341 1158.83,871.264 1145.68,871.982 1134.43,872.576 1118.58,873.381 1111.65,873.721 1093.48,874.576 1090.33,874.72 1070.3,875.593 1070.17,875.598 1051.45,876.355 1048.43,876.472 1033.65,877.02 1028.09,877.217 1016.81,877.6 1008.98,877.852 1000.82,878.103 990.972,878.39 985.612,878.539 973.935,878.844 971.1,878.914 957.767,879.222 957.221,879.234 943.914,879.505 942.369,879.534 931.125,879.731 927.659,879.786 918.803,879.915 913.56,879.984 906.905,880.062 895.389,880.173 884.218,880.251 873.357,880.298 862.776,880.315 852.444,880.303 842.336,880.265 832.424,880.199 822.687,880.108 813.101,879.991 803.646,879.848 "/>
<polyline clip-path="url(#clip042)" style="stroke:#ac8d18; stroke-linecap:round; stroke-linejoin:round; stroke-width:4; stroke-opacity:1; fill:none" points="775.933,1114.34 770.189,1114.22 764.478,1114.08 758.788,1113.94 753.105,1113.79 747.418,1113.62 741.714,1113.45 735.98,1113.26 730.203,1113.06 724.371,1112.84 718.468,1112.61 715.106,1112.48 712.481,1112.37 708.096,1112.18 706.396,1112.1 700.938,1111.85 700.195,1111.81 693.864,1111.51 693.607,1111.49 687.382,1111.17 686.073,1111.1 680.733,1110.81 678.308,1110.67 673.894,1110.42 670.278,1110.2 666.843,1109.99 661.947,1109.67 659.556,1109.52 653.275,1109.09 652.006,1109 644.218,1108.44 644.164,1108.43 635.999,1107.8 634.726,1107.7 627.474,1107.1 624.743,1106.87 618.551,1106.32 614.208,1105.92 609.187,1105.45 603.053,1104.84 599.335,1104.46 591.199,1103.59 588.944,1103.34 578.561,1102.13 577.957,1102.05 566.313,1100.58 565.046,1100.41 553.947,1098.88 550.551,1098.38 540.789,1096.89 534.967,1095.95 526.77,1094.55 518.187,1093 511.819,1091.78 500.106,1089.38 495.875,1088.46 480.643,1084.89 478.891,1084.45 460.845,1079.57 459.757,1079.26 441.763,1073.57 437.485,1072.09 421.736,1066.13 413.99,1062.88 400.947,1056.84 389.611,1050.94 379.703,1045.2 364.92,1035.43 364.478,1035.11 358.446,1030.61 340.734,1015.35 337.748,1012.42 318.262,990.037 318.044,989.748 300.628,963.064 297.845,958 285.357,931.546 280.9,920.257 272.739,896.11 267.563,877.737 262.817,857.996 257.763,832.676 255.43,818.866 251.226,788.582 251.132,787.792 250.297,780.485 247.876,641.291 248.423,636.837 250.092,625.91 251.376,619.282 254.174,607.99 255.156,604.738 259,594.334 259.302,593.638 259.702,592.74 264.968,582.849 265.402,582.164 270.921,574.673 272.422,572.957 277.539,567.873 280.331,565.504 284.807,562.165 289.105,559.386 292.714,557.311 298.734,554.265 301.255,553.116 309.211,549.873 310.427,549.42 320.232,546.092 320.537,545.997 330.67,543.027 332.714,542.47 341.747,540.138 345.75,539.16 353.467,537.353 359.653,535.964 365.837,534.617 374.433,532.798 378.863,531.88 390.103,529.596 392.555,529.105 406.675,526.306 406.92,526.258 421.967,523.313 424.162,522.885 437.705,520.247 442.58,519.298 454.143,517.041 461.941,515.515 471.291,513.679 482.259,511.514 489.156,510.146 503.55,507.272 507.748,506.429 525.825,502.772 527.075,502.518 547.145,498.403 567.965,494.073 589.543,489.522 611.884,484.741 634.992,479.722 658.873,474.459 683.528,468.944 708.96,463.17 735.168,457.131 762.151,450.821 789.907,444.233 818.431,437.363 847.717,430.204 877.757,422.751 908.54,415.002 940.054,406.952 972.287,398.601 1005.22,389.947 1038.84,380.993 1073.12,371.744 1108.04,362.208 1110.28,361.593 1143.59,352.398 1151.57,350.181 1179.72,342.334 1193.65,338.434 1216.42,332.04 1236.47,326.396 1253.66,321.552 1279.99,314.13 1291.41,310.916 1324.17,301.72 1329.63,300.193 1368.31,289.461 1368.96,289.282 1407.41,278.82 1414.31,276.97 1446.89,268.397 1460.18,264.986 1486.75,258.351 1506.53,253.594 1526.94,248.882 1553.32,243.133 1567.45,240.237 1600.53,234.037 1608.27,232.719 1648.13,226.853 1649.37,226.698 1690.76,222.617 1696.11,222.259 1732.43,221.003 1744.47,221.08 1774.39,222.468 1793.22,224.297 1816.66,227.708 1842.4,233.035 1859.25,237.488 1892.02,248.525 1902.17,252.617 1942.1,272.023 1945.44,273.896 1989.03,302.044 1992.61,304.673 2032.86,337.6 2043.43,347.303 2076.75,380.801 2094.24,400.178 2120.35,431.453 2130.15,443.93 2144.35,462.739 2163,488.824 2192.39,533.402 2203.55,551.585 2235.93,609.528 2240.16,617.84 2250.29,638.71 2270.01,685.256 2270.89,687.613 2280.96,717.757 2289.14,751.304 2291.19,763.748 2291.38,765.077 2288.97,834.218 2288.4,836.478 2274.93,869.995 2256.4,896.159 2232.33,919.268 2214.61,932.432 2189.19,947.967 2163.95,960.779 2090.12,989.398 2073.39,994.662 1969.27,1021.33 1967.99,1021.6 1856.55,1042.61 1840.14,1045.27 1746.87,1058.79 1716.73,1062.66 1714.55,1062.93 1644.31,1071.16 1599.91,1075.87 1551.65,1080.61 1499.3,1085.36 1469.73,1087.86 1412.88,1092.35 1398.15,1093.45 1339.36,1097.56 1335.95,1097.79 1281.94,1101.19 1276.92,1101.48 1234.93,1103.87 1223.76,1104.47 1193.86,1106 1178.22,1106.76 1157.79,1107.72 1138.95,1108.55 1125.95,1109.1 1104.82,1109.95 1097.65,1110.23 1074.91,1111.06 1072.38,1111.15 1049.66,1111.9 1048.51,1111.94 1029.12,1112.53 1025.01,1112.65 1010.46,1113.04 1003.96,1113.21 993.42,1113.47 984.962,1113.67 977.771,1113.83 967.706,1114.03 963.336,1114.12 951.934,1114.33 949.962,1114.36 937.515,1114.56 937.434,1114.56 925.884,1114.72 924.031,1114.75 914.974,1114.85 911.575,1114.89 904.7,1114.96 899.942,1115 894.992,1115.04 889.026,1115.07 885.785,1115.09 878.736,1115.13 877.027,1115.13 868.995,1115.16 868.667,1115.16 860.663,1115.17 859.735,1115.17 852.978,1115.16 850.897,1115.16 845.578,1115.15 842.429,1115.14 838.432,1115.12 831.512,1115.08 824.794,1115.03 818.256,1114.98 811.876,1114.91 805.635,1114.84 799.515,1114.76 793.501,1114.67 787.575,1114.57 781.724,1114.46 775.933,1114.34 "/>
<polyline clip-path="url(#clip042)" style="stroke:#00a9ad; stroke-linecap:round; stroke-linejoin:round; stroke-width:4; stroke-opacity:1; fill:none" points="764.523,1445.04 762.789,1445.02 761.056,1445 759.319,1444.97 757.573,1444.95 755.816,1444.93 754.041,1444.9 752.244,1444.88 750.421,1444.85 748.566,1444.83 746.675,1444.8 745.59,1444.78 744.74,1444.77 743.312,1444.75 742.756,1444.74 740.961,1444.71 740.715,1444.71 738.611,1444.67 738.525,1444.67 736.434,1444.64 735.992,1444.63 734.176,1444.6 733.346,1444.59 731.826,1444.56 730.571,1444.54 729.371,1444.52 727.648,1444.49 726.8,1444.48 724.553,1444.43 724.095,1444.43 721.261,1444.37 721.241,1444.37 718.216,1444.32 717.74,1444.31 714.997,1444.25 713.952,1444.23 711.557,1444.18 709.854,1444.15 707.861,1444.11 705.391,1444.06 703.873,1444.02 700.495,1443.95 699.544,1443.93 695.083,1443.83 694.819,1443.82 689.627,1443.7 689.049,1443.68 683.883,1443.55 682.26,1443.51 677.48,1443.38 674.54,1443.3 670.281,1443.18 665.659,1443.05 662.114,1442.95 655.307,1442.73 652.749,1442.65 643.056,1442.32 641.889,1442.28 629.127,1441.81 628.311,1441.78 613.913,1441.19 610.212,1441.02 595.481,1440.33 587.504,1439.92 572.755,1439.1 558.33,1438.2 544.237,1437.22 520.011,1435.27 519.217,1435.2 507.942,1434.16 469.192,1429.7 461.7,1428.65 404.949,1417.67 404.236,1417.49 343.765,1393.71 333.966,1387.37 293.883,1342.69 282.209,1317.73 271.841,1284.66 265.46,1255.22 257.835,1202.82 252.607,1145.67 248.799,1079.4 248.617,1075.25 248.888,791.687 249.628,782.714 251.748,762.95 253.217,752.626 254.398,745.657 255.246,741.23 257.632,730.727 259.334,724.583 262.815,714.462 263.986,711.618 268.739,702.103 269.185,701.344 274.924,693.051 275.388,692.48 281.199,686.225 282.757,684.786 288.011,680.49 290.847,678.463 295.362,675.568 299.664,673.115 303.255,671.252 309.213,668.458 311.698,667.384 319.505,664.286 320.695,663.845 330.255,660.541 330.552,660.445 340.386,657.4 342.366,656.82 351.097,654.365 354.96,653.325 362.396,651.389 368.349,649.891 374.293,648.435 382.548,646.465 386.798,645.472 397.572,643.005 399.921,642.476 413.436,639.476 413.671,639.425 428.059,636.3 430.157,635.849 443.095,633.086 447.749,632.099 458.788,629.769 466.228,628.205 475.147,626.336 485.608,624.148 492.182,622.775 505.901,619.91 509.901,619.075 527.122,615.475 528.312,615.226 547.422,611.218 567.237,607.039 587.763,602.681 609.002,598.133 630.96,593.384 653.636,588.423 677.03,583.238 701.141,577.817 725.965,572.146 751.495,566.212 777.724,559.998 804.642,553.489 832.234,546.667 860.487,539.512 889.381,532.003 918.895,524.116 949.006,515.828 979.685,507.11 1010.9,497.933 1042.63,488.263 1074.82,478.065 1076.88,477.399 1107.44,467.301 1114.75,464.826 1140.45,455.927 1153.12,451.422 1173.79,443.899 1191.93,437.114 1207.43,431.168 1231.09,421.823 1241.31,417.68 1270.52,405.465 1275.37,403.38 1309.57,388.212 1310.14,387.951 1343.84,372.115 1349.86,369.189 1378.13,355.033 1389.59,349.091 1412.37,336.913 1429.23,327.577 1446.51,317.709 1468.7,304.588 1480.5,297.396 1507.91,280.105 1514.27,275.972 1546.78,254.175 1547.78,253.483 1580.98,230.04 1585.24,226.963 1613.85,205.859 1623.23,198.814 1646.34,181.306 1660.72,170.37 1678.45,156.975 1697.71,142.723 1710.2,133.782 1734.23,117.661 1741.61,113.108 1770.38,97.9936 1772.77,96.9728 1803.79,88.2496 1806.33,87.9763 1834.87,90.8791 1842.4,93.7562 1866.31,109.997 1879.07,123.609 1898.55,151.791 1906.05,165.127 1917.14,187.454 1932.25,222.798 1957.85,294.807 1968.38,328.313 2003.19,450.459 2008.43,469.824 2054.55,642.154 2056.32,648.624 2109.73,831.944 2121.75,869.16 2123.07,873.149 2176.75,1019.28 2203.01,1080.7 2251.38,1182.67 2259.68,1199.78 2282.52,1251.21 2285.08,1258.23 2290.79,1317.35 2282.87,1332.61 2243.72,1361 2180.95,1380.98 2175.06,1382.32 1925.9,1413.82 1865.14,1418.17 1793.41,1422.54 1544.66,1433.59 1541.45,1433.7 1321.28,1440.07 1296.8,1440.63 1183.78,1442.87 1154.66,1443.35 1152.67,1443.39 1095.2,1444.22 1064.52,1444.6 1035,1444.91 1006.6,1445.17 991.947,1445.29 966.089,1445.46 959.825,1445.5 936.299,1445.61 935.003,1445.62 915.263,1445.68 913.503,1445.68 899.185,1445.71 895.492,1445.71 885.826,1445.72 880.884,1445.72 874.535,1445.71 868.775,1445.71 864.851,1445.7 858.553,1445.69 856.439,1445.68 849.787,1445.67 849.051,1445.66 842.497,1445.64 842.167,1445.64 836.631,1445.62 835.462,1445.62 831.339,1445.6 829.502,1445.59 826.531,1445.57 824.152,1445.56 822.133,1445.55 819.31,1445.53 818.086,1445.53 814.892,1445.51 814.34,1445.5 810.857,1445.48 810.834,1445.48 807.601,1445.46 807.082,1445.45 804.544,1445.43 803.591,1445.43 801.661,1445.41 800.324,1445.4 798.932,1445.39 797.253,1445.38 796.339,1445.37 794.349,1445.35 793.866,1445.35 791.592,1445.33 791.499,1445.33 789.226,1445.31 788.961,1445.3 787.036,1445.29 786.442,1445.28 784.92,1445.27 784.018,1445.26 782.87,1445.24 780.877,1445.22 778.934,1445.2 777.036,1445.18 775.175,1445.16 773.347,1445.14 771.547,1445.12 769.769,1445.1 768.008,1445.08 766.261,1445.06 764.523,1445.04 "/>
</svg>
