<?xml version="1.0" encoding="utf-8"?>
<svg xmlns="http://www.w3.org/2000/svg" xmlns:xlink="http://www.w3.org/1999/xlink" width="600" height="400" viewBox="0 0 2400 1600">
<defs>
  <clipPath id="clip780">
    <rect x="0" y="0" width="2400" height="1600"/>
  </clipPath>
</defs>
<path clip-path="url(#clip780)" d="M0 1600 L2400 1600 L2400 0 L0 0  Z" fill="#ffffff" fill-rule="evenodd" fill-opacity="1"/>
<defs>
  <clipPath id="clip781">
    <rect x="480" y="0" width="1681" height="1600"/>
  </clipPath>
</defs>
<path clip-path="url(#clip780)" d="M216.922 1486.45 L2352.76 1486.45 L2352.76 47.2441 L216.922 47.2441  Z" fill="#ffffff" fill-rule="evenodd" fill-opacity="1"/>
<defs>
  <clipPath id="clip782">
    <rect x="216" y="47" width="2137" height="1440"/>
  </clipPath>
</defs>
<polyline clip-path="url(#clip782)" style="stroke:#000000; stroke-linecap:round; stroke-linejoin:round; stroke-width:2; stroke-opacity:0.1; fill:none" points="277.37,1486.45 277.37,47.2441 "/>
<polyline clip-path="url(#clip782)" style="stroke:#000000; stroke-linecap:round; stroke-linejoin:round; stroke-width:2; stroke-opacity:0.1; fill:none" points="697.149,1486.45 697.149,47.2441 "/>
<polyline clip-path="url(#clip782)" style="stroke:#000000; stroke-linecap:round; stroke-linejoin:round; stroke-width:2; stroke-opacity:0.1; fill:none" points="1116.93,1486.45 1116.93,47.2441 "/>
<polyline clip-path="url(#clip782)" style="stroke:#000000; stroke-linecap:round; stroke-linejoin:round; stroke-width:2; stroke-opacity:0.1; fill:none" points="1536.71,1486.45 1536.71,47.2441 "/>
<polyline clip-path="url(#clip782)" style="stroke:#000000; stroke-linecap:round; stroke-linejoin:round; stroke-width:2; stroke-opacity:0.1; fill:none" points="1956.48,1486.45 1956.48,47.2441 "/>
<polyline clip-path="url(#clip780)" style="stroke:#000000; stroke-linecap:round; stroke-linejoin:round; stroke-width:4; stroke-opacity:1; fill:none" points="216.922,1486.45 2352.76,1486.45 "/>
<polyline clip-path="url(#clip780)" style="stroke:#000000; stroke-linecap:round; stroke-linejoin:round; stroke-width:4; stroke-opacity:1; fill:none" points="277.37,1486.45 277.37,1467.55 "/>
<polyline clip-path="url(#clip780)" style="stroke:#000000; stroke-linecap:round; stroke-linejoin:round; stroke-width:4; stroke-opacity:1; fill:none" points="697.149,1486.45 697.149,1467.55 "/>
<polyline clip-path="url(#clip780)" style="stroke:#000000; stroke-linecap:round; stroke-linejoin:round; stroke-width:4; stroke-opacity:1; fill:none" points="1116.93,1486.45 1116.93,1467.55 "/>
<polyline clip-path="url(#clip780)" style="stroke:#000000; stroke-linecap:round; stroke-linejoin:round; stroke-width:4; stroke-opacity:1; fill:none" points="1536.71,1486.45 1536.71,1467.55 "/>
<polyline clip-path="url(#clip780)" style="stroke:#000000; stroke-linecap:round; stroke-linejoin:round; stroke-width:4; stroke-opacity:1; fill:none" points="1956.48,1486.45 1956.48,1467.55 "/>
<path clip-path="url(#clip780)" d="M239.674 1517.37 Q236.062 1517.37 234.234 1520.93 Q232.428 1524.47 232.428 1531.6 Q232.428 1538.71 234.234 1542.27 Q236.062 1545.82 239.674 1545.82 Q243.308 1545.82 245.113 1542.27 Q246.942 1538.71 246.942 1531.6 Q246.942 1524.47 245.113 1520.93 Q243.308 1517.37 239.674 1517.37 M239.674 1513.66 Q245.484 1513.66 248.539 1518.27 Q251.618 1522.85 251.618 1531.6 Q251.618 1540.33 248.539 1544.94 Q245.484 1549.52 239.674 1549.52 Q233.863 1549.52 230.785 1544.94 Q227.729 1540.33 227.729 1531.6 Q227.729 1522.85 230.785 1518.27 Q233.863 1513.66 239.674 1513.66 Z" fill="#000000" fill-rule="nonzero" fill-opacity="1" /><path clip-path="url(#clip780)" d="M259.835 1542.97 L264.72 1542.97 L264.72 1548.85 L259.835 1548.85 L259.835 1542.97 Z" fill="#000000" fill-rule="nonzero" fill-opacity="1" /><path clip-path="url(#clip780)" d="M284.905 1517.37 Q281.294 1517.37 279.465 1520.93 Q277.659 1524.47 277.659 1531.6 Q277.659 1538.71 279.465 1542.27 Q281.294 1545.82 284.905 1545.82 Q288.539 1545.82 290.345 1542.27 Q292.173 1538.71 292.173 1531.6 Q292.173 1524.47 290.345 1520.93 Q288.539 1517.37 284.905 1517.37 M284.905 1513.66 Q290.715 1513.66 293.77 1518.27 Q296.849 1522.85 296.849 1531.6 Q296.849 1540.33 293.77 1544.94 Q290.715 1549.52 284.905 1549.52 Q279.095 1549.52 276.016 1544.94 Q272.96 1540.33 272.96 1531.6 Q272.96 1522.85 276.016 1518.27 Q279.095 1513.66 284.905 1513.66 Z" fill="#000000" fill-rule="nonzero" fill-opacity="1" /><path clip-path="url(#clip780)" d="M315.067 1517.37 Q311.456 1517.37 309.627 1520.93 Q307.821 1524.47 307.821 1531.6 Q307.821 1538.71 309.627 1542.27 Q311.456 1545.82 315.067 1545.82 Q318.701 1545.82 320.506 1542.27 Q322.335 1538.71 322.335 1531.6 Q322.335 1524.47 320.506 1520.93 Q318.701 1517.37 315.067 1517.37 M315.067 1513.66 Q320.877 1513.66 323.932 1518.27 Q327.011 1522.85 327.011 1531.6 Q327.011 1540.33 323.932 1544.94 Q320.877 1549.52 315.067 1549.52 Q309.257 1549.52 306.178 1544.94 Q303.122 1540.33 303.122 1531.6 Q303.122 1522.85 306.178 1518.27 Q309.257 1513.66 315.067 1513.66 Z" fill="#000000" fill-rule="nonzero" fill-opacity="1" /><path clip-path="url(#clip780)" d="M659.95 1517.37 Q656.339 1517.37 654.51 1520.93 Q652.705 1524.47 652.705 1531.6 Q652.705 1538.71 654.51 1542.27 Q656.339 1545.82 659.95 1545.82 Q663.584 1545.82 665.39 1542.27 Q667.218 1538.71 667.218 1531.6 Q667.218 1524.47 665.39 1520.93 Q663.584 1517.37 659.95 1517.37 M659.95 1513.66 Q665.76 1513.66 668.816 1518.27 Q671.894 1522.85 671.894 1531.6 Q671.894 1540.33 668.816 1544.94 Q665.76 1549.52 659.95 1549.52 Q654.14 1549.52 651.061 1544.94 Q648.006 1540.33 648.006 1531.6 Q648.006 1522.85 651.061 1518.27 Q654.14 1513.66 659.95 1513.66 Z" fill="#000000" fill-rule="nonzero" fill-opacity="1" /><path clip-path="url(#clip780)" d="M680.112 1542.97 L684.996 1542.97 L684.996 1548.85 L680.112 1548.85 L680.112 1542.97 Z" fill="#000000" fill-rule="nonzero" fill-opacity="1" /><path clip-path="url(#clip780)" d="M699.209 1544.91 L715.528 1544.91 L715.528 1548.85 L693.584 1548.85 L693.584 1544.91 Q696.246 1542.16 700.829 1537.53 Q705.436 1532.88 706.616 1531.53 Q708.862 1529.01 709.741 1527.27 Q710.644 1525.51 710.644 1523.82 Q710.644 1521.07 708.7 1519.33 Q706.778 1517.6 703.677 1517.6 Q701.477 1517.6 699.024 1518.36 Q696.593 1519.13 693.815 1520.68 L693.815 1515.95 Q696.64 1514.82 699.093 1514.24 Q701.547 1513.66 703.584 1513.66 Q708.954 1513.66 712.149 1516.35 Q715.343 1519.03 715.343 1523.52 Q715.343 1525.65 714.533 1527.57 Q713.746 1529.47 711.639 1532.07 Q711.061 1532.74 707.959 1535.95 Q704.857 1539.15 699.209 1544.91 Z" fill="#000000" fill-rule="nonzero" fill-opacity="1" /><path clip-path="url(#clip780)" d="M725.389 1514.29 L743.746 1514.29 L743.746 1518.22 L729.672 1518.22 L729.672 1526.7 Q730.69 1526.35 731.709 1526.19 Q732.727 1526 733.746 1526 Q739.533 1526 742.912 1529.17 Q746.292 1532.34 746.292 1537.76 Q746.292 1543.34 742.82 1546.44 Q739.348 1549.52 733.028 1549.52 Q730.852 1549.52 728.584 1549.15 Q726.338 1548.78 723.931 1548.04 L723.931 1543.34 Q726.014 1544.47 728.237 1545.03 Q730.459 1545.58 732.936 1545.58 Q736.94 1545.58 739.278 1543.48 Q741.616 1541.37 741.616 1537.76 Q741.616 1534.15 739.278 1532.04 Q736.94 1529.94 732.936 1529.94 Q731.061 1529.94 729.186 1530.35 Q727.334 1530.77 725.389 1531.65 L725.389 1514.29 Z" fill="#000000" fill-rule="nonzero" fill-opacity="1" /><path clip-path="url(#clip780)" d="M1079.23 1517.37 Q1075.62 1517.37 1073.79 1520.93 Q1071.99 1524.47 1071.99 1531.6 Q1071.99 1538.71 1073.79 1542.27 Q1075.62 1545.82 1079.23 1545.82 Q1082.87 1545.82 1084.67 1542.27 Q1086.5 1538.71 1086.5 1531.6 Q1086.5 1524.47 1084.67 1520.93 Q1082.87 1517.37 1079.23 1517.37 M1079.23 1513.66 Q1085.04 1513.66 1088.1 1518.27 Q1091.18 1522.85 1091.18 1531.6 Q1091.18 1540.33 1088.1 1544.94 Q1085.04 1549.52 1079.23 1549.52 Q1073.42 1549.52 1070.34 1544.94 Q1067.29 1540.33 1067.29 1531.6 Q1067.29 1522.85 1070.34 1518.27 Q1073.42 1513.66 1079.23 1513.66 Z" fill="#000000" fill-rule="nonzero" fill-opacity="1" /><path clip-path="url(#clip780)" d="M1099.39 1542.97 L1104.28 1542.97 L1104.28 1548.85 L1099.39 1548.85 L1099.39 1542.97 Z" fill="#000000" fill-rule="nonzero" fill-opacity="1" /><path clip-path="url(#clip780)" d="M1114.51 1514.29 L1132.86 1514.29 L1132.86 1518.22 L1118.79 1518.22 L1118.79 1526.7 Q1119.81 1526.35 1120.83 1526.19 Q1121.85 1526 1122.86 1526 Q1128.65 1526 1132.03 1529.17 Q1135.41 1532.34 1135.41 1537.76 Q1135.41 1543.34 1131.94 1546.44 Q1128.47 1549.52 1122.15 1549.52 Q1119.97 1549.52 1117.7 1549.15 Q1115.46 1548.78 1113.05 1548.04 L1113.05 1543.34 Q1115.13 1544.47 1117.36 1545.03 Q1119.58 1545.58 1122.05 1545.58 Q1126.06 1545.58 1128.4 1543.48 Q1130.74 1541.37 1130.74 1537.76 Q1130.74 1534.15 1128.4 1532.04 Q1126.06 1529.94 1122.05 1529.94 Q1120.18 1529.94 1118.3 1530.35 Q1116.45 1530.77 1114.51 1531.65 L1114.51 1514.29 Z" fill="#000000" fill-rule="nonzero" fill-opacity="1" /><path clip-path="url(#clip780)" d="M1154.62 1517.37 Q1151.01 1517.37 1149.18 1520.93 Q1147.38 1524.47 1147.38 1531.6 Q1147.38 1538.71 1149.18 1542.27 Q1151.01 1545.82 1154.62 1545.82 Q1158.26 1545.82 1160.06 1542.27 Q1161.89 1538.71 1161.89 1531.6 Q1161.89 1524.47 1160.06 1520.93 Q1158.26 1517.37 1154.62 1517.37 M1154.62 1513.66 Q1160.43 1513.66 1163.49 1518.27 Q1166.57 1522.85 1166.57 1531.6 Q1166.57 1540.33 1163.49 1544.94 Q1160.43 1549.52 1154.62 1549.52 Q1148.81 1549.52 1145.74 1544.94 Q1142.68 1540.33 1142.68 1531.6 Q1142.68 1522.85 1145.74 1518.27 Q1148.81 1513.66 1154.62 1513.66 Z" fill="#000000" fill-rule="nonzero" fill-opacity="1" /><path clip-path="url(#clip780)" d="M1499.51 1517.37 Q1495.9 1517.37 1494.07 1520.93 Q1492.26 1524.47 1492.26 1531.6 Q1492.26 1538.71 1494.07 1542.27 Q1495.9 1545.82 1499.51 1545.82 Q1503.14 1545.82 1504.95 1542.27 Q1506.78 1538.71 1506.78 1531.6 Q1506.78 1524.47 1504.95 1520.93 Q1503.14 1517.37 1499.51 1517.37 M1499.51 1513.66 Q1505.32 1513.66 1508.37 1518.27 Q1511.45 1522.85 1511.45 1531.6 Q1511.45 1540.33 1508.37 1544.94 Q1505.32 1549.52 1499.51 1549.52 Q1493.7 1549.52 1490.62 1544.94 Q1487.56 1540.33 1487.56 1531.6 Q1487.56 1522.85 1490.62 1518.27 Q1493.7 1513.66 1499.51 1513.66 Z" fill="#000000" fill-rule="nonzero" fill-opacity="1" /><path clip-path="url(#clip780)" d="M1519.67 1542.97 L1524.55 1542.97 L1524.55 1548.85 L1519.67 1548.85 L1519.67 1542.97 Z" fill="#000000" fill-rule="nonzero" fill-opacity="1" /><path clip-path="url(#clip780)" d="M1533.56 1514.29 L1555.78 1514.29 L1555.78 1516.28 L1543.23 1548.85 L1538.35 1548.85 L1550.16 1518.22 L1533.56 1518.22 L1533.56 1514.29 Z" fill="#000000" fill-rule="nonzero" fill-opacity="1" /><path clip-path="url(#clip780)" d="M1564.95 1514.29 L1583.3 1514.29 L1583.3 1518.22 L1569.23 1518.22 L1569.23 1526.7 Q1570.25 1526.35 1571.27 1526.19 Q1572.28 1526 1573.3 1526 Q1579.09 1526 1582.47 1529.17 Q1585.85 1532.34 1585.85 1537.76 Q1585.85 1543.34 1582.38 1546.44 Q1578.91 1549.52 1572.59 1549.52 Q1570.41 1549.52 1568.14 1549.15 Q1565.9 1548.78 1563.49 1548.04 L1563.49 1543.34 Q1565.57 1544.47 1567.79 1545.03 Q1570.02 1545.58 1572.49 1545.58 Q1576.5 1545.58 1578.84 1543.48 Q1581.17 1541.37 1581.17 1537.76 Q1581.17 1534.15 1578.84 1532.04 Q1576.5 1529.94 1572.49 1529.94 Q1570.62 1529.94 1568.74 1530.35 Q1566.89 1530.77 1564.95 1531.65 L1564.95 1514.29 Z" fill="#000000" fill-rule="nonzero" fill-opacity="1" /><path clip-path="url(#clip780)" d="M1908.56 1544.91 L1916.2 1544.91 L1916.2 1518.55 L1907.89 1520.21 L1907.89 1515.95 L1916.15 1514.29 L1920.83 1514.29 L1920.83 1544.91 L1928.46 1544.91 L1928.46 1548.85 L1908.56 1548.85 L1908.56 1544.91 Z" fill="#000000" fill-rule="nonzero" fill-opacity="1" /><path clip-path="url(#clip780)" d="M1937.91 1542.97 L1942.79 1542.97 L1942.79 1548.85 L1937.91 1548.85 L1937.91 1542.97 Z" fill="#000000" fill-rule="nonzero" fill-opacity="1" /><path clip-path="url(#clip780)" d="M1962.98 1517.37 Q1959.37 1517.37 1957.54 1520.93 Q1955.73 1524.47 1955.73 1531.6 Q1955.73 1538.71 1957.54 1542.27 Q1959.37 1545.82 1962.98 1545.82 Q1966.61 1545.82 1968.42 1542.27 Q1970.25 1538.71 1970.25 1531.6 Q1970.25 1524.47 1968.42 1520.93 Q1966.61 1517.37 1962.98 1517.37 M1962.98 1513.66 Q1968.79 1513.66 1971.84 1518.27 Q1974.92 1522.85 1974.92 1531.6 Q1974.92 1540.33 1971.84 1544.94 Q1968.79 1549.52 1962.98 1549.52 Q1957.17 1549.52 1954.09 1544.94 Q1951.03 1540.33 1951.03 1531.6 Q1951.03 1522.85 1954.09 1518.27 Q1957.17 1513.66 1962.98 1513.66 Z" fill="#000000" fill-rule="nonzero" fill-opacity="1" /><path clip-path="url(#clip780)" d="M1993.14 1517.37 Q1989.53 1517.37 1987.7 1520.93 Q1985.89 1524.47 1985.89 1531.6 Q1985.89 1538.71 1987.7 1542.27 Q1989.53 1545.82 1993.14 1545.82 Q1996.77 1545.82 1998.58 1542.27 Q2000.41 1538.71 2000.41 1531.6 Q2000.41 1524.47 1998.58 1520.93 Q1996.77 1517.37 1993.14 1517.37 M1993.14 1513.66 Q1998.95 1513.66 2002.01 1518.27 Q2005.08 1522.85 2005.08 1531.6 Q2005.08 1540.33 2002.01 1544.94 Q1998.95 1549.52 1993.14 1549.52 Q1987.33 1549.52 1984.25 1544.94 Q1981.2 1540.33 1981.2 1531.6 Q1981.2 1522.85 1984.25 1518.27 Q1987.33 1513.66 1993.14 1513.66 Z" fill="#000000" fill-rule="nonzero" fill-opacity="1" /><polyline clip-path="url(#clip782)" style="stroke:#000000; stroke-linecap:round; stroke-linejoin:round; stroke-width:2; stroke-opacity:0.1; fill:none" points="216.922,1445.72 2352.76,1445.72 "/>
<polyline clip-path="url(#clip782)" style="stroke:#000000; stroke-linecap:round; stroke-linejoin:round; stroke-width:2; stroke-opacity:0.1; fill:none" points="216.922,1096.84 2352.76,1096.84 "/>
<polyline clip-path="url(#clip782)" style="stroke:#000000; stroke-linecap:round; stroke-linejoin:round; stroke-width:2; stroke-opacity:0.1; fill:none" points="216.922,747.959 2352.76,747.959 "/>
<polyline clip-path="url(#clip782)" style="stroke:#000000; stroke-linecap:round; stroke-linejoin:round; stroke-width:2; stroke-opacity:0.1; fill:none" points="216.922,399.08 2352.76,399.08 "/>
<polyline clip-path="url(#clip782)" style="stroke:#000000; stroke-linecap:round; stroke-linejoin:round; stroke-width:2; stroke-opacity:0.1; fill:none" points="216.922,50.2018 2352.76,50.2018 "/>
<polyline clip-path="url(#clip780)" style="stroke:#000000; stroke-linecap:round; stroke-linejoin:round; stroke-width:4; stroke-opacity:1; fill:none" points="216.922,1486.45 216.922,47.2441 "/>
<polyline clip-path="url(#clip780)" style="stroke:#000000; stroke-linecap:round; stroke-linejoin:round; stroke-width:4; stroke-opacity:1; fill:none" points="216.922,1445.72 235.82,1445.72 "/>
<polyline clip-path="url(#clip780)" style="stroke:#000000; stroke-linecap:round; stroke-linejoin:round; stroke-width:4; stroke-opacity:1; fill:none" points="216.922,1096.84 235.82,1096.84 "/>
<polyline clip-path="url(#clip780)" style="stroke:#000000; stroke-linecap:round; stroke-linejoin:round; stroke-width:4; stroke-opacity:1; fill:none" points="216.922,747.959 235.82,747.959 "/>
<polyline clip-path="url(#clip780)" style="stroke:#000000; stroke-linecap:round; stroke-linejoin:round; stroke-width:4; stroke-opacity:1; fill:none" points="216.922,399.08 235.82,399.08 "/>
<polyline clip-path="url(#clip780)" style="stroke:#000000; stroke-linecap:round; stroke-linejoin:round; stroke-width:4; stroke-opacity:1; fill:none" points="216.922,50.2018 235.82,50.2018 "/>
<path clip-path="url(#clip780)" d="M63.4226 1431.51 Q59.8115 1431.51 57.9828 1435.08 Q56.1773 1438.62 56.1773 1445.75 Q56.1773 1452.86 57.9828 1456.42 Q59.8115 1459.96 63.4226 1459.96 Q67.0569 1459.96 68.8624 1456.42 Q70.6911 1452.86 70.6911 1445.75 Q70.6911 1438.62 68.8624 1435.08 Q67.0569 1431.51 63.4226 1431.51 M63.4226 1427.81 Q69.2328 1427.81 72.2883 1432.42 Q75.367 1437 75.367 1445.75 Q75.367 1454.48 72.2883 1459.08 Q69.2328 1463.67 63.4226 1463.67 Q57.6125 1463.67 54.5338 1459.08 Q51.4782 1454.48 51.4782 1445.75 Q51.4782 1437 54.5338 1432.42 Q57.6125 1427.81 63.4226 1427.81 Z" fill="#000000" fill-rule="nonzero" fill-opacity="1" /><path clip-path="url(#clip780)" d="M83.5845 1457.12 L88.4688 1457.12 L88.4688 1463 L83.5845 1463 L83.5845 1457.12 Z" fill="#000000" fill-rule="nonzero" fill-opacity="1" /><path clip-path="url(#clip780)" d="M108.654 1431.51 Q105.043 1431.51 103.214 1435.08 Q101.409 1438.62 101.409 1445.75 Q101.409 1452.86 103.214 1456.42 Q105.043 1459.96 108.654 1459.96 Q112.288 1459.96 114.094 1456.42 Q115.922 1452.86 115.922 1445.75 Q115.922 1438.62 114.094 1435.08 Q112.288 1431.51 108.654 1431.51 M108.654 1427.81 Q114.464 1427.81 117.52 1432.42 Q120.598 1437 120.598 1445.75 Q120.598 1454.48 117.52 1459.08 Q114.464 1463.67 108.654 1463.67 Q102.844 1463.67 99.765 1459.08 Q96.7095 1454.48 96.7095 1445.75 Q96.7095 1437 99.765 1432.42 Q102.844 1427.81 108.654 1427.81 Z" fill="#000000" fill-rule="nonzero" fill-opacity="1" /><path clip-path="url(#clip780)" d="M138.816 1431.51 Q135.205 1431.51 133.376 1435.08 Q131.57 1438.62 131.57 1445.75 Q131.57 1452.86 133.376 1456.42 Q135.205 1459.96 138.816 1459.96 Q142.45 1459.96 144.256 1456.42 Q146.084 1452.86 146.084 1445.75 Q146.084 1438.62 144.256 1435.08 Q142.45 1431.51 138.816 1431.51 M138.816 1427.81 Q144.626 1427.81 147.681 1432.42 Q150.76 1437 150.76 1445.75 Q150.76 1454.48 147.681 1459.08 Q144.626 1463.67 138.816 1463.67 Q133.006 1463.67 129.927 1459.08 Q126.871 1454.48 126.871 1445.75 Q126.871 1437 129.927 1432.42 Q133.006 1427.81 138.816 1427.81 Z" fill="#000000" fill-rule="nonzero" fill-opacity="1" /><path clip-path="url(#clip780)" d="M168.978 1431.51 Q165.367 1431.51 163.538 1435.08 Q161.732 1438.62 161.732 1445.75 Q161.732 1452.86 163.538 1456.42 Q165.367 1459.96 168.978 1459.96 Q172.612 1459.96 174.417 1456.42 Q176.246 1452.86 176.246 1445.75 Q176.246 1438.62 174.417 1435.08 Q172.612 1431.51 168.978 1431.51 M168.978 1427.81 Q174.788 1427.81 177.843 1432.42 Q180.922 1437 180.922 1445.75 Q180.922 1454.48 177.843 1459.08 Q174.788 1463.67 168.978 1463.67 Q163.167 1463.67 160.089 1459.08 Q157.033 1454.48 157.033 1445.75 Q157.033 1437 160.089 1432.42 Q163.167 1427.81 168.978 1427.81 Z" fill="#000000" fill-rule="nonzero" fill-opacity="1" /><path clip-path="url(#clip780)" d="M65.0198 1082.64 Q61.4087 1082.64 59.58 1086.2 Q57.7745 1089.74 57.7745 1096.87 Q57.7745 1103.98 59.58 1107.54 Q61.4087 1111.08 65.0198 1111.08 Q68.6541 1111.08 70.4596 1107.54 Q72.2883 1103.98 72.2883 1096.87 Q72.2883 1089.74 70.4596 1086.2 Q68.6541 1082.64 65.0198 1082.64 M65.0198 1078.93 Q70.83 1078.93 73.8855 1083.54 Q76.9642 1088.12 76.9642 1096.87 Q76.9642 1105.6 73.8855 1110.21 Q70.83 1114.79 65.0198 1114.79 Q59.2097 1114.79 56.131 1110.21 Q53.0754 1105.6 53.0754 1096.87 Q53.0754 1088.12 56.131 1083.54 Q59.2097 1078.93 65.0198 1078.93 Z" fill="#000000" fill-rule="nonzero" fill-opacity="1" /><path clip-path="url(#clip780)" d="M85.1818 1108.24 L90.066 1108.24 L90.066 1114.12 L85.1818 1114.12 L85.1818 1108.24 Z" fill="#000000" fill-rule="nonzero" fill-opacity="1" /><path clip-path="url(#clip780)" d="M110.251 1082.64 Q106.64 1082.64 104.811 1086.2 Q103.006 1089.74 103.006 1096.87 Q103.006 1103.98 104.811 1107.54 Q106.64 1111.08 110.251 1111.08 Q113.885 1111.08 115.691 1107.54 Q117.52 1103.98 117.52 1096.87 Q117.52 1089.74 115.691 1086.2 Q113.885 1082.64 110.251 1082.64 M110.251 1078.93 Q116.061 1078.93 119.117 1083.54 Q122.195 1088.12 122.195 1096.87 Q122.195 1105.6 119.117 1110.21 Q116.061 1114.79 110.251 1114.79 Q104.441 1114.79 101.362 1110.21 Q98.3067 1105.6 98.3067 1096.87 Q98.3067 1088.12 101.362 1083.54 Q104.441 1078.93 110.251 1078.93 Z" fill="#000000" fill-rule="nonzero" fill-opacity="1" /><path clip-path="url(#clip780)" d="M140.413 1082.64 Q136.802 1082.64 134.973 1086.2 Q133.168 1089.74 133.168 1096.87 Q133.168 1103.98 134.973 1107.54 Q136.802 1111.08 140.413 1111.08 Q144.047 1111.08 145.853 1107.54 Q147.681 1103.98 147.681 1096.87 Q147.681 1089.74 145.853 1086.2 Q144.047 1082.64 140.413 1082.64 M140.413 1078.93 Q146.223 1078.93 149.279 1083.54 Q152.357 1088.12 152.357 1096.87 Q152.357 1105.6 149.279 1110.21 Q146.223 1114.79 140.413 1114.79 Q134.603 1114.79 131.524 1110.21 Q128.469 1105.6 128.469 1096.87 Q128.469 1088.12 131.524 1083.54 Q134.603 1078.93 140.413 1078.93 Z" fill="#000000" fill-rule="nonzero" fill-opacity="1" /><path clip-path="url(#clip780)" d="M164.603 1110.18 L180.922 1110.18 L180.922 1114.12 L158.978 1114.12 L158.978 1110.18 Q161.64 1107.43 166.223 1102.8 Q170.829 1098.15 172.01 1096.8 Q174.255 1094.28 175.135 1092.54 Q176.038 1090.78 176.038 1089.09 Q176.038 1086.34 174.093 1084.6 Q172.172 1082.87 169.07 1082.87 Q166.871 1082.87 164.417 1083.63 Q161.987 1084.4 159.209 1085.95 L159.209 1081.22 Q162.033 1080.09 164.487 1079.51 Q166.941 1078.93 168.978 1078.93 Q174.348 1078.93 177.542 1081.62 Q180.737 1084.3 180.737 1088.79 Q180.737 1090.92 179.927 1092.84 Q179.14 1094.74 177.033 1097.33 Q176.454 1098.01 173.353 1101.22 Q170.251 1104.42 164.603 1110.18 Z" fill="#000000" fill-rule="nonzero" fill-opacity="1" /><path clip-path="url(#clip780)" d="M62.9365 733.757 Q59.3254 733.757 57.4967 737.322 Q55.6912 740.864 55.6912 747.993 Q55.6912 755.1 57.4967 758.665 Q59.3254 762.206 62.9365 762.206 Q66.5707 762.206 68.3763 758.665 Q70.205 755.1 70.205 747.993 Q70.205 740.864 68.3763 737.322 Q66.5707 733.757 62.9365 733.757 M62.9365 730.054 Q68.7467 730.054 71.8022 734.66 Q74.8809 739.243 74.8809 747.993 Q74.8809 756.72 71.8022 761.327 Q68.7467 765.91 62.9365 765.91 Q57.1264 765.91 54.0477 761.327 Q50.9921 756.72 50.9921 747.993 Q50.9921 739.243 54.0477 734.66 Q57.1264 730.054 62.9365 730.054 Z" fill="#000000" fill-rule="nonzero" fill-opacity="1" /><path clip-path="url(#clip780)" d="M83.0984 759.359 L87.9827 759.359 L87.9827 765.239 L83.0984 765.239 L83.0984 759.359 Z" fill="#000000" fill-rule="nonzero" fill-opacity="1" /><path clip-path="url(#clip780)" d="M108.168 733.757 Q104.557 733.757 102.728 737.322 Q100.922 740.864 100.922 747.993 Q100.922 755.1 102.728 758.665 Q104.557 762.206 108.168 762.206 Q111.802 762.206 113.608 758.665 Q115.436 755.1 115.436 747.993 Q115.436 740.864 113.608 737.322 Q111.802 733.757 108.168 733.757 M108.168 730.054 Q113.978 730.054 117.033 734.66 Q120.112 739.243 120.112 747.993 Q120.112 756.72 117.033 761.327 Q113.978 765.91 108.168 765.91 Q102.358 765.91 99.2789 761.327 Q96.2234 756.72 96.2234 747.993 Q96.2234 739.243 99.2789 734.66 Q102.358 730.054 108.168 730.054 Z" fill="#000000" fill-rule="nonzero" fill-opacity="1" /><path clip-path="url(#clip780)" d="M138.33 733.757 Q134.719 733.757 132.89 737.322 Q131.084 740.864 131.084 747.993 Q131.084 755.1 132.89 758.665 Q134.719 762.206 138.33 762.206 Q141.964 762.206 143.769 758.665 Q145.598 755.1 145.598 747.993 Q145.598 740.864 143.769 737.322 Q141.964 733.757 138.33 733.757 M138.33 730.054 Q144.14 730.054 147.195 734.66 Q150.274 739.243 150.274 747.993 Q150.274 756.72 147.195 761.327 Q144.14 765.91 138.33 765.91 Q132.519 765.91 129.441 761.327 Q126.385 756.72 126.385 747.993 Q126.385 739.243 129.441 734.66 Q132.519 730.054 138.33 730.054 Z" fill="#000000" fill-rule="nonzero" fill-opacity="1" /><path clip-path="url(#clip780)" d="M171.339 734.753 L159.533 753.202 L171.339 753.202 L171.339 734.753 M170.112 730.679 L175.991 730.679 L175.991 753.202 L180.922 753.202 L180.922 757.091 L175.991 757.091 L175.991 765.239 L171.339 765.239 L171.339 757.091 L155.737 757.091 L155.737 752.577 L170.112 730.679 Z" fill="#000000" fill-rule="nonzero" fill-opacity="1" /><path clip-path="url(#clip780)" d="M63.2606 384.879 Q59.6495 384.879 57.8208 388.444 Q56.0152 391.985 56.0152 399.115 Q56.0152 406.221 57.8208 409.786 Q59.6495 413.328 63.2606 413.328 Q66.8948 413.328 68.7004 409.786 Q70.5291 406.221 70.5291 399.115 Q70.5291 391.985 68.7004 388.444 Q66.8948 384.879 63.2606 384.879 M63.2606 381.175 Q69.0707 381.175 72.1263 385.782 Q75.205 390.365 75.205 399.115 Q75.205 407.842 72.1263 412.448 Q69.0707 417.032 63.2606 417.032 Q57.4504 417.032 54.3717 412.448 Q51.3162 407.842 51.3162 399.115 Q51.3162 390.365 54.3717 385.782 Q57.4504 381.175 63.2606 381.175 Z" fill="#000000" fill-rule="nonzero" fill-opacity="1" /><path clip-path="url(#clip780)" d="M83.4225 410.481 L88.3067 410.481 L88.3067 416.36 L83.4225 416.36 L83.4225 410.481 Z" fill="#000000" fill-rule="nonzero" fill-opacity="1" /><path clip-path="url(#clip780)" d="M108.492 384.879 Q104.881 384.879 103.052 388.444 Q101.246 391.985 101.246 399.115 Q101.246 406.221 103.052 409.786 Q104.881 413.328 108.492 413.328 Q112.126 413.328 113.932 409.786 Q115.76 406.221 115.76 399.115 Q115.76 391.985 113.932 388.444 Q112.126 384.879 108.492 384.879 M108.492 381.175 Q114.302 381.175 117.358 385.782 Q120.436 390.365 120.436 399.115 Q120.436 407.842 117.358 412.448 Q114.302 417.032 108.492 417.032 Q102.682 417.032 99.603 412.448 Q96.5474 407.842 96.5474 399.115 Q96.5474 390.365 99.603 385.782 Q102.682 381.175 108.492 381.175 Z" fill="#000000" fill-rule="nonzero" fill-opacity="1" /><path clip-path="url(#clip780)" d="M138.654 384.879 Q135.043 384.879 133.214 388.444 Q131.408 391.985 131.408 399.115 Q131.408 406.221 133.214 409.786 Q135.043 413.328 138.654 413.328 Q142.288 413.328 144.093 409.786 Q145.922 406.221 145.922 399.115 Q145.922 391.985 144.093 388.444 Q142.288 384.879 138.654 384.879 M138.654 381.175 Q144.464 381.175 147.519 385.782 Q150.598 390.365 150.598 399.115 Q150.598 407.842 147.519 412.448 Q144.464 417.032 138.654 417.032 Q132.844 417.032 129.765 412.448 Q126.709 407.842 126.709 399.115 Q126.709 390.365 129.765 385.782 Q132.844 381.175 138.654 381.175 Z" fill="#000000" fill-rule="nonzero" fill-opacity="1" /><path clip-path="url(#clip780)" d="M169.394 397.217 Q166.246 397.217 164.394 399.37 Q162.566 401.522 162.566 405.272 Q162.566 408.999 164.394 411.175 Q166.246 413.328 169.394 413.328 Q172.542 413.328 174.371 411.175 Q176.223 408.999 176.223 405.272 Q176.223 401.522 174.371 399.37 Q172.542 397.217 169.394 397.217 M178.677 382.564 L178.677 386.823 Q176.917 385.99 175.112 385.55 Q173.329 385.11 171.57 385.11 Q166.941 385.11 164.487 388.235 Q162.056 391.36 161.709 397.68 Q163.075 395.666 165.135 394.601 Q167.195 393.513 169.672 393.513 Q174.88 393.513 177.89 396.684 Q180.922 399.833 180.922 405.272 Q180.922 410.596 177.774 413.814 Q174.626 417.032 169.394 417.032 Q163.399 417.032 160.228 412.448 Q157.056 407.842 157.056 399.115 Q157.056 390.921 160.945 386.059 Q164.834 381.175 171.385 381.175 Q173.144 381.175 174.927 381.522 Q176.732 381.87 178.677 382.564 Z" fill="#000000" fill-rule="nonzero" fill-opacity="1" /><path clip-path="url(#clip780)" d="M63.5152 36.0004 Q59.9041 36.0004 58.0754 39.5652 Q56.2699 43.1069 56.2699 50.2365 Q56.2699 57.3429 58.0754 60.9077 Q59.9041 64.4494 63.5152 64.4494 Q67.1494 64.4494 68.955 60.9077 Q70.7837 57.3429 70.7837 50.2365 Q70.7837 43.1069 68.955 39.5652 Q67.1494 36.0004 63.5152 36.0004 M63.5152 32.2968 Q69.3254 32.2968 72.3809 36.9032 Q75.4596 41.4865 75.4596 50.2365 Q75.4596 58.9633 72.3809 63.5697 Q69.3254 68.153 63.5152 68.153 Q57.7051 68.153 54.6264 63.5697 Q51.5708 58.9633 51.5708 50.2365 Q51.5708 41.4865 54.6264 36.9032 Q57.7051 32.2968 63.5152 32.2968 Z" fill="#000000" fill-rule="nonzero" fill-opacity="1" /><path clip-path="url(#clip780)" d="M83.6771 61.6022 L88.5614 61.6022 L88.5614 67.4818 L83.6771 67.4818 L83.6771 61.6022 Z" fill="#000000" fill-rule="nonzero" fill-opacity="1" /><path clip-path="url(#clip780)" d="M108.746 36.0004 Q105.135 36.0004 103.307 39.5652 Q101.501 43.1069 101.501 50.2365 Q101.501 57.3429 103.307 60.9077 Q105.135 64.4494 108.746 64.4494 Q112.381 64.4494 114.186 60.9077 Q116.015 57.3429 116.015 50.2365 Q116.015 43.1069 114.186 39.5652 Q112.381 36.0004 108.746 36.0004 M108.746 32.2968 Q114.557 32.2968 117.612 36.9032 Q120.691 41.4865 120.691 50.2365 Q120.691 58.9633 117.612 63.5697 Q114.557 68.153 108.746 68.153 Q102.936 68.153 99.8576 63.5697 Q96.8021 58.9633 96.8021 50.2365 Q96.8021 41.4865 99.8576 36.9032 Q102.936 32.2968 108.746 32.2968 Z" fill="#000000" fill-rule="nonzero" fill-opacity="1" /><path clip-path="url(#clip780)" d="M138.908 36.0004 Q135.297 36.0004 133.469 39.5652 Q131.663 43.1069 131.663 50.2365 Q131.663 57.3429 133.469 60.9077 Q135.297 64.4494 138.908 64.4494 Q142.543 64.4494 144.348 60.9077 Q146.177 57.3429 146.177 50.2365 Q146.177 43.1069 144.348 39.5652 Q142.543 36.0004 138.908 36.0004 M138.908 32.2968 Q144.718 32.2968 147.774 36.9032 Q150.853 41.4865 150.853 50.2365 Q150.853 58.9633 147.774 63.5697 Q144.718 68.153 138.908 68.153 Q133.098 68.153 130.019 63.5697 Q126.964 58.9633 126.964 50.2365 Q126.964 41.4865 130.019 36.9032 Q133.098 32.2968 138.908 32.2968 Z" fill="#000000" fill-rule="nonzero" fill-opacity="1" /><path clip-path="url(#clip780)" d="M169.07 51.0698 Q165.737 51.0698 163.816 52.8522 Q161.917 54.6346 161.917 57.7596 Q161.917 60.8846 163.816 62.667 Q165.737 64.4494 169.07 64.4494 Q172.404 64.4494 174.325 62.667 Q176.246 60.8614 176.246 57.7596 Q176.246 54.6346 174.325 52.8522 Q172.427 51.0698 169.07 51.0698 M164.394 49.0791 Q161.385 48.3383 159.695 46.2782 Q158.029 44.218 158.029 41.255 Q158.029 37.1115 160.968 34.7041 Q163.931 32.2968 169.07 32.2968 Q174.232 32.2968 177.172 34.7041 Q180.112 37.1115 180.112 41.255 Q180.112 44.218 178.422 46.2782 Q176.755 48.3383 173.769 49.0791 Q177.149 49.8661 179.024 52.1578 Q180.922 54.4494 180.922 57.7596 Q180.922 62.7827 177.843 65.4679 Q174.788 68.153 169.07 68.153 Q163.353 68.153 160.274 65.4679 Q157.218 62.7827 157.218 57.7596 Q157.218 54.4494 159.117 52.1578 Q161.015 49.8661 164.394 49.0791 M162.681 41.6949 Q162.681 44.38 164.348 45.8846 Q166.038 47.3893 169.07 47.3893 Q172.079 47.3893 173.769 45.8846 Q175.482 44.38 175.482 41.6949 Q175.482 39.0097 173.769 37.5051 Q172.079 36.0004 169.07 36.0004 Q166.038 36.0004 164.348 37.5051 Q162.681 39.0097 162.681 41.6949 Z" fill="#000000" fill-rule="nonzero" fill-opacity="1" /><polyline clip-path="url(#clip782)" style="stroke:#009af9; stroke-linecap:round; stroke-linejoin:round; stroke-width:4; stroke-opacity:1; fill:none" points="277.37,1445.72 281.408,1445.72 285.446,1445.72 289.484,1445.72 293.522,1445.72 297.56,1445.72 301.598,1445.72 305.636,1445.72 309.674,1445.72 313.712,1445.72 317.75,1445.72 321.788,1445.72 325.826,1445.72 329.863,1445.72 333.901,1445.72 337.939,1445.72 341.977,1445.72 346.015,1445.72 350.053,1445.72 354.091,1445.72 358.129,1445.72 362.167,1445.72 366.205,1445.7 370.243,1445.5 374.281,1445.35 378.319,1445.22 382.357,1445.08 386.395,1444.94 390.433,1444.8 394.471,1444.65 398.509,1444.48 402.547,1444.32 406.585,1444.13 410.623,1443.95 414.66,1443.75 418.698,1443.53 422.736,1443.32 426.774,1443.09 430.812,1442.85 434.85,1442.61 438.888,1442.33 442.926,1442.05 446.964,1441.77 451.002,1441.47 455.04,1441.16 459.078,1440.83 463.116,1440.51 467.154,1440.14 471.192,1439.79 475.23,1439.42 479.268,1439.03 483.306,1438.63 487.344,1438.22 491.382,1437.79 495.419,1437.35 499.457,1436.91 503.495,1436.42 507.533,1435.93 511.571,1435.47 515.609,1434.92 519.647,1434.41 523.685,1433.86 527.723,1433.33 531.761,1432.71 535.799,1432.15 539.837,1431.56 543.875,1430.94 547.913,1430.24 551.951,1429.61 555.989,1428.95 560.027,1428.25 564.065,1427.55 568.103,1426.81 572.141,1426.09 576.179,1425.31 580.216,1424.48 584.254,1423.67 588.292,1422.86 592.33,1422.02 596.368,1421.06 600.406,1420.23 604.444,1419.21 608.482,1418.26 612.52,1417.23 616.558,1416.23 620.596,1414.99 624.634,1413.91 628.672,1412.5 632.71,1410.8 636.748,1409.54 640.786,1408.55 644.824,1407.42 648.862,1406.58 652.9,1405.57 656.938,1404.46 660.975,1403.59 665.013,1402.53 669.051,1401.37 673.089,1400.35 677.127,1399.33 681.165,1398.18 685.203,1397 689.241,1396.03 693.279,1394.9 697.317,1393.69 701.355,1392.56 705.393,1391.38 709.431,1390.17 713.469,1389.06 717.507,1387.79 721.545,1386.57 725.583,1385.43 729.621,1383.96 733.659,1382.94 737.697,1381.62 741.735,1380.06 745.772,1379.15 749.81,1377.71 753.848,1376.41 757.886,1374.83 761.924,1373.75 765.962,1372.54 770,1370.75 774.038,1369.44 778.076,1368.42 782.114,1366.56 786.152,1365.37 790.19,1363.79 794.228,1362.44 798.266,1360.95 802.304,1359.53 806.342,1357.89 810.38,1356.6 814.418,1355.11 818.456,1353.22 822.494,1351.8 826.531,1350.21 830.569,1348.86 834.607,1347.25 838.645,1345.63 842.683,1343.71 846.721,1342.44 850.759,1340.81 854.797,1339.12 858.835,1337.34 862.873,1335.46 866.911,1334.21 870.949,1332.42 874.987,1330.74 879.025,1329.23 883.063,1326.79 887.101,1325.4 891.139,1323.65 895.177,1321.94 899.215,1320.14 903.253,1318.17 907.291,1316.41 911.328,1314.67 915.366,1312.9 919.404,1311.23 923.442,1308.72 927.48,1306.91 931.518,1305.86 935.556,1303.16 939.594,1301.51 943.632,1299.84 947.67,1296.78 951.708,1295.85 955.746,1293.95 959.784,1291.52 963.822,1290.08 967.86,1287.21 971.898,1285.85 975.936,1283.17 979.974,1282.04 984.012,1279.19 988.05,1278.14 992.087,1274.66 996.125,1273.61 1000.16,1270.13 1004.2,1269.65 1008.24,1266.43 1012.28,1265.03 1016.32,1262.31 1020.35,1260.27 1024.39,1258.22 1028.43,1255.19 1032.47,1254.1 1036.5,1252.19 1040.54,1248.44 1044.58,1247.2 1048.62,1244.64 1052.66,1241.73 1056.69,1240.11 1060.73,1238.37 1064.77,1234.7 1068.81,1233.25 1072.85,1231.2 1076.88,1228.8 1080.92,1224.68 1084.96,1223.11 1089,1221.67 1093.04,1219.38 1097.07,1215.7 1101.11,1213.62 1105.15,1211.5 1109.19,1209.19 1113.23,1206.55 1117.26,1203.62 1121.3,1200.59 1125.34,1198.92 1129.38,1196.61 1133.42,1193.78 1137.45,1191.2 1141.49,1188.65 1145.53,1186.05 1149.57,1183.03 1153.61,1181.08 1157.64,1177.65 1161.68,1175.27 1165.72,1172.99 1169.76,1170.14 1173.8,1167 1177.83,1164.32 1181.87,1161.51 1185.91,1159.06 1189.95,1156.78 1193.99,1153.61 1198.02,1150.87 1202.06,1148.23 1206.1,1145.73 1210.14,1142.88 1214.17,1139.27 1218.21,1136.55 1222.25,1133.83 1226.29,1130.99 1230.33,1128.21 1234.36,1125.12 1238.4,1122 1242.44,1119.09 1246.48,1116.29 1250.52,1113.53 1254.55,1109.86 1258.59,1108.79 1262.63,1103.98 1266.67,1100.96 1270.71,1098.22 1274.74,1095.59 1278.78,1092.2 1282.82,1089.75 1286.86,1085.82 1290.9,1081.38 1294.93,1080.1 1298.97,1077.15 1303.01,1074.56 1307.05,1070.17 1311.09,1066.29 1315.12,1063.8 1319.16,1062.77 1323.2,1056.5 1327.24,1052.71 1331.28,1050.58 1335.31,1049.01 1339.35,1045.05 1343.39,1040.91 1347.43,1037.46 1351.47,1035.68 1355.5,1028.3 1359.54,1027.61 1363.58,1027.07 1367.62,1020.32 1371.65,1017.02 1375.69,1015.97 1379.73,1009.22 1383.77,1005.97 1387.81,1004.91 1391.84,999.878 1395.88,996.821 1399.92,994.677 1403.96,987.796 1408,986.91 1412.03,982.397 1416.07,978.444 1420.11,976.974 1424.15,970.067 1428.19,969.173 1432.22,963.923 1436.26,961.039 1440.3,957.653 1444.34,952.25 1448.38,951.414 1452.41,944.2 1456.45,944.699 1460.49,935.922 1464.53,937.123 1468.57,928.549 1472.6,930.301 1476.64,920.668 1480.68,922.018 1484.72,912.269 1488.76,914.039 1492.79,904.768 1496.83,907.218 1500.87,898.647 1504.91,897.455 1508.95,889.433 1512.98,888.087 1517.02,883.904 1521.06,880.508 1525.1,880.041 1529.13,869.654 1533.17,867.867 1537.21,860.571 1541.25,860.697 1545.29,859.022 1549.32,849.029 1553.36,847.401 1557.4,847.808 1561.44,834.694 1565.48,836.433 1569.51,826.625 1573.55,825.108 1577.59,825.373 1581.63,822.378 1585.67,810.512 1589.7,808.496 1593.74,803.613 1597.78,798.557 1601.82,796.479 1605.86,793.041 1609.89,786.196 1613.93,784.503 1617.97,778.623 1622.01,777.529 1626.05,763.643 1630.08,763.626 1634.12,760.014 1638.16,759.285 1642.2,751.207 1646.24,744.801 1650.27,745.684 1654.31,738.767 1658.35,732.773 1662.39,720.91 1666.43,722.055 1670.46,716.674 1674.5,716.286 1678.54,712.265 1682.58,705.711 1686.62,706.277 1690.65,694.954 1694.69,680.143 1698.73,683.708 1702.77,678.479 1706.8,674.282 1710.84,672.301 1714.88,664.905 1718.92,667.223 1722.96,662.587 1726.99,648.835 1731.03,644.221 1735.07,635.852 1739.11,634.492 1743.15,624.798 1747.18,625.197 1751.22,617.621 1755.26,618.351 1759.3,615.784 1763.34,622.094 1767.37,604.503 1771.41,626.612 1775.45,632.544 1779.49,635.013 1783.53,635.236 1787.56,642.79 1791.6,637.961 1795.64,643.027 1799.68,639.237 1803.72,642.73 1807.75,639.751 1811.79,638.162 1815.83,640.67 1819.87,636.816 1823.91,638.692 1827.94,634.501 1831.98,632.705 1836.02,635.072 1840.06,630.745 1844.1,627.577 1848.13,628.319 1852.17,627.793 1856.21,622.254 1860.25,620.245 1864.28,621.359 1868.32,619.036 1872.36,613.773 1876.4,612.203 1880.44,609.791 1884.47,608.944 1888.51,605.344 1892.55,603.718 1896.59,600.622 1900.63,595.988 1904.66,594.337 1908.7,591.967 1912.74,587.654 1916.78,585.075 1920.82,582.948 1924.85,579.165 1928.89,574.879 1932.93,572.743 1936.97,569.508 1941.01,561.974 1945.04,561.15 1949.08,559.633 1953.12,553.634 1957.16,549.031 1961.2,544.855 1965.23,542.273 1969.27,536.321 1973.31,532.698 1977.35,528.051 1981.39,520.914 1985.42,520.69 1989.46,509.26 1993.5,505.485 1997.54,504.818 2001.58,492.01 2005.61,487.906 2009.65,482.634 2013.69,472.626 2017.73,469.467 2021.77,454.754 2025.8,449.082 2029.84,440.105 2033.88,429.601 2037.92,416.753 2041.95,402.339 2045.99,388.011 2050.03,366.83 2054.07,350.771 2058.11,321.258 2062.14,291.941 2066.18,229.983 2070.22,153.427 2074.26,124.124 2078.3,108.882 2082.33,117.51 2086.37,101.545 2090.41,92.963 2094.45,87.9763 2098.49,150.153 2102.52,1445.72 2106.56,1445.72 2110.6,1445.72 2114.64,1445.72 2118.68,1445.72 2122.71,1445.72 2126.75,1445.72 2130.79,1445.72 2134.83,1445.72 2138.87,1445.72 2142.9,1445.72 2146.94,1445.72 2150.98,1445.72 2155.02,1445.72 2159.06,1445.72 2163.09,1445.72 2167.13,1445.72 2171.17,1445.72 2175.21,1445.72 2179.25,1445.72 2183.28,1445.72 2187.32,1445.72 2191.36,1445.72 2195.4,1445.72 2199.43,1445.72 2203.47,1445.72 2207.51,1445.72 2211.55,1445.72 2215.59,1445.72 2219.62,1445.72 2223.66,1445.72 2227.7,1445.72 2231.74,1445.72 2235.78,1445.72 2239.81,1445.72 2243.85,1445.72 2247.89,1445.72 2251.93,1445.72 2255.97,1445.72 2260,1445.72 2264.04,1445.72 2268.08,1445.72 2272.12,1445.72 2276.16,1445.72 2280.19,1445.72 2284.23,1445.72 2288.27,1445.72 2292.31,1445.72 "/>
</svg>
