<?xml version="1.0" encoding="utf-8"?>
<svg xmlns="http://www.w3.org/2000/svg" xmlns:xlink="http://www.w3.org/1999/xlink" width="600" height="400" viewBox="0 0 2400 1600">
<defs>
  <clipPath id="clip910">
    <rect x="0" y="0" width="2400" height="1600"/>
  </clipPath>
</defs>
<path clip-path="url(#clip910)" d="M0 1600 L2400 1600 L2400 0 L0 0  Z" fill="#ffffff" fill-rule="evenodd" fill-opacity="1"/>
<defs>
  <clipPath id="clip911">
    <rect x="480" y="0" width="1681" height="1600"/>
  </clipPath>
</defs>
<path clip-path="url(#clip910)" d="M546.209 1486.45 L1985.41 1486.45 L1985.41 47.2441 L546.209 47.2441  Z" fill="#ffffff" fill-rule="evenodd" fill-opacity="1"/>
<defs>
  <clipPath id="clip912">
    <rect x="546" y="47" width="1440" height="1440"/>
  </clipPath>
</defs>
<polyline clip-path="url(#clip912)" style="stroke:#000000; stroke-linecap:round; stroke-linejoin:round; stroke-width:2; stroke-opacity:0.1; fill:none" points="546.209,1486.45 546.209,47.2441 "/>
<polyline clip-path="url(#clip912)" style="stroke:#000000; stroke-linecap:round; stroke-linejoin:round; stroke-width:2; stroke-opacity:0.1; fill:none" points="906.01,1486.45 906.01,47.2441 "/>
<polyline clip-path="url(#clip912)" style="stroke:#000000; stroke-linecap:round; stroke-linejoin:round; stroke-width:2; stroke-opacity:0.1; fill:none" points="1265.81,1486.45 1265.81,47.2441 "/>
<polyline clip-path="url(#clip912)" style="stroke:#000000; stroke-linecap:round; stroke-linejoin:round; stroke-width:2; stroke-opacity:0.1; fill:none" points="1625.61,1486.45 1625.61,47.2441 "/>
<polyline clip-path="url(#clip912)" style="stroke:#000000; stroke-linecap:round; stroke-linejoin:round; stroke-width:2; stroke-opacity:0.1; fill:none" points="1985.41,1486.45 1985.41,47.2441 "/>
<polyline clip-path="url(#clip910)" style="stroke:#000000; stroke-linecap:round; stroke-linejoin:round; stroke-width:4; stroke-opacity:1; fill:none" points="546.209,1486.45 1985.41,1486.45 "/>
<polyline clip-path="url(#clip910)" style="stroke:#000000; stroke-linecap:round; stroke-linejoin:round; stroke-width:4; stroke-opacity:1; fill:none" points="546.209,1486.45 546.209,1467.55 "/>
<polyline clip-path="url(#clip910)" style="stroke:#000000; stroke-linecap:round; stroke-linejoin:round; stroke-width:4; stroke-opacity:1; fill:none" points="906.01,1486.45 906.01,1467.55 "/>
<polyline clip-path="url(#clip910)" style="stroke:#000000; stroke-linecap:round; stroke-linejoin:round; stroke-width:4; stroke-opacity:1; fill:none" points="1265.81,1486.45 1265.81,1467.55 "/>
<polyline clip-path="url(#clip910)" style="stroke:#000000; stroke-linecap:round; stroke-linejoin:round; stroke-width:4; stroke-opacity:1; fill:none" points="1625.61,1486.45 1625.61,1467.55 "/>
<polyline clip-path="url(#clip910)" style="stroke:#000000; stroke-linecap:round; stroke-linejoin:round; stroke-width:4; stroke-opacity:1; fill:none" points="1985.41,1486.45 1985.41,1467.55 "/>
<path clip-path="url(#clip910)" d="M500.272 1532.02 L529.948 1532.02 L529.948 1535.95 L500.272 1535.95 L500.272 1532.02 Z" fill="#000000" fill-rule="nonzero" fill-opacity="1" /><path clip-path="url(#clip910)" d="M540.851 1544.91 L548.489 1544.91 L548.489 1518.55 L540.179 1520.21 L540.179 1515.95 L548.443 1514.29 L553.119 1514.29 L553.119 1544.91 L560.758 1544.91 L560.758 1548.85 L540.851 1548.85 L540.851 1544.91 Z" fill="#000000" fill-rule="nonzero" fill-opacity="1" /><path clip-path="url(#clip910)" d="M580.202 1517.37 Q576.591 1517.37 574.762 1520.93 Q572.957 1524.47 572.957 1531.6 Q572.957 1538.71 574.762 1542.27 Q576.591 1545.82 580.202 1545.82 Q583.836 1545.82 585.642 1542.27 Q587.471 1538.71 587.471 1531.6 Q587.471 1524.47 585.642 1520.93 Q583.836 1517.37 580.202 1517.37 M580.202 1513.66 Q586.012 1513.66 589.068 1518.27 Q592.147 1522.85 592.147 1531.6 Q592.147 1540.33 589.068 1544.94 Q586.012 1549.52 580.202 1549.52 Q574.392 1549.52 571.313 1544.94 Q568.258 1540.33 568.258 1531.6 Q568.258 1522.85 571.313 1518.27 Q574.392 1513.66 580.202 1513.66 Z" fill="#000000" fill-rule="nonzero" fill-opacity="1" /><path clip-path="url(#clip910)" d="M875.652 1532.02 L905.327 1532.02 L905.327 1535.95 L875.652 1535.95 L875.652 1532.02 Z" fill="#000000" fill-rule="nonzero" fill-opacity="1" /><path clip-path="url(#clip910)" d="M915.466 1514.29 L933.823 1514.29 L933.823 1518.22 L919.749 1518.22 L919.749 1526.7 Q920.767 1526.35 921.786 1526.19 Q922.804 1526 923.823 1526 Q929.61 1526 932.989 1529.17 Q936.369 1532.34 936.369 1537.76 Q936.369 1543.34 932.897 1546.44 Q929.425 1549.52 923.105 1549.52 Q920.929 1549.52 918.661 1549.15 Q916.415 1548.78 914.008 1548.04 L914.008 1543.34 Q916.091 1544.47 918.313 1545.03 Q920.536 1545.58 923.013 1545.58 Q927.017 1545.58 929.355 1543.48 Q931.693 1541.37 931.693 1537.76 Q931.693 1534.15 929.355 1532.04 Q927.017 1529.94 923.013 1529.94 Q921.138 1529.94 919.263 1530.35 Q917.411 1530.77 915.466 1531.65 L915.466 1514.29 Z" fill="#000000" fill-rule="nonzero" fill-opacity="1" /><path clip-path="url(#clip910)" d="M1265.81 1517.37 Q1262.2 1517.37 1260.37 1520.93 Q1258.57 1524.47 1258.57 1531.6 Q1258.57 1538.71 1260.37 1542.27 Q1262.2 1545.82 1265.81 1545.82 Q1269.45 1545.82 1271.25 1542.27 Q1273.08 1538.71 1273.08 1531.6 Q1273.08 1524.47 1271.25 1520.93 Q1269.45 1517.37 1265.81 1517.37 M1265.81 1513.66 Q1271.62 1513.66 1274.68 1518.27 Q1277.76 1522.85 1277.76 1531.6 Q1277.76 1540.33 1274.68 1544.94 Q1271.62 1549.52 1265.81 1549.52 Q1260 1549.52 1256.92 1544.94 Q1253.87 1540.33 1253.87 1531.6 Q1253.87 1522.85 1256.92 1518.27 Q1260 1513.66 1265.81 1513.66 Z" fill="#000000" fill-rule="nonzero" fill-opacity="1" /><path clip-path="url(#clip910)" d="M1615.89 1514.29 L1634.25 1514.29 L1634.25 1518.22 L1620.17 1518.22 L1620.17 1526.7 Q1621.19 1526.35 1622.21 1526.19 Q1623.23 1526 1624.25 1526 Q1630.03 1526 1633.41 1529.17 Q1636.79 1532.34 1636.79 1537.76 Q1636.79 1543.34 1633.32 1546.44 Q1629.85 1549.52 1623.53 1549.52 Q1621.35 1549.52 1619.08 1549.15 Q1616.84 1548.78 1614.43 1548.04 L1614.43 1543.34 Q1616.52 1544.47 1618.74 1545.03 Q1620.96 1545.58 1623.44 1545.58 Q1627.44 1545.58 1629.78 1543.48 Q1632.12 1541.37 1632.12 1537.76 Q1632.12 1534.15 1629.78 1532.04 Q1627.44 1529.94 1623.44 1529.94 Q1621.56 1529.94 1619.69 1530.35 Q1617.83 1530.77 1615.89 1531.65 L1615.89 1514.29 Z" fill="#000000" fill-rule="nonzero" fill-opacity="1" /><path clip-path="url(#clip910)" d="M1960.1 1544.91 L1967.74 1544.91 L1967.74 1518.55 L1959.43 1520.21 L1959.43 1515.95 L1967.69 1514.29 L1972.37 1514.29 L1972.37 1544.91 L1980.01 1544.91 L1980.01 1548.85 L1960.1 1548.85 L1960.1 1544.91 Z" fill="#000000" fill-rule="nonzero" fill-opacity="1" /><path clip-path="url(#clip910)" d="M1999.45 1517.37 Q1995.84 1517.37 1994.01 1520.93 Q1992.21 1524.47 1992.21 1531.6 Q1992.21 1538.71 1994.01 1542.27 Q1995.84 1545.82 1999.45 1545.82 Q2003.09 1545.82 2004.89 1542.27 Q2006.72 1538.71 2006.72 1531.6 Q2006.72 1524.47 2004.89 1520.93 Q2003.09 1517.37 1999.45 1517.37 M1999.45 1513.66 Q2005.26 1513.66 2008.32 1518.27 Q2011.4 1522.85 2011.4 1531.6 Q2011.4 1540.33 2008.32 1544.94 Q2005.26 1549.52 1999.45 1549.52 Q1993.64 1549.52 1990.56 1544.94 Q1987.51 1540.33 1987.51 1531.6 Q1987.51 1522.85 1990.56 1518.27 Q1993.64 1513.66 1999.45 1513.66 Z" fill="#000000" fill-rule="nonzero" fill-opacity="1" /><polyline clip-path="url(#clip912)" style="stroke:#000000; stroke-linecap:round; stroke-linejoin:round; stroke-width:2; stroke-opacity:0.1; fill:none" points="546.209,1486.45 1985.41,1486.45 "/>
<polyline clip-path="url(#clip912)" style="stroke:#000000; stroke-linecap:round; stroke-linejoin:round; stroke-width:2; stroke-opacity:0.1; fill:none" points="546.209,1126.65 1985.41,1126.65 "/>
<polyline clip-path="url(#clip912)" style="stroke:#000000; stroke-linecap:round; stroke-linejoin:round; stroke-width:2; stroke-opacity:0.1; fill:none" points="546.209,766.846 1985.41,766.846 "/>
<polyline clip-path="url(#clip912)" style="stroke:#000000; stroke-linecap:round; stroke-linejoin:round; stroke-width:2; stroke-opacity:0.1; fill:none" points="546.209,407.045 1985.41,407.045 "/>
<polyline clip-path="url(#clip912)" style="stroke:#000000; stroke-linecap:round; stroke-linejoin:round; stroke-width:2; stroke-opacity:0.1; fill:none" points="546.209,47.2441 1985.41,47.2441 "/>
<polyline clip-path="url(#clip910)" style="stroke:#000000; stroke-linecap:round; stroke-linejoin:round; stroke-width:4; stroke-opacity:1; fill:none" points="546.209,1486.45 546.209,47.2441 "/>
<polyline clip-path="url(#clip910)" style="stroke:#000000; stroke-linecap:round; stroke-linejoin:round; stroke-width:4; stroke-opacity:1; fill:none" points="546.209,1486.45 558.72,1486.45 "/>
<polyline clip-path="url(#clip910)" style="stroke:#000000; stroke-linecap:round; stroke-linejoin:round; stroke-width:4; stroke-opacity:1; fill:none" points="546.209,1126.65 558.72,1126.65 "/>
<polyline clip-path="url(#clip910)" style="stroke:#000000; stroke-linecap:round; stroke-linejoin:round; stroke-width:4; stroke-opacity:1; fill:none" points="546.209,766.846 558.72,766.846 "/>
<polyline clip-path="url(#clip910)" style="stroke:#000000; stroke-linecap:round; stroke-linejoin:round; stroke-width:4; stroke-opacity:1; fill:none" points="546.209,407.045 558.72,407.045 "/>
<polyline clip-path="url(#clip910)" style="stroke:#000000; stroke-linecap:round; stroke-linejoin:round; stroke-width:4; stroke-opacity:1; fill:none" points="546.209,47.2441 558.72,47.2441 "/>
<path clip-path="url(#clip910)" d="M418.335 1486.9 L448.011 1486.9 L448.011 1490.83 L418.335 1490.83 L418.335 1486.9 Z" fill="#000000" fill-rule="nonzero" fill-opacity="1" /><path clip-path="url(#clip910)" d="M458.913 1499.79 L466.552 1499.79 L466.552 1473.43 L458.242 1475.09 L458.242 1470.83 L466.506 1469.17 L471.182 1469.17 L471.182 1499.79 L478.821 1499.79 L478.821 1503.73 L458.913 1503.73 L458.913 1499.79 Z" fill="#000000" fill-rule="nonzero" fill-opacity="1" /><path clip-path="url(#clip910)" d="M498.265 1472.25 Q494.654 1472.25 492.825 1475.81 Q491.02 1479.35 491.02 1486.48 Q491.02 1493.59 492.825 1497.15 Q494.654 1500.7 498.265 1500.7 Q501.899 1500.7 503.705 1497.15 Q505.533 1493.59 505.533 1486.48 Q505.533 1479.35 503.705 1475.81 Q501.899 1472.25 498.265 1472.25 M498.265 1468.54 Q504.075 1468.54 507.131 1473.15 Q510.209 1477.73 510.209 1486.48 Q510.209 1495.21 507.131 1499.82 Q504.075 1504.4 498.265 1504.4 Q492.455 1504.4 489.376 1499.82 Q486.321 1495.21 486.321 1486.48 Q486.321 1477.73 489.376 1473.15 Q492.455 1468.54 498.265 1468.54 Z" fill="#000000" fill-rule="nonzero" fill-opacity="1" /><path clip-path="url(#clip910)" d="M449.492 1127.1 L479.168 1127.1 L479.168 1131.03 L449.492 1131.03 L449.492 1127.1 Z" fill="#000000" fill-rule="nonzero" fill-opacity="1" /><path clip-path="url(#clip910)" d="M489.307 1109.37 L507.663 1109.37 L507.663 1113.3 L493.589 1113.3 L493.589 1121.77 Q494.608 1121.43 495.626 1121.27 Q496.645 1121.08 497.663 1121.08 Q503.45 1121.08 506.83 1124.25 Q510.209 1127.42 510.209 1132.84 Q510.209 1138.42 506.737 1141.52 Q503.265 1144.6 496.946 1144.6 Q494.77 1144.6 492.501 1144.23 Q490.256 1143.86 487.848 1143.12 L487.848 1138.42 Q489.932 1139.55 492.154 1140.11 Q494.376 1140.66 496.853 1140.66 Q500.858 1140.66 503.196 1138.56 Q505.533 1136.45 505.533 1132.84 Q505.533 1129.23 503.196 1127.12 Q500.858 1125.01 496.853 1125.01 Q494.978 1125.01 493.103 1125.43 Q491.251 1125.85 489.307 1126.73 L489.307 1109.37 Z" fill="#000000" fill-rule="nonzero" fill-opacity="1" /><path clip-path="url(#clip910)" d="M498.265 752.645 Q494.654 752.645 492.825 756.209 Q491.02 759.751 491.02 766.881 Q491.02 773.987 492.825 777.552 Q494.654 781.094 498.265 781.094 Q501.899 781.094 503.705 777.552 Q505.533 773.987 505.533 766.881 Q505.533 759.751 503.705 756.209 Q501.899 752.645 498.265 752.645 M498.265 748.941 Q504.075 748.941 507.131 753.547 Q510.209 758.131 510.209 766.881 Q510.209 775.608 507.131 780.214 Q504.075 784.797 498.265 784.797 Q492.455 784.797 489.376 780.214 Q486.321 775.608 486.321 766.881 Q486.321 758.131 489.376 753.547 Q492.455 748.941 498.265 748.941 Z" fill="#000000" fill-rule="nonzero" fill-opacity="1" /><path clip-path="url(#clip910)" d="M489.307 389.765 L507.663 389.765 L507.663 393.7 L493.589 393.7 L493.589 402.172 Q494.608 401.825 495.626 401.663 Q496.645 401.478 497.663 401.478 Q503.45 401.478 506.83 404.649 Q510.209 407.82 510.209 413.237 Q510.209 418.816 506.737 421.918 Q503.265 424.996 496.946 424.996 Q494.77 424.996 492.501 424.626 Q490.256 424.256 487.848 423.515 L487.848 418.816 Q489.932 419.95 492.154 420.506 Q494.376 421.061 496.853 421.061 Q500.858 421.061 503.196 418.955 Q505.533 416.848 505.533 413.237 Q505.533 409.626 503.196 407.52 Q500.858 405.413 496.853 405.413 Q494.978 405.413 493.103 405.83 Q491.251 406.246 489.307 407.126 L489.307 389.765 Z" fill="#000000" fill-rule="nonzero" fill-opacity="1" /><path clip-path="url(#clip910)" d="M458.913 60.5889 L466.552 60.5889 L466.552 34.2233 L458.242 35.89 L458.242 31.6308 L466.506 29.9641 L471.182 29.9641 L471.182 60.5889 L478.821 60.5889 L478.821 64.5241 L458.913 64.5241 L458.913 60.5889 Z" fill="#000000" fill-rule="nonzero" fill-opacity="1" /><path clip-path="url(#clip910)" d="M498.265 33.0428 Q494.654 33.0428 492.825 36.6076 Q491.02 40.1492 491.02 47.2788 Q491.02 54.3853 492.825 57.9501 Q494.654 61.4917 498.265 61.4917 Q501.899 61.4917 503.705 57.9501 Q505.533 54.3853 505.533 47.2788 Q505.533 40.1492 503.705 36.6076 Q501.899 33.0428 498.265 33.0428 M498.265 29.3391 Q504.075 29.3391 507.131 33.9456 Q510.209 38.5289 510.209 47.2788 Q510.209 56.0056 507.131 60.6121 Q504.075 65.1954 498.265 65.1954 Q492.455 65.1954 489.376 60.6121 Q486.321 56.0056 486.321 47.2788 Q486.321 38.5289 489.376 33.9456 Q492.455 29.3391 498.265 29.3391 Z" fill="#000000" fill-rule="nonzero" fill-opacity="1" /><polyline clip-path="url(#clip912)" style="stroke:#009af9; stroke-linecap:round; stroke-linejoin:round; stroke-width:4; stroke-opacity:1; fill:none" points="1227.29,979.262 1264.61,982.723 1301.97,979.677 1338.24,970.214 1372.32,954.621 1403.2,933.368 1429.93,907.094 1451.71,876.593 1467.9,842.783 1477.98,806.685 1481.68,769.385 1478.86,732.009 1469.63,695.683 1454.24,661.502 1433.18,630.497 1407.08,603.602 1376.71,581.628 1343,565.238 1306.97,554.925 1269.69,551 1232.3,553.582 1195.92,562.594 1161.64,577.762 1130.5,598.63 1103.45,624.569 1081.29,654.798 1064.69,688.403 1054.15,724.374 1049.99,761.625 1052.34,799.033 1061.13,835.471 1076.08,869.84 1096.76,901.105 1122.53,928.322 1152.62,950.671 1186.12,967.48 1222.02,978.239 1259.25,982.627 1296.67,980.509 1333.16,971.951 1367.62,957.21 1399.02,936.73 1426.39,911.129 1448.93,881.179 1465.95,847.782 1476.93,811.945 1481.55,774.748 1479.66,737.314 1471.33,700.77 1456.8,666.217 1436.52,634.698 1411.09,607.163 1381.28,584.441 1347.99,567.218 1312.22,556.013 1275.05,551.163 1237.61,552.816 1201.01,560.92 1166.37,575.232 1134.73,595.32 1107.03,620.579 1084.13,650.247 1066.7,683.43 1055.27,719.127 1050.19,756.263 1051.61,793.719 1059.49,830.364 1073.58,865.094 1093.47,896.862 1118.56,924.712 1148.09,947.802 1181.16,965.437 1216.79,977.086 1253.89,982.397 1291.35,981.21 1328.05,973.561 1362.86,959.681 1394.75,939.988 1422.76,915.075 1446.03,885.694 1463.87,852.73 1475.74,817.177 1481.28,780.107 1480.33,742.637 1472.91,705.897 1459.25,670.994 1439.75,638.981 1415.01,610.822 1385.78,587.367 1352.92,569.322 1317.45,557.231 1280.41,551.46 1242.94,552.181 1206.15,559.373 1171.16,572.82 1139.03,592.115 1110.72,616.678 1087.08,645.768 1068.83,678.508 1056.52,713.91 1050.52,750.909 1051.01,788.387 1057.97,825.217 1071.2,860.287 1090.3,892.54 1114.68,921.004 1143.63,944.821 1176.25,963.272 1211.58,975.803 1248.54,982.034 1286.02,981.779 1322.89,975.044 1358.04,962.033 1390.41,943.139 1419.03,918.929 1443.02,890.136 1461.68,857.625 1474.43,822.378 1480.89,785.457 1480.87,747.975 1474.36,711.062 1461.57,675.831 1442.87,643.343 1418.84,614.578 1390.2,590.403 1357.81,571.548 1322.64,558.579 1285.76,551.889 1248.28,551.679 1211.32,557.955 1176.01,570.528 1143.41,589.019 1114.5,612.871 1090.14,641.364 1071.09,673.64 1057.9,708.726 1050.98,745.564 1050.54,783.043 1056.59,820.034 1068.94,855.422 1087.23,888.139 1110.9,917.201 1139.24,941.729 1171.4,960.986 1206.4,974.391 1243.19,981.539 1280.67,982.215 1317.7,976.398 1353.16,964.265 1385.99,946.18 1415.2,922.69 1439.9,894.501 1459.36,862.464 1472.98,827.545 1480.36,790.796 1481.27,753.325 1475.68,716.262 1463.77,680.723 1445.89,647.781 1422.58,618.428 1394.55,593.549 1362.63,573.894 1327.8,560.056 1291.09,552.451 1253.63,551.309 1216.53,556.665 1180.92,568.357 1147.87,586.032 1118.37,609.158 1093.32,637.037 1073.46,668.83 1059.41,703.577 1051.58,740.232 1050.2,777.688 1055.33,814.818 1066.8,850.502 1084.27,883.664 1107.21,913.305 1134.93,938.53 1166.6,958.58 1201.26,972.85 1237.87,980.91 1275.31,982.517 1312.48,977.623 1348.23,966.375 1381.5,949.111 1411.28,926.354 1436.68,898.788 1456.93,867.245 1471.41,832.675 1479.7,796.12 1481.54,758.683 1476.87,721.493 1465.85,685.669 1448.79,652.293 1426.22,622.369 1398.81,596.801 1367.4,576.359 1332.92,561.66 1296.41,553.145 1258.99,551.073 1221.77,555.505 1185.88,566.309 1152.4,583.157 1122.33,605.543 1096.6,632.791 1075.96,664.08 1061.05,698.468 1052.31,734.916 1050,772.327 1054.2,809.573 1064.78,845.531 1081.42,879.117 1103.62,909.318 1130.71,935.225 1161.87,956.056 1196.16,971.182 1232.56,980.15 1269.95,982.687 1307.22,978.717 1343.25,968.361 1376.93,951.93 1407.27,929.92 1433.35,902.993 1454.37,871.963 1469.71,837.763 1478.9,801.426 1481.67,764.047 1477.94,726.752 1467.8,690.665 1451.58,656.875 1429.76,626.4 1403,600.159 1372.1,578.943 1337.99,563.391 1301.71,553.972 1264.35,550.97 1227.04,554.476 1190.89,564.384 1157,580.395 1126.39,602.027 1099.98,628.627 1078.57,659.394 1062.81,693.4 1053.16,729.621 1049.93,766.963 1053.2,804.301 1062.89,840.511 1078.69,874.5 1100.13,905.244 1126.57,931.815 1157.2,953.414 1191.11,969.389 1227.27,979.257 1264.59,982.723 1301.95,979.681 1338.21,970.223 1372.3,954.634 1403.18,933.384 1429.91,907.114 1451.7,876.616 1467.89,842.808 1477.98,806.711 1481.68,769.412 1478.87,732.035 1469.63,695.708 1454.26,661.525 1433.2,630.518 1407.1,603.619 1376.73,581.642 1343.03,565.247 1306.99,554.93 1269.72,551.001 1232.32,553.578 1195.94,562.585 1161.66,577.749 1130.53,598.613 1103.47,624.549 1081.3,654.775 1064.7,688.379 1054.16,724.348 1049.99,761.598 1052.34,799.007 1061.12,835.446 1076.07,869.817 1096.74,901.084 1122.51,928.304 1152.6,950.658 1186.1,967.47 1222,978.234 1259.22,982.626 1296.65,980.513 1333.14,971.959 1367.6,957.222 1399,936.747 1426.38,911.149 1448.92,881.201 1465.94,847.806 1476.92,811.971 1481.55,774.775 1479.67,737.34 1471.34,700.795 1456.82,666.241 1436.54,634.719 1411.11,607.181 1381.3,584.455 1348.01,567.228 1312.25,556.019 1275.08,551.165 1237.63,552.812 1201.04,560.912 1166.39,575.219 1134.75,595.304 1107.05,620.559 1084.14,650.224 1066.71,683.405 1055.28,719.101 1050.19,756.237 1051.61,793.692 1059.48,830.338 1073.57,865.07 1093.46,896.841 1118.54,924.693 1148.06,947.787 1181.13,965.427 1216.76,977.08 1253.86,982.396 1291.33,981.213 1328.02,973.569 1362.84,959.693 1394.73,940.004 1422.74,915.094 1446.02,885.716 1463.86,852.754 1475.74,817.203 1481.28,780.134 1480.33,742.664 1472.92,705.923 1459.26,671.018 1439.77,639.003 1415.03,610.841 1385.8,587.382 1352.95,569.333 1317.47,557.238 1280.44,551.461 1242.96,552.178 1206.18,559.366 1171.19,572.808 1139.05,592.1 1110.74,616.659 1087.1,645.746 1068.84,678.483 1056.53,713.884 1050.52,750.882 1051.01,788.361 1057.96,825.191 1071.19,860.263 1090.28,892.518 1114.66,920.985 1143.6,944.805 1176.23,963.261 1211.55,975.796 1248.51,982.032 1285.99,981.781 1322.86,975.051 1358.02,962.045 1390.39,943.154 1419.01,918.948 1443.01,890.157 1461.67,857.649 1474.42,822.404 1480.89,785.484 1480.87,748.002 1474.37,711.088 1461.58,675.855 1442.89,643.365 1418.86,614.597 1390.22,590.419 1357.83,571.559 1322.66,558.586 1285.79,551.891 1248.3,551.677 1211.35,557.948 1176.04,570.517 1143.43,589.004 1114.52,612.852 1090.16,641.342 1071.1,673.616 1057.91,708.7 1050.98,745.537 1050.54,783.016 1056.58,820.008 1068.93,855.397 1087.21,888.117 1110.88,917.181 1139.22,941.714 1171.37,960.974 1206.37,974.383 1243.17,981.536 1280.64,982.216 "/>
<polyline clip-path="url(#clip912)" style="stroke:#e26f46; stroke-linecap:round; stroke-linejoin:round; stroke-width:4; stroke-opacity:1; fill:none" points="1553.65,766.846 1552.51,741.278 1549.11,715.912 1543.47,690.948 1535.63,666.585 1525.65,643.014 1513.63,620.423 1499.64,598.989 1483.81,578.882 1466.25,560.261 1447.11,543.273 1426.53,528.053 1404.68,514.721 1381.74,503.382 1357.88,494.126 1333.29,487.026 1308.16,482.138 1282.71,479.502 1257.12,479.137 1231.59,481.046 1206.34,485.215 1181.56,491.611 1157.45,500.183 1134.19,510.863 1111.97,523.566 1090.97,538.194 1071.35,554.628 1053.27,572.741 1036.86,592.388 1022.27,613.415 1009.61,635.654 998.966,658.931 990.435,683.061 984.081,707.853 979.954,733.112 978.088,758.637 978.496,784.227 981.175,809.68 986.105,834.794 993.247,859.371 1002.54,883.217 1013.92,906.142 1027.29,927.966 1042.54,948.517 1059.56,967.631 1078.22,985.158 1098.35,1000.96 1119.81,1014.91 1142.42,1026.9 1166.01,1036.83 1190.38,1044.63 1215.36,1050.23 1240.73,1053.59 1266.3,1054.69 1291.86,1053.51 1317.22,1050.06 1342.18,1044.37 1366.53,1036.49 1390.08,1026.48 1412.65,1014.41 1434.06,1000.39 1454.14,984.523 1472.73,966.934 1489.69,947.762 1504.88,927.16 1518.17,905.291 1529.47,882.328 1538.69,858.451 1545.74,833.85 1550.59,808.719 1553.18,783.257 1553.51,757.666 1551.55,732.147 1547.34,706.902 1540.9,682.132 1532.29,658.031 1521.57,634.79 1508.83,612.594 1494.17,591.617 1477.7,572.025 1459.56,553.973 1439.88,537.605 1418.83,523.049 1396.57,510.42 1373.28,499.819 1349.13,491.328 1324.33,485.016 1299.06,480.932 1273.53,479.109 1247.95,479.56 1222.5,482.283 1197.39,487.255 1172.83,494.438 1149,503.775 1126.09,515.191 1104.29,528.597 1083.76,543.886 1064.68,560.938 1047.18,579.618 1031.42,599.779 1017.5,621.26 1005.55,643.892 995.66,667.496 987.903,691.886 982.343,716.868 979.024,742.245 977.972,767.817 979.196,793.382 982.686,818.736 988.415,843.68 996.336,868.017 1006.39,891.554 1018.49,914.105 1032.55,935.492 1048.45,955.545 1066.07,974.107 1085.27,991.029 1105.9,1006.18 1127.79,1019.44 1150.77,1030.7 1174.67,1039.88 1199.28,1046.89 1224.42,1051.69 1249.88,1054.25 1275.48,1054.52 1300.99,1052.53 1326.23,1048.27 1350.99,1041.8 1375.08,1033.14 1398.3,1022.38 1420.47,1009.6 1441.43,994.907 1460.99,978.406 1479.01,960.233 1495.35,940.53 1509.87,919.455 1522.46,897.172 1533.02,873.86 1541.47,849.701 1547.74,824.888 1551.78,799.615 1553.56,774.084 1553.07,748.495 1550.3,723.052 1545.29,697.954 1538.06,673.401 1528.69,649.587 1517.23,626.7 1503.79,604.922 1488.46,584.423 1471.38,565.366 1452.67,547.903 1432.48,532.17 1410.98,518.292 1388.33,506.38 1364.71,496.527 1340.3,488.811 1315.31,483.293 1289.93,480.017 1264.35,479.009 1238.79,480.276 1213.44,483.809 1188.51,489.58 1164.19,497.542 1140.67,507.634 1118.14,519.775 1096.77,533.869 1076.75,549.806 1058.21,567.458 1041.32,586.686 1026.21,607.339 1012.99,629.253 1001.76,652.255 992.629,676.163 985.653,700.787 980.893,725.934 978.385,751.404 978.15,776.997 980.188,802.509 984.485,827.739 991.006,852.488 999.7,876.56 1010.5,899.764 1023.31,921.918 1038.05,942.845 1054.58,962.381 1072.78,980.371 1092.51,996.673 1113.61,1011.16 1135.92,1023.71 1159.25,1034.23 1183.42,1042.64 1208.25,1048.87 1233.52,1052.87 1259.06,1054.61 1284.65,1054.07 1310.09,1051.26 1335.17,1046.2 1359.72,1038.94 1383.51,1029.52 1406.38,1018.03 1428.14,1004.55 1448.61,989.19 1467.64,972.074 1485.07,953.335 1500.77,933.121 1514.61,911.593 1526.48,888.921 1536.3,865.284 1543.97,840.868 1549.45,815.867 1552.68,790.478 1553.65,764.903 1552.34,739.343 1548.76,714.001 1542.95,689.076 1534.94,664.766 1524.81,641.263 1512.63,618.753 1498.5,597.414 1482.53,577.415 1464.85,558.913 1445.59,542.054 1424.91,526.974 1402.98,513.789 1379.96,502.605 1356.03,493.511 1331.4,486.577 1306.24,481.859 1280.77,479.394 1255.17,479.202 1229.67,481.284 1204.44,485.623 1179.71,492.186 1155.65,500.92 1132.46,511.757 1110.33,524.61 1089.43,539.379 1069.92,555.946 1051.96,574.18 1035.69,593.937 1021.24,615.062 1008.73,637.386 998.243,660.734 989.875,684.921 983.689,709.756 979.733,735.042 978.039,760.579 978.62,786.166 981.471,811.6 986.57,836.681 993.878,861.209 1003.33,884.991 1014.87,907.839 1028.38,929.573 1043.78,950.02 1060.92,969.018 1079.69,986.419 1099.93,1002.08 1121.48,1015.89 1144.18,1027.72 1167.83,1037.5 1192.26,1045.13 1217.27,1050.56 1242.66,1053.75 1268.24,1054.68 1293.8,1053.32 1319.13,1049.7 1344.05,1043.85 1368.35,1035.81 1391.83,1025.63 1414.32,1013.42 1435.64,999.251 1455.61,983.247 1474.08,965.532 1490.91,946.247 1505.95,925.543 1519.1,903.585 1530.24,880.545 1539.3,856.607 1546.19,831.959 1550.87,806.796 1553.29,781.317 1553.44,755.724 1551.31,730.219 1546.93,705.004 1540.33,680.277 1531.55,656.235 1520.67,633.067 1507.78,610.957 1492.98,590.079 1476.38,570.599 1458.12,552.67 1438.33,536.435 1417.18,522.021 1394.84,509.543 1371.47,499.099 1347.27,490.772 1322.43,484.628 1297.13,480.714 1271.59,479.063 1246.01,479.687 1220.58,482.582 1195.51,487.723 1170.99,495.072 1147.22,504.569 1124.39,516.14 1102.68,529.692 1082.26,545.12 1063.29,562.301 1045.92,581.098 1030.29,601.365 1016.53,622.939 1004.73,645.651 994.995,669.322 987.403,693.763 982.012,718.783 978.864,744.182 977.985,769.76 979.382,795.316 983.043,820.646 988.94,845.551 997.025,869.834 1007.24,893.302 1019.49,915.771 1033.69,937.062 1049.73,957.008 1067.48,975.45 1086.79,992.243 1107.52,1007.25 1129.5,1020.36 1152.56,1031.47 1176.51,1040.48 1201.17,1047.33 1226.34,1051.97 1251.82,1054.35 1277.42,1054.45 1302.92,1052.28 1328.13,1047.86 1352.84,1041.21 1376.87,1032.4 1400.02,1021.48 1422.11,1008.56 1442.96,993.716 1462.41,977.084 1480.31,958.789 1496.51,938.977 1510.89,917.804 1523.33,895.437 1533.74,872.054 1542.02,847.839 1548.12,822.984 1552,797.685 1553.6,772.142 1552.94,746.557 1550,721.132 1544.81,696.069 1537.42,671.566 1527.89,647.816 1516.28,625.007 1502.69,603.319 1487.23,582.924 1470.01,563.983 1451.19,546.646 1430.9,531.05 1409.3,517.318 1386.57,505.559 1362.88,495.866 1338.42,488.315 1313.4,482.966 1287.99,479.861 1262.41,479.025 1236.86,480.465 1211.53,484.169 1186.64,490.108 1162.37,498.234 1138.92,508.484 1116.47,520.777 1095.2,535.016 1075.29,551.087 1056.87,568.863 1040.11,588.206 1025.14,608.96 1012.06,630.963 1001,654.04 992.023,678.009 985.214,702.68 980.623,727.858 978.287,753.345 978.225,778.938 980.436,804.436 984.903,829.637 991.591,854.341 1000.45,878.353 1011.4,901.484 1024.37,923.551 1039.24,944.378 1055.91,963.802 1074.23,981.669 1094.07,997.838 "/>
<polyline clip-path="url(#clip912)" style="stroke:#3da44d; stroke-linecap:round; stroke-linejoin:round; stroke-width:4; stroke-opacity:1; fill:none" points="1625.61,766.846 1625.44,755.84 1624.94,744.844 1624.1,733.868 1622.92,722.923 1621.41,712.02 1619.57,701.168 1617.39,690.377 1614.89,679.658 1612.06,669.02 1608.9,658.474 1605.43,648.03 1601.63,637.697 1597.53,627.484 1593.11,617.402 1588.38,607.46 1583.36,597.667 1578.03,588.032 1572.42,578.565 1566.51,569.274 1560.33,560.168 1553.87,551.255 1547.14,542.545 1540.15,534.044 1532.9,525.761 1525.4,517.703 1517.65,509.879 1509.68,502.295 1501.47,494.959 1493.04,487.878 1484.4,481.057 1475.56,474.504 1466.52,468.225 1457.29,462.225 1447.88,456.511 1438.3,451.086 1428.56,445.958 1418.67,441.129 1408.63,436.606 1398.46,432.391 1388.17,428.49 1377.76,424.905 1367.25,421.641 1356.64,418.699 1345.95,416.084 1335.18,413.796 1324.35,411.839 1313.46,410.215 1302.53,408.924 1291.57,407.968 1280.58,407.348 1269.57,407.065 1258.56,407.118 1247.56,407.508 1236.58,408.234 1225.62,409.296 1214.71,410.693 1203.83,412.423 1193.02,414.485 1182.28,416.876 1171.61,419.595 1161.03,422.64 1150.55,426.006 1140.18,429.691 1129.92,433.692 1119.8,438.005 1109.81,442.625 1099.96,447.549 1090.27,452.772 1080.75,458.289 1071.39,464.094 1062.22,470.183 1053.24,476.55 1044.46,483.188 1035.89,490.092 1027.53,497.255 1019.4,504.67 1011.49,512.331 1003.82,520.23 996.403,528.359 989.234,536.712 982.323,545.28 975.678,554.056 969.305,563.031 963.209,572.196 957.396,581.544 951.872,591.065 946.642,600.751 941.71,610.592 937.082,620.58 932.762,630.704 928.753,640.956 925.06,651.325 921.685,661.803 918.633,672.379 915.906,683.044 913.506,693.786 911.436,704.598 909.698,715.467 908.293,726.385 907.222,737.34 906.487,748.324 906.089,759.324 906.027,770.331 906.302,781.336 906.914,792.326 907.861,803.293 909.144,814.226 910.76,825.114 912.708,835.948 914.988,846.717 917.595,857.412 920.528,868.021 923.785,878.536 927.362,888.946 931.255,899.243 935.462,909.415 939.977,919.453 944.798,929.349 949.919,939.093 955.336,948.676 961.044,958.088 967.037,967.322 973.309,976.367 979.855,985.217 986.669,993.862 993.744,1002.29 1001.07,1010.51 1008.65,1018.49 1016.47,1026.24 1024.52,1033.75 1032.8,1041 1041.29,1048 1050,1054.74 1058.91,1061.21 1068.01,1067.4 1077.3,1073.31 1086.76,1078.93 1096.39,1084.26 1106.18,1089.3 1116.12,1094.03 1126.2,1098.45 1136.4,1102.57 1146.73,1106.37 1157.18,1109.86 1167.72,1113.02 1178.36,1115.86 1189.07,1118.37 1199.86,1120.55 1210.71,1122.4 1221.62,1123.92 1232.56,1125.11 1243.53,1125.96 1254.53,1126.47 1265.54,1126.65 1276.54,1126.49 1287.54,1125.99 1298.51,1125.16 1309.46,1123.99 1320.36,1122.49 1331.22,1120.65 1342.01,1118.49 1352.73,1115.99 1363.37,1113.17 1373.92,1110.02 1384.37,1106.55 1394.7,1102.77 1404.92,1098.67 1415,1094.26 1424.95,1089.54 1434.75,1084.52 1444.39,1079.2 1453.86,1073.6 1463.15,1067.7 1472.26,1061.52 1481.18,1055.07 1489.9,1048.35 1498.4,1041.36 1506.69,1034.12 1514.75,1026.62 1522.59,1018.89 1530.17,1010.91 1537.52,1002.71 1544.61,994.29 1551.43,985.655 1557.99,976.815 1564.28,967.779 1570.29,958.555 1576.01,949.151 1581.44,939.577 1586.57,929.841 1591.41,919.953 1595.94,909.921 1600.16,899.755 1604.07,889.465 1607.67,879.06 1610.94,868.55 1613.89,857.945 1616.51,847.255 1618.81,836.489 1620.77,825.658 1622.41,814.773 1623.71,803.842 1624.67,792.876 1625.3,781.887 1625.59,770.883 1625.54,759.875 1625.16,748.874 1624.45,737.89 1623.39,726.933 1622,716.013 1620.28,705.141 1618.23,694.327 1615.84,683.58 1613.13,672.911 1610.1,662.331 1606.74,651.848 1603.06,641.473 1599.07,631.215 1594.76,621.084 1590.15,611.089 1585.24,601.241 1580.02,591.547 1574.51,582.017 1568.71,572.66 1562.63,563.486 1556.27,554.501 1549.64,545.715 1542.74,537.136 1535.58,528.773 1528.18,520.632 1520.52,512.721 1512.63,505.048 1504.5,497.621 1496.16,490.445 1487.59,483.528 1478.82,476.876 1469.85,470.496 1460.69,464.393 1451.35,458.573 1441.83,453.042 1432.15,447.804 1422.31,442.865 1412.33,438.229 1402.21,433.901 1391.96,429.884 1381.59,426.183 1371.12,422.801 1360.54,419.74 1349.88,417.005 1339.14,414.597 1328.33,412.518 1317.46,410.772 1306.55,409.358 1295.59,408.28 1284.61,407.536 1273.61,407.13 1262.6,407.059 1251.6,407.326 1240.61,407.929 1229.64,408.868 1218.7,410.142 1207.82,411.75 1196.98,413.69 1186.21,415.961 1175.51,418.56 1164.9,421.486 1154.38,424.734 1143.97,428.303 1133.67,432.188 1123.5,436.387 1113.45,440.895 1103.55,445.708 1093.81,450.822 1084.22,456.232 1074.8,461.932 1065.56,467.918 1056.51,474.183 1047.66,480.723 1039.01,487.53 1030.57,494.598 1022.35,501.922 1014.36,509.493 1006.61,517.306 999.096,525.352 991.833,533.623 984.827,542.114 978.084,550.814 971.61,559.717 965.412,568.813 959.495,578.095 953.864,587.554 948.525,597.18 943.484,606.966 938.744,616.901 934.31,626.976 930.187,637.182 926.377,647.509 922.886,657.949 919.715,668.49 916.868,679.123 914.348,689.838 912.157,700.626 910.296,711.475 908.769,722.376 907.576,733.319 906.718,744.293 906.196,755.288 906.011,766.294 906.162,777.301 906.65,788.298 907.475,799.275 908.634,810.221 910.128,821.127 911.955,831.982 914.113,842.776 916.601,853.499 919.415,864.141 922.553,874.692 926.013,885.141 929.791,895.48 933.883,905.699 938.286,915.788 942.995,925.737 948.007,935.538 953.316,945.181 958.917,954.657 964.806,963.957 970.977,973.072 977.423,981.995 984.139,990.716 991.12,999.228 998.357,1007.52 1005.84,1015.59 1013.57,1023.43 1021.54,1031.02 1029.74,1038.37 1038.15,1045.47 1046.78,1052.3 1055.62,1058.87 1064.65,1065.16 1073.87,1071.17 1083.27,1076.9 1092.84,1082.34 1102.57,1087.48 1112.45,1092.33 1122.48,1096.87 1132.65,1101.1 1142.93,1105.01 1153.34,1108.61 1163.84,1111.9 1174.45,1114.85 1185.13,1117.49 1195.9,1119.79 1206.73,1121.76 1217.61,1123.4 1228.54,1124.71 1239.51,1125.68 1250.49,1126.32 1261.5,1126.62 1272.51,1126.58 1283.51,1126.21 1294.49,1125.5 1305.45,1124.46 1316.37,1123.08 1327.24,1121.36 1338.06,1119.32 1348.81,1116.94 1359.48,1114.24 1370.06,1111.21 1380.55,1107.86 1390.93,1104.19 1401.19,1100.21 1411.32,1095.91 1421.32,1091.31 1431.17,1086.4 1440.87,1081.19 1450.4,1075.69 1459.76,1069.9 1468.94,1063.82 1477.93,1057.47 1486.72,1050.84 1495.31,1043.95 1503.68,1036.8 1511.82,1029.4 1519.74,1021.75 1527.42,1013.86 1534.85,1005.75 1542.04,997.404 1548.96,988.846 1555.62,980.08 1562,971.115 1568.11,961.959 1573.94,952.62 1579.48,943.108 1584.73,933.43 1589.67,923.596 1594.32,913.616 1598.65,903.498 1602.68,893.253 "/>
<polyline clip-path="url(#clip912)" style="stroke:#c271d2; stroke-linecap:round; stroke-linejoin:round; stroke-width:4; stroke-opacity:1; fill:none" points="1697.57,766.846 1697.47,757.337 1697.15,747.833 1696.63,738.338 1695.9,728.857 1694.96,719.395 1693.81,709.955 1692.45,700.543 1690.89,691.163 1689.12,681.82 1687.14,672.518 1684.96,663.262 1682.58,654.056 1679.99,644.905 1677.21,635.813 1674.22,626.785 1671.04,617.824 1667.66,608.936 1664.08,600.124 1660.32,591.394 1656.36,582.748 1652.21,574.192 1647.87,565.729 1643.35,557.364 1638.64,549.1 1633.76,540.942 1628.69,532.893 1623.45,524.958 1618.04,517.14 1612.45,509.444 1606.7,501.872 1600.78,494.429 1594.7,487.118 1588.46,479.943 1582.07,472.906 1575.52,466.013 1568.82,459.265 1561.97,452.667 1554.98,446.221 1547.85,439.93 1540.58,433.798 1533.18,427.828 1525.65,422.022 1517.99,416.383 1510.21,410.914 1502.31,405.618 1494.3,400.497 1486.17,395.554 1477.94,390.791 1469.61,386.211 1461.18,381.815 1452.65,377.605 1444.03,373.585 1435.33,369.755 1426.54,366.118 1417.68,362.676 1408.74,359.429 1399.73,356.38 1390.66,353.53 1381.53,350.881 1372.34,348.433 1363.1,346.189 1353.81,344.148 1344.48,342.313 1335.11,340.683 1325.71,339.26 1316.28,338.045 1306.82,337.037 1297.35,336.238 1287.86,335.648 1278.36,335.267 1268.85,335.096 1259.34,335.133 1249.83,335.381 1240.34,335.837 1230.85,336.503 1221.38,337.377 1211.93,338.46 1202.51,339.75 1193.12,341.248 1183.77,342.952 1174.45,344.862 1165.18,346.976 1155.96,349.294 1146.79,351.815 1137.68,354.537 1128.63,357.459 1119.64,360.579 1110.73,363.897 1101.9,367.41 1093.14,371.116 1084.47,375.015 1075.88,379.104 1067.39,383.381 1058.99,387.844 1050.69,392.491 1042.5,397.319 1034.42,402.327 1026.45,407.511 1018.59,412.87 1010.85,418.4 1003.24,424.1 995.758,429.965 988.404,435.994 981.185,442.184 974.104,448.531 967.164,455.032 960.37,461.685 953.723,468.486 947.228,475.431 940.888,482.518 934.705,489.743 928.682,497.102 922.823,504.592 917.131,512.21 911.608,519.95 906.256,527.811 901.079,535.787 896.079,543.876 891.258,552.072 886.619,560.373 882.164,568.774 877.895,577.272 873.814,585.861 869.923,594.537 866.224,603.298 862.719,612.138 859.41,621.053 856.298,630.038 853.384,639.09 850.671,648.204 848.158,657.375 845.849,666.6 843.743,675.873 841.842,685.19 840.146,694.547 838.657,703.939 837.376,713.362 836.302,722.81 835.436,732.28 834.779,741.766 834.331,751.265 834.093,760.771 834.064,770.281 834.244,779.788 834.634,789.289 835.233,798.78 836.04,808.255 837.057,817.709 838.281,827.14 839.712,836.54 841.351,845.908 843.195,855.236 845.244,864.522 847.497,873.761 849.953,882.947 852.611,892.078 855.469,901.147 858.526,910.152 861.781,919.086 865.232,927.947 868.877,936.73 872.714,945.431 876.743,954.045 880.96,962.568 885.364,970.996 889.952,979.325 894.722,987.551 899.673,995.67 904.801,1003.68 910.105,1011.57 915.58,1019.35 921.226,1027 927.039,1034.52 933.016,1041.92 939.155,1049.18 945.452,1056.31 951.905,1063.29 958.509,1070.13 965.263,1076.83 972.163,1083.37 979.205,1089.76 986.386,1096 993.703,1102.07 1001.15,1107.98 1008.73,1113.73 1016.43,1119.3 1024.25,1124.71 1032.19,1129.94 1040.25,1135 1048.41,1139.88 1056.68,1144.58 1065.05,1149.09 1073.51,1153.42 1082.07,1157.56 1090.72,1161.51 1099.46,1165.27 1108.27,1168.84 1117.16,1172.21 1126.13,1175.39 1135.16,1178.36 1144.25,1181.14 1153.41,1183.72 1162.61,1186.09 1171.87,1188.26 1181.17,1190.23 1190.52,1191.99 1199.9,1193.55 1209.31,1194.89 1218.75,1196.04 1228.22,1196.97 1237.7,1197.69 1247.2,1198.21 1256.7,1198.51 1266.21,1198.61 1275.72,1198.49 1285.22,1198.17 1294.72,1197.64 1304.2,1196.9 1313.66,1195.95 1323.1,1194.79 1332.51,1193.42 1341.88,1191.85 1351.23,1190.07 1360.53,1188.09 1369.78,1185.9 1378.98,1183.51 1388.13,1180.92 1397.22,1178.12 1406.25,1175.13 1415.21,1171.94 1424.09,1168.55 1432.9,1164.97 1441.63,1161.19 1450.27,1157.22 1458.82,1153.06 1467.28,1148.72 1475.64,1144.19 1483.9,1139.48 1492.05,1134.58 1500.1,1129.51 1508.03,1124.27 1515.84,1118.84 1523.53,1113.25 1531.1,1107.49 1538.54,1101.57 1545.84,1095.48 1553.01,1089.23 1560.04,1082.83 1566.93,1076.27 1573.67,1069.57 1580.26,1062.71 1586.7,1055.72 1592.99,1048.58 1599.11,1041.31 1605.08,1033.9 1610.87,1026.36 1616.51,1018.7 1621.97,1010.92 1627.26,1003.01 1632.37,994.996 1637.31,986.868 1642.06,978.633 1646.63,970.296 1651.02,961.859 1655.22,953.329 1659.24,944.707 1663.06,936 1666.69,927.21 1670.12,918.343 1673.36,909.402 1676.4,900.392 1679.24,891.317 1681.88,882.182 1684.32,872.991 1686.56,863.748 1688.59,854.459 1690.42,845.127 1692.04,835.756 1693.45,826.353 1694.66,816.921 1695.66,807.464 1696.45,797.988 1697.03,788.496 1697.4,778.994 1697.56,769.486 1697.52,759.977 1697.26,750.471 1696.8,740.973 1696.12,731.488 1695.24,722.02 1694.15,712.573 1692.85,703.153 1691.34,693.764 1689.63,684.41 1687.71,675.097 1685.59,665.827 1683.26,656.607 1680.73,647.44 1678,638.331 1675.07,629.285 1671.94,620.305 1668.62,611.396 1665.1,602.563 1661.38,593.809 1657.48,585.14 1653.38,576.558 1649.09,568.069 1644.62,559.676 1639.97,551.384 1635.13,543.196 1630.12,535.117 1624.93,527.15 1619.56,519.299 1614.02,511.568 1608.32,503.962 1602.44,496.482 1596.41,489.134 1590.21,481.921 1583.86,474.846 1577.35,467.912 1570.69,461.124 1563.88,454.484 1556.93,447.995 1549.84,441.661 1542.61,435.485 1535.24,429.469 1527.75,423.617 1520.13,417.932 1512.38,412.415 1504.52,407.071 1496.53,401.901 1488.44,396.909 1480.24,392.095 1471.93,387.464 1463.53,383.017 1455.03,378.755 1446.44,374.682 1437.76,370.799 1428.99,367.109 1420.15,363.612 1411.23,360.311 1402.24,357.207 1393.19,354.302 1384.07,351.596 1374.9,349.093 1365.67,346.792 1356.4,344.694 1347.08,342.802 1337.72,341.115 1328.33,339.634 1318.9,338.361 1309.45,337.296 1299.98,336.439 1290.49,335.791 1281,335.352 1271.49,335.122 1261.98,335.102 1252.47,335.291 1242.97,335.689 1233.48,336.297 1224.01,337.113 1214.55,338.138 1205.12,339.371 1195.72,340.811 1186.36,342.458 1177.03,344.311 1167.75,346.368 1158.51,348.63 1149.33,351.095 1140.2,353.761 1131.13,356.627 1122.13,359.693 1113.2,362.956 1104.34,366.415 1095.56,370.068 1086.86,373.914 1078.25,377.95 1069.74,382.175 1061.31,386.586 1052.99,391.182 1044.76,395.96 1036.65,400.918 1028.65,406.054 1020.76,411.364 1012.99,416.847 1005.34,422.5 997.823,428.32 990.432,434.304 983.175,440.449 976.056,446.753 969.077,453.212 962.241,459.823 955.554,466.583 949.016,473.489 942.632,480.537 936.405,487.723 930.338,495.046 924.434,502.5 918.695,510.082 "/>
</svg>
