<?xml version="1.0" encoding="utf-8"?>
<svg xmlns="http://www.w3.org/2000/svg" xmlns:xlink="http://www.w3.org/1999/xlink" width="600" height="400" viewBox="0 0 2400 1600">
<defs>
  <clipPath id="clip990">
    <rect x="0" y="0" width="2400" height="1600"/>
  </clipPath>
</defs>
<path clip-path="url(#clip990)" d="M0 1600 L2400 1600 L2400 0 L0 0  Z" fill="#ffffff" fill-rule="evenodd" fill-opacity="1"/>
<defs>
  <clipPath id="clip991">
    <rect x="480" y="0" width="1681" height="1600"/>
  </clipPath>
</defs>
<path clip-path="url(#clip990)" d="M147.478 1486.45 L2352.76 1486.45 L2352.76 47.2441 L147.478 47.2441  Z" fill="#ffffff" fill-rule="evenodd" fill-opacity="1"/>
<defs>
  <clipPath id="clip992">
    <rect x="147" y="47" width="2206" height="1440"/>
  </clipPath>
</defs>
<polyline clip-path="url(#clip992)" style="stroke:#000000; stroke-linecap:round; stroke-linejoin:round; stroke-width:2; stroke-opacity:0.1; fill:none" points="231.749,1486.45 231.749,47.2441 "/>
<polyline clip-path="url(#clip992)" style="stroke:#000000; stroke-linecap:round; stroke-linejoin:round; stroke-width:2; stroke-opacity:0.1; fill:none" points="571.205,1486.45 571.205,47.2441 "/>
<polyline clip-path="url(#clip992)" style="stroke:#000000; stroke-linecap:round; stroke-linejoin:round; stroke-width:2; stroke-opacity:0.1; fill:none" points="910.661,1486.45 910.661,47.2441 "/>
<polyline clip-path="url(#clip992)" style="stroke:#000000; stroke-linecap:round; stroke-linejoin:round; stroke-width:2; stroke-opacity:0.1; fill:none" points="1250.12,1486.45 1250.12,47.2441 "/>
<polyline clip-path="url(#clip992)" style="stroke:#000000; stroke-linecap:round; stroke-linejoin:round; stroke-width:2; stroke-opacity:0.1; fill:none" points="1589.57,1486.45 1589.57,47.2441 "/>
<polyline clip-path="url(#clip992)" style="stroke:#000000; stroke-linecap:round; stroke-linejoin:round; stroke-width:2; stroke-opacity:0.1; fill:none" points="1929.03,1486.45 1929.03,47.2441 "/>
<polyline clip-path="url(#clip992)" style="stroke:#000000; stroke-linecap:round; stroke-linejoin:round; stroke-width:2; stroke-opacity:0.1; fill:none" points="2268.48,1486.45 2268.48,47.2441 "/>
<polyline clip-path="url(#clip990)" style="stroke:#000000; stroke-linecap:round; stroke-linejoin:round; stroke-width:4; stroke-opacity:1; fill:none" points="147.478,1486.45 2352.76,1486.45 "/>
<polyline clip-path="url(#clip990)" style="stroke:#000000; stroke-linecap:round; stroke-linejoin:round; stroke-width:4; stroke-opacity:1; fill:none" points="231.749,1486.45 231.749,1467.55 "/>
<polyline clip-path="url(#clip990)" style="stroke:#000000; stroke-linecap:round; stroke-linejoin:round; stroke-width:4; stroke-opacity:1; fill:none" points="571.205,1486.45 571.205,1467.55 "/>
<polyline clip-path="url(#clip990)" style="stroke:#000000; stroke-linecap:round; stroke-linejoin:round; stroke-width:4; stroke-opacity:1; fill:none" points="910.661,1486.45 910.661,1467.55 "/>
<polyline clip-path="url(#clip990)" style="stroke:#000000; stroke-linecap:round; stroke-linejoin:round; stroke-width:4; stroke-opacity:1; fill:none" points="1250.12,1486.45 1250.12,1467.55 "/>
<polyline clip-path="url(#clip990)" style="stroke:#000000; stroke-linecap:round; stroke-linejoin:round; stroke-width:4; stroke-opacity:1; fill:none" points="1589.57,1486.45 1589.57,1467.55 "/>
<polyline clip-path="url(#clip990)" style="stroke:#000000; stroke-linecap:round; stroke-linejoin:round; stroke-width:4; stroke-opacity:1; fill:none" points="1929.03,1486.45 1929.03,1467.55 "/>
<polyline clip-path="url(#clip990)" style="stroke:#000000; stroke-linecap:round; stroke-linejoin:round; stroke-width:4; stroke-opacity:1; fill:none" points="2268.48,1486.45 2268.48,1467.55 "/>
<path clip-path="url(#clip990)" d="M201.217 1532.02 L230.892 1532.02 L230.892 1535.95 L201.217 1535.95 L201.217 1532.02 Z" fill="#000000" fill-rule="nonzero" fill-opacity="1" /><path clip-path="url(#clip990)" d="M255.152 1530.21 Q258.508 1530.93 260.383 1533.2 Q262.281 1535.47 262.281 1538.8 Q262.281 1543.92 258.763 1546.72 Q255.244 1549.52 248.763 1549.52 Q246.587 1549.52 244.272 1549.08 Q241.98 1548.66 239.527 1547.81 L239.527 1543.29 Q241.471 1544.43 243.786 1545.01 Q246.101 1545.58 248.624 1545.58 Q253.022 1545.58 255.314 1543.85 Q257.628 1542.11 257.628 1538.8 Q257.628 1535.75 255.476 1534.03 Q253.346 1532.3 249.527 1532.3 L245.499 1532.3 L245.499 1528.45 L249.712 1528.45 Q253.161 1528.45 254.99 1527.09 Q256.818 1525.7 256.818 1523.11 Q256.818 1520.45 254.92 1519.03 Q253.045 1517.6 249.527 1517.6 Q247.605 1517.6 245.406 1518.01 Q243.207 1518.43 240.568 1519.31 L240.568 1515.14 Q243.23 1514.4 245.545 1514.03 Q247.883 1513.66 249.943 1513.66 Q255.267 1513.66 258.369 1516.09 Q261.471 1518.5 261.471 1522.62 Q261.471 1525.49 259.827 1527.48 Q258.184 1529.45 255.152 1530.21 Z" fill="#000000" fill-rule="nonzero" fill-opacity="1" /><path clip-path="url(#clip990)" d="M541.147 1532.02 L570.823 1532.02 L570.823 1535.95 L541.147 1535.95 L541.147 1532.02 Z" fill="#000000" fill-rule="nonzero" fill-opacity="1" /><path clip-path="url(#clip990)" d="M584.943 1544.91 L601.263 1544.91 L601.263 1548.85 L579.318 1548.85 L579.318 1544.91 Q581.98 1542.16 586.564 1537.53 Q591.17 1532.88 592.351 1531.53 Q594.596 1529.01 595.476 1527.27 Q596.378 1525.51 596.378 1523.82 Q596.378 1521.07 594.434 1519.33 Q592.513 1517.6 589.411 1517.6 Q587.212 1517.6 584.758 1518.36 Q582.328 1519.13 579.55 1520.68 L579.55 1515.95 Q582.374 1514.82 584.828 1514.24 Q587.281 1513.66 589.318 1513.66 Q594.689 1513.66 597.883 1516.35 Q601.077 1519.03 601.077 1523.52 Q601.077 1525.65 600.267 1527.57 Q599.48 1529.47 597.374 1532.07 Q596.795 1532.74 593.693 1535.95 Q590.591 1539.15 584.943 1544.91 Z" fill="#000000" fill-rule="nonzero" fill-opacity="1" /><path clip-path="url(#clip990)" d="M880.418 1532.02 L910.094 1532.02 L910.094 1535.95 L880.418 1535.95 L880.418 1532.02 Z" fill="#000000" fill-rule="nonzero" fill-opacity="1" /><path clip-path="url(#clip990)" d="M920.996 1544.91 L928.635 1544.91 L928.635 1518.55 L920.325 1520.21 L920.325 1515.95 L928.589 1514.29 L933.265 1514.29 L933.265 1544.91 L940.904 1544.91 L940.904 1548.85 L920.996 1548.85 L920.996 1544.91 Z" fill="#000000" fill-rule="nonzero" fill-opacity="1" /><path clip-path="url(#clip990)" d="M1250.12 1517.37 Q1246.51 1517.37 1244.68 1520.93 Q1242.87 1524.47 1242.87 1531.6 Q1242.87 1538.71 1244.68 1542.27 Q1246.51 1545.82 1250.12 1545.82 Q1253.75 1545.82 1255.56 1542.27 Q1257.39 1538.71 1257.39 1531.6 Q1257.39 1524.47 1255.56 1520.93 Q1253.75 1517.37 1250.12 1517.37 M1250.12 1513.66 Q1255.93 1513.66 1258.98 1518.27 Q1262.06 1522.85 1262.06 1531.6 Q1262.06 1540.33 1258.98 1544.94 Q1255.93 1549.52 1250.12 1549.52 Q1244.31 1549.52 1241.23 1544.94 Q1238.17 1540.33 1238.17 1531.6 Q1238.17 1522.85 1241.23 1518.27 Q1244.31 1513.66 1250.12 1513.66 Z" fill="#000000" fill-rule="nonzero" fill-opacity="1" /><path clip-path="url(#clip990)" d="M1579.95 1544.91 L1587.59 1544.91 L1587.59 1518.55 L1579.28 1520.21 L1579.28 1515.95 L1587.55 1514.29 L1592.22 1514.29 L1592.22 1544.91 L1599.86 1544.91 L1599.86 1548.85 L1579.95 1548.85 L1579.95 1544.91 Z" fill="#000000" fill-rule="nonzero" fill-opacity="1" /><path clip-path="url(#clip990)" d="M1923.68 1544.91 L1940 1544.91 L1940 1548.85 L1918.06 1548.85 L1918.06 1544.91 Q1920.72 1542.16 1925.3 1537.53 Q1929.91 1532.88 1931.09 1531.53 Q1933.33 1529.01 1934.21 1527.27 Q1935.12 1525.51 1935.12 1523.82 Q1935.12 1521.07 1933.17 1519.33 Q1931.25 1517.6 1928.15 1517.6 Q1925.95 1517.6 1923.5 1518.36 Q1921.07 1519.13 1918.29 1520.68 L1918.29 1515.95 Q1921.11 1514.82 1923.57 1514.24 Q1926.02 1513.66 1928.06 1513.66 Q1933.43 1513.66 1936.62 1516.35 Q1939.82 1519.03 1939.82 1523.52 Q1939.82 1525.65 1939.01 1527.57 Q1938.22 1529.47 1936.11 1532.07 Q1935.53 1532.74 1932.43 1535.95 Q1929.33 1539.15 1923.68 1544.91 Z" fill="#000000" fill-rule="nonzero" fill-opacity="1" /><path clip-path="url(#clip990)" d="M2272.73 1530.21 Q2276.09 1530.93 2277.96 1533.2 Q2279.86 1535.47 2279.86 1538.8 Q2279.86 1543.92 2276.34 1546.72 Q2272.83 1549.52 2266.34 1549.52 Q2264.17 1549.52 2261.85 1549.08 Q2259.56 1548.66 2257.11 1547.81 L2257.11 1543.29 Q2259.05 1544.43 2261.37 1545.01 Q2263.68 1545.58 2266.2 1545.58 Q2270.6 1545.58 2272.89 1543.85 Q2275.21 1542.11 2275.21 1538.8 Q2275.21 1535.75 2273.06 1534.03 Q2270.93 1532.3 2267.11 1532.3 L2263.08 1532.3 L2263.08 1528.45 L2267.29 1528.45 Q2270.74 1528.45 2272.57 1527.09 Q2274.4 1525.7 2274.4 1523.11 Q2274.4 1520.45 2272.5 1519.03 Q2270.63 1517.6 2267.11 1517.6 Q2265.19 1517.6 2262.99 1518.01 Q2260.79 1518.43 2258.15 1519.31 L2258.15 1515.14 Q2260.81 1514.4 2263.13 1514.03 Q2265.46 1513.66 2267.52 1513.66 Q2272.85 1513.66 2275.95 1516.09 Q2279.05 1518.5 2279.05 1522.62 Q2279.05 1525.49 2277.41 1527.48 Q2275.76 1529.45 2272.73 1530.21 Z" fill="#000000" fill-rule="nonzero" fill-opacity="1" /><polyline clip-path="url(#clip992)" style="stroke:#000000; stroke-linecap:round; stroke-linejoin:round; stroke-width:2; stroke-opacity:0.1; fill:none" points="147.478,1445.8 2352.76,1445.8 "/>
<polyline clip-path="url(#clip992)" style="stroke:#000000; stroke-linecap:round; stroke-linejoin:round; stroke-width:2; stroke-opacity:0.1; fill:none" points="147.478,1106.34 2352.76,1106.34 "/>
<polyline clip-path="url(#clip992)" style="stroke:#000000; stroke-linecap:round; stroke-linejoin:round; stroke-width:2; stroke-opacity:0.1; fill:none" points="147.478,766.888 2352.76,766.888 "/>
<polyline clip-path="url(#clip992)" style="stroke:#000000; stroke-linecap:round; stroke-linejoin:round; stroke-width:2; stroke-opacity:0.1; fill:none" points="147.478,427.432 2352.76,427.432 "/>
<polyline clip-path="url(#clip992)" style="stroke:#000000; stroke-linecap:round; stroke-linejoin:round; stroke-width:2; stroke-opacity:0.1; fill:none" points="147.478,87.9763 2352.76,87.9763 "/>
<polyline clip-path="url(#clip990)" style="stroke:#000000; stroke-linecap:round; stroke-linejoin:round; stroke-width:4; stroke-opacity:1; fill:none" points="147.478,1486.45 147.478,47.2441 "/>
<polyline clip-path="url(#clip990)" style="stroke:#000000; stroke-linecap:round; stroke-linejoin:round; stroke-width:4; stroke-opacity:1; fill:none" points="147.478,1445.8 166.376,1445.8 "/>
<polyline clip-path="url(#clip990)" style="stroke:#000000; stroke-linecap:round; stroke-linejoin:round; stroke-width:4; stroke-opacity:1; fill:none" points="147.478,1106.34 166.376,1106.34 "/>
<polyline clip-path="url(#clip990)" style="stroke:#000000; stroke-linecap:round; stroke-linejoin:round; stroke-width:4; stroke-opacity:1; fill:none" points="147.478,766.888 166.376,766.888 "/>
<polyline clip-path="url(#clip990)" style="stroke:#000000; stroke-linecap:round; stroke-linejoin:round; stroke-width:4; stroke-opacity:1; fill:none" points="147.478,427.432 166.376,427.432 "/>
<polyline clip-path="url(#clip990)" style="stroke:#000000; stroke-linecap:round; stroke-linejoin:round; stroke-width:4; stroke-opacity:1; fill:none" points="147.478,87.9763 166.376,87.9763 "/>
<path clip-path="url(#clip990)" d="M51.3625 1446.25 L81.0383 1446.25 L81.0383 1450.19 L51.3625 1450.19 L51.3625 1446.25 Z" fill="#000000" fill-rule="nonzero" fill-opacity="1" /><path clip-path="url(#clip990)" d="M95.1586 1459.15 L111.478 1459.15 L111.478 1463.08 L89.5336 1463.08 L89.5336 1459.15 Q92.1956 1456.39 96.7789 1451.76 Q101.385 1447.11 102.566 1445.77 Q104.811 1443.24 105.691 1441.51 Q106.594 1439.75 106.594 1438.06 Q106.594 1435.3 104.649 1433.57 Q102.728 1431.83 99.6261 1431.83 Q97.4271 1431.83 94.9734 1432.59 Q92.5428 1433.36 89.7651 1434.91 L89.7651 1430.19 Q92.5891 1429.05 95.0428 1428.47 Q97.4965 1427.9 99.5335 1427.9 Q104.904 1427.9 108.098 1430.58 Q111.293 1433.27 111.293 1437.76 Q111.293 1439.89 110.483 1441.81 Q109.696 1443.71 107.589 1446.3 Q107.01 1446.97 103.909 1450.19 Q100.807 1453.38 95.1586 1459.15 Z" fill="#000000" fill-rule="nonzero" fill-opacity="1" /><path clip-path="url(#clip990)" d="M50.9921 1106.8 L80.6679 1106.8 L80.6679 1110.73 L50.9921 1110.73 L50.9921 1106.8 Z" fill="#000000" fill-rule="nonzero" fill-opacity="1" /><path clip-path="url(#clip990)" d="M91.5706 1119.69 L99.2095 1119.69 L99.2095 1093.32 L90.8993 1094.99 L90.8993 1090.73 L99.1632 1089.06 L103.839 1089.06 L103.839 1119.69 L111.478 1119.69 L111.478 1123.62 L91.5706 1123.62 L91.5706 1119.69 Z" fill="#000000" fill-rule="nonzero" fill-opacity="1" /><path clip-path="url(#clip990)" d="M99.5335 752.687 Q95.9224 752.687 94.0937 756.252 Q92.2882 759.793 92.2882 766.923 Q92.2882 774.029 94.0937 777.594 Q95.9224 781.136 99.5335 781.136 Q103.168 781.136 104.973 777.594 Q106.802 774.029 106.802 766.923 Q106.802 759.793 104.973 756.252 Q103.168 752.687 99.5335 752.687 M99.5335 748.983 Q105.344 748.983 108.399 753.59 Q111.478 758.173 111.478 766.923 Q111.478 775.65 108.399 780.256 Q105.344 784.84 99.5335 784.84 Q93.7234 784.84 90.6447 780.256 Q87.5892 775.65 87.5892 766.923 Q87.5892 758.173 90.6447 753.59 Q93.7234 748.983 99.5335 748.983 Z" fill="#000000" fill-rule="nonzero" fill-opacity="1" /><path clip-path="url(#clip990)" d="M91.5706 440.777 L99.2095 440.777 L99.2095 414.412 L90.8993 416.078 L90.8993 411.819 L99.1632 410.152 L103.839 410.152 L103.839 440.777 L111.478 440.777 L111.478 444.712 L91.5706 444.712 L91.5706 440.777 Z" fill="#000000" fill-rule="nonzero" fill-opacity="1" /><path clip-path="url(#clip990)" d="M95.1586 101.321 L111.478 101.321 L111.478 105.256 L89.5336 105.256 L89.5336 101.321 Q92.1956 98.5665 96.7789 93.9369 Q101.385 89.2841 102.566 87.9416 Q104.811 85.4184 105.691 83.6823 Q106.594 81.9231 106.594 80.2333 Q106.594 77.4786 104.649 75.7425 Q102.728 74.0064 99.6261 74.0064 Q97.4271 74.0064 94.9734 74.7703 Q92.5428 75.5342 89.7651 77.0851 L89.7651 72.3629 Q92.5891 71.2287 95.0428 70.65 Q97.4965 70.0713 99.5335 70.0713 Q104.904 70.0713 108.098 72.7565 Q111.293 75.4416 111.293 79.9323 Q111.293 82.062 110.483 83.9832 Q109.696 85.8814 107.589 88.474 Q107.01 89.1453 103.909 92.3628 Q100.807 95.5573 95.1586 101.321 Z" fill="#000000" fill-rule="nonzero" fill-opacity="1" /><polyline clip-path="url(#clip992)" style="stroke:#009af9; stroke-linecap:round; stroke-linejoin:round; stroke-width:4; stroke-opacity:1; fill:none" points="1250.12,87.9763 1271.55,88.3147 1292.96,89.3295 1314.33,91.0197 1335.63,93.3836 1356.85,96.4189 1377.96,100.122 1398.95,104.491 1419.79,109.519 1440.45,115.203 1460.93,121.537 1481.2,128.513 1501.24,136.126 1521.02,144.368 1540.54,153.231 1559.77,162.705 1578.69,172.781 1597.28,183.45 1615.52,194.7 1633.4,206.521 1650.9,218.9 1668,231.825 1684.69,245.284 1700.94,259.262 1716.74,273.747 1732.07,288.723 1746.93,304.176 1761.29,320.091 1775.14,336.45 1788.46,353.239 1801.25,370.44 1813.49,388.036 1825.17,406.01 1836.28,424.343 1846.8,443.018 1856.73,462.016 1866.05,481.318 1874.76,500.904 1882.84,520.755 1890.3,540.852 1897.11,561.174 1903.28,581.702 1908.8,602.414 1913.67,623.289 1917.87,644.308 1921.41,665.449 1924.28,686.692 1926.47,708.014 1927.99,729.395 1928.84,750.813 1929.01,772.247 1928.5,793.676 1927.32,815.078 1925.46,836.433 1922.93,857.717 1919.72,878.912 1915.85,899.994 1911.32,920.944 1906.13,941.741 1900.28,962.363 1893.78,982.79 1886.65,1003 1878.88,1022.98 1870.48,1042.7 1861.46,1062.15 1851.84,1081.3 1841.61,1100.14 1830.8,1118.64 1819.4,1136.8 1807.44,1154.59 1794.92,1171.99 1781.86,1188.98 1768.27,1205.56 1754.17,1221.7 1739.56,1237.39 1724.46,1252.6 1708.89,1267.33 1692.87,1281.57 1676.4,1295.29 1659.5,1308.48 1642.2,1321.14 1624.51,1333.24 1606.45,1344.77 1588.02,1355.73 1569.27,1366.11 1550.19,1375.88 1530.82,1385.05 1511.16,1393.61 1491.25,1401.54 1471.09,1408.83 1450.72,1415.49 1430.14,1421.5 1409.39,1426.85 1388.47,1431.55 1367.42,1435.59 1346.25,1438.96 1324.99,1441.66 1303.65,1443.69 1282.26,1445.04 1260.83,1445.72 1239.4,1445.72 1217.98,1445.04 1196.58,1443.69 1175.24,1441.66 1153.98,1438.96 1132.81,1435.59 1111.76,1431.55 1090.85,1426.85 1070.09,1421.5 1049.52,1415.49 1029.14,1408.83 1008.99,1401.54 989.071,1393.61 969.417,1385.05 950.042,1375.88 930.967,1366.11 912.209,1355.73 893.788,1344.77 875.723,1333.24 858.031,1321.14 840.73,1308.48 823.836,1295.29 807.368,1281.57 791.341,1267.33 775.771,1252.6 760.674,1237.39 746.065,1221.7 731.959,1205.56 718.369,1188.98 705.309,1171.99 692.792,1154.59 680.831,1136.8 669.437,1118.64 658.622,1100.14 648.396,1081.3 638.771,1062.15 629.755,1042.7 621.357,1022.98 613.586,1003 606.449,982.79 599.954,962.363 594.108,941.741 588.915,920.944 584.381,899.994 580.511,878.912 577.308,857.717 574.776,836.433 572.917,815.078 571.734,793.676 571.226,772.247 571.395,750.813 572.241,729.395 573.762,708.014 575.958,686.692 578.826,665.449 582.363,644.308 586.565,623.289 591.429,602.414 596.95,581.702 603.121,561.174 609.938,540.852 617.393,520.755 625.478,500.904 634.186,481.318 643.508,462.016 653.435,443.018 663.956,424.343 675.062,406.01 686.741,388.036 698.982,370.44 711.772,353.239 725.098,336.45 738.948,320.091 753.308,304.176 768.163,288.723 783.498,273.747 799.298,259.262 815.548,245.284 832.231,231.825 849.33,218.9 866.829,206.521 884.71,194.7 902.955,183.45 921.547,172.781 940.466,162.705 959.693,153.231 979.21,144.368 998.997,136.126 1019.03,128.513 1039.3,121.537 1059.78,115.203 1080.45,109.519 1101.28,104.491 1122.27,100.122 1143.38,96.4189 1164.6,93.3836 1185.91,91.0197 1207.27,89.3295 1228.68,88.3147 1250.12,87.9763 "/>
<polyline clip-path="url(#clip992)" style="stroke:#e26f46; stroke-linecap:round; stroke-linejoin:round; stroke-width:4; stroke-opacity:1; fill:none" points="1250.12,133.455 1270.11,133.784 1290.09,134.77 1310.02,136.411 1329.88,138.707 1349.65,141.654 1369.31,145.248 1388.84,149.485 1408.21,154.359 1427.41,159.865 1446.41,165.996 1465.19,172.743 1483.73,180.099 1502.01,188.054 1520.02,196.598 1537.72,205.721 1555.11,215.412 1572.16,225.658 1588.86,236.447 1605.19,247.765 1621.14,259.6 1636.68,271.935 1651.8,284.757 1666.49,298.049 1680.73,311.797 1694.52,325.983 1707.83,340.59 1720.66,355.602 1732.99,371.002 1744.82,386.771 1756.14,402.891 1766.93,419.346 1777.2,436.116 1786.93,453.183 1796.11,470.53 1804.75,488.137 1812.84,505.988 1820.37,524.064 1827.34,542.347 1833.74,560.82 1839.59,579.465 1844.86,598.266 1849.57,617.205 1853.71,636.265 1857.28,655.432 1860.27,674.687 1862.7,694.016 1864.56,713.403 1865.84,732.832 1866.56,752.288 1866.7,771.755 1866.27,791.219 1865.27,810.663 1863.7,830.073 1861.56,849.433 1858.85,868.727 1855.56,887.94 1851.71,907.056 1847.29,926.058 1842.3,944.93 1836.74,963.655 1830.61,982.216 1823.92,1000.6 1816.67,1018.78 1808.86,1036.74 1800.5,1054.47 1791.59,1071.95 1782.13,1089.16 1772.13,1106.08 1761.6,1122.7 1750.54,1138.99 1738.97,1154.94 1726.89,1170.52 1714.3,1185.73 1701.23,1200.54 1687.68,1214.94 1673.67,1228.91 1659.2,1242.43 1644.29,1255.49 1628.96,1268.07 1613.21,1280.16 1597.08,1291.74 1580.56,1302.79 1563.68,1313.31 1546.46,1323.28 1528.91,1332.69 1511.05,1341.52 1492.91,1349.77 1474.49,1357.43 1455.83,1364.48 1436.93,1370.92 1417.83,1376.74 1398.55,1381.93 1379.09,1386.49 1359.5,1390.41 1339.78,1393.68 1319.96,1396.3 1300.06,1398.27 1280.1,1399.58 1260.12,1400.24 1240.12,1400.24 1220.13,1399.58 1200.18,1398.27 1180.28,1396.3 1160.46,1393.68 1140.74,1390.41 1121.14,1386.49 1101.69,1381.93 1082.4,1376.74 1063.3,1370.92 1044.41,1364.48 1025.74,1357.43 1007.33,1349.77 989.183,1341.52 971.326,1332.69 953.777,1323.28 936.554,1313.31 919.675,1302.79 903.158,1291.74 887.02,1280.16 871.276,1268.07 855.943,1255.49 841.035,1242.43 826.566,1228.91 812.551,1214.94 799.001,1200.54 785.93,1185.73 773.347,1170.52 761.264,1154.94 749.689,1138.99 738.633,1122.7 728.102,1106.08 718.104,1089.16 708.646,1071.95 699.733,1054.47 691.37,1036.74 683.561,1018.78 676.311,1000.6 669.623,982.216 663.498,963.655 657.938,944.93 652.947,926.058 648.524,907.056 644.67,887.94 641.387,868.727 638.674,849.433 636.532,830.073 634.962,810.663 633.962,791.219 633.534,771.755 633.676,752.288 634.39,732.832 635.676,713.403 637.532,694.016 639.959,674.687 642.957,655.432 646.526,636.265 650.664,617.205 655.371,598.266 660.647,579.465 666.489,560.82 672.897,542.347 679.866,524.064 687.396,505.988 695.482,488.137 704.121,470.53 713.307,453.183 723.036,436.116 733.301,419.346 744.096,402.891 755.412,386.771 767.242,371.002 779.577,355.602 792.405,340.59 805.717,325.983 819.501,311.797 833.745,298.049 848.434,284.757 863.557,271.935 879.097,259.6 895.04,247.765 911.37,236.447 928.07,225.658 945.124,215.412 962.512,205.721 980.217,196.598 998.221,188.054 1016.5,180.099 1035.05,172.743 1053.83,165.996 1072.82,159.865 1092.02,154.359 1111.39,149.485 1130.92,145.248 1150.58,141.654 1170.36,138.707 1190.22,136.411 1210.15,134.77 1230.12,133.784 1250.12,133.455 "/>
<polyline clip-path="url(#clip992)" style="stroke:#3da44d; stroke-linecap:round; stroke-linejoin:round; stroke-width:4; stroke-opacity:1; fill:none" points="1250.12,155.867 1269.41,156.193 1288.67,157.17 1307.89,158.796 1327.04,161.07 1346.09,163.988 1365.04,167.547 1383.84,171.741 1402.48,176.566 1420.94,182.015 1439.19,188.08 1457.22,194.754 1475,202.027 1492.51,209.891 1509.73,218.333 1526.64,227.343 1543.22,236.908 1559.45,247.016 1575.32,257.653 1590.8,268.804 1605.88,280.455 1620.55,292.589 1634.78,305.189 1648.56,318.24 1661.88,331.722 1674.73,345.617 1687.09,359.908 1698.95,374.574 1710.31,389.595 1721.16,404.953 1731.48,420.627 1741.28,436.596 1750.55,452.84 1759.28,469.339 1767.48,486.073 1775.14,503.022 1782.26,520.165 1788.85,537.485 1794.91,554.962 1800.44,572.579 1805.45,590.319 1809.95,608.165 1813.93,626.104 1817.41,644.12 1820.4,662.202 1822.89,680.336 1824.9,698.513 1826.44,716.721 1827.5,734.953 1828.08,753.199 1828.2,771.451 1827.85,789.702 1827.03,807.942 1825.73,826.163 1823.96,844.357 1821.71,862.514 1818.97,880.623 1815.73,898.673 1812,916.653 1807.76,934.547 1803.01,952.342 1797.74,970.023 1791.94,987.572 1785.62,1004.97 1778.76,1022.21 1771.37,1039.25 1763.45,1056.1 1754.98,1072.72 1745.98,1089.09 1736.45,1105.2 1726.39,1121.02 1715.8,1136.54 1704.7,1151.74 1693.08,1166.58 1680.97,1181.06 1668.36,1195.16 1655.28,1208.85 1641.72,1222.12 1627.72,1234.94 1613.27,1247.31 1598.39,1259.21 1583.11,1270.61 1567.43,1281.51 1551.38,1291.88 1534.97,1301.72 1518.23,1311.01 1501.16,1319.74 1483.79,1327.89 1466.14,1335.46 1448.24,1342.43 1430.09,1348.81 1411.73,1354.56 1393.18,1359.7 1374.46,1364.21 1355.58,1368.09 1336.58,1371.33 1317.47,1373.92 1298.29,1375.87 1279.04,1377.18 1259.76,1377.83 1240.47,1377.83 1221.19,1377.18 1201.95,1375.87 1182.76,1373.92 1163.65,1371.33 1144.65,1368.09 1125.78,1364.21 1107.05,1359.7 1088.5,1354.56 1070.14,1348.81 1052,1342.43 1034.09,1335.46 1016.44,1327.89 999.076,1319.74 982.009,1311.01 965.26,1301.72 948.851,1291.88 932.799,1281.51 917.123,1270.61 901.839,1259.21 886.966,1247.31 872.517,1234.94 858.51,1222.12 844.956,1208.85 831.871,1195.16 819.265,1181.06 807.151,1166.58 795.537,1151.74 784.434,1136.54 773.848,1121.02 763.786,1105.2 754.253,1089.09 745.253,1072.72 736.789,1056.1 728.861,1039.25 721.469,1022.21 714.613,1004.97 708.289,987.572 702.494,970.023 697.223,952.342 692.472,934.547 688.233,916.653 684.501,898.673 681.268,880.623 678.528,862.514 676.275,844.357 674.503,826.163 673.208,807.942 672.386,789.702 672.034,771.451 672.151,753.199 672.738,734.953 673.796,716.721 675.329,698.513 677.341,680.336 679.837,662.202 682.822,644.12 686.304,626.104 690.289,608.165 694.783,590.319 699.794,572.579 705.326,554.962 711.384,537.485 717.974,520.165 725.098,503.022 732.757,486.073 740.954,469.339 749.686,452.84 758.953,436.596 768.751,420.627 779.076,404.953 789.921,389.595 801.281,374.574 813.146,359.908 825.507,345.617 838.354,331.722 851.675,318.24 865.457,305.189 879.687,292.589 894.35,280.455 909.431,268.804 924.913,257.653 940.779,247.016 957.012,236.908 973.593,227.343 990.504,218.333 1007.72,209.891 1025.23,202.027 1043.01,194.754 1061.04,188.08 1079.29,182.015 1097.75,176.566 1116.4,171.741 1135.2,167.547 1154.14,163.988 1173.2,161.07 1192.34,158.796 1211.56,157.17 1230.83,156.193 1250.12,155.867 "/>
<polyline clip-path="url(#clip992)" style="stroke:#c271d2; stroke-linecap:round; stroke-linejoin:round; stroke-width:4; stroke-opacity:1; fill:none" points="1250.12,185.012 1268.48,185.336 1286.83,186.307 1305.12,187.924 1323.34,190.186 1341.46,193.088 1359.46,196.627 1377.31,200.798 1394.99,205.597 1412.47,211.015 1429.73,217.047 1446.75,223.684 1463.5,230.917 1479.96,238.737 1496.1,247.131 1511.91,256.089 1527.35,265.599 1542.42,275.646 1557.08,286.216 1571.32,297.295 1585.1,308.866 1598.43,320.912 1611.26,333.416 1623.59,346.358 1635.39,359.72 1646.64,373.479 1657.34,387.617 1667.45,402.109 1676.97,416.933 1685.87,432.065 1694.15,447.482 1701.78,463.156 1708.76,479.063 1715.07,495.175 1720.7,511.465 1725.63,527.905 1729.85,544.465 1733.35,561.118 1736.12,577.833 1738.13,594.579 1739.37,611.328 1739.82,628.048 1739.41,644.711 1738.08,661.287 1735.66,677.757 1731.69,694.117 1723.54,710.57 "/>
<polyline clip-path="url(#clip992)" style="stroke:#c271d2; stroke-linecap:round; stroke-linejoin:round; stroke-width:4; stroke-opacity:1; fill:none" points="1728.66,831.492 1733.92,847.828 1737.03,864.24 1738.87,880.765 1739.72,897.388 1739.7,914.083 1738.85,930.821 1737.22,947.573 1734.82,964.307 1731.69,980.995 1727.83,997.605 1723.25,1014.11 1717.97,1030.48 1712,1046.68 1705.36,1062.69 1698.05,1078.49 1690.09,1094.04 1681.5,1109.31 1672.28,1124.3 1662.47,1138.96 1652.06,1153.27 1641.08,1167.23 1629.55,1180.79 1617.49,1193.94 1604.9,1206.67 1591.82,1218.95 1578.27,1230.76 1564.25,1242.08 1549.8,1252.91 1534.94,1263.22 1519.68,1273 1504.05,1282.24 1488.07,1290.91 1471.77,1299.02 1455.16,1306.55 1438.27,1313.49 1421.13,1319.82 1403.75,1325.55 1386.17,1330.66 1368.41,1335.14 1350.48,1339 1332.42,1342.22 1314.24,1344.8 1295.98,1346.74 1277.66,1348.04 1259.3,1348.68 1240.93,1348.68 1222.57,1348.04 1204.25,1346.74 1185.99,1344.8 1167.82,1342.22 1149.76,1339 1131.83,1335.14 1114.06,1330.66 1096.48,1325.55 1079.1,1319.82 1061.96,1313.49 1045.08,1306.55 1028.47,1299.02 1012.16,1290.91 996.186,1282.24 980.557,1273 965.298,1263.22 950.432,1252.91 935.982,1242.08 921.967,1230.76 908.409,1218.95 895.329,1206.67 882.746,1193.94 870.68,1180.79 859.149,1167.23 848.172,1153.27 837.766,1138.96 827.949,1124.3 818.736,1109.31 810.143,1094.04 802.186,1078.49 794.878,1062.69 788.233,1046.68 782.264,1030.48 776.985,1014.11 772.408,997.605 768.544,980.995 765.409,964.307 763.016,947.573 761.384,930.821 760.536,914.083 760.509,897.388 761.362,880.765 763.208,864.24 766.31,847.828 771.571,831.492 "/>
<polyline clip-path="url(#clip992)" style="stroke:#c271d2; stroke-linecap:round; stroke-linejoin:round; stroke-width:4; stroke-opacity:1; fill:none" points="776.69,710.57 768.542,694.117 764.573,677.757 762.15,661.287 760.82,644.711 760.417,628.048 760.86,611.328 762.103,594.579 764.119,577.833 766.885,561.118 770.386,544.465 774.608,527.905 779.538,511.465 785.163,495.175 791.472,479.063 798.45,463.156 806.084,447.482 814.361,432.065 823.266,416.933 832.783,402.109 842.897,387.617 853.59,373.479 864.846,359.72 876.647,346.358 888.974,333.416 901.808,320.912 915.13,308.866 928.918,297.295 943.154,286.216 957.815,275.646 972.879,265.599 988.326,256.089 1004.13,247.131 1020.28,238.737 1036.74,230.917 1053.49,223.684 1070.5,217.047 1087.76,211.015 1105.25,205.597 1122.92,200.798 1140.77,196.627 1158.77,193.088 1176.89,190.186 1195.11,187.924 1213.41,186.307 1231.75,185.336 1250.12,185.012 "/>
<polyline clip-path="url(#clip992)" style="stroke:#ac8d18; stroke-linecap:round; stroke-linejoin:round; stroke-width:4; stroke-opacity:1; fill:none" points="1250.12,223.759 1267.26,224.086 1284.38,225.067 1301.44,226.701 1318.41,228.986 1335.28,231.921 1352.01,235.501 1368.56,239.725 1384.92,244.589 1401.06,250.086 1416.94,256.214 1432.53,262.966 1447.8,270.336 1462.73,278.32 1477.28,286.909 1491.4,296.099 1505.08,305.883 1518.25,316.258 1530.9,327.218 1542.95,338.762 1554.37,350.892 1565.07,363.616 1574.99,376.948 1584.01,390.921 1591.98,405.591 1598.68,421.068 1603.69,437.58 1606.16,455.684 1603.01,477.568 "/>
<polyline clip-path="url(#clip992)" style="stroke:#ac8d18; stroke-linecap:round; stroke-linejoin:round; stroke-width:4; stroke-opacity:1; fill:none" points="1605.75,1067.96 1605.34,1087.41 1601.43,1104.6 1595.51,1120.56 1588.14,1135.61 1579.62,1149.92 1570.14,1163.57 1559.81,1176.6 1548.74,1189.02 1537,1200.86 1524.65,1212.11 1511.73,1222.78 1498.3,1232.86 1484.39,1242.35 1470.05,1251.24 1455.31,1259.52 1440.21,1267.2 1424.77,1274.26 1409.03,1280.7 1393.02,1286.52 1376.77,1291.7 1360.31,1296.24 1343.66,1300.15 1326.86,1303.4 1309.94,1306.01 1292.92,1307.97 1275.82,1309.28 1258.69,1309.94 1241.54,1309.94 1224.41,1309.28 1207.32,1307.97 1190.3,1306.01 1173.37,1303.4 1156.57,1300.15 1139.93,1296.24 1123.46,1291.7 1107.21,1286.52 1091.2,1280.7 1075.46,1274.26 1060.03,1267.2 1044.92,1259.52 1030.18,1251.24 1015.84,1242.35 1001.94,1232.86 988.505,1222.78 975.589,1212.11 963.233,1200.86 951.49,1189.02 940.42,1176.6 930.096,1163.57 920.613,1149.92 912.094,1135.61 904.725,1120.56 898.802,1104.6 894.898,1087.41 894.487,1067.96 "/>
<polyline clip-path="url(#clip992)" style="stroke:#ac8d18; stroke-linecap:round; stroke-linejoin:round; stroke-width:4; stroke-opacity:1; fill:none" points="897.225,477.568 894.077,455.684 896.542,437.58 901.557,421.068 908.251,405.591 916.223,390.921 925.243,376.948 935.16,363.616 945.867,350.892 957.281,338.762 969.338,327.218 981.98,316.258 995.159,305.883 1008.83,296.099 1022.96,286.909 1037.5,278.32 1052.43,270.336 1067.7,262.966 1083.3,256.214 1099.18,250.086 1115.31,244.589 1131.67,239.725 1148.23,235.501 1164.95,231.921 1181.82,228.986 1198.8,226.701 1215.86,225.067 1232.97,224.086 1250.12,223.759 "/>
<path clip-path="url(#clip990)" d="M1890.25 406.258 L2279.25 406.258 L2279.25 95.2176 L1890.25 95.2176  Z" fill="#ffffff" fill-rule="evenodd" fill-opacity="1"/>
<polyline clip-path="url(#clip990)" style="stroke:#000000; stroke-linecap:round; stroke-linejoin:round; stroke-width:4; stroke-opacity:1; fill:none" points="1890.25,406.258 2279.25,406.258 2279.25,95.2176 1890.25,95.2176 1890.25,406.258 "/>
<polyline clip-path="url(#clip990)" style="stroke:#009af9; stroke-linecap:round; stroke-linejoin:round; stroke-width:4; stroke-opacity:1; fill:none" points="1914.75,147.058 2061.77,147.058 "/>
<path clip-path="url(#clip990)" d="M2099.67 151.305 Q2094.51 151.305 2092.52 152.486 Q2090.53 153.666 2090.53 156.514 Q2090.53 158.782 2092.01 160.125 Q2093.52 161.444 2096.09 161.444 Q2099.63 161.444 2101.76 158.944 Q2103.91 156.421 2103.91 152.254 L2103.91 151.305 L2099.67 151.305 M2108.17 149.546 L2108.17 164.338 L2103.91 164.338 L2103.91 160.402 Q2102.45 162.763 2100.28 163.898 Q2098.1 165.009 2094.95 165.009 Q2090.97 165.009 2088.61 162.787 Q2086.27 160.541 2086.27 156.791 Q2086.27 152.416 2089.19 150.194 Q2092.13 147.972 2097.94 147.972 L2103.91 147.972 L2103.91 147.555 Q2103.91 144.615 2101.97 143.018 Q2100.05 141.398 2096.55 141.398 Q2094.33 141.398 2092.22 141.93 Q2090.11 142.463 2088.17 143.527 L2088.17 139.592 Q2090.51 138.69 2092.71 138.25 Q2094.91 137.787 2096.99 137.787 Q2102.61 137.787 2105.39 140.703 Q2108.17 143.62 2108.17 149.546 Z" fill="#000000" fill-rule="nonzero" fill-opacity="1" /><path clip-path="url(#clip990)" d="M2132.57 142.81 L2162.24 142.81 L2162.24 146.699 L2132.57 146.699 L2132.57 142.81 M2132.57 152.254 L2162.24 152.254 L2162.24 156.189 L2132.57 156.189 L2132.57 152.254 Z" fill="#000000" fill-rule="nonzero" fill-opacity="1" /><path clip-path="url(#clip990)" d="M2197.41 132.856 Q2193.79 132.856 2191.97 136.421 Q2190.16 139.963 2190.16 147.092 Q2190.16 154.199 2191.97 157.764 Q2193.79 161.305 2197.41 161.305 Q2201.04 161.305 2202.85 157.764 Q2204.67 154.199 2204.67 147.092 Q2204.67 139.963 2202.85 136.421 Q2201.04 132.856 2197.41 132.856 M2197.41 129.153 Q2203.22 129.153 2206.27 133.759 Q2209.35 138.342 2209.35 147.092 Q2209.35 155.819 2206.27 160.426 Q2203.22 165.009 2197.41 165.009 Q2191.6 165.009 2188.52 160.426 Q2185.46 155.819 2185.46 147.092 Q2185.46 138.342 2188.52 133.759 Q2191.6 129.153 2197.41 129.153 Z" fill="#000000" fill-rule="nonzero" fill-opacity="1" /><path clip-path="url(#clip990)" d="M2217.57 158.458 L2222.45 158.458 L2222.45 164.338 L2217.57 164.338 L2217.57 158.458 Z" fill="#000000" fill-rule="nonzero" fill-opacity="1" /><path clip-path="url(#clip990)" d="M2242.64 132.856 Q2239.03 132.856 2237.2 136.421 Q2235.39 139.963 2235.39 147.092 Q2235.39 154.199 2237.2 157.764 Q2239.03 161.305 2242.64 161.305 Q2246.27 161.305 2248.08 157.764 Q2249.91 154.199 2249.91 147.092 Q2249.91 139.963 2248.08 136.421 Q2246.27 132.856 2242.64 132.856 M2242.64 129.153 Q2248.45 129.153 2251.5 133.759 Q2254.58 138.342 2254.58 147.092 Q2254.58 155.819 2251.5 160.426 Q2248.45 165.009 2242.64 165.009 Q2236.83 165.009 2233.75 160.426 Q2230.69 155.819 2230.69 147.092 Q2230.69 138.342 2233.75 133.759 Q2236.83 129.153 2242.64 129.153 Z" fill="#000000" fill-rule="nonzero" fill-opacity="1" /><polyline clip-path="url(#clip990)" style="stroke:#e26f46; stroke-linecap:round; stroke-linejoin:round; stroke-width:4; stroke-opacity:1; fill:none" points="1914.75,198.898 2061.77,198.898 "/>
<path clip-path="url(#clip990)" d="M2099.67 203.145 Q2094.51 203.145 2092.52 204.326 Q2090.53 205.506 2090.53 208.354 Q2090.53 210.622 2092.01 211.965 Q2093.52 213.284 2096.09 213.284 Q2099.63 213.284 2101.76 210.784 Q2103.91 208.261 2103.91 204.094 L2103.91 203.145 L2099.67 203.145 M2108.17 201.386 L2108.17 216.178 L2103.91 216.178 L2103.91 212.242 Q2102.45 214.603 2100.28 215.738 Q2098.1 216.849 2094.95 216.849 Q2090.97 216.849 2088.61 214.627 Q2086.27 212.381 2086.27 208.631 Q2086.27 204.256 2089.19 202.034 Q2092.13 199.812 2097.94 199.812 L2103.91 199.812 L2103.91 199.395 Q2103.91 196.455 2101.97 194.858 Q2100.05 193.238 2096.55 193.238 Q2094.33 193.238 2092.22 193.77 Q2090.11 194.303 2088.17 195.367 L2088.17 191.432 Q2090.51 190.53 2092.71 190.09 Q2094.91 189.627 2096.99 189.627 Q2102.61 189.627 2105.39 192.543 Q2108.17 195.46 2108.17 201.386 Z" fill="#000000" fill-rule="nonzero" fill-opacity="1" /><path clip-path="url(#clip990)" d="M2132.57 194.65 L2162.24 194.65 L2162.24 198.539 L2132.57 198.539 L2132.57 194.65 M2132.57 204.094 L2162.24 204.094 L2162.24 208.029 L2132.57 208.029 L2132.57 204.094 Z" fill="#000000" fill-rule="nonzero" fill-opacity="1" /><path clip-path="url(#clip990)" d="M2197.41 184.696 Q2193.79 184.696 2191.97 188.261 Q2190.16 191.803 2190.16 198.932 Q2190.16 206.039 2191.97 209.604 Q2193.79 213.145 2197.41 213.145 Q2201.04 213.145 2202.85 209.604 Q2204.67 206.039 2204.67 198.932 Q2204.67 191.803 2202.85 188.261 Q2201.04 184.696 2197.41 184.696 M2197.41 180.993 Q2203.22 180.993 2206.27 185.599 Q2209.35 190.182 2209.35 198.932 Q2209.35 207.659 2206.27 212.266 Q2203.22 216.849 2197.41 216.849 Q2191.6 216.849 2188.52 212.266 Q2185.46 207.659 2185.46 198.932 Q2185.46 190.182 2188.52 185.599 Q2191.6 180.993 2197.41 180.993 Z" fill="#000000" fill-rule="nonzero" fill-opacity="1" /><path clip-path="url(#clip990)" d="M2217.57 210.298 L2222.45 210.298 L2222.45 216.178 L2217.57 216.178 L2217.57 210.298 Z" fill="#000000" fill-rule="nonzero" fill-opacity="1" /><path clip-path="url(#clip990)" d="M2232.68 181.618 L2251.04 181.618 L2251.04 185.553 L2236.97 185.553 L2236.97 194.025 Q2237.98 193.678 2239 193.516 Q2240.02 193.33 2241.04 193.33 Q2246.83 193.33 2250.21 196.502 Q2253.59 199.673 2253.59 205.09 Q2253.59 210.668 2250.11 213.77 Q2246.64 216.849 2240.32 216.849 Q2238.15 216.849 2235.88 216.478 Q2233.63 216.108 2231.23 215.367 L2231.23 210.668 Q2233.31 211.803 2235.53 212.358 Q2237.75 212.914 2240.23 212.914 Q2244.23 212.914 2246.57 210.807 Q2248.91 208.701 2248.91 205.09 Q2248.91 201.479 2246.57 199.372 Q2244.23 197.266 2240.23 197.266 Q2238.35 197.266 2236.48 197.682 Q2234.63 198.099 2232.68 198.979 L2232.68 181.618 Z" fill="#000000" fill-rule="nonzero" fill-opacity="1" /><polyline clip-path="url(#clip990)" style="stroke:#3da44d; stroke-linecap:round; stroke-linejoin:round; stroke-width:4; stroke-opacity:1; fill:none" points="1914.75,250.738 2061.77,250.738 "/>
<path clip-path="url(#clip990)" d="M2099.67 254.985 Q2094.51 254.985 2092.52 256.166 Q2090.53 257.346 2090.53 260.194 Q2090.53 262.462 2092.01 263.805 Q2093.52 265.124 2096.09 265.124 Q2099.63 265.124 2101.76 262.624 Q2103.91 260.101 2103.91 255.934 L2103.91 254.985 L2099.67 254.985 M2108.17 253.226 L2108.17 268.018 L2103.91 268.018 L2103.91 264.082 Q2102.45 266.443 2100.28 267.578 Q2098.1 268.689 2094.95 268.689 Q2090.97 268.689 2088.61 266.467 Q2086.27 264.221 2086.27 260.471 Q2086.27 256.096 2089.19 253.874 Q2092.13 251.652 2097.94 251.652 L2103.91 251.652 L2103.91 251.235 Q2103.91 248.295 2101.97 246.698 Q2100.05 245.078 2096.55 245.078 Q2094.33 245.078 2092.22 245.61 Q2090.11 246.143 2088.17 247.207 L2088.17 243.272 Q2090.51 242.37 2092.71 241.93 Q2094.91 241.467 2096.99 241.467 Q2102.61 241.467 2105.39 244.383 Q2108.17 247.3 2108.17 253.226 Z" fill="#000000" fill-rule="nonzero" fill-opacity="1" /><path clip-path="url(#clip990)" d="M2132.57 246.49 L2162.24 246.49 L2162.24 250.379 L2132.57 250.379 L2132.57 246.49 M2132.57 255.934 L2162.24 255.934 L2162.24 259.869 L2132.57 259.869 L2132.57 255.934 Z" fill="#000000" fill-rule="nonzero" fill-opacity="1" /><path clip-path="url(#clip990)" d="M2197.41 236.536 Q2193.79 236.536 2191.97 240.101 Q2190.16 243.643 2190.16 250.772 Q2190.16 257.879 2191.97 261.444 Q2193.79 264.985 2197.41 264.985 Q2201.04 264.985 2202.85 261.444 Q2204.67 257.879 2204.67 250.772 Q2204.67 243.643 2202.85 240.101 Q2201.04 236.536 2197.41 236.536 M2197.41 232.833 Q2203.22 232.833 2206.27 237.439 Q2209.35 242.022 2209.35 250.772 Q2209.35 259.499 2206.27 264.106 Q2203.22 268.689 2197.41 268.689 Q2191.6 268.689 2188.52 264.106 Q2185.46 259.499 2185.46 250.772 Q2185.46 242.022 2188.52 237.439 Q2191.6 232.833 2197.41 232.833 Z" fill="#000000" fill-rule="nonzero" fill-opacity="1" /><path clip-path="url(#clip990)" d="M2217.57 262.138 L2222.45 262.138 L2222.45 268.018 L2217.57 268.018 L2217.57 262.138 Z" fill="#000000" fill-rule="nonzero" fill-opacity="1" /><path clip-path="url(#clip990)" d="M2243.22 248.874 Q2240.07 248.874 2238.22 251.027 Q2236.39 253.18 2236.39 256.93 Q2236.39 260.656 2238.22 262.832 Q2240.07 264.985 2243.22 264.985 Q2246.36 264.985 2248.19 262.832 Q2250.04 260.656 2250.04 256.93 Q2250.04 253.18 2248.19 251.027 Q2246.36 248.874 2243.22 248.874 M2252.5 234.221 L2252.5 238.481 Q2250.74 237.647 2248.93 237.208 Q2247.15 236.768 2245.39 236.768 Q2240.76 236.768 2238.31 239.893 Q2235.88 243.018 2235.53 249.337 Q2236.9 247.323 2238.96 246.258 Q2241.02 245.17 2243.49 245.17 Q2248.7 245.17 2251.71 248.342 Q2254.74 251.49 2254.74 256.93 Q2254.74 262.254 2251.6 265.471 Q2248.45 268.689 2243.22 268.689 Q2237.22 268.689 2234.05 264.106 Q2230.88 259.499 2230.88 250.772 Q2230.88 242.578 2234.77 237.717 Q2238.66 232.833 2245.21 232.833 Q2246.97 232.833 2248.75 233.18 Q2250.55 233.527 2252.5 234.221 Z" fill="#000000" fill-rule="nonzero" fill-opacity="1" /><polyline clip-path="url(#clip990)" style="stroke:#c271d2; stroke-linecap:round; stroke-linejoin:round; stroke-width:4; stroke-opacity:1; fill:none" points="1914.75,302.578 2061.77,302.578 "/>
<path clip-path="url(#clip990)" d="M2099.67 306.825 Q2094.51 306.825 2092.52 308.006 Q2090.53 309.186 2090.53 312.034 Q2090.53 314.302 2092.01 315.645 Q2093.52 316.964 2096.09 316.964 Q2099.63 316.964 2101.76 314.464 Q2103.91 311.941 2103.91 307.774 L2103.91 306.825 L2099.67 306.825 M2108.17 305.066 L2108.17 319.858 L2103.91 319.858 L2103.91 315.922 Q2102.45 318.283 2100.28 319.418 Q2098.1 320.529 2094.95 320.529 Q2090.97 320.529 2088.61 318.307 Q2086.27 316.061 2086.27 312.311 Q2086.27 307.936 2089.19 305.714 Q2092.13 303.492 2097.94 303.492 L2103.91 303.492 L2103.91 303.075 Q2103.91 300.135 2101.97 298.538 Q2100.05 296.918 2096.55 296.918 Q2094.33 296.918 2092.22 297.45 Q2090.11 297.983 2088.17 299.047 L2088.17 295.112 Q2090.51 294.21 2092.71 293.77 Q2094.91 293.307 2096.99 293.307 Q2102.61 293.307 2105.39 296.223 Q2108.17 299.14 2108.17 305.066 Z" fill="#000000" fill-rule="nonzero" fill-opacity="1" /><path clip-path="url(#clip990)" d="M2132.57 298.33 L2162.24 298.33 L2162.24 302.219 L2132.57 302.219 L2132.57 298.33 M2132.57 307.774 L2162.24 307.774 L2162.24 311.709 L2132.57 311.709 L2132.57 307.774 Z" fill="#000000" fill-rule="nonzero" fill-opacity="1" /><path clip-path="url(#clip990)" d="M2197.41 288.376 Q2193.79 288.376 2191.97 291.941 Q2190.16 295.483 2190.16 302.612 Q2190.16 309.719 2191.97 313.284 Q2193.79 316.825 2197.41 316.825 Q2201.04 316.825 2202.85 313.284 Q2204.67 309.719 2204.67 302.612 Q2204.67 295.483 2202.85 291.941 Q2201.04 288.376 2197.41 288.376 M2197.41 284.673 Q2203.22 284.673 2206.27 289.279 Q2209.35 293.862 2209.35 302.612 Q2209.35 311.339 2206.27 315.946 Q2203.22 320.529 2197.41 320.529 Q2191.6 320.529 2188.52 315.946 Q2185.46 311.339 2185.46 302.612 Q2185.46 293.862 2188.52 289.279 Q2191.6 284.673 2197.41 284.673 Z" fill="#000000" fill-rule="nonzero" fill-opacity="1" /><path clip-path="url(#clip990)" d="M2217.57 313.978 L2222.45 313.978 L2222.45 319.858 L2217.57 319.858 L2217.57 313.978 Z" fill="#000000" fill-rule="nonzero" fill-opacity="1" /><path clip-path="url(#clip990)" d="M2231.46 285.298 L2253.68 285.298 L2253.68 287.288 L2241.13 319.858 L2236.25 319.858 L2248.05 289.233 L2231.46 289.233 L2231.46 285.298 Z" fill="#000000" fill-rule="nonzero" fill-opacity="1" /><polyline clip-path="url(#clip990)" style="stroke:#ac8d18; stroke-linecap:round; stroke-linejoin:round; stroke-width:4; stroke-opacity:1; fill:none" points="1914.75,354.418 2061.77,354.418 "/>
<path clip-path="url(#clip990)" d="M2099.67 358.665 Q2094.51 358.665 2092.52 359.846 Q2090.53 361.026 2090.53 363.874 Q2090.53 366.142 2092.01 367.485 Q2093.52 368.804 2096.09 368.804 Q2099.63 368.804 2101.76 366.304 Q2103.91 363.781 2103.91 359.614 L2103.91 358.665 L2099.67 358.665 M2108.17 356.906 L2108.17 371.698 L2103.91 371.698 L2103.91 367.762 Q2102.45 370.123 2100.28 371.258 Q2098.1 372.369 2094.95 372.369 Q2090.97 372.369 2088.61 370.147 Q2086.27 367.901 2086.27 364.151 Q2086.27 359.776 2089.19 357.554 Q2092.13 355.332 2097.94 355.332 L2103.91 355.332 L2103.91 354.915 Q2103.91 351.975 2101.97 350.378 Q2100.05 348.758 2096.55 348.758 Q2094.33 348.758 2092.22 349.29 Q2090.11 349.823 2088.17 350.887 L2088.17 346.952 Q2090.51 346.05 2092.71 345.61 Q2094.91 345.147 2096.99 345.147 Q2102.61 345.147 2105.39 348.063 Q2108.17 350.98 2108.17 356.906 Z" fill="#000000" fill-rule="nonzero" fill-opacity="1" /><path clip-path="url(#clip990)" d="M2132.57 350.17 L2162.24 350.17 L2162.24 354.059 L2132.57 354.059 L2132.57 350.17 M2132.57 359.614 L2162.24 359.614 L2162.24 363.549 L2132.57 363.549 L2132.57 359.614 Z" fill="#000000" fill-rule="nonzero" fill-opacity="1" /><path clip-path="url(#clip990)" d="M2197.41 340.216 Q2193.79 340.216 2191.97 343.781 Q2190.16 347.323 2190.16 354.452 Q2190.16 361.559 2191.97 365.124 Q2193.79 368.665 2197.41 368.665 Q2201.04 368.665 2202.85 365.124 Q2204.67 361.559 2204.67 354.452 Q2204.67 347.323 2202.85 343.781 Q2201.04 340.216 2197.41 340.216 M2197.41 336.513 Q2203.22 336.513 2206.27 341.119 Q2209.35 345.702 2209.35 354.452 Q2209.35 363.179 2206.27 367.786 Q2203.22 372.369 2197.41 372.369 Q2191.6 372.369 2188.52 367.786 Q2185.46 363.179 2185.46 354.452 Q2185.46 345.702 2188.52 341.119 Q2191.6 336.513 2197.41 336.513 Z" fill="#000000" fill-rule="nonzero" fill-opacity="1" /><path clip-path="url(#clip990)" d="M2217.57 365.818 L2222.45 365.818 L2222.45 371.698 L2217.57 371.698 L2217.57 365.818 Z" fill="#000000" fill-rule="nonzero" fill-opacity="1" /><path clip-path="url(#clip990)" d="M2242.64 355.286 Q2239.3 355.286 2237.38 357.068 Q2235.48 358.85 2235.48 361.975 Q2235.48 365.1 2237.38 366.883 Q2239.3 368.665 2242.64 368.665 Q2245.97 368.665 2247.89 366.883 Q2249.81 365.077 2249.81 361.975 Q2249.81 358.85 2247.89 357.068 Q2245.99 355.286 2242.64 355.286 M2237.96 353.295 Q2234.95 352.554 2233.26 350.494 Q2231.6 348.434 2231.6 345.471 Q2231.6 341.327 2234.54 338.92 Q2237.5 336.513 2242.64 336.513 Q2247.8 336.513 2250.74 338.92 Q2253.68 341.327 2253.68 345.471 Q2253.68 348.434 2251.99 350.494 Q2250.32 352.554 2247.34 353.295 Q2250.72 354.082 2252.59 356.374 Q2254.49 358.665 2254.49 361.975 Q2254.49 366.999 2251.41 369.684 Q2248.35 372.369 2242.64 372.369 Q2236.92 372.369 2233.84 369.684 Q2230.79 366.999 2230.79 361.975 Q2230.79 358.665 2232.68 356.374 Q2234.58 354.082 2237.96 353.295 M2236.25 345.911 Q2236.25 348.596 2237.91 350.1 Q2239.6 351.605 2242.64 351.605 Q2245.65 351.605 2247.34 350.1 Q2249.05 348.596 2249.05 345.911 Q2249.05 343.225 2247.34 341.721 Q2245.65 340.216 2242.64 340.216 Q2239.6 340.216 2237.91 341.721 Q2236.25 343.225 2236.25 345.911 Z" fill="#000000" fill-rule="nonzero" fill-opacity="1" /></svg>
