<?xml version="1.0" encoding="utf-8"?>
<svg xmlns="http://www.w3.org/2000/svg" xmlns:xlink="http://www.w3.org/1999/xlink" width="600" height="400" viewBox="0 0 2400 1600">
<defs>
  <clipPath id="clip080">
    <rect x="0" y="0" width="2400" height="1600"/>
  </clipPath>
</defs>
<path clip-path="url(#clip080)" d="M0 1600 L2400 1600 L2400 0 L0 0  Z" fill="#ffffff" fill-rule="evenodd" fill-opacity="1"/>
<defs>
  <clipPath id="clip081">
    <rect x="480" y="0" width="1681" height="1600"/>
  </clipPath>
</defs>
<path clip-path="url(#clip080)" d="M216.436 1486.45 L2352.76 1486.45 L2352.76 47.2441 L216.436 47.2441  Z" fill="#ffffff" fill-rule="evenodd" fill-opacity="1"/>
<defs>
  <clipPath id="clip082">
    <rect x="216" y="47" width="2137" height="1440"/>
  </clipPath>
</defs>
<polyline clip-path="url(#clip082)" style="stroke:#000000; stroke-linecap:round; stroke-linejoin:round; stroke-width:2; stroke-opacity:0.1; fill:none" points="274.849,1486.45 274.849,47.2441 "/>
<polyline clip-path="url(#clip082)" style="stroke:#000000; stroke-linecap:round; stroke-linejoin:round; stroke-width:2; stroke-opacity:0.1; fill:none" points="779.729,1486.45 779.729,47.2441 "/>
<polyline clip-path="url(#clip082)" style="stroke:#000000; stroke-linecap:round; stroke-linejoin:round; stroke-width:2; stroke-opacity:0.1; fill:none" points="1284.61,1486.45 1284.61,47.2441 "/>
<polyline clip-path="url(#clip082)" style="stroke:#000000; stroke-linecap:round; stroke-linejoin:round; stroke-width:2; stroke-opacity:0.1; fill:none" points="1789.49,1486.45 1789.49,47.2441 "/>
<polyline clip-path="url(#clip082)" style="stroke:#000000; stroke-linecap:round; stroke-linejoin:round; stroke-width:2; stroke-opacity:0.1; fill:none" points="2294.37,1486.45 2294.37,47.2441 "/>
<polyline clip-path="url(#clip080)" style="stroke:#000000; stroke-linecap:round; stroke-linejoin:round; stroke-width:4; stroke-opacity:1; fill:none" points="216.436,1486.45 2352.76,1486.45 "/>
<polyline clip-path="url(#clip080)" style="stroke:#000000; stroke-linecap:round; stroke-linejoin:round; stroke-width:4; stroke-opacity:1; fill:none" points="274.849,1486.45 274.849,1467.55 "/>
<polyline clip-path="url(#clip080)" style="stroke:#000000; stroke-linecap:round; stroke-linejoin:round; stroke-width:4; stroke-opacity:1; fill:none" points="779.729,1486.45 779.729,1467.55 "/>
<polyline clip-path="url(#clip080)" style="stroke:#000000; stroke-linecap:round; stroke-linejoin:round; stroke-width:4; stroke-opacity:1; fill:none" points="1284.61,1486.45 1284.61,1467.55 "/>
<polyline clip-path="url(#clip080)" style="stroke:#000000; stroke-linecap:round; stroke-linejoin:round; stroke-width:4; stroke-opacity:1; fill:none" points="1789.49,1486.45 1789.49,1467.55 "/>
<polyline clip-path="url(#clip080)" style="stroke:#000000; stroke-linecap:round; stroke-linejoin:round; stroke-width:4; stroke-opacity:1; fill:none" points="2294.37,1486.45 2294.37,1467.55 "/>
<path clip-path="url(#clip080)" d="M237.153 1517.37 Q233.542 1517.37 231.713 1520.93 Q229.907 1524.47 229.907 1531.6 Q229.907 1538.71 231.713 1542.27 Q233.542 1545.82 237.153 1545.82 Q240.787 1545.82 242.592 1542.27 Q244.421 1538.71 244.421 1531.6 Q244.421 1524.47 242.592 1520.93 Q240.787 1517.37 237.153 1517.37 M237.153 1513.66 Q242.963 1513.66 246.018 1518.27 Q249.097 1522.85 249.097 1531.6 Q249.097 1540.33 246.018 1544.94 Q242.963 1549.52 237.153 1549.52 Q231.343 1549.52 228.264 1544.94 Q225.208 1540.33 225.208 1531.6 Q225.208 1522.85 228.264 1518.27 Q231.343 1513.66 237.153 1513.66 Z" fill="#000000" fill-rule="nonzero" fill-opacity="1" /><path clip-path="url(#clip080)" d="M257.315 1542.97 L262.199 1542.97 L262.199 1548.85 L257.315 1548.85 L257.315 1542.97 Z" fill="#000000" fill-rule="nonzero" fill-opacity="1" /><path clip-path="url(#clip080)" d="M282.384 1517.37 Q278.773 1517.37 276.944 1520.93 Q275.139 1524.47 275.139 1531.6 Q275.139 1538.71 276.944 1542.27 Q278.773 1545.82 282.384 1545.82 Q286.018 1545.82 287.824 1542.27 Q289.652 1538.71 289.652 1531.6 Q289.652 1524.47 287.824 1520.93 Q286.018 1517.37 282.384 1517.37 M282.384 1513.66 Q288.194 1513.66 291.25 1518.27 Q294.328 1522.85 294.328 1531.6 Q294.328 1540.33 291.25 1544.94 Q288.194 1549.52 282.384 1549.52 Q276.574 1549.52 273.495 1544.94 Q270.44 1540.33 270.44 1531.6 Q270.44 1522.85 273.495 1518.27 Q276.574 1513.66 282.384 1513.66 Z" fill="#000000" fill-rule="nonzero" fill-opacity="1" /><path clip-path="url(#clip080)" d="M312.546 1517.37 Q308.935 1517.37 307.106 1520.93 Q305.3 1524.47 305.3 1531.6 Q305.3 1538.71 307.106 1542.27 Q308.935 1545.82 312.546 1545.82 Q316.18 1545.82 317.986 1542.27 Q319.814 1538.71 319.814 1531.6 Q319.814 1524.47 317.986 1520.93 Q316.18 1517.37 312.546 1517.37 M312.546 1513.66 Q318.356 1513.66 321.412 1518.27 Q324.49 1522.85 324.49 1531.6 Q324.49 1540.33 321.412 1544.94 Q318.356 1549.52 312.546 1549.52 Q306.736 1549.52 303.657 1544.94 Q300.601 1540.33 300.601 1531.6 Q300.601 1522.85 303.657 1518.27 Q306.736 1513.66 312.546 1513.66 Z" fill="#000000" fill-rule="nonzero" fill-opacity="1" /><path clip-path="url(#clip080)" d="M742.531 1517.37 Q738.919 1517.37 737.091 1520.93 Q735.285 1524.47 735.285 1531.6 Q735.285 1538.71 737.091 1542.27 Q738.919 1545.82 742.531 1545.82 Q746.165 1545.82 747.97 1542.27 Q749.799 1538.71 749.799 1531.6 Q749.799 1524.47 747.97 1520.93 Q746.165 1517.37 742.531 1517.37 M742.531 1513.66 Q748.341 1513.66 751.396 1518.27 Q754.475 1522.85 754.475 1531.6 Q754.475 1540.33 751.396 1544.94 Q748.341 1549.52 742.531 1549.52 Q736.72 1549.52 733.642 1544.94 Q730.586 1540.33 730.586 1531.6 Q730.586 1522.85 733.642 1518.27 Q736.72 1513.66 742.531 1513.66 Z" fill="#000000" fill-rule="nonzero" fill-opacity="1" /><path clip-path="url(#clip080)" d="M762.692 1542.97 L767.577 1542.97 L767.577 1548.85 L762.692 1548.85 L762.692 1542.97 Z" fill="#000000" fill-rule="nonzero" fill-opacity="1" /><path clip-path="url(#clip080)" d="M781.79 1544.91 L798.109 1544.91 L798.109 1548.85 L776.165 1548.85 L776.165 1544.91 Q778.827 1542.16 783.41 1537.53 Q788.016 1532.88 789.197 1531.53 Q791.442 1529.01 792.322 1527.27 Q793.225 1525.51 793.225 1523.82 Q793.225 1521.07 791.28 1519.33 Q789.359 1517.6 786.257 1517.6 Q784.058 1517.6 781.604 1518.36 Q779.174 1519.13 776.396 1520.68 L776.396 1515.95 Q779.22 1514.82 781.674 1514.24 Q784.128 1513.66 786.165 1513.66 Q791.535 1513.66 794.729 1516.35 Q797.924 1519.03 797.924 1523.52 Q797.924 1525.65 797.114 1527.57 Q796.327 1529.47 794.22 1532.07 Q793.641 1532.74 790.54 1535.95 Q787.438 1539.15 781.79 1544.91 Z" fill="#000000" fill-rule="nonzero" fill-opacity="1" /><path clip-path="url(#clip080)" d="M807.97 1514.29 L826.326 1514.29 L826.326 1518.22 L812.252 1518.22 L812.252 1526.7 Q813.271 1526.35 814.289 1526.19 Q815.308 1526 816.326 1526 Q822.113 1526 825.493 1529.17 Q828.873 1532.34 828.873 1537.76 Q828.873 1543.34 825.4 1546.44 Q821.928 1549.52 815.609 1549.52 Q813.433 1549.52 811.164 1549.15 Q808.919 1548.78 806.512 1548.04 L806.512 1543.34 Q808.595 1544.47 810.817 1545.03 Q813.039 1545.58 815.516 1545.58 Q819.521 1545.58 821.859 1543.48 Q824.197 1541.37 824.197 1537.76 Q824.197 1534.15 821.859 1532.04 Q819.521 1529.94 815.516 1529.94 Q813.641 1529.94 811.766 1530.35 Q809.914 1530.77 807.97 1531.65 L807.97 1514.29 Z" fill="#000000" fill-rule="nonzero" fill-opacity="1" /><path clip-path="url(#clip080)" d="M1246.91 1517.37 Q1243.3 1517.37 1241.47 1520.93 Q1239.67 1524.47 1239.67 1531.6 Q1239.67 1538.71 1241.47 1542.27 Q1243.3 1545.82 1246.91 1545.82 Q1250.55 1545.82 1252.35 1542.27 Q1254.18 1538.71 1254.18 1531.6 Q1254.18 1524.47 1252.35 1520.93 Q1250.55 1517.37 1246.91 1517.37 M1246.91 1513.66 Q1252.72 1513.66 1255.78 1518.27 Q1258.86 1522.85 1258.86 1531.6 Q1258.86 1540.33 1255.78 1544.94 Q1252.72 1549.52 1246.91 1549.52 Q1241.1 1549.52 1238.02 1544.94 Q1234.97 1540.33 1234.97 1531.6 Q1234.97 1522.85 1238.02 1518.27 Q1241.1 1513.66 1246.91 1513.66 Z" fill="#000000" fill-rule="nonzero" fill-opacity="1" /><path clip-path="url(#clip080)" d="M1267.07 1542.97 L1271.96 1542.97 L1271.96 1548.85 L1267.07 1548.85 L1267.07 1542.97 Z" fill="#000000" fill-rule="nonzero" fill-opacity="1" /><path clip-path="url(#clip080)" d="M1282.19 1514.29 L1300.55 1514.29 L1300.55 1518.22 L1286.47 1518.22 L1286.47 1526.7 Q1287.49 1526.35 1288.51 1526.19 Q1289.53 1526 1290.55 1526 Q1296.33 1526 1299.71 1529.17 Q1303.09 1532.34 1303.09 1537.76 Q1303.09 1543.34 1299.62 1546.44 Q1296.15 1549.52 1289.83 1549.52 Q1287.65 1549.52 1285.39 1549.15 Q1283.14 1548.78 1280.73 1548.04 L1280.73 1543.34 Q1282.82 1544.47 1285.04 1545.03 Q1287.26 1545.58 1289.74 1545.58 Q1293.74 1545.58 1296.08 1543.48 Q1298.42 1541.37 1298.42 1537.76 Q1298.42 1534.15 1296.08 1532.04 Q1293.74 1529.94 1289.74 1529.94 Q1287.86 1529.94 1285.99 1530.35 Q1284.14 1530.77 1282.19 1531.65 L1282.19 1514.29 Z" fill="#000000" fill-rule="nonzero" fill-opacity="1" /><path clip-path="url(#clip080)" d="M1322.31 1517.37 Q1318.7 1517.37 1316.87 1520.93 Q1315.06 1524.47 1315.06 1531.6 Q1315.06 1538.71 1316.87 1542.27 Q1318.7 1545.82 1322.31 1545.82 Q1325.94 1545.82 1327.75 1542.27 Q1329.57 1538.71 1329.57 1531.6 Q1329.57 1524.47 1327.75 1520.93 Q1325.94 1517.37 1322.31 1517.37 M1322.31 1513.66 Q1328.12 1513.66 1331.17 1518.27 Q1334.25 1522.85 1334.25 1531.6 Q1334.25 1540.33 1331.17 1544.94 Q1328.12 1549.52 1322.31 1549.52 Q1316.5 1549.52 1313.42 1544.94 Q1310.36 1540.33 1310.36 1531.6 Q1310.36 1522.85 1313.42 1518.27 Q1316.5 1513.66 1322.31 1513.66 Z" fill="#000000" fill-rule="nonzero" fill-opacity="1" /><path clip-path="url(#clip080)" d="M1752.29 1517.37 Q1748.68 1517.37 1746.85 1520.93 Q1745.05 1524.47 1745.05 1531.6 Q1745.05 1538.71 1746.85 1542.27 Q1748.68 1545.82 1752.29 1545.82 Q1755.93 1545.82 1757.73 1542.27 Q1759.56 1538.71 1759.56 1531.6 Q1759.56 1524.47 1757.73 1520.93 Q1755.93 1517.37 1752.29 1517.37 M1752.29 1513.66 Q1758.1 1513.66 1761.16 1518.27 Q1764.24 1522.85 1764.24 1531.6 Q1764.24 1540.33 1761.16 1544.94 Q1758.1 1549.52 1752.29 1549.52 Q1746.48 1549.52 1743.4 1544.94 Q1740.35 1540.33 1740.35 1531.6 Q1740.35 1522.85 1743.4 1518.27 Q1746.48 1513.66 1752.29 1513.66 Z" fill="#000000" fill-rule="nonzero" fill-opacity="1" /><path clip-path="url(#clip080)" d="M1772.45 1542.97 L1777.34 1542.97 L1777.34 1548.85 L1772.45 1548.85 L1772.45 1542.97 Z" fill="#000000" fill-rule="nonzero" fill-opacity="1" /><path clip-path="url(#clip080)" d="M1786.34 1514.29 L1808.56 1514.29 L1808.56 1516.28 L1796.02 1548.85 L1791.13 1548.85 L1802.94 1518.22 L1786.34 1518.22 L1786.34 1514.29 Z" fill="#000000" fill-rule="nonzero" fill-opacity="1" /><path clip-path="url(#clip080)" d="M1817.73 1514.29 L1836.09 1514.29 L1836.09 1518.22 L1822.01 1518.22 L1822.01 1526.7 Q1823.03 1526.35 1824.05 1526.19 Q1825.07 1526 1826.09 1526 Q1831.87 1526 1835.25 1529.17 Q1838.63 1532.34 1838.63 1537.76 Q1838.63 1543.34 1835.16 1546.44 Q1831.69 1549.52 1825.37 1549.52 Q1823.19 1549.52 1820.92 1549.15 Q1818.68 1548.78 1816.27 1548.04 L1816.27 1543.34 Q1818.36 1544.47 1820.58 1545.03 Q1822.8 1545.58 1825.28 1545.58 Q1829.28 1545.58 1831.62 1543.48 Q1833.96 1541.37 1833.96 1537.76 Q1833.96 1534.15 1831.62 1532.04 Q1829.28 1529.94 1825.28 1529.94 Q1823.4 1529.94 1821.53 1530.35 Q1819.67 1530.77 1817.73 1531.65 L1817.73 1514.29 Z" fill="#000000" fill-rule="nonzero" fill-opacity="1" /><path clip-path="url(#clip080)" d="M2246.44 1544.91 L2254.08 1544.91 L2254.08 1518.55 L2245.77 1520.21 L2245.77 1515.95 L2254.03 1514.29 L2258.71 1514.29 L2258.71 1544.91 L2266.35 1544.91 L2266.35 1548.85 L2246.44 1548.85 L2246.44 1544.91 Z" fill="#000000" fill-rule="nonzero" fill-opacity="1" /><path clip-path="url(#clip080)" d="M2275.79 1542.97 L2280.68 1542.97 L2280.68 1548.85 L2275.79 1548.85 L2275.79 1542.97 Z" fill="#000000" fill-rule="nonzero" fill-opacity="1" /><path clip-path="url(#clip080)" d="M2300.86 1517.37 Q2297.25 1517.37 2295.42 1520.93 Q2293.62 1524.47 2293.62 1531.6 Q2293.62 1538.71 2295.42 1542.27 Q2297.25 1545.82 2300.86 1545.82 Q2304.5 1545.82 2306.3 1542.27 Q2308.13 1538.71 2308.13 1531.6 Q2308.13 1524.47 2306.3 1520.93 Q2304.5 1517.37 2300.86 1517.37 M2300.86 1513.66 Q2306.67 1513.66 2309.73 1518.27 Q2312.81 1522.85 2312.81 1531.6 Q2312.81 1540.33 2309.73 1544.94 Q2306.67 1549.52 2300.86 1549.52 Q2295.05 1549.52 2291.97 1544.94 Q2288.92 1540.33 2288.92 1531.6 Q2288.92 1522.85 2291.97 1518.27 Q2295.05 1513.66 2300.86 1513.66 Z" fill="#000000" fill-rule="nonzero" fill-opacity="1" /><path clip-path="url(#clip080)" d="M2331.02 1517.37 Q2327.41 1517.37 2325.59 1520.93 Q2323.78 1524.47 2323.78 1531.6 Q2323.78 1538.71 2325.59 1542.27 Q2327.41 1545.82 2331.02 1545.82 Q2334.66 1545.82 2336.46 1542.27 Q2338.29 1538.71 2338.29 1531.6 Q2338.29 1524.47 2336.46 1520.93 Q2334.66 1517.37 2331.02 1517.37 M2331.02 1513.66 Q2336.83 1513.66 2339.89 1518.27 Q2342.97 1522.85 2342.97 1531.6 Q2342.97 1540.33 2339.89 1544.94 Q2336.83 1549.52 2331.02 1549.52 Q2325.21 1549.52 2322.14 1544.94 Q2319.08 1540.33 2319.08 1531.6 Q2319.08 1522.85 2322.14 1518.27 Q2325.21 1513.66 2331.02 1513.66 Z" fill="#000000" fill-rule="nonzero" fill-opacity="1" /><polyline clip-path="url(#clip082)" style="stroke:#000000; stroke-linecap:round; stroke-linejoin:round; stroke-width:2; stroke-opacity:0.1; fill:none" points="216.436,1216.78 2352.76,1216.78 "/>
<polyline clip-path="url(#clip082)" style="stroke:#000000; stroke-linecap:round; stroke-linejoin:round; stroke-width:2; stroke-opacity:0.1; fill:none" points="216.436,944.259 2352.76,944.259 "/>
<polyline clip-path="url(#clip082)" style="stroke:#000000; stroke-linecap:round; stroke-linejoin:round; stroke-width:2; stroke-opacity:0.1; fill:none" points="216.436,671.738 2352.76,671.738 "/>
<polyline clip-path="url(#clip082)" style="stroke:#000000; stroke-linecap:round; stroke-linejoin:round; stroke-width:2; stroke-opacity:0.1; fill:none" points="216.436,399.217 2352.76,399.217 "/>
<polyline clip-path="url(#clip082)" style="stroke:#000000; stroke-linecap:round; stroke-linejoin:round; stroke-width:2; stroke-opacity:0.1; fill:none" points="216.436,126.696 2352.76,126.696 "/>
<polyline clip-path="url(#clip080)" style="stroke:#000000; stroke-linecap:round; stroke-linejoin:round; stroke-width:4; stroke-opacity:1; fill:none" points="216.436,1486.45 216.436,47.2441 "/>
<polyline clip-path="url(#clip080)" style="stroke:#000000; stroke-linecap:round; stroke-linejoin:round; stroke-width:4; stroke-opacity:1; fill:none" points="216.436,1216.78 235.334,1216.78 "/>
<polyline clip-path="url(#clip080)" style="stroke:#000000; stroke-linecap:round; stroke-linejoin:round; stroke-width:4; stroke-opacity:1; fill:none" points="216.436,944.259 235.334,944.259 "/>
<polyline clip-path="url(#clip080)" style="stroke:#000000; stroke-linecap:round; stroke-linejoin:round; stroke-width:4; stroke-opacity:1; fill:none" points="216.436,671.738 235.334,671.738 "/>
<polyline clip-path="url(#clip080)" style="stroke:#000000; stroke-linecap:round; stroke-linejoin:round; stroke-width:4; stroke-opacity:1; fill:none" points="216.436,399.217 235.334,399.217 "/>
<polyline clip-path="url(#clip080)" style="stroke:#000000; stroke-linecap:round; stroke-linejoin:round; stroke-width:4; stroke-opacity:1; fill:none" points="216.436,126.696 235.334,126.696 "/>
<path clip-path="url(#clip080)" d="M62.9365 1202.58 Q59.3254 1202.58 57.4967 1206.14 Q55.6912 1209.68 55.6912 1216.81 Q55.6912 1223.92 57.4967 1227.49 Q59.3254 1231.03 62.9365 1231.03 Q66.5707 1231.03 68.3763 1227.49 Q70.205 1223.92 70.205 1216.81 Q70.205 1209.68 68.3763 1206.14 Q66.5707 1202.58 62.9365 1202.58 M62.9365 1198.87 Q68.7467 1198.87 71.8022 1203.48 Q74.8809 1208.06 74.8809 1216.81 Q74.8809 1225.54 71.8022 1230.15 Q68.7467 1234.73 62.9365 1234.73 Q57.1264 1234.73 54.0477 1230.15 Q50.9921 1225.54 50.9921 1216.81 Q50.9921 1208.06 54.0477 1203.48 Q57.1264 1198.87 62.9365 1198.87 Z" fill="#000000" fill-rule="nonzero" fill-opacity="1" /><path clip-path="url(#clip080)" d="M83.0984 1228.18 L87.9827 1228.18 L87.9827 1234.06 L83.0984 1234.06 L83.0984 1228.18 Z" fill="#000000" fill-rule="nonzero" fill-opacity="1" /><path clip-path="url(#clip080)" d="M102.196 1230.12 L118.515 1230.12 L118.515 1234.06 L96.5706 1234.06 L96.5706 1230.12 Q99.2326 1227.37 103.816 1222.74 Q108.422 1218.09 109.603 1216.75 Q111.848 1214.22 112.728 1212.49 Q113.631 1210.73 113.631 1209.04 Q113.631 1206.28 111.686 1204.55 Q109.765 1202.81 106.663 1202.81 Q104.464 1202.81 102.01 1203.57 Q99.5798 1204.34 96.8021 1205.89 L96.8021 1201.17 Q99.6261 1200.03 102.08 1199.45 Q104.534 1198.87 106.571 1198.87 Q111.941 1198.87 115.135 1201.56 Q118.33 1204.25 118.33 1208.74 Q118.33 1210.87 117.52 1212.79 Q116.733 1214.68 114.626 1217.28 Q114.047 1217.95 110.946 1221.17 Q107.844 1224.36 102.196 1230.12 Z" fill="#000000" fill-rule="nonzero" fill-opacity="1" /><path clip-path="url(#clip080)" d="M128.376 1199.5 L146.732 1199.5 L146.732 1203.43 L132.658 1203.43 L132.658 1211.91 Q133.677 1211.56 134.695 1211.4 Q135.714 1211.21 136.732 1211.21 Q142.519 1211.21 145.899 1214.38 Q149.279 1217.56 149.279 1222.97 Q149.279 1228.55 145.806 1231.65 Q142.334 1234.73 136.015 1234.73 Q133.839 1234.73 131.57 1234.36 Q129.325 1233.99 126.918 1233.25 L126.918 1228.55 Q129.001 1229.68 131.223 1230.24 Q133.445 1230.8 135.922 1230.8 Q139.927 1230.8 142.265 1228.69 Q144.603 1226.58 144.603 1222.97 Q144.603 1219.36 142.265 1217.25 Q139.927 1215.15 135.922 1215.15 Q134.047 1215.15 132.172 1215.56 Q130.32 1215.98 128.376 1216.86 L128.376 1199.5 Z" fill="#000000" fill-rule="nonzero" fill-opacity="1" /><path clip-path="url(#clip080)" d="M168.491 1202.58 Q164.88 1202.58 163.052 1206.14 Q161.246 1209.68 161.246 1216.81 Q161.246 1223.92 163.052 1227.49 Q164.88 1231.03 168.491 1231.03 Q172.126 1231.03 173.931 1227.49 Q175.76 1223.92 175.76 1216.81 Q175.76 1209.68 173.931 1206.14 Q172.126 1202.58 168.491 1202.58 M168.491 1198.87 Q174.302 1198.87 177.357 1203.48 Q180.436 1208.06 180.436 1216.81 Q180.436 1225.54 177.357 1230.15 Q174.302 1234.73 168.491 1234.73 Q162.681 1234.73 159.603 1230.15 Q156.547 1225.54 156.547 1216.81 Q156.547 1208.06 159.603 1203.48 Q162.681 1198.87 168.491 1198.87 Z" fill="#000000" fill-rule="nonzero" fill-opacity="1" /><path clip-path="url(#clip080)" d="M63.9319 930.057 Q60.3208 930.057 58.4921 933.622 Q56.6865 937.164 56.6865 944.294 Q56.6865 951.4 58.4921 954.965 Q60.3208 958.506 63.9319 958.506 Q67.5661 958.506 69.3717 954.965 Q71.2004 951.4 71.2004 944.294 Q71.2004 937.164 69.3717 933.622 Q67.5661 930.057 63.9319 930.057 M63.9319 926.354 Q69.742 926.354 72.7976 930.96 Q75.8763 935.544 75.8763 944.294 Q75.8763 953.02 72.7976 957.627 Q69.742 962.21 63.9319 962.21 Q58.1217 962.21 55.043 957.627 Q51.9875 953.02 51.9875 944.294 Q51.9875 935.544 55.043 930.96 Q58.1217 926.354 63.9319 926.354 Z" fill="#000000" fill-rule="nonzero" fill-opacity="1" /><path clip-path="url(#clip080)" d="M84.0938 955.659 L88.978 955.659 L88.978 961.539 L84.0938 961.539 L84.0938 955.659 Z" fill="#000000" fill-rule="nonzero" fill-opacity="1" /><path clip-path="url(#clip080)" d="M103.191 957.604 L119.51 957.604 L119.51 961.539 L97.566 961.539 L97.566 957.604 Q100.228 954.849 104.811 950.219 Q109.418 945.567 110.598 944.224 Q112.844 941.701 113.723 939.965 Q114.626 938.206 114.626 936.516 Q114.626 933.761 112.682 932.025 Q110.76 930.289 107.658 930.289 Q105.459 930.289 103.006 931.053 Q100.575 931.817 97.7974 933.368 L97.7974 928.645 Q100.621 927.511 103.075 926.933 Q105.529 926.354 107.566 926.354 Q112.936 926.354 116.131 929.039 Q119.325 931.724 119.325 936.215 Q119.325 938.344 118.515 940.266 Q117.728 942.164 115.621 944.756 Q115.043 945.428 111.941 948.645 Q108.839 951.84 103.191 957.604 Z" fill="#000000" fill-rule="nonzero" fill-opacity="1" /><path clip-path="url(#clip080)" d="M129.371 926.979 L147.728 926.979 L147.728 930.914 L133.654 930.914 L133.654 939.386 Q134.672 939.039 135.691 938.877 Q136.709 938.692 137.728 938.692 Q143.515 938.692 146.894 941.863 Q150.274 945.034 150.274 950.451 Q150.274 956.03 146.802 959.131 Q143.33 962.21 137.01 962.21 Q134.834 962.21 132.566 961.84 Q130.32 961.469 127.913 960.729 L127.913 956.03 Q129.996 957.164 132.219 957.719 Q134.441 958.275 136.918 958.275 Q140.922 958.275 143.26 956.168 Q145.598 954.062 145.598 950.451 Q145.598 946.84 143.26 944.733 Q140.922 942.627 136.918 942.627 Q135.043 942.627 133.168 943.044 Q131.316 943.46 129.371 944.34 L129.371 926.979 Z" fill="#000000" fill-rule="nonzero" fill-opacity="1" /><path clip-path="url(#clip080)" d="M159.533 926.979 L177.89 926.979 L177.89 930.914 L163.816 930.914 L163.816 939.386 Q164.834 939.039 165.853 938.877 Q166.871 938.692 167.89 938.692 Q173.677 938.692 177.056 941.863 Q180.436 945.034 180.436 950.451 Q180.436 956.03 176.964 959.131 Q173.491 962.21 167.172 962.21 Q164.996 962.21 162.728 961.84 Q160.482 961.469 158.075 960.729 L158.075 956.03 Q160.158 957.164 162.38 957.719 Q164.603 958.275 167.079 958.275 Q171.084 958.275 173.422 956.168 Q175.76 954.062 175.76 950.451 Q175.76 946.84 173.422 944.733 Q171.084 942.627 167.079 942.627 Q165.204 942.627 163.329 943.044 Q161.478 943.46 159.533 944.34 L159.533 926.979 Z" fill="#000000" fill-rule="nonzero" fill-opacity="1" /><path clip-path="url(#clip080)" d="M62.9365 657.537 Q59.3254 657.537 57.4967 661.101 Q55.6912 664.643 55.6912 671.773 Q55.6912 678.879 57.4967 682.444 Q59.3254 685.985 62.9365 685.985 Q66.5707 685.985 68.3763 682.444 Q70.205 678.879 70.205 671.773 Q70.205 664.643 68.3763 661.101 Q66.5707 657.537 62.9365 657.537 M62.9365 653.833 Q68.7467 653.833 71.8022 658.439 Q74.8809 663.023 74.8809 671.773 Q74.8809 680.499 71.8022 685.106 Q68.7467 689.689 62.9365 689.689 Q57.1264 689.689 54.0477 685.106 Q50.9921 680.499 50.9921 671.773 Q50.9921 663.023 54.0477 658.439 Q57.1264 653.833 62.9365 653.833 Z" fill="#000000" fill-rule="nonzero" fill-opacity="1" /><path clip-path="url(#clip080)" d="M83.0984 683.138 L87.9827 683.138 L87.9827 689.018 L83.0984 689.018 L83.0984 683.138 Z" fill="#000000" fill-rule="nonzero" fill-opacity="1" /><path clip-path="url(#clip080)" d="M102.196 685.083 L118.515 685.083 L118.515 689.018 L96.5706 689.018 L96.5706 685.083 Q99.2326 682.328 103.816 677.698 Q108.422 673.046 109.603 671.703 Q111.848 669.18 112.728 667.444 Q113.631 665.685 113.631 663.995 Q113.631 661.24 111.686 659.504 Q109.765 657.768 106.663 657.768 Q104.464 657.768 102.01 658.532 Q99.5798 659.296 96.8021 660.847 L96.8021 656.124 Q99.6261 654.99 102.08 654.412 Q104.534 653.833 106.571 653.833 Q111.941 653.833 115.135 656.518 Q118.33 659.203 118.33 663.694 Q118.33 665.823 117.52 667.745 Q116.733 669.643 114.626 672.235 Q114.047 672.907 110.946 676.124 Q107.844 679.319 102.196 685.083 Z" fill="#000000" fill-rule="nonzero" fill-opacity="1" /><path clip-path="url(#clip080)" d="M138.908 669.874 Q135.76 669.874 133.908 672.027 Q132.08 674.18 132.08 677.93 Q132.08 681.657 133.908 683.833 Q135.76 685.985 138.908 685.985 Q142.056 685.985 143.885 683.833 Q145.737 681.657 145.737 677.93 Q145.737 674.18 143.885 672.027 Q142.056 669.874 138.908 669.874 M148.191 655.222 L148.191 659.481 Q146.431 658.648 144.626 658.208 Q142.843 657.768 141.084 657.768 Q136.455 657.768 134.001 660.893 Q131.57 664.018 131.223 670.337 Q132.589 668.323 134.649 667.259 Q136.709 666.171 139.186 666.171 Q144.394 666.171 147.404 669.342 Q150.436 672.49 150.436 677.93 Q150.436 683.254 147.288 686.472 Q144.14 689.689 138.908 689.689 Q132.913 689.689 129.742 685.106 Q126.57 680.499 126.57 671.773 Q126.57 663.578 130.459 658.717 Q134.348 653.833 140.899 653.833 Q142.658 653.833 144.441 654.18 Q146.246 654.527 148.191 655.222 Z" fill="#000000" fill-rule="nonzero" fill-opacity="1" /><path clip-path="url(#clip080)" d="M168.491 657.537 Q164.88 657.537 163.052 661.101 Q161.246 664.643 161.246 671.773 Q161.246 678.879 163.052 682.444 Q164.88 685.985 168.491 685.985 Q172.126 685.985 173.931 682.444 Q175.76 678.879 175.76 671.773 Q175.76 664.643 173.931 661.101 Q172.126 657.537 168.491 657.537 M168.491 653.833 Q174.302 653.833 177.357 658.439 Q180.436 663.023 180.436 671.773 Q180.436 680.499 177.357 685.106 Q174.302 689.689 168.491 689.689 Q162.681 689.689 159.603 685.106 Q156.547 680.499 156.547 671.773 Q156.547 663.023 159.603 658.439 Q162.681 653.833 168.491 653.833 Z" fill="#000000" fill-rule="nonzero" fill-opacity="1" /><path clip-path="url(#clip080)" d="M63.9319 385.016 Q60.3208 385.016 58.4921 388.58 Q56.6865 392.122 56.6865 399.252 Q56.6865 406.358 58.4921 409.923 Q60.3208 413.464 63.9319 413.464 Q67.5661 413.464 69.3717 409.923 Q71.2004 406.358 71.2004 399.252 Q71.2004 392.122 69.3717 388.58 Q67.5661 385.016 63.9319 385.016 M63.9319 381.312 Q69.742 381.312 72.7976 385.918 Q75.8763 390.502 75.8763 399.252 Q75.8763 407.978 72.7976 412.585 Q69.742 417.168 63.9319 417.168 Q58.1217 417.168 55.043 412.585 Q51.9875 407.978 51.9875 399.252 Q51.9875 390.502 55.043 385.918 Q58.1217 381.312 63.9319 381.312 Z" fill="#000000" fill-rule="nonzero" fill-opacity="1" /><path clip-path="url(#clip080)" d="M84.0938 410.617 L88.978 410.617 L88.978 416.497 L84.0938 416.497 L84.0938 410.617 Z" fill="#000000" fill-rule="nonzero" fill-opacity="1" /><path clip-path="url(#clip080)" d="M103.191 412.562 L119.51 412.562 L119.51 416.497 L97.566 416.497 L97.566 412.562 Q100.228 409.807 104.811 405.177 Q109.418 400.525 110.598 399.182 Q112.844 396.659 113.723 394.923 Q114.626 393.164 114.626 391.474 Q114.626 388.719 112.682 386.983 Q110.76 385.247 107.658 385.247 Q105.459 385.247 103.006 386.011 Q100.575 386.775 97.7974 388.326 L97.7974 383.603 Q100.621 382.469 103.075 381.891 Q105.529 381.312 107.566 381.312 Q112.936 381.312 116.131 383.997 Q119.325 386.682 119.325 391.173 Q119.325 393.302 118.515 395.224 Q117.728 397.122 115.621 399.714 Q115.043 400.386 111.941 403.603 Q108.839 406.798 103.191 412.562 Z" fill="#000000" fill-rule="nonzero" fill-opacity="1" /><path clip-path="url(#clip080)" d="M139.904 397.353 Q136.756 397.353 134.904 399.506 Q133.075 401.659 133.075 405.409 Q133.075 409.136 134.904 411.312 Q136.756 413.464 139.904 413.464 Q143.052 413.464 144.881 411.312 Q146.732 409.136 146.732 405.409 Q146.732 401.659 144.881 399.506 Q143.052 397.353 139.904 397.353 M149.186 382.701 L149.186 386.96 Q147.427 386.127 145.621 385.687 Q143.839 385.247 142.08 385.247 Q137.45 385.247 134.996 388.372 Q132.566 391.497 132.219 397.816 Q133.584 395.802 135.644 394.738 Q137.705 393.65 140.181 393.65 Q145.39 393.65 148.399 396.821 Q151.431 399.969 151.431 405.409 Q151.431 410.733 148.283 413.951 Q145.135 417.168 139.904 417.168 Q133.908 417.168 130.737 412.585 Q127.566 407.978 127.566 399.252 Q127.566 391.057 131.455 386.196 Q135.344 381.312 141.894 381.312 Q143.654 381.312 145.436 381.659 Q147.242 382.006 149.186 382.701 Z" fill="#000000" fill-rule="nonzero" fill-opacity="1" /><path clip-path="url(#clip080)" d="M159.533 381.937 L177.89 381.937 L177.89 385.872 L163.816 385.872 L163.816 394.344 Q164.834 393.997 165.853 393.835 Q166.871 393.65 167.89 393.65 Q173.677 393.65 177.056 396.821 Q180.436 399.992 180.436 405.409 Q180.436 410.988 176.964 414.089 Q173.491 417.168 167.172 417.168 Q164.996 417.168 162.728 416.798 Q160.482 416.427 158.075 415.687 L158.075 410.988 Q160.158 412.122 162.38 412.677 Q164.603 413.233 167.079 413.233 Q171.084 413.233 173.422 411.126 Q175.76 409.02 175.76 405.409 Q175.76 401.798 173.422 399.691 Q171.084 397.585 167.079 397.585 Q165.204 397.585 163.329 398.002 Q161.478 398.418 159.533 399.298 L159.533 381.937 Z" fill="#000000" fill-rule="nonzero" fill-opacity="1" /><path clip-path="url(#clip080)" d="M62.9365 112.495 Q59.3254 112.495 57.4967 116.059 Q55.6912 119.601 55.6912 126.731 Q55.6912 133.837 57.4967 137.402 Q59.3254 140.943 62.9365 140.943 Q66.5707 140.943 68.3763 137.402 Q70.205 133.837 70.205 126.731 Q70.205 119.601 68.3763 116.059 Q66.5707 112.495 62.9365 112.495 M62.9365 108.791 Q68.7467 108.791 71.8022 113.397 Q74.8809 117.981 74.8809 126.731 Q74.8809 135.457 71.8022 140.064 Q68.7467 144.647 62.9365 144.647 Q57.1264 144.647 54.0477 140.064 Q50.9921 135.457 50.9921 126.731 Q50.9921 117.981 54.0477 113.397 Q57.1264 108.791 62.9365 108.791 Z" fill="#000000" fill-rule="nonzero" fill-opacity="1" /><path clip-path="url(#clip080)" d="M83.0984 138.096 L87.9827 138.096 L87.9827 143.976 L83.0984 143.976 L83.0984 138.096 Z" fill="#000000" fill-rule="nonzero" fill-opacity="1" /><path clip-path="url(#clip080)" d="M102.196 140.041 L118.515 140.041 L118.515 143.976 L96.5706 143.976 L96.5706 140.041 Q99.2326 137.286 103.816 132.656 Q108.422 128.004 109.603 126.661 Q111.848 124.138 112.728 122.402 Q113.631 120.643 113.631 118.953 Q113.631 116.198 111.686 114.462 Q109.765 112.726 106.663 112.726 Q104.464 112.726 102.01 113.49 Q99.5798 114.254 96.8021 115.805 L96.8021 111.082 Q99.6261 109.948 102.08 109.37 Q104.534 108.791 106.571 108.791 Q111.941 108.791 115.135 111.476 Q118.33 114.161 118.33 118.652 Q118.33 120.782 117.52 122.703 Q116.733 124.601 114.626 127.194 Q114.047 127.865 110.946 131.082 Q107.844 134.277 102.196 140.041 Z" fill="#000000" fill-rule="nonzero" fill-opacity="1" /><path clip-path="url(#clip080)" d="M127.149 109.416 L149.371 109.416 L149.371 111.407 L136.825 143.976 L131.941 143.976 L143.746 113.351 L127.149 113.351 L127.149 109.416 Z" fill="#000000" fill-rule="nonzero" fill-opacity="1" /><path clip-path="url(#clip080)" d="M168.491 112.495 Q164.88 112.495 163.052 116.059 Q161.246 119.601 161.246 126.731 Q161.246 133.837 163.052 137.402 Q164.88 140.943 168.491 140.943 Q172.126 140.943 173.931 137.402 Q175.76 133.837 175.76 126.731 Q175.76 119.601 173.931 116.059 Q172.126 112.495 168.491 112.495 M168.491 108.791 Q174.302 108.791 177.357 113.397 Q180.436 117.981 180.436 126.731 Q180.436 135.457 177.357 140.064 Q174.302 144.647 168.491 144.647 Q162.681 144.647 159.603 140.064 Q156.547 135.457 156.547 126.731 Q156.547 117.981 159.603 113.397 Q162.681 108.791 168.491 108.791 Z" fill="#000000" fill-rule="nonzero" fill-opacity="1" /><polyline clip-path="url(#clip082)" style="stroke:#009af9; stroke-linecap:round; stroke-linejoin:round; stroke-width:4; stroke-opacity:1; fill:none" points="1066.36,1445.72 1039.63,1445.46 1013.22,1444.71 987.134,1443.45 961.367,1441.69 935.918,1439.41 910.788,1436.62 885.975,1433.31 861.48,1429.47 837.305,1425.1 813.451,1420.18 800.152,1417.16 789.921,1414.71 773.128,1410.41 766.719,1408.68 746.548,1402.89 743.85,1402.08 721.319,1394.89 720.423,1394.59 699.134,1387.1 694.761,1385.48 677.302,1378.72 669.578,1375.57 655.834,1369.71 644.887,1364.81 634.74,1360.08 620.708,1353.2 614.032,1349.8 597.059,1340.73 593.725,1338.87 573.964,1327.36 573.832,1327.28 554.371,1315.02 551.449,1313.1 535.359,1302.09 529.54,1297.93 516.815,1288.48 508.269,1281.84 498.76,1274.18 487.667,1264.83 481.215,1259.2 467.771,1246.92 464.203,1243.54 448.615,1228.1 447.749,1227.21 431.877,1210.23 430.24,1208.41 416.613,1192.61 412.685,1187.86 401.983,1174.39 395.991,1166.49 388.014,1155.57 380.2,1144.38 374.734,1136.22 365.356,1121.56 362.169,1116.38 351.499,1098.14 350.347,1096.08 339.295,1075.42 338.672,1074.2 329.038,1054.45 326.916,1049.86 319.602,1033.27 316.269,1025.25 311.01,1011.94 306.768,1000.52 303.287,990.589 298.448,975.811 298.309,975.371 296.452,969.319 291.34,951.317 290.526,948.232 285.526,927.478 285.473,927.235 281.469,907.164 280.872,903.751 278.367,887.421 277.556,881.072 277.443,802.672 277.524,802.174 279.351,792.737 280.324,788.722 280.74,787.156 284.118,776.726 285.369,773.622 288.901,766.305 291.327,762.221 293.275,759.376 294.671,757.529 298.607,753.072 301.423,750.458 307.2,746.257 309.149,745.139 317.095,741.832 317.844,741.609 327.498,739.87 328.28,739.81 338.104,739.911 340.742,740.178 349.651,741.703 354.466,742.884 362.131,745.201 369.436,747.846 375.534,750.335 385.639,754.945 389.849,757.022 403.058,764.037 405.067,765.163 421.178,774.645 421.677,774.95 438.172,785.343 441.482,787.49 456.039,797.122 462.457,801.446 474.769,809.837 484.586,816.591 494.353,823.34 507.856,832.687 514.781,837.475 532.25,849.493 536.042,852.085 557.754,866.762 558.129,867.013 581.031,882.101 584.352,884.25 604.738,897.196 612.031,901.718 629.241,912.146 640.774,918.932 654.529,926.806 670.564,935.67 680.591,941.036 701.387,951.721 707.418,954.705 733.222,966.886 734.996,967.688 763.315,979.87 792.361,991.144 822.12,1001.41 852.577,1010.59 883.718,1018.6 915.524,1025.37 947.977,1030.86 981.059,1035.02 1014.75,1037.8 1049.02,1039.2 1083.84,1039.2 1119.2,1037.8 1155.06,1035.02 1191.39,1030.86 1228.16,1025.37 1265.33,1018.6 1302.85,1010.59 1340.69,1001.41 1378.81,991.143 1417.15,979.87 1455.66,967.688 1458.11,966.886 1494.28,954.705 1502.88,951.721 1532.97,941.036 1547.72,935.67 1571.64,926.805 1592.51,918.932 1610.25,912.146 1637.15,901.718 1648.71,897.196 1681.53,884.25 1686.95,882.101 1724.9,867.013 1725.53,866.762 1762.46,852.085 1769.01,849.492 1799.56,837.475 1811.84,832.687 1836.1,823.34 1853.89,816.59 1871.98,809.837 1894.99,801.446 1907.12,797.122 1935,787.49 1941.41,785.343 1973.75,774.949 1974.73,774.644 2007,765.162 2011.07,764.036 2038.09,757.021 2046.8,754.944 2067.9,750.334 2080.77,747.844 2096.32,745.201 2112.8,742.883 2123.24,741.705 2142.72,740.175 2148.54,739.908 2170.37,739.807 2172.13,739.866 2193.89,741.61 2195.59,741.831 2213.73,745.144 2218.22,746.263 2231.57,750.453 2238.11,753.079 2247.31,757.522 2250.58,759.363 2255.16,762.227 2260.87,766.308 2269.23,773.614 2272.2,776.735 2280.25,787.143 2281.24,788.706 2283.57,792.719 2287.94,802.19 2288.14,802.69 2292.28,817.043 2291.04,868.406 2289.76,873.956 2287.87,881.083 2285.92,887.435 2279.93,903.742 2278.51,907.149 2268.99,927.23 2268.86,927.465 2257.04,948.24 2255.13,951.327 2243.14,969.313 2238.81,975.366 2238.49,975.81 2227.25,990.592 2219.21,1000.51 2209.47,1011.94 2197.47,1025.25 2189.91,1033.26 2173.43,1049.86 2168.68,1054.45 2147.28,1074.2 2145.91,1075.42 2121.72,1096.09 2119.22,1098.14 2096.24,1116.38 2089.44,1121.56 2069.59,1136.22 2058.12,1144.38 2041.88,1155.57 2025.47,1166.49 2013.25,1174.39 1991.66,1187.86 1983.81,1192.61 1956.87,1208.41 1953.67,1210.23 1922.93,1227.21 1921.27,1228.1 1891.71,1243.54 1885.02,1246.92 1860.08,1259.2 1848.25,1264.83 1828.14,1274.18 1811.11,1281.84 1795.97,1288.47 1773.71,1297.92 1763.64,1302.09 1736.16,1313.1 1731.22,1315.03 1698.77,1327.28 1698.55,1327.36 1666.35,1338.87 1660.98,1340.73 1634,1349.8 1623.52,1353.2 1601.76,1360.08 1586.24,1364.81 1569.68,1369.71 1549.18,1375.57 1537.79,1378.72 1512.4,1385.48 1506.11,1387.1 1475.93,1394.59 1474.67,1394.89 1443.49,1402.08 1439.81,1402.89 1412.59,1408.68 1404.07,1410.41 1381.98,1414.71 1368.72,1417.16 1351.68,1420.18 1321.68,1425.1 1292,1429.47 1262.65,1433.31 1233.62,1436.62 1204.92,1439.41 1176.55,1441.69 1148.51,1443.45 1120.8,1444.71 1093.42,1445.46 1066.36,1445.72 "/>
<polyline clip-path="url(#clip082)" style="stroke:#e26f46; stroke-linecap:round; stroke-linejoin:round; stroke-width:4; stroke-opacity:1; fill:none" points="1072.98,1337.31 1046.16,1337.21 1019.66,1336.6 993.478,1335.49 967.608,1333.86 942.052,1331.73 916.808,1329.08 891.877,1325.92 867.26,1322.23 842.958,1318.01 818.972,1313.25 805.596,1310.33 795.306,1307.95 778.412,1303.77 771.964,1302.09 751.667,1296.46 748.951,1295.67 726.273,1288.67 725.37,1288.38 703.936,1281.09 699.534,1279.52 681.951,1272.93 674.17,1269.86 660.325,1264.15 649.296,1259.38 639.071,1254.77 624.929,1248.08 618.201,1244.76 601.09,1235.93 597.728,1234.13 577.801,1222.93 577.668,1222.85 558.038,1210.93 555.09,1209.07 538.855,1198.37 532.983,1194.33 520.139,1185.16 511.512,1178.72 501.911,1171.29 490.71,1162.24 484.193,1156.78 470.612,1144.91 467.008,1141.64 451.255,1126.73 450.38,1125.87 434.335,1109.5 432.68,1107.74 418.898,1092.53 414.925,1087.95 404.098,1075.01 398.034,1067.43 389.961,1056.96 382.05,1046.24 376.514,1038.44 367.015,1024.43 363.786,1019.48 352.972,1002.1 351.805,1000.15 340.596,980.515 339.965,979.358 330.189,960.642 328.034,956.302 320.607,940.633 317.221,933.081 311.876,920.559 307.561,909.836 304.019,900.537 299.092,886.725 298.951,886.31 297.059,880.671 291.846,863.927 291.015,861.064 285.906,841.863 285.851,841.64 281.748,823.157 281.135,820.041 278.556,805.119 277.718,799.326 276.898,792.896 277.353,729.403 277.433,728.973 279.246,720.827 280.215,717.403 280.63,716.071 284.005,707.272 285.258,704.696 288.799,698.689 291.234,695.403 293.19,693.144 294.594,691.706 298.552,688.293 301.386,686.357 307.203,683.414 309.167,682.679 317.178,680.786 317.933,680.686 327.673,680.359 328.463,680.403 338.38,681.672 341.045,682.218 350.044,684.581 354.909,686.154 362.656,689.019 370.041,692.103 376.206,694.903 386.424,699.923 390.682,702.135 404.042,709.449 406.075,710.605 422.375,720.189 422.879,720.493 439.569,730.752 442.918,732.847 457.648,742.153 464.143,746.288 476.602,754.244 486.536,760.584 496.418,766.871 510.081,775.496 517.088,779.879 534.762,790.779 538.599,793.112 560.561,806.194 560.941,806.416 584.103,819.639 587.461,821.503 608.073,832.631 615.446,836.476 632.841,845.251 644.496,850.892 658.394,857.362 674.594,864.545 684.721,868.836 705.72,877.24 711.809,879.551 737.853,888.799 739.643,889.396 768.211,898.269 797.499,906.078 827.489,912.741 858.166,918.186 889.513,922.353 921.51,925.192 954.138,926.667 987.375,926.748 1021.2,925.421 1055.58,922.681 1090.5,918.535 1125.93,912.999 1161.84,906.104 1198.18,897.888 1234.94,888.404 1272.07,877.712 1309.54,865.886 1347.29,853.009 1385.3,839.173 1423.49,824.483 1461.84,809.05 1464.27,808.048 1500.27,792.997 1508.82,789.356 1538.74,776.455 1553.4,770.047 1577.18,759.56 1597.9,750.339 1615.52,742.458 1642.23,730.462 1653.7,725.301 1686.27,710.656 1691.65,708.243 1729.28,691.444 1729.91,691.167 1766.53,675.066 1773.02,672.246 1803.29,659.271 1815.47,654.147 1839.5,644.22 1857.12,637.119 1875.04,630.073 1897.83,621.406 1909.84,616.981 1937.44,607.241 1943.79,605.094 1975.8,594.846 1976.78,594.549 2008.73,585.475 2012.76,584.42 2039.51,577.988 2048.13,576.143 2069.03,572.19 2081.77,570.168 2097.17,568.165 2113.5,566.619 2123.84,565.982 2143.15,565.588 2148.91,565.691 2170.56,567.133 2172.3,567.325 2193.89,570.895 2195.58,571.273 2213.6,576.387 2218.05,577.994 2231.33,583.766 2237.84,587.244 2246.99,593.007 2250.25,595.351 2254.82,598.943 2260.52,604.023 2268.87,612.962 2271.84,616.72 2279.91,629.189 2280.91,631.042 2283.25,635.762 2287.67,646.859 2287.87,647.438 2292.11,664.016 2291.33,722.288 2290.1,728.467 2288.28,736.387 2286.41,743.453 2280.61,761.529 2279.22,765.298 2269.94,787.416 2269.82,787.68 2258.26,810.415 2256.39,813.784 2244.64,833.385 2240.39,839.964 2240.07,840.445 2229.03,856.479 2221.13,867.211 2211.55,879.553 2199.73,893.897 2192.28,902.515 2176.04,920.338 2171.36,925.259 2150.25,946.39 2148.89,947.694 2125,969.74 2122.53,971.929 2099.81,991.33 2093.09,996.844 2073.45,1012.4 2062.1,1021.04 2046.02,1032.9 2029.77,1044.44 2017.66,1052.77 1996.27,1066.99 1988.48,1072.01 1961.77,1088.64 1958.59,1090.56 1928.09,1108.41 1926.44,1109.35 1897.08,1125.55 1890.44,1129.1 1865.66,1141.97 1853.91,1147.87 1833.92,1157.65 1816.98,1165.67 1801.93,1172.61 1779.78,1182.48 1769.76,1186.83 1742.41,1198.33 1737.49,1200.34 1705.18,1213.12 1704.96,1213.2 1672.88,1225.21 1667.54,1227.14 1640.64,1236.59 1630.2,1240.13 1608.5,1247.29 1593.02,1252.22 1576.5,1257.32 1556.04,1263.42 1544.68,1266.7 1519.33,1273.74 1513.06,1275.43 1482.92,1283.22 1481.67,1283.54 1450.52,1291.02 1446.84,1291.87 1419.64,1297.91 1411.12,1299.71 1389.05,1304.2 1375.78,1306.77 1358.74,1309.92 1328.74,1315.07 1299.05,1319.66 1269.67,1323.7 1240.6,1327.21 1211.86,1330.19 1183.44,1332.64 1155.34,1334.58 1127.57,1336 1100.11,1336.91 1072.98,1337.31 "/>
<polyline clip-path="url(#clip082)" style="stroke:#3da44d; stroke-linecap:round; stroke-linejoin:round; stroke-width:4; stroke-opacity:1; fill:none" points="1079.27,1241.65 1052.37,1241.7 1025.78,1241.23 999.502,1240.26 973.531,1238.78 947.869,1236.79 922.515,1234.29 897.47,1231.28 872.733,1227.74 848.307,1223.68 824.194,1219.09 810.745,1216.26 800.397,1213.96 783.405,1209.91 776.92,1208.28 756.5,1202.82 753.768,1202.05 730.948,1195.26 730.039,1194.98 708.466,1187.9 704.034,1186.37 686.332,1179.97 678.498,1176.98 664.556,1171.44 653.448,1166.8 643.149,1162.32 628.902,1155.82 622.123,1152.6 604.88,1144.03 601.492,1142.28 581.407,1131.41 581.273,1131.33 561.481,1119.78 558.508,1117.96 542.135,1107.6 536.213,1103.68 523.256,1094.81 514.551,1088.58 504.863,1081.4 493.558,1072.65 486.98,1067.38 473.269,1055.92 469.63,1052.77 453.721,1038.4 452.837,1037.57 436.628,1021.82 434.955,1020.13 421.028,1005.52 417.012,1001.13 406.067,988.721 399.935,981.466 391.77,971.449 383.767,961.204 378.166,953.76 368.553,940.408 365.284,935.696 354.335,919.18 353.152,917.325 341.798,898.713 341.158,897.619 331.248,879.931 329.064,875.834 321.53,861.078 318.094,853.981 312.669,842.227 308.287,832.189 304.688,823.501 299.679,810.617 299.535,810.234 297.611,804.988 292.304,789.456 291.458,786.806 286.248,769.083 286.193,768.877 281.999,751.917 281.371,749.053 278.726,735.466 277.863,730.201 277.016,724.365 277.282,668.021 277.361,667.646 279.166,660.625 280.133,657.714 280.547,656.584 283.926,649.204 285.182,647.07 288.736,642.188 291.184,639.572 293.151,637.809 294.563,636.703 298.546,634.148 301.4,632.763 307.262,630.824 309.242,630.394 317.321,629.592 318.083,629.583 327.913,630.295 328.711,630.414 338.725,632.492 341.417,633.22 350.509,636.111 355.425,637.912 363.255,641.07 370.72,644.354 376.953,647.271 387.285,652.387 391.591,654.608 405.102,661.83 407.158,662.957 423.644,672.189 424.155,672.479 441.037,682.163 444.425,684.119 459.326,692.731 465.895,696.519 478.498,703.743 488.546,709.444 498.542,715.047 512.36,722.656 519.446,726.488 537.318,735.915 541.198,737.913 563.402,748.988 563.786,749.174 587.197,760.124 590.592,761.647 611.419,770.623 618.868,773.675 636.439,780.538 648.21,784.866 662.243,789.743 678.597,795.032 688.818,798.121 710.006,803.996 716.149,805.565 742.417,811.601 744.221,811.976 773.019,817.266 802.527,821.359 832.727,824.187 863.6,825.697 895.129,825.843 927.292,824.595 960.068,821.93 993.435,817.84 1027.37,812.325 1061.84,805.4 1096.83,797.088 1132.3,787.426 1168.22,776.461 1204.56,764.251 1241.29,750.865 1278.36,736.381 1315.74,720.892 1353.39,704.495 1391.25,687.303 1429.29,669.434 1467.45,651.017 1469.88,649.832 1505.68,632.188 1514.19,627.959 1543.92,613.091 1558.49,605.771 1582.11,593.877 1602.7,583.506 1620.19,574.703 1646.71,561.41 1658.09,555.729 1690.41,539.737 1695.75,537.12 1733.07,519.043 1733.69,518.746 1770,501.663 1776.44,498.696 1806.45,485.146 1818.51,479.843 1842.32,469.654 1859.79,462.438 1877.55,455.345 1900.12,446.722 1912.02,442.368 1939.36,432.921 1945.65,430.866 1977.37,421.243 1978.34,420.97 2009.99,412.796 2013.98,411.875 2040.49,406.449 2049.04,404.975 2069.74,402.016 2082.38,400.673 2097.65,399.566 2113.83,399.069 2124.09,399.149 2143.25,400.224 2148.97,400.8 2170.47,404.165 2172.19,404.522 2193.65,410.314 2195.33,410.88 2213.25,418.138 2217.68,420.32 2230.9,427.941 2237.39,432.403 2246.52,439.671 2249.78,442.592 2254.33,447.016 2260.04,453.217 2268.4,464.005 2271.38,468.478 2279.49,483.195 2280.5,485.351 2282.87,490.881 2287.35,503.729 2287.55,504.393 2291.9,523.363 2291.62,588.993 2290.46,595.878 2288.72,604.652 2286.92,612.466 2281.31,632.427 2279.97,636.551 2270.93,660.786 2270.81,661.075 2259.52,685.848 2257.68,689.52 2246.17,710.774 2242,717.89 2241.69,718.411 2230.85,735.721 2223.08,747.283 2213.65,760.549 2202.02,775.941 2194.68,785.171 2178.67,804.224 2174.05,809.476 2153.21,831.994 2151.88,833.38 2128.27,856.806 2125.83,859.127 2103.37,879.685 2096.71,885.52 2077.28,901.96 2066.05,911.082 2050.12,923.585 2034.02,935.747 2022.02,944.514 2000.8,959.458 1993.08,964.727 1966.58,982.172 1963.42,984.187 1933.14,1002.89 1931.51,1003.87 1902.34,1020.81 1895.74,1024.52 1871.12,1037.96 1859.43,1044.12 1839.55,1054.32 1822.71,1062.68 1807.72,1069.9 1785.68,1080.18 1775.71,1084.71 1748.47,1096.67 1743.58,1098.75 1711.39,1112.04 1711.18,1112.12 1679.2,1124.59 1673.87,1126.6 1647.06,1136.41 1636.65,1140.08 1615,1147.51 1599.56,1152.62 1583.08,1157.91 1562.66,1164.24 1551.31,1167.64 1526.01,1174.94 1519.74,1176.69 1489.64,1184.77 1488.39,1185.1 1457.27,1192.87 1453.59,1193.75 1426.41,1200.01 1417.89,1201.89 1395.82,1206.55 1382.55,1209.22 1365.51,1212.5 1335.49,1217.87 1305.78,1222.66 1276.37,1226.9 1247.27,1230.6 1218.48,1233.75 1190.01,1236.37 1161.85,1238.46 1134.01,1240.04 1106.49,1241.1 1079.27,1241.65 "/>
<polyline clip-path="url(#clip082)" style="stroke:#c271d2; stroke-linecap:round; stroke-linejoin:round; stroke-width:4; stroke-opacity:1; fill:none" points="1085.22,1157.83 1058.24,1158 1031.56,1157.67 1005.18,1156.84 979.114,1155.5 953.349,1153.65 927.887,1151.29 902.73,1148.42 877.878,1145.04 853.332,1141.13 829.096,1136.7 815.576,1133.98 805.172,1131.75 788.087,1127.83 781.565,1126.25 761.028,1120.97 758.28,1120.22 735.323,1113.64 734.41,1113.36 712.703,1106.5 708.243,1105.01 690.428,1098.8 682.542,1095.9 668.507,1090.52 657.324,1086.02 646.953,1081.68 632.606,1075.37 625.779,1072.25 608.411,1063.94 604.998,1062.24 584.762,1051.71 584.627,1051.63 564.682,1040.45 561.686,1038.69 545.182,1028.66 539.211,1024.88 526.148,1016.29 517.37,1010.28 507.599,1003.35 496.196,994.906 489.56,989.821 475.726,978.783 472.054,975.747 455.998,961.917 455.106,961.121 438.742,945.987 437.053,944.364 422.989,930.354 418.933,926.149 407.876,914.273 401.681,907.335 393.429,897.765 385.341,887.995 379.679,880.899 369.958,868.189 366.653,863.709 355.577,848.033 354.38,846.275 342.889,828.648 342.242,827.615 332.208,810.925 329.996,807.06 322.364,793.177 318.882,786.514 313.382,775.494 308.938,766.105 305.287,757.994 300.203,745.991 300.057,745.639 298.103,740.755 292.711,726.363 291.85,723.91 286.55,707.552 286.493,707.368 282.219,691.801 281.578,689.187 278.872,676.794 277.988,672.003 277.118,666.712 277.231,616.646 277.309,616.325 279.11,610.283 280.078,607.791 280.493,606.836 283.88,600.646 285.142,598.879 288.715,594.917 291.177,592.832 293.157,591.456 294.578,590.608 298.591,588.723 301.467,587.754 307.378,586.554 309.375,586.341 317.527,586.292 318.295,586.345 328.22,587.715 329.025,587.877 339.14,590.4 341.859,591.216 351.047,594.321 356.014,596.185 363.928,599.38 371.474,602.631 377.774,605.473 388.22,610.378 392.574,612.481 406.236,619.233 408.315,620.276 424.986,628.719 425.502,628.983 442.574,637.667 446,639.403 461.067,646.971 467.709,650.263 480.452,656.48 490.611,661.328 500.717,666.043 514.686,672.363 521.848,675.508 539.911,683.135 543.832,684.73 566.267,693.42 566.655,693.564 590.304,701.874 593.732,703.005 614.764,709.528 622.284,711.685 640.022,716.405 651.901,719.275 666.061,722.39 682.557,725.601 692.866,727.38 714.231,730.511 720.423,731.279 746.894,733.869 748.713,734.005 777.72,735.486 807.426,735.658 837.812,734.474 868.858,731.893 900.544,727.891 932.848,722.451 965.747,715.571 999.217,707.26 1033.23,697.536 1067.77,686.432 1102.79,673.99 1138.28,660.266 1174.19,645.324 1210.5,629.241 1247.17,612.103 1284.16,594.008 1321.44,575.064 1358.96,555.389 1396.67,535.107 1434.53,514.355 1472.5,493.276 1474.91,491.929 1510.51,472.02 1518.96,467.285 1548.51,450.744 1562.99,442.661 1586.45,429.61 1606.9,418.313 1624.26,408.785 1650.58,394.502 1661.88,388.437 1693.95,371.492 1699.24,368.738 1736.27,349.858 1736.89,349.55 1772.89,331.966 1779.27,328.939 1809.03,315.229 1820.99,309.916 1844.59,299.805 1861.9,292.728 1879.51,285.849 1901.88,277.607 1913.68,273.504 1940.78,264.767 1947.01,262.902 1978.46,254.399 1979.42,254.164 2010.79,247.393 2014.75,246.669 2041.04,242.678 2049.52,241.713 2070.06,240.088 2082.6,239.633 2097.75,239.675 2113.82,240.497 2124.01,241.469 2143.04,244.335 2148.73,245.48 2170.1,251.138 2171.81,251.694 2193.16,260.08 2194.83,260.86 2212.68,270.581 2217.1,273.419 2230.29,283.134 2236.77,288.699 2245.9,297.643 2249.15,301.197 2253.71,306.555 2259.43,313.984 2267.82,326.795 2270.82,332.064 2279,349.219 2280.02,351.733 2282.41,358.12 2286.97,372.837 2287.17,373.6 2291.65,395.183 2292.29,399.664 2291.92,468.464 2290.82,476.108 2289.16,485.729 2287.44,494.324 2282.03,516.179 2280.73,520.701 2271.94,547.063 2271.83,547.384 2260.8,574.23 2259,578.187 2247.73,601.119 2243.63,608.776 2243.33,609.336 2232.68,627.919 2225.05,640.314 2215.77,654.502 2204.32,670.93 2197.09,680.77 2181.3,701.038 2176.74,706.619 2156.17,730.5 2154.85,731.969 2131.52,756.744 2129.11,759.195 2106.89,780.879 2100.3,787.026 2081.06,804.326 2069.93,813.912 2054.15,827.038 2038.19,839.792 2026.29,848.978 2005.25,864.618 1997.59,870.126 1971.28,888.353 1968.14,890.455 1938.07,909.96 1936.44,910.98 1907.46,928.624 1900.9,932.483 1876.42,946.458 1864.79,952.867 1845.01,963.452 1828.25,972.127 1813.34,979.624 1791.4,990.288 1781.47,994.973 1754.34,1007.36 1749.46,1009.52 1717.38,1023.27 1717.17,1023.36 1685.29,1036.25 1679.98,1038.32 1653.23,1048.46 1642.85,1052.26 1621.25,1059.93 1605.83,1065.22 1589.39,1070.67 1569,1077.2 1557.67,1080.72 1532.4,1088.26 1526.14,1090.07 1496.07,1098.41 1494.82,1098.74 1463.72,1106.77 1460.04,1107.68 1432.87,1114.15 1424.35,1116.09 1402.27,1120.92 1389.01,1123.67 1371.96,1127.07 1341.92,1132.63 1312.18,1137.61 1282.74,1142.03 1253.6,1145.89 1224.77,1149.2 1196.24,1151.97 1168.02,1154.21 1140.11,1155.93 1112.51,1157.14 1085.22,1157.83 "/>
<polyline clip-path="url(#clip082)" style="stroke:#ac8d18; stroke-linecap:round; stroke-linejoin:round; stroke-width:4; stroke-opacity:1; fill:none" points="1088.62,1112.83 1061.58,1113.08 1034.85,1112.83 1008.42,1112.07 982.292,1110.8 956.466,1109.03 930.941,1106.75 905.719,1103.97 880.799,1100.67 856.183,1096.86 831.875,1092.53 818.314,1089.85 807.878,1087.67 790.738,1083.83 784.195,1082.28 763.59,1077.09 760.833,1076.37 737.798,1069.9 736.881,1069.63 715.097,1062.89 710.621,1061.43 692.74,1055.33 684.825,1052.49 670.736,1047.21 659.51,1042.79 649.098,1038.52 634.694,1032.33 627.839,1029.27 610.399,1021.11 606.972,1019.45 586.649,1009.11 586.513,1009.04 566.48,998.07 563.471,996.351 546.892,986.521 540.894,982.815 527.769,974.403 518.949,968.52 509.131,961.731 497.672,953.472 491.003,948.499 477.099,937.706 473.408,934.738 457.269,921.23 456.371,920.453 439.92,905.683 438.222,904.099 424.08,890.438 420.001,886.342 408.88,874.776 402.649,868.028 394.349,858.716 386.212,849.216 380.515,842.325 370.734,829.989 367.408,825.643 356.26,810.451 355.056,808.746 343.488,791.693 342.836,790.692 332.733,774.567 330.506,770.841 322.818,757.455 319.31,751.038 313.769,740.435 309.291,731.412 305.61,723.625 300.485,712.123 300.338,711.776 298.367,707.108 292.928,693.344 292.06,690.999 286.709,675.41 286.653,675.233 282.334,660.431 281.686,657.953 278.949,646.215 278.053,641.689 277.171,636.691 277.209,589.942 277.288,589.644 279.089,584.104 280.058,581.827 280.473,580.961 283.87,575.36 285.136,573.77 288.722,570.245 291.194,568.414 293.182,567.22 294.611,566.49 298.643,564.909 301.533,564.123 307.475,563.236 309.483,563.116 317.68,563.352 318.453,563.429 328.436,565.01 329.246,565.185 339.423,567.798 342.158,568.621 351.403,571.703 356.402,573.531 364.367,576.628 371.961,579.748 378.302,582.456 388.816,587.092 393.198,589.066 406.95,595.361 409.043,596.327 425.823,604.097 426.343,604.338 443.526,612.232 446.975,613.799 462.14,620.582 468.825,623.509 481.65,628.997 491.874,633.239 502.043,637.328 516.1,642.754 523.306,645.428 541.48,651.829 545.424,653.152 567.993,660.248 568.384,660.363 592.169,666.929 595.616,667.803 616.765,672.726 624.326,674.303 642.157,677.638 654.098,679.57 668.33,681.559 684.907,683.446 695.265,684.393 716.728,685.79 722.947,686.054 749.533,686.48 751.359,686.468 780.481,685.573 810.295,683.315 840.781,679.657 871.919,674.569 903.688,668.035 936.064,660.052 969.024,650.628 1002.54,639.781 1036.6,627.543 1071.16,613.957 1106.19,599.076 1141.67,582.967 1177.57,565.706 1213.85,547.38 1250.48,528.088 1287.41,507.936 1324.61,487.044 1362.04,465.539 1399.66,443.555 1437.41,421.239 1475.25,398.741 1477.65,397.309 1513.13,376.219 1521.55,371.224 1550.99,353.837 1565.4,345.376 1588.77,331.764 1609.13,320.031 1626.42,310.17 1652.62,295.454 1663.87,289.229 1695.79,271.917 1701.06,269.115 1737.91,249.999 1738.52,249.689 1774.35,232.051 1780.7,229.032 1810.3,215.434 1822.21,210.202 1845.69,200.308 1862.91,193.44 1880.43,186.819 1902.69,178.972 1914.43,175.108 1941.39,167.001 1947.59,165.298 1978.88,157.707 1979.84,157.502 2011.07,151.815 2015.01,151.24 2041.18,148.313 2049.62,147.719 2070.07,147.054 2082.55,147.228 2097.65,148.078 2113.66,149.815 2123.81,151.402 2142.78,155.489 2148.44,157.02 2169.75,164.219 2171.46,164.907 2192.76,175.014 2194.43,175.939 2212.25,187.279 2216.66,190.544 2229.84,201.618 2236.32,207.898 2245.45,217.912 2248.71,221.878 2253.28,227.828 2259.01,236.049 2267.43,250.137 2270.44,255.912 2278.67,274.595 2279.69,277.321 2282.11,284.252 2286.72,300.123 2286.92,300.962 2291.49,324.188 2292.15,328.983 2292.21,329.506 2292.1,402.131 2291.04,410.247 2289.43,420.416 2287.76,429.464 2282.46,452.481 2281.19,457.238 2272.56,484.888 2272.44,485.221 2261.58,513.315 2259.8,517.455 2248.66,541.389 2244.62,549.366 2244.32,549.947 2233.79,569.284 2226.23,582.172 2217.04,596.908 2205.69,613.945 2198.53,624.145 2182.87,645.127 2178.35,650.898 2157.93,675.578 2156.62,677.094 2133.45,702.653 2131.05,705.18 2108.97,727.519 2102.43,733.845 2083.29,751.641 2072.23,761.495 2056.53,774.979 2040.65,788.074 2028.81,797.5 2007.86,813.535 2000.24,819.181 1974.04,837.852 1970.92,840.005 1940.96,859.964 1939.34,861.008 1910.46,879.049 1903.92,882.99 1879.51,897.27 1867.93,903.812 1848.2,914.619 1831.49,923.47 1816.61,931.119 1794.72,941.994 1784.82,946.769 1757.74,959.391 1752.88,961.592 1720.86,975.602 1720.65,975.691 1688.82,988.81 1683.52,990.92 1656.81,1001.24 1646.44,1005.11 1624.87,1012.92 1609.47,1018.29 1593.04,1023.84 1572.67,1030.48 1561.35,1034.06 1536.09,1041.73 1529.84,1043.57 1499.78,1052.05 1498.52,1052.39 1467.43,1060.55 1463.76,1061.48 1436.58,1068.06 1428.06,1070.03 1405.99,1074.94 1392.72,1077.75 1375.66,1081.21 1345.62,1086.88 1315.86,1091.96 1286.39,1096.47 1257.23,1100.41 1228.36,1103.81 1199.8,1106.67 1171.55,1108.99 1143.6,1110.79 1115.95,1112.06 1088.62,1112.83 "/>
<polyline clip-path="url(#clip082)" style="stroke:#00a9ad; stroke-linecap:round; stroke-linejoin:round; stroke-width:4; stroke-opacity:1; fill:none" points="1090.76,1085.46 1063.69,1085.76 1036.93,1085.55 1010.46,1084.84 984.296,1083.62 958.431,1081.89 932.866,1079.67 907.601,1076.93 882.637,1073.69 857.977,1069.94 833.623,1065.66 820.035,1063.03 809.579,1060.87 792.404,1057.08 785.848,1055.55 765.2,1050.43 762.436,1049.71 739.351,1043.32 738.432,1043.06 716.599,1036.4 712.112,1034.95 694.19,1028.93 686.256,1026.12 672.133,1020.9 660.879,1016.53 650.442,1012.32 636.001,1006.2 629.128,1003.17 611.642,995.117 608.206,993.471 587.828,983.267 587.692,983.196 567.604,972.365 564.586,970.666 547.96,960.963 541.944,957.304 528.78,949.012 519.934,943.205 510.086,936.509 498.592,928.368 491.902,923.466 477.954,912.832 474.251,909.909 458.058,896.604 457.158,895.839 440.651,881.303 438.947,879.744 424.756,866.307 420.663,862.277 409.502,850.912 403.249,844.282 394.918,835.135 386.75,825.812 381.032,819.049 371.212,806.948 367.873,802.687 356.681,787.802 355.472,786.133 343.856,769.438 343.202,768.458 333.055,752.691 330.818,749.051 323.096,735.977 319.572,729.714 314.004,719.371 309.505,710.575 305.807,702.993 300.656,691.796 300.508,691.462 298.527,686.921 293.059,673.553 292.186,671.278 286.805,656.16 286.748,655.986 282.402,641.657 281.75,639.264 278.994,627.93 278.091,623.563 277.201,618.751 277.199,573.955 277.277,573.696 279.08,568.436 280.05,566.275 280.466,565.463 283.87,560.183 285.138,558.696 288.734,555.414 291.213,553.72 293.208,552.623 294.641,551.963 298.686,550.531 301.586,549.838 307.549,549.106 309.564,549.024 317.792,549.384 318.568,549.466 328.59,551.112 329.403,551.288 339.62,553.892 342.367,554.701 351.649,557.712 356.669,559.481 364.667,562.468 372.293,565.46 378.661,568.045 389.219,572.45 393.62,574.317 407.429,580.244 409.531,581.15 426.382,588.403 426.904,588.627 444.16,595.93 447.623,597.372 462.851,603.582 469.564,606.245 482.442,611.209 492.707,615.018 502.918,618.665 517.03,623.46 524.265,625.803 542.509,631.35 546.468,632.484 569.122,638.476 569.514,638.572 593.386,643.939 596.845,644.637 618.068,648.466 625.655,649.648 643.545,652.043 655.524,653.34 669.801,654.567 686.429,655.562 696.818,655.949 718.341,656.182 724.578,656.108 751.234,655.088 753.065,654.977 782.258,652.499 812.138,648.628 842.686,643.333 873.879,636.591 905.696,628.393 938.115,618.744 971.11,607.657 1004.66,595.16 1038.73,581.29 1073.3,566.099 1108.34,549.648 1143.81,532.009 1179.69,513.268 1215.95,493.517 1252.54,472.862 1289.43,451.419 1326.58,429.311 1363.95,406.673 1401.5,383.647 1439.18,360.382 1476.93,337.036 1479.33,335.554 1514.72,313.771 1523.12,308.626 1552.49,290.756 1566.86,282.083 1590.17,268.161 1610.47,256.194 1627.71,246.161 1653.84,231.231 1665.06,224.932 1696.88,207.467 1702.13,204.648 1738.87,185.481 1739.48,185.171 1775.19,167.601 1781.52,164.607 1811.03,151.17 1822.89,146.025 1846.3,136.343 1863.47,129.665 1880.93,123.265 1903.12,115.744 1914.82,112.072 1941.7,104.46 1947.88,102.883 1979.08,95.9834 1980.03,95.8016 2011.17,90.9183 2015.1,90.453 2041.19,88.3016 2049.61,87.9763 2070.01,88.0017 2082.46,88.6246 2097.52,90.0482 2113.49,92.4316 2123.61,94.4499 2142.54,99.3919 2148.2,101.191 2169.47,109.462 2171.18,110.239 2192.45,121.535 2194.12,122.558 2211.93,135.005 2216.34,138.564 2229.52,150.558 2236,157.329 2245.14,168.071 2248.4,172.312 2252.97,178.659 2258.71,187.417 2267.15,202.361 2270.17,208.472 2278.43,228.179 2279.46,231.056 2281.89,238.33 2286.54,255.009 2286.75,255.87 2291.37,280.215 2292.04,285.178 2292.11,285.729 2292.21,361.267 2291.18,369.634 2289.61,380.178 2287.96,389.522 2282.75,413.284 2281.49,418.191 2272.96,446.689 2272.85,447.037 2262.08,475.933 2260.33,480.179 2249.28,504.763 2245.26,512.944 2244.96,513.545 2234.51,533.372 2227,546.571 2217.87,561.662 2206.59,579.092 2199.46,589.519 2183.89,610.96 2179.39,616.853 2159.07,642.043 2157.77,643.589 2134.7,669.648 2132.31,672.225 2110.32,694.978 2103.8,701.418 2084.74,719.53 2073.72,729.553 2058.07,743.263 2042.24,756.572 2030.44,766.149 2009.55,782.434 2001.94,788.167 1975.82,807.117 1972.7,809.299 1942.82,829.544 1941.2,830.602 1912.39,848.892 1905.86,852.886 1881.5,867.351 1869.94,873.979 1850.25,884.924 1833.56,893.883 1818.71,901.625 1796.85,912.63 1786.96,917.464 1759.92,930.227 1755.06,932.457 1723.09,946.623 1722.87,946.712 1691.08,959.974 1685.78,962.11 1659.09,972.543 1648.73,976.453 1627.17,984.338 1611.78,989.767 1595.36,995.377 1575.01,1002.08 1563.69,1005.69 1538.44,1013.44 1532.19,1015.3 1502.13,1023.86 1500.88,1024.21 1469.8,1032.46 1466.12,1033.39 1438.95,1040.04 1430.42,1042.03 1408.35,1047 1395.08,1049.84 1378.02,1053.33 1347.96,1059.06 1318.19,1064.2 1288.71,1068.76 1259.53,1072.76 1230.64,1076.21 1202.06,1079.12 1173.78,1081.49 1145.8,1083.33 1118.13,1084.65 1090.76,1085.46 "/>
</svg>
