<?xml version="1.0" encoding="utf-8"?>
<svg xmlns="http://www.w3.org/2000/svg" xmlns:xlink="http://www.w3.org/1999/xlink" width="600" height="400" viewBox="0 0 2400 1600">
<defs>
  <clipPath id="clip140">
    <rect x="0" y="0" width="2400" height="1600"/>
  </clipPath>
</defs>
<path clip-path="url(#clip140)" d="
M0 1600 L2400 1600 L2400 0 L0 0  Z
  " fill="#ffffff" fill-rule="evenodd" fill-opacity="1"/>
<defs>
  <clipPath id="clip141">
    <rect x="480" y="0" width="1681" height="1600"/>
  </clipPath>
</defs>
<path clip-path="url(#clip140)" d="
M216.922 1486.45 L2352.76 1486.45 L2352.76 47.2441 L216.922 47.2441  Z
  " fill="#ffffff" fill-rule="evenodd" fill-opacity="1"/>
<defs>
  <clipPath id="clip142">
    <rect x="216" y="47" width="2137" height="1440"/>
  </clipPath>
</defs>
<polyline clip-path="url(#clip142)" style="stroke:#000000; stroke-linecap:round; stroke-linejoin:round; stroke-width:2; stroke-opacity:0.1; fill:none" points="
  277.37,1486.45 277.37,47.2441 
  "/>
<polyline clip-path="url(#clip142)" style="stroke:#000000; stroke-linecap:round; stroke-linejoin:round; stroke-width:2; stroke-opacity:0.1; fill:none" points="
  802.093,1486.45 802.093,47.2441 
  "/>
<polyline clip-path="url(#clip142)" style="stroke:#000000; stroke-linecap:round; stroke-linejoin:round; stroke-width:2; stroke-opacity:0.1; fill:none" points="
  1326.82,1486.45 1326.82,47.2441 
  "/>
<polyline clip-path="url(#clip142)" style="stroke:#000000; stroke-linecap:round; stroke-linejoin:round; stroke-width:2; stroke-opacity:0.1; fill:none" points="
  1851.54,1486.45 1851.54,47.2441 
  "/>
<polyline clip-path="url(#clip140)" style="stroke:#000000; stroke-linecap:round; stroke-linejoin:round; stroke-width:4; stroke-opacity:1; fill:none" points="
  216.922,1486.45 2352.76,1486.45 
  "/>
<polyline clip-path="url(#clip140)" style="stroke:#000000; stroke-linecap:round; stroke-linejoin:round; stroke-width:4; stroke-opacity:1; fill:none" points="
  277.37,1486.45 277.37,1467.55 
  "/>
<polyline clip-path="url(#clip140)" style="stroke:#000000; stroke-linecap:round; stroke-linejoin:round; stroke-width:4; stroke-opacity:1; fill:none" points="
  802.093,1486.45 802.093,1467.55 
  "/>
<polyline clip-path="url(#clip140)" style="stroke:#000000; stroke-linecap:round; stroke-linejoin:round; stroke-width:4; stroke-opacity:1; fill:none" points="
  1326.82,1486.45 1326.82,1467.55 
  "/>
<polyline clip-path="url(#clip140)" style="stroke:#000000; stroke-linecap:round; stroke-linejoin:round; stroke-width:4; stroke-opacity:1; fill:none" points="
  1851.54,1486.45 1851.54,1467.55 
  "/>
<path clip-path="url(#clip140)" d="M277.37 1517.37 Q273.759 1517.37 271.93 1520.93 Q270.125 1524.47 270.125 1531.6 Q270.125 1538.71 271.93 1542.27 Q273.759 1545.82 277.37 1545.82 Q281.004 1545.82 282.81 1542.27 Q284.639 1538.71 284.639 1531.6 Q284.639 1524.47 282.81 1520.93 Q281.004 1517.37 277.37 1517.37 M277.37 1513.66 Q283.18 1513.66 286.236 1518.27 Q289.314 1522.85 289.314 1531.6 Q289.314 1540.33 286.236 1544.94 Q283.18 1549.52 277.37 1549.52 Q271.56 1549.52 268.481 1544.94 Q265.426 1540.33 265.426 1531.6 Q265.426 1522.85 268.481 1518.27 Q271.56 1513.66 277.37 1513.66 Z" fill="#000000" fill-rule="evenodd" fill-opacity="1" /><path clip-path="url(#clip140)" d="M796.746 1544.91 L813.066 1544.91 L813.066 1548.85 L791.121 1548.85 L791.121 1544.91 Q793.783 1542.16 798.367 1537.53 Q802.973 1532.88 804.154 1531.53 Q806.399 1529.01 807.279 1527.27 Q808.181 1525.51 808.181 1523.82 Q808.181 1521.07 806.237 1519.33 Q804.316 1517.6 801.214 1517.6 Q799.015 1517.6 796.561 1518.36 Q794.131 1519.13 791.353 1520.68 L791.353 1515.95 Q794.177 1514.82 796.631 1514.24 Q799.084 1513.66 801.121 1513.66 Q806.492 1513.66 809.686 1516.35 Q812.88 1519.03 812.88 1523.52 Q812.88 1525.65 812.07 1527.57 Q811.283 1529.47 809.177 1532.07 Q808.598 1532.74 805.496 1535.95 Q802.394 1539.15 796.746 1544.91 Z" fill="#000000" fill-rule="evenodd" fill-opacity="1" /><path clip-path="url(#clip140)" d="M1329.83 1518.36 L1318.02 1536.81 L1329.83 1536.81 L1329.83 1518.36 M1328.6 1514.29 L1334.48 1514.29 L1334.48 1536.81 L1339.41 1536.81 L1339.41 1540.7 L1334.48 1540.7 L1334.48 1548.85 L1329.83 1548.85 L1329.83 1540.7 L1314.22 1540.7 L1314.22 1536.19 L1328.6 1514.29 Z" fill="#000000" fill-rule="evenodd" fill-opacity="1" /><path clip-path="url(#clip140)" d="M1851.95 1529.7 Q1848.8 1529.7 1846.95 1531.86 Q1845.12 1534.01 1845.12 1537.76 Q1845.12 1541.49 1846.95 1543.66 Q1848.8 1545.82 1851.95 1545.82 Q1855.09 1545.82 1856.92 1543.66 Q1858.77 1541.49 1858.77 1537.76 Q1858.77 1534.01 1856.92 1531.86 Q1855.09 1529.7 1851.95 1529.7 M1861.23 1515.05 L1861.23 1519.31 Q1859.47 1518.48 1857.66 1518.04 Q1855.88 1517.6 1854.12 1517.6 Q1849.49 1517.6 1847.04 1520.72 Q1844.61 1523.85 1844.26 1530.17 Q1845.63 1528.15 1847.69 1527.09 Q1849.75 1526 1852.22 1526 Q1857.43 1526 1860.44 1529.17 Q1863.47 1532.32 1863.47 1537.76 Q1863.47 1543.08 1860.32 1546.3 Q1857.18 1549.52 1851.95 1549.52 Q1845.95 1549.52 1842.78 1544.94 Q1839.61 1540.33 1839.61 1531.6 Q1839.61 1523.41 1843.5 1518.55 Q1847.39 1513.66 1853.94 1513.66 Q1855.7 1513.66 1857.48 1514.01 Q1859.28 1514.36 1861.23 1515.05 Z" fill="#000000" fill-rule="evenodd" fill-opacity="1" /><polyline clip-path="url(#clip142)" style="stroke:#000000; stroke-linecap:round; stroke-linejoin:round; stroke-width:2; stroke-opacity:0.1; fill:none" points="
  216.922,1445.72 2352.76,1445.72 
  "/>
<polyline clip-path="url(#clip142)" style="stroke:#000000; stroke-linecap:round; stroke-linejoin:round; stroke-width:2; stroke-opacity:0.1; fill:none" points="
  216.922,1099.82 2352.76,1099.82 
  "/>
<polyline clip-path="url(#clip142)" style="stroke:#000000; stroke-linecap:round; stroke-linejoin:round; stroke-width:2; stroke-opacity:0.1; fill:none" points="
  216.922,753.917 2352.76,753.917 
  "/>
<polyline clip-path="url(#clip142)" style="stroke:#000000; stroke-linecap:round; stroke-linejoin:round; stroke-width:2; stroke-opacity:0.1; fill:none" points="
  216.922,408.018 2352.76,408.018 
  "/>
<polyline clip-path="url(#clip142)" style="stroke:#000000; stroke-linecap:round; stroke-linejoin:round; stroke-width:2; stroke-opacity:0.1; fill:none" points="
  216.922,62.119 2352.76,62.119 
  "/>
<polyline clip-path="url(#clip140)" style="stroke:#000000; stroke-linecap:round; stroke-linejoin:round; stroke-width:4; stroke-opacity:1; fill:none" points="
  216.922,1486.45 216.922,47.2441 
  "/>
<polyline clip-path="url(#clip140)" style="stroke:#000000; stroke-linecap:round; stroke-linejoin:round; stroke-width:4; stroke-opacity:1; fill:none" points="
  216.922,1445.72 235.82,1445.72 
  "/>
<polyline clip-path="url(#clip140)" style="stroke:#000000; stroke-linecap:round; stroke-linejoin:round; stroke-width:4; stroke-opacity:1; fill:none" points="
  216.922,1099.82 235.82,1099.82 
  "/>
<polyline clip-path="url(#clip140)" style="stroke:#000000; stroke-linecap:round; stroke-linejoin:round; stroke-width:4; stroke-opacity:1; fill:none" points="
  216.922,753.917 235.82,753.917 
  "/>
<polyline clip-path="url(#clip140)" style="stroke:#000000; stroke-linecap:round; stroke-linejoin:round; stroke-width:4; stroke-opacity:1; fill:none" points="
  216.922,408.018 235.82,408.018 
  "/>
<polyline clip-path="url(#clip140)" style="stroke:#000000; stroke-linecap:round; stroke-linejoin:round; stroke-width:4; stroke-opacity:1; fill:none" points="
  216.922,62.119 235.82,62.119 
  "/>
<path clip-path="url(#clip140)" d="M63.4226 1431.51 Q59.8115 1431.51 57.9828 1435.08 Q56.1773 1438.62 56.1773 1445.75 Q56.1773 1452.86 57.9828 1456.42 Q59.8115 1459.96 63.4226 1459.96 Q67.0569 1459.96 68.8624 1456.42 Q70.6911 1452.86 70.6911 1445.75 Q70.6911 1438.62 68.8624 1435.08 Q67.0569 1431.51 63.4226 1431.51 M63.4226 1427.81 Q69.2328 1427.81 72.2883 1432.42 Q75.367 1437 75.367 1445.75 Q75.367 1454.48 72.2883 1459.08 Q69.2328 1463.67 63.4226 1463.67 Q57.6125 1463.67 54.5338 1459.08 Q51.4782 1454.48 51.4782 1445.75 Q51.4782 1437 54.5338 1432.42 Q57.6125 1427.81 63.4226 1427.81 Z" fill="#000000" fill-rule="evenodd" fill-opacity="1" /><path clip-path="url(#clip140)" d="M83.5845 1457.12 L88.4688 1457.12 L88.4688 1463 L83.5845 1463 L83.5845 1457.12 Z" fill="#000000" fill-rule="evenodd" fill-opacity="1" /><path clip-path="url(#clip140)" d="M108.654 1431.51 Q105.043 1431.51 103.214 1435.08 Q101.409 1438.62 101.409 1445.75 Q101.409 1452.86 103.214 1456.42 Q105.043 1459.96 108.654 1459.96 Q112.288 1459.96 114.094 1456.42 Q115.922 1452.86 115.922 1445.75 Q115.922 1438.62 114.094 1435.08 Q112.288 1431.51 108.654 1431.51 M108.654 1427.81 Q114.464 1427.81 117.52 1432.42 Q120.598 1437 120.598 1445.75 Q120.598 1454.48 117.52 1459.08 Q114.464 1463.67 108.654 1463.67 Q102.844 1463.67 99.765 1459.08 Q96.7095 1454.48 96.7095 1445.75 Q96.7095 1437 99.765 1432.42 Q102.844 1427.81 108.654 1427.81 Z" fill="#000000" fill-rule="evenodd" fill-opacity="1" /><path clip-path="url(#clip140)" d="M138.816 1431.51 Q135.205 1431.51 133.376 1435.08 Q131.57 1438.62 131.57 1445.75 Q131.57 1452.86 133.376 1456.42 Q135.205 1459.96 138.816 1459.96 Q142.45 1459.96 144.256 1456.42 Q146.084 1452.86 146.084 1445.75 Q146.084 1438.62 144.256 1435.08 Q142.45 1431.51 138.816 1431.51 M138.816 1427.81 Q144.626 1427.81 147.681 1432.42 Q150.76 1437 150.76 1445.75 Q150.76 1454.48 147.681 1459.08 Q144.626 1463.67 138.816 1463.67 Q133.006 1463.67 129.927 1459.08 Q126.871 1454.48 126.871 1445.75 Q126.871 1437 129.927 1432.42 Q133.006 1427.81 138.816 1427.81 Z" fill="#000000" fill-rule="evenodd" fill-opacity="1" /><path clip-path="url(#clip140)" d="M168.978 1431.51 Q165.367 1431.51 163.538 1435.08 Q161.732 1438.62 161.732 1445.75 Q161.732 1452.86 163.538 1456.42 Q165.367 1459.96 168.978 1459.96 Q172.612 1459.96 174.417 1456.42 Q176.246 1452.86 176.246 1445.75 Q176.246 1438.62 174.417 1435.08 Q172.612 1431.51 168.978 1431.51 M168.978 1427.81 Q174.788 1427.81 177.843 1432.42 Q180.922 1437 180.922 1445.75 Q180.922 1454.48 177.843 1459.08 Q174.788 1463.67 168.978 1463.67 Q163.167 1463.67 160.089 1459.08 Q157.033 1454.48 157.033 1445.75 Q157.033 1437 160.089 1432.42 Q163.167 1427.81 168.978 1427.81 Z" fill="#000000" fill-rule="evenodd" fill-opacity="1" /><path clip-path="url(#clip140)" d="M65.0198 1085.62 Q61.4087 1085.62 59.58 1089.18 Q57.7745 1092.72 57.7745 1099.85 Q57.7745 1106.96 59.58 1110.52 Q61.4087 1114.06 65.0198 1114.06 Q68.6541 1114.06 70.4596 1110.52 Q72.2883 1106.96 72.2883 1099.85 Q72.2883 1092.72 70.4596 1089.18 Q68.6541 1085.62 65.0198 1085.62 M65.0198 1081.91 Q70.83 1081.91 73.8855 1086.52 Q76.9642 1091.1 76.9642 1099.85 Q76.9642 1108.58 73.8855 1113.18 Q70.83 1117.77 65.0198 1117.77 Q59.2097 1117.77 56.131 1113.18 Q53.0754 1108.58 53.0754 1099.85 Q53.0754 1091.1 56.131 1086.52 Q59.2097 1081.91 65.0198 1081.91 Z" fill="#000000" fill-rule="evenodd" fill-opacity="1" /><path clip-path="url(#clip140)" d="M85.1818 1111.22 L90.066 1111.22 L90.066 1117.1 L85.1818 1117.1 L85.1818 1111.22 Z" fill="#000000" fill-rule="evenodd" fill-opacity="1" /><path clip-path="url(#clip140)" d="M110.251 1085.62 Q106.64 1085.62 104.811 1089.18 Q103.006 1092.72 103.006 1099.85 Q103.006 1106.96 104.811 1110.52 Q106.64 1114.06 110.251 1114.06 Q113.885 1114.06 115.691 1110.52 Q117.52 1106.96 117.52 1099.85 Q117.52 1092.72 115.691 1089.18 Q113.885 1085.62 110.251 1085.62 M110.251 1081.91 Q116.061 1081.91 119.117 1086.52 Q122.195 1091.1 122.195 1099.85 Q122.195 1108.58 119.117 1113.18 Q116.061 1117.77 110.251 1117.77 Q104.441 1117.77 101.362 1113.18 Q98.3067 1108.58 98.3067 1099.85 Q98.3067 1091.1 101.362 1086.52 Q104.441 1081.91 110.251 1081.91 Z" fill="#000000" fill-rule="evenodd" fill-opacity="1" /><path clip-path="url(#clip140)" d="M140.413 1085.62 Q136.802 1085.62 134.973 1089.18 Q133.168 1092.72 133.168 1099.85 Q133.168 1106.96 134.973 1110.52 Q136.802 1114.06 140.413 1114.06 Q144.047 1114.06 145.853 1110.52 Q147.681 1106.96 147.681 1099.85 Q147.681 1092.72 145.853 1089.18 Q144.047 1085.62 140.413 1085.62 M140.413 1081.91 Q146.223 1081.91 149.279 1086.52 Q152.357 1091.1 152.357 1099.85 Q152.357 1108.58 149.279 1113.18 Q146.223 1117.77 140.413 1117.77 Q134.603 1117.77 131.524 1113.18 Q128.469 1108.58 128.469 1099.85 Q128.469 1091.1 131.524 1086.52 Q134.603 1081.91 140.413 1081.91 Z" fill="#000000" fill-rule="evenodd" fill-opacity="1" /><path clip-path="url(#clip140)" d="M164.603 1113.16 L180.922 1113.16 L180.922 1117.1 L158.978 1117.1 L158.978 1113.16 Q161.64 1110.41 166.223 1105.78 Q170.829 1101.12 172.01 1099.78 Q174.255 1097.26 175.135 1095.52 Q176.038 1093.76 176.038 1092.07 Q176.038 1089.32 174.093 1087.58 Q172.172 1085.85 169.07 1085.85 Q166.871 1085.85 164.417 1086.61 Q161.987 1087.37 159.209 1088.93 L159.209 1084.2 Q162.033 1083.07 164.487 1082.49 Q166.941 1081.91 168.978 1081.91 Q174.348 1081.91 177.542 1084.6 Q180.737 1087.28 180.737 1091.77 Q180.737 1093.9 179.927 1095.82 Q179.14 1097.72 177.033 1100.31 Q176.454 1100.99 173.353 1104.2 Q170.251 1107.4 164.603 1113.16 Z" fill="#000000" fill-rule="evenodd" fill-opacity="1" /><path clip-path="url(#clip140)" d="M62.9365 739.716 Q59.3254 739.716 57.4967 743.281 Q55.6912 746.823 55.6912 753.952 Q55.6912 761.059 57.4967 764.623 Q59.3254 768.165 62.9365 768.165 Q66.5707 768.165 68.3763 764.623 Q70.205 761.059 70.205 753.952 Q70.205 746.823 68.3763 743.281 Q66.5707 739.716 62.9365 739.716 M62.9365 736.012 Q68.7467 736.012 71.8022 740.619 Q74.8809 745.202 74.8809 753.952 Q74.8809 762.679 71.8022 767.285 Q68.7467 771.869 62.9365 771.869 Q57.1264 771.869 54.0477 767.285 Q50.9921 762.679 50.9921 753.952 Q50.9921 745.202 54.0477 740.619 Q57.1264 736.012 62.9365 736.012 Z" fill="#000000" fill-rule="evenodd" fill-opacity="1" /><path clip-path="url(#clip140)" d="M83.0984 765.318 L87.9827 765.318 L87.9827 771.197 L83.0984 771.197 L83.0984 765.318 Z" fill="#000000" fill-rule="evenodd" fill-opacity="1" /><path clip-path="url(#clip140)" d="M108.168 739.716 Q104.557 739.716 102.728 743.281 Q100.922 746.823 100.922 753.952 Q100.922 761.059 102.728 764.623 Q104.557 768.165 108.168 768.165 Q111.802 768.165 113.608 764.623 Q115.436 761.059 115.436 753.952 Q115.436 746.823 113.608 743.281 Q111.802 739.716 108.168 739.716 M108.168 736.012 Q113.978 736.012 117.033 740.619 Q120.112 745.202 120.112 753.952 Q120.112 762.679 117.033 767.285 Q113.978 771.869 108.168 771.869 Q102.358 771.869 99.2789 767.285 Q96.2234 762.679 96.2234 753.952 Q96.2234 745.202 99.2789 740.619 Q102.358 736.012 108.168 736.012 Z" fill="#000000" fill-rule="evenodd" fill-opacity="1" /><path clip-path="url(#clip140)" d="M138.33 739.716 Q134.719 739.716 132.89 743.281 Q131.084 746.823 131.084 753.952 Q131.084 761.059 132.89 764.623 Q134.719 768.165 138.33 768.165 Q141.964 768.165 143.769 764.623 Q145.598 761.059 145.598 753.952 Q145.598 746.823 143.769 743.281 Q141.964 739.716 138.33 739.716 M138.33 736.012 Q144.14 736.012 147.195 740.619 Q150.274 745.202 150.274 753.952 Q150.274 762.679 147.195 767.285 Q144.14 771.869 138.33 771.869 Q132.519 771.869 129.441 767.285 Q126.385 762.679 126.385 753.952 Q126.385 745.202 129.441 740.619 Q132.519 736.012 138.33 736.012 Z" fill="#000000" fill-rule="evenodd" fill-opacity="1" /><path clip-path="url(#clip140)" d="M171.339 740.711 L159.533 759.16 L171.339 759.16 L171.339 740.711 M170.112 736.637 L175.991 736.637 L175.991 759.16 L180.922 759.16 L180.922 763.049 L175.991 763.049 L175.991 771.197 L171.339 771.197 L171.339 763.049 L155.737 763.049 L155.737 758.535 L170.112 736.637 Z" fill="#000000" fill-rule="evenodd" fill-opacity="1" /><path clip-path="url(#clip140)" d="M63.2606 393.817 Q59.6495 393.817 57.8208 397.382 Q56.0152 400.923 56.0152 408.053 Q56.0152 415.159 57.8208 418.724 Q59.6495 422.266 63.2606 422.266 Q66.8948 422.266 68.7004 418.724 Q70.5291 415.159 70.5291 408.053 Q70.5291 400.923 68.7004 397.382 Q66.8948 393.817 63.2606 393.817 M63.2606 390.113 Q69.0707 390.113 72.1263 394.72 Q75.205 399.303 75.205 408.053 Q75.205 416.78 72.1263 421.386 Q69.0707 425.97 63.2606 425.97 Q57.4504 425.97 54.3717 421.386 Q51.3162 416.78 51.3162 408.053 Q51.3162 399.303 54.3717 394.72 Q57.4504 390.113 63.2606 390.113 Z" fill="#000000" fill-rule="evenodd" fill-opacity="1" /><path clip-path="url(#clip140)" d="M83.4225 419.419 L88.3067 419.419 L88.3067 425.298 L83.4225 425.298 L83.4225 419.419 Z" fill="#000000" fill-rule="evenodd" fill-opacity="1" /><path clip-path="url(#clip140)" d="M108.492 393.817 Q104.881 393.817 103.052 397.382 Q101.246 400.923 101.246 408.053 Q101.246 415.159 103.052 418.724 Q104.881 422.266 108.492 422.266 Q112.126 422.266 113.932 418.724 Q115.76 415.159 115.76 408.053 Q115.76 400.923 113.932 397.382 Q112.126 393.817 108.492 393.817 M108.492 390.113 Q114.302 390.113 117.358 394.72 Q120.436 399.303 120.436 408.053 Q120.436 416.78 117.358 421.386 Q114.302 425.97 108.492 425.97 Q102.682 425.97 99.603 421.386 Q96.5474 416.78 96.5474 408.053 Q96.5474 399.303 99.603 394.72 Q102.682 390.113 108.492 390.113 Z" fill="#000000" fill-rule="evenodd" fill-opacity="1" /><path clip-path="url(#clip140)" d="M138.654 393.817 Q135.043 393.817 133.214 397.382 Q131.408 400.923 131.408 408.053 Q131.408 415.159 133.214 418.724 Q135.043 422.266 138.654 422.266 Q142.288 422.266 144.093 418.724 Q145.922 415.159 145.922 408.053 Q145.922 400.923 144.093 397.382 Q142.288 393.817 138.654 393.817 M138.654 390.113 Q144.464 390.113 147.519 394.72 Q150.598 399.303 150.598 408.053 Q150.598 416.78 147.519 421.386 Q144.464 425.97 138.654 425.97 Q132.844 425.97 129.765 421.386 Q126.709 416.78 126.709 408.053 Q126.709 399.303 129.765 394.72 Q132.844 390.113 138.654 390.113 Z" fill="#000000" fill-rule="evenodd" fill-opacity="1" /><path clip-path="url(#clip140)" d="M169.394 406.155 Q166.246 406.155 164.394 408.308 Q162.566 410.46 162.566 414.21 Q162.566 417.937 164.394 420.113 Q166.246 422.266 169.394 422.266 Q172.542 422.266 174.371 420.113 Q176.223 417.937 176.223 414.21 Q176.223 410.46 174.371 408.308 Q172.542 406.155 169.394 406.155 M178.677 391.502 L178.677 395.761 Q176.917 394.928 175.112 394.488 Q173.329 394.048 171.57 394.048 Q166.941 394.048 164.487 397.173 Q162.056 400.298 161.709 406.618 Q163.075 404.604 165.135 403.539 Q167.195 402.451 169.672 402.451 Q174.88 402.451 177.89 405.622 Q180.922 408.771 180.922 414.21 Q180.922 419.534 177.774 422.752 Q174.626 425.97 169.394 425.97 Q163.399 425.97 160.228 421.386 Q157.056 416.78 157.056 408.053 Q157.056 399.859 160.945 394.997 Q164.834 390.113 171.385 390.113 Q173.144 390.113 174.927 390.46 Q176.732 390.808 178.677 391.502 Z" fill="#000000" fill-rule="evenodd" fill-opacity="1" /><path clip-path="url(#clip140)" d="M63.5152 47.9177 Q59.9041 47.9177 58.0754 51.4825 Q56.2699 55.0242 56.2699 62.1538 Q56.2699 69.2602 58.0754 72.825 Q59.9041 76.3667 63.5152 76.3667 Q67.1494 76.3667 68.955 72.825 Q70.7837 69.2602 70.7837 62.1538 Q70.7837 55.0242 68.955 51.4825 Q67.1494 47.9177 63.5152 47.9177 M63.5152 44.2141 Q69.3254 44.2141 72.3809 48.8205 Q75.4596 53.4038 75.4596 62.1538 Q75.4596 70.8806 72.3809 75.487 Q69.3254 80.0703 63.5152 80.0703 Q57.7051 80.0703 54.6264 75.487 Q51.5708 70.8806 51.5708 62.1538 Q51.5708 53.4038 54.6264 48.8205 Q57.7051 44.2141 63.5152 44.2141 Z" fill="#000000" fill-rule="evenodd" fill-opacity="1" /><path clip-path="url(#clip140)" d="M83.6771 73.5194 L88.5614 73.5194 L88.5614 79.399 L83.6771 79.399 L83.6771 73.5194 Z" fill="#000000" fill-rule="evenodd" fill-opacity="1" /><path clip-path="url(#clip140)" d="M108.746 47.9177 Q105.135 47.9177 103.307 51.4825 Q101.501 55.0242 101.501 62.1538 Q101.501 69.2602 103.307 72.825 Q105.135 76.3667 108.746 76.3667 Q112.381 76.3667 114.186 72.825 Q116.015 69.2602 116.015 62.1538 Q116.015 55.0242 114.186 51.4825 Q112.381 47.9177 108.746 47.9177 M108.746 44.2141 Q114.557 44.2141 117.612 48.8205 Q120.691 53.4038 120.691 62.1538 Q120.691 70.8806 117.612 75.487 Q114.557 80.0703 108.746 80.0703 Q102.936 80.0703 99.8576 75.487 Q96.8021 70.8806 96.8021 62.1538 Q96.8021 53.4038 99.8576 48.8205 Q102.936 44.2141 108.746 44.2141 Z" fill="#000000" fill-rule="evenodd" fill-opacity="1" /><path clip-path="url(#clip140)" d="M138.908 47.9177 Q135.297 47.9177 133.469 51.4825 Q131.663 55.0242 131.663 62.1538 Q131.663 69.2602 133.469 72.825 Q135.297 76.3667 138.908 76.3667 Q142.543 76.3667 144.348 72.825 Q146.177 69.2602 146.177 62.1538 Q146.177 55.0242 144.348 51.4825 Q142.543 47.9177 138.908 47.9177 M138.908 44.2141 Q144.718 44.2141 147.774 48.8205 Q150.853 53.4038 150.853 62.1538 Q150.853 70.8806 147.774 75.487 Q144.718 80.0703 138.908 80.0703 Q133.098 80.0703 130.019 75.487 Q126.964 70.8806 126.964 62.1538 Q126.964 53.4038 130.019 48.8205 Q133.098 44.2141 138.908 44.2141 Z" fill="#000000" fill-rule="evenodd" fill-opacity="1" /><path clip-path="url(#clip140)" d="M169.07 62.9871 Q165.737 62.9871 163.816 64.7695 Q161.917 66.5519 161.917 69.6769 Q161.917 72.8019 163.816 74.5843 Q165.737 76.3667 169.07 76.3667 Q172.404 76.3667 174.325 74.5843 Q176.246 72.7787 176.246 69.6769 Q176.246 66.5519 174.325 64.7695 Q172.427 62.9871 169.07 62.9871 M164.394 60.9964 Q161.385 60.2556 159.695 58.1955 Q158.029 56.1353 158.029 53.1723 Q158.029 49.0288 160.968 46.6214 Q163.931 44.2141 169.07 44.2141 Q174.232 44.2141 177.172 46.6214 Q180.112 49.0288 180.112 53.1723 Q180.112 56.1353 178.422 58.1955 Q176.755 60.2556 173.769 60.9964 Q177.149 61.7834 179.024 64.0751 Q180.922 66.3667 180.922 69.6769 Q180.922 74.7 177.843 77.3852 Q174.788 80.0703 169.07 80.0703 Q163.353 80.0703 160.274 77.3852 Q157.218 74.7 157.218 69.6769 Q157.218 66.3667 159.117 64.0751 Q161.015 61.7834 164.394 60.9964 M162.681 53.6121 Q162.681 56.2973 164.348 57.8019 Q166.038 59.3066 169.07 59.3066 Q172.079 59.3066 173.769 57.8019 Q175.482 56.2973 175.482 53.6121 Q175.482 50.927 173.769 49.4224 Q172.079 47.9177 169.07 47.9177 Q166.038 47.9177 164.348 49.4224 Q162.681 50.927 162.681 53.6121 Z" fill="#000000" fill-rule="evenodd" fill-opacity="1" /><polyline clip-path="url(#clip142)" style="stroke:#009af9; stroke-linecap:round; stroke-linejoin:round; stroke-width:4; stroke-opacity:1; fill:none" points="
  277.37,1445.72 281.408,1445.72 285.446,1445.72 289.484,1445.72 293.522,1445.72 297.56,1445.72 301.598,1445.72 305.636,1445.72 309.674,1445.72 313.712,1445.72 
  317.75,1445.72 321.788,1445.72 325.826,1445.72 329.863,1445.72 333.901,1445.72 337.939,1445.72 341.977,1445.72 346.015,1445.72 350.053,1445.72 354.091,1445.72 
  358.129,1445.72 362.167,1445.72 366.205,1445.7 370.243,1445.51 374.281,1445.36 378.319,1445.23 382.357,1445.09 386.395,1444.96 390.433,1444.81 394.471,1444.67 
  398.509,1444.5 402.547,1444.34 406.585,1444.15 410.623,1443.97 414.66,1443.78 418.698,1443.56 422.736,1443.35 426.774,1443.12 430.812,1442.88 434.85,1442.64 
  438.888,1442.36 442.926,1442.09 446.964,1441.83 451.002,1441.51 455.04,1441.23 459.078,1440.87 463.116,1440.57 467.154,1440.22 471.192,1439.84 475.23,1439.49 
  479.268,1439.11 483.306,1438.71 487.344,1438.3 491.382,1437.88 495.419,1437.45 499.457,1437.01 503.495,1436.51 507.533,1436.04 511.571,1435.59 515.609,1435.03 
  519.647,1434.56 523.685,1433.96 527.723,1433.47 531.761,1432.86 535.799,1432.29 539.837,1431.71 543.875,1431.1 547.913,1430.44 551.951,1429.78 555.989,1429.13 
  560.027,1428.44 564.065,1427.75 568.103,1427.03 572.141,1426.32 576.179,1425.5 580.216,1424.72 584.254,1423.92 588.292,1423.14 592.33,1422.25 596.368,1421.35 
  600.406,1420.54 604.444,1419.48 608.482,1418.63 612.52,1417.51 616.558,1416.59 620.596,1415.34 624.634,1414.3 628.672,1412.98 632.71,1411.35 636.748,1409.89 
  640.786,1408.92 644.824,1407.83 648.862,1406.94 652.9,1405.96 656.938,1404.84 660.975,1404 665.013,1402.95 669.051,1401.82 673.089,1400.77 677.127,1399.78 
  681.165,1398.65 685.203,1397.46 689.241,1396.52 693.279,1395.44 697.317,1394.19 701.355,1393 705.393,1391.92 709.431,1390.74 713.469,1389.53 717.507,1388.36 
  721.545,1387.16 725.583,1385.98 729.621,1384.52 733.659,1383.66 737.697,1382.08 741.735,1380.8 745.772,1379.59 749.81,1378.39 753.848,1376.95 757.886,1375.6 
  761.924,1374.13 765.962,1372.75 770,1369.61 774.038,1366.45 778.076,1364.33 782.114,1363.18 786.152,1363.71 790.19,1363.8 794.228,1363.37 798.266,1361.67 
  802.304,1360.42 806.342,1358.86 810.38,1357.47 814.418,1356.13 818.456,1354.28 822.494,1352.76 826.531,1351.16 830.569,1349.86 834.607,1348.28 838.645,1346.69 
  842.683,1344.88 846.721,1343.41 850.759,1341.93 854.797,1340.26 858.835,1338.5 862.873,1336.61 866.911,1335.42 870.949,1333.66 874.987,1332.06 879.025,1330.24 
  883.063,1328.02 887.101,1326.68 891.139,1324.97 895.177,1323.31 899.215,1321.64 903.253,1319.37 907.291,1317.66 911.328,1316.08 915.366,1314.4 919.404,1312.38 
  923.442,1310.12 927.48,1308.3 931.518,1307.09 935.556,1304.63 939.594,1303.11 943.632,1301.21 947.67,1298.5 951.708,1297.58 955.746,1295.18 959.784,1293.14 
  963.822,1291.37 967.86,1288.55 971.898,1286.97 975.936,1284.27 979.974,1283.83 984.012,1282.03 988.05,1282.5 992.087,1280.66 996.125,1280.68 1000.16,1277.87 
  1004.2,1275.71 1008.24,1271.73 1012.28,1269.06 1016.32,1265.84 1020.35,1262.82 1024.39,1260.92 1028.43,1257.93 1032.47,1256.55 1036.5,1254.69 1040.54,1251.2 
  1044.58,1249.69 1048.62,1247.69 1052.66,1243.98 1056.69,1242.56 1060.73,1240.83 1064.77,1237.49 1068.81,1235.67 1072.85,1233.7 1076.88,1231.34 1080.92,1227.54 
  1084.96,1225.63 1089,1224.21 1093.04,1221.93 1097.07,1218.83 1101.11,1215.96 1105.15,1214.08 1109.19,1211.82 1113.23,1209.2 1117.26,1206.35 1121.3,1203.8 
  1125.34,1201.43 1129.38,1199.26 1133.42,1196.45 1137.45,1193.91 1141.49,1191.39 1145.53,1188.81 1149.57,1185.89 1153.61,1183.87 1157.64,1181.2 1161.68,1178.58 
  1165.72,1175.66 1169.76,1172.76 1173.8,1169.81 1177.83,1167.28 1181.87,1164.49 1185.91,1162.34 1189.95,1159.92 1193.99,1156.71 1198.02,1154.04 1202.06,1151.49 
  1206.1,1149.22 1210.14,1146.43 1214.17,1142.45 1218.21,1138.93 1222.25,1137.15 1226.29,1134.34 1230.33,1131.6 1234.36,1128.51 1238.4,1125.42 1242.44,1122.54 
  1246.48,1119.8 1250.52,1117.18 1254.55,1114.11 1258.59,1111.18 1262.63,1107.55 1266.67,1104.57 1270.71,1101.88 1274.74,1099.33 1278.78,1096.02 1282.82,1093.91 
  1286.86,1088.39 1290.9,1085.42 1294.93,1083.98 1298.97,1081.15 1303.01,1078.73 1307.05,1073.07 1311.09,1070.23 1315.12,1067.86 1319.16,1066.74 1323.2,1059.54 
  1327.24,1057.44 1331.28,1054.72 1335.31,1054.15 1339.35,1047.54 1343.39,1045.09 1347.43,1041.78 1351.47,1039.01 1355.5,1032.79 1359.54,1031.94 1363.58,1030.7 
  1367.62,1024.6 1371.65,1021.38 1375.69,1020.17 1379.73,1012.98 1383.77,1010.33 1387.81,1009.07 1391.84,1004.33 1395.88,1001.51 1399.92,998.272 1403.96,992.267 
  1408,993.026 1412.03,984.534 1416.07,983.957 1420.11,980.453 1424.15,974.62 1428.19,975.086 1432.22,966.452 1436.26,966.128 1440.3,960.861 1444.34,957.74 
  1448.38,955.071 1452.41,948.899 1456.45,948.741 1460.49,940.703 1464.53,941.116 1468.57,934.231 1472.6,934.519 1476.64,925.671 1480.68,926.332 1484.72,917.241 
  1488.76,918.089 1492.79,910.764 1496.83,911.542 1500.87,903.895 1504.91,901.665 1508.95,894.613 1512.98,891.781 1517.02,891.872 1521.06,883.485 1525.1,884.519 
  1529.13,874.886 1533.17,871.545 1537.21,867.388 1541.25,864.961 1545.29,863.573 1549.32,854.362 1553.36,852.532 1557.4,852.412 1561.44,839.963 1565.48,840.878 
  1569.51,831.256 1573.55,831.173 1577.59,830.104 1581.63,827.171 1585.67,815.802 1589.7,814.29 1593.74,810.073 1597.78,802.206 1601.82,799.965 1605.86,799.532 
  1609.89,792.165 1613.93,788.43 1617.97,783.909 1622.01,782.06 1626.05,768.918 1630.08,767.349 1634.12,765.792 1638.16,763.788 1642.2,758.936 1646.24,747.983 
  1650.27,749.772 1654.31,742.833 1658.35,735.9 1662.39,728.305 1666.43,725.854 1670.46,721.009 1674.5,721.308 1678.54,716.314 1682.58,710.894 1686.62,710.448 
  1690.65,701.258 1694.69,683.374 1698.73,687.338 1702.77,680.819 1706.8,680.42 1710.84,675.888 1714.88,669.65 1718.92,670.887 1722.96,665.118 1726.99,654.25 
  1731.03,647.054 1735.07,640.262 1739.11,637.347 1743.15,628.836 1747.18,627.88 1751.22,620.231 1755.26,622.062 1759.3,616.25 1763.34,627.669 1767.37,620.319 
  1771.41,638.884 1775.45,638.178 1779.49,645.863 1783.53,643.362 1787.56,649.321 1791.6,645.705 1795.64,648.984 1799.68,646.83 1803.72,647.84 1807.75,647.808 
  1811.79,643.569 1815.83,647.745 1819.87,644.042 1823.91,643.208 1827.94,642.147 1831.98,639.644 1836.02,639.003 1840.06,639.702 1844.1,636.583 1848.13,636.38 
  1852.17,639.994 1856.21,634.48 1860.25,631.108 1864.28,627.744 1868.32,628.52 1872.36,621.876 1876.4,620.076 1880.44,617.469 1884.47,613.476 1888.51,611.333 
  1892.55,612.296 1896.59,608.61 1900.63,603.003 1904.66,601.364 1908.7,599.03 1912.74,594.456 1916.78,591.705 1920.82,589.641 1924.85,585.804 1928.89,580.956 
  1932.93,578.58 1936.97,575.345 1941.01,569.803 1945.04,569.534 1949.08,565.71 1953.12,558.964 1957.16,553.563 1961.2,554.686 1965.23,547.451 1969.27,540.704 
  1973.31,542.107 1977.35,531.496 1981.39,530.27 1985.42,524.027 1989.46,517.649 1993.5,511.201 1997.54,509.146 2001.58,498.485 2005.61,494.768 2009.65,485.76 
  2013.69,479.89 2017.73,473.323 2021.77,463.163 2025.8,457.179 2029.84,445.231 2033.88,430.641 2037.92,426.089 2041.95,404.814 2045.99,399.514 2050.03,373.213 
  2054.07,356.687 2058.11,327.243 2062.14,297.255 2066.18,241.36 2070.22,156.94 2074.26,126.205 2078.3,111.849 2082.33,113.581 2086.37,102.554 2090.41,100.196 
  2094.45,87.9763 2098.49,256.458 2102.52,1445.72 2106.56,1445.72 2110.6,1445.72 2114.64,1445.72 2118.68,1445.72 2122.71,1445.72 2126.75,1445.72 2130.79,1445.72 
  2134.83,1445.72 2138.87,1445.72 2142.9,1445.72 2146.94,1445.72 2150.98,1445.72 2155.02,1445.72 2159.06,1445.72 2163.09,1445.72 2167.13,1445.72 2171.17,1445.72 
  2175.21,1445.72 2179.25,1445.72 2183.28,1445.72 2187.32,1445.72 2191.36,1445.72 2195.4,1445.72 2199.43,1445.72 2203.47,1445.72 2207.51,1445.72 2211.55,1445.72 
  2215.59,1445.72 2219.62,1445.72 2223.66,1445.72 2227.7,1445.72 2231.74,1445.72 2235.78,1445.72 2239.81,1445.72 2243.85,1445.72 2247.89,1445.72 2251.93,1445.72 
  2255.97,1445.72 2260,1445.72 2264.04,1445.72 2268.08,1445.72 2272.12,1445.72 2276.16,1445.72 2280.19,1445.72 2284.23,1445.72 2288.27,1445.72 2292.31,1445.72 
  
  "/>
</svg>
