<?xml version="1.0" encoding="utf-8"?>
<svg xmlns="http://www.w3.org/2000/svg" xmlns:xlink="http://www.w3.org/1999/xlink" width="600" height="400" viewBox="0 0 2400 1600">
<defs>
  <clipPath id="clip950">
    <rect x="0" y="0" width="2400" height="1600"/>
  </clipPath>
</defs>
<path clip-path="url(#clip950)" d="M0 1600 L2400 1600 L2400 0 L0 0  Z" fill="#ffffff" fill-rule="evenodd" fill-opacity="1"/>
<defs>
  <clipPath id="clip951">
    <rect x="480" y="0" width="1681" height="1600"/>
  </clipPath>
</defs>
<path clip-path="url(#clip950)" d="M279.704 1410.9 L2352.76 1410.9 L2352.76 47.2441 L279.704 47.2441  Z" fill="#ffffff" fill-rule="evenodd" fill-opacity="1"/>
<defs>
  <clipPath id="clip952">
    <rect x="279" y="47" width="2074" height="1365"/>
  </clipPath>
</defs>
<polyline clip-path="url(#clip952)" style="stroke:#000000; stroke-linecap:round; stroke-linejoin:round; stroke-width:2; stroke-opacity:0.1; fill:none" points="1021.34,1410.9 1021.34,47.2441 "/>
<polyline clip-path="url(#clip952)" style="stroke:#000000; stroke-linecap:round; stroke-linejoin:round; stroke-width:2; stroke-opacity:0.1; fill:none" points="2294.08,1410.9 2294.08,47.2441 "/>
<polyline clip-path="url(#clip950)" style="stroke:#000000; stroke-linecap:round; stroke-linejoin:round; stroke-width:4; stroke-opacity:1; fill:none" points="279.704,1410.9 2352.76,1410.9 "/>
<polyline clip-path="url(#clip950)" style="stroke:#000000; stroke-linecap:round; stroke-linejoin:round; stroke-width:4; stroke-opacity:1; fill:none" points="1021.34,1410.9 1021.34,1392 "/>
<polyline clip-path="url(#clip950)" style="stroke:#000000; stroke-linecap:round; stroke-linejoin:round; stroke-width:4; stroke-opacity:1; fill:none" points="2294.08,1410.9 2294.08,1392 "/>
<path clip-path="url(#clip950)" d="M987.668 1485.02 L995.307 1485.02 L995.307 1458.66 L986.997 1460.32 L986.997 1456.06 L995.26 1454.4 L999.936 1454.4 L999.936 1485.02 L1007.58 1485.02 L1007.58 1488.96 L987.668 1488.96 L987.668 1485.02 Z" fill="#000000" fill-rule="nonzero" fill-opacity="1" /><path clip-path="url(#clip950)" d="M1027.02 1457.48 Q1023.41 1457.48 1021.58 1461.04 Q1019.77 1464.58 1019.77 1471.71 Q1019.77 1478.82 1021.58 1482.38 Q1023.41 1485.92 1027.02 1485.92 Q1030.65 1485.92 1032.46 1482.38 Q1034.29 1478.82 1034.29 1471.71 Q1034.29 1464.58 1032.46 1461.04 Q1030.65 1457.48 1027.02 1457.48 M1027.02 1453.77 Q1032.83 1453.77 1035.89 1458.38 Q1038.96 1462.96 1038.96 1471.71 Q1038.96 1480.44 1035.89 1485.04 Q1032.83 1489.63 1027.02 1489.63 Q1021.21 1489.63 1018.13 1485.04 Q1015.08 1480.44 1015.08 1471.71 Q1015.08 1462.96 1018.13 1458.38 Q1021.21 1453.77 1027.02 1453.77 Z" fill="#000000" fill-rule="nonzero" fill-opacity="1" /><path clip-path="url(#clip950)" d="M1039.51 1458.35 L1045.72 1458.35 L1045.72 1436.93 L1038.96 1438.28 L1038.96 1434.82 L1045.68 1433.47 L1049.48 1433.47 L1049.48 1458.35 L1055.68 1458.35 L1055.68 1461.55 L1039.51 1461.55 L1039.51 1458.35 Z" fill="#000000" fill-rule="nonzero" fill-opacity="1" /><path clip-path="url(#clip950)" d="M2259.86 1485.02 L2267.5 1485.02 L2267.5 1458.66 L2259.19 1460.32 L2259.19 1456.06 L2267.45 1454.4 L2272.13 1454.4 L2272.13 1485.02 L2279.76 1485.02 L2279.76 1488.96 L2259.86 1488.96 L2259.86 1485.02 Z" fill="#000000" fill-rule="nonzero" fill-opacity="1" /><path clip-path="url(#clip950)" d="M2299.21 1457.48 Q2295.6 1457.48 2293.77 1461.04 Q2291.96 1464.58 2291.96 1471.71 Q2291.96 1478.82 2293.77 1482.38 Q2295.6 1485.92 2299.21 1485.92 Q2302.84 1485.92 2304.65 1482.38 Q2306.48 1478.82 2306.48 1471.71 Q2306.48 1464.58 2304.65 1461.04 Q2302.84 1457.48 2299.21 1457.48 M2299.21 1453.77 Q2305.02 1453.77 2308.07 1458.38 Q2311.15 1462.96 2311.15 1471.71 Q2311.15 1480.44 2308.07 1485.04 Q2305.02 1489.63 2299.21 1489.63 Q2293.4 1489.63 2290.32 1485.04 Q2287.26 1480.44 2287.26 1471.71 Q2287.26 1462.96 2290.32 1458.38 Q2293.4 1453.77 2299.21 1453.77 Z" fill="#000000" fill-rule="nonzero" fill-opacity="1" /><path clip-path="url(#clip950)" d="M2315.72 1458.35 L2328.98 1458.35 L2328.98 1461.55 L2311.15 1461.55 L2311.15 1458.35 Q2313.32 1456.11 2317.04 1452.35 Q2320.78 1448.57 2321.74 1447.48 Q2323.57 1445.43 2324.28 1444.02 Q2325.01 1442.59 2325.01 1441.22 Q2325.01 1438.98 2323.43 1437.57 Q2321.87 1436.16 2319.35 1436.16 Q2317.57 1436.16 2315.57 1436.78 Q2313.6 1437.4 2311.34 1438.66 L2311.34 1434.82 Q2313.64 1433.9 2315.63 1433.43 Q2317.62 1432.96 2319.28 1432.96 Q2323.64 1432.96 2326.24 1435.14 Q2328.83 1437.32 2328.83 1440.97 Q2328.83 1442.7 2328.17 1444.26 Q2327.53 1445.8 2325.82 1447.91 Q2325.35 1448.46 2322.83 1451.07 Q2320.31 1453.67 2315.72 1458.35 Z" fill="#000000" fill-rule="nonzero" fill-opacity="1" /><path clip-path="url(#clip950)" d="M1326.67 1544.01 Q1325.68 1543.44 1324.51 1543.18 Q1323.36 1542.9 1321.96 1542.9 Q1316.99 1542.9 1314.32 1546.14 Q1311.68 1549.36 1311.68 1555.41 L1311.68 1574.19 L1305.79 1574.19 L1305.79 1538.54 L1311.68 1538.54 L1311.68 1544.08 Q1313.52 1540.83 1316.48 1539.27 Q1319.44 1537.68 1323.68 1537.68 Q1324.28 1537.68 1325.01 1537.77 Q1325.75 1537.84 1326.64 1538 L1326.67 1544.01 Z" fill="#000000" fill-rule="nonzero" fill-opacity="1" /><polyline clip-path="url(#clip952)" style="stroke:#000000; stroke-linecap:round; stroke-linejoin:round; stroke-width:2; stroke-opacity:0.1; fill:none" points="279.704,1403.72 2352.76,1403.72 "/>
<polyline clip-path="url(#clip952)" style="stroke:#000000; stroke-linecap:round; stroke-linejoin:round; stroke-width:2; stroke-opacity:0.1; fill:none" points="279.704,1129.25 2352.76,1129.25 "/>
<polyline clip-path="url(#clip952)" style="stroke:#000000; stroke-linecap:round; stroke-linejoin:round; stroke-width:2; stroke-opacity:0.1; fill:none" points="279.704,854.78 2352.76,854.78 "/>
<polyline clip-path="url(#clip952)" style="stroke:#000000; stroke-linecap:round; stroke-linejoin:round; stroke-width:2; stroke-opacity:0.1; fill:none" points="279.704,580.311 2352.76,580.311 "/>
<polyline clip-path="url(#clip952)" style="stroke:#000000; stroke-linecap:round; stroke-linejoin:round; stroke-width:2; stroke-opacity:0.1; fill:none" points="279.704,305.843 2352.76,305.843 "/>
<polyline clip-path="url(#clip950)" style="stroke:#000000; stroke-linecap:round; stroke-linejoin:round; stroke-width:4; stroke-opacity:1; fill:none" points="279.704,1410.9 279.704,47.2441 "/>
<polyline clip-path="url(#clip950)" style="stroke:#000000; stroke-linecap:round; stroke-linejoin:round; stroke-width:4; stroke-opacity:1; fill:none" points="279.704,1403.72 298.602,1403.72 "/>
<polyline clip-path="url(#clip950)" style="stroke:#000000; stroke-linecap:round; stroke-linejoin:round; stroke-width:4; stroke-opacity:1; fill:none" points="279.704,1129.25 298.602,1129.25 "/>
<polyline clip-path="url(#clip950)" style="stroke:#000000; stroke-linecap:round; stroke-linejoin:round; stroke-width:4; stroke-opacity:1; fill:none" points="279.704,854.78 298.602,854.78 "/>
<polyline clip-path="url(#clip950)" style="stroke:#000000; stroke-linecap:round; stroke-linejoin:round; stroke-width:4; stroke-opacity:1; fill:none" points="279.704,580.311 298.602,580.311 "/>
<polyline clip-path="url(#clip950)" style="stroke:#000000; stroke-linecap:round; stroke-linejoin:round; stroke-width:4; stroke-opacity:1; fill:none" points="279.704,305.843 298.602,305.843 "/>
<path clip-path="url(#clip950)" d="M127.2 1389.51 Q123.589 1389.51 121.76 1393.08 Q119.955 1396.62 119.955 1403.75 Q119.955 1410.86 121.76 1414.42 Q123.589 1417.96 127.2 1417.96 Q130.834 1417.96 132.64 1414.42 Q134.468 1410.86 134.468 1403.75 Q134.468 1396.62 132.64 1393.08 Q130.834 1389.51 127.2 1389.51 M127.2 1385.81 Q133.01 1385.81 136.066 1390.42 Q139.144 1395 139.144 1403.75 Q139.144 1412.48 136.066 1417.08 Q133.01 1421.67 127.2 1421.67 Q121.39 1421.67 118.311 1417.08 Q115.256 1412.48 115.256 1403.75 Q115.256 1395 118.311 1390.42 Q121.39 1385.81 127.2 1385.81 Z" fill="#000000" fill-rule="nonzero" fill-opacity="1" /><path clip-path="url(#clip950)" d="M147.362 1415.12 L152.246 1415.12 L152.246 1421 L147.362 1421 L147.362 1415.12 Z" fill="#000000" fill-rule="nonzero" fill-opacity="1" /><path clip-path="url(#clip950)" d="M172.431 1404.58 Q169.098 1404.58 167.177 1406.37 Q165.278 1408.15 165.278 1411.27 Q165.278 1414.4 167.177 1416.18 Q169.098 1417.96 172.431 1417.96 Q175.764 1417.96 177.686 1416.18 Q179.607 1414.38 179.607 1411.27 Q179.607 1408.15 177.686 1406.37 Q175.788 1404.58 172.431 1404.58 M167.755 1402.59 Q164.746 1401.85 163.056 1399.79 Q161.39 1397.73 161.39 1394.77 Q161.39 1390.63 164.329 1388.22 Q167.292 1385.81 172.431 1385.81 Q177.593 1385.81 180.533 1388.22 Q183.473 1390.63 183.473 1394.77 Q183.473 1397.73 181.783 1399.79 Q180.116 1401.85 177.13 1402.59 Q180.51 1403.38 182.385 1405.67 Q184.283 1407.96 184.283 1411.27 Q184.283 1416.3 181.204 1418.98 Q178.149 1421.67 172.431 1421.67 Q166.714 1421.67 163.635 1418.98 Q160.579 1416.3 160.579 1411.27 Q160.579 1407.96 162.477 1405.67 Q164.376 1403.38 167.755 1402.59 M166.042 1395.21 Q166.042 1397.89 167.709 1399.4 Q169.399 1400.9 172.431 1400.9 Q175.44 1400.9 177.13 1399.4 Q178.843 1397.89 178.843 1395.21 Q178.843 1392.52 177.13 1391.02 Q175.44 1389.51 172.431 1389.51 Q169.399 1389.51 167.709 1391.02 Q166.042 1392.52 166.042 1395.21 Z" fill="#000000" fill-rule="nonzero" fill-opacity="1" /><path clip-path="url(#clip950)" d="M191.413 1386.44 L213.635 1386.44 L213.635 1388.43 L201.088 1421 L196.204 1421 L208.01 1390.37 L191.413 1390.37 L191.413 1386.44 Z" fill="#000000" fill-rule="nonzero" fill-opacity="1" /><path clip-path="url(#clip950)" d="M222.801 1386.44 L241.158 1386.44 L241.158 1390.37 L227.084 1390.37 L227.084 1398.84 Q228.102 1398.5 229.121 1398.33 Q230.139 1398.15 231.158 1398.15 Q236.945 1398.15 240.324 1401.32 Q243.704 1404.49 243.704 1409.91 Q243.704 1415.49 240.232 1418.59 Q236.76 1421.67 230.44 1421.67 Q228.264 1421.67 225.996 1421.3 Q223.75 1420.93 221.343 1420.19 L221.343 1415.49 Q223.426 1416.62 225.648 1417.18 Q227.871 1417.73 230.347 1417.73 Q234.352 1417.73 236.69 1415.63 Q239.028 1413.52 239.028 1409.91 Q239.028 1406.3 236.69 1404.19 Q234.352 1402.08 230.347 1402.08 Q228.473 1402.08 226.598 1402.5 Q224.746 1402.92 222.801 1403.8 L222.801 1386.44 Z" fill="#000000" fill-rule="nonzero" fill-opacity="1" /><path clip-path="url(#clip950)" d="M126.205 1115.05 Q122.593 1115.05 120.765 1118.61 Q118.959 1122.15 118.959 1129.28 Q118.959 1136.39 120.765 1139.95 Q122.593 1143.5 126.205 1143.5 Q129.839 1143.5 131.644 1139.95 Q133.473 1136.39 133.473 1129.28 Q133.473 1122.15 131.644 1118.61 Q129.839 1115.05 126.205 1115.05 M126.205 1111.34 Q132.015 1111.34 135.07 1115.95 Q138.149 1120.53 138.149 1129.28 Q138.149 1138.01 135.07 1142.62 Q132.015 1147.2 126.205 1147.2 Q120.394 1147.2 117.316 1142.62 Q114.26 1138.01 114.26 1129.28 Q114.26 1120.53 117.316 1115.95 Q120.394 1111.34 126.205 1111.34 Z" fill="#000000" fill-rule="nonzero" fill-opacity="1" /><path clip-path="url(#clip950)" d="M146.366 1140.65 L151.251 1140.65 L151.251 1146.53 L146.366 1146.53 L146.366 1140.65 Z" fill="#000000" fill-rule="nonzero" fill-opacity="1" /><path clip-path="url(#clip950)" d="M161.575 1145.81 L161.575 1141.55 Q163.334 1142.38 165.14 1142.82 Q166.945 1143.26 168.681 1143.26 Q173.311 1143.26 175.741 1140.16 Q178.195 1137.04 178.542 1130.69 Q177.2 1132.69 175.139 1133.75 Q173.079 1134.81 170.579 1134.81 Q165.394 1134.81 162.362 1131.69 Q159.353 1128.54 159.353 1123.1 Q159.353 1117.78 162.501 1114.56 Q165.649 1111.34 170.88 1111.34 Q176.876 1111.34 180.024 1115.95 Q183.195 1120.53 183.195 1129.28 Q183.195 1137.45 179.306 1142.34 Q175.44 1147.2 168.889 1147.2 Q167.13 1147.2 165.325 1146.85 Q163.519 1146.5 161.575 1145.81 M170.88 1131.16 Q174.028 1131.16 175.857 1129 Q177.709 1126.85 177.709 1123.1 Q177.709 1119.38 175.857 1117.22 Q174.028 1115.05 170.88 1115.05 Q167.732 1115.05 165.88 1117.22 Q164.052 1119.38 164.052 1123.1 Q164.052 1126.85 165.88 1129 Q167.732 1131.16 170.88 1131.16 Z" fill="#000000" fill-rule="nonzero" fill-opacity="1" /><path clip-path="url(#clip950)" d="M201.598 1115.05 Q197.987 1115.05 196.158 1118.61 Q194.352 1122.15 194.352 1129.28 Q194.352 1136.39 196.158 1139.95 Q197.987 1143.5 201.598 1143.5 Q205.232 1143.5 207.037 1139.95 Q208.866 1136.39 208.866 1129.28 Q208.866 1122.15 207.037 1118.61 Q205.232 1115.05 201.598 1115.05 M201.598 1111.34 Q207.408 1111.34 210.463 1115.95 Q213.542 1120.53 213.542 1129.28 Q213.542 1138.01 210.463 1142.62 Q207.408 1147.2 201.598 1147.2 Q195.787 1147.2 192.709 1142.62 Q189.653 1138.01 189.653 1129.28 Q189.653 1120.53 192.709 1115.95 Q195.787 1111.34 201.598 1111.34 Z" fill="#000000" fill-rule="nonzero" fill-opacity="1" /><path clip-path="url(#clip950)" d="M231.76 1115.05 Q228.148 1115.05 226.32 1118.61 Q224.514 1122.15 224.514 1129.28 Q224.514 1136.39 226.32 1139.95 Q228.148 1143.5 231.76 1143.5 Q235.394 1143.5 237.199 1139.95 Q239.028 1136.39 239.028 1129.28 Q239.028 1122.15 237.199 1118.61 Q235.394 1115.05 231.76 1115.05 M231.76 1111.34 Q237.57 1111.34 240.625 1115.95 Q243.704 1120.53 243.704 1129.28 Q243.704 1138.01 240.625 1142.62 Q237.57 1147.2 231.76 1147.2 Q225.949 1147.2 222.871 1142.62 Q219.815 1138.01 219.815 1129.28 Q219.815 1120.53 222.871 1115.95 Q225.949 1111.34 231.76 1111.34 Z" fill="#000000" fill-rule="nonzero" fill-opacity="1" /><path clip-path="url(#clip950)" d="M127.2 840.578 Q123.589 840.578 121.76 844.143 Q119.955 847.685 119.955 854.814 Q119.955 861.921 121.76 865.486 Q123.589 869.027 127.2 869.027 Q130.834 869.027 132.64 865.486 Q134.468 861.921 134.468 854.814 Q134.468 847.685 132.64 844.143 Q130.834 840.578 127.2 840.578 M127.2 836.875 Q133.01 836.875 136.066 841.481 Q139.144 846.064 139.144 854.814 Q139.144 863.541 136.066 868.148 Q133.01 872.731 127.2 872.731 Q121.39 872.731 118.311 868.148 Q115.256 863.541 115.256 854.814 Q115.256 846.064 118.311 841.481 Q121.39 836.875 127.2 836.875 Z" fill="#000000" fill-rule="nonzero" fill-opacity="1" /><path clip-path="url(#clip950)" d="M147.362 866.18 L152.246 866.18 L152.246 872.06 L147.362 872.06 L147.362 866.18 Z" fill="#000000" fill-rule="nonzero" fill-opacity="1" /><path clip-path="url(#clip950)" d="M162.57 871.342 L162.57 867.083 Q164.329 867.916 166.135 868.356 Q167.94 868.796 169.677 868.796 Q174.306 868.796 176.737 865.694 Q179.19 862.569 179.538 856.226 Q178.195 858.217 176.135 859.282 Q174.075 860.347 171.575 860.347 Q166.39 860.347 163.357 857.222 Q160.348 854.074 160.348 848.634 Q160.348 843.31 163.496 840.092 Q166.644 836.875 171.876 836.875 Q177.871 836.875 181.019 841.481 Q184.19 846.064 184.19 854.814 Q184.19 862.986 180.301 867.87 Q176.436 872.731 169.885 872.731 Q168.126 872.731 166.32 872.384 Q164.515 872.036 162.57 871.342 M171.876 856.689 Q175.024 856.689 176.852 854.536 Q178.704 852.384 178.704 848.634 Q178.704 844.907 176.852 842.754 Q175.024 840.578 171.876 840.578 Q168.727 840.578 166.876 842.754 Q165.047 844.907 165.047 848.634 Q165.047 852.384 166.876 854.536 Q168.727 856.689 171.876 856.689 Z" fill="#000000" fill-rule="nonzero" fill-opacity="1" /><path clip-path="url(#clip950)" d="M196.621 868.124 L212.94 868.124 L212.94 872.06 L190.996 872.06 L190.996 868.124 Q193.658 865.37 198.241 860.74 Q202.848 856.087 204.028 854.745 Q206.274 852.222 207.153 850.486 Q208.056 848.726 208.056 847.037 Q208.056 844.282 206.112 842.546 Q204.19 840.81 201.088 840.81 Q198.889 840.81 196.436 841.574 Q194.005 842.337 191.227 843.888 L191.227 839.166 Q194.051 838.032 196.505 837.453 Q198.959 836.875 200.996 836.875 Q206.366 836.875 209.561 839.56 Q212.755 842.245 212.755 846.736 Q212.755 848.865 211.945 850.787 Q211.158 852.685 209.051 855.277 Q208.473 855.949 205.371 859.166 Q202.269 862.361 196.621 868.124 Z" fill="#000000" fill-rule="nonzero" fill-opacity="1" /><path clip-path="url(#clip950)" d="M222.801 837.5 L241.158 837.5 L241.158 841.435 L227.084 841.435 L227.084 849.907 Q228.102 849.56 229.121 849.398 Q230.139 849.212 231.158 849.212 Q236.945 849.212 240.324 852.384 Q243.704 855.555 243.704 860.972 Q243.704 866.55 240.232 869.652 Q236.76 872.731 230.44 872.731 Q228.264 872.731 225.996 872.36 Q223.75 871.99 221.343 871.249 L221.343 866.55 Q223.426 867.685 225.648 868.24 Q227.871 868.796 230.347 868.796 Q234.352 868.796 236.69 866.689 Q239.028 864.583 239.028 860.972 Q239.028 857.361 236.69 855.254 Q234.352 853.148 230.347 853.148 Q228.473 853.148 226.598 853.564 Q224.746 853.981 222.801 854.861 L222.801 837.5 Z" fill="#000000" fill-rule="nonzero" fill-opacity="1" /><path clip-path="url(#clip950)" d="M126.205 566.11 Q122.593 566.11 120.765 569.675 Q118.959 573.217 118.959 580.346 Q118.959 587.453 120.765 591.017 Q122.593 594.559 126.205 594.559 Q129.839 594.559 131.644 591.017 Q133.473 587.453 133.473 580.346 Q133.473 573.217 131.644 569.675 Q129.839 566.11 126.205 566.11 M126.205 562.406 Q132.015 562.406 135.07 567.013 Q138.149 571.596 138.149 580.346 Q138.149 589.073 135.07 593.679 Q132.015 598.263 126.205 598.263 Q120.394 598.263 117.316 593.679 Q114.26 589.073 114.26 580.346 Q114.26 571.596 117.316 567.013 Q120.394 562.406 126.205 562.406 Z" fill="#000000" fill-rule="nonzero" fill-opacity="1" /><path clip-path="url(#clip950)" d="M146.366 591.712 L151.251 591.712 L151.251 597.591 L146.366 597.591 L146.366 591.712 Z" fill="#000000" fill-rule="nonzero" fill-opacity="1" /><path clip-path="url(#clip950)" d="M161.575 596.874 L161.575 592.615 Q163.334 593.448 165.14 593.888 Q166.945 594.328 168.681 594.328 Q173.311 594.328 175.741 591.226 Q178.195 588.101 178.542 581.758 Q177.2 583.749 175.139 584.814 Q173.079 585.879 170.579 585.879 Q165.394 585.879 162.362 582.754 Q159.353 579.605 159.353 574.166 Q159.353 568.842 162.501 565.624 Q165.649 562.406 170.88 562.406 Q176.876 562.406 180.024 567.013 Q183.195 571.596 183.195 580.346 Q183.195 588.517 179.306 593.402 Q175.44 598.263 168.889 598.263 Q167.13 598.263 165.325 597.916 Q163.519 597.568 161.575 596.874 M170.88 582.221 Q174.028 582.221 175.857 580.068 Q177.709 577.916 177.709 574.166 Q177.709 570.439 175.857 568.286 Q174.028 566.11 170.88 566.11 Q167.732 566.11 165.88 568.286 Q164.052 570.439 164.052 574.166 Q164.052 577.916 165.88 580.068 Q167.732 582.221 170.88 582.221 Z" fill="#000000" fill-rule="nonzero" fill-opacity="1" /><path clip-path="url(#clip950)" d="M191.644 563.031 L210 563.031 L210 566.967 L195.926 566.967 L195.926 575.439 Q196.945 575.092 197.963 574.93 Q198.982 574.744 200 574.744 Q205.787 574.744 209.167 577.916 Q212.547 581.087 212.547 586.504 Q212.547 592.082 209.074 595.184 Q205.602 598.263 199.283 598.263 Q197.107 598.263 194.838 597.892 Q192.593 597.522 190.186 596.781 L190.186 592.082 Q192.269 593.216 194.491 593.772 Q196.713 594.328 199.19 594.328 Q203.195 594.328 205.533 592.221 Q207.871 590.115 207.871 586.504 Q207.871 582.892 205.533 580.786 Q203.195 578.68 199.19 578.68 Q197.315 578.68 195.44 579.096 Q193.588 579.513 191.644 580.392 L191.644 563.031 Z" fill="#000000" fill-rule="nonzero" fill-opacity="1" /><path clip-path="url(#clip950)" d="M231.76 566.11 Q228.148 566.11 226.32 569.675 Q224.514 573.217 224.514 580.346 Q224.514 587.453 226.32 591.017 Q228.148 594.559 231.76 594.559 Q235.394 594.559 237.199 591.017 Q239.028 587.453 239.028 580.346 Q239.028 573.217 237.199 569.675 Q235.394 566.11 231.76 566.11 M231.76 562.406 Q237.57 562.406 240.625 567.013 Q243.704 571.596 243.704 580.346 Q243.704 589.073 240.625 593.679 Q237.57 598.263 231.76 598.263 Q225.949 598.263 222.871 593.679 Q219.815 589.073 219.815 580.346 Q219.815 571.596 222.871 567.013 Q225.949 562.406 231.76 562.406 Z" fill="#000000" fill-rule="nonzero" fill-opacity="1" /><path clip-path="url(#clip950)" d="M127.2 291.642 Q123.589 291.642 121.76 295.207 Q119.955 298.748 119.955 305.878 Q119.955 312.985 121.76 316.549 Q123.589 320.091 127.2 320.091 Q130.834 320.091 132.64 316.549 Q134.468 312.985 134.468 305.878 Q134.468 298.748 132.64 295.207 Q130.834 291.642 127.2 291.642 M127.2 287.938 Q133.01 287.938 136.066 292.545 Q139.144 297.128 139.144 305.878 Q139.144 314.605 136.066 319.211 Q133.01 323.795 127.2 323.795 Q121.39 323.795 118.311 319.211 Q115.256 314.605 115.256 305.878 Q115.256 297.128 118.311 292.545 Q121.39 287.938 127.2 287.938 Z" fill="#000000" fill-rule="nonzero" fill-opacity="1" /><path clip-path="url(#clip950)" d="M147.362 317.244 L152.246 317.244 L152.246 323.123 L147.362 323.123 L147.362 317.244 Z" fill="#000000" fill-rule="nonzero" fill-opacity="1" /><path clip-path="url(#clip950)" d="M162.57 322.406 L162.57 318.147 Q164.329 318.98 166.135 319.42 Q167.94 319.859 169.677 319.859 Q174.306 319.859 176.737 316.758 Q179.19 313.633 179.538 307.29 Q178.195 309.281 176.135 310.346 Q174.075 311.41 171.575 311.41 Q166.39 311.41 163.357 308.285 Q160.348 305.137 160.348 299.698 Q160.348 294.373 163.496 291.156 Q166.644 287.938 171.876 287.938 Q177.871 287.938 181.019 292.545 Q184.19 297.128 184.19 305.878 Q184.19 314.049 180.301 318.934 Q176.436 323.795 169.885 323.795 Q168.126 323.795 166.32 323.447 Q164.515 323.1 162.57 322.406 M171.876 307.753 Q175.024 307.753 176.852 305.6 Q178.704 303.448 178.704 299.698 Q178.704 295.971 176.852 293.818 Q175.024 291.642 171.876 291.642 Q168.727 291.642 166.876 293.818 Q165.047 295.971 165.047 299.698 Q165.047 303.448 166.876 305.6 Q168.727 307.753 171.876 307.753 Z" fill="#000000" fill-rule="nonzero" fill-opacity="1" /><path clip-path="url(#clip950)" d="M191.413 288.563 L213.635 288.563 L213.635 290.554 L201.088 323.123 L196.204 323.123 L208.01 292.499 L191.413 292.499 L191.413 288.563 Z" fill="#000000" fill-rule="nonzero" fill-opacity="1" /><path clip-path="url(#clip950)" d="M222.801 288.563 L241.158 288.563 L241.158 292.499 L227.084 292.499 L227.084 300.971 Q228.102 300.623 229.121 300.461 Q230.139 300.276 231.158 300.276 Q236.945 300.276 240.324 303.448 Q243.704 306.619 243.704 312.035 Q243.704 317.614 240.232 320.716 Q236.76 323.795 230.44 323.795 Q228.264 323.795 225.996 323.424 Q223.75 323.054 221.343 322.313 L221.343 317.614 Q223.426 318.748 225.648 319.304 Q227.871 319.859 230.347 319.859 Q234.352 319.859 236.69 317.753 Q239.028 315.647 239.028 312.035 Q239.028 308.424 236.69 306.318 Q234.352 304.211 230.347 304.211 Q228.473 304.211 226.598 304.628 Q224.746 305.045 222.801 305.924 L222.801 288.563 Z" fill="#000000" fill-rule="nonzero" fill-opacity="1" /><path clip-path="url(#clip950)" d="M16.4842 744.38 L16.4842 714.334 L21.895 714.334 L21.895 737.951 L35.9632 737.951 L35.9632 715.32 L41.3741 715.32 L41.3741 737.951 L58.5933 737.951 L58.5933 713.761 L64.0042 713.761 L64.0042 744.38 L16.4842 744.38 Z" fill="#000000" fill-rule="nonzero" fill-opacity="1" /><polyline clip-path="url(#clip952)" style="stroke:#009af9; stroke-linecap:round; stroke-linejoin:round; stroke-width:4; stroke-opacity:1; fill:none" points="738.983,659.259 756.071,658.096 772.646,654.995 788.738,650.435 804.375,644.779 819.581,638.307 834.381,631.234 848.795,623.73 862.842,615.925 876.541,607.924 889.909,599.806 902.961,591.635 915.712,583.462 928.175,575.326 940.364,567.258 952.29,559.28 963.964,551.412 975.396,543.667 986.597,536.056 997.575,528.586 1008.34,521.262 1018.9,514.088 1029.26,507.066 1039.43,500.197 1049.42,493.479 1059.22,486.913 1068.86,480.496 1078.34,474.226 1087.65,468.102 1096.81,462.119 1105.82,456.276 1114.68,450.569 1123.41,444.995 1132,439.551 1140.46,434.233 1148.79,429.038 1156.99,423.963 1165.08,419.004 1173.05,414.159 1180.91,409.423 1188.66,404.795 1196.3,400.27 1203.83,395.847 1211.27,391.521 1218.6,387.29 1225.84,383.152 1232.99,379.104 1240.04,375.142 1247.01,371.265 1253.89,367.471 1260.68,363.756 1267.39,360.118 1274.03,356.556 1280.58,353.067 1287.05,349.649 1293.46,346.3 1299.78,343.019 1306.04,339.802 1312.23,336.649 1318.34,333.557 1324.4,330.526 1330.38,327.552 1336.3,324.636 1342.16,321.774 1347.96,318.967 1353.69,316.211 1359.37,313.507 1364.99,310.852 1370.56,308.245 1376.06,305.685 1381.52,303.171 1386.92,300.702 1392.27,298.276 1397.56,295.892 1402.81,293.55 1408.01,291.248 1413.16,288.985 1418.26,286.761 1423.31,284.574 1428.32,282.423 1433.29,280.308 1438.21,278.227 1443.08,276.181 1447.92,274.168 1452.71,272.186 1457.46,270.237 1462.17,268.318 1466.84,266.429 1471.47,264.57 1476.06,262.74 1480.62,260.937 1485.14,259.163 1489.62,257.415 1494.06,255.693 1498.47,253.997 1502.85,252.326 1507.19,250.679 1511.49,249.057 1515.77,247.458 1520.01,245.883 1524.22,244.33 1528.39,242.798 1532.54,241.289 1536.65,239.801 1540.73,238.333 1544.79,236.886 1548.81,235.458 1552.81,234.051 1556.77,232.662 1560.71,231.292 1564.62,229.94 1568.51,228.606 1572.36,227.29 1576.19,225.991 1579.99,224.709 1583.77,223.444 1587.52,222.195 1591.25,220.962 1594.95,219.745 1598.63,218.543 1602.28,217.357 1605.91,216.185 1609.51,215.028 1613.09,213.885 1616.65,212.756 1620.19,211.64 1623.7,210.539 1627.19,209.45 1630.66,208.375 1634.1,207.313 1637.53,206.263 1640.93,205.225 1644.32,204.2 1647.68,203.186 1651.02,202.185 1654.35,201.194 1657.65,200.216 1660.93,199.248 1664.2,198.291 1667.44,197.345 1670.67,196.41 1673.88,195.485 1677.06,194.571 1680.23,193.666 1683.39,192.771 1686.52,191.886 1689.64,191.011 1692.74,190.145 1695.82,189.289 1698.88,188.441 1701.93,187.603 1704.96,186.773 1707.98,185.953 1710.98,185.14 1713.96,184.337 1716.92,183.541 1719.87,182.754 1722.81,181.975 1725.73,181.203 1728.63,180.44 1731.52,179.684 1734.39,178.936 1737.25,178.195 1740.1,177.462 1742.93,176.736 1745.74,176.017 1748.54,175.305 1751.33,174.6 1754.1,173.902 1756.86,173.211 1759.61,172.526 1762.34,171.848 1765.06,171.176 1767.76,170.511 1770.45,169.852 1773.13,169.199 1775.8,168.553 1778.45,167.912 1781.09,167.277 1783.72,166.648 1786.33,166.025 1788.94,165.408 1791.53,164.796 1794.11,164.19 1796.67,163.589 1799.23,162.993 1801.77,162.403 1804.3,161.818 1806.82,161.239 1809.33,160.664 1811.83,160.095 1814.31,159.53 1816.79,158.971 1819.25,158.416 1821.7,157.866 1824.15,157.321 1826.58,156.78 1829,156.244 1831.41,155.713 1833.81,155.186 1836.2,154.663 1838.58,154.145 1840.95,153.631 1843.3,153.122 1845.65,152.616 1847.99,152.115 1850.32,151.618 1852.64,151.125 1854.95,150.636 1857.25,150.151 1859.54,149.67 1861.82,149.193 1864.09,148.72 1866.35,148.25 1868.61,147.784 1870.85,147.322 1873.08,146.864 1875.31,146.409 1877.53,145.957 1879.73,145.509 1881.93,145.065 1884.12,144.624 1886.31,144.187 1888.48,143.753 1890.64,143.322 1892.8,142.894 1894.95,142.47 1897.09,142.049 1899.22,141.631 1901.34,141.216 1903.46,140.804 1905.56,140.396 1907.66,139.99 1909.75,139.588 1911.84,139.188 1913.91,138.791 1915.98,138.397 1918.04,138.007 1920.09,137.619 1922.14,137.233 1924.17,136.851 1926.2,136.471 1928.22,136.094 1930.24,135.72 1932.25,135.348 1934.25,134.979 1936.24,134.613 1938.22,134.249 1940.2,133.887 1942.18,133.529 1944.14,133.172 1946.1,132.819 1948.05,132.467 1949.99,132.118 1951.93,131.772 1953.86,131.428 1955.78,131.086 1957.7,130.746 1959.61,130.409 1961.51,130.074 1963.41,129.742 1965.3,129.411 1967.19,129.083 1969.06,128.757 1970.94,128.433 1972.8,128.111 1974.66,127.792 1976.51,127.474 1978.36,127.159 1980.2,126.845 1982.03,126.534 1983.86,126.225 1985.68,125.917 1987.5,125.612 1989.31,125.309 1991.11,125.007 1992.91,124.708 1994.71,124.41 1996.49,124.115 1998.27,123.821 2000.05,123.529 2001.82,123.239 2003.58,122.95 2005.34,122.664 2007.09,122.379 2008.84,122.096 2010.58,121.815 2012.32,121.536 2014.05,121.258 2015.77,120.982 2017.49,120.707 2019.21,120.435 2020.92,120.164 2022.62,119.894 2024.32,119.627 2026.02,119.36 2027.7,119.096 2029.39,118.833 2031.07,118.572 2032.74,118.312 2034.41,118.053 2036.07,117.797 2037.73,117.541 2039.38,117.288 2041.03,117.035 2042.67,116.785 2044.31,116.535 2045.95,116.287 2047.57,116.041 2049.2,115.796 2050.82,115.552 2052.43,115.31 2054.04,115.069 2055.65,114.83 2057.25,114.592 2058.84,114.355 2060.44,114.12 2062.02,113.886 2063.6,113.653 2065.18,113.422 2066.75,113.191 2068.32,112.963 2069.89,112.735 2071.45,112.509 2073,112.284 2074.55,112.06 2076.1,111.837 2077.64,111.616 2079.18,111.396 2080.72,111.177 2082.25,110.959 2083.77,110.743 2085.29,110.527 2086.81,110.313 2088.32,110.1 2089.83,109.888 2091.34,109.677 2092.84,109.468 2094.33,109.259 2095.83,109.052 2097.31,108.845 2098.8,108.64 2100.28,108.436 2101.76,108.233 2103.23,108.031 2104.7,107.83 2106.16,107.63 2107.62,107.431 2109.08,107.233 2110.53,107.037 2111.98,106.841 2113.43,106.646 2114.87,106.452 2116.31,106.26 2117.74,106.068 2119.17,105.877 2120.6,105.687 2122.02,105.498 2123.44,105.31 2124.86,105.123 2126.27,104.937 2127.68,104.752 2129.09,104.568 2130.49,104.385 2131.88,104.203 2133.28,104.021 2134.67,103.841 2136.06,103.661 2137.44,103.482 2138.82,103.304 2140.2,103.128 2141.57,102.951 2142.94,102.776 2144.31,102.602 2145.67,102.428 2147.04,102.256 2148.39,102.084 2149.75,101.913 2151.1,101.742 2152.44,101.573 2153.79,101.404 2155.13,101.237 2156.46,101.07 2157.8,100.904 2159.13,100.738 2160.46,100.574 2161.78,100.41 2163.1,100.247 2164.42,100.084 2165.74,99.9229 2167.05,99.7622 2168.36,99.6022 2169.66,99.4429 2170.96,99.2844 2172.26,99.1266 2173.56,98.9696 2174.85,98.8132 2176.14,98.6576 2177.43,98.5027 2178.72,98.3486 2180,98.1951 2181.28,98.0423 2182.55,97.8903 2183.82,97.7389 2185.09,97.5882 2186.36,97.4382 2187.62,97.2888 2188.89,97.1402 2190.14,96.9922 2191.4,96.8449 2192.65,96.6982 2193.9,96.5522 2195.15,96.4068 2196.39,96.2621 2197.63,96.118 2198.87,95.9746 2200.11,95.8318 2201.34,95.6896 2202.57,95.5481 2203.8,95.4071 2205.02,95.2668 2206.24,95.1271 2207.46,94.988 2208.68,94.8496 2209.89,94.7117 2211.1,94.5744 2212.31,94.4377 2213.52,94.3016 2214.72,94.1661 2215.92,94.0312 2217.12,93.8968 2218.32,93.763 2219.51,93.6298 2220.7,93.4972 2221.89,93.3651 2223.07,93.2336 2224.26,93.1026 2225.44,92.9722 2226.61,92.8424 2227.79,92.7131 2228.96,92.5843 2230.13,92.4561 2231.3,92.3284 2232.46,92.2012 2233.63,92.0746 2234.79,91.9485 2235.95,91.8229 2237.1,91.6978 2238.25,91.5733 2239.4,91.4492 2240.55,91.3257 2241.7,91.2027 2242.84,91.0802 2243.98,90.9582 2245.12,90.8366 2246.26,90.7156 2247.39,90.5951 2248.53,90.475 2249.65,90.3555 2250.78,90.2364 2251.91,90.1178 2253.03,89.9997 2254.15,89.8821 2255.27,89.7649 2256.38,89.6482 2257.5,89.5319 2258.61,89.4162 2259.72,89.3008 2260.83,89.186 2261.93,89.0716 2263.03,88.9576 2264.13,88.8441 2265.23,88.731 2266.33,88.6184 2267.42,88.5063 2268.51,88.3945 2269.6,88.2832 2270.69,88.1724 2271.77,88.0619 2272.86,87.9519 2273.94,87.8423 2275.02,87.7332 2276.09,87.6244 2277.17,87.5161 2278.24,87.4082 2279.31,87.3007 2280.38,87.1936 2281.45,87.087 2282.51,86.9807 2283.57,86.8749 2284.63,86.7694 2285.69,86.6644 2286.75,86.5597 2287.8,86.4554 2288.85,86.3516 2289.9,86.2481 2290.95,86.145 2292,86.0423 2293.04,85.94 2294.08,85.838 "/>
<polyline clip-path="url(#clip952)" style="stroke:#e26f46; stroke-linecap:round; stroke-linejoin:round; stroke-width:4; stroke-opacity:1; fill:none" points="593.837,855.387 616.274,852.644 637.835,845.636 658.586,835.749 678.587,823.941 697.889,810.884 716.54,797.054 734.582,782.791 752.054,768.339 768.99,753.873 785.422,739.518 801.381,725.364 816.891,711.473 831.978,697.888 846.664,684.637 860.97,671.739 874.915,659.203 888.517,647.031 901.793,635.225 914.756,623.778 927.423,612.685 939.806,601.938 951.918,591.527 963.77,581.443 975.373,571.675 986.737,562.212 997.873,553.043 1008.79,544.159 1019.49,535.548 1029.99,527.199 1040.3,519.103 1050.42,511.251 1060.35,503.632 1070.11,496.237 1079.7,489.058 1089.13,482.087 1098.39,475.314 1107.51,468.734 1116.48,462.337 1125.3,456.117 1133.99,450.068 1142.54,444.182 1150.96,438.454 1159.25,432.877 1167.43,427.447 1175.48,422.157 1183.42,417.003 1191.24,411.979 1198.96,407.082 1206.57,402.305 1214.07,397.646 1221.48,393.1 1228.79,388.662 1236,384.331 1243.12,380.1 1250.15,375.968 1257.09,371.932 1263.94,367.986 1270.71,364.13 1277.4,360.36 1284.01,356.673 1290.54,353.066 1297,349.537 1303.38,346.084 1309.68,342.704 1315.92,339.394 1322.09,336.154 1328.18,332.98 1334.22,329.87 1340.18,326.824 1346.09,323.838 1351.93,320.912 1357.71,318.042 1363.43,315.229 1369.09,312.469 1374.69,309.763 1380.24,307.107 1385.73,304.501 1391.17,301.943 1396.55,299.433 1401.89,296.968 1407.17,294.548 1412.4,292.171 1417.59,289.836 1422.72,287.543 1427.81,285.289 1432.85,283.075 1437.85,280.899 1442.8,278.759 1447.71,276.656 1452.57,274.588 1457.39,272.554 1462.17,270.554 1466.91,268.587 1471.61,266.651 1476.27,264.747 1480.89,262.873 1485.47,261.029 1490.01,259.213 1494.52,257.426 1498.99,255.667 1503.43,253.935 1507.83,252.229 1512.19,250.549 1516.52,248.894 1520.82,247.264 1525.08,245.658 1529.31,244.076 1533.51,242.517 1537.68,240.98 1541.81,239.466 1545.92,237.973 1550,236.501 1554.04,235.05 1558.06,233.619 1562.04,232.209 1566,230.817 1569.93,229.445 1573.83,228.092 1577.71,226.756 1581.56,225.439 1585.38,224.139 1589.18,222.857 1592.94,221.591 1596.69,220.342 1600.41,219.11 1604.1,217.893 1607.77,216.692 1611.42,215.506 1615.04,214.335 1618.63,213.179 1622.21,212.037 1625.76,210.91 1629.29,209.796 1632.8,208.697 1636.28,207.61 1639.74,206.537 1643.18,205.477 1646.6,204.43 1650,203.395 1653.38,202.372 1656.74,201.361 1660.07,200.363 1663.39,199.376 1666.69,198.4 1669.97,197.435 1673.22,196.482 1676.46,195.54 1679.68,194.608 1682.89,193.686 1686.07,192.775 1689.23,191.874 1692.38,190.984 1695.51,190.102 1698.62,189.231 1701.72,188.369 1704.79,187.517 1707.85,186.673 1710.9,185.839 1713.92,185.013 1716.93,184.197 1719.93,183.389 1722.9,182.589 1725.87,181.798 1728.81,181.015 1731.74,180.24 1734.66,179.473 1737.56,178.714 1740.44,177.963 1743.31,177.219 1746.16,176.483 1749,175.754 1751.83,175.032 1754.64,174.318 1757.44,173.61 1760.22,172.91 1762.99,172.216 1765.74,171.53 1768.48,170.849 1771.21,170.176 1773.93,169.509 1776.63,168.848 1779.31,168.194 1781.99,167.545 1784.65,166.903 1787.3,166.267 1789.94,165.637 1792.56,165.013 1795.17,164.394 1797.77,163.781 1800.36,163.174 1802.94,162.572 1805.5,161.976 1808.05,161.385 1810.59,160.799 1813.12,160.219 1815.64,159.644 1818.14,159.074 1820.63,158.509 1823.12,157.949 1825.59,157.394 1828.05,156.844 1830.5,156.298 1832.94,155.757 1835.37,155.221 1837.78,154.69 1840.19,154.163 1842.59,153.64 1844.97,153.122 1847.35,152.609 1849.71,152.099 1852.07,151.594 1854.42,151.093 1856.75,150.596 1859.08,150.104 1861.39,149.615 1863.7,149.13 1866,148.65 1868.29,148.173 1870.56,147.7 1872.83,147.231 1875.09,146.766 1877.34,146.304 1879.58,145.846 1881.82,145.392 1884.04,144.941 1886.25,144.494 1888.46,144.05 1890.65,143.61 1892.84,143.173 1895.02,142.74 1897.19,142.31 1899.35,141.883 1901.51,141.46 1903.65,141.039 1905.79,140.622 1907.92,140.209 1910.04,139.798 1912.15,139.39 1914.26,138.986 1916.35,138.584 1918.44,138.185 1920.52,137.79 1922.6,137.397 1924.66,137.007 1926.72,136.62 1928.77,136.236 1930.81,135.854 1932.85,135.476 1934.87,135.1 1936.89,134.727 1938.91,134.356 1940.91,133.988 1942.91,133.623 1944.9,133.26 1946.88,132.9 1948.86,132.543 1950.83,132.188 1952.79,131.835 1954.75,131.485 1956.7,131.137 1958.64,130.792 1960.57,130.449 1962.5,130.109 1964.43,129.77 1966.34,129.434 1968.25,129.101 1970.15,128.769 1972.05,128.44 1973.93,128.113 1975.82,127.789 1977.69,127.466 1979.56,127.146 1981.43,126.828 1983.28,126.511 1985.13,126.197 1986.98,125.885 1988.82,125.575 1990.65,125.267 1992.48,124.961 1994.3,124.658 1996.11,124.356 1997.92,124.056 1999.72,123.757 2001.52,123.461 2003.31,123.167 2005.09,122.875 2006.87,122.584 2008.65,122.295 2010.42,122.008 2012.18,121.723 2013.93,121.44 2015.69,121.158 2017.43,120.879 2019.17,120.601 2020.91,120.324 2022.64,120.05 2024.36,119.777 2026.08,119.505 2027.79,119.236 2029.5,118.968 2031.2,118.702 2032.9,118.437 2034.59,118.174 2036.28,117.912 2037.96,117.652 2039.64,117.394 2041.31,117.137 2042.98,116.882 2044.64,116.628 2046.29,116.376 2047.95,116.125 2049.59,115.875 2051.23,115.627 2052.87,115.381 2054.5,115.136 2056.13,114.892 2057.75,114.65 2059.37,114.41 2060.99,114.17 2062.59,113.932 2064.2,113.696 2065.8,113.46 2067.39,113.226 2068.98,112.994 2070.57,112.762 2072.15,112.532 2073.72,112.304 2075.3,112.076 2076.86,111.85 2078.43,111.625 2079.99,111.402 2081.54,111.179 2083.09,110.958 2084.64,110.738 2086.18,110.52 2087.71,110.302 2089.25,110.086 2090.77,109.871 2092.3,109.657 2093.82,109.444 2095.33,109.232 2096.85,109.022 2098.35,108.812 2099.86,108.604 2101.36,108.397 2102.85,108.191 2104.34,107.986 2105.83,107.782 2107.31,107.579 2108.79,107.378 2110.27,107.177 2111.74,106.978 2113.21,106.779 2114.67,106.582 2116.13,106.385 2117.59,106.19 2119.04,105.995 2120.49,105.802 2121.93,105.61 2123.37,105.418 2124.81,105.228 2126.24,105.038 2127.67,104.85 2129.1,104.662 2130.52,104.476 2131.94,104.29 2133.35,104.106 2134.77,103.922 2136.17,103.739 2137.58,103.557 2138.98,103.376 2140.38,103.196 2141.77,103.017 2143.16,102.839 2144.55,102.661 2145.93,102.485 2147.31,102.309 2148.69,102.134 2150.06,101.961 2151.43,101.787 2152.79,101.615 2154.16,101.444 2155.52,101.273 2156.87,101.104 2158.22,100.935 2159.57,100.767 2160.92,100.599 2162.26,100.433 2163.6,100.267 2164.94,100.102 2166.27,99.9383 2167.6,99.775 2168.93,99.6124 2170.25,99.4507 2171.57,99.2897 2172.89,99.1295 2174.2,98.97 2175.51,98.8112 2176.82,98.6533 2178.13,98.496 2179.43,98.3395 2180.73,98.1837 2182.02,98.0286 2183.31,97.8743 2184.6,97.7207 2185.89,97.5677 2187.17,97.4155 2188.46,97.264 2189.73,97.1132 2191.01,96.963 2192.28,96.8136 2193.55,96.6648 2194.81,96.5167 2196.08,96.3693 2197.34,96.2225 2198.59,96.0764 2199.85,95.931 2201.1,95.7862 2202.35,95.642 2203.59,95.4985 2204.84,95.3556 2206.08,95.2134 2207.32,95.0718 2208.55,94.9308 2209.78,94.7905 2211.01,94.6508 2212.24,94.5116 2213.46,94.3731 2214.68,94.2352 2215.9,94.0979 2217.12,93.9612 2218.33,93.8251 2219.54,93.6896 2220.75,93.5547 2221.95,93.4204 2223.16,93.2866 2224.36,93.1534 2225.55,93.0208 2226.75,92.8887 2227.94,92.7572 2229.13,92.6263 2230.32,92.496 2231.5,92.3661 2232.68,92.2369 2233.86,92.1082 2235.04,91.98 2236.22,91.8524 2237.39,91.7253 2238.56,91.5987 2239.72,91.4727 2240.89,91.3472 2242.05,91.2222 2243.21,91.0977 2244.37,90.9738 2245.52,90.8503 2246.67,90.7274 2247.82,90.605 2248.97,90.4831 2250.12,90.3617 2251.26,90.2407 2252.4,90.1203 2253.54,90.0004 2254.68,89.8809 2255.81,89.762 2256.94,89.6435 2258.07,89.5255 2259.2,89.408 2260.32,89.291 2261.44,89.1744 2262.56,89.0583 2263.68,88.9427 2264.79,88.8275 2265.91,88.7128 2267.02,88.5985 2268.13,88.4847 2269.23,88.3714 2270.34,88.2585 2271.44,88.146 2272.54,88.034 2273.64,87.9224 2274.73,87.8113 2275.82,87.7006 2276.92,87.5903 2278,87.4805 2279.09,87.3711 2280.18,87.2621 2281.26,87.1536 2282.34,87.0454 2283.42,86.9377 2284.49,86.8304 2285.57,86.7235 2286.64,86.6171 2287.71,86.511 2288.78,86.4053 2289.84,86.3001 2290.91,86.1952 2291.97,86.0908 2293.03,85.9867 2294.08,85.8831 "/>
<polyline clip-path="url(#clip952)" style="stroke:#3da44d; stroke-linecap:round; stroke-linejoin:round; stroke-width:4; stroke-opacity:1; fill:none" points="490.724,1032.78 517.868,1027.73 543.741,1015.32 568.457,998.446 592.115,978.944 614.801,957.992 636.593,936.36 657.559,914.555 677.758,892.911 697.245,871.645 716.068,850.897 734.272,830.753 751.894,811.262 768.973,792.449 785.539,774.319 801.624,756.869 817.253,740.084 832.453,723.946 847.246,708.433 861.653,693.522 875.695,679.187 889.388,665.404 902.75,652.147 915.797,639.392 928.543,627.116 941.002,615.295 953.186,603.908 965.108,592.933 976.777,582.351 988.206,572.143 999.403,562.29 1010.38,552.777 1021.14,543.586 1031.69,534.703 1042.05,526.114 1052.22,517.804 1062.2,509.761 1072.01,501.972 1081.64,494.428 1091.11,487.115 1100.42,480.025 1109.58,473.148 1118.59,466.475 1127.45,459.996 1136.17,453.704 1144.76,447.591 1153.22,441.65 1161.55,435.873 1169.75,430.255 1177.84,424.788 1185.8,419.467 1193.66,414.287 1201.41,409.241 1209.04,404.325 1216.58,399.534 1224.01,394.863 1231.34,390.308 1238.58,385.865 1245.73,381.529 1252.78,377.297 1259.74,373.166 1266.62,369.131 1273.42,365.189 1280.13,361.338 1286.76,357.574 1293.31,353.894 1299.78,350.296 1306.18,346.777 1312.51,343.334 1318.77,339.965 1324.95,336.667 1331.07,333.439 1337.12,330.278 1343.1,327.182 1349.02,324.149 1354.88,321.178 1360.67,318.266 1366.41,315.411 1372.09,312.613 1377.71,309.869 1383.27,307.178 1388.78,304.538 1394.23,301.948 1399.63,299.406 1404.98,296.912 1410.27,294.463 1415.52,292.059 1420.71,289.698 1425.86,287.38 1430.96,285.102 1436.02,282.865 1441.03,280.667 1445.99,278.506 1450.91,276.383 1455.78,274.296 1460.62,272.244 1465.41,270.226 1470.16,268.242 1474.87,266.29 1479.54,264.37 1484.17,262.481 1488.76,260.623 1493.31,258.794 1497.83,256.994 1502.31,255.222 1506.76,253.478 1511.17,251.76 1515.54,250.069 1519.88,248.404 1524.19,246.764 1528.46,245.148 1532.7,243.556 1536.91,241.988 1541.08,240.443 1545.23,238.92 1549.34,237.419 1553.42,235.94 1557.48,234.482 1561.5,233.044 1565.5,231.627 1569.46,230.229 1573.4,228.851 1577.31,227.492 1581.19,226.151 1585.05,224.828 1588.88,223.524 1592.68,222.236 1596.46,220.966 1600.21,219.713 1603.93,218.476 1607.63,217.255 1611.31,216.05 1614.96,214.86 1618.59,213.686 1622.19,212.527 1625.77,211.382 1629.33,210.251 1632.86,209.135 1636.38,208.033 1639.87,206.944 1643.34,205.868 1646.78,204.806 1650.21,203.756 1653.61,202.719 1657,201.694 1660.36,200.682 1663.7,199.681 1667.02,198.693 1670.33,197.715 1673.61,196.75 1676.87,195.795 1680.12,194.851 1683.34,193.918 1686.55,192.996 1689.74,192.084 1692.91,191.182 1696.06,190.29 1699.19,189.408 1702.31,188.536 1705.41,187.674 1708.49,186.821 1711.56,185.977 1714.6,185.142 1717.63,184.316 1720.65,183.499 1723.65,182.691 1726.63,181.891 1729.59,181.1 1732.54,180.317 1735.48,179.542 1738.4,178.775 1741.3,178.016 1744.19,177.264 1747.06,176.521 1749.92,175.785 1752.77,175.056 1755.59,174.335 1758.41,173.621 1761.21,172.914 1764,172.214 1766.77,171.521 1769.53,170.834 1772.27,170.154 1775,169.481 1777.72,168.815 1780.43,168.155 1783.12,167.501 1785.8,166.853 1788.46,166.212 1791.11,165.576 1793.75,164.947 1796.38,164.323 1799,163.705 1801.6,163.093 1804.19,162.486 1806.77,161.886 1809.34,161.29 1811.89,160.7 1814.43,160.115 1816.96,159.536 1819.48,158.962 1821.99,158.392 1824.49,157.828 1826.98,157.269 1829.45,156.715 1831.91,156.166 1834.37,155.621 1836.81,155.082 1839.24,154.546 1841.66,154.016 1844.07,153.49 1846.47,152.968 1848.86,152.451 1851.24,151.939 1853.61,151.43 1855.96,150.926 1858.31,150.426 1860.65,149.931 1862.98,149.439 1865.3,148.952 1867.61,148.468 1869.91,147.989 1872.2,147.513 1874.48,147.041 1876.75,146.573 1879.01,146.109 1881.26,145.649 1883.51,145.192 1885.74,144.739 1887.97,144.289 1890.18,143.843 1892.39,143.401 1894.59,142.962 1896.78,142.526 1898.96,142.094 1901.14,141.665 1903.3,141.239 1905.46,140.817 1907.6,140.398 1909.74,139.982 1911.87,139.569 1914,139.16 1916.11,138.753 1918.22,138.35 1920.32,137.95 1922.41,137.552 1924.49,137.158 1926.57,136.766 1928.63,136.377 1930.69,135.992 1932.75,135.609 1934.79,135.228 1936.83,134.851 1938.86,134.476 1940.88,134.104 1942.89,133.735 1944.9,133.368 1946.9,133.004 1948.89,132.643 1950.88,132.284 1952.86,131.928 1954.83,131.574 1956.79,131.222 1958.75,130.874 1960.7,130.527 1962.64,130.183 1964.58,129.841 1966.51,129.502 1968.44,129.165 1970.35,128.83 1972.26,128.498 1974.17,128.168 1976.06,127.84 1977.95,127.514 1979.84,127.19 1981.72,126.869 1983.59,126.55 1985.45,126.233 1987.31,125.918 1989.16,125.605 1991.01,125.294 1992.85,124.985 1994.68,124.679 1996.51,124.374 1998.33,124.071 2000.15,123.77 2001.96,123.471 2003.76,123.175 2005.56,122.88 2007.36,122.586 2009.14,122.295 2010.92,122.006 2012.7,121.718 2014.47,121.432 2016.23,121.148 2017.99,120.866 2019.74,120.586 2021.49,120.307 2023.23,120.03 2024.97,119.755 2026.7,119.482 2028.42,119.21 2030.14,118.94 2031.86,118.671 2033.57,118.405 2035.27,118.139 2036.97,117.876 2038.66,117.614 2040.35,117.353 2042.04,117.094 2043.71,116.837 2045.39,116.581 2047.06,116.327 2048.72,116.075 2050.38,115.823 2052.03,115.574 2053.68,115.325 2055.32,115.079 2056.96,114.833 2058.59,114.589 2060.22,114.347 2061.85,114.106 2063.47,113.866 2065.08,113.628 2066.69,113.391 2068.29,113.155 2069.9,112.921 2071.49,112.688 2073.08,112.457 2074.67,112.226 2076.25,111.997 2077.83,111.77 2079.4,111.543 2080.97,111.318 2082.53,111.095 2084.09,110.872 2085.65,110.651 2087.2,110.431 2088.75,110.212 2090.29,109.994 2091.83,109.778 2093.36,109.562 2094.89,109.348 2096.42,109.135 2097.94,108.923 2099.46,108.713 2100.97,108.503 2102.48,108.295 2103.98,108.088 2105.48,107.882 2106.98,107.677 2108.47,107.473 2109.96,107.27 2111.44,107.068 2112.92,106.867 2114.4,106.668 2115.87,106.469 2117.34,106.272 2118.81,106.075 2120.27,105.88 2121.72,105.685 2123.18,105.492 2124.63,105.299 2126.07,105.108 2127.51,104.918 2128.95,104.728 2130.39,104.54 2131.82,104.352 2133.24,104.166 2134.67,103.98 2136.09,103.795 2137.5,103.612 2138.92,103.429 2140.32,103.247 2141.73,103.066 2143.13,102.886 2144.53,102.707 2145.92,102.528 2147.31,102.351 2148.7,102.175 2150.09,101.999 2151.47,101.824 2152.84,101.65 2154.22,101.477 2155.59,101.305 2156.95,101.134 2158.32,100.963 2159.68,100.794 2161.04,100.625 2162.39,100.457 2163.74,100.29 2165.09,100.123 2166.43,99.9578 2167.77,99.793 2169.11,99.629 2170.44,99.4658 2171.77,99.3034 2173.1,99.1417 2174.42,98.9808 2175.75,98.8207 2177.06,98.6613 2178.38,98.5027 2179.69,98.3448 2181,98.1877 2182.3,98.0313 2183.61,97.8756 2184.91,97.7206 2186.2,97.5664 2187.5,97.4129 2188.79,97.2601 2190.07,97.108 2191.36,96.9566 2192.64,96.8059 2193.92,96.6559 2195.19,96.5066 2196.47,96.358 2197.74,96.21 2199,96.0627 2200.27,95.9161 2201.53,95.7701 2202.78,95.6248 2204.04,95.4802 2205.29,95.3362 2206.54,95.1928 2207.79,95.0501 2209.03,94.908 2210.27,94.7666 2211.51,94.6258 2212.75,94.4856 2213.98,94.346 2215.21,94.2071 2216.44,94.0688 2217.66,93.931 2218.88,93.7939 2220.1,93.6574 2221.32,93.5214 2222.53,93.3861 2223.74,93.2514 2224.95,93.1172 2226.16,92.9836 2227.36,92.8506 2228.56,92.7182 2229.76,92.5863 2230.96,92.455 2232.15,92.3243 2233.34,92.1941 2234.53,92.0645 2235.71,91.9354 2236.9,91.8069 2238.08,91.6789 2239.25,91.5514 2240.43,91.4245 2241.6,91.2982 2242.77,91.1723 2243.94,91.047 2245.1,90.9222 2246.27,90.798 2247.43,90.6742 2248.59,90.551 2249.74,90.4283 2250.89,90.3061 2252.04,90.1843 2253.19,90.0631 2254.34,89.9424 2255.48,89.8222 2256.62,89.7025 2257.76,89.5833 2258.9,89.4645 2260.03,89.3463 2261.16,89.2285 2262.29,89.1112 2263.42,88.9943 2264.55,88.878 2265.67,88.7621 2266.79,88.6467 2267.91,88.5317 2269.02,88.4172 2270.14,88.3032 2271.25,88.1896 2272.36,88.0765 2273.46,87.9638 2274.57,87.8516 2275.67,87.7398 2276.77,87.6284 2277.87,87.5175 2278.97,87.407 2280.06,87.297 2281.15,87.1874 2282.24,87.0782 2283.33,86.9695 2284.41,86.8611 2285.5,86.7532 2286.58,86.6457 2287.66,86.5387 2288.73,86.432 2289.81,86.3258 2290.88,86.2199 2291.95,86.1145 2293.02,86.0095 2294.08,85.9049 "/>
<polyline clip-path="url(#clip952)" style="stroke:#000000; stroke-linecap:round; stroke-linejoin:round; stroke-width:4; stroke-opacity:1; fill:none" stroke-dasharray="16, 10" points="963.103,445.817 959.95,448.234 956.774,450.684 953.574,453.168 950.349,455.685 947.099,458.238 943.824,460.826 940.523,463.451 937.196,466.113 933.842,468.814 930.462,471.554 927.053,474.334 923.616,477.155 920.151,480.018 916.656,482.925 913.132,485.875 909.578,488.871 905.993,491.913 902.376,495.003 898.728,498.141 895.047,501.33 891.333,504.57 887.584,507.862 883.802,511.209 879.984,514.611 876.13,518.071 872.24,521.589 868.312,525.167 864.346,528.807 860.34,532.511 856.295,536.281 852.209,540.118 848.082,544.025 843.912,548.003 839.698,552.054 835.44,556.182 831.136,560.388 826.785,564.675 822.387,569.045 817.94,573.502 813.442,578.047 808.893,582.683 804.292,587.415 799.637,592.244 794.926,597.175 790.158,602.211 785.332,607.355 780.446,612.612 775.498,617.986 770.487,623.481 765.411,629.1 760.268,634.851 755.055,640.736 749.772,646.762 744.415,652.935 738.983,659.259 733.474,665.742 727.884,672.39 722.21,679.21 716.452,686.21 710.604,693.397 704.665,700.781 698.631,708.37 692.499,716.173 686.265,724.202 679.926,732.466 673.476,740.979 666.913,749.752 660.231,758.798 653.425,768.134 646.491,777.773 639.423,787.734 632.215,798.035 624.861,808.694 617.353,819.735 609.686,831.18 601.85,843.054 593.837,855.387 585.639,868.207 577.245,881.55 568.644,895.451 559.825,909.951 550.775,925.096 541.48,940.936 531.924,957.527 522.091,974.932 511.961,993.221 501.513,1012.47 490.724,1032.78 479.568,1054.25 468.014,1076.99 456.03,1101.14 443.575,1126.87 430.607,1154.35 417.073,1183.82 402.914,1215.52 388.059,1249.79 372.423,1287 355.903,1327.64 338.375,1372.3 "/>
<path clip-path="url(#clip950)" d="M1937.69 1365.44 L2283.65 1365.44 L2283.65 1106.24 L1937.69 1106.24  Z" fill="#ffffff" fill-rule="evenodd" fill-opacity="1"/>
<polyline clip-path="url(#clip950)" style="stroke:#000000; stroke-linecap:round; stroke-linejoin:round; stroke-width:4; stroke-opacity:1; fill:none" points="1937.69,1365.44 2283.65,1365.44 2283.65,1106.24 1937.69,1106.24 1937.69,1365.44 "/>
<polyline clip-path="url(#clip950)" style="stroke:#009af9; stroke-linecap:round; stroke-linejoin:round; stroke-width:4; stroke-opacity:1; fill:none" points="1960.73,1158.08 2098.93,1158.08 "/>
<path clip-path="url(#clip950)" d="M2135.37 1162.33 Q2130.2 1162.33 2128.21 1163.51 Q2126.22 1164.69 2126.22 1167.54 Q2126.22 1169.81 2127.7 1171.15 Q2129.21 1172.47 2131.78 1172.47 Q2135.32 1172.47 2137.45 1169.97 Q2139.6 1167.44 2139.6 1163.28 L2139.6 1162.33 L2135.37 1162.33 M2143.86 1160.57 L2143.86 1175.36 L2139.6 1175.36 L2139.6 1171.43 Q2138.14 1173.79 2135.97 1174.92 Q2133.79 1176.03 2130.64 1176.03 Q2126.66 1176.03 2124.3 1173.81 Q2121.96 1171.57 2121.96 1167.82 Q2121.96 1163.44 2124.88 1161.22 Q2127.82 1159 2133.63 1159 L2139.6 1159 L2139.6 1158.58 Q2139.6 1155.64 2137.66 1154.04 Q2135.74 1152.42 2132.24 1152.42 Q2130.02 1152.42 2127.91 1152.95 Q2125.81 1153.49 2123.86 1154.55 L2123.86 1150.62 Q2126.2 1149.71 2128.4 1149.27 Q2130.6 1148.81 2132.68 1148.81 Q2138.31 1148.81 2141.08 1151.73 Q2143.86 1154.64 2143.86 1160.57 Z" fill="#000000" fill-rule="nonzero" fill-opacity="1" /><path clip-path="url(#clip950)" d="M2153.19 1153.83 L2182.87 1153.83 L2182.87 1157.72 L2153.19 1157.72 L2153.19 1153.83 M2153.19 1163.28 L2182.87 1163.28 L2182.87 1167.21 L2153.19 1167.21 L2153.19 1163.28 Z" fill="#000000" fill-rule="nonzero" fill-opacity="1" /><path clip-path="url(#clip950)" d="M2202.96 1143.88 Q2199.35 1143.88 2197.52 1147.45 Q2195.71 1150.99 2195.71 1158.12 Q2195.71 1165.22 2197.52 1168.79 Q2199.35 1172.33 2202.96 1172.33 Q2206.59 1172.33 2208.4 1168.79 Q2210.23 1165.22 2210.23 1158.12 Q2210.23 1150.99 2208.4 1147.45 Q2206.59 1143.88 2202.96 1143.88 M2202.96 1140.18 Q2208.77 1140.18 2211.82 1144.78 Q2214.9 1149.37 2214.9 1158.12 Q2214.9 1166.84 2211.82 1171.45 Q2208.77 1176.03 2202.96 1176.03 Q2197.15 1176.03 2194.07 1171.45 Q2191.01 1166.84 2191.01 1158.12 Q2191.01 1149.37 2194.07 1144.78 Q2197.15 1140.18 2202.96 1140.18 Z" fill="#000000" fill-rule="nonzero" fill-opacity="1" /><path clip-path="url(#clip950)" d="M2223.12 1169.48 L2228 1169.48 L2228 1175.36 L2223.12 1175.36 L2223.12 1169.48 Z" fill="#000000" fill-rule="nonzero" fill-opacity="1" /><path clip-path="url(#clip950)" d="M2248.19 1143.88 Q2244.58 1143.88 2242.75 1147.45 Q2240.94 1150.99 2240.94 1158.12 Q2240.94 1165.22 2242.75 1168.79 Q2244.58 1172.33 2248.19 1172.33 Q2251.82 1172.33 2253.63 1168.79 Q2255.46 1165.22 2255.46 1158.12 Q2255.46 1150.99 2253.63 1147.45 Q2251.82 1143.88 2248.19 1143.88 M2248.19 1140.18 Q2254 1140.18 2257.06 1144.78 Q2260.13 1149.37 2260.13 1158.12 Q2260.13 1166.84 2257.06 1171.45 Q2254 1176.03 2248.19 1176.03 Q2242.38 1176.03 2239.3 1171.45 Q2236.25 1166.84 2236.25 1158.12 Q2236.25 1149.37 2239.3 1144.78 Q2242.38 1140.18 2248.19 1140.18 Z" fill="#000000" fill-rule="nonzero" fill-opacity="1" /><polyline clip-path="url(#clip950)" style="stroke:#e26f46; stroke-linecap:round; stroke-linejoin:round; stroke-width:4; stroke-opacity:1; fill:none" points="1960.73,1209.92 2098.93,1209.92 "/>
<path clip-path="url(#clip950)" d="M2135.37 1214.17 Q2130.2 1214.17 2128.21 1215.35 Q2126.22 1216.53 2126.22 1219.38 Q2126.22 1221.65 2127.7 1222.99 Q2129.21 1224.31 2131.78 1224.31 Q2135.32 1224.31 2137.45 1221.81 Q2139.6 1219.28 2139.6 1215.12 L2139.6 1214.17 L2135.37 1214.17 M2143.86 1212.41 L2143.86 1227.2 L2139.6 1227.2 L2139.6 1223.27 Q2138.14 1225.63 2135.97 1226.76 Q2133.79 1227.87 2130.64 1227.87 Q2126.66 1227.87 2124.3 1225.65 Q2121.96 1223.41 2121.96 1219.66 Q2121.96 1215.28 2124.88 1213.06 Q2127.82 1210.84 2133.63 1210.84 L2139.6 1210.84 L2139.6 1210.42 Q2139.6 1207.48 2137.66 1205.88 Q2135.74 1204.26 2132.24 1204.26 Q2130.02 1204.26 2127.91 1204.79 Q2125.81 1205.33 2123.86 1206.39 L2123.86 1202.46 Q2126.2 1201.55 2128.4 1201.11 Q2130.6 1200.65 2132.68 1200.65 Q2138.31 1200.65 2141.08 1203.57 Q2143.86 1206.48 2143.86 1212.41 Z" fill="#000000" fill-rule="nonzero" fill-opacity="1" /><path clip-path="url(#clip950)" d="M2153.19 1205.67 L2182.87 1205.67 L2182.87 1209.56 L2153.19 1209.56 L2153.19 1205.67 M2153.19 1215.12 L2182.87 1215.12 L2182.87 1219.05 L2153.19 1219.05 L2153.19 1215.12 Z" fill="#000000" fill-rule="nonzero" fill-opacity="1" /><path clip-path="url(#clip950)" d="M2202.96 1195.72 Q2199.35 1195.72 2197.52 1199.29 Q2195.71 1202.83 2195.71 1209.96 Q2195.71 1217.06 2197.52 1220.63 Q2199.35 1224.17 2202.96 1224.17 Q2206.59 1224.17 2208.4 1220.63 Q2210.23 1217.06 2210.23 1209.96 Q2210.23 1202.83 2208.4 1199.29 Q2206.59 1195.72 2202.96 1195.72 M2202.96 1192.02 Q2208.77 1192.02 2211.82 1196.62 Q2214.9 1201.21 2214.9 1209.96 Q2214.9 1218.68 2211.82 1223.29 Q2208.77 1227.87 2202.96 1227.87 Q2197.15 1227.87 2194.07 1223.29 Q2191.01 1218.68 2191.01 1209.96 Q2191.01 1201.21 2194.07 1196.62 Q2197.15 1192.02 2202.96 1192.02 Z" fill="#000000" fill-rule="nonzero" fill-opacity="1" /><path clip-path="url(#clip950)" d="M2223.12 1221.32 L2228 1221.32 L2228 1227.2 L2223.12 1227.2 L2223.12 1221.32 Z" fill="#000000" fill-rule="nonzero" fill-opacity="1" /><path clip-path="url(#clip950)" d="M2251.04 1196.72 L2239.23 1215.16 L2251.04 1215.16 L2251.04 1196.72 M2249.81 1192.64 L2255.69 1192.64 L2255.69 1215.16 L2260.62 1215.16 L2260.62 1219.05 L2255.69 1219.05 L2255.69 1227.2 L2251.04 1227.2 L2251.04 1219.05 L2235.44 1219.05 L2235.44 1214.54 L2249.81 1192.64 Z" fill="#000000" fill-rule="nonzero" fill-opacity="1" /><polyline clip-path="url(#clip950)" style="stroke:#3da44d; stroke-linecap:round; stroke-linejoin:round; stroke-width:4; stroke-opacity:1; fill:none" points="1960.73,1261.76 2098.93,1261.76 "/>
<path clip-path="url(#clip950)" d="M2135.37 1266.01 Q2130.2 1266.01 2128.21 1267.19 Q2126.22 1268.37 2126.22 1271.22 Q2126.22 1273.49 2127.7 1274.83 Q2129.21 1276.15 2131.78 1276.15 Q2135.32 1276.15 2137.45 1273.65 Q2139.6 1271.12 2139.6 1266.96 L2139.6 1266.01 L2135.37 1266.01 M2143.86 1264.25 L2143.86 1279.04 L2139.6 1279.04 L2139.6 1275.11 Q2138.14 1277.47 2135.97 1278.6 Q2133.79 1279.71 2130.64 1279.71 Q2126.66 1279.71 2124.3 1277.49 Q2121.96 1275.25 2121.96 1271.5 Q2121.96 1267.12 2124.88 1264.9 Q2127.82 1262.68 2133.63 1262.68 L2139.6 1262.68 L2139.6 1262.26 Q2139.6 1259.32 2137.66 1257.72 Q2135.74 1256.1 2132.24 1256.1 Q2130.02 1256.1 2127.91 1256.63 Q2125.81 1257.17 2123.86 1258.23 L2123.86 1254.3 Q2126.2 1253.39 2128.4 1252.95 Q2130.6 1252.49 2132.68 1252.49 Q2138.31 1252.49 2141.08 1255.41 Q2143.86 1258.32 2143.86 1264.25 Z" fill="#000000" fill-rule="nonzero" fill-opacity="1" /><path clip-path="url(#clip950)" d="M2153.19 1257.51 L2182.87 1257.51 L2182.87 1261.4 L2153.19 1261.4 L2153.19 1257.51 M2153.19 1266.96 L2182.87 1266.96 L2182.87 1270.89 L2153.19 1270.89 L2153.19 1266.96 Z" fill="#000000" fill-rule="nonzero" fill-opacity="1" /><path clip-path="url(#clip950)" d="M2202.96 1247.56 Q2199.35 1247.56 2197.52 1251.13 Q2195.71 1254.67 2195.71 1261.8 Q2195.71 1268.9 2197.52 1272.47 Q2199.35 1276.01 2202.96 1276.01 Q2206.59 1276.01 2208.4 1272.47 Q2210.23 1268.9 2210.23 1261.8 Q2210.23 1254.67 2208.4 1251.13 Q2206.59 1247.56 2202.96 1247.56 M2202.96 1243.86 Q2208.77 1243.86 2211.82 1248.46 Q2214.9 1253.05 2214.9 1261.8 Q2214.9 1270.52 2211.82 1275.13 Q2208.77 1279.71 2202.96 1279.71 Q2197.15 1279.71 2194.07 1275.13 Q2191.01 1270.52 2191.01 1261.8 Q2191.01 1253.05 2194.07 1248.46 Q2197.15 1243.86 2202.96 1243.86 Z" fill="#000000" fill-rule="nonzero" fill-opacity="1" /><path clip-path="url(#clip950)" d="M2223.12 1273.16 L2228 1273.16 L2228 1279.04 L2223.12 1279.04 L2223.12 1273.16 Z" fill="#000000" fill-rule="nonzero" fill-opacity="1" /><path clip-path="url(#clip950)" d="M2248.77 1259.9 Q2245.62 1259.9 2243.77 1262.05 Q2241.94 1264.2 2241.94 1267.95 Q2241.94 1271.68 2243.77 1273.86 Q2245.62 1276.01 2248.77 1276.01 Q2251.92 1276.01 2253.75 1273.86 Q2255.6 1271.68 2255.6 1267.95 Q2255.6 1264.2 2253.75 1262.05 Q2251.92 1259.9 2248.77 1259.9 M2258.05 1245.25 L2258.05 1249.5 Q2256.29 1248.67 2254.49 1248.23 Q2252.7 1247.79 2250.94 1247.79 Q2246.31 1247.79 2243.86 1250.92 Q2241.43 1254.04 2241.08 1260.36 Q2242.45 1258.35 2244.51 1257.28 Q2246.57 1256.19 2249.05 1256.19 Q2254.25 1256.19 2257.26 1259.37 Q2260.3 1262.51 2260.3 1267.95 Q2260.3 1273.28 2257.15 1276.5 Q2254 1279.71 2248.77 1279.71 Q2242.77 1279.71 2239.6 1275.13 Q2236.43 1270.52 2236.43 1261.8 Q2236.43 1253.6 2240.32 1248.74 Q2244.21 1243.86 2250.76 1243.86 Q2252.52 1243.86 2254.3 1244.2 Q2256.11 1244.55 2258.05 1245.25 Z" fill="#000000" fill-rule="nonzero" fill-opacity="1" /><polyline clip-path="url(#clip950)" style="stroke:#000000; stroke-linecap:round; stroke-linejoin:round; stroke-width:4; stroke-opacity:1; fill:none" stroke-dasharray="16, 10" points="1960.73,1313.6 2098.93,1313.6 "/>
<path clip-path="url(#clip950)" d="M2121.96 1296.32 L2126.64 1296.32 L2126.64 1330.88 L2121.96 1330.88 L2121.96 1296.32 Z" fill="#000000" fill-rule="nonzero" fill-opacity="1" /><path clip-path="url(#clip950)" d="M2156.66 1297.46 L2156.66 1302.02 Q2154 1300.74 2151.64 1300.12 Q2149.28 1299.49 2147.08 1299.49 Q2143.26 1299.49 2141.18 1300.97 Q2139.12 1302.46 2139.12 1305.19 Q2139.12 1307.48 2140.48 1308.66 Q2141.87 1309.82 2145.71 1310.53 L2148.54 1311.11 Q2153.77 1312.11 2156.25 1314.63 Q2158.75 1317.13 2158.75 1321.34 Q2158.75 1326.37 2155.37 1328.96 Q2152.01 1331.55 2145.51 1331.55 Q2143.05 1331.55 2140.27 1331 Q2137.52 1330.44 2134.56 1329.35 L2134.56 1324.54 Q2137.4 1326.14 2140.13 1326.95 Q2142.87 1327.76 2145.51 1327.76 Q2149.51 1327.76 2151.69 1326.18 Q2153.86 1324.61 2153.86 1321.69 Q2153.86 1319.15 2152.29 1317.71 Q2150.74 1316.28 2147.17 1315.56 L2144.32 1315 Q2139.09 1313.96 2136.76 1311.74 Q2134.42 1309.52 2134.42 1305.56 Q2134.42 1300.97 2137.63 1298.34 Q2140.88 1295.7 2146.55 1295.7 Q2148.98 1295.7 2151.5 1296.14 Q2154.02 1296.58 2156.66 1297.46 Z" fill="#000000" fill-rule="nonzero" fill-opacity="1" /><path clip-path="url(#clip950)" d="M2191.92 1298.98 L2191.92 1303.91 Q2189.56 1301.72 2186.87 1300.63 Q2184.21 1299.54 2181.2 1299.54 Q2175.27 1299.54 2172.13 1303.17 Q2168.98 1306.78 2168.98 1313.64 Q2168.98 1320.46 2172.13 1324.1 Q2175.27 1327.71 2181.2 1327.71 Q2184.21 1327.71 2186.87 1326.62 Q2189.56 1325.53 2191.92 1323.34 L2191.92 1328.22 Q2189.46 1329.89 2186.71 1330.72 Q2183.98 1331.55 2180.92 1331.55 Q2173.07 1331.55 2168.56 1326.76 Q2164.05 1321.95 2164.05 1313.64 Q2164.05 1305.3 2168.56 1300.51 Q2173.07 1295.7 2180.92 1295.7 Q2184.02 1295.7 2186.75 1296.53 Q2189.51 1297.34 2191.92 1298.98 Z" fill="#000000" fill-rule="nonzero" fill-opacity="1" /><path clip-path="url(#clip950)" d="M2213.17 1299.49 Q2208.07 1299.49 2205.07 1303.29 Q2202.08 1307.09 2202.08 1313.64 Q2202.08 1320.16 2205.07 1323.96 Q2208.07 1327.76 2213.17 1327.76 Q2218.26 1327.76 2221.22 1323.96 Q2224.21 1320.16 2224.21 1313.64 Q2224.21 1307.09 2221.22 1303.29 Q2218.26 1299.49 2213.17 1299.49 M2213.17 1295.7 Q2220.44 1295.7 2224.79 1300.58 Q2229.14 1305.44 2229.14 1313.64 Q2229.14 1321.81 2224.79 1326.69 Q2220.44 1331.55 2213.17 1331.55 Q2205.88 1331.55 2201.5 1326.69 Q2197.15 1321.83 2197.15 1313.64 Q2197.15 1305.44 2201.5 1300.58 Q2205.88 1295.7 2213.17 1295.7 Z" fill="#000000" fill-rule="nonzero" fill-opacity="1" /></svg>
