<?xml version="1.0" encoding="utf-8"?>
<svg xmlns="http://www.w3.org/2000/svg" xmlns:xlink="http://www.w3.org/1999/xlink" width="600" height="400" viewBox="0 0 2400 1600">
<defs>
  <clipPath id="clip120">
    <rect x="0" y="0" width="2400" height="1600"/>
  </clipPath>
</defs>
<path clip-path="url(#clip120)" d="M0 1600 L2400 1600 L2400 0 L0 0  Z" fill="#ffffff" fill-rule="evenodd" fill-opacity="1"/>
<defs>
  <clipPath id="clip121">
    <rect x="480" y="0" width="1681" height="1600"/>
  </clipPath>
</defs>
<path clip-path="url(#clip120)" d="M147.108 1486.45 L2352.76 1486.45 L2352.76 47.2441 L147.108 47.2441  Z" fill="#ffffff" fill-rule="evenodd" fill-opacity="1"/>
<defs>
  <clipPath id="clip122">
    <rect x="147" y="47" width="2207" height="1440"/>
  </clipPath>
</defs>
<polyline clip-path="url(#clip122)" style="stroke:#000000; stroke-linecap:round; stroke-linejoin:round; stroke-width:2; stroke-opacity:0.1; fill:none" points="380.152,1486.45 380.152,47.2441 "/>
<polyline clip-path="url(#clip122)" style="stroke:#000000; stroke-linecap:round; stroke-linejoin:round; stroke-width:2; stroke-opacity:0.1; fill:none" points="675.237,1486.45 675.237,47.2441 "/>
<polyline clip-path="url(#clip122)" style="stroke:#000000; stroke-linecap:round; stroke-linejoin:round; stroke-width:2; stroke-opacity:0.1; fill:none" points="970.322,1486.45 970.322,47.2441 "/>
<polyline clip-path="url(#clip122)" style="stroke:#000000; stroke-linecap:round; stroke-linejoin:round; stroke-width:2; stroke-opacity:0.1; fill:none" points="1265.41,1486.45 1265.41,47.2441 "/>
<polyline clip-path="url(#clip122)" style="stroke:#000000; stroke-linecap:round; stroke-linejoin:round; stroke-width:2; stroke-opacity:0.1; fill:none" points="1560.49,1486.45 1560.49,47.2441 "/>
<polyline clip-path="url(#clip122)" style="stroke:#000000; stroke-linecap:round; stroke-linejoin:round; stroke-width:2; stroke-opacity:0.1; fill:none" points="1855.58,1486.45 1855.58,47.2441 "/>
<polyline clip-path="url(#clip122)" style="stroke:#000000; stroke-linecap:round; stroke-linejoin:round; stroke-width:2; stroke-opacity:0.1; fill:none" points="2150.66,1486.45 2150.66,47.2441 "/>
<polyline clip-path="url(#clip120)" style="stroke:#000000; stroke-linecap:round; stroke-linejoin:round; stroke-width:4; stroke-opacity:1; fill:none" points="147.108,1486.45 2352.76,1486.45 "/>
<polyline clip-path="url(#clip120)" style="stroke:#000000; stroke-linecap:round; stroke-linejoin:round; stroke-width:4; stroke-opacity:1; fill:none" points="380.152,1486.45 380.152,1467.55 "/>
<polyline clip-path="url(#clip120)" style="stroke:#000000; stroke-linecap:round; stroke-linejoin:round; stroke-width:4; stroke-opacity:1; fill:none" points="675.237,1486.45 675.237,1467.55 "/>
<polyline clip-path="url(#clip120)" style="stroke:#000000; stroke-linecap:round; stroke-linejoin:round; stroke-width:4; stroke-opacity:1; fill:none" points="970.322,1486.45 970.322,1467.55 "/>
<polyline clip-path="url(#clip120)" style="stroke:#000000; stroke-linecap:round; stroke-linejoin:round; stroke-width:4; stroke-opacity:1; fill:none" points="1265.41,1486.45 1265.41,1467.55 "/>
<polyline clip-path="url(#clip120)" style="stroke:#000000; stroke-linecap:round; stroke-linejoin:round; stroke-width:4; stroke-opacity:1; fill:none" points="1560.49,1486.45 1560.49,1467.55 "/>
<polyline clip-path="url(#clip120)" style="stroke:#000000; stroke-linecap:round; stroke-linejoin:round; stroke-width:4; stroke-opacity:1; fill:none" points="1855.58,1486.45 1855.58,1467.55 "/>
<polyline clip-path="url(#clip120)" style="stroke:#000000; stroke-linecap:round; stroke-linejoin:round; stroke-width:4; stroke-opacity:1; fill:none" points="2150.66,1486.45 2150.66,1467.55 "/>
<path clip-path="url(#clip120)" d="M327.178 1532.02 L356.854 1532.02 L356.854 1535.95 L327.178 1535.95 L327.178 1532.02 Z" fill="#000000" fill-rule="nonzero" fill-opacity="1" /><path clip-path="url(#clip120)" d="M365.766 1514.29 L387.988 1514.29 L387.988 1516.28 L375.442 1548.85 L370.558 1548.85 L382.363 1518.22 L365.766 1518.22 L365.766 1514.29 Z" fill="#000000" fill-rule="nonzero" fill-opacity="1" /><path clip-path="url(#clip120)" d="M397.108 1542.97 L401.993 1542.97 L401.993 1548.85 L397.108 1548.85 L397.108 1542.97 Z" fill="#000000" fill-rule="nonzero" fill-opacity="1" /><path clip-path="url(#clip120)" d="M412.224 1514.29 L430.58 1514.29 L430.58 1518.22 L416.506 1518.22 L416.506 1526.7 Q417.525 1526.35 418.543 1526.19 Q419.562 1526 420.58 1526 Q426.367 1526 429.747 1529.17 Q433.127 1532.34 433.127 1537.76 Q433.127 1543.34 429.654 1546.44 Q426.182 1549.52 419.863 1549.52 Q417.687 1549.52 415.418 1549.15 Q413.173 1548.78 410.766 1548.04 L410.766 1543.34 Q412.849 1544.47 415.071 1545.03 Q417.293 1545.58 419.77 1545.58 Q423.775 1545.58 426.113 1543.48 Q428.451 1541.37 428.451 1537.76 Q428.451 1534.15 426.113 1532.04 Q423.775 1529.94 419.77 1529.94 Q417.895 1529.94 416.02 1530.35 Q414.168 1530.77 412.224 1531.65 L412.224 1514.29 Z" fill="#000000" fill-rule="nonzero" fill-opacity="1" /><path clip-path="url(#clip120)" d="M621.765 1532.02 L651.441 1532.02 L651.441 1535.95 L621.765 1535.95 L621.765 1532.02 Z" fill="#000000" fill-rule="nonzero" fill-opacity="1" /><path clip-path="url(#clip120)" d="M661.58 1514.29 L679.936 1514.29 L679.936 1518.22 L665.862 1518.22 L665.862 1526.7 Q666.881 1526.35 667.899 1526.19 Q668.918 1526 669.936 1526 Q675.723 1526 679.103 1529.17 Q682.483 1532.34 682.483 1537.76 Q682.483 1543.34 679.01 1546.44 Q675.538 1549.52 669.219 1549.52 Q667.043 1549.52 664.774 1549.15 Q662.529 1548.78 660.122 1548.04 L660.122 1543.34 Q662.205 1544.47 664.427 1545.03 Q666.649 1545.58 669.126 1545.58 Q673.131 1545.58 675.469 1543.48 Q677.807 1541.37 677.807 1537.76 Q677.807 1534.15 675.469 1532.04 Q673.131 1529.94 669.126 1529.94 Q667.251 1529.94 665.376 1530.35 Q663.524 1530.77 661.58 1531.65 L661.58 1514.29 Z" fill="#000000" fill-rule="nonzero" fill-opacity="1" /><path clip-path="url(#clip120)" d="M691.696 1542.97 L696.58 1542.97 L696.58 1548.85 L691.696 1548.85 L691.696 1542.97 Z" fill="#000000" fill-rule="nonzero" fill-opacity="1" /><path clip-path="url(#clip120)" d="M716.765 1517.37 Q713.154 1517.37 711.325 1520.93 Q709.52 1524.47 709.52 1531.6 Q709.52 1538.71 711.325 1542.27 Q713.154 1545.82 716.765 1545.82 Q720.399 1545.82 722.205 1542.27 Q724.033 1538.71 724.033 1531.6 Q724.033 1524.47 722.205 1520.93 Q720.399 1517.37 716.765 1517.37 M716.765 1513.66 Q722.575 1513.66 725.631 1518.27 Q728.709 1522.85 728.709 1531.6 Q728.709 1540.33 725.631 1544.94 Q722.575 1549.52 716.765 1549.52 Q710.955 1549.52 707.876 1544.94 Q704.821 1540.33 704.821 1531.6 Q704.821 1522.85 707.876 1518.27 Q710.955 1513.66 716.765 1513.66 Z" fill="#000000" fill-rule="nonzero" fill-opacity="1" /><path clip-path="url(#clip120)" d="M917.348 1532.02 L947.024 1532.02 L947.024 1535.95 L917.348 1535.95 L917.348 1532.02 Z" fill="#000000" fill-rule="nonzero" fill-opacity="1" /><path clip-path="url(#clip120)" d="M961.144 1544.91 L977.463 1544.91 L977.463 1548.85 L955.519 1548.85 L955.519 1544.91 Q958.181 1542.16 962.764 1537.53 Q967.371 1532.88 968.551 1531.53 Q970.797 1529.01 971.676 1527.27 Q972.579 1525.51 972.579 1523.82 Q972.579 1521.07 970.635 1519.33 Q968.713 1517.6 965.612 1517.6 Q963.413 1517.6 960.959 1518.36 Q958.528 1519.13 955.751 1520.68 L955.751 1515.95 Q958.575 1514.82 961.028 1514.24 Q963.482 1513.66 965.519 1513.66 Q970.889 1513.66 974.084 1516.35 Q977.278 1519.03 977.278 1523.52 Q977.278 1525.65 976.468 1527.57 Q975.681 1529.47 973.575 1532.07 Q972.996 1532.74 969.894 1535.95 Q966.792 1539.15 961.144 1544.91 Z" fill="#000000" fill-rule="nonzero" fill-opacity="1" /><path clip-path="url(#clip120)" d="M987.278 1542.97 L992.162 1542.97 L992.162 1548.85 L987.278 1548.85 L987.278 1542.97 Z" fill="#000000" fill-rule="nonzero" fill-opacity="1" /><path clip-path="url(#clip120)" d="M1002.39 1514.29 L1020.75 1514.29 L1020.75 1518.22 L1006.68 1518.22 L1006.68 1526.7 Q1007.69 1526.35 1008.71 1526.19 Q1009.73 1526 1010.75 1526 Q1016.54 1526 1019.92 1529.17 Q1023.3 1532.34 1023.3 1537.76 Q1023.3 1543.34 1019.82 1546.44 Q1016.35 1549.52 1010.03 1549.52 Q1007.86 1549.52 1005.59 1549.15 Q1003.34 1548.78 1000.94 1548.04 L1000.94 1543.34 Q1003.02 1544.47 1005.24 1545.03 Q1007.46 1545.58 1009.94 1545.58 Q1013.94 1545.58 1016.28 1543.48 Q1018.62 1541.37 1018.62 1537.76 Q1018.62 1534.15 1016.28 1532.04 Q1013.94 1529.94 1009.94 1529.94 Q1008.07 1529.94 1006.19 1530.35 Q1004.34 1530.77 1002.39 1531.65 L1002.39 1514.29 Z" fill="#000000" fill-rule="nonzero" fill-opacity="1" /><path clip-path="url(#clip120)" d="M1242.79 1517.37 Q1239.18 1517.37 1237.35 1520.93 Q1235.55 1524.47 1235.55 1531.6 Q1235.55 1538.71 1237.35 1542.27 Q1239.18 1545.82 1242.79 1545.82 Q1246.43 1545.82 1248.23 1542.27 Q1250.06 1538.71 1250.06 1531.6 Q1250.06 1524.47 1248.23 1520.93 Q1246.43 1517.37 1242.79 1517.37 M1242.79 1513.66 Q1248.6 1513.66 1251.66 1518.27 Q1254.74 1522.85 1254.74 1531.6 Q1254.74 1540.33 1251.66 1544.94 Q1248.6 1549.52 1242.79 1549.52 Q1236.98 1549.52 1233.9 1544.94 Q1230.85 1540.33 1230.85 1531.6 Q1230.85 1522.85 1233.9 1518.27 Q1236.98 1513.66 1242.79 1513.66 Z" fill="#000000" fill-rule="nonzero" fill-opacity="1" /><path clip-path="url(#clip120)" d="M1262.95 1542.97 L1267.84 1542.97 L1267.84 1548.85 L1262.95 1548.85 L1262.95 1542.97 Z" fill="#000000" fill-rule="nonzero" fill-opacity="1" /><path clip-path="url(#clip120)" d="M1288.02 1517.37 Q1284.41 1517.37 1282.58 1520.93 Q1280.78 1524.47 1280.78 1531.6 Q1280.78 1538.71 1282.58 1542.27 Q1284.41 1545.82 1288.02 1545.82 Q1291.66 1545.82 1293.46 1542.27 Q1295.29 1538.71 1295.29 1531.6 Q1295.29 1524.47 1293.46 1520.93 Q1291.66 1517.37 1288.02 1517.37 M1288.02 1513.66 Q1293.83 1513.66 1296.89 1518.27 Q1299.97 1522.85 1299.97 1531.6 Q1299.97 1540.33 1296.89 1544.94 Q1293.83 1549.52 1288.02 1549.52 Q1282.21 1549.52 1279.13 1544.94 Q1276.08 1540.33 1276.08 1531.6 Q1276.08 1522.85 1279.13 1518.27 Q1282.21 1513.66 1288.02 1513.66 Z" fill="#000000" fill-rule="nonzero" fill-opacity="1" /><path clip-path="url(#clip120)" d="M1532.23 1544.91 L1548.55 1544.91 L1548.55 1548.85 L1526.6 1548.85 L1526.6 1544.91 Q1529.27 1542.16 1533.85 1537.53 Q1538.46 1532.88 1539.64 1531.53 Q1541.88 1529.01 1542.76 1527.27 Q1543.66 1525.51 1543.66 1523.82 Q1543.66 1521.07 1541.72 1519.33 Q1539.8 1517.6 1536.7 1517.6 Q1534.5 1517.6 1532.04 1518.36 Q1529.61 1519.13 1526.83 1520.68 L1526.83 1515.95 Q1529.66 1514.82 1532.11 1514.24 Q1534.57 1513.66 1536.6 1513.66 Q1541.97 1513.66 1545.17 1516.35 Q1548.36 1519.03 1548.36 1523.52 Q1548.36 1525.65 1547.55 1527.57 Q1546.77 1529.47 1544.66 1532.07 Q1544.08 1532.74 1540.98 1535.95 Q1537.88 1539.15 1532.23 1544.91 Z" fill="#000000" fill-rule="nonzero" fill-opacity="1" /><path clip-path="url(#clip120)" d="M1558.36 1542.97 L1563.25 1542.97 L1563.25 1548.85 L1558.36 1548.85 L1558.36 1542.97 Z" fill="#000000" fill-rule="nonzero" fill-opacity="1" /><path clip-path="url(#clip120)" d="M1573.48 1514.29 L1591.83 1514.29 L1591.83 1518.22 L1577.76 1518.22 L1577.76 1526.7 Q1578.78 1526.35 1579.8 1526.19 Q1580.82 1526 1581.83 1526 Q1587.62 1526 1591 1529.17 Q1594.38 1532.34 1594.38 1537.76 Q1594.38 1543.34 1590.91 1546.44 Q1587.44 1549.52 1581.12 1549.52 Q1578.94 1549.52 1576.67 1549.15 Q1574.43 1548.78 1572.02 1548.04 L1572.02 1543.34 Q1574.1 1544.47 1576.33 1545.03 Q1578.55 1545.58 1581.02 1545.58 Q1585.03 1545.58 1587.37 1543.48 Q1589.7 1541.37 1589.7 1537.76 Q1589.7 1534.15 1587.37 1532.04 Q1585.03 1529.94 1581.02 1529.94 Q1579.15 1529.94 1577.27 1530.35 Q1575.42 1530.77 1573.48 1531.65 L1573.48 1514.29 Z" fill="#000000" fill-rule="nonzero" fill-opacity="1" /><path clip-path="url(#clip120)" d="M1822.74 1514.29 L1841.1 1514.29 L1841.1 1518.22 L1827.02 1518.22 L1827.02 1526.7 Q1828.04 1526.35 1829.06 1526.19 Q1830.08 1526 1831.1 1526 Q1836.88 1526 1840.26 1529.17 Q1843.64 1532.34 1843.64 1537.76 Q1843.64 1543.34 1840.17 1546.44 Q1836.7 1549.52 1830.38 1549.52 Q1828.2 1549.52 1825.94 1549.15 Q1823.69 1548.78 1821.28 1548.04 L1821.28 1543.34 Q1823.37 1544.47 1825.59 1545.03 Q1827.81 1545.58 1830.29 1545.58 Q1834.29 1545.58 1836.63 1543.48 Q1838.97 1541.37 1838.97 1537.76 Q1838.97 1534.15 1836.63 1532.04 Q1834.29 1529.94 1830.29 1529.94 Q1828.41 1529.94 1826.54 1530.35 Q1824.69 1530.77 1822.74 1531.65 L1822.74 1514.29 Z" fill="#000000" fill-rule="nonzero" fill-opacity="1" /><path clip-path="url(#clip120)" d="M1852.86 1542.97 L1857.74 1542.97 L1857.74 1548.85 L1852.86 1548.85 L1852.86 1542.97 Z" fill="#000000" fill-rule="nonzero" fill-opacity="1" /><path clip-path="url(#clip120)" d="M1877.93 1517.37 Q1874.32 1517.37 1872.49 1520.93 Q1870.68 1524.47 1870.68 1531.6 Q1870.68 1538.71 1872.49 1542.27 Q1874.32 1545.82 1877.93 1545.82 Q1881.56 1545.82 1883.37 1542.27 Q1885.19 1538.71 1885.19 1531.6 Q1885.19 1524.47 1883.37 1520.93 Q1881.56 1517.37 1877.93 1517.37 M1877.93 1513.66 Q1883.74 1513.66 1886.79 1518.27 Q1889.87 1522.85 1889.87 1531.6 Q1889.87 1540.33 1886.79 1544.94 Q1883.74 1549.52 1877.93 1549.52 Q1872.12 1549.52 1869.04 1544.94 Q1865.98 1540.33 1865.98 1531.6 Q1865.98 1522.85 1869.04 1518.27 Q1872.12 1513.66 1877.93 1513.66 Z" fill="#000000" fill-rule="nonzero" fill-opacity="1" /><path clip-path="url(#clip120)" d="M2116.98 1514.29 L2139.2 1514.29 L2139.2 1516.28 L2126.66 1548.85 L2121.77 1548.85 L2133.58 1518.22 L2116.98 1518.22 L2116.98 1514.29 Z" fill="#000000" fill-rule="nonzero" fill-opacity="1" /><path clip-path="url(#clip120)" d="M2148.32 1542.97 L2153.21 1542.97 L2153.21 1548.85 L2148.32 1548.85 L2148.32 1542.97 Z" fill="#000000" fill-rule="nonzero" fill-opacity="1" /><path clip-path="url(#clip120)" d="M2163.44 1514.29 L2181.8 1514.29 L2181.8 1518.22 L2167.72 1518.22 L2167.72 1526.7 Q2168.74 1526.35 2169.76 1526.19 Q2170.78 1526 2171.8 1526 Q2177.58 1526 2180.96 1529.17 Q2184.34 1532.34 2184.34 1537.76 Q2184.34 1543.34 2180.87 1546.44 Q2177.4 1549.52 2171.08 1549.52 Q2168.9 1549.52 2166.63 1549.15 Q2164.39 1548.78 2161.98 1548.04 L2161.98 1543.34 Q2164.06 1544.47 2166.29 1545.03 Q2168.51 1545.58 2170.99 1545.58 Q2174.99 1545.58 2177.33 1543.48 Q2179.67 1541.37 2179.67 1537.76 Q2179.67 1534.15 2177.33 1532.04 Q2174.99 1529.94 2170.99 1529.94 Q2169.11 1529.94 2167.24 1530.35 Q2165.38 1530.77 2163.44 1531.65 L2163.44 1514.29 Z" fill="#000000" fill-rule="nonzero" fill-opacity="1" /><polyline clip-path="url(#clip122)" style="stroke:#000000; stroke-linecap:round; stroke-linejoin:round; stroke-width:2; stroke-opacity:0.1; fill:none" points="147.108,1397.58 2352.76,1397.58 "/>
<polyline clip-path="url(#clip122)" style="stroke:#000000; stroke-linecap:round; stroke-linejoin:round; stroke-width:2; stroke-opacity:0.1; fill:none" points="147.108,1102.5 2352.76,1102.5 "/>
<polyline clip-path="url(#clip122)" style="stroke:#000000; stroke-linecap:round; stroke-linejoin:round; stroke-width:2; stroke-opacity:0.1; fill:none" points="147.108,807.413 2352.76,807.413 "/>
<polyline clip-path="url(#clip122)" style="stroke:#000000; stroke-linecap:round; stroke-linejoin:round; stroke-width:2; stroke-opacity:0.1; fill:none" points="147.108,512.328 2352.76,512.328 "/>
<polyline clip-path="url(#clip122)" style="stroke:#000000; stroke-linecap:round; stroke-linejoin:round; stroke-width:2; stroke-opacity:0.1; fill:none" points="147.108,217.243 2352.76,217.243 "/>
<polyline clip-path="url(#clip120)" style="stroke:#000000; stroke-linecap:round; stroke-linejoin:round; stroke-width:4; stroke-opacity:1; fill:none" points="147.108,1486.45 147.108,47.2441 "/>
<polyline clip-path="url(#clip120)" style="stroke:#000000; stroke-linecap:round; stroke-linejoin:round; stroke-width:4; stroke-opacity:1; fill:none" points="147.108,1397.58 166.005,1397.58 "/>
<polyline clip-path="url(#clip120)" style="stroke:#000000; stroke-linecap:round; stroke-linejoin:round; stroke-width:4; stroke-opacity:1; fill:none" points="147.108,1102.5 166.005,1102.5 "/>
<polyline clip-path="url(#clip120)" style="stroke:#000000; stroke-linecap:round; stroke-linejoin:round; stroke-width:4; stroke-opacity:1; fill:none" points="147.108,807.413 166.005,807.413 "/>
<polyline clip-path="url(#clip120)" style="stroke:#000000; stroke-linecap:round; stroke-linejoin:round; stroke-width:4; stroke-opacity:1; fill:none" points="147.108,512.328 166.005,512.328 "/>
<polyline clip-path="url(#clip120)" style="stroke:#000000; stroke-linecap:round; stroke-linejoin:round; stroke-width:4; stroke-opacity:1; fill:none" points="147.108,217.243 166.005,217.243 "/>
<path clip-path="url(#clip120)" d="M5.15904 1398.03 L34.8348 1398.03 L34.8348 1401.97 L5.15904 1401.97 L5.15904 1398.03 Z" fill="#000000" fill-rule="nonzero" fill-opacity="1" /><path clip-path="url(#clip120)" d="M48.9551 1410.93 L65.2745 1410.93 L65.2745 1414.86 L43.3301 1414.86 L43.3301 1410.93 Q45.9922 1408.17 50.5755 1403.54 Q55.1819 1398.89 56.3625 1397.55 Q58.6078 1395.02 59.4875 1393.29 Q60.3902 1391.53 60.3902 1389.84 Q60.3902 1387.09 58.4458 1385.35 Q56.5245 1383.61 53.4227 1383.61 Q51.2236 1383.61 48.7699 1384.38 Q46.3394 1385.14 43.5616 1386.69 L43.5616 1381.97 Q46.3857 1380.84 48.8394 1380.26 Q51.2931 1379.68 53.3301 1379.68 Q58.7004 1379.68 61.8948 1382.36 Q65.0893 1385.05 65.0893 1389.54 Q65.0893 1391.67 64.2791 1393.59 Q63.4921 1395.49 61.3856 1398.08 Q60.8069 1398.75 57.7051 1401.97 Q54.6032 1405.16 48.9551 1410.93 Z" fill="#000000" fill-rule="nonzero" fill-opacity="1" /><path clip-path="url(#clip120)" d="M75.0892 1408.98 L79.9735 1408.98 L79.9735 1414.86 L75.0892 1414.86 L75.0892 1408.98 Z" fill="#000000" fill-rule="nonzero" fill-opacity="1" /><path clip-path="url(#clip120)" d="M90.2049 1380.3 L108.561 1380.3 L108.561 1384.24 L94.4873 1384.24 L94.4873 1392.71 Q95.5058 1392.36 96.5243 1392.2 Q97.5428 1392.02 98.5613 1392.02 Q104.348 1392.02 107.728 1395.19 Q111.108 1398.36 111.108 1403.77 Q111.108 1409.35 107.635 1412.46 Q104.163 1415.53 97.8437 1415.53 Q95.6678 1415.53 93.3993 1415.16 Q91.1539 1414.79 88.7466 1414.05 L88.7466 1409.35 Q90.8299 1410.49 93.0521 1411.04 Q95.2743 1411.6 97.7511 1411.6 Q101.756 1411.6 104.094 1409.49 Q106.432 1407.39 106.432 1403.77 Q106.432 1400.16 104.094 1398.06 Q101.756 1395.95 97.7511 1395.95 Q95.8761 1395.95 94.0012 1396.37 Q92.1493 1396.78 90.2049 1397.66 L90.2049 1380.3 Z" fill="#000000" fill-rule="nonzero" fill-opacity="1" /><path clip-path="url(#clip120)" d="M53.9319 1088.3 Q50.3208 1088.3 48.4921 1091.86 Q46.6866 1095.4 46.6866 1102.53 Q46.6866 1109.64 48.4921 1113.2 Q50.3208 1116.75 53.9319 1116.75 Q57.5662 1116.75 59.3717 1113.2 Q61.2004 1109.64 61.2004 1102.53 Q61.2004 1095.4 59.3717 1091.86 Q57.5662 1088.3 53.9319 1088.3 M53.9319 1084.59 Q59.7421 1084.59 62.7976 1089.2 Q65.8763 1093.78 65.8763 1102.53 Q65.8763 1111.26 62.7976 1115.87 Q59.7421 1120.45 53.9319 1120.45 Q48.1218 1120.45 45.0431 1115.87 Q41.9875 1111.26 41.9875 1102.53 Q41.9875 1093.78 45.0431 1089.2 Q48.1218 1084.59 53.9319 1084.59 Z" fill="#000000" fill-rule="nonzero" fill-opacity="1" /><path clip-path="url(#clip120)" d="M74.0939 1113.9 L78.9781 1113.9 L78.9781 1119.78 L74.0939 1119.78 L74.0939 1113.9 Z" fill="#000000" fill-rule="nonzero" fill-opacity="1" /><path clip-path="url(#clip120)" d="M99.1632 1088.3 Q95.5521 1088.3 93.7234 1091.86 Q91.9178 1095.4 91.9178 1102.53 Q91.9178 1109.64 93.7234 1113.2 Q95.5521 1116.75 99.1632 1116.75 Q102.797 1116.75 104.603 1113.2 Q106.432 1109.64 106.432 1102.53 Q106.432 1095.4 104.603 1091.86 Q102.797 1088.3 99.1632 1088.3 M99.1632 1084.59 Q104.973 1084.59 108.029 1089.2 Q111.108 1093.78 111.108 1102.53 Q111.108 1111.26 108.029 1115.87 Q104.973 1120.45 99.1632 1120.45 Q93.353 1120.45 90.2743 1115.87 Q87.2188 1111.26 87.2188 1102.53 Q87.2188 1093.78 90.2743 1089.2 Q93.353 1084.59 99.1632 1084.59 Z" fill="#000000" fill-rule="nonzero" fill-opacity="1" /><path clip-path="url(#clip120)" d="M48.9551 820.758 L65.2745 820.758 L65.2745 824.693 L43.3301 824.693 L43.3301 820.758 Q45.9922 818.003 50.5755 813.374 Q55.1819 808.721 56.3625 807.378 Q58.6078 804.855 59.4875 803.119 Q60.3902 801.36 60.3902 799.67 Q60.3902 796.915 58.4458 795.179 Q56.5245 793.443 53.4227 793.443 Q51.2236 793.443 48.7699 794.207 Q46.3394 794.971 43.5616 796.522 L43.5616 791.8 Q46.3857 790.665 48.8394 790.087 Q51.2931 789.508 53.3301 789.508 Q58.7004 789.508 61.8948 792.193 Q65.0893 794.878 65.0893 799.369 Q65.0893 801.499 64.2791 803.42 Q63.4921 805.318 61.3856 807.911 Q60.8069 808.582 57.7051 811.799 Q54.6032 814.994 48.9551 820.758 Z" fill="#000000" fill-rule="nonzero" fill-opacity="1" /><path clip-path="url(#clip120)" d="M75.0892 818.813 L79.9735 818.813 L79.9735 824.693 L75.0892 824.693 L75.0892 818.813 Z" fill="#000000" fill-rule="nonzero" fill-opacity="1" /><path clip-path="url(#clip120)" d="M90.2049 790.133 L108.561 790.133 L108.561 794.068 L94.4873 794.068 L94.4873 802.54 Q95.5058 802.193 96.5243 802.031 Q97.5428 801.846 98.5613 801.846 Q104.348 801.846 107.728 805.017 Q111.108 808.188 111.108 813.605 Q111.108 819.184 107.635 822.286 Q104.163 825.364 97.8437 825.364 Q95.6678 825.364 93.3993 824.994 Q91.1539 824.623 88.7466 823.883 L88.7466 819.184 Q90.8299 820.318 93.0521 820.874 Q95.2743 821.429 97.7511 821.429 Q101.756 821.429 104.094 819.323 Q106.432 817.216 106.432 813.605 Q106.432 809.994 104.094 807.887 Q101.756 805.781 97.7511 805.781 Q95.8761 805.781 94.0012 806.198 Q92.1493 806.614 90.2049 807.494 L90.2049 790.133 Z" fill="#000000" fill-rule="nonzero" fill-opacity="1" /><path clip-path="url(#clip120)" d="M43.9783 495.048 L62.3347 495.048 L62.3347 498.983 L48.2607 498.983 L48.2607 507.455 Q49.2792 507.108 50.2977 506.946 Q51.3162 506.761 52.3347 506.761 Q58.1217 506.761 61.5013 509.932 Q64.8809 513.103 64.8809 518.52 Q64.8809 524.099 61.4087 527.201 Q57.9365 530.279 51.6171 530.279 Q49.4412 530.279 47.1727 529.909 Q44.9273 529.539 42.5199 528.798 L42.5199 524.099 Q44.6033 525.233 46.8255 525.789 Q49.0477 526.344 51.5245 526.344 Q55.5291 526.344 57.8671 524.238 Q60.205 522.131 60.205 518.52 Q60.205 514.909 57.8671 512.803 Q55.5291 510.696 51.5245 510.696 Q49.6495 510.696 47.7746 511.113 Q45.9227 511.529 43.9783 512.409 L43.9783 495.048 Z" fill="#000000" fill-rule="nonzero" fill-opacity="1" /><path clip-path="url(#clip120)" d="M74.0939 523.728 L78.9781 523.728 L78.9781 529.608 L74.0939 529.608 L74.0939 523.728 Z" fill="#000000" fill-rule="nonzero" fill-opacity="1" /><path clip-path="url(#clip120)" d="M99.1632 498.127 Q95.5521 498.127 93.7234 501.691 Q91.9178 505.233 91.9178 512.363 Q91.9178 519.469 93.7234 523.034 Q95.5521 526.576 99.1632 526.576 Q102.797 526.576 104.603 523.034 Q106.432 519.469 106.432 512.363 Q106.432 505.233 104.603 501.691 Q102.797 498.127 99.1632 498.127 M99.1632 494.423 Q104.973 494.423 108.029 499.029 Q111.108 503.613 111.108 512.363 Q111.108 521.09 108.029 525.696 Q104.973 530.279 99.1632 530.279 Q93.353 530.279 90.2743 525.696 Q87.2188 521.09 87.2188 512.363 Q87.2188 503.613 90.2743 499.029 Q93.353 494.423 99.1632 494.423 Z" fill="#000000" fill-rule="nonzero" fill-opacity="1" /><path clip-path="url(#clip120)" d="M43.7468 199.963 L65.9689 199.963 L65.9689 201.954 L53.4227 234.523 L48.5384 234.523 L60.3439 203.898 L43.7468 203.898 L43.7468 199.963 Z" fill="#000000" fill-rule="nonzero" fill-opacity="1" /><path clip-path="url(#clip120)" d="M75.0892 228.644 L79.9735 228.644 L79.9735 234.523 L75.0892 234.523 L75.0892 228.644 Z" fill="#000000" fill-rule="nonzero" fill-opacity="1" /><path clip-path="url(#clip120)" d="M90.2049 199.963 L108.561 199.963 L108.561 203.898 L94.4873 203.898 L94.4873 212.37 Q95.5058 212.023 96.5243 211.861 Q97.5428 211.676 98.5613 211.676 Q104.348 211.676 107.728 214.847 Q111.108 218.019 111.108 223.435 Q111.108 229.014 107.635 232.116 Q104.163 235.194 97.8437 235.194 Q95.6678 235.194 93.3993 234.824 Q91.1539 234.454 88.7466 233.713 L88.7466 229.014 Q90.8299 230.148 93.0521 230.704 Q95.2743 231.259 97.7511 231.259 Q101.756 231.259 104.094 229.153 Q106.432 227.046 106.432 223.435 Q106.432 219.824 104.094 217.718 Q101.756 215.611 97.7511 215.611 Q95.8761 215.611 94.0012 216.028 Q92.1493 216.444 90.2049 217.324 L90.2049 199.963 Z" fill="#000000" fill-rule="nonzero" fill-opacity="1" /><polyline clip-path="url(#clip122)" style="stroke:#000000; stroke-linecap:round; stroke-linejoin:round; stroke-width:4; stroke-opacity:1; fill:none" stroke-dasharray="16, 10" points="-2058.54,1102.5 4558.4,1102.5 "/>
<polyline clip-path="url(#clip122)" style="stroke:#000000; stroke-linecap:round; stroke-linejoin:round; stroke-width:4; stroke-opacity:1; fill:none" stroke-dasharray="16, 10" points="1265.41,2925.65 1265.41,-1391.96 "/>
<polyline clip-path="url(#clip122)" style="stroke:#3da44d; stroke-linecap:round; stroke-linejoin:round; stroke-width:4; stroke-opacity:1; fill:none" points="1653.03,1102.5 1687.35,1075.68 1709.96,1045.76 1722.19,1014.46 1726.68,982.814 1725.66,951.336 1720.56,920.28 1712.27,889.791 1701.3,859.974 1687.98,830.924 1672.54,802.729 1655.13,775.482 1635.86,749.274 1614.83,724.199 1592.12,700.353 1567.81,677.833 1541.99,656.738 1514.73,637.163 1486.12,619.208 1456.25,602.968 1425.22,588.538 1393.13,576.008 1360.1,565.469 1326.24,557.002 1291.69,550.685 1256.59,546.59 1221.07,544.781 1185.3,545.313 1149.43,548.231 1113.65,553.571 1078.12,561.355 1043.03,571.595 1008.58,584.288 974.955,599.42 942.371,616.958 911.035,636.859 881.167,659.061 852.994,683.489 826.76,710.051 802.724,738.64 781.18,769.132 762.466,801.385 746.998,835.239 735.318,870.507 728.169,906.959 726.625,944.297 732.258,982.081 747.264,1019.59 774.178,1055.59 814.396,1088.18 865.554,1115.19 920.865,1135.4 972.959,1149.29 1017.77,1158.43 1054.64,1164.39 1084.54,1168.33 1108.89,1171 1128.93,1172.86 1145.67,1174.19 1159.87,1175.16 1172.09,1175.88 1182.77,1176.43 1192.22,1176.85 1200.69,1177.18 1208.38,1177.44 1215.42,1177.64 1221.94,1177.79 1228.03,1177.91 1233.78,1178 1239.25,1178.07 1244.5,1178.12 1249.58,1178.14 1254.53,1178.15 1259.39,1178.15 1264.21,1178.13 1269.01,1178.09 1273.83,1178.04 1278.72,1177.97 1283.7,1177.89 1288.82,1177.78 1294.12,1177.66 1299.66,1177.5 1305.5,1177.32 1311.7,1177.1 1318.34,1176.84 1325.54,1176.52 1333.41,1176.13 1342.12,1175.64 1351.86,1175.04 1362.89,1174.27 1375.54,1173.28 1390.27,1171.97 1407.66,1170.21 1428.45,1167.77 1453.6,1164.31 1484.16,1159.26 1520.95,1151.75 1563.72,1140.57 1609.71,1124.38 1653.03,1102.5 "/>
<polyline clip-path="url(#clip122)" style="stroke:#c271d2; stroke-linecap:round; stroke-linejoin:round; stroke-width:4; stroke-opacity:1; fill:none" points="1776.96,1102.5 1811.99,1067.76 1830.32,1030.4 1835.84,992.556 1833.13,955.195 1825.25,918.626 1813.87,882.925 1799.81,848.121 1783.47,814.257 1765.06,781.39 1744.71,749.596 1722.49,718.959 1698.47,689.575 1672.7,661.541 1645.24,634.96 1616.16,609.936 1585.52,586.574 1553.4,564.98 1519.89,545.257 1485.08,527.508 1449.07,511.831 1411.98,498.321 1373.92,487.071 1335.04,478.163 1295.46,471.677 1255.33,467.684 1214.83,466.244 1174.1,467.411 1133.32,471.226 1092.67,477.718 1052.35,486.906 1012.53,498.793 973.427,513.369 935.228,530.611 898.142,550.479 862.375,572.92 828.138,597.862 795.645,625.223 765.117,654.901 736.782,686.782 710.888,720.739 687.713,756.631 667.591,794.302 650.955,833.586 638.427,874.296 630.963,916.208 630.126,959.013 638.457,1002.18 659.618,1044.65 697.178,1084.46 750.955,1118.83 814.236,1145.58 877.379,1164.59 933.789,1177.4 981.341,1185.91 1020.55,1191.62 1052.82,1195.53 1079.6,1198.29 1102.09,1200.27 1121.25,1201.74 1137.81,1202.84 1152.31,1203.69 1165.17,1204.34 1176.71,1204.86 1187.2,1205.27 1196.82,1205.59 1205.74,1205.85 1214.08,1206.05 1221.96,1206.21 1229.47,1206.34 1236.67,1206.43 1243.65,1206.49 1250.45,1206.53 1257.14,1206.55 1263.76,1206.54 1270.36,1206.51 1277,1206.46 1283.73,1206.39 1290.59,1206.29 1297.64,1206.16 1304.95,1206 1312.59,1205.8 1320.63,1205.56 1329.18,1205.27 1338.34,1204.92 1348.27,1204.49 1359.12,1203.96 1371.12,1203.29 1384.54,1202.46 1399.72,1201.39 1417.14,1200.01 1437.37,1198.18 1461.21,1195.7 1489.62,1192.26 1523.81,1187.37 1565.01,1180.23 1613.94,1169.67 1669.49,1154.07 1726.77,1131.82 1776.96,1102.5 "/>
<polyline clip-path="url(#clip122)" style="stroke:#ac8d18; stroke-linecap:round; stroke-linejoin:round; stroke-width:4; stroke-opacity:1; fill:none" points="1898.99,1102.5 1933.67,1060.03 1946.61,1015.56 1944.45,971.623 1933.8,929.073 1918.59,887.971 1900.64,848.188 1880.68,809.625 1858.97,772.251 1835.56,736.084 1810.47,701.18 1783.68,667.617 1755.19,635.49 1725.02,604.9 1693.18,575.954 1659.72,548.763 1624.69,523.439 1588.17,500.091 1550.23,478.831 1510.96,459.766 1470.47,442.998 1428.89,428.626 1386.32,416.745 1342.92,407.439 1298.83,400.789 1254.21,396.864 1209.22,395.725 1164.03,397.422 1118.83,401.992 1073.8,409.463 1029.14,419.847 985.035,433.142 941.689,449.331 899.302,468.385 858.075,490.257 818.207,514.884 779.897,542.189 743.339,572.08 708.727,604.45 676.25,639.179 646.102,676.137 618.486,715.184 593.635,756.175 571.85,798.966 553.591,843.418 539.653,889.397 531.54,936.747 532.116,985.163 546.267,1033.83 579.99,1080.74 635.59,1122.49 706.508,1155.87 780.675,1180.06 848.787,1196.6 907.166,1207.69 955.81,1215.18 996.12,1220.35 1029.72,1224 1058.05,1226.65 1082.23,1228.6 1103.17,1230.08 1121.53,1231.22 1137.84,1232.1 1152.5,1232.8 1165.82,1233.36 1178.05,1233.8 1189.39,1234.16 1200.01,1234.45 1210.04,1234.67 1219.6,1234.85 1228.78,1234.98 1237.66,1235.08 1246.34,1235.15 1254.86,1235.18 1263.3,1235.18 1271.73,1235.16 1280.2,1235.1 1288.77,1235.02 1297.53,1234.9 1306.53,1234.74 1315.86,1234.55 1325.6,1234.3 1335.87,1234 1346.78,1233.64 1358.47,1233.19 1371.13,1232.64 1384.98,1231.96 1400.29,1231.1 1417.39,1230.03 1436.75,1228.66 1458.93,1226.87 1484.67,1224.49 1514.95,1221.28 1550.96,1216.81 1594.14,1210.46 1645.88,1201.22 1706.76,1187.56 1774.75,1167.5 1842.78,1139.19 1898.99,1102.5 "/>
<polyline clip-path="url(#clip122)" style="stroke:#00a9ad; stroke-linecap:round; stroke-linejoin:round; stroke-width:4; stroke-opacity:1; fill:none" points="2019.95,1102.5 2053.59,1052.41 2060.39,1001.04 2049.88,951.303 2030.77,903.914 2007.85,858.655 1983.1,815.176 1957.13,773.235 1930.01,732.72 1901.65,693.608 1871.92,655.933 1840.71,619.764 1807.94,585.193 1773.58,552.325 1737.6,521.27 1700.04,492.146 1660.91,465.068 1620.28,440.153 1578.23,417.517 1534.84,397.271 1490.21,379.523 1444.47,364.373 1397.75,351.919 1350.19,342.249 1301.95,335.441 1253.17,331.566 1204.05,330.684 1154.75,332.842 1105.46,338.076 1056.37,346.409 1007.68,357.849 959.588,372.39 912.289,390.01 865.981,410.672 820.862,434.323 777.119,460.895 734.936,490.302 694.486,522.446 655.93,557.214 619.414,594.483 585.068,634.119 553.012,675.985 523.364,719.948 496.276,765.891 472.018,813.728 451.193,863.423 435.221,914.992 427.296,968.391 433.611,1023.07 462.776,1077.02 519.753,1126.17 598.139,1166.21 683.329,1195.64 763.207,1215.92 832.491,1229.61 890.639,1238.9 939.049,1245.33 979.53,1249.88 1013.73,1253.18 1042.98,1255.63 1068.33,1257.48 1090.58,1258.91 1110.36,1260.03 1128.14,1260.91 1144.32,1261.61 1159.17,1262.17 1172.96,1262.63 1185.86,1262.99 1198.06,1263.28 1209.68,1263.51 1220.84,1263.69 1231.65,1263.82 1242.2,1263.91 1252.57,1263.96 1262.84,1263.97 1273.1,1263.94 1283.41,1263.88 1293.85,1263.78 1304.5,1263.64 1315.46,1263.46 1326.81,1263.22 1338.67,1262.93 1351.17,1262.57 1364.45,1262.12 1378.69,1261.58 1394.1,1260.9 1410.95,1260.07 1429.57,1259.02 1450.37,1257.7 1473.91,1256.01 1500.85,1253.81 1532.11,1250.89 1568.82,1246.93 1612.43,1241.42 1664.57,1233.6 1726.81,1222.22 1799.54,1205.44 1879.78,1180.9 1958.23,1146.53 2019.95,1102.5 "/>
<polyline clip-path="url(#clip122)" style="stroke:#ed5d92; stroke-linecap:round; stroke-linejoin:round; stroke-width:4; stroke-opacity:1; fill:none" points="2140.24,1102.5 2172.37,1044.86 2172.48,986.738 2153.11,931.407 2125.13,879.431 2094.21,830.292 2062.48,783.399 2030.39,738.362 1997.84,694.982 1964.55,653.189 1930.24,612.994 1894.7,574.457 1857.79,537.666 1819.39,502.727 1779.46,469.756 1737.97,438.872 1694.96,410.199 1650.45,383.856 1604.51,359.965 1557.23,338.641 1508.72,319.996 1459.09,304.134 1408.47,291.153 1357.01,281.143 1304.86,274.185 1252.2,270.349 1199.2,269.692 1146.04,272.263 1092.91,278.094 1040,287.204 987.521,299.599 935.661,315.267 884.619,334.182 834.59,356.301 785.761,381.566 738.311,409.901 692.403,441.216 648.188,475.406 605.788,512.354 565.303,551.93 526.795,594.001 490.292,638.434 455.786,685.109 423.264,733.938 392.791,784.892 364.757,838.043 340.484,893.595 323.509,951.784 321.409,1012.36 345.536,1073.3 403.602,1129.85 489.349,1176.6 585.558,1211.28 677.24,1235.34 757.476,1251.64 825.174,1262.73 881.723,1270.42 929.117,1275.87 969.215,1279.83 1003.55,1282.77 1033.34,1285 1059.5,1286.72 1082.76,1288.06 1103.69,1289.13 1122.73,1289.98 1140.22,1290.66 1156.45,1291.21 1171.66,1291.65 1186.03,1292.01 1199.72,1292.29 1212.88,1292.5 1225.62,1292.66 1238.05,1292.77 1250.28,1292.84 1262.39,1292.86 1274.47,1292.84 1286.63,1292.77 1298.94,1292.65 1311.5,1292.49 1324.42,1292.28 1337.81,1292 1351.79,1291.66 1366.53,1291.23 1382.18,1290.7 1398.97,1290.05 1417.13,1289.26 1436.99,1288.27 1458.93,1287.03 1483.45,1285.46 1511.17,1283.45 1542.89,1280.83 1579.67,1277.35 1622.83,1272.63 1674.02,1266.08 1735.13,1256.77 1807.83,1243.24 1892.35,1223.33 1984.72,1194.3 2073.37,1153.85 2140.24,1102.5 "/>
<polyline clip-path="url(#clip122)" style="stroke:#c68125; stroke-linecap:round; stroke-linejoin:round; stroke-width:4; stroke-opacity:1; fill:none" points="2260.08,1102.5 2290.33,1037.36 2283.35,972.588 2254.73,911.821 2217.55,855.45 2178.4,802.642 2139.52,752.557 2101.23,704.644 2063.21,658.614 2024.98,614.347 1986.15,571.83 1946.36,531.111 1905.39,492.276 1863.07,455.43 1819.32,420.692 1774.07,388.187 1727.32,358.041 1679.1,330.381 1629.46,305.33 1578.49,283.01 1526.28,263.534 1472.95,247.01 1418.63,233.54 1363.47,223.213 1307.63,216.111 1251.28,212.305 1194.6,211.852 1137.78,214.798 1081,221.174 1024.46,230.996 968.37,244.266 912.917,260.969 858.298,281.074 804.702,304.533 752.306,331.281 701.277,361.239 651.759,394.31 603.874,430.384 557.707,469.337 513.305,511.038 470.659,555.354 429.696,602.155 390.278,651.337 352.211,702.842 315.346,756.704 279.842,813.11 246.917,872.462 220.474,935.297 209.532,1001.67 228.276,1069.58 287.228,1133.55 380.256,1187.02 487.477,1226.98 590.985,1254.82 682.204,1273.74 759.482,1286.64 824.199,1295.59 878.529,1301.95 924.55,1306.57 963.993,1310.01 998.225,1312.61 1028.31,1314.62 1055.07,1316.2 1079.16,1317.44 1101.07,1318.44 1121.21,1319.24 1139.9,1319.88 1157.41,1320.4 1173.96,1320.82 1189.73,1321.15 1204.88,1321.41 1219.56,1321.6 1233.89,1321.73 1247.97,1321.81 1261.93,1321.84 1275.85,1321.82 1289.86,1321.74 1304.04,1321.61 1318.52,1321.43 1333.41,1321.18 1348.83,1320.87 1364.95,1320.47 1381.93,1319.97 1399.97,1319.36 1419.3,1318.61 1440.23,1317.69 1463.11,1316.54 1488.38,1315.1 1516.61,1313.28 1548.52,1310.95 1585.03,1307.91 1627.34,1303.87 1676.95,1298.39 1735.73,1290.79 1805.8,1279.98 1888.95,1264.29 1985.22,1241.23 2089.64,1207.69 2188.32,1161.15 2260.08,1102.5 "/>
</svg>
