<?xml version="1.0" encoding="utf-8"?>
<svg xmlns="http://www.w3.org/2000/svg" xmlns:xlink="http://www.w3.org/1999/xlink" width="600" height="400" viewBox="0 0 2400 1600">
<defs>
  <clipPath id="clip700">
    <rect x="0" y="0" width="2400" height="1600"/>
  </clipPath>
</defs>
<path clip-path="url(#clip700)" d="M0 1600 L2400 1600 L2400 0 L0 0  Z" fill="#ffffff" fill-rule="evenodd" fill-opacity="1"/>
<defs>
  <clipPath id="clip701">
    <rect x="480" y="0" width="1681" height="1600"/>
  </clipPath>
</defs>
<path clip-path="url(#clip700)" d="M334.861 1486.45 L2352.76 1486.45 L2352.76 47.2441 L334.861 47.2441  Z" fill="#ffffff" fill-rule="evenodd" fill-opacity="1"/>
<defs>
  <clipPath id="clip702">
    <rect x="334" y="47" width="2019" height="1440"/>
  </clipPath>
</defs>
<polyline clip-path="url(#clip702)" style="stroke:#000000; stroke-linecap:round; stroke-linejoin:round; stroke-width:2; stroke-opacity:0.1; fill:none" points="391.971,1486.45 391.971,47.2441 "/>
<polyline clip-path="url(#clip702)" style="stroke:#000000; stroke-linecap:round; stroke-linejoin:round; stroke-width:2; stroke-opacity:0.1; fill:none" points="872.746,1486.45 872.746,47.2441 "/>
<polyline clip-path="url(#clip702)" style="stroke:#000000; stroke-linecap:round; stroke-linejoin:round; stroke-width:2; stroke-opacity:0.1; fill:none" points="1353.52,1486.45 1353.52,47.2441 "/>
<polyline clip-path="url(#clip702)" style="stroke:#000000; stroke-linecap:round; stroke-linejoin:round; stroke-width:2; stroke-opacity:0.1; fill:none" points="1834.3,1486.45 1834.3,47.2441 "/>
<polyline clip-path="url(#clip702)" style="stroke:#000000; stroke-linecap:round; stroke-linejoin:round; stroke-width:2; stroke-opacity:0.1; fill:none" points="2315.07,1486.45 2315.07,47.2441 "/>
<polyline clip-path="url(#clip700)" style="stroke:#000000; stroke-linecap:round; stroke-linejoin:round; stroke-width:4; stroke-opacity:1; fill:none" points="334.861,1486.45 2352.76,1486.45 "/>
<polyline clip-path="url(#clip700)" style="stroke:#000000; stroke-linecap:round; stroke-linejoin:round; stroke-width:4; stroke-opacity:1; fill:none" points="391.971,1486.45 391.971,1467.55 "/>
<polyline clip-path="url(#clip700)" style="stroke:#000000; stroke-linecap:round; stroke-linejoin:round; stroke-width:4; stroke-opacity:1; fill:none" points="872.746,1486.45 872.746,1467.55 "/>
<polyline clip-path="url(#clip700)" style="stroke:#000000; stroke-linecap:round; stroke-linejoin:round; stroke-width:4; stroke-opacity:1; fill:none" points="1353.52,1486.45 1353.52,1467.55 "/>
<polyline clip-path="url(#clip700)" style="stroke:#000000; stroke-linecap:round; stroke-linejoin:round; stroke-width:4; stroke-opacity:1; fill:none" points="1834.3,1486.45 1834.3,1467.55 "/>
<polyline clip-path="url(#clip700)" style="stroke:#000000; stroke-linecap:round; stroke-linejoin:round; stroke-width:4; stroke-opacity:1; fill:none" points="2315.07,1486.45 2315.07,1467.55 "/>
<path clip-path="url(#clip700)" d="M369.356 1517.37 Q365.745 1517.37 363.916 1520.93 Q362.11 1524.47 362.11 1531.6 Q362.11 1538.71 363.916 1542.27 Q365.745 1545.82 369.356 1545.82 Q372.99 1545.82 374.796 1542.27 Q376.624 1538.71 376.624 1531.6 Q376.624 1524.47 374.796 1520.93 Q372.99 1517.37 369.356 1517.37 M369.356 1513.66 Q375.166 1513.66 378.221 1518.27 Q381.3 1522.85 381.3 1531.6 Q381.3 1540.33 378.221 1544.94 Q375.166 1549.52 369.356 1549.52 Q363.546 1549.52 360.467 1544.94 Q357.411 1540.33 357.411 1531.6 Q357.411 1522.85 360.467 1518.27 Q363.546 1513.66 369.356 1513.66 Z" fill="#000000" fill-rule="nonzero" fill-opacity="1" /><path clip-path="url(#clip700)" d="M389.518 1542.97 L394.402 1542.97 L394.402 1548.85 L389.518 1548.85 L389.518 1542.97 Z" fill="#000000" fill-rule="nonzero" fill-opacity="1" /><path clip-path="url(#clip700)" d="M414.587 1517.37 Q410.976 1517.37 409.147 1520.93 Q407.342 1524.47 407.342 1531.6 Q407.342 1538.71 409.147 1542.27 Q410.976 1545.82 414.587 1545.82 Q418.221 1545.82 420.027 1542.27 Q421.855 1538.71 421.855 1531.6 Q421.855 1524.47 420.027 1520.93 Q418.221 1517.37 414.587 1517.37 M414.587 1513.66 Q420.397 1513.66 423.453 1518.27 Q426.531 1522.85 426.531 1531.6 Q426.531 1540.33 423.453 1544.94 Q420.397 1549.52 414.587 1549.52 Q408.777 1549.52 405.698 1544.94 Q402.643 1540.33 402.643 1531.6 Q402.643 1522.85 405.698 1518.27 Q408.777 1513.66 414.587 1513.66 Z" fill="#000000" fill-rule="nonzero" fill-opacity="1" /><path clip-path="url(#clip700)" d="M844.483 1544.91 L860.802 1544.91 L860.802 1548.85 L838.858 1548.85 L838.858 1544.91 Q841.52 1542.16 846.103 1537.53 Q850.709 1532.88 851.89 1531.53 Q854.135 1529.01 855.015 1527.27 Q855.918 1525.51 855.918 1523.82 Q855.918 1521.07 853.973 1519.33 Q852.052 1517.6 848.95 1517.6 Q846.751 1517.6 844.297 1518.36 Q841.867 1519.13 839.089 1520.68 L839.089 1515.95 Q841.913 1514.82 844.367 1514.24 Q846.82 1513.66 848.858 1513.66 Q854.228 1513.66 857.422 1516.35 Q860.617 1519.03 860.617 1523.52 Q860.617 1525.65 859.807 1527.57 Q859.02 1529.47 856.913 1532.07 Q856.334 1532.74 853.232 1535.95 Q850.131 1539.15 844.483 1544.91 Z" fill="#000000" fill-rule="nonzero" fill-opacity="1" /><path clip-path="url(#clip700)" d="M870.617 1542.97 L875.501 1542.97 L875.501 1548.85 L870.617 1548.85 L870.617 1542.97 Z" fill="#000000" fill-rule="nonzero" fill-opacity="1" /><path clip-path="url(#clip700)" d="M885.732 1514.29 L904.089 1514.29 L904.089 1518.22 L890.015 1518.22 L890.015 1526.7 Q891.033 1526.35 892.052 1526.19 Q893.07 1526 894.089 1526 Q899.876 1526 903.255 1529.17 Q906.635 1532.34 906.635 1537.76 Q906.635 1543.34 903.163 1546.44 Q899.691 1549.52 893.371 1549.52 Q891.195 1549.52 888.927 1549.15 Q886.681 1548.78 884.274 1548.04 L884.274 1543.34 Q886.357 1544.47 888.58 1545.03 Q890.802 1545.58 893.279 1545.58 Q897.283 1545.58 899.621 1543.48 Q901.959 1541.37 901.959 1537.76 Q901.959 1534.15 899.621 1532.04 Q897.283 1529.94 893.279 1529.94 Q891.404 1529.94 889.529 1530.35 Q887.677 1530.77 885.732 1531.65 L885.732 1514.29 Z" fill="#000000" fill-rule="nonzero" fill-opacity="1" /><path clip-path="url(#clip700)" d="M1320.69 1514.29 L1339.04 1514.29 L1339.04 1518.22 L1324.97 1518.22 L1324.97 1526.7 Q1325.99 1526.35 1327.01 1526.19 Q1328.02 1526 1329.04 1526 Q1334.83 1526 1338.21 1529.17 Q1341.59 1532.34 1341.59 1537.76 Q1341.59 1543.34 1338.12 1546.44 Q1334.64 1549.52 1328.32 1549.52 Q1326.15 1549.52 1323.88 1549.15 Q1321.63 1548.78 1319.23 1548.04 L1319.23 1543.34 Q1321.31 1544.47 1323.53 1545.03 Q1325.76 1545.58 1328.23 1545.58 Q1332.24 1545.58 1334.57 1543.48 Q1336.91 1541.37 1336.91 1537.76 Q1336.91 1534.15 1334.57 1532.04 Q1332.24 1529.94 1328.23 1529.94 Q1326.36 1529.94 1324.48 1530.35 Q1322.63 1530.77 1320.69 1531.65 L1320.69 1514.29 Z" fill="#000000" fill-rule="nonzero" fill-opacity="1" /><path clip-path="url(#clip700)" d="M1350.8 1542.97 L1355.69 1542.97 L1355.69 1548.85 L1350.8 1548.85 L1350.8 1542.97 Z" fill="#000000" fill-rule="nonzero" fill-opacity="1" /><path clip-path="url(#clip700)" d="M1375.87 1517.37 Q1372.26 1517.37 1370.43 1520.93 Q1368.63 1524.47 1368.63 1531.6 Q1368.63 1538.71 1370.43 1542.27 Q1372.26 1545.82 1375.87 1545.82 Q1379.5 1545.82 1381.31 1542.27 Q1383.14 1538.71 1383.14 1531.6 Q1383.14 1524.47 1381.31 1520.93 Q1379.5 1517.37 1375.87 1517.37 M1375.87 1513.66 Q1381.68 1513.66 1384.74 1518.27 Q1387.81 1522.85 1387.81 1531.6 Q1387.81 1540.33 1384.74 1544.94 Q1381.68 1549.52 1375.87 1549.52 Q1370.06 1549.52 1366.98 1544.94 Q1363.93 1540.33 1363.93 1531.6 Q1363.93 1522.85 1366.98 1518.27 Q1370.06 1513.66 1375.87 1513.66 Z" fill="#000000" fill-rule="nonzero" fill-opacity="1" /><path clip-path="url(#clip700)" d="M1800.62 1514.29 L1822.84 1514.29 L1822.84 1516.28 L1810.29 1548.85 L1805.41 1548.85 L1817.21 1518.22 L1800.62 1518.22 L1800.62 1514.29 Z" fill="#000000" fill-rule="nonzero" fill-opacity="1" /><path clip-path="url(#clip700)" d="M1831.96 1542.97 L1836.84 1542.97 L1836.84 1548.85 L1831.96 1548.85 L1831.96 1542.97 Z" fill="#000000" fill-rule="nonzero" fill-opacity="1" /><path clip-path="url(#clip700)" d="M1847.07 1514.29 L1865.43 1514.29 L1865.43 1518.22 L1851.36 1518.22 L1851.36 1526.7 Q1852.37 1526.35 1853.39 1526.19 Q1854.41 1526 1855.43 1526 Q1861.22 1526 1864.6 1529.17 Q1867.98 1532.34 1867.98 1537.76 Q1867.98 1543.34 1864.5 1546.44 Q1861.03 1549.52 1854.71 1549.52 Q1852.54 1549.52 1850.27 1549.15 Q1848.02 1548.78 1845.62 1548.04 L1845.62 1543.34 Q1847.7 1544.47 1849.92 1545.03 Q1852.14 1545.58 1854.62 1545.58 Q1858.62 1545.58 1860.96 1543.48 Q1863.3 1541.37 1863.3 1537.76 Q1863.3 1534.15 1860.96 1532.04 Q1858.62 1529.94 1854.62 1529.94 Q1852.75 1529.94 1850.87 1530.35 Q1849.02 1530.77 1847.07 1531.65 L1847.07 1514.29 Z" fill="#000000" fill-rule="nonzero" fill-opacity="1" /><path clip-path="url(#clip700)" d="M2267.14 1544.91 L2274.78 1544.91 L2274.78 1518.55 L2266.47 1520.21 L2266.47 1515.95 L2274.74 1514.29 L2279.41 1514.29 L2279.41 1544.91 L2287.05 1544.91 L2287.05 1548.85 L2267.14 1548.85 L2267.14 1544.91 Z" fill="#000000" fill-rule="nonzero" fill-opacity="1" /><path clip-path="url(#clip700)" d="M2306.49 1517.37 Q2302.88 1517.37 2301.05 1520.93 Q2299.25 1524.47 2299.25 1531.6 Q2299.25 1538.71 2301.05 1542.27 Q2302.88 1545.82 2306.49 1545.82 Q2310.13 1545.82 2311.93 1542.27 Q2313.76 1538.71 2313.76 1531.6 Q2313.76 1524.47 2311.93 1520.93 Q2310.13 1517.37 2306.49 1517.37 M2306.49 1513.66 Q2312.3 1513.66 2315.36 1518.27 Q2318.44 1522.85 2318.44 1531.6 Q2318.44 1540.33 2315.36 1544.94 Q2312.3 1549.52 2306.49 1549.52 Q2300.68 1549.52 2297.61 1544.94 Q2294.55 1540.33 2294.55 1531.6 Q2294.55 1522.85 2297.61 1518.27 Q2300.68 1513.66 2306.49 1513.66 Z" fill="#000000" fill-rule="nonzero" fill-opacity="1" /><path clip-path="url(#clip700)" d="M2326.66 1542.97 L2331.54 1542.97 L2331.54 1548.85 L2326.66 1548.85 L2326.66 1542.97 Z" fill="#000000" fill-rule="nonzero" fill-opacity="1" /><path clip-path="url(#clip700)" d="M2351.73 1517.37 Q2348.11 1517.37 2346.29 1520.93 Q2344.48 1524.47 2344.48 1531.6 Q2344.48 1538.71 2346.29 1542.27 Q2348.11 1545.82 2351.73 1545.82 Q2355.36 1545.82 2357.17 1542.27 Q2358.99 1538.71 2358.99 1531.6 Q2358.99 1524.47 2357.17 1520.93 Q2355.36 1517.37 2351.73 1517.37 M2351.73 1513.66 Q2357.54 1513.66 2360.59 1518.27 Q2363.67 1522.85 2363.67 1531.6 Q2363.67 1540.33 2360.59 1544.94 Q2357.54 1549.52 2351.73 1549.52 Q2345.92 1549.52 2342.84 1544.94 Q2339.78 1540.33 2339.78 1531.6 Q2339.78 1522.85 2342.84 1518.27 Q2345.92 1513.66 2351.73 1513.66 Z" fill="#000000" fill-rule="nonzero" fill-opacity="1" /><polyline clip-path="url(#clip702)" style="stroke:#000000; stroke-linecap:round; stroke-linejoin:round; stroke-width:2; stroke-opacity:0.1; fill:none" points="334.861,1445.72 2352.76,1445.72 "/>
<polyline clip-path="url(#clip702)" style="stroke:#000000; stroke-linecap:round; stroke-linejoin:round; stroke-width:2; stroke-opacity:0.1; fill:none" points="334.861,1203.18 2352.76,1203.18 "/>
<polyline clip-path="url(#clip702)" style="stroke:#000000; stroke-linecap:round; stroke-linejoin:round; stroke-width:2; stroke-opacity:0.1; fill:none" points="334.861,960.636 2352.76,960.636 "/>
<polyline clip-path="url(#clip702)" style="stroke:#000000; stroke-linecap:round; stroke-linejoin:round; stroke-width:2; stroke-opacity:0.1; fill:none" points="334.861,718.095 2352.76,718.095 "/>
<polyline clip-path="url(#clip702)" style="stroke:#000000; stroke-linecap:round; stroke-linejoin:round; stroke-width:2; stroke-opacity:0.1; fill:none" points="334.861,475.555 2352.76,475.555 "/>
<polyline clip-path="url(#clip702)" style="stroke:#000000; stroke-linecap:round; stroke-linejoin:round; stroke-width:2; stroke-opacity:0.1; fill:none" points="334.861,233.015 2352.76,233.015 "/>
<polyline clip-path="url(#clip700)" style="stroke:#000000; stroke-linecap:round; stroke-linejoin:round; stroke-width:4; stroke-opacity:1; fill:none" points="334.861,1486.45 334.861,47.2441 "/>
<polyline clip-path="url(#clip700)" style="stroke:#000000; stroke-linecap:round; stroke-linejoin:round; stroke-width:4; stroke-opacity:1; fill:none" points="334.861,1445.72 353.759,1445.72 "/>
<polyline clip-path="url(#clip700)" style="stroke:#000000; stroke-linecap:round; stroke-linejoin:round; stroke-width:4; stroke-opacity:1; fill:none" points="334.861,1203.18 353.759,1203.18 "/>
<polyline clip-path="url(#clip700)" style="stroke:#000000; stroke-linecap:round; stroke-linejoin:round; stroke-width:4; stroke-opacity:1; fill:none" points="334.861,960.636 353.759,960.636 "/>
<polyline clip-path="url(#clip700)" style="stroke:#000000; stroke-linecap:round; stroke-linejoin:round; stroke-width:4; stroke-opacity:1; fill:none" points="334.861,718.095 353.759,718.095 "/>
<polyline clip-path="url(#clip700)" style="stroke:#000000; stroke-linecap:round; stroke-linejoin:round; stroke-width:4; stroke-opacity:1; fill:none" points="334.861,475.555 353.759,475.555 "/>
<polyline clip-path="url(#clip700)" style="stroke:#000000; stroke-linecap:round; stroke-linejoin:round; stroke-width:4; stroke-opacity:1; fill:none" points="334.861,233.015 353.759,233.015 "/>
<path clip-path="url(#clip700)" d="M286.917 1431.51 Q283.306 1431.51 281.477 1435.08 Q279.671 1438.62 279.671 1445.75 Q279.671 1452.86 281.477 1456.42 Q283.306 1459.96 286.917 1459.96 Q290.551 1459.96 292.357 1456.42 Q294.185 1452.86 294.185 1445.75 Q294.185 1438.62 292.357 1435.08 Q290.551 1431.51 286.917 1431.51 M286.917 1427.81 Q292.727 1427.81 295.782 1432.42 Q298.861 1437 298.861 1445.75 Q298.861 1454.48 295.782 1459.08 Q292.727 1463.67 286.917 1463.67 Q281.107 1463.67 278.028 1459.08 Q274.972 1454.48 274.972 1445.75 Q274.972 1437 278.028 1432.42 Q281.107 1427.81 286.917 1427.81 Z" fill="#000000" fill-rule="nonzero" fill-opacity="1" /><path clip-path="url(#clip700)" d="M56.8558 1222.97 L73.1752 1222.97 L73.1752 1226.9 L51.2308 1226.9 L51.2308 1222.97 Q53.8929 1220.21 58.4762 1215.58 Q63.0826 1210.93 64.2632 1209.59 Q66.5085 1207.07 67.3882 1205.33 Q68.2909 1203.57 68.2909 1201.88 Q68.2909 1199.13 66.3465 1197.39 Q64.4252 1195.65 61.3234 1195.65 Q59.1243 1195.65 56.6706 1196.42 Q54.2401 1197.18 51.4623 1198.73 L51.4623 1194.01 Q54.2864 1192.88 56.7401 1192.3 Q59.1938 1191.72 61.2308 1191.72 Q66.6011 1191.72 69.7956 1194.4 Q72.99 1197.09 72.99 1201.58 Q72.99 1203.71 72.1798 1205.63 Q71.3928 1207.53 69.2863 1210.12 Q68.7076 1210.79 65.6058 1214.01 Q62.5039 1217.2 56.8558 1222.97 Z" fill="#000000" fill-rule="nonzero" fill-opacity="1" /><path clip-path="url(#clip700)" d="M82.9899 1221.02 L87.8742 1221.02 L87.8742 1226.9 L82.9899 1226.9 L82.9899 1221.02 Z" fill="#000000" fill-rule="nonzero" fill-opacity="1" /><path clip-path="url(#clip700)" d="M98.1056 1192.34 L116.462 1192.34 L116.462 1196.28 L102.388 1196.28 L102.388 1204.75 Q103.406 1204.4 104.425 1204.24 Q105.444 1204.06 106.462 1204.06 Q112.249 1204.06 115.629 1207.23 Q119.008 1210.4 119.008 1215.82 Q119.008 1221.39 115.536 1224.5 Q112.064 1227.57 105.744 1227.57 Q103.569 1227.57 101.3 1227.2 Q99.0547 1226.83 96.6473 1226.09 L96.6473 1221.39 Q98.7306 1222.53 100.953 1223.08 Q103.175 1223.64 105.652 1223.64 Q109.656 1223.64 111.994 1221.53 Q114.332 1219.43 114.332 1215.82 Q114.332 1212.2 111.994 1210.1 Q109.656 1207.99 105.652 1207.99 Q103.777 1207.99 101.902 1208.41 Q100.05 1208.82 98.1056 1209.7 L98.1056 1192.34 Z" fill="#000000" fill-rule="nonzero" fill-opacity="1" /><path clip-path="url(#clip700)" d="M138.221 1195.42 Q134.61 1195.42 132.781 1198.99 Q130.976 1202.53 130.976 1209.66 Q130.976 1216.76 132.781 1220.33 Q134.61 1223.87 138.221 1223.87 Q141.855 1223.87 143.661 1220.33 Q145.49 1216.76 145.49 1209.66 Q145.49 1202.53 143.661 1198.99 Q141.855 1195.42 138.221 1195.42 M138.221 1191.72 Q144.031 1191.72 147.087 1196.32 Q150.165 1200.91 150.165 1209.66 Q150.165 1218.38 147.087 1222.99 Q144.031 1227.57 138.221 1227.57 Q132.411 1227.57 129.332 1222.99 Q126.277 1218.38 126.277 1209.66 Q126.277 1200.91 129.332 1196.32 Q132.411 1191.72 138.221 1191.72 Z" fill="#000000" fill-rule="nonzero" fill-opacity="1" /><path clip-path="url(#clip700)" d="M168.383 1195.42 Q164.772 1195.42 162.943 1198.99 Q161.138 1202.53 161.138 1209.66 Q161.138 1216.76 162.943 1220.33 Q164.772 1223.87 168.383 1223.87 Q172.017 1223.87 173.823 1220.33 Q175.651 1216.76 175.651 1209.66 Q175.651 1202.53 173.823 1198.99 Q172.017 1195.42 168.383 1195.42 M168.383 1191.72 Q174.193 1191.72 177.249 1196.32 Q180.327 1200.91 180.327 1209.66 Q180.327 1218.38 177.249 1222.99 Q174.193 1227.57 168.383 1227.57 Q162.573 1227.57 159.494 1222.99 Q156.439 1218.38 156.439 1209.66 Q156.439 1200.91 159.494 1196.32 Q162.573 1191.72 168.383 1191.72 Z" fill="#000000" fill-rule="nonzero" fill-opacity="1" /><path clip-path="url(#clip700)" d="M216.716 1201.44 L206.137 1212.07 L216.716 1222.64 L213.961 1225.44 L203.337 1214.82 L192.712 1225.44 L189.98 1222.64 L200.536 1212.07 L189.98 1201.44 L192.712 1198.64 L203.337 1209.26 L213.961 1198.64 L216.716 1201.44 Z" fill="#000000" fill-rule="nonzero" fill-opacity="1" /><path clip-path="url(#clip700)" d="M229.077 1222.97 L236.716 1222.97 L236.716 1196.6 L228.406 1198.27 L228.406 1194.01 L236.67 1192.34 L241.346 1192.34 L241.346 1222.97 L248.984 1222.97 L248.984 1226.9 L229.077 1226.9 L229.077 1222.97 Z" fill="#000000" fill-rule="nonzero" fill-opacity="1" /><path clip-path="url(#clip700)" d="M268.429 1195.42 Q264.818 1195.42 262.989 1198.99 Q261.183 1202.53 261.183 1209.66 Q261.183 1216.76 262.989 1220.33 Q264.818 1223.87 268.429 1223.87 Q272.063 1223.87 273.869 1220.33 Q275.697 1216.76 275.697 1209.66 Q275.697 1202.53 273.869 1198.99 Q272.063 1195.42 268.429 1195.42 M268.429 1191.72 Q274.239 1191.72 277.294 1196.32 Q280.373 1200.91 280.373 1209.66 Q280.373 1218.38 277.294 1222.99 Q274.239 1227.57 268.429 1227.57 Q262.619 1227.57 259.54 1222.99 Q256.484 1218.38 256.484 1209.66 Q256.484 1200.91 259.54 1196.32 Q262.619 1191.72 268.429 1191.72 Z" fill="#000000" fill-rule="nonzero" fill-opacity="1" /><path clip-path="url(#clip700)" d="M293.068 1184.35 Q295.796 1184.94 297.319 1186.78 Q298.861 1188.62 298.861 1191.33 Q298.861 1195.49 296.002 1197.76 Q293.144 1200.04 287.877 1200.04 Q286.11 1200.04 284.229 1199.68 Q282.367 1199.34 280.373 1198.65 L280.373 1194.98 Q281.953 1195.9 283.834 1196.37 Q285.715 1196.84 287.765 1196.84 Q291.338 1196.84 293.2 1195.43 Q295.081 1194.02 295.081 1191.33 Q295.081 1188.85 293.332 1187.46 Q291.601 1186.05 288.498 1186.05 L285.226 1186.05 L285.226 1182.92 L288.649 1182.92 Q291.451 1182.92 292.937 1181.81 Q294.423 1180.69 294.423 1178.58 Q294.423 1176.42 292.88 1175.27 Q291.357 1174.1 288.498 1174.1 Q286.937 1174.1 285.15 1174.44 Q283.364 1174.78 281.219 1175.49 L281.219 1172.11 Q283.382 1171.51 285.263 1171.21 Q287.163 1170.9 288.837 1170.9 Q293.162 1170.9 295.683 1172.88 Q298.203 1174.84 298.203 1178.18 Q298.203 1180.52 296.868 1182.13 Q295.532 1183.73 293.068 1184.35 Z" fill="#000000" fill-rule="nonzero" fill-opacity="1" /><path clip-path="url(#clip700)" d="M52.8743 949.803 L71.2307 949.803 L71.2307 953.738 L57.1567 953.738 L57.1567 962.21 Q58.1752 961.863 59.1938 961.701 Q60.2123 961.516 61.2308 961.516 Q67.0178 961.516 70.3974 964.687 Q73.777 967.859 73.777 973.275 Q73.777 978.854 70.3048 981.956 Q66.8326 985.034 60.5132 985.034 Q58.3373 985.034 56.0688 984.664 Q53.8234 984.294 51.416 983.553 L51.416 978.854 Q53.4993 979.988 55.7216 980.544 Q57.9438 981.099 60.4206 981.099 Q64.4252 981.099 66.7632 978.993 Q69.1011 976.886 69.1011 973.275 Q69.1011 969.664 66.7632 967.558 Q64.4252 965.451 60.4206 965.451 Q58.5456 965.451 56.6706 965.868 Q54.8188 966.285 52.8743 967.164 L52.8743 949.803 Z" fill="#000000" fill-rule="nonzero" fill-opacity="1" /><path clip-path="url(#clip700)" d="M82.9899 978.484 L87.8742 978.484 L87.8742 984.363 L82.9899 984.363 L82.9899 978.484 Z" fill="#000000" fill-rule="nonzero" fill-opacity="1" /><path clip-path="url(#clip700)" d="M108.059 952.882 Q104.448 952.882 102.619 956.447 Q100.814 959.988 100.814 967.118 Q100.814 974.224 102.619 977.789 Q104.448 981.331 108.059 981.331 Q111.693 981.331 113.499 977.789 Q115.328 974.224 115.328 967.118 Q115.328 959.988 113.499 956.447 Q111.693 952.882 108.059 952.882 M108.059 949.178 Q113.869 949.178 116.925 953.785 Q120.004 958.368 120.004 967.118 Q120.004 975.845 116.925 980.451 Q113.869 985.034 108.059 985.034 Q102.249 985.034 99.1704 980.451 Q96.1149 975.845 96.1149 967.118 Q96.1149 958.368 99.1704 953.785 Q102.249 949.178 108.059 949.178 Z" fill="#000000" fill-rule="nonzero" fill-opacity="1" /><path clip-path="url(#clip700)" d="M138.221 952.882 Q134.61 952.882 132.781 956.447 Q130.976 959.988 130.976 967.118 Q130.976 974.224 132.781 977.789 Q134.61 981.331 138.221 981.331 Q141.855 981.331 143.661 977.789 Q145.49 974.224 145.49 967.118 Q145.49 959.988 143.661 956.447 Q141.855 952.882 138.221 952.882 M138.221 949.178 Q144.031 949.178 147.087 953.785 Q150.165 958.368 150.165 967.118 Q150.165 975.845 147.087 980.451 Q144.031 985.034 138.221 985.034 Q132.411 985.034 129.332 980.451 Q126.277 975.845 126.277 967.118 Q126.277 958.368 129.332 953.785 Q132.411 949.178 138.221 949.178 Z" fill="#000000" fill-rule="nonzero" fill-opacity="1" /><path clip-path="url(#clip700)" d="M168.383 952.882 Q164.772 952.882 162.943 956.447 Q161.138 959.988 161.138 967.118 Q161.138 974.224 162.943 977.789 Q164.772 981.331 168.383 981.331 Q172.017 981.331 173.823 977.789 Q175.651 974.224 175.651 967.118 Q175.651 959.988 173.823 956.447 Q172.017 952.882 168.383 952.882 M168.383 949.178 Q174.193 949.178 177.249 953.785 Q180.327 958.368 180.327 967.118 Q180.327 975.845 177.249 980.451 Q174.193 985.034 168.383 985.034 Q162.573 985.034 159.494 980.451 Q156.439 975.845 156.439 967.118 Q156.439 958.368 159.494 953.785 Q162.573 949.178 168.383 949.178 Z" fill="#000000" fill-rule="nonzero" fill-opacity="1" /><path clip-path="url(#clip700)" d="M216.716 958.9 L206.137 969.525 L216.716 980.104 L213.961 982.905 L203.337 972.28 L192.712 982.905 L189.98 980.104 L200.536 969.525 L189.98 958.9 L192.712 956.099 L203.337 966.724 L213.961 956.099 L216.716 958.9 Z" fill="#000000" fill-rule="nonzero" fill-opacity="1" /><path clip-path="url(#clip700)" d="M229.077 980.428 L236.716 980.428 L236.716 954.062 L228.406 955.729 L228.406 951.47 L236.67 949.803 L241.346 949.803 L241.346 980.428 L248.984 980.428 L248.984 984.363 L229.077 984.363 L229.077 980.428 Z" fill="#000000" fill-rule="nonzero" fill-opacity="1" /><path clip-path="url(#clip700)" d="M268.429 952.882 Q264.818 952.882 262.989 956.447 Q261.183 959.988 261.183 967.118 Q261.183 974.224 262.989 977.789 Q264.818 981.331 268.429 981.331 Q272.063 981.331 273.869 977.789 Q275.697 974.224 275.697 967.118 Q275.697 959.988 273.869 956.447 Q272.063 952.882 268.429 952.882 M268.429 949.178 Q274.239 949.178 277.294 953.785 Q280.373 958.368 280.373 967.118 Q280.373 975.845 277.294 980.451 Q274.239 985.034 268.429 985.034 Q262.619 985.034 259.54 980.451 Q256.484 975.845 256.484 967.118 Q256.484 958.368 259.54 953.785 Q262.619 949.178 268.429 949.178 Z" fill="#000000" fill-rule="nonzero" fill-opacity="1" /><path clip-path="url(#clip700)" d="M293.068 941.812 Q295.796 942.396 297.319 944.239 Q298.861 946.082 298.861 948.79 Q298.861 952.947 296.002 955.222 Q293.144 957.498 287.877 957.498 Q286.11 957.498 284.229 957.141 Q282.367 956.802 280.373 956.106 L280.373 952.439 Q281.953 953.36 283.834 953.831 Q285.715 954.301 287.765 954.301 Q291.338 954.301 293.2 952.89 Q295.081 951.48 295.081 948.79 Q295.081 946.308 293.332 944.916 Q291.601 943.505 288.498 943.505 L285.226 943.505 L285.226 940.383 L288.649 940.383 Q291.451 940.383 292.937 939.273 Q294.423 938.145 294.423 936.038 Q294.423 933.876 292.88 932.728 Q291.357 931.562 288.498 931.562 Q286.937 931.562 285.15 931.901 Q283.364 932.239 281.219 932.954 L281.219 929.569 Q283.382 928.967 285.263 928.666 Q287.163 928.365 288.837 928.365 Q293.162 928.365 295.683 930.34 Q298.203 932.296 298.203 935.644 Q298.203 937.976 296.868 939.593 Q295.532 941.192 293.068 941.812 Z" fill="#000000" fill-rule="nonzero" fill-opacity="1" /><path clip-path="url(#clip700)" d="M51.6475 707.263 L73.8696 707.263 L73.8696 709.254 L61.3234 741.823 L56.4391 741.823 L68.2446 711.198 L51.6475 711.198 L51.6475 707.263 Z" fill="#000000" fill-rule="nonzero" fill-opacity="1" /><path clip-path="url(#clip700)" d="M82.9899 735.943 L87.8742 735.943 L87.8742 741.823 L82.9899 741.823 L82.9899 735.943 Z" fill="#000000" fill-rule="nonzero" fill-opacity="1" /><path clip-path="url(#clip700)" d="M98.1056 707.263 L116.462 707.263 L116.462 711.198 L102.388 711.198 L102.388 719.67 Q103.406 719.323 104.425 719.161 Q105.444 718.976 106.462 718.976 Q112.249 718.976 115.629 722.147 Q119.008 725.318 119.008 730.735 Q119.008 736.314 115.536 739.416 Q112.064 742.494 105.744 742.494 Q103.569 742.494 101.3 742.124 Q99.0547 741.754 96.6473 741.013 L96.6473 736.314 Q98.7306 737.448 100.953 738.004 Q103.175 738.559 105.652 738.559 Q109.656 738.559 111.994 736.453 Q114.332 734.346 114.332 730.735 Q114.332 727.124 111.994 725.018 Q109.656 722.911 105.652 722.911 Q103.777 722.911 101.902 723.328 Q100.05 723.744 98.1056 724.624 L98.1056 707.263 Z" fill="#000000" fill-rule="nonzero" fill-opacity="1" /><path clip-path="url(#clip700)" d="M138.221 710.342 Q134.61 710.342 132.781 713.907 Q130.976 717.448 130.976 724.578 Q130.976 731.684 132.781 735.249 Q134.61 738.791 138.221 738.791 Q141.855 738.791 143.661 735.249 Q145.49 731.684 145.49 724.578 Q145.49 717.448 143.661 713.907 Q141.855 710.342 138.221 710.342 M138.221 706.638 Q144.031 706.638 147.087 711.244 Q150.165 715.828 150.165 724.578 Q150.165 733.305 147.087 737.911 Q144.031 742.494 138.221 742.494 Q132.411 742.494 129.332 737.911 Q126.277 733.305 126.277 724.578 Q126.277 715.828 129.332 711.244 Q132.411 706.638 138.221 706.638 Z" fill="#000000" fill-rule="nonzero" fill-opacity="1" /><path clip-path="url(#clip700)" d="M168.383 710.342 Q164.772 710.342 162.943 713.907 Q161.138 717.448 161.138 724.578 Q161.138 731.684 162.943 735.249 Q164.772 738.791 168.383 738.791 Q172.017 738.791 173.823 735.249 Q175.651 731.684 175.651 724.578 Q175.651 717.448 173.823 713.907 Q172.017 710.342 168.383 710.342 M168.383 706.638 Q174.193 706.638 177.249 711.244 Q180.327 715.828 180.327 724.578 Q180.327 733.305 177.249 737.911 Q174.193 742.494 168.383 742.494 Q162.573 742.494 159.494 737.911 Q156.439 733.305 156.439 724.578 Q156.439 715.828 159.494 711.244 Q162.573 706.638 168.383 706.638 Z" fill="#000000" fill-rule="nonzero" fill-opacity="1" /><path clip-path="url(#clip700)" d="M216.716 716.36 L206.137 726.985 L216.716 737.564 L213.961 740.365 L203.337 729.74 L192.712 740.365 L189.98 737.564 L200.536 726.985 L189.98 716.36 L192.712 713.559 L203.337 724.184 L213.961 713.559 L216.716 716.36 Z" fill="#000000" fill-rule="nonzero" fill-opacity="1" /><path clip-path="url(#clip700)" d="M229.077 737.888 L236.716 737.888 L236.716 711.522 L228.406 713.189 L228.406 708.93 L236.67 707.263 L241.346 707.263 L241.346 737.888 L248.984 737.888 L248.984 741.823 L229.077 741.823 L229.077 737.888 Z" fill="#000000" fill-rule="nonzero" fill-opacity="1" /><path clip-path="url(#clip700)" d="M268.429 710.342 Q264.818 710.342 262.989 713.907 Q261.183 717.448 261.183 724.578 Q261.183 731.684 262.989 735.249 Q264.818 738.791 268.429 738.791 Q272.063 738.791 273.869 735.249 Q275.697 731.684 275.697 724.578 Q275.697 717.448 273.869 713.907 Q272.063 710.342 268.429 710.342 M268.429 706.638 Q274.239 706.638 277.294 711.244 Q280.373 715.828 280.373 724.578 Q280.373 733.305 277.294 737.911 Q274.239 742.494 268.429 742.494 Q262.619 742.494 259.54 737.911 Q256.484 733.305 256.484 724.578 Q256.484 715.828 259.54 711.244 Q262.619 706.638 268.429 706.638 Z" fill="#000000" fill-rule="nonzero" fill-opacity="1" /><path clip-path="url(#clip700)" d="M293.068 699.272 Q295.796 699.855 297.319 701.699 Q298.861 703.542 298.861 706.25 Q298.861 710.407 296.002 712.682 Q293.144 714.958 287.877 714.958 Q286.11 714.958 284.229 714.601 Q282.367 714.262 280.373 713.566 L280.373 709.899 Q281.953 710.82 283.834 711.291 Q285.715 711.761 287.765 711.761 Q291.338 711.761 293.2 710.35 Q295.081 708.94 295.081 706.25 Q295.081 703.767 293.332 702.376 Q291.601 700.965 288.498 700.965 L285.226 700.965 L285.226 697.843 L288.649 697.843 Q291.451 697.843 292.937 696.733 Q294.423 695.605 294.423 693.498 Q294.423 691.335 292.88 690.188 Q291.357 689.022 288.498 689.022 Q286.937 689.022 285.15 689.361 Q283.364 689.699 281.219 690.414 L281.219 687.029 Q283.382 686.427 285.263 686.126 Q287.163 685.825 288.837 685.825 Q293.162 685.825 295.683 687.8 Q298.203 689.756 298.203 693.103 Q298.203 695.436 296.868 697.053 Q295.532 698.652 293.068 699.272 Z" fill="#000000" fill-rule="nonzero" fill-opacity="1" /><path clip-path="url(#clip700)" d="M51.6634 495.348 L59.3023 495.348 L59.3023 468.982 L50.9921 470.649 L50.9921 466.39 L59.256 464.723 L63.9319 464.723 L63.9319 495.348 L71.5707 495.348 L71.5707 499.283 L51.6634 499.283 L51.6634 495.348 Z" fill="#000000" fill-rule="nonzero" fill-opacity="1" /><path clip-path="url(#clip700)" d="M81.0151 493.403 L85.8993 493.403 L85.8993 499.283 L81.0151 499.283 L81.0151 493.403 Z" fill="#000000" fill-rule="nonzero" fill-opacity="1" /><path clip-path="url(#clip700)" d="M106.084 467.802 Q102.473 467.802 100.645 471.366 Q98.8391 474.908 98.8391 482.038 Q98.8391 489.144 100.645 492.709 Q102.473 496.251 106.084 496.251 Q109.719 496.251 111.524 492.709 Q113.353 489.144 113.353 482.038 Q113.353 474.908 111.524 471.366 Q109.719 467.802 106.084 467.802 M106.084 464.098 Q111.895 464.098 114.95 468.704 Q118.029 473.288 118.029 482.038 Q118.029 490.764 114.95 495.371 Q111.895 499.954 106.084 499.954 Q100.274 499.954 97.1956 495.371 Q94.14 490.764 94.14 482.038 Q94.14 473.288 97.1956 468.704 Q100.274 464.098 106.084 464.098 Z" fill="#000000" fill-rule="nonzero" fill-opacity="1" /><path clip-path="url(#clip700)" d="M136.246 467.802 Q132.635 467.802 130.807 471.366 Q129.001 474.908 129.001 482.038 Q129.001 489.144 130.807 492.709 Q132.635 496.251 136.246 496.251 Q139.881 496.251 141.686 492.709 Q143.515 489.144 143.515 482.038 Q143.515 474.908 141.686 471.366 Q139.881 467.802 136.246 467.802 M136.246 464.098 Q142.056 464.098 145.112 468.704 Q148.191 473.288 148.191 482.038 Q148.191 490.764 145.112 495.371 Q142.056 499.954 136.246 499.954 Q130.436 499.954 127.357 495.371 Q124.302 490.764 124.302 482.038 Q124.302 473.288 127.357 468.704 Q130.436 464.098 136.246 464.098 Z" fill="#000000" fill-rule="nonzero" fill-opacity="1" /><path clip-path="url(#clip700)" d="M166.408 467.802 Q162.797 467.802 160.968 471.366 Q159.163 474.908 159.163 482.038 Q159.163 489.144 160.968 492.709 Q162.797 496.251 166.408 496.251 Q170.042 496.251 171.848 492.709 Q173.677 489.144 173.677 482.038 Q173.677 474.908 171.848 471.366 Q170.042 467.802 166.408 467.802 M166.408 464.098 Q172.218 464.098 175.274 468.704 Q178.353 473.288 178.353 482.038 Q178.353 490.764 175.274 495.371 Q172.218 499.954 166.408 499.954 Q160.598 499.954 157.519 495.371 Q154.464 490.764 154.464 482.038 Q154.464 473.288 157.519 468.704 Q160.598 464.098 166.408 464.098 Z" fill="#000000" fill-rule="nonzero" fill-opacity="1" /><path clip-path="url(#clip700)" d="M214.741 473.82 L204.163 484.445 L214.741 495.024 L211.987 497.825 L201.362 487.2 L190.737 497.825 L188.005 495.024 L198.561 484.445 L188.005 473.82 L190.737 471.019 L201.362 481.644 L211.987 471.019 L214.741 473.82 Z" fill="#000000" fill-rule="nonzero" fill-opacity="1" /><path clip-path="url(#clip700)" d="M227.102 495.348 L234.741 495.348 L234.741 468.982 L226.431 470.649 L226.431 466.39 L234.695 464.723 L239.371 464.723 L239.371 495.348 L247.01 495.348 L247.01 499.283 L227.102 499.283 L227.102 495.348 Z" fill="#000000" fill-rule="nonzero" fill-opacity="1" /><path clip-path="url(#clip700)" d="M266.454 467.802 Q262.843 467.802 261.014 471.366 Q259.209 474.908 259.209 482.038 Q259.209 489.144 261.014 492.709 Q262.843 496.251 266.454 496.251 Q270.088 496.251 271.894 492.709 Q273.722 489.144 273.722 482.038 Q273.722 474.908 271.894 471.366 Q270.088 467.802 266.454 467.802 M266.454 464.098 Q272.264 464.098 275.32 468.704 Q278.398 473.288 278.398 482.038 Q278.398 490.764 275.32 495.371 Q272.264 499.954 266.454 499.954 Q260.644 499.954 257.565 495.371 Q254.51 490.764 254.51 482.038 Q254.51 473.288 257.565 468.704 Q260.644 464.098 266.454 464.098 Z" fill="#000000" fill-rule="nonzero" fill-opacity="1" /><path clip-path="url(#clip700)" d="M291.075 447.103 L281.483 462.092 L291.075 462.092 L291.075 447.103 M290.078 443.793 L294.855 443.793 L294.855 462.092 L298.861 462.092 L298.861 465.252 L294.855 465.252 L294.855 471.873 L291.075 471.873 L291.075 465.252 L278.398 465.252 L278.398 461.585 L290.078 443.793 Z" fill="#000000" fill-rule="nonzero" fill-opacity="1" /><path clip-path="url(#clip700)" d="M51.6634 252.808 L59.3023 252.808 L59.3023 226.442 L50.9921 228.109 L50.9921 223.85 L59.256 222.183 L63.9319 222.183 L63.9319 252.808 L71.5707 252.808 L71.5707 256.743 L51.6634 256.743 L51.6634 252.808 Z" fill="#000000" fill-rule="nonzero" fill-opacity="1" /><path clip-path="url(#clip700)" d="M81.0151 250.863 L85.8993 250.863 L85.8993 256.743 L81.0151 256.743 L81.0151 250.863 Z" fill="#000000" fill-rule="nonzero" fill-opacity="1" /><path clip-path="url(#clip700)" d="M100.112 252.808 L116.432 252.808 L116.432 256.743 L94.4873 256.743 L94.4873 252.808 Q97.1493 250.053 101.733 245.423 Q106.339 240.771 107.52 239.428 Q109.765 236.905 110.645 235.169 Q111.547 233.41 111.547 231.72 Q111.547 228.965 109.603 227.229 Q107.682 225.493 104.58 225.493 Q102.381 225.493 99.927 226.257 Q97.4965 227.021 94.7187 228.572 L94.7187 223.85 Q97.5428 222.715 99.9965 222.137 Q102.45 221.558 104.487 221.558 Q109.858 221.558 113.052 224.243 Q116.246 226.928 116.246 231.419 Q116.246 233.549 115.436 235.47 Q114.649 237.368 112.543 239.961 Q111.964 240.632 108.862 243.849 Q105.76 247.044 100.112 252.808 Z" fill="#000000" fill-rule="nonzero" fill-opacity="1" /><path clip-path="url(#clip700)" d="M126.293 222.183 L144.649 222.183 L144.649 226.118 L130.575 226.118 L130.575 234.59 Q131.594 234.243 132.612 234.081 Q133.631 233.896 134.649 233.896 Q140.436 233.896 143.816 237.067 Q147.195 240.238 147.195 245.655 Q147.195 251.234 143.723 254.335 Q140.251 257.414 133.931 257.414 Q131.756 257.414 129.487 257.044 Q127.242 256.673 124.834 255.933 L124.834 251.234 Q126.918 252.368 129.14 252.923 Q131.362 253.479 133.839 253.479 Q137.844 253.479 140.181 251.373 Q142.519 249.266 142.519 245.655 Q142.519 242.044 140.181 239.937 Q137.844 237.831 133.839 237.831 Q131.964 237.831 130.089 238.248 Q128.237 238.664 126.293 239.544 L126.293 222.183 Z" fill="#000000" fill-rule="nonzero" fill-opacity="1" /><path clip-path="url(#clip700)" d="M166.408 225.262 Q162.797 225.262 160.968 228.826 Q159.163 232.368 159.163 239.498 Q159.163 246.604 160.968 250.169 Q162.797 253.71 166.408 253.71 Q170.042 253.71 171.848 250.169 Q173.677 246.604 173.677 239.498 Q173.677 232.368 171.848 228.826 Q170.042 225.262 166.408 225.262 M166.408 221.558 Q172.218 221.558 175.274 226.164 Q178.353 230.748 178.353 239.498 Q178.353 248.224 175.274 252.831 Q172.218 257.414 166.408 257.414 Q160.598 257.414 157.519 252.831 Q154.464 248.224 154.464 239.498 Q154.464 230.748 157.519 226.164 Q160.598 221.558 166.408 221.558 Z" fill="#000000" fill-rule="nonzero" fill-opacity="1" /><path clip-path="url(#clip700)" d="M214.741 231.28 L204.163 241.905 L214.741 252.484 L211.987 255.285 L201.362 244.66 L190.737 255.285 L188.005 252.484 L198.561 241.905 L188.005 231.28 L190.737 228.479 L201.362 239.104 L211.987 228.479 L214.741 231.28 Z" fill="#000000" fill-rule="nonzero" fill-opacity="1" /><path clip-path="url(#clip700)" d="M227.102 252.808 L234.741 252.808 L234.741 226.442 L226.431 228.109 L226.431 223.85 L234.695 222.183 L239.371 222.183 L239.371 252.808 L247.01 252.808 L247.01 256.743 L227.102 256.743 L227.102 252.808 Z" fill="#000000" fill-rule="nonzero" fill-opacity="1" /><path clip-path="url(#clip700)" d="M266.454 225.262 Q262.843 225.262 261.014 228.826 Q259.209 232.368 259.209 239.498 Q259.209 246.604 261.014 250.169 Q262.843 253.71 266.454 253.71 Q270.088 253.71 271.894 250.169 Q273.722 246.604 273.722 239.498 Q273.722 232.368 271.894 228.826 Q270.088 225.262 266.454 225.262 M266.454 221.558 Q272.264 221.558 275.32 226.164 Q278.398 230.748 278.398 239.498 Q278.398 248.224 275.32 252.831 Q272.264 257.414 266.454 257.414 Q260.644 257.414 257.565 252.831 Q254.51 248.224 254.51 239.498 Q254.51 230.748 257.565 226.164 Q260.644 221.558 266.454 221.558 Z" fill="#000000" fill-rule="nonzero" fill-opacity="1" /><path clip-path="url(#clip700)" d="M291.075 204.563 L281.483 219.552 L291.075 219.552 L291.075 204.563 M290.078 201.252 L294.855 201.252 L294.855 219.552 L298.861 219.552 L298.861 222.712 L294.855 222.712 L294.855 229.332 L291.075 229.332 L291.075 222.712 L278.398 222.712 L278.398 219.045 L290.078 201.252 Z" fill="#000000" fill-rule="nonzero" fill-opacity="1" /><polyline clip-path="url(#clip702)" style="stroke:#009af9; stroke-linecap:round; stroke-linejoin:round; stroke-width:4; stroke-opacity:1; fill:none" points="391.971,1443.97 391.971,1443.39 411.397,1443.39 411.397,1443.97 430.822,1443.97 430.822,1443.19 450.247,1443.19 450.247,1443.29 469.672,1443.29 469.672,1442.9 489.098,1442.9 489.098,1443.58 508.523,1443.58 508.523,1442.9 527.948,1442.9 547.373,1442.9 547.373,1443.1 566.799,1443.1 566.799,1443.48 586.224,1443.48 586.224,1442.51 605.649,1442.51 605.649,1442.42 625.074,1442.42 625.074,1442.51 644.5,1442.51 644.5,1441.64 663.925,1441.64 663.925,1442.81 683.35,1442.81 683.35,1441.54 702.775,1441.54 702.775,1442.13 722.201,1442.13 722.201,1441.45 741.626,1441.45 741.626,1440.67 761.051,1440.67 761.051,1441.16 780.476,1441.16 780.476,1440.48 799.902,1440.48 799.902,1440.96 819.327,1440.96 819.327,1439.41 838.752,1439.41 838.752,1439.12 858.177,1439.12 858.177,1438.44 877.603,1438.44 877.603,1439.22 897.028,1439.22 897.028,1436.98 916.453,1436.98 916.453,1436.89 935.878,1436.89 935.878,1437.18 955.304,1437.18 955.304,1434.07 974.729,1434.07 974.729,1434.66 994.154,1434.66 994.154,1433.39 1013.58,1433.39 1013.58,1431.07 1033,1431.07 1033,1429.32 1052.43,1429.32 1052.43,1428.45 1071.86,1428.45 1071.86,1424.95 1091.28,1424.95 1091.28,1422.82 1110.71,1422.82 1110.71,1419.72 1130.13,1419.72 1130.13,1415.64 1149.56,1415.64 1149.56,1411.08 1168.98,1411.08 1168.98,1403.61 1188.41,1403.61 1188.41,1396.24 1207.83,1396.24 1207.83,1387.12 1227.26,1387.12 1227.26,1374.02 1246.68,1374.02 1246.68,1358.79 1266.11,1358.79 1266.11,1338.03 1285.53,1338.03 1285.53,1307.27 1304.96,1307.27 1304.96,1266.43 1324.38,1266.43 1324.38,1209.77 1343.81,1209.77 1343.81,1124.98 1363.23,1124.98 1363.23,998.278 1382.66,998.278 1382.66,799.298 1402.08,799.298 1402.08,466.824 1421.51,466.824 1421.51,87.9763 1440.93,87.9763 1440.93,477.593 1460.36,477.593 1460.36,648.438 1479.79,648.438 1479.79,738.178 1499.21,738.178 1499.21,798.619 1518.64,798.619 1518.64,839.268 1538.06,839.268 1538.06,866.336 1557.49,866.336 1557.49,880.694 1576.91,880.694 1576.91,886.903 1596.34,886.903 1596.34,882.247 1615.76,882.247 1615.76,872.545 1635.19,872.545 1635.19,856.052 1654.61,856.052 1654.61,828.403 1674.04,828.403 1674.04,784.842 1693.46,784.842 1693.46,708.782 1712.89,708.782 1712.89,520.183 1732.31,520.183 1732.31,227.776 1751.74,227.776 1751.74,832.186 1771.16,832.186 1771.16,1134.68 1790.59,1134.68 1790.59,1280.11 1810.01,1280.11 1810.01,1352.39 1829.44,1352.39 1829.44,1392.94 1848.86,1392.94 1848.86,1420.88 1868.29,1420.88 1868.29,1445.72 1887.72,1445.72 1907.14,1445.72 1926.57,1445.72 1945.99,1445.72 1965.42,1445.72 1984.84,1445.72 2004.27,1445.72 2023.69,1445.72 2043.12,1445.72 2062.54,1445.72 2081.97,1445.72 2101.39,1445.72 2120.82,1445.72 2140.24,1445.72 2159.67,1445.72 2179.09,1445.72 2198.52,1445.72 2217.94,1445.72 2237.37,1445.72 2256.8,1445.72 2276.22,1445.72 2295.65,1445.72 "/>
<path clip-path="url(#clip700)" d="M2031.27 198.898 L2285.49 198.898 L2285.49 95.2176 L2031.27 95.2176  Z" fill="#ffffff" fill-rule="evenodd" fill-opacity="1"/>
<polyline clip-path="url(#clip700)" style="stroke:#000000; stroke-linecap:round; stroke-linejoin:round; stroke-width:4; stroke-opacity:1; fill:none" points="2031.27,198.898 2285.49,198.898 2285.49,95.2176 2031.27,95.2176 2031.27,198.898 "/>
<polyline clip-path="url(#clip700)" style="stroke:#009af9; stroke-linecap:round; stroke-linejoin:round; stroke-width:4; stroke-opacity:1; fill:none" points="2053.69,147.058 2188.22,147.058 "/>
<path clip-path="url(#clip700)" d="M2224.48 166.745 Q2222.68 171.375 2220.97 172.787 Q2219.25 174.199 2216.38 174.199 L2212.98 174.199 L2212.98 170.634 L2215.48 170.634 Q2217.24 170.634 2218.21 169.8 Q2219.18 168.967 2220.36 165.865 L2221.13 163.921 L2210.64 138.412 L2215.16 138.412 L2223.26 158.689 L2231.36 138.412 L2235.87 138.412 L2224.48 166.745 Z" fill="#000000" fill-rule="nonzero" fill-opacity="1" /><path clip-path="url(#clip700)" d="M2243.16 160.402 L2250.8 160.402 L2250.8 134.037 L2242.49 135.703 L2242.49 131.444 L2250.76 129.778 L2255.43 129.778 L2255.43 160.402 L2263.07 160.402 L2263.07 164.338 L2243.16 164.338 L2243.16 160.402 Z" fill="#000000" fill-rule="nonzero" fill-opacity="1" /></svg>
