<?xml version="1.0" encoding="utf-8"?>
<svg xmlns="http://www.w3.org/2000/svg" xmlns:xlink="http://www.w3.org/1999/xlink" width="600" height="400" viewBox="0 0 2400 1600">
<defs>
  <clipPath id="clip270">
    <rect x="0" y="0" width="2400" height="1600"/>
  </clipPath>
</defs>
<path clip-path="url(#clip270)" d="
M0 1600 L2400 1600 L2400 0 L0 0  Z
  " fill="#ffffff" fill-rule="evenodd" fill-opacity="1"/>
<defs>
  <clipPath id="clip271">
    <rect x="480" y="0" width="1681" height="1600"/>
  </clipPath>
</defs>
<path clip-path="url(#clip270)" d="
M147.478 1486.45 L2352.76 1486.45 L2352.76 47.2441 L147.478 47.2441  Z
  " fill="#ffffff" fill-rule="evenodd" fill-opacity="1"/>
<defs>
  <clipPath id="clip272">
    <rect x="147" y="47" width="2206" height="1440"/>
  </clipPath>
</defs>
<polyline clip-path="url(#clip272)" style="stroke:#000000; stroke-linecap:butt; stroke-linejoin:round; stroke-width:2; stroke-opacity:0.1; fill:none" points="
  231.738,1486.45 231.738,47.2441 
  "/>
<polyline clip-path="url(#clip272)" style="stroke:#000000; stroke-linecap:butt; stroke-linejoin:round; stroke-width:2; stroke-opacity:0.1; fill:none" points="
  571.184,1486.45 571.184,47.2441 
  "/>
<polyline clip-path="url(#clip272)" style="stroke:#000000; stroke-linecap:butt; stroke-linejoin:round; stroke-width:2; stroke-opacity:0.1; fill:none" points="
  910.629,1486.45 910.629,47.2441 
  "/>
<polyline clip-path="url(#clip272)" style="stroke:#000000; stroke-linecap:butt; stroke-linejoin:round; stroke-width:2; stroke-opacity:0.1; fill:none" points="
  1250.07,1486.45 1250.07,47.2441 
  "/>
<polyline clip-path="url(#clip272)" style="stroke:#000000; stroke-linecap:butt; stroke-linejoin:round; stroke-width:2; stroke-opacity:0.1; fill:none" points="
  1589.52,1486.45 1589.52,47.2441 
  "/>
<polyline clip-path="url(#clip272)" style="stroke:#000000; stroke-linecap:butt; stroke-linejoin:round; stroke-width:2; stroke-opacity:0.1; fill:none" points="
  1928.97,1486.45 1928.97,47.2441 
  "/>
<polyline clip-path="url(#clip272)" style="stroke:#000000; stroke-linecap:butt; stroke-linejoin:round; stroke-width:2; stroke-opacity:0.1; fill:none" points="
  2268.41,1486.45 2268.41,47.2441 
  "/>
<polyline clip-path="url(#clip270)" style="stroke:#000000; stroke-linecap:butt; stroke-linejoin:round; stroke-width:4; stroke-opacity:1; fill:none" points="
  147.478,1486.45 2352.76,1486.45 
  "/>
<polyline clip-path="url(#clip270)" style="stroke:#000000; stroke-linecap:butt; stroke-linejoin:round; stroke-width:4; stroke-opacity:1; fill:none" points="
  231.738,1486.45 231.738,1467.55 
  "/>
<polyline clip-path="url(#clip270)" style="stroke:#000000; stroke-linecap:butt; stroke-linejoin:round; stroke-width:4; stroke-opacity:1; fill:none" points="
  571.184,1486.45 571.184,1467.55 
  "/>
<polyline clip-path="url(#clip270)" style="stroke:#000000; stroke-linecap:butt; stroke-linejoin:round; stroke-width:4; stroke-opacity:1; fill:none" points="
  910.629,1486.45 910.629,1467.55 
  "/>
<polyline clip-path="url(#clip270)" style="stroke:#000000; stroke-linecap:butt; stroke-linejoin:round; stroke-width:4; stroke-opacity:1; fill:none" points="
  1250.07,1486.45 1250.07,1467.55 
  "/>
<polyline clip-path="url(#clip270)" style="stroke:#000000; stroke-linecap:butt; stroke-linejoin:round; stroke-width:4; stroke-opacity:1; fill:none" points="
  1589.52,1486.45 1589.52,1467.55 
  "/>
<polyline clip-path="url(#clip270)" style="stroke:#000000; stroke-linecap:butt; stroke-linejoin:round; stroke-width:4; stroke-opacity:1; fill:none" points="
  1928.97,1486.45 1928.97,1467.55 
  "/>
<polyline clip-path="url(#clip270)" style="stroke:#000000; stroke-linecap:butt; stroke-linejoin:round; stroke-width:4; stroke-opacity:1; fill:none" points="
  2268.41,1486.45 2268.41,1467.55 
  "/>
<path clip-path="url(#clip270)" d="M201.206 1532.02 L230.882 1532.02 L230.882 1535.95 L201.206 1535.95 L201.206 1532.02 Z" fill="#000000" fill-rule="evenodd" fill-opacity="1" /><path clip-path="url(#clip270)" d="M255.141 1530.21 Q258.497 1530.93 260.372 1533.2 Q262.271 1535.47 262.271 1538.8 Q262.271 1543.92 258.752 1546.72 Q255.234 1549.52 248.752 1549.52 Q246.576 1549.52 244.261 1549.08 Q241.97 1548.66 239.516 1547.81 L239.516 1543.29 Q241.46 1544.43 243.775 1545.01 Q246.09 1545.58 248.613 1545.58 Q253.011 1545.58 255.303 1543.85 Q257.618 1542.11 257.618 1538.8 Q257.618 1535.75 255.465 1534.03 Q253.335 1532.3 249.516 1532.3 L245.488 1532.3 L245.488 1528.45 L249.701 1528.45 Q253.15 1528.45 254.979 1527.09 Q256.808 1525.7 256.808 1523.11 Q256.808 1520.45 254.909 1519.03 Q253.035 1517.6 249.516 1517.6 Q247.595 1517.6 245.396 1518.01 Q243.197 1518.43 240.558 1519.31 L240.558 1515.14 Q243.22 1514.4 245.535 1514.03 Q247.872 1513.66 249.933 1513.66 Q255.257 1513.66 258.359 1516.09 Q261.46 1518.5 261.46 1522.62 Q261.46 1525.49 259.817 1527.48 Q258.173 1529.45 255.141 1530.21 Z" fill="#000000" fill-rule="evenodd" fill-opacity="1" /><path clip-path="url(#clip270)" d="M541.126 1532.02 L570.802 1532.02 L570.802 1535.95 L541.126 1535.95 L541.126 1532.02 Z" fill="#000000" fill-rule="evenodd" fill-opacity="1" /><path clip-path="url(#clip270)" d="M584.922 1544.91 L601.241 1544.91 L601.241 1548.85 L579.297 1548.85 L579.297 1544.91 Q581.959 1542.16 586.542 1537.53 Q591.149 1532.88 592.329 1531.53 Q594.575 1529.01 595.454 1527.27 Q596.357 1525.51 596.357 1523.82 Q596.357 1521.07 594.413 1519.33 Q592.492 1517.6 589.39 1517.6 Q587.191 1517.6 584.737 1518.36 Q582.306 1519.13 579.529 1520.68 L579.529 1515.95 Q582.353 1514.82 584.806 1514.24 Q587.26 1513.66 589.297 1513.66 Q594.667 1513.66 597.862 1516.35 Q601.056 1519.03 601.056 1523.52 Q601.056 1525.65 600.246 1527.57 Q599.459 1529.47 597.353 1532.07 Q596.774 1532.74 593.672 1535.95 Q590.57 1539.15 584.922 1544.91 Z" fill="#000000" fill-rule="evenodd" fill-opacity="1" /><path clip-path="url(#clip270)" d="M880.386 1532.02 L910.062 1532.02 L910.062 1535.95 L880.386 1535.95 L880.386 1532.02 Z" fill="#000000" fill-rule="evenodd" fill-opacity="1" /><path clip-path="url(#clip270)" d="M920.965 1544.91 L928.604 1544.91 L928.604 1518.55 L920.293 1520.21 L920.293 1515.95 L928.557 1514.29 L933.233 1514.29 L933.233 1544.91 L940.872 1544.91 L940.872 1548.85 L920.965 1548.85 L920.965 1544.91 Z" fill="#000000" fill-rule="evenodd" fill-opacity="1" /><path clip-path="url(#clip270)" d="M1250.07 1517.37 Q1246.46 1517.37 1244.63 1520.93 Q1242.83 1524.47 1242.83 1531.6 Q1242.83 1538.71 1244.63 1542.27 Q1246.46 1545.82 1250.07 1545.82 Q1253.71 1545.82 1255.51 1542.27 Q1257.34 1538.71 1257.34 1531.6 Q1257.34 1524.47 1255.51 1520.93 Q1253.71 1517.37 1250.07 1517.37 M1250.07 1513.66 Q1255.88 1513.66 1258.94 1518.27 Q1262.02 1522.85 1262.02 1531.6 Q1262.02 1540.33 1258.94 1544.94 Q1255.88 1549.52 1250.07 1549.52 Q1244.26 1549.52 1241.19 1544.94 Q1238.13 1540.33 1238.13 1531.6 Q1238.13 1522.85 1241.19 1518.27 Q1244.26 1513.66 1250.07 1513.66 Z" fill="#000000" fill-rule="evenodd" fill-opacity="1" /><path clip-path="url(#clip270)" d="M1579.9 1544.91 L1587.54 1544.91 L1587.54 1518.55 L1579.23 1520.21 L1579.23 1515.95 L1587.49 1514.29 L1592.17 1514.29 L1592.17 1544.91 L1599.81 1544.91 L1599.81 1548.85 L1579.9 1548.85 L1579.9 1544.91 Z" fill="#000000" fill-rule="evenodd" fill-opacity="1" /><path clip-path="url(#clip270)" d="M1923.62 1544.91 L1939.94 1544.91 L1939.94 1548.85 L1917.99 1548.85 L1917.99 1544.91 Q1920.66 1542.16 1925.24 1537.53 Q1929.85 1532.88 1931.03 1531.53 Q1933.27 1529.01 1934.15 1527.27 Q1935.05 1525.51 1935.05 1523.82 Q1935.05 1521.07 1933.11 1519.33 Q1931.19 1517.6 1928.09 1517.6 Q1925.89 1517.6 1923.43 1518.36 Q1921 1519.13 1918.22 1520.68 L1918.22 1515.95 Q1921.05 1514.82 1923.5 1514.24 Q1925.96 1513.66 1927.99 1513.66 Q1933.36 1513.66 1936.56 1516.35 Q1939.75 1519.03 1939.75 1523.52 Q1939.75 1525.65 1938.94 1527.57 Q1938.16 1529.47 1936.05 1532.07 Q1935.47 1532.74 1932.37 1535.95 Q1929.27 1539.15 1923.62 1544.91 Z" fill="#000000" fill-rule="evenodd" fill-opacity="1" /><path clip-path="url(#clip270)" d="M2272.66 1530.21 Q2276.02 1530.93 2277.89 1533.2 Q2279.79 1535.47 2279.79 1538.8 Q2279.79 1543.92 2276.27 1546.72 Q2272.75 1549.52 2266.27 1549.52 Q2264.09 1549.52 2261.78 1549.08 Q2259.49 1548.66 2257.03 1547.81 L2257.03 1543.29 Q2258.98 1544.43 2261.29 1545.01 Q2263.61 1545.58 2266.13 1545.58 Q2270.53 1545.58 2272.82 1543.85 Q2275.14 1542.11 2275.14 1538.8 Q2275.14 1535.75 2272.98 1534.03 Q2270.85 1532.3 2267.03 1532.3 L2263.01 1532.3 L2263.01 1528.45 L2267.22 1528.45 Q2270.67 1528.45 2272.5 1527.09 Q2274.33 1525.7 2274.33 1523.11 Q2274.33 1520.45 2272.43 1519.03 Q2270.55 1517.6 2267.03 1517.6 Q2265.11 1517.6 2262.91 1518.01 Q2260.71 1518.43 2258.08 1519.31 L2258.08 1515.14 Q2260.74 1514.4 2263.05 1514.03 Q2265.39 1513.66 2267.45 1513.66 Q2272.77 1513.66 2275.88 1516.09 Q2278.98 1518.5 2278.98 1522.62 Q2278.98 1525.49 2277.33 1527.48 Q2275.69 1529.45 2272.66 1530.21 Z" fill="#000000" fill-rule="evenodd" fill-opacity="1" /><polyline clip-path="url(#clip272)" style="stroke:#000000; stroke-linecap:butt; stroke-linejoin:round; stroke-width:2; stroke-opacity:0.1; fill:none" points="
  147.478,1445.74 2352.76,1445.74 
  "/>
<polyline clip-path="url(#clip272)" style="stroke:#000000; stroke-linecap:butt; stroke-linejoin:round; stroke-width:2; stroke-opacity:0.1; fill:none" points="
  147.478,1106.29 2352.76,1106.29 
  "/>
<polyline clip-path="url(#clip272)" style="stroke:#000000; stroke-linecap:butt; stroke-linejoin:round; stroke-width:2; stroke-opacity:0.1; fill:none" points="
  147.478,766.846 2352.76,766.846 
  "/>
<polyline clip-path="url(#clip272)" style="stroke:#000000; stroke-linecap:butt; stroke-linejoin:round; stroke-width:2; stroke-opacity:0.1; fill:none" points="
  147.478,427.401 2352.76,427.401 
  "/>
<polyline clip-path="url(#clip272)" style="stroke:#000000; stroke-linecap:butt; stroke-linejoin:round; stroke-width:2; stroke-opacity:0.1; fill:none" points="
  147.478,87.9551 2352.76,87.9551 
  "/>
<polyline clip-path="url(#clip270)" style="stroke:#000000; stroke-linecap:butt; stroke-linejoin:round; stroke-width:4; stroke-opacity:1; fill:none" points="
  147.478,1486.45 147.478,47.2441 
  "/>
<polyline clip-path="url(#clip270)" style="stroke:#000000; stroke-linecap:butt; stroke-linejoin:round; stroke-width:4; stroke-opacity:1; fill:none" points="
  147.478,1445.74 166.376,1445.74 
  "/>
<polyline clip-path="url(#clip270)" style="stroke:#000000; stroke-linecap:butt; stroke-linejoin:round; stroke-width:4; stroke-opacity:1; fill:none" points="
  147.478,1106.29 166.376,1106.29 
  "/>
<polyline clip-path="url(#clip270)" style="stroke:#000000; stroke-linecap:butt; stroke-linejoin:round; stroke-width:4; stroke-opacity:1; fill:none" points="
  147.478,766.846 166.376,766.846 
  "/>
<polyline clip-path="url(#clip270)" style="stroke:#000000; stroke-linecap:butt; stroke-linejoin:round; stroke-width:4; stroke-opacity:1; fill:none" points="
  147.478,427.401 166.376,427.401 
  "/>
<polyline clip-path="url(#clip270)" style="stroke:#000000; stroke-linecap:butt; stroke-linejoin:round; stroke-width:4; stroke-opacity:1; fill:none" points="
  147.478,87.9551 166.376,87.9551 
  "/>
<path clip-path="url(#clip270)" d="M51.3625 1446.19 L81.0383 1446.19 L81.0383 1450.12 L51.3625 1450.12 L51.3625 1446.19 Z" fill="#000000" fill-rule="evenodd" fill-opacity="1" /><path clip-path="url(#clip270)" d="M95.1586 1459.08 L111.478 1459.08 L111.478 1463.02 L89.5336 1463.02 L89.5336 1459.08 Q92.1956 1456.33 96.7789 1451.7 Q101.385 1447.04 102.566 1445.7 Q104.811 1443.18 105.691 1441.44 Q106.594 1439.68 106.594 1437.99 Q106.594 1435.24 104.649 1433.5 Q102.728 1431.77 99.6261 1431.77 Q97.4271 1431.77 94.9734 1432.53 Q92.5428 1433.29 89.7651 1434.85 L89.7651 1430.12 Q92.5891 1428.99 95.0428 1428.41 Q97.4965 1427.83 99.5335 1427.83 Q104.904 1427.83 108.098 1430.52 Q111.293 1433.2 111.293 1437.69 Q111.293 1439.82 110.483 1441.74 Q109.696 1443.64 107.589 1446.23 Q107.01 1446.91 103.909 1450.12 Q100.807 1453.32 95.1586 1459.08 Z" fill="#000000" fill-rule="evenodd" fill-opacity="1" /><path clip-path="url(#clip270)" d="M50.9921 1106.74 L80.6679 1106.74 L80.6679 1110.68 L50.9921 1110.68 L50.9921 1106.74 Z" fill="#000000" fill-rule="evenodd" fill-opacity="1" /><path clip-path="url(#clip270)" d="M91.5706 1119.64 L99.2095 1119.64 L99.2095 1093.27 L90.8993 1094.94 L90.8993 1090.68 L99.1632 1089.01 L103.839 1089.01 L103.839 1119.64 L111.478 1119.64 L111.478 1123.57 L91.5706 1123.57 L91.5706 1119.64 Z" fill="#000000" fill-rule="evenodd" fill-opacity="1" /><path clip-path="url(#clip270)" d="M99.5335 752.645 Q95.9224 752.645 94.0937 756.209 Q92.2882 759.751 92.2882 766.881 Q92.2882 773.987 94.0937 777.552 Q95.9224 781.094 99.5335 781.094 Q103.168 781.094 104.973 777.552 Q106.802 773.987 106.802 766.881 Q106.802 759.751 104.973 756.209 Q103.168 752.645 99.5335 752.645 M99.5335 748.941 Q105.344 748.941 108.399 753.547 Q111.478 758.131 111.478 766.881 Q111.478 775.608 108.399 780.214 Q105.344 784.797 99.5335 784.797 Q93.7234 784.797 90.6447 780.214 Q87.5892 775.608 87.5892 766.881 Q87.5892 758.131 90.6447 753.547 Q93.7234 748.941 99.5335 748.941 Z" fill="#000000" fill-rule="evenodd" fill-opacity="1" /><path clip-path="url(#clip270)" d="M91.5706 440.745 L99.2095 440.745 L99.2095 414.38 L90.8993 416.046 L90.8993 411.787 L99.1632 410.121 L103.839 410.121 L103.839 440.745 L111.478 440.745 L111.478 444.681 L91.5706 444.681 L91.5706 440.745 Z" fill="#000000" fill-rule="evenodd" fill-opacity="1" /><path clip-path="url(#clip270)" d="M95.1586 101.3 L111.478 101.3 L111.478 105.235 L89.5336 105.235 L89.5336 101.3 Q92.1956 98.5453 96.7789 93.9157 Q101.385 89.263 102.566 87.9204 Q104.811 85.3973 105.691 83.6612 Q106.594 81.9019 106.594 80.2121 Q106.594 77.4575 104.649 75.7214 Q102.728 73.9853 99.6261 73.9853 Q97.4271 73.9853 94.9734 74.7492 Q92.5428 75.5131 89.7651 77.064 L89.7651 72.3418 Q92.5891 71.2075 95.0428 70.6288 Q97.4965 70.0501 99.5335 70.0501 Q104.904 70.0501 108.098 72.7353 Q111.293 75.4205 111.293 79.9112 Q111.293 82.0408 110.483 83.9621 Q109.696 85.8602 107.589 88.4528 Q107.01 89.1241 103.909 92.3417 Q100.807 95.5361 95.1586 101.3 Z" fill="#000000" fill-rule="evenodd" fill-opacity="1" /><polyline clip-path="url(#clip272)" style="stroke:#009af9; stroke-linecap:butt; stroke-linejoin:round; stroke-width:4; stroke-opacity:1; fill:none" points="
  1928.97,766.846 1928.63,745.414 1927.61,724.004 1925.92,702.637 1923.56,681.333 1920.52,660.115 1916.82,639.003 1912.45,618.018 1907.42,597.182 1901.74,576.515 
  1895.41,556.038 1888.43,535.771 1880.82,515.734 1872.58,495.948 1863.71,476.431 1854.24,457.204 1844.16,438.286 1833.49,419.695 1822.25,401.451 1810.42,383.57 
  1798.05,366.072 1785.12,348.973 1771.66,332.29 1757.68,316.041 1743.2,300.241 1728.22,284.907 1712.77,270.052 1696.86,255.693 1680.5,241.844 1663.71,228.518 
  1646.51,215.728 1628.92,203.488 1610.94,191.809 1592.61,180.704 1573.93,170.182 1554.94,160.256 1535.64,150.934 1516.05,142.226 1496.2,134.141 1476.1,126.687 
  1455.78,119.871 1435.26,113.699 1414.54,108.179 1393.67,103.315 1372.65,99.1126 1351.51,95.5759 1330.27,92.7082 1308.95,90.5126 1287.57,88.9912 1266.15,88.1455 
  1244.72,87.9763 1223.29,88.4838 1201.89,89.6675 1180.53,91.5263 1159.25,94.0582 1138.05,97.2608 1116.97,101.131 1096.02,105.664 1075.23,110.857 1054.61,116.704 
  1034.18,123.199 1013.97,130.335 993.992,138.106 974.271,146.503 954.825,155.519 935.674,165.144 916.836,175.369 898.33,186.184 880.174,197.578 862.388,209.538 
  844.988,222.055 827.991,235.114 811.416,248.704 795.277,262.81 779.592,277.419 764.376,292.515 749.644,308.084 735.411,324.111 721.691,340.579 708.498,357.471 
  695.845,374.772 683.744,392.464 672.207,410.529 661.247,428.949 650.873,447.706 641.097,466.781 631.928,486.155 623.375,505.808 615.447,525.723 608.151,545.877 
  601.496,566.252 595.486,586.826 590.13,607.581 585.431,628.493 581.394,649.544 578.025,670.712 575.325,691.976 573.298,713.314 571.945,734.705 571.268,756.129 
  571.268,777.563 571.945,798.987 573.298,820.378 575.325,841.716 578.025,862.98 581.394,884.148 585.431,905.199 590.13,926.111 595.486,946.866 601.496,967.44 
  608.151,987.815 615.447,1007.97 623.375,1027.88 631.928,1047.54 641.097,1066.91 650.873,1085.99 661.247,1104.74 672.207,1123.16 683.744,1141.23 695.845,1158.92 
  708.498,1176.22 721.691,1193.11 735.411,1209.58 749.644,1225.61 764.376,1241.18 779.592,1256.27 795.277,1270.88 811.416,1284.99 827.991,1298.58 844.988,1311.64 
  862.388,1324.15 880.174,1336.11 898.33,1347.51 916.836,1358.32 935.674,1368.55 954.825,1378.17 974.271,1387.19 993.992,1395.59 1013.97,1403.36 1034.18,1410.49 
  1054.61,1416.99 1075.23,1422.83 1096.02,1428.03 1116.97,1432.56 1138.05,1436.43 1159.25,1439.63 1180.53,1442.17 1201.89,1444.02 1223.29,1445.21 1244.72,1445.72 
  1266.15,1445.55 1287.57,1444.7 1308.95,1443.18 1330.27,1440.98 1351.51,1438.12 1372.65,1434.58 1393.67,1430.38 1414.54,1425.51 1435.26,1419.99 1455.78,1413.82 
  1476.1,1407.01 1496.2,1399.55 1516.05,1391.47 1535.64,1382.76 1554.94,1373.44 1573.93,1363.51 1592.61,1352.99 1610.94,1341.88 1628.92,1330.2 1646.51,1317.96 
  1663.71,1305.17 1680.5,1291.85 1696.86,1278 1712.77,1263.64 1728.22,1248.79 1743.2,1233.45 1757.68,1217.65 1771.66,1201.4 1785.12,1184.72 1798.05,1167.62 
  1810.42,1150.12 1822.25,1132.24 1833.49,1114 1844.16,1095.41 1854.24,1076.49 1863.71,1057.26 1872.58,1037.74 1880.82,1017.96 1888.43,997.921 1895.41,977.654 
  1901.74,957.177 1907.42,936.51 1912.45,915.674 1916.82,894.689 1920.52,873.577 1923.56,852.359 1925.92,831.055 1927.61,809.688 1928.63,788.278 1928.97,766.846 
  
  "/>
<polyline clip-path="url(#clip272)" style="stroke:#e26f46; stroke-linecap:butt; stroke-linejoin:round; stroke-width:4; stroke-opacity:1; fill:none" points="
  1883.49,766.846 1883.16,746.85 1882.17,726.877 1880.53,706.949 1878.24,687.088 1875.29,667.316 1871.7,647.655 1867.46,628.128 1862.58,608.755 1857.08,589.559 
  1850.95,570.561 1844.2,551.781 1836.85,533.24 1828.89,514.958 1820.35,496.955 1811.22,479.25 1801.53,461.862 1791.29,444.81 1780.5,428.11 1769.18,411.781 
  1757.35,395.838 1745.01,380.298 1732.19,365.176 1718.9,350.487 1705.15,336.244 1690.97,322.46 1676.36,309.148 1661.35,296.32 1645.95,283.986 1630.18,272.157 
  1614.06,260.84 1597.61,250.046 1580.84,239.781 1563.77,230.053 1546.42,220.867 1528.82,212.228 1510.97,204.143 1492.89,196.613 1474.61,189.644 1456.14,183.237 
  1437.49,177.395 1418.69,172.119 1399.75,167.412 1380.69,163.273 1361.53,159.705 1342.27,156.707 1322.94,154.28 1303.56,152.424 1284.13,151.139 1264.67,150.425 
  1245.21,150.282 1225.74,150.71 1206.3,151.71 1186.89,153.281 1167.53,155.422 1148.24,158.135 1129.03,161.418 1109.91,165.271 1090.91,169.694 1072.04,174.686 
  1053.31,180.245 1034.75,186.37 1016.37,193.058 998.193,200.308 980.228,208.116 962.497,216.479 945.018,225.392 927.81,234.85 910.889,244.847 894.275,255.378 
  877.986,266.434 862.04,278.008 846.454,290.091 831.246,302.673 816.435,315.745 802.036,329.294 788.068,343.308 774.546,357.776 761.488,372.684 748.908,388.017 
  736.821,403.76 725.243,419.898 714.188,436.415 703.67,453.293 693.7,470.515 684.292,488.064 675.457,505.92 667.206,524.065 659.55,542.479 652.498,561.142 
  646.058,580.034 640.239,599.134 635.048,618.421 630.492,637.873 626.576,657.47 623.305,677.189 620.684,697.009 618.715,716.906 617.4,736.86 616.743,756.847 
  616.743,776.845 617.4,796.832 618.715,816.786 620.684,836.683 623.305,856.503 626.576,876.222 630.492,895.819 635.048,915.271 640.239,934.558 646.058,953.658 
  652.498,972.55 659.55,991.213 667.206,1009.63 675.457,1027.77 684.292,1045.63 693.7,1063.18 703.67,1080.4 714.188,1097.28 725.243,1113.79 736.821,1129.93 
  748.908,1145.68 761.488,1161.01 774.546,1175.92 788.068,1190.38 802.036,1204.4 816.435,1217.95 831.246,1231.02 846.454,1243.6 862.04,1255.68 877.986,1267.26 
  894.275,1278.31 910.889,1288.84 927.81,1298.84 945.018,1308.3 962.497,1317.21 980.228,1325.58 998.193,1333.38 1016.37,1340.63 1034.75,1347.32 1053.31,1353.45 
  1072.04,1359.01 1090.91,1364 1109.91,1368.42 1129.03,1372.27 1148.24,1375.56 1167.53,1378.27 1186.89,1380.41 1206.3,1381.98 1225.74,1382.98 1245.21,1383.41 
  1264.67,1383.27 1284.13,1382.55 1303.56,1381.27 1322.94,1379.41 1342.27,1376.98 1361.53,1373.99 1380.69,1370.42 1399.75,1366.28 1418.69,1361.57 1437.49,1356.3 
  1456.14,1350.46 1474.61,1344.05 1492.89,1337.08 1510.97,1329.55 1528.82,1321.46 1546.42,1312.83 1563.77,1303.64 1580.84,1293.91 1597.61,1283.65 1614.06,1272.85 
  1630.18,1261.54 1645.95,1249.71 1661.35,1237.37 1676.36,1224.54 1690.97,1211.23 1705.15,1197.45 1718.9,1183.21 1732.19,1168.52 1745.01,1153.39 1757.35,1137.85 
  1769.18,1121.91 1780.5,1105.58 1791.29,1088.88 1801.53,1071.83 1811.22,1054.44 1820.35,1036.74 1828.89,1018.73 1836.85,1000.45 1844.2,981.911 1850.95,963.131 
  1857.08,944.133 1862.58,924.937 1867.46,905.564 1871.7,886.037 1875.29,866.376 1878.24,846.604 1880.53,826.743 1882.17,806.815 1883.16,786.842 1883.49,766.846 
  
  "/>
<polyline clip-path="url(#clip272)" style="stroke:#3da44d; stroke-linecap:butt; stroke-linejoin:round; stroke-width:4; stroke-opacity:1; fill:none" points="
  1861.08,766.846 1860.75,747.558 1859.77,728.294 1858.15,709.075 1855.87,689.927 1852.96,670.871 1849.4,651.931 1845.2,633.128 1840.38,614.487 1834.93,596.028 
  1828.86,577.775 1822.19,559.748 1814.92,541.97 1807.06,524.461 1798.61,507.241 1789.6,490.331 1780.04,473.75 1769.93,457.518 1759.29,441.652 1748.14,426.171 
  1736.49,411.09 1724.36,396.428 1711.76,382.199 1698.71,368.417 1685.23,355.096 1671.33,342.25 1657.04,329.889 1642.38,318.024 1627.36,306.665 1612,295.82 
  1596.33,285.495 1580.36,275.697 1564.11,266.431 1547.61,257.699 1530.88,249.503 1513.93,241.843 1496.79,234.72 1479.47,228.13 1461.99,222.072 1444.38,216.54 
  1426.64,211.53 1408.79,207.035 1390.85,203.051 1372.84,199.569 1354.76,196.583 1336.62,194.088 1318.45,192.076 1300.24,190.544 1282.01,189.485 1263.76,188.898 
  1245.51,188.781 1227.26,189.133 1209.02,189.955 1190.8,191.25 1172.61,193.022 1154.45,195.275 1136.34,198.014 1118.29,201.247 1100.31,204.98 1082.42,209.218 
  1064.63,213.97 1046.95,219.24 1029.4,225.035 1012,231.358 994.764,238.215 977.717,245.606 960.874,253.534 944.255,261.998 927.881,270.998 911.773,280.53 
  895.949,290.592 880.431,301.177 865.24,312.281 850.394,323.894 835.913,336.008 821.819,348.613 808.128,361.698 794.86,375.251 782.033,389.258 769.664,403.706 
  757.77,418.579 746.367,433.862 735.472,449.538 725.098,465.589 715.26,481.998 705.971,498.746 697.243,515.813 689.09,533.18 681.521,550.827 674.546,568.732 
  668.176,586.875 662.418,605.233 657.28,623.786 652.77,642.511 648.893,661.385 645.654,680.386 643.057,699.491 641.107,718.677 639.805,737.922 639.154,757.201 
  639.154,776.491 639.805,795.77 641.107,815.015 643.057,834.201 645.654,853.306 648.893,872.307 652.77,891.181 657.28,909.906 662.418,928.459 668.176,946.817 
  674.546,964.96 681.521,982.865 689.09,1000.51 697.243,1017.88 705.971,1034.95 715.26,1051.69 725.098,1068.1 735.472,1084.15 746.367,1099.83 757.77,1115.11 
  769.664,1129.99 782.033,1144.43 794.86,1158.44 808.128,1171.99 821.819,1185.08 835.913,1197.68 850.394,1209.8 865.24,1221.41 880.431,1232.51 895.949,1243.1 
  911.773,1253.16 927.881,1262.69 944.255,1271.69 960.874,1280.16 977.717,1288.09 994.764,1295.48 1012,1302.33 1029.4,1308.66 1046.95,1314.45 1064.63,1319.72 
  1082.42,1324.47 1100.31,1328.71 1118.29,1332.44 1136.34,1335.68 1154.45,1338.42 1172.61,1340.67 1190.8,1342.44 1209.02,1343.74 1227.26,1344.56 1245.51,1344.91 
  1263.76,1344.79 1282.01,1344.21 1300.24,1343.15 1318.45,1341.62 1336.62,1339.6 1354.76,1337.11 1372.84,1334.12 1390.85,1330.64 1408.79,1326.66 1426.64,1322.16 
  1444.38,1317.15 1461.99,1311.62 1479.47,1305.56 1496.79,1298.97 1513.93,1291.85 1530.88,1284.19 1547.61,1275.99 1564.11,1267.26 1580.36,1257.99 1596.33,1248.2 
  1612,1237.87 1627.36,1227.03 1642.38,1215.67 1657.04,1203.8 1671.33,1191.44 1685.23,1178.6 1698.71,1165.28 1711.76,1151.49 1724.36,1137.26 1736.49,1122.6 
  1748.14,1107.52 1759.29,1092.04 1769.93,1076.17 1780.04,1059.94 1789.6,1043.36 1798.61,1026.45 1807.06,1009.23 1814.92,991.722 1822.19,973.944 1828.86,955.917 
  1834.93,937.664 1840.38,919.205 1845.2,900.564 1849.4,881.761 1852.96,862.821 1855.87,843.765 1858.15,824.616 1859.77,805.398 1860.75,786.134 1861.08,766.846 
  
  "/>
<polyline clip-path="url(#clip272)" style="stroke:#c271d2; stroke-linecap:butt; stroke-linejoin:round; stroke-width:4; stroke-opacity:1; fill:none" points="
  1831.93,766.846 1831.61,748.479 1830.64,730.136 1829.02,711.843 1826.76,693.624 1823.86,675.503 1820.32,657.506 1816.15,639.657 1811.35,621.979 1805.93,604.498 
  1799.9,587.237 1793.26,570.22 1786.03,553.471 1778.21,537.013 1769.82,520.87 1760.86,505.064 1751.35,489.617 1741.3,474.553 1730.73,459.892 1719.65,445.657 
  1708.08,431.869 1696.04,418.548 1683.53,405.715 1670.59,393.388 1657.23,381.588 1643.47,370.332 1629.33,359.638 1614.84,349.525 1600.02,340.008 1584.89,331.104 
  1569.47,322.827 1553.8,315.193 1537.89,308.215 1521.78,301.907 1505.49,296.282 1489.05,291.352 1472.49,287.13 1455.84,283.629 1439.12,280.863 1422.38,278.848 
  1405.63,277.604 1388.91,277.161 1372.25,277.564 1355.67,278.894 1339.2,281.317 1322.84,285.286 1306.39,293.434 
  "/>
<polyline clip-path="url(#clip272)" style="stroke:#c271d2; stroke-linecap:butt; stroke-linejoin:round; stroke-width:4; stroke-opacity:1; fill:none" points="
  1185.47,288.315 1169.14,283.054 1152.73,279.952 1136.2,278.106 1119.58,277.253 1102.88,277.28 1086.15,278.128 1069.4,279.76 1052.66,282.153 1035.97,285.288 
  1019.37,289.152 1002.86,293.729 986.494,299.008 970.29,304.976 954.278,311.621 938.484,318.929 922.936,326.886 907.659,335.478 892.678,344.691 878.018,354.508 
  863.7,364.914 849.75,375.89 836.187,387.421 823.033,399.487 810.308,412.069 798.031,425.149 786.221,438.706 774.894,452.72 764.068,467.171 753.758,482.036 
  743.978,497.294 734.743,512.923 726.065,528.901 717.957,545.205 710.43,561.811 703.494,578.697 697.159,595.839 691.433,613.213 686.323,630.795 681.838,648.562 
  677.982,666.488 674.761,684.55 672.179,702.722 670.24,720.982 668.945,739.303 668.298,757.661 668.298,776.031 668.945,794.389 670.24,812.71 672.179,830.969 
  674.761,849.142 677.982,867.204 681.838,885.13 686.323,902.897 691.433,920.479 697.159,937.853 703.494,954.995 710.43,971.881 717.957,988.487 726.065,1004.79 
  734.743,1020.77 743.978,1036.4 753.758,1051.66 764.068,1066.52 774.894,1080.97 786.221,1094.99 798.031,1108.54 810.308,1121.62 823.033,1134.21 836.187,1146.27 
  849.75,1157.8 863.7,1168.78 878.018,1179.18 892.678,1189 907.659,1198.21 922.936,1206.81 938.484,1214.76 954.278,1222.07 970.29,1228.72 986.494,1234.68 
  1002.86,1239.96 1019.37,1244.54 1035.97,1248.4 1052.66,1251.54 1069.4,1253.93 1086.15,1255.56 1102.88,1256.41 1119.58,1256.44 1136.2,1255.59 1152.73,1253.74 
  1169.14,1250.64 1185.47,1245.38 
  "/>
<polyline clip-path="url(#clip272)" style="stroke:#c271d2; stroke-linecap:butt; stroke-linejoin:round; stroke-width:4; stroke-opacity:1; fill:none" points="
  1306.39,1240.26 1322.84,1248.41 1339.2,1252.37 1355.67,1254.8 1372.25,1256.13 1388.91,1256.53 1405.63,1256.09 1422.38,1254.84 1439.12,1252.83 1455.84,1250.06 
  1472.49,1246.56 1489.05,1242.34 1505.49,1237.41 1521.78,1231.79 1537.89,1225.48 1553.8,1218.5 1569.47,1210.86 1584.89,1202.59 1600.02,1193.68 1614.84,1184.17 
  1629.33,1174.05 1643.47,1163.36 1657.23,1152.1 1670.59,1140.3 1683.53,1127.98 1696.04,1115.14 1708.08,1101.82 1719.65,1088.03 1730.73,1073.8 1741.3,1059.14 
  1751.35,1044.07 1760.86,1028.63 1769.82,1012.82 1778.21,996.679 1786.03,980.221 1793.26,963.472 1799.9,946.455 1805.93,929.194 1811.35,911.713 1816.15,894.035 
  1820.32,876.186 1823.86,858.189 1826.76,840.068 1829.02,821.849 1830.64,803.556 1831.61,785.213 1831.93,766.846 
  "/>
<polyline clip-path="url(#clip272)" style="stroke:#ac8d18; stroke-linecap:butt; stroke-linejoin:round; stroke-width:4; stroke-opacity:1; fill:none" points="
  1793.19,766.846 1792.86,749.702 1791.88,732.587 1790.25,715.527 1787.96,698.55 1785.03,681.685 1781.44,664.96 1777.22,648.403 1772.36,632.043 1766.86,615.909 
  1760.73,600.031 1753.98,584.439 1746.61,569.164 1738.63,554.238 1730.04,539.695 1720.85,525.568 1711.07,511.896 1700.69,498.717 1689.73,486.075 1678.19,474.02 
  1666.06,462.605 1653.33,451.899 1640,441.982 1626.03,432.962 1611.36,424.99 1595.88,418.296 1579.37,413.282 1561.27,410.817 1539.39,413.965 
  "/>
<polyline clip-path="url(#clip272)" style="stroke:#ac8d18; stroke-linecap:butt; stroke-linejoin:round; stroke-width:4; stroke-opacity:1; fill:none" points="
  949.008,411.227 929.567,411.638 912.37,415.543 896.416,421.464 881.361,428.834 867.05,437.352 853.403,446.836 840.378,457.159 827.953,468.228 816.117,479.971 
  804.865,492.326 794.198,505.242 784.118,518.673 774.63,532.577 765.74,546.917 757.453,561.656 749.776,576.76 742.714,592.198 736.274,607.936 730.461,623.946 
  725.28,640.197 720.736,656.659 716.833,673.303 713.575,690.102 710.965,707.026 709.005,724.048 707.698,741.139 707.044,758.272 707.044,775.419 707.698,792.553 
  709.005,809.644 710.965,826.666 713.575,843.59 716.833,860.389 720.736,877.033 725.28,893.495 730.461,909.746 736.274,925.756 742.714,941.494 749.776,956.932 
  757.453,972.036 765.74,986.775 774.63,1001.11 784.118,1015.02 794.198,1028.45 804.865,1041.37 816.117,1053.72 827.953,1065.46 840.378,1076.53 853.403,1086.86 
  867.05,1096.34 881.361,1104.86 896.416,1112.23 912.37,1118.15 929.567,1122.05 949.008,1122.46 
  "/>
<polyline clip-path="url(#clip272)" style="stroke:#ac8d18; stroke-linecap:butt; stroke-linejoin:round; stroke-width:4; stroke-opacity:1; fill:none" points="
  1539.39,1119.73 1561.27,1122.87 1579.37,1120.41 1595.88,1115.4 1611.36,1108.7 1626.03,1100.73 1640,1091.71 1653.33,1081.79 1666.06,1071.09 1678.19,1059.67 
  1689.73,1047.62 1700.69,1034.97 1711.07,1021.8 1720.85,1008.12 1730.04,993.997 1738.63,979.454 1746.61,964.528 1753.98,949.253 1760.73,933.661 1766.86,917.783 
  1772.36,901.649 1777.22,885.289 1781.44,868.732 1785.03,852.007 1787.96,835.142 1790.25,818.165 1791.88,801.105 1792.86,783.99 1793.19,766.846 
  "/>
<path clip-path="url(#clip270)" d="
M1865.74 406.258 L2279.25 406.258 L2279.25 95.2176 L1865.74 95.2176  Z
  " fill="#ffffff" fill-rule="evenodd" fill-opacity="1"/>
<polyline clip-path="url(#clip270)" style="stroke:#000000; stroke-linecap:butt; stroke-linejoin:round; stroke-width:4; stroke-opacity:1; fill:none" points="
  1865.74,406.258 2279.25,406.258 2279.25,95.2176 1865.74,95.2176 1865.74,406.258 
  "/>
<polyline clip-path="url(#clip270)" style="stroke:#009af9; stroke-linecap:butt; stroke-linejoin:round; stroke-width:4; stroke-opacity:1; fill:none" points="
  1890.25,147.058 2037.27,147.058 
  "/>
<path clip-path="url(#clip270)" d="M2075.17 151.305 Q2070.01 151.305 2068.02 152.486 Q2066.03 153.666 2066.03 156.514 Q2066.03 158.782 2067.51 160.125 Q2069.01 161.444 2071.58 161.444 Q2075.13 161.444 2077.26 158.944 Q2079.41 156.421 2079.41 152.254 L2079.41 151.305 L2075.17 151.305 M2083.67 149.546 L2083.67 164.338 L2079.41 164.338 L2079.41 160.402 Q2077.95 162.763 2075.77 163.898 Q2073.6 165.009 2070.45 165.009 Q2066.47 165.009 2064.11 162.787 Q2061.77 160.541 2061.77 156.791 Q2061.77 152.416 2064.69 150.194 Q2067.63 147.972 2073.44 147.972 L2079.41 147.972 L2079.41 147.555 Q2079.41 144.615 2077.46 143.018 Q2075.54 141.398 2072.05 141.398 Q2069.82 141.398 2067.72 141.93 Q2065.61 142.463 2063.67 143.527 L2063.67 139.592 Q2066.01 138.69 2068.2 138.25 Q2070.4 137.787 2072.49 137.787 Q2078.11 137.787 2080.89 140.703 Q2083.67 143.62 2083.67 149.546 Z" fill="#000000" fill-rule="evenodd" fill-opacity="1" /><path clip-path="url(#clip270)" d="M2108.07 142.81 L2137.74 142.81 L2137.74 146.699 L2108.07 146.699 L2108.07 142.81 M2108.07 152.254 L2137.74 152.254 L2137.74 156.189 L2108.07 156.189 L2108.07 152.254 Z" fill="#000000" fill-rule="evenodd" fill-opacity="1" /><path clip-path="url(#clip270)" d="M2172.9 132.856 Q2169.29 132.856 2167.46 136.421 Q2165.66 139.963 2165.66 147.092 Q2165.66 154.199 2167.46 157.764 Q2169.29 161.305 2172.9 161.305 Q2176.54 161.305 2178.34 157.764 Q2180.17 154.199 2180.17 147.092 Q2180.17 139.963 2178.34 136.421 Q2176.54 132.856 2172.9 132.856 M2172.9 129.153 Q2178.71 129.153 2181.77 133.759 Q2184.85 138.342 2184.85 147.092 Q2184.85 155.819 2181.77 160.426 Q2178.71 165.009 2172.9 165.009 Q2167.09 165.009 2164.01 160.426 Q2160.96 155.819 2160.96 147.092 Q2160.96 138.342 2164.01 133.759 Q2167.09 129.153 2172.9 129.153 Z" fill="#000000" fill-rule="evenodd" fill-opacity="1" /><path clip-path="url(#clip270)" d="M2193.06 158.458 L2197.95 158.458 L2197.95 164.338 L2193.06 164.338 L2193.06 158.458 Z" fill="#000000" fill-rule="evenodd" fill-opacity="1" /><path clip-path="url(#clip270)" d="M2218.13 132.856 Q2214.52 132.856 2212.69 136.421 Q2210.89 139.963 2210.89 147.092 Q2210.89 154.199 2212.69 157.764 Q2214.52 161.305 2218.13 161.305 Q2221.77 161.305 2223.57 157.764 Q2225.4 154.199 2225.4 147.092 Q2225.4 139.963 2223.57 136.421 Q2221.77 132.856 2218.13 132.856 M2218.13 129.153 Q2223.94 129.153 2227 133.759 Q2230.08 138.342 2230.08 147.092 Q2230.08 155.819 2227 160.426 Q2223.94 165.009 2218.13 165.009 Q2212.32 165.009 2209.25 160.426 Q2206.19 155.819 2206.19 147.092 Q2206.19 138.342 2209.25 133.759 Q2212.32 129.153 2218.13 129.153 Z" fill="#000000" fill-rule="evenodd" fill-opacity="1" /><polyline clip-path="url(#clip270)" style="stroke:#e26f46; stroke-linecap:butt; stroke-linejoin:round; stroke-width:4; stroke-opacity:1; fill:none" points="
  1890.25,198.898 2037.27,198.898 
  "/>
<path clip-path="url(#clip270)" d="M2075.17 203.145 Q2070.01 203.145 2068.02 204.326 Q2066.03 205.506 2066.03 208.354 Q2066.03 210.622 2067.51 211.965 Q2069.01 213.284 2071.58 213.284 Q2075.13 213.284 2077.26 210.784 Q2079.41 208.261 2079.41 204.094 L2079.41 203.145 L2075.17 203.145 M2083.67 201.386 L2083.67 216.178 L2079.41 216.178 L2079.41 212.242 Q2077.95 214.603 2075.77 215.738 Q2073.6 216.849 2070.45 216.849 Q2066.47 216.849 2064.11 214.627 Q2061.77 212.381 2061.77 208.631 Q2061.77 204.256 2064.69 202.034 Q2067.63 199.812 2073.44 199.812 L2079.41 199.812 L2079.41 199.395 Q2079.41 196.455 2077.46 194.858 Q2075.54 193.238 2072.05 193.238 Q2069.82 193.238 2067.72 193.77 Q2065.61 194.303 2063.67 195.367 L2063.67 191.432 Q2066.01 190.53 2068.2 190.09 Q2070.4 189.627 2072.49 189.627 Q2078.11 189.627 2080.89 192.543 Q2083.67 195.46 2083.67 201.386 Z" fill="#000000" fill-rule="evenodd" fill-opacity="1" /><path clip-path="url(#clip270)" d="M2108.07 194.65 L2137.74 194.65 L2137.74 198.539 L2108.07 198.539 L2108.07 194.65 M2108.07 204.094 L2137.74 204.094 L2137.74 208.029 L2108.07 208.029 L2108.07 204.094 Z" fill="#000000" fill-rule="evenodd" fill-opacity="1" /><path clip-path="url(#clip270)" d="M2172.9 184.696 Q2169.29 184.696 2167.46 188.261 Q2165.66 191.803 2165.66 198.932 Q2165.66 206.039 2167.46 209.604 Q2169.29 213.145 2172.9 213.145 Q2176.54 213.145 2178.34 209.604 Q2180.17 206.039 2180.17 198.932 Q2180.17 191.803 2178.34 188.261 Q2176.54 184.696 2172.9 184.696 M2172.9 180.993 Q2178.71 180.993 2181.77 185.599 Q2184.85 190.182 2184.85 198.932 Q2184.85 207.659 2181.77 212.266 Q2178.71 216.849 2172.9 216.849 Q2167.09 216.849 2164.01 212.266 Q2160.96 207.659 2160.96 198.932 Q2160.96 190.182 2164.01 185.599 Q2167.09 180.993 2172.9 180.993 Z" fill="#000000" fill-rule="evenodd" fill-opacity="1" /><path clip-path="url(#clip270)" d="M2193.06 210.298 L2197.95 210.298 L2197.95 216.178 L2193.06 216.178 L2193.06 210.298 Z" fill="#000000" fill-rule="evenodd" fill-opacity="1" /><path clip-path="url(#clip270)" d="M2208.18 181.618 L2226.54 181.618 L2226.54 185.553 L2212.46 185.553 L2212.46 194.025 Q2213.48 193.678 2214.5 193.516 Q2215.52 193.33 2216.54 193.33 Q2222.32 193.33 2225.7 196.502 Q2229.08 199.673 2229.08 205.09 Q2229.08 210.668 2225.61 213.77 Q2222.14 216.849 2215.82 216.849 Q2213.64 216.849 2211.37 216.478 Q2209.13 216.108 2206.72 215.367 L2206.72 210.668 Q2208.81 211.803 2211.03 212.358 Q2213.25 212.914 2215.73 212.914 Q2219.73 212.914 2222.07 210.807 Q2224.41 208.701 2224.41 205.09 Q2224.41 201.479 2222.07 199.372 Q2219.73 197.266 2215.73 197.266 Q2213.85 197.266 2211.98 197.682 Q2210.12 198.099 2208.18 198.979 L2208.18 181.618 Z" fill="#000000" fill-rule="evenodd" fill-opacity="1" /><polyline clip-path="url(#clip270)" style="stroke:#3da44d; stroke-linecap:butt; stroke-linejoin:round; stroke-width:4; stroke-opacity:1; fill:none" points="
  1890.25,250.738 2037.27,250.738 
  "/>
<path clip-path="url(#clip270)" d="M2075.17 254.985 Q2070.01 254.985 2068.02 256.166 Q2066.03 257.346 2066.03 260.194 Q2066.03 262.462 2067.51 263.805 Q2069.01 265.124 2071.58 265.124 Q2075.13 265.124 2077.26 262.624 Q2079.41 260.101 2079.41 255.934 L2079.41 254.985 L2075.17 254.985 M2083.67 253.226 L2083.67 268.018 L2079.41 268.018 L2079.41 264.082 Q2077.95 266.443 2075.77 267.578 Q2073.6 268.689 2070.45 268.689 Q2066.47 268.689 2064.11 266.467 Q2061.77 264.221 2061.77 260.471 Q2061.77 256.096 2064.69 253.874 Q2067.63 251.652 2073.44 251.652 L2079.41 251.652 L2079.41 251.235 Q2079.41 248.295 2077.46 246.698 Q2075.54 245.078 2072.05 245.078 Q2069.82 245.078 2067.72 245.61 Q2065.61 246.143 2063.67 247.207 L2063.67 243.272 Q2066.01 242.37 2068.2 241.93 Q2070.4 241.467 2072.49 241.467 Q2078.11 241.467 2080.89 244.383 Q2083.67 247.3 2083.67 253.226 Z" fill="#000000" fill-rule="evenodd" fill-opacity="1" /><path clip-path="url(#clip270)" d="M2108.07 246.49 L2137.74 246.49 L2137.74 250.379 L2108.07 250.379 L2108.07 246.49 M2108.07 255.934 L2137.74 255.934 L2137.74 259.869 L2108.07 259.869 L2108.07 255.934 Z" fill="#000000" fill-rule="evenodd" fill-opacity="1" /><path clip-path="url(#clip270)" d="M2172.9 236.536 Q2169.29 236.536 2167.46 240.101 Q2165.66 243.643 2165.66 250.772 Q2165.66 257.879 2167.46 261.444 Q2169.29 264.985 2172.9 264.985 Q2176.54 264.985 2178.34 261.444 Q2180.17 257.879 2180.17 250.772 Q2180.17 243.643 2178.34 240.101 Q2176.54 236.536 2172.9 236.536 M2172.9 232.833 Q2178.71 232.833 2181.77 237.439 Q2184.85 242.022 2184.85 250.772 Q2184.85 259.499 2181.77 264.106 Q2178.71 268.689 2172.9 268.689 Q2167.09 268.689 2164.01 264.106 Q2160.96 259.499 2160.96 250.772 Q2160.96 242.022 2164.01 237.439 Q2167.09 232.833 2172.9 232.833 Z" fill="#000000" fill-rule="evenodd" fill-opacity="1" /><path clip-path="url(#clip270)" d="M2193.06 262.138 L2197.95 262.138 L2197.95 268.018 L2193.06 268.018 L2193.06 262.138 Z" fill="#000000" fill-rule="evenodd" fill-opacity="1" /><path clip-path="url(#clip270)" d="M2218.71 248.874 Q2215.56 248.874 2213.71 251.027 Q2211.88 253.18 2211.88 256.93 Q2211.88 260.656 2213.71 262.832 Q2215.56 264.985 2218.71 264.985 Q2221.86 264.985 2223.69 262.832 Q2225.54 260.656 2225.54 256.93 Q2225.54 253.18 2223.69 251.027 Q2221.86 248.874 2218.71 248.874 M2228 234.221 L2228 238.481 Q2226.24 237.647 2224.43 237.208 Q2222.65 236.768 2220.89 236.768 Q2216.26 236.768 2213.81 239.893 Q2211.37 243.018 2211.03 249.337 Q2212.39 247.323 2214.45 246.258 Q2216.51 245.17 2218.99 245.17 Q2224.2 245.17 2227.21 248.342 Q2230.24 251.49 2230.24 256.93 Q2230.24 262.254 2227.09 265.471 Q2223.94 268.689 2218.71 268.689 Q2212.72 268.689 2209.55 264.106 Q2206.37 259.499 2206.37 250.772 Q2206.37 242.578 2210.26 237.717 Q2214.15 232.833 2220.7 232.833 Q2222.46 232.833 2224.25 233.18 Q2226.05 233.527 2228 234.221 Z" fill="#000000" fill-rule="evenodd" fill-opacity="1" /><polyline clip-path="url(#clip270)" style="stroke:#c271d2; stroke-linecap:butt; stroke-linejoin:round; stroke-width:4; stroke-opacity:1; fill:none" points="
  1890.25,302.578 2037.27,302.578 
  "/>
<path clip-path="url(#clip270)" d="M2075.17 306.825 Q2070.01 306.825 2068.02 308.006 Q2066.03 309.186 2066.03 312.034 Q2066.03 314.302 2067.51 315.645 Q2069.01 316.964 2071.58 316.964 Q2075.13 316.964 2077.26 314.464 Q2079.41 311.941 2079.41 307.774 L2079.41 306.825 L2075.17 306.825 M2083.67 305.066 L2083.67 319.858 L2079.41 319.858 L2079.41 315.922 Q2077.95 318.283 2075.77 319.418 Q2073.6 320.529 2070.45 320.529 Q2066.47 320.529 2064.11 318.307 Q2061.77 316.061 2061.77 312.311 Q2061.77 307.936 2064.69 305.714 Q2067.63 303.492 2073.44 303.492 L2079.41 303.492 L2079.41 303.075 Q2079.41 300.135 2077.46 298.538 Q2075.54 296.918 2072.05 296.918 Q2069.82 296.918 2067.72 297.45 Q2065.61 297.983 2063.67 299.047 L2063.67 295.112 Q2066.01 294.21 2068.2 293.77 Q2070.4 293.307 2072.49 293.307 Q2078.11 293.307 2080.89 296.223 Q2083.67 299.14 2083.67 305.066 Z" fill="#000000" fill-rule="evenodd" fill-opacity="1" /><path clip-path="url(#clip270)" d="M2108.07 298.33 L2137.74 298.33 L2137.74 302.219 L2108.07 302.219 L2108.07 298.33 M2108.07 307.774 L2137.74 307.774 L2137.74 311.709 L2108.07 311.709 L2108.07 307.774 Z" fill="#000000" fill-rule="evenodd" fill-opacity="1" /><path clip-path="url(#clip270)" d="M2172.9 288.376 Q2169.29 288.376 2167.46 291.941 Q2165.66 295.483 2165.66 302.612 Q2165.66 309.719 2167.46 313.284 Q2169.29 316.825 2172.9 316.825 Q2176.54 316.825 2178.34 313.284 Q2180.17 309.719 2180.17 302.612 Q2180.17 295.483 2178.34 291.941 Q2176.54 288.376 2172.9 288.376 M2172.9 284.673 Q2178.71 284.673 2181.77 289.279 Q2184.85 293.862 2184.85 302.612 Q2184.85 311.339 2181.77 315.946 Q2178.71 320.529 2172.9 320.529 Q2167.09 320.529 2164.01 315.946 Q2160.96 311.339 2160.96 302.612 Q2160.96 293.862 2164.01 289.279 Q2167.09 284.673 2172.9 284.673 Z" fill="#000000" fill-rule="evenodd" fill-opacity="1" /><path clip-path="url(#clip270)" d="M2193.06 313.978 L2197.95 313.978 L2197.95 319.858 L2193.06 319.858 L2193.06 313.978 Z" fill="#000000" fill-rule="evenodd" fill-opacity="1" /><path clip-path="url(#clip270)" d="M2206.95 285.298 L2229.18 285.298 L2229.18 287.288 L2216.63 319.858 L2211.75 319.858 L2223.55 289.233 L2206.95 289.233 L2206.95 285.298 Z" fill="#000000" fill-rule="evenodd" fill-opacity="1" /><polyline clip-path="url(#clip270)" style="stroke:#ac8d18; stroke-linecap:butt; stroke-linejoin:round; stroke-width:4; stroke-opacity:1; fill:none" points="
  1890.25,354.418 2037.27,354.418 
  "/>
<path clip-path="url(#clip270)" d="M2075.17 358.665 Q2070.01 358.665 2068.02 359.846 Q2066.03 361.026 2066.03 363.874 Q2066.03 366.142 2067.51 367.485 Q2069.01 368.804 2071.58 368.804 Q2075.13 368.804 2077.26 366.304 Q2079.41 363.781 2079.41 359.614 L2079.41 358.665 L2075.17 358.665 M2083.67 356.906 L2083.67 371.698 L2079.41 371.698 L2079.41 367.762 Q2077.95 370.123 2075.77 371.258 Q2073.6 372.369 2070.45 372.369 Q2066.47 372.369 2064.11 370.147 Q2061.77 367.901 2061.77 364.151 Q2061.77 359.776 2064.69 357.554 Q2067.63 355.332 2073.44 355.332 L2079.41 355.332 L2079.41 354.915 Q2079.41 351.975 2077.46 350.378 Q2075.54 348.758 2072.05 348.758 Q2069.82 348.758 2067.72 349.29 Q2065.61 349.823 2063.67 350.887 L2063.67 346.952 Q2066.01 346.05 2068.2 345.61 Q2070.4 345.147 2072.49 345.147 Q2078.11 345.147 2080.89 348.063 Q2083.67 350.98 2083.67 356.906 Z" fill="#000000" fill-rule="evenodd" fill-opacity="1" /><path clip-path="url(#clip270)" d="M2108.07 350.17 L2137.74 350.17 L2137.74 354.059 L2108.07 354.059 L2108.07 350.17 M2108.07 359.614 L2137.74 359.614 L2137.74 363.549 L2108.07 363.549 L2108.07 359.614 Z" fill="#000000" fill-rule="evenodd" fill-opacity="1" /><path clip-path="url(#clip270)" d="M2172.9 340.216 Q2169.29 340.216 2167.46 343.781 Q2165.66 347.323 2165.66 354.452 Q2165.66 361.559 2167.46 365.124 Q2169.29 368.665 2172.9 368.665 Q2176.54 368.665 2178.34 365.124 Q2180.17 361.559 2180.17 354.452 Q2180.17 347.323 2178.34 343.781 Q2176.54 340.216 2172.9 340.216 M2172.9 336.513 Q2178.71 336.513 2181.77 341.119 Q2184.85 345.702 2184.85 354.452 Q2184.85 363.179 2181.77 367.786 Q2178.71 372.369 2172.9 372.369 Q2167.09 372.369 2164.01 367.786 Q2160.96 363.179 2160.96 354.452 Q2160.96 345.702 2164.01 341.119 Q2167.09 336.513 2172.9 336.513 Z" fill="#000000" fill-rule="evenodd" fill-opacity="1" /><path clip-path="url(#clip270)" d="M2193.06 365.818 L2197.95 365.818 L2197.95 371.698 L2193.06 371.698 L2193.06 365.818 Z" fill="#000000" fill-rule="evenodd" fill-opacity="1" /><path clip-path="url(#clip270)" d="M2218.13 355.286 Q2214.8 355.286 2212.88 357.068 Q2210.98 358.85 2210.98 361.975 Q2210.98 365.1 2212.88 366.883 Q2214.8 368.665 2218.13 368.665 Q2221.47 368.665 2223.39 366.883 Q2225.31 365.077 2225.31 361.975 Q2225.31 358.85 2223.39 357.068 Q2221.49 355.286 2218.13 355.286 M2213.46 353.295 Q2210.45 352.554 2208.76 350.494 Q2207.09 348.434 2207.09 345.471 Q2207.09 341.327 2210.03 338.92 Q2213 336.513 2218.13 336.513 Q2223.3 336.513 2226.24 338.92 Q2229.18 341.327 2229.18 345.471 Q2229.18 348.434 2227.49 350.494 Q2225.82 352.554 2222.83 353.295 Q2226.21 354.082 2228.09 356.374 Q2229.99 358.665 2229.99 361.975 Q2229.99 366.999 2226.91 369.684 Q2223.85 372.369 2218.13 372.369 Q2212.42 372.369 2209.34 369.684 Q2206.28 366.999 2206.28 361.975 Q2206.28 358.665 2208.18 356.374 Q2210.08 354.082 2213.46 353.295 M2211.75 345.911 Q2211.75 348.596 2213.41 350.1 Q2215.1 351.605 2218.13 351.605 Q2221.14 351.605 2222.83 350.1 Q2224.55 348.596 2224.55 345.911 Q2224.55 343.225 2222.83 341.721 Q2221.14 340.216 2218.13 340.216 Q2215.1 340.216 2213.41 341.721 Q2211.75 343.225 2211.75 345.911 Z" fill="#000000" fill-rule="evenodd" fill-opacity="1" /></svg>
