<?xml version="1.0" encoding="utf-8"?>
<svg xmlns="http://www.w3.org/2000/svg" xmlns:xlink="http://www.w3.org/1999/xlink" width="600" height="400" viewBox="0 0 2400 1600">
<defs>
  <clipPath id="clip820">
    <rect x="0" y="0" width="2400" height="1600"/>
  </clipPath>
</defs>
<path clip-path="url(#clip820)" d="M0 1600 L2400 1600 L2400 0 L0 0  Z" fill="#ffffff" fill-rule="evenodd" fill-opacity="1"/>
<defs>
  <clipPath id="clip821">
    <rect x="480" y="0" width="1681" height="1600"/>
  </clipPath>
</defs>
<path clip-path="url(#clip820)" d="M216.922 1486.45 L2352.76 1486.45 L2352.76 47.2441 L216.922 47.2441  Z" fill="#ffffff" fill-rule="evenodd" fill-opacity="1"/>
<defs>
  <clipPath id="clip822">
    <rect x="216" y="47" width="2137" height="1440"/>
  </clipPath>
</defs>
<polyline clip-path="url(#clip822)" style="stroke:#000000; stroke-linecap:round; stroke-linejoin:round; stroke-width:2; stroke-opacity:0.1; fill:none" points="277.37,1486.45 277.37,47.2441 "/>
<polyline clip-path="url(#clip822)" style="stroke:#000000; stroke-linecap:round; stroke-linejoin:round; stroke-width:2; stroke-opacity:0.1; fill:none" points="697.149,1486.45 697.149,47.2441 "/>
<polyline clip-path="url(#clip822)" style="stroke:#000000; stroke-linecap:round; stroke-linejoin:round; stroke-width:2; stroke-opacity:0.1; fill:none" points="1116.93,1486.45 1116.93,47.2441 "/>
<polyline clip-path="url(#clip822)" style="stroke:#000000; stroke-linecap:round; stroke-linejoin:round; stroke-width:2; stroke-opacity:0.1; fill:none" points="1536.71,1486.45 1536.71,47.2441 "/>
<polyline clip-path="url(#clip822)" style="stroke:#000000; stroke-linecap:round; stroke-linejoin:round; stroke-width:2; stroke-opacity:0.1; fill:none" points="1956.48,1486.45 1956.48,47.2441 "/>
<polyline clip-path="url(#clip820)" style="stroke:#000000; stroke-linecap:round; stroke-linejoin:round; stroke-width:4; stroke-opacity:1; fill:none" points="216.922,1486.45 2352.76,1486.45 "/>
<polyline clip-path="url(#clip820)" style="stroke:#000000; stroke-linecap:round; stroke-linejoin:round; stroke-width:4; stroke-opacity:1; fill:none" points="277.37,1486.45 277.37,1467.55 "/>
<polyline clip-path="url(#clip820)" style="stroke:#000000; stroke-linecap:round; stroke-linejoin:round; stroke-width:4; stroke-opacity:1; fill:none" points="697.149,1486.45 697.149,1467.55 "/>
<polyline clip-path="url(#clip820)" style="stroke:#000000; stroke-linecap:round; stroke-linejoin:round; stroke-width:4; stroke-opacity:1; fill:none" points="1116.93,1486.45 1116.93,1467.55 "/>
<polyline clip-path="url(#clip820)" style="stroke:#000000; stroke-linecap:round; stroke-linejoin:round; stroke-width:4; stroke-opacity:1; fill:none" points="1536.71,1486.45 1536.71,1467.55 "/>
<polyline clip-path="url(#clip820)" style="stroke:#000000; stroke-linecap:round; stroke-linejoin:round; stroke-width:4; stroke-opacity:1; fill:none" points="1956.48,1486.45 1956.48,1467.55 "/>
<path clip-path="url(#clip820)" d="M239.674 1517.37 Q236.062 1517.37 234.234 1520.93 Q232.428 1524.47 232.428 1531.6 Q232.428 1538.71 234.234 1542.27 Q236.062 1545.82 239.674 1545.82 Q243.308 1545.82 245.113 1542.27 Q246.942 1538.71 246.942 1531.6 Q246.942 1524.47 245.113 1520.93 Q243.308 1517.37 239.674 1517.37 M239.674 1513.66 Q245.484 1513.66 248.539 1518.27 Q251.618 1522.85 251.618 1531.6 Q251.618 1540.33 248.539 1544.94 Q245.484 1549.52 239.674 1549.52 Q233.863 1549.52 230.785 1544.94 Q227.729 1540.33 227.729 1531.6 Q227.729 1522.85 230.785 1518.27 Q233.863 1513.66 239.674 1513.66 Z" fill="#000000" fill-rule="nonzero" fill-opacity="1" /><path clip-path="url(#clip820)" d="M259.835 1542.97 L264.72 1542.97 L264.72 1548.85 L259.835 1548.85 L259.835 1542.97 Z" fill="#000000" fill-rule="nonzero" fill-opacity="1" /><path clip-path="url(#clip820)" d="M284.905 1517.37 Q281.294 1517.37 279.465 1520.93 Q277.659 1524.47 277.659 1531.6 Q277.659 1538.71 279.465 1542.27 Q281.294 1545.82 284.905 1545.82 Q288.539 1545.82 290.345 1542.27 Q292.173 1538.71 292.173 1531.6 Q292.173 1524.47 290.345 1520.93 Q288.539 1517.37 284.905 1517.37 M284.905 1513.66 Q290.715 1513.66 293.77 1518.27 Q296.849 1522.85 296.849 1531.6 Q296.849 1540.33 293.77 1544.94 Q290.715 1549.52 284.905 1549.52 Q279.095 1549.52 276.016 1544.94 Q272.96 1540.33 272.96 1531.6 Q272.96 1522.85 276.016 1518.27 Q279.095 1513.66 284.905 1513.66 Z" fill="#000000" fill-rule="nonzero" fill-opacity="1" /><path clip-path="url(#clip820)" d="M315.067 1517.37 Q311.456 1517.37 309.627 1520.93 Q307.821 1524.47 307.821 1531.6 Q307.821 1538.71 309.627 1542.27 Q311.456 1545.82 315.067 1545.82 Q318.701 1545.82 320.506 1542.27 Q322.335 1538.71 322.335 1531.6 Q322.335 1524.47 320.506 1520.93 Q318.701 1517.37 315.067 1517.37 M315.067 1513.66 Q320.877 1513.66 323.932 1518.27 Q327.011 1522.85 327.011 1531.6 Q327.011 1540.33 323.932 1544.94 Q320.877 1549.52 315.067 1549.52 Q309.257 1549.52 306.178 1544.94 Q303.122 1540.33 303.122 1531.6 Q303.122 1522.85 306.178 1518.27 Q309.257 1513.66 315.067 1513.66 Z" fill="#000000" fill-rule="nonzero" fill-opacity="1" /><path clip-path="url(#clip820)" d="M659.95 1517.37 Q656.339 1517.37 654.51 1520.93 Q652.705 1524.47 652.705 1531.6 Q652.705 1538.71 654.51 1542.27 Q656.339 1545.82 659.95 1545.82 Q663.584 1545.82 665.39 1542.27 Q667.218 1538.71 667.218 1531.6 Q667.218 1524.47 665.39 1520.93 Q663.584 1517.37 659.95 1517.37 M659.95 1513.66 Q665.76 1513.66 668.816 1518.27 Q671.894 1522.85 671.894 1531.6 Q671.894 1540.33 668.816 1544.94 Q665.76 1549.52 659.95 1549.52 Q654.14 1549.52 651.061 1544.94 Q648.006 1540.33 648.006 1531.6 Q648.006 1522.85 651.061 1518.27 Q654.14 1513.66 659.95 1513.66 Z" fill="#000000" fill-rule="nonzero" fill-opacity="1" /><path clip-path="url(#clip820)" d="M680.112 1542.97 L684.996 1542.97 L684.996 1548.85 L680.112 1548.85 L680.112 1542.97 Z" fill="#000000" fill-rule="nonzero" fill-opacity="1" /><path clip-path="url(#clip820)" d="M699.209 1544.91 L715.528 1544.91 L715.528 1548.85 L693.584 1548.85 L693.584 1544.91 Q696.246 1542.16 700.829 1537.53 Q705.436 1532.88 706.616 1531.53 Q708.862 1529.01 709.741 1527.27 Q710.644 1525.51 710.644 1523.82 Q710.644 1521.07 708.7 1519.33 Q706.778 1517.6 703.677 1517.6 Q701.477 1517.6 699.024 1518.36 Q696.593 1519.13 693.815 1520.68 L693.815 1515.95 Q696.64 1514.82 699.093 1514.24 Q701.547 1513.66 703.584 1513.66 Q708.954 1513.66 712.149 1516.35 Q715.343 1519.03 715.343 1523.52 Q715.343 1525.65 714.533 1527.57 Q713.746 1529.47 711.639 1532.07 Q711.061 1532.74 707.959 1535.95 Q704.857 1539.15 699.209 1544.91 Z" fill="#000000" fill-rule="nonzero" fill-opacity="1" /><path clip-path="url(#clip820)" d="M725.389 1514.29 L743.746 1514.29 L743.746 1518.22 L729.672 1518.22 L729.672 1526.7 Q730.69 1526.35 731.709 1526.19 Q732.727 1526 733.746 1526 Q739.533 1526 742.912 1529.17 Q746.292 1532.34 746.292 1537.76 Q746.292 1543.34 742.82 1546.44 Q739.348 1549.52 733.028 1549.52 Q730.852 1549.52 728.584 1549.15 Q726.338 1548.78 723.931 1548.04 L723.931 1543.34 Q726.014 1544.47 728.237 1545.03 Q730.459 1545.58 732.936 1545.58 Q736.94 1545.58 739.278 1543.48 Q741.616 1541.37 741.616 1537.76 Q741.616 1534.15 739.278 1532.04 Q736.94 1529.94 732.936 1529.94 Q731.061 1529.94 729.186 1530.35 Q727.334 1530.77 725.389 1531.65 L725.389 1514.29 Z" fill="#000000" fill-rule="nonzero" fill-opacity="1" /><path clip-path="url(#clip820)" d="M1079.23 1517.37 Q1075.62 1517.37 1073.79 1520.93 Q1071.99 1524.47 1071.99 1531.6 Q1071.99 1538.71 1073.79 1542.27 Q1075.62 1545.82 1079.23 1545.82 Q1082.87 1545.82 1084.67 1542.27 Q1086.5 1538.71 1086.5 1531.6 Q1086.5 1524.47 1084.67 1520.93 Q1082.87 1517.37 1079.23 1517.37 M1079.23 1513.66 Q1085.04 1513.66 1088.1 1518.27 Q1091.18 1522.85 1091.18 1531.6 Q1091.18 1540.33 1088.1 1544.94 Q1085.04 1549.52 1079.23 1549.52 Q1073.42 1549.52 1070.34 1544.94 Q1067.29 1540.33 1067.29 1531.6 Q1067.29 1522.85 1070.34 1518.27 Q1073.42 1513.66 1079.23 1513.66 Z" fill="#000000" fill-rule="nonzero" fill-opacity="1" /><path clip-path="url(#clip820)" d="M1099.39 1542.97 L1104.28 1542.97 L1104.28 1548.85 L1099.39 1548.85 L1099.39 1542.97 Z" fill="#000000" fill-rule="nonzero" fill-opacity="1" /><path clip-path="url(#clip820)" d="M1114.51 1514.29 L1132.86 1514.29 L1132.86 1518.22 L1118.79 1518.22 L1118.79 1526.7 Q1119.81 1526.35 1120.83 1526.19 Q1121.85 1526 1122.86 1526 Q1128.65 1526 1132.03 1529.17 Q1135.41 1532.34 1135.41 1537.76 Q1135.41 1543.34 1131.94 1546.44 Q1128.47 1549.52 1122.15 1549.52 Q1119.97 1549.52 1117.7 1549.15 Q1115.46 1548.78 1113.05 1548.04 L1113.05 1543.34 Q1115.13 1544.47 1117.36 1545.03 Q1119.58 1545.58 1122.05 1545.58 Q1126.06 1545.58 1128.4 1543.48 Q1130.74 1541.37 1130.74 1537.76 Q1130.74 1534.15 1128.4 1532.04 Q1126.06 1529.94 1122.05 1529.94 Q1120.18 1529.94 1118.3 1530.35 Q1116.45 1530.77 1114.51 1531.65 L1114.51 1514.29 Z" fill="#000000" fill-rule="nonzero" fill-opacity="1" /><path clip-path="url(#clip820)" d="M1154.62 1517.37 Q1151.01 1517.37 1149.18 1520.93 Q1147.38 1524.47 1147.38 1531.6 Q1147.38 1538.71 1149.18 1542.27 Q1151.01 1545.82 1154.62 1545.82 Q1158.26 1545.82 1160.06 1542.27 Q1161.89 1538.71 1161.89 1531.6 Q1161.89 1524.47 1160.06 1520.93 Q1158.26 1517.37 1154.62 1517.37 M1154.62 1513.66 Q1160.43 1513.66 1163.49 1518.27 Q1166.57 1522.85 1166.57 1531.6 Q1166.57 1540.33 1163.49 1544.94 Q1160.43 1549.52 1154.62 1549.52 Q1148.81 1549.52 1145.74 1544.94 Q1142.68 1540.33 1142.68 1531.6 Q1142.68 1522.85 1145.74 1518.27 Q1148.81 1513.66 1154.62 1513.66 Z" fill="#000000" fill-rule="nonzero" fill-opacity="1" /><path clip-path="url(#clip820)" d="M1499.51 1517.37 Q1495.9 1517.37 1494.07 1520.93 Q1492.26 1524.47 1492.26 1531.6 Q1492.26 1538.71 1494.07 1542.27 Q1495.9 1545.82 1499.51 1545.82 Q1503.14 1545.82 1504.95 1542.27 Q1506.78 1538.71 1506.78 1531.6 Q1506.78 1524.47 1504.95 1520.93 Q1503.14 1517.37 1499.51 1517.37 M1499.51 1513.66 Q1505.32 1513.66 1508.37 1518.27 Q1511.45 1522.85 1511.45 1531.6 Q1511.45 1540.33 1508.37 1544.94 Q1505.32 1549.52 1499.51 1549.52 Q1493.7 1549.52 1490.62 1544.94 Q1487.56 1540.33 1487.56 1531.6 Q1487.56 1522.85 1490.62 1518.27 Q1493.7 1513.66 1499.51 1513.66 Z" fill="#000000" fill-rule="nonzero" fill-opacity="1" /><path clip-path="url(#clip820)" d="M1519.67 1542.97 L1524.55 1542.97 L1524.55 1548.85 L1519.67 1548.85 L1519.67 1542.97 Z" fill="#000000" fill-rule="nonzero" fill-opacity="1" /><path clip-path="url(#clip820)" d="M1533.56 1514.29 L1555.78 1514.29 L1555.78 1516.28 L1543.23 1548.85 L1538.35 1548.85 L1550.16 1518.22 L1533.56 1518.22 L1533.56 1514.29 Z" fill="#000000" fill-rule="nonzero" fill-opacity="1" /><path clip-path="url(#clip820)" d="M1564.95 1514.29 L1583.3 1514.29 L1583.3 1518.22 L1569.23 1518.22 L1569.23 1526.7 Q1570.25 1526.35 1571.27 1526.19 Q1572.28 1526 1573.3 1526 Q1579.09 1526 1582.47 1529.17 Q1585.85 1532.34 1585.85 1537.76 Q1585.85 1543.34 1582.38 1546.44 Q1578.91 1549.52 1572.59 1549.52 Q1570.41 1549.52 1568.14 1549.15 Q1565.9 1548.78 1563.49 1548.04 L1563.49 1543.34 Q1565.57 1544.47 1567.79 1545.03 Q1570.02 1545.58 1572.49 1545.58 Q1576.5 1545.58 1578.84 1543.48 Q1581.17 1541.37 1581.17 1537.76 Q1581.17 1534.15 1578.84 1532.04 Q1576.5 1529.94 1572.49 1529.94 Q1570.62 1529.94 1568.74 1530.35 Q1566.89 1530.77 1564.95 1531.65 L1564.95 1514.29 Z" fill="#000000" fill-rule="nonzero" fill-opacity="1" /><path clip-path="url(#clip820)" d="M1908.56 1544.91 L1916.2 1544.91 L1916.2 1518.55 L1907.89 1520.21 L1907.89 1515.95 L1916.15 1514.29 L1920.83 1514.29 L1920.83 1544.91 L1928.46 1544.91 L1928.46 1548.85 L1908.56 1548.85 L1908.56 1544.91 Z" fill="#000000" fill-rule="nonzero" fill-opacity="1" /><path clip-path="url(#clip820)" d="M1937.91 1542.97 L1942.79 1542.97 L1942.79 1548.85 L1937.91 1548.85 L1937.91 1542.97 Z" fill="#000000" fill-rule="nonzero" fill-opacity="1" /><path clip-path="url(#clip820)" d="M1962.98 1517.37 Q1959.37 1517.37 1957.54 1520.93 Q1955.73 1524.47 1955.73 1531.6 Q1955.73 1538.71 1957.54 1542.27 Q1959.37 1545.82 1962.98 1545.82 Q1966.61 1545.82 1968.42 1542.27 Q1970.25 1538.71 1970.25 1531.6 Q1970.25 1524.47 1968.42 1520.93 Q1966.61 1517.37 1962.98 1517.37 M1962.98 1513.66 Q1968.79 1513.66 1971.84 1518.27 Q1974.92 1522.85 1974.92 1531.6 Q1974.92 1540.33 1971.84 1544.94 Q1968.79 1549.52 1962.98 1549.52 Q1957.17 1549.52 1954.09 1544.94 Q1951.03 1540.33 1951.03 1531.6 Q1951.03 1522.85 1954.09 1518.27 Q1957.17 1513.66 1962.98 1513.66 Z" fill="#000000" fill-rule="nonzero" fill-opacity="1" /><path clip-path="url(#clip820)" d="M1993.14 1517.37 Q1989.53 1517.37 1987.7 1520.93 Q1985.89 1524.47 1985.89 1531.6 Q1985.89 1538.71 1987.7 1542.27 Q1989.53 1545.82 1993.14 1545.82 Q1996.77 1545.82 1998.58 1542.27 Q2000.41 1538.71 2000.41 1531.6 Q2000.41 1524.47 1998.58 1520.93 Q1996.77 1517.37 1993.14 1517.37 M1993.14 1513.66 Q1998.95 1513.66 2002.01 1518.27 Q2005.08 1522.85 2005.08 1531.6 Q2005.08 1540.33 2002.01 1544.94 Q1998.95 1549.52 1993.14 1549.52 Q1987.33 1549.52 1984.25 1544.94 Q1981.2 1540.33 1981.2 1531.6 Q1981.2 1522.85 1984.25 1518.27 Q1987.33 1513.66 1993.14 1513.66 Z" fill="#000000" fill-rule="nonzero" fill-opacity="1" /><polyline clip-path="url(#clip822)" style="stroke:#000000; stroke-linecap:round; stroke-linejoin:round; stroke-width:2; stroke-opacity:0.1; fill:none" points="216.922,1445.72 2352.76,1445.72 "/>
<polyline clip-path="url(#clip822)" style="stroke:#000000; stroke-linecap:round; stroke-linejoin:round; stroke-width:2; stroke-opacity:0.1; fill:none" points="216.922,1098.55 2352.76,1098.55 "/>
<polyline clip-path="url(#clip822)" style="stroke:#000000; stroke-linecap:round; stroke-linejoin:round; stroke-width:2; stroke-opacity:0.1; fill:none" points="216.922,751.392 2352.76,751.392 "/>
<polyline clip-path="url(#clip822)" style="stroke:#000000; stroke-linecap:round; stroke-linejoin:round; stroke-width:2; stroke-opacity:0.1; fill:none" points="216.922,404.23 2352.76,404.23 "/>
<polyline clip-path="url(#clip822)" style="stroke:#000000; stroke-linecap:round; stroke-linejoin:round; stroke-width:2; stroke-opacity:0.1; fill:none" points="216.922,57.0676 2352.76,57.0676 "/>
<polyline clip-path="url(#clip820)" style="stroke:#000000; stroke-linecap:round; stroke-linejoin:round; stroke-width:4; stroke-opacity:1; fill:none" points="216.922,1486.45 216.922,47.2441 "/>
<polyline clip-path="url(#clip820)" style="stroke:#000000; stroke-linecap:round; stroke-linejoin:round; stroke-width:4; stroke-opacity:1; fill:none" points="216.922,1445.72 235.82,1445.72 "/>
<polyline clip-path="url(#clip820)" style="stroke:#000000; stroke-linecap:round; stroke-linejoin:round; stroke-width:4; stroke-opacity:1; fill:none" points="216.922,1098.55 235.82,1098.55 "/>
<polyline clip-path="url(#clip820)" style="stroke:#000000; stroke-linecap:round; stroke-linejoin:round; stroke-width:4; stroke-opacity:1; fill:none" points="216.922,751.392 235.82,751.392 "/>
<polyline clip-path="url(#clip820)" style="stroke:#000000; stroke-linecap:round; stroke-linejoin:round; stroke-width:4; stroke-opacity:1; fill:none" points="216.922,404.23 235.82,404.23 "/>
<polyline clip-path="url(#clip820)" style="stroke:#000000; stroke-linecap:round; stroke-linejoin:round; stroke-width:4; stroke-opacity:1; fill:none" points="216.922,57.0676 235.82,57.0676 "/>
<path clip-path="url(#clip820)" d="M63.4226 1431.51 Q59.8115 1431.51 57.9828 1435.08 Q56.1773 1438.62 56.1773 1445.75 Q56.1773 1452.86 57.9828 1456.42 Q59.8115 1459.96 63.4226 1459.96 Q67.0569 1459.96 68.8624 1456.42 Q70.6911 1452.86 70.6911 1445.75 Q70.6911 1438.62 68.8624 1435.08 Q67.0569 1431.51 63.4226 1431.51 M63.4226 1427.81 Q69.2328 1427.81 72.2883 1432.42 Q75.367 1437 75.367 1445.75 Q75.367 1454.48 72.2883 1459.08 Q69.2328 1463.67 63.4226 1463.67 Q57.6125 1463.67 54.5338 1459.08 Q51.4782 1454.48 51.4782 1445.75 Q51.4782 1437 54.5338 1432.42 Q57.6125 1427.81 63.4226 1427.81 Z" fill="#000000" fill-rule="nonzero" fill-opacity="1" /><path clip-path="url(#clip820)" d="M83.5845 1457.12 L88.4688 1457.12 L88.4688 1463 L83.5845 1463 L83.5845 1457.12 Z" fill="#000000" fill-rule="nonzero" fill-opacity="1" /><path clip-path="url(#clip820)" d="M108.654 1431.51 Q105.043 1431.51 103.214 1435.08 Q101.409 1438.62 101.409 1445.75 Q101.409 1452.86 103.214 1456.42 Q105.043 1459.96 108.654 1459.96 Q112.288 1459.96 114.094 1456.42 Q115.922 1452.86 115.922 1445.75 Q115.922 1438.62 114.094 1435.08 Q112.288 1431.51 108.654 1431.51 M108.654 1427.81 Q114.464 1427.81 117.52 1432.42 Q120.598 1437 120.598 1445.75 Q120.598 1454.48 117.52 1459.08 Q114.464 1463.67 108.654 1463.67 Q102.844 1463.67 99.765 1459.08 Q96.7095 1454.48 96.7095 1445.75 Q96.7095 1437 99.765 1432.42 Q102.844 1427.81 108.654 1427.81 Z" fill="#000000" fill-rule="nonzero" fill-opacity="1" /><path clip-path="url(#clip820)" d="M138.816 1431.51 Q135.205 1431.51 133.376 1435.08 Q131.57 1438.62 131.57 1445.75 Q131.57 1452.86 133.376 1456.42 Q135.205 1459.96 138.816 1459.96 Q142.45 1459.96 144.256 1456.42 Q146.084 1452.86 146.084 1445.75 Q146.084 1438.62 144.256 1435.08 Q142.45 1431.51 138.816 1431.51 M138.816 1427.81 Q144.626 1427.81 147.681 1432.42 Q150.76 1437 150.76 1445.75 Q150.76 1454.48 147.681 1459.08 Q144.626 1463.67 138.816 1463.67 Q133.006 1463.67 129.927 1459.08 Q126.871 1454.48 126.871 1445.75 Q126.871 1437 129.927 1432.42 Q133.006 1427.81 138.816 1427.81 Z" fill="#000000" fill-rule="nonzero" fill-opacity="1" /><path clip-path="url(#clip820)" d="M168.978 1431.51 Q165.367 1431.51 163.538 1435.08 Q161.732 1438.62 161.732 1445.75 Q161.732 1452.86 163.538 1456.42 Q165.367 1459.96 168.978 1459.96 Q172.612 1459.96 174.417 1456.42 Q176.246 1452.86 176.246 1445.75 Q176.246 1438.62 174.417 1435.08 Q172.612 1431.51 168.978 1431.51 M168.978 1427.81 Q174.788 1427.81 177.843 1432.42 Q180.922 1437 180.922 1445.75 Q180.922 1454.48 177.843 1459.08 Q174.788 1463.67 168.978 1463.67 Q163.167 1463.67 160.089 1459.08 Q157.033 1454.48 157.033 1445.75 Q157.033 1437 160.089 1432.42 Q163.167 1427.81 168.978 1427.81 Z" fill="#000000" fill-rule="nonzero" fill-opacity="1" /><path clip-path="url(#clip820)" d="M65.0198 1084.35 Q61.4087 1084.35 59.58 1087.92 Q57.7745 1091.46 57.7745 1098.59 Q57.7745 1105.69 59.58 1109.26 Q61.4087 1112.8 65.0198 1112.8 Q68.6541 1112.8 70.4596 1109.26 Q72.2883 1105.69 72.2883 1098.59 Q72.2883 1091.46 70.4596 1087.92 Q68.6541 1084.35 65.0198 1084.35 M65.0198 1080.65 Q70.83 1080.65 73.8855 1085.26 Q76.9642 1089.84 76.9642 1098.59 Q76.9642 1107.32 73.8855 1111.92 Q70.83 1116.5 65.0198 1116.5 Q59.2097 1116.5 56.131 1111.92 Q53.0754 1107.32 53.0754 1098.59 Q53.0754 1089.84 56.131 1085.26 Q59.2097 1080.65 65.0198 1080.65 Z" fill="#000000" fill-rule="nonzero" fill-opacity="1" /><path clip-path="url(#clip820)" d="M85.1818 1109.95 L90.066 1109.95 L90.066 1115.83 L85.1818 1115.83 L85.1818 1109.95 Z" fill="#000000" fill-rule="nonzero" fill-opacity="1" /><path clip-path="url(#clip820)" d="M110.251 1084.35 Q106.64 1084.35 104.811 1087.92 Q103.006 1091.46 103.006 1098.59 Q103.006 1105.69 104.811 1109.26 Q106.64 1112.8 110.251 1112.8 Q113.885 1112.8 115.691 1109.26 Q117.52 1105.69 117.52 1098.59 Q117.52 1091.46 115.691 1087.92 Q113.885 1084.35 110.251 1084.35 M110.251 1080.65 Q116.061 1080.65 119.117 1085.26 Q122.195 1089.84 122.195 1098.59 Q122.195 1107.32 119.117 1111.92 Q116.061 1116.5 110.251 1116.5 Q104.441 1116.5 101.362 1111.92 Q98.3067 1107.32 98.3067 1098.59 Q98.3067 1089.84 101.362 1085.26 Q104.441 1080.65 110.251 1080.65 Z" fill="#000000" fill-rule="nonzero" fill-opacity="1" /><path clip-path="url(#clip820)" d="M140.413 1084.35 Q136.802 1084.35 134.973 1087.92 Q133.168 1091.46 133.168 1098.59 Q133.168 1105.69 134.973 1109.26 Q136.802 1112.8 140.413 1112.8 Q144.047 1112.8 145.853 1109.26 Q147.681 1105.69 147.681 1098.59 Q147.681 1091.46 145.853 1087.92 Q144.047 1084.35 140.413 1084.35 M140.413 1080.65 Q146.223 1080.65 149.279 1085.26 Q152.357 1089.84 152.357 1098.59 Q152.357 1107.32 149.279 1111.92 Q146.223 1116.5 140.413 1116.5 Q134.603 1116.5 131.524 1111.92 Q128.469 1107.32 128.469 1098.59 Q128.469 1089.84 131.524 1085.26 Q134.603 1080.65 140.413 1080.65 Z" fill="#000000" fill-rule="nonzero" fill-opacity="1" /><path clip-path="url(#clip820)" d="M164.603 1111.9 L180.922 1111.9 L180.922 1115.83 L158.978 1115.83 L158.978 1111.9 Q161.64 1109.14 166.223 1104.51 Q170.829 1099.86 172.01 1098.52 Q174.255 1096 175.135 1094.26 Q176.038 1092.5 176.038 1090.81 Q176.038 1088.06 174.093 1086.32 Q172.172 1084.58 169.07 1084.58 Q166.871 1084.58 164.417 1085.35 Q161.987 1086.11 159.209 1087.66 L159.209 1082.94 Q162.033 1081.81 164.487 1081.23 Q166.941 1080.65 168.978 1080.65 Q174.348 1080.65 177.542 1083.33 Q180.737 1086.02 180.737 1090.51 Q180.737 1092.64 179.927 1094.56 Q179.14 1096.46 177.033 1099.05 Q176.454 1099.72 173.353 1102.94 Q170.251 1106.13 164.603 1111.9 Z" fill="#000000" fill-rule="nonzero" fill-opacity="1" /><path clip-path="url(#clip820)" d="M62.9365 737.19 Q59.3254 737.19 57.4967 740.755 Q55.6912 744.297 55.6912 751.426 Q55.6912 758.533 57.4967 762.098 Q59.3254 765.639 62.9365 765.639 Q66.5707 765.639 68.3763 762.098 Q70.205 758.533 70.205 751.426 Q70.205 744.297 68.3763 740.755 Q66.5707 737.19 62.9365 737.19 M62.9365 733.487 Q68.7467 733.487 71.8022 738.093 Q74.8809 742.676 74.8809 751.426 Q74.8809 760.153 71.8022 764.76 Q68.7467 769.343 62.9365 769.343 Q57.1264 769.343 54.0477 764.76 Q50.9921 760.153 50.9921 751.426 Q50.9921 742.676 54.0477 738.093 Q57.1264 733.487 62.9365 733.487 Z" fill="#000000" fill-rule="nonzero" fill-opacity="1" /><path clip-path="url(#clip820)" d="M83.0984 762.792 L87.9827 762.792 L87.9827 768.672 L83.0984 768.672 L83.0984 762.792 Z" fill="#000000" fill-rule="nonzero" fill-opacity="1" /><path clip-path="url(#clip820)" d="M108.168 737.19 Q104.557 737.19 102.728 740.755 Q100.922 744.297 100.922 751.426 Q100.922 758.533 102.728 762.098 Q104.557 765.639 108.168 765.639 Q111.802 765.639 113.608 762.098 Q115.436 758.533 115.436 751.426 Q115.436 744.297 113.608 740.755 Q111.802 737.19 108.168 737.19 M108.168 733.487 Q113.978 733.487 117.033 738.093 Q120.112 742.676 120.112 751.426 Q120.112 760.153 117.033 764.76 Q113.978 769.343 108.168 769.343 Q102.358 769.343 99.2789 764.76 Q96.2234 760.153 96.2234 751.426 Q96.2234 742.676 99.2789 738.093 Q102.358 733.487 108.168 733.487 Z" fill="#000000" fill-rule="nonzero" fill-opacity="1" /><path clip-path="url(#clip820)" d="M138.33 737.19 Q134.719 737.19 132.89 740.755 Q131.084 744.297 131.084 751.426 Q131.084 758.533 132.89 762.098 Q134.719 765.639 138.33 765.639 Q141.964 765.639 143.769 762.098 Q145.598 758.533 145.598 751.426 Q145.598 744.297 143.769 740.755 Q141.964 737.19 138.33 737.19 M138.33 733.487 Q144.14 733.487 147.195 738.093 Q150.274 742.676 150.274 751.426 Q150.274 760.153 147.195 764.76 Q144.14 769.343 138.33 769.343 Q132.519 769.343 129.441 764.76 Q126.385 760.153 126.385 751.426 Q126.385 742.676 129.441 738.093 Q132.519 733.487 138.33 733.487 Z" fill="#000000" fill-rule="nonzero" fill-opacity="1" /><path clip-path="url(#clip820)" d="M171.339 738.186 L159.533 756.635 L171.339 756.635 L171.339 738.186 M170.112 734.112 L175.991 734.112 L175.991 756.635 L180.922 756.635 L180.922 760.524 L175.991 760.524 L175.991 768.672 L171.339 768.672 L171.339 760.524 L155.737 760.524 L155.737 756.01 L170.112 734.112 Z" fill="#000000" fill-rule="nonzero" fill-opacity="1" /><path clip-path="url(#clip820)" d="M63.2606 390.028 Q59.6495 390.028 57.8208 393.593 Q56.0152 397.135 56.0152 404.264 Q56.0152 411.371 57.8208 414.936 Q59.6495 418.477 63.2606 418.477 Q66.8948 418.477 68.7004 414.936 Q70.5291 411.371 70.5291 404.264 Q70.5291 397.135 68.7004 393.593 Q66.8948 390.028 63.2606 390.028 M63.2606 386.325 Q69.0707 386.325 72.1263 390.931 Q75.205 395.514 75.205 404.264 Q75.205 412.991 72.1263 417.598 Q69.0707 422.181 63.2606 422.181 Q57.4504 422.181 54.3717 417.598 Q51.3162 412.991 51.3162 404.264 Q51.3162 395.514 54.3717 390.931 Q57.4504 386.325 63.2606 386.325 Z" fill="#000000" fill-rule="nonzero" fill-opacity="1" /><path clip-path="url(#clip820)" d="M83.4225 415.63 L88.3067 415.63 L88.3067 421.51 L83.4225 421.51 L83.4225 415.63 Z" fill="#000000" fill-rule="nonzero" fill-opacity="1" /><path clip-path="url(#clip820)" d="M108.492 390.028 Q104.881 390.028 103.052 393.593 Q101.246 397.135 101.246 404.264 Q101.246 411.371 103.052 414.936 Q104.881 418.477 108.492 418.477 Q112.126 418.477 113.932 414.936 Q115.76 411.371 115.76 404.264 Q115.76 397.135 113.932 393.593 Q112.126 390.028 108.492 390.028 M108.492 386.325 Q114.302 386.325 117.358 390.931 Q120.436 395.514 120.436 404.264 Q120.436 412.991 117.358 417.598 Q114.302 422.181 108.492 422.181 Q102.682 422.181 99.603 417.598 Q96.5474 412.991 96.5474 404.264 Q96.5474 395.514 99.603 390.931 Q102.682 386.325 108.492 386.325 Z" fill="#000000" fill-rule="nonzero" fill-opacity="1" /><path clip-path="url(#clip820)" d="M138.654 390.028 Q135.043 390.028 133.214 393.593 Q131.408 397.135 131.408 404.264 Q131.408 411.371 133.214 414.936 Q135.043 418.477 138.654 418.477 Q142.288 418.477 144.093 414.936 Q145.922 411.371 145.922 404.264 Q145.922 397.135 144.093 393.593 Q142.288 390.028 138.654 390.028 M138.654 386.325 Q144.464 386.325 147.519 390.931 Q150.598 395.514 150.598 404.264 Q150.598 412.991 147.519 417.598 Q144.464 422.181 138.654 422.181 Q132.844 422.181 129.765 417.598 Q126.709 412.991 126.709 404.264 Q126.709 395.514 129.765 390.931 Q132.844 386.325 138.654 386.325 Z" fill="#000000" fill-rule="nonzero" fill-opacity="1" /><path clip-path="url(#clip820)" d="M169.394 402.366 Q166.246 402.366 164.394 404.519 Q162.566 406.672 162.566 410.422 Q162.566 414.149 164.394 416.324 Q166.246 418.477 169.394 418.477 Q172.542 418.477 174.371 416.324 Q176.223 414.149 176.223 410.422 Q176.223 406.672 174.371 404.519 Q172.542 402.366 169.394 402.366 M178.677 387.714 L178.677 391.973 Q176.917 391.139 175.112 390.7 Q173.329 390.26 171.57 390.26 Q166.941 390.26 164.487 393.385 Q162.056 396.51 161.709 402.829 Q163.075 400.815 165.135 399.751 Q167.195 398.663 169.672 398.663 Q174.88 398.663 177.89 401.834 Q180.922 404.982 180.922 410.422 Q180.922 415.746 177.774 418.963 Q174.626 422.181 169.394 422.181 Q163.399 422.181 160.228 417.598 Q157.056 412.991 157.056 404.264 Q157.056 396.07 160.945 391.209 Q164.834 386.325 171.385 386.325 Q173.144 386.325 174.927 386.672 Q176.732 387.019 178.677 387.714 Z" fill="#000000" fill-rule="nonzero" fill-opacity="1" /><path clip-path="url(#clip820)" d="M63.5152 42.8663 Q59.9041 42.8663 58.0754 46.4311 Q56.2699 49.9728 56.2699 57.1024 Q56.2699 64.2088 58.0754 67.7736 Q59.9041 71.3153 63.5152 71.3153 Q67.1494 71.3153 68.955 67.7736 Q70.7837 64.2088 70.7837 57.1024 Q70.7837 49.9728 68.955 46.4311 Q67.1494 42.8663 63.5152 42.8663 M63.5152 39.1626 Q69.3254 39.1626 72.3809 43.7691 Q75.4596 48.3524 75.4596 57.1024 Q75.4596 65.8292 72.3809 70.4356 Q69.3254 75.0189 63.5152 75.0189 Q57.7051 75.0189 54.6264 70.4356 Q51.5708 65.8292 51.5708 57.1024 Q51.5708 48.3524 54.6264 43.7691 Q57.7051 39.1626 63.5152 39.1626 Z" fill="#000000" fill-rule="nonzero" fill-opacity="1" /><path clip-path="url(#clip820)" d="M83.6771 68.468 L88.5614 68.468 L88.5614 74.3476 L83.6771 74.3476 L83.6771 68.468 Z" fill="#000000" fill-rule="nonzero" fill-opacity="1" /><path clip-path="url(#clip820)" d="M108.746 42.8663 Q105.135 42.8663 103.307 46.4311 Q101.501 49.9728 101.501 57.1024 Q101.501 64.2088 103.307 67.7736 Q105.135 71.3153 108.746 71.3153 Q112.381 71.3153 114.186 67.7736 Q116.015 64.2088 116.015 57.1024 Q116.015 49.9728 114.186 46.4311 Q112.381 42.8663 108.746 42.8663 M108.746 39.1626 Q114.557 39.1626 117.612 43.7691 Q120.691 48.3524 120.691 57.1024 Q120.691 65.8292 117.612 70.4356 Q114.557 75.0189 108.746 75.0189 Q102.936 75.0189 99.8576 70.4356 Q96.8021 65.8292 96.8021 57.1024 Q96.8021 48.3524 99.8576 43.7691 Q102.936 39.1626 108.746 39.1626 Z" fill="#000000" fill-rule="nonzero" fill-opacity="1" /><path clip-path="url(#clip820)" d="M138.908 42.8663 Q135.297 42.8663 133.469 46.4311 Q131.663 49.9728 131.663 57.1024 Q131.663 64.2088 133.469 67.7736 Q135.297 71.3153 138.908 71.3153 Q142.543 71.3153 144.348 67.7736 Q146.177 64.2088 146.177 57.1024 Q146.177 49.9728 144.348 46.4311 Q142.543 42.8663 138.908 42.8663 M138.908 39.1626 Q144.718 39.1626 147.774 43.7691 Q150.853 48.3524 150.853 57.1024 Q150.853 65.8292 147.774 70.4356 Q144.718 75.0189 138.908 75.0189 Q133.098 75.0189 130.019 70.4356 Q126.964 65.8292 126.964 57.1024 Q126.964 48.3524 130.019 43.7691 Q133.098 39.1626 138.908 39.1626 Z" fill="#000000" fill-rule="nonzero" fill-opacity="1" /><path clip-path="url(#clip820)" d="M169.07 57.9357 Q165.737 57.9357 163.816 59.7181 Q161.917 61.5005 161.917 64.6255 Q161.917 67.7505 163.816 69.5329 Q165.737 71.3153 169.07 71.3153 Q172.404 71.3153 174.325 69.5329 Q176.246 67.7273 176.246 64.6255 Q176.246 61.5005 174.325 59.7181 Q172.427 57.9357 169.07 57.9357 M164.394 55.945 Q161.385 55.2042 159.695 53.1441 Q158.029 51.0839 158.029 48.1209 Q158.029 43.9774 160.968 41.57 Q163.931 39.1626 169.07 39.1626 Q174.232 39.1626 177.172 41.57 Q180.112 43.9774 180.112 48.1209 Q180.112 51.0839 178.422 53.1441 Q176.755 55.2042 173.769 55.945 Q177.149 56.732 179.024 59.0237 Q180.922 61.3153 180.922 64.6255 Q180.922 69.6486 177.843 72.3338 Q174.788 75.0189 169.07 75.0189 Q163.353 75.0189 160.274 72.3338 Q157.218 69.6486 157.218 64.6255 Q157.218 61.3153 159.117 59.0237 Q161.015 56.732 164.394 55.945 M162.681 48.5607 Q162.681 51.2459 164.348 52.7505 Q166.038 54.2552 169.07 54.2552 Q172.079 54.2552 173.769 52.7505 Q175.482 51.2459 175.482 48.5607 Q175.482 45.8756 173.769 44.371 Q172.079 42.8663 169.07 42.8663 Q166.038 42.8663 164.348 44.371 Q162.681 45.8756 162.681 48.5607 Z" fill="#000000" fill-rule="nonzero" fill-opacity="1" /><polyline clip-path="url(#clip822)" style="stroke:#009af9; stroke-linecap:round; stroke-linejoin:round; stroke-width:4; stroke-opacity:1; fill:none" points="277.37,1445.72 281.408,1445.72 285.446,1445.72 289.484,1445.72 293.522,1445.72 297.56,1445.72 301.598,1445.72 305.636,1445.72 309.674,1445.72 313.712,1445.72 317.75,1445.72 321.788,1445.72 325.826,1445.72 329.863,1445.72 333.901,1445.72 337.939,1445.72 341.977,1445.72 346.015,1445.72 350.053,1445.72 354.091,1445.72 358.129,1445.72 362.167,1445.72 366.205,1445.69 370.243,1445.49 374.281,1445.34 378.319,1445.21 382.357,1445.08 386.395,1444.94 390.433,1444.8 394.471,1444.64 398.509,1444.48 402.547,1444.32 406.585,1444.14 410.623,1443.94 414.66,1443.75 418.698,1443.54 422.736,1443.32 426.774,1443.09 430.812,1442.85 434.85,1442.6 438.888,1442.33 442.926,1442.06 446.964,1441.78 451.002,1441.47 455.04,1441.18 459.078,1440.84 463.116,1440.51 467.154,1440.17 471.192,1439.8 475.23,1439.43 479.268,1439.05 483.306,1438.65 487.344,1438.24 491.382,1437.81 495.419,1437.4 499.457,1436.91 503.495,1436.44 507.533,1435.97 511.571,1435.49 515.609,1434.95 519.647,1434.47 523.685,1433.88 527.723,1433.36 531.761,1432.8 535.799,1432.16 539.837,1431.6 543.875,1430.99 547.913,1430.36 551.951,1429.7 555.989,1428.99 560.027,1428.33 564.065,1427.64 568.103,1426.92 572.141,1426.14 576.179,1425.37 580.216,1424.59 584.254,1423.79 588.292,1423.02 592.33,1422.07 596.368,1421.23 600.406,1420.37 604.444,1419.35 608.482,1418.48 612.52,1417.36 616.558,1416.43 620.596,1415.24 624.634,1414.14 628.672,1412.92 632.71,1411.34 636.748,1409.63 640.786,1408.68 644.824,1407.64 648.862,1406.7 652.9,1405.69 656.938,1404.61 660.975,1403.68 665.013,1402.69 669.051,1401.59 673.089,1400.44 677.127,1399.51 681.165,1398.4 685.203,1397.24 689.241,1396.2 693.279,1395.14 697.317,1393.86 701.355,1392.59 705.393,1391.67 709.431,1390.6 713.469,1389.1 717.507,1387.91 721.545,1387.07 725.583,1385.48 729.621,1384.24 733.659,1383.17 737.697,1381.81 741.735,1380.73 745.772,1378.99 749.81,1378.13 753.848,1376.57 757.886,1375.45 761.924,1373.78 765.962,1372.62 770,1371.49 774.038,1369.71 778.076,1368.45 782.114,1367.13 786.152,1365.55 790.19,1364.26 794.228,1362.82 798.266,1361.29 802.304,1359.72 806.342,1358.38 810.38,1356.91 814.418,1355.15 818.456,1354 822.494,1352.46 826.531,1350.88 830.569,1348.92 834.607,1347.36 838.645,1346.14 842.683,1344.46 846.721,1342.83 850.759,1341.16 854.797,1339.38 858.835,1338.03 862.873,1336.6 866.911,1334.53 870.949,1332.65 874.987,1330.9 879.025,1329.51 883.063,1327.74 887.101,1325.96 891.139,1324.27 895.177,1322.42 899.215,1320.61 903.253,1318.83 907.291,1317.15 911.328,1315.62 915.366,1312.73 919.404,1311.56 923.442,1310.04 927.48,1308.02 931.518,1305.69 935.556,1304.06 939.594,1302.03 943.632,1300.08 947.67,1298.66 951.708,1296.27 955.746,1294.35 959.784,1292.63 963.822,1289.58 967.86,1289.08 971.898,1286.14 975.936,1285.03 979.974,1281.79 984.012,1280.85 988.05,1277.43 992.087,1276.5 996.125,1273.54 1000.16,1272.57 1004.2,1269.41 1008.24,1268.02 1012.28,1265.08 1016.32,1263.23 1020.35,1261.77 1024.39,1258.4 1028.43,1257.27 1032.47,1254.47 1036.5,1252.44 1040.54,1250.5 1044.58,1247.11 1048.62,1245.37 1052.66,1243.97 1056.69,1241.2 1060.73,1238.41 1064.77,1236.69 1068.81,1234.59 1072.85,1231.26 1076.88,1228.8 1080.92,1227.2 1084.96,1225.22 1089,1222.21 1093.04,1219.65 1097.07,1217.46 1101.11,1215.13 1105.15,1212.75 1109.19,1209.99 1113.23,1206.76 1117.26,1205.07 1121.3,1202.78 1125.34,1200.43 1129.38,1198.03 1133.42,1195.28 1137.45,1192.51 1141.49,1188.77 1145.53,1186.96 1149.57,1184.87 1153.61,1182.03 1157.64,1179.43 1161.68,1176.91 1165.72,1174.4 1169.76,1171.68 1173.8,1168.59 1177.83,1165.23 1181.87,1163.47 1185.91,1161.05 1189.95,1158.29 1193.99,1155.13 1198.02,1152.3 1202.06,1149.6 1206.1,1146.96 1210.14,1144.11 1214.17,1140.23 1218.21,1138.24 1222.25,1135.8 1226.29,1133.41 1230.33,1131.4 1234.36,1126.62 1238.4,1123.53 1242.44,1120.58 1246.48,1117.71 1250.52,1114.74 1254.55,1111.9 1258.59,1109.28 1262.63,1106.7 1266.67,1104.6 1270.71,1099.83 1274.74,1097 1278.78,1093.61 1282.82,1090.53 1286.86,1087.69 1290.9,1085.9 1294.93,1081.66 1298.97,1078.63 1303.01,1075.43 1307.05,1073.43 1311.09,1069.04 1315.12,1065.25 1319.16,1062.65 1323.2,1060.19 1327.24,1056.47 1331.28,1052.25 1335.31,1049.91 1339.35,1049.03 1343.39,1042.76 1347.43,1039.16 1351.47,1036.2 1355.5,1033.34 1359.54,1029.41 1363.58,1028.12 1367.62,1024.49 1371.65,1018.79 1375.69,1016.16 1379.73,1014.2 1383.77,1007.89 1387.81,1007.39 1391.84,1003.07 1395.88,998.59 1399.92,998.336 1403.96,990.049 1408,987.934 1412.03,986.187 1416.07,980.738 1420.11,980.908 1424.15,972.246 1428.19,970.22 1432.22,968.259 1436.26,962.638 1440.3,961.511 1444.34,954.722 1448.38,955.068 1452.41,946.473 1456.45,946.863 1460.49,939.874 1464.53,940.174 1468.57,931.241 1472.6,933.115 1476.64,924.144 1480.68,922.439 1484.72,917.647 1488.76,916.902 1492.79,908.264 1496.83,911.016 1500.87,900.951 1504.91,901.025 1508.95,891.635 1512.98,891.604 1517.02,886.98 1521.06,884.711 1525.1,883.458 1529.13,872.088 1533.17,871.4 1537.21,864.384 1541.25,864.487 1545.29,862.494 1549.32,851.461 1553.36,852.403 1557.4,848.119 1561.44,840.765 1565.48,840.032 1569.51,828.394 1573.55,831.185 1577.59,828.973 1581.63,825.848 1585.67,811.8 1589.7,815.358 1593.74,806.087 1597.78,802.705 1601.82,798.933 1605.86,799.536 1609.89,789.015 1613.93,788.248 1617.97,783.491 1622.01,781.67 1626.05,767.328 1630.08,766.864 1634.12,765.26 1638.16,763.249 1642.2,754.102 1646.24,750.23 1650.27,749.712 1654.31,742.591 1658.35,736.438 1662.39,726.576 1666.43,725.894 1670.46,721.139 1674.5,721.343 1678.54,716.701 1682.58,710.547 1686.62,710.218 1690.65,697.362 1694.69,687.641 1698.73,687.727 1702.77,680.541 1706.8,681.748 1710.84,676.64 1714.88,670.603 1718.92,671.1 1722.96,664.687 1726.99,657.075 1731.03,648.327 1735.07,641.586 1739.11,638.328 1743.15,631.53 1747.18,629.685 1751.22,621.994 1755.26,623.573 1759.3,618.747 1763.34,630.073 1767.37,607.221 1771.41,633.16 1775.45,635.244 1779.49,642.623 1783.53,640.331 1787.56,645.832 1791.6,644.336 1795.64,646.481 1799.68,644.472 1803.72,643.123 1807.75,648.171 1811.79,642.268 1815.83,644.279 1819.87,642.759 1823.91,639.725 1827.94,642.122 1831.98,637.731 1836.02,635.746 1840.06,638.389 1844.1,632.843 1848.13,630.693 1852.17,630.511 1856.21,630.554 1860.25,624.719 1864.28,623.153 1868.32,620.75 1872.36,622.603 1876.4,616.675 1880.44,614.94 1884.47,612.001 1888.51,608.123 1892.55,606.497 1896.59,604.108 1900.63,604.37 1904.66,597.717 1908.7,596.63 1912.74,593.937 1916.78,588.203 1920.82,586.156 1924.85,584.171 1928.89,577 1932.93,577.068 1936.97,574.701 1941.01,569.824 1945.04,566.03 1949.08,562.644 1953.12,556.102 1957.16,554.465 1961.2,551.836 1965.23,545.285 1969.27,539.993 1973.31,538.29 1977.35,530.165 1981.39,528.11 1985.42,521.89 1989.46,517.579 1993.5,510.454 1997.54,504.792 2001.58,499.231 2005.61,493.936 2009.65,487.341 2013.69,476.844 2017.73,472.389 2021.77,462.127 2025.8,453.781 2029.84,445.412 2033.88,430.422 2037.92,424.67 2041.95,404.593 2045.99,394.269 2050.03,375.44 2054.07,355.573 2058.11,326.154 2062.14,294.471 2066.18,239.624 2070.22,160.291 2074.26,128.945 2078.3,121.745 2082.33,124.641 2086.37,105.554 2090.41,103.398 2094.45,97.2525 2098.49,87.9763 2102.52,1418.07 2106.56,1445.72 2110.6,1445.72 2114.64,1445.72 2118.68,1445.72 2122.71,1445.72 2126.75,1445.72 2130.79,1445.72 2134.83,1445.72 2138.87,1445.72 2142.9,1445.72 2146.94,1445.72 2150.98,1445.72 2155.02,1445.72 2159.06,1445.72 2163.09,1445.72 2167.13,1445.72 2171.17,1445.72 2175.21,1445.72 2179.25,1445.72 2183.28,1445.72 2187.32,1445.72 2191.36,1445.72 2195.4,1445.72 2199.43,1445.72 2203.47,1445.72 2207.51,1445.72 2211.55,1445.72 2215.59,1445.72 2219.62,1445.72 2223.66,1445.72 2227.7,1445.72 2231.74,1445.72 2235.78,1445.72 2239.81,1445.72 2243.85,1445.72 2247.89,1445.72 2251.93,1445.72 2255.97,1445.72 2260,1445.72 2264.04,1445.72 2268.08,1445.72 2272.12,1445.72 2276.16,1445.72 2280.19,1445.72 2284.23,1445.72 2288.27,1445.72 2292.31,1445.72 "/>
</svg>
