<?xml version="1.0" encoding="utf-8"?>
<svg xmlns="http://www.w3.org/2000/svg" xmlns:xlink="http://www.w3.org/1999/xlink" width="600" height="400" viewBox="0 0 2400 1600">
<defs>
  <clipPath id="clip470">
    <rect x="0" y="0" width="2400" height="1600"/>
  </clipPath>
</defs>
<path clip-path="url(#clip470)" d="M0 1600 L2400 1600 L2400 0 L0 0  Z" fill="#ffffff" fill-rule="evenodd" fill-opacity="1"/>
<defs>
  <clipPath id="clip471">
    <rect x="480" y="0" width="1681" height="1600"/>
  </clipPath>
</defs>
<path clip-path="url(#clip470)" d="M186.76 1486.45 L2352.76 1486.45 L2352.76 47.2441 L186.76 47.2441  Z" fill="#ffffff" fill-rule="evenodd" fill-opacity="1"/>
<defs>
  <clipPath id="clip472">
    <rect x="186" y="47" width="2167" height="1440"/>
  </clipPath>
</defs>
<polyline clip-path="url(#clip472)" style="stroke:#000000; stroke-linecap:round; stroke-linejoin:round; stroke-width:2; stroke-opacity:0.1; fill:none" points="483.838,1486.45 483.838,47.2441 "/>
<polyline clip-path="url(#clip472)" style="stroke:#000000; stroke-linecap:round; stroke-linejoin:round; stroke-width:2; stroke-opacity:0.1; fill:none" points="876.798,1486.45 876.798,47.2441 "/>
<polyline clip-path="url(#clip472)" style="stroke:#000000; stroke-linecap:round; stroke-linejoin:round; stroke-width:2; stroke-opacity:0.1; fill:none" points="1269.76,1486.45 1269.76,47.2441 "/>
<polyline clip-path="url(#clip472)" style="stroke:#000000; stroke-linecap:round; stroke-linejoin:round; stroke-width:2; stroke-opacity:0.1; fill:none" points="1662.72,1486.45 1662.72,47.2441 "/>
<polyline clip-path="url(#clip472)" style="stroke:#000000; stroke-linecap:round; stroke-linejoin:round; stroke-width:2; stroke-opacity:0.1; fill:none" points="2055.68,1486.45 2055.68,47.2441 "/>
<polyline clip-path="url(#clip472)" style="stroke:#000000; stroke-linecap:round; stroke-linejoin:round; stroke-width:2; stroke-opacity:0.1; fill:none" points="186.76,1445.72 2352.76,1445.72 "/>
<polyline clip-path="url(#clip472)" style="stroke:#000000; stroke-linecap:round; stroke-linejoin:round; stroke-width:2; stroke-opacity:0.1; fill:none" points="186.76,1171.28 2352.76,1171.28 "/>
<polyline clip-path="url(#clip472)" style="stroke:#000000; stroke-linecap:round; stroke-linejoin:round; stroke-width:2; stroke-opacity:0.1; fill:none" points="186.76,896.851 2352.76,896.851 "/>
<polyline clip-path="url(#clip472)" style="stroke:#000000; stroke-linecap:round; stroke-linejoin:round; stroke-width:2; stroke-opacity:0.1; fill:none" points="186.76,622.419 2352.76,622.419 "/>
<polyline clip-path="url(#clip472)" style="stroke:#000000; stroke-linecap:round; stroke-linejoin:round; stroke-width:2; stroke-opacity:0.1; fill:none" points="186.76,347.987 2352.76,347.987 "/>
<polyline clip-path="url(#clip472)" style="stroke:#000000; stroke-linecap:round; stroke-linejoin:round; stroke-width:2; stroke-opacity:0.1; fill:none" points="186.76,73.5549 2352.76,73.5549 "/>
<polyline clip-path="url(#clip470)" style="stroke:#000000; stroke-linecap:round; stroke-linejoin:round; stroke-width:4; stroke-opacity:1; fill:none" points="186.76,1486.45 2352.76,1486.45 "/>
<polyline clip-path="url(#clip470)" style="stroke:#000000; stroke-linecap:round; stroke-linejoin:round; stroke-width:4; stroke-opacity:1; fill:none" points="483.838,1486.45 483.838,1467.55 "/>
<polyline clip-path="url(#clip470)" style="stroke:#000000; stroke-linecap:round; stroke-linejoin:round; stroke-width:4; stroke-opacity:1; fill:none" points="876.798,1486.45 876.798,1467.55 "/>
<polyline clip-path="url(#clip470)" style="stroke:#000000; stroke-linecap:round; stroke-linejoin:round; stroke-width:4; stroke-opacity:1; fill:none" points="1269.76,1486.45 1269.76,1467.55 "/>
<polyline clip-path="url(#clip470)" style="stroke:#000000; stroke-linecap:round; stroke-linejoin:round; stroke-width:4; stroke-opacity:1; fill:none" points="1662.72,1486.45 1662.72,1467.55 "/>
<polyline clip-path="url(#clip470)" style="stroke:#000000; stroke-linecap:round; stroke-linejoin:round; stroke-width:4; stroke-opacity:1; fill:none" points="2055.68,1486.45 2055.68,1467.55 "/>
<path clip-path="url(#clip470)" d="M446.639 1517.37 Q443.028 1517.37 441.199 1520.93 Q439.394 1524.47 439.394 1531.6 Q439.394 1538.71 441.199 1542.27 Q443.028 1545.82 446.639 1545.82 Q450.273 1545.82 452.079 1542.27 Q453.908 1538.71 453.908 1531.6 Q453.908 1524.47 452.079 1520.93 Q450.273 1517.37 446.639 1517.37 M446.639 1513.66 Q452.449 1513.66 455.505 1518.27 Q458.583 1522.85 458.583 1531.6 Q458.583 1540.33 455.505 1544.94 Q452.449 1549.52 446.639 1549.52 Q440.829 1549.52 437.75 1544.94 Q434.695 1540.33 434.695 1531.6 Q434.695 1522.85 437.75 1518.27 Q440.829 1513.66 446.639 1513.66 Z" fill="#000000" fill-rule="nonzero" fill-opacity="1" /><path clip-path="url(#clip470)" d="M466.801 1542.97 L471.685 1542.97 L471.685 1548.85 L466.801 1548.85 L466.801 1542.97 Z" fill="#000000" fill-rule="nonzero" fill-opacity="1" /><path clip-path="url(#clip470)" d="M485.898 1544.91 L502.217 1544.91 L502.217 1548.85 L480.273 1548.85 L480.273 1544.91 Q482.935 1542.16 487.518 1537.53 Q492.125 1532.88 493.305 1531.53 Q495.551 1529.01 496.43 1527.27 Q497.333 1525.51 497.333 1523.82 Q497.333 1521.07 495.389 1519.33 Q493.467 1517.6 490.366 1517.6 Q488.167 1517.6 485.713 1518.36 Q483.282 1519.13 480.505 1520.68 L480.505 1515.95 Q483.329 1514.82 485.782 1514.24 Q488.236 1513.66 490.273 1513.66 Q495.643 1513.66 498.838 1516.35 Q502.032 1519.03 502.032 1523.52 Q502.032 1525.65 501.222 1527.57 Q500.435 1529.47 498.329 1532.07 Q497.75 1532.74 494.648 1535.95 Q491.546 1539.15 485.898 1544.91 Z" fill="#000000" fill-rule="nonzero" fill-opacity="1" /><path clip-path="url(#clip470)" d="M512.078 1514.29 L530.435 1514.29 L530.435 1518.22 L516.361 1518.22 L516.361 1526.7 Q517.379 1526.35 518.398 1526.19 Q519.416 1526 520.435 1526 Q526.222 1526 529.602 1529.17 Q532.981 1532.34 532.981 1537.76 Q532.981 1543.34 529.509 1546.44 Q526.037 1549.52 519.717 1549.52 Q517.541 1549.52 515.273 1549.15 Q513.028 1548.78 510.62 1548.04 L510.62 1543.34 Q512.703 1544.47 514.926 1545.03 Q517.148 1545.58 519.625 1545.58 Q523.629 1545.58 525.967 1543.48 Q528.305 1541.37 528.305 1537.76 Q528.305 1534.15 525.967 1532.04 Q523.629 1529.94 519.625 1529.94 Q517.75 1529.94 515.875 1530.35 Q514.023 1530.77 512.078 1531.65 L512.078 1514.29 Z" fill="#000000" fill-rule="nonzero" fill-opacity="1" /><path clip-path="url(#clip470)" d="M839.101 1517.37 Q835.49 1517.37 833.662 1520.93 Q831.856 1524.47 831.856 1531.6 Q831.856 1538.71 833.662 1542.27 Q835.49 1545.82 839.101 1545.82 Q842.736 1545.82 844.541 1542.27 Q846.37 1538.71 846.37 1531.6 Q846.37 1524.47 844.541 1520.93 Q842.736 1517.37 839.101 1517.37 M839.101 1513.66 Q844.912 1513.66 847.967 1518.27 Q851.046 1522.85 851.046 1531.6 Q851.046 1540.33 847.967 1544.94 Q844.912 1549.52 839.101 1549.52 Q833.291 1549.52 830.213 1544.94 Q827.157 1540.33 827.157 1531.6 Q827.157 1522.85 830.213 1518.27 Q833.291 1513.66 839.101 1513.66 Z" fill="#000000" fill-rule="nonzero" fill-opacity="1" /><path clip-path="url(#clip470)" d="M859.263 1542.97 L864.148 1542.97 L864.148 1548.85 L859.263 1548.85 L859.263 1542.97 Z" fill="#000000" fill-rule="nonzero" fill-opacity="1" /><path clip-path="url(#clip470)" d="M874.379 1514.29 L892.735 1514.29 L892.735 1518.22 L878.661 1518.22 L878.661 1526.7 Q879.68 1526.35 880.698 1526.19 Q881.717 1526 882.735 1526 Q888.522 1526 891.902 1529.17 Q895.282 1532.34 895.282 1537.76 Q895.282 1543.34 891.809 1546.44 Q888.337 1549.52 882.018 1549.52 Q879.842 1549.52 877.573 1549.15 Q875.328 1548.78 872.921 1548.04 L872.921 1543.34 Q875.004 1544.47 877.226 1545.03 Q879.448 1545.58 881.925 1545.58 Q885.93 1545.58 888.268 1543.48 Q890.606 1541.37 890.606 1537.76 Q890.606 1534.15 888.268 1532.04 Q885.93 1529.94 881.925 1529.94 Q880.05 1529.94 878.175 1530.35 Q876.323 1530.77 874.379 1531.65 L874.379 1514.29 Z" fill="#000000" fill-rule="nonzero" fill-opacity="1" /><path clip-path="url(#clip470)" d="M914.495 1517.37 Q910.883 1517.37 909.055 1520.93 Q907.249 1524.47 907.249 1531.6 Q907.249 1538.71 909.055 1542.27 Q910.883 1545.82 914.495 1545.82 Q918.129 1545.82 919.934 1542.27 Q921.763 1538.71 921.763 1531.6 Q921.763 1524.47 919.934 1520.93 Q918.129 1517.37 914.495 1517.37 M914.495 1513.66 Q920.305 1513.66 923.36 1518.27 Q926.439 1522.85 926.439 1531.6 Q926.439 1540.33 923.36 1544.94 Q920.305 1549.52 914.495 1549.52 Q908.684 1549.52 905.606 1544.94 Q902.55 1540.33 902.55 1531.6 Q902.55 1522.85 905.606 1518.27 Q908.684 1513.66 914.495 1513.66 Z" fill="#000000" fill-rule="nonzero" fill-opacity="1" /><path clip-path="url(#clip470)" d="M1232.56 1517.37 Q1228.95 1517.37 1227.12 1520.93 Q1225.31 1524.47 1225.31 1531.6 Q1225.31 1538.71 1227.12 1542.27 Q1228.95 1545.82 1232.56 1545.82 Q1236.19 1545.82 1238 1542.27 Q1239.83 1538.71 1239.83 1531.6 Q1239.83 1524.47 1238 1520.93 Q1236.19 1517.37 1232.56 1517.37 M1232.56 1513.66 Q1238.37 1513.66 1241.42 1518.27 Q1244.5 1522.85 1244.5 1531.6 Q1244.5 1540.33 1241.42 1544.94 Q1238.37 1549.52 1232.56 1549.52 Q1226.75 1549.52 1223.67 1544.94 Q1220.61 1540.33 1220.61 1531.6 Q1220.61 1522.85 1223.67 1518.27 Q1226.75 1513.66 1232.56 1513.66 Z" fill="#000000" fill-rule="nonzero" fill-opacity="1" /><path clip-path="url(#clip470)" d="M1252.72 1542.97 L1257.61 1542.97 L1257.61 1548.85 L1252.72 1548.85 L1252.72 1542.97 Z" fill="#000000" fill-rule="nonzero" fill-opacity="1" /><path clip-path="url(#clip470)" d="M1266.61 1514.29 L1288.83 1514.29 L1288.83 1516.28 L1276.29 1548.85 L1271.4 1548.85 L1283.21 1518.22 L1266.61 1518.22 L1266.61 1514.29 Z" fill="#000000" fill-rule="nonzero" fill-opacity="1" /><path clip-path="url(#clip470)" d="M1298 1514.29 L1316.35 1514.29 L1316.35 1518.22 L1302.28 1518.22 L1302.28 1526.7 Q1303.3 1526.35 1304.32 1526.19 Q1305.34 1526 1306.36 1526 Q1312.14 1526 1315.52 1529.17 Q1318.9 1532.34 1318.9 1537.76 Q1318.9 1543.34 1315.43 1546.44 Q1311.96 1549.52 1305.64 1549.52 Q1303.46 1549.52 1301.19 1549.15 Q1298.95 1548.78 1296.54 1548.04 L1296.54 1543.34 Q1298.62 1544.47 1300.85 1545.03 Q1303.07 1545.58 1305.54 1545.58 Q1309.55 1545.58 1311.89 1543.48 Q1314.23 1541.37 1314.23 1537.76 Q1314.23 1534.15 1311.89 1532.04 Q1309.55 1529.94 1305.54 1529.94 Q1303.67 1529.94 1301.79 1530.35 Q1299.94 1530.77 1298 1531.65 L1298 1514.29 Z" fill="#000000" fill-rule="nonzero" fill-opacity="1" /><path clip-path="url(#clip470)" d="M1614.79 1544.91 L1622.43 1544.91 L1622.43 1518.55 L1614.12 1520.21 L1614.12 1515.95 L1622.38 1514.29 L1627.06 1514.29 L1627.06 1544.91 L1634.7 1544.91 L1634.7 1548.85 L1614.79 1548.85 L1614.79 1544.91 Z" fill="#000000" fill-rule="nonzero" fill-opacity="1" /><path clip-path="url(#clip470)" d="M1644.14 1542.97 L1649.03 1542.97 L1649.03 1548.85 L1644.14 1548.85 L1644.14 1542.97 Z" fill="#000000" fill-rule="nonzero" fill-opacity="1" /><path clip-path="url(#clip470)" d="M1669.21 1517.37 Q1665.6 1517.37 1663.77 1520.93 Q1661.97 1524.47 1661.97 1531.6 Q1661.97 1538.71 1663.77 1542.27 Q1665.6 1545.82 1669.21 1545.82 Q1672.85 1545.82 1674.65 1542.27 Q1676.48 1538.71 1676.48 1531.6 Q1676.48 1524.47 1674.65 1520.93 Q1672.85 1517.37 1669.21 1517.37 M1669.21 1513.66 Q1675.02 1513.66 1678.08 1518.27 Q1681.16 1522.85 1681.16 1531.6 Q1681.16 1540.33 1678.08 1544.94 Q1675.02 1549.52 1669.21 1549.52 Q1663.4 1549.52 1660.32 1544.94 Q1657.27 1540.33 1657.27 1531.6 Q1657.27 1522.85 1660.32 1518.27 Q1663.4 1513.66 1669.21 1513.66 Z" fill="#000000" fill-rule="nonzero" fill-opacity="1" /><path clip-path="url(#clip470)" d="M1699.37 1517.37 Q1695.76 1517.37 1693.93 1520.93 Q1692.13 1524.47 1692.13 1531.6 Q1692.13 1538.71 1693.93 1542.27 Q1695.76 1545.82 1699.37 1545.82 Q1703.01 1545.82 1704.81 1542.27 Q1706.64 1538.71 1706.64 1531.6 Q1706.64 1524.47 1704.81 1520.93 Q1703.01 1517.37 1699.37 1517.37 M1699.37 1513.66 Q1705.18 1513.66 1708.24 1518.27 Q1711.32 1522.85 1711.32 1531.6 Q1711.32 1540.33 1708.24 1544.94 Q1705.18 1549.52 1699.37 1549.52 Q1693.56 1549.52 1690.48 1544.94 Q1687.43 1540.33 1687.43 1531.6 Q1687.43 1522.85 1690.48 1518.27 Q1693.56 1513.66 1699.37 1513.66 Z" fill="#000000" fill-rule="nonzero" fill-opacity="1" /><path clip-path="url(#clip470)" d="M2008.25 1544.91 L2015.89 1544.91 L2015.89 1518.55 L2007.58 1520.21 L2007.58 1515.95 L2015.84 1514.29 L2020.52 1514.29 L2020.52 1544.91 L2028.16 1544.91 L2028.16 1548.85 L2008.25 1548.85 L2008.25 1544.91 Z" fill="#000000" fill-rule="nonzero" fill-opacity="1" /><path clip-path="url(#clip470)" d="M2037.6 1542.97 L2042.48 1542.97 L2042.48 1548.85 L2037.6 1548.85 L2037.6 1542.97 Z" fill="#000000" fill-rule="nonzero" fill-opacity="1" /><path clip-path="url(#clip470)" d="M2056.7 1544.91 L2073.02 1544.91 L2073.02 1548.85 L2051.07 1548.85 L2051.07 1544.91 Q2053.73 1542.16 2058.32 1537.53 Q2062.92 1532.88 2064.1 1531.53 Q2066.35 1529.01 2067.23 1527.27 Q2068.13 1525.51 2068.13 1523.82 Q2068.13 1521.07 2066.19 1519.33 Q2064.27 1517.6 2061.16 1517.6 Q2058.97 1517.6 2056.51 1518.36 Q2054.08 1519.13 2051.3 1520.68 L2051.3 1515.95 Q2054.13 1514.82 2056.58 1514.24 Q2059.03 1513.66 2061.07 1513.66 Q2066.44 1513.66 2069.64 1516.35 Q2072.83 1519.03 2072.83 1523.52 Q2072.83 1525.65 2072.02 1527.57 Q2071.23 1529.47 2069.13 1532.07 Q2068.55 1532.74 2065.45 1535.95 Q2062.34 1539.15 2056.7 1544.91 Z" fill="#000000" fill-rule="nonzero" fill-opacity="1" /><path clip-path="url(#clip470)" d="M2082.88 1514.29 L2101.23 1514.29 L2101.23 1518.22 L2087.16 1518.22 L2087.16 1526.7 Q2088.18 1526.35 2089.2 1526.19 Q2090.21 1526 2091.23 1526 Q2097.02 1526 2100.4 1529.17 Q2103.78 1532.34 2103.78 1537.76 Q2103.78 1543.34 2100.31 1546.44 Q2096.84 1549.52 2090.52 1549.52 Q2088.34 1549.52 2086.07 1549.15 Q2083.83 1548.78 2081.42 1548.04 L2081.42 1543.34 Q2083.5 1544.47 2085.72 1545.03 Q2087.95 1545.58 2090.42 1545.58 Q2094.43 1545.58 2096.77 1543.48 Q2099.1 1541.37 2099.1 1537.76 Q2099.1 1534.15 2096.77 1532.04 Q2094.43 1529.94 2090.42 1529.94 Q2088.55 1529.94 2086.67 1530.35 Q2084.82 1530.77 2082.88 1531.65 L2082.88 1514.29 Z" fill="#000000" fill-rule="nonzero" fill-opacity="1" /><polyline clip-path="url(#clip470)" style="stroke:#000000; stroke-linecap:round; stroke-linejoin:round; stroke-width:4; stroke-opacity:1; fill:none" points="186.76,1486.45 186.76,47.2441 "/>
<polyline clip-path="url(#clip470)" style="stroke:#000000; stroke-linecap:round; stroke-linejoin:round; stroke-width:4; stroke-opacity:1; fill:none" points="186.76,1445.72 205.658,1445.72 "/>
<polyline clip-path="url(#clip470)" style="stroke:#000000; stroke-linecap:round; stroke-linejoin:round; stroke-width:4; stroke-opacity:1; fill:none" points="186.76,1171.28 205.658,1171.28 "/>
<polyline clip-path="url(#clip470)" style="stroke:#000000; stroke-linecap:round; stroke-linejoin:round; stroke-width:4; stroke-opacity:1; fill:none" points="186.76,896.851 205.658,896.851 "/>
<polyline clip-path="url(#clip470)" style="stroke:#000000; stroke-linecap:round; stroke-linejoin:round; stroke-width:4; stroke-opacity:1; fill:none" points="186.76,622.419 205.658,622.419 "/>
<polyline clip-path="url(#clip470)" style="stroke:#000000; stroke-linecap:round; stroke-linejoin:round; stroke-width:4; stroke-opacity:1; fill:none" points="186.76,347.987 205.658,347.987 "/>
<polyline clip-path="url(#clip470)" style="stroke:#000000; stroke-linecap:round; stroke-linejoin:round; stroke-width:4; stroke-opacity:1; fill:none" points="186.76,73.5549 205.658,73.5549 "/>
<path clip-path="url(#clip470)" d="M63.4226 1431.51 Q59.8115 1431.51 57.9828 1435.08 Q56.1773 1438.62 56.1773 1445.75 Q56.1773 1452.86 57.9828 1456.42 Q59.8115 1459.96 63.4226 1459.96 Q67.0569 1459.96 68.8624 1456.42 Q70.6911 1452.86 70.6911 1445.75 Q70.6911 1438.62 68.8624 1435.08 Q67.0569 1431.51 63.4226 1431.51 M63.4226 1427.81 Q69.2328 1427.81 72.2883 1432.42 Q75.367 1437 75.367 1445.75 Q75.367 1454.48 72.2883 1459.08 Q69.2328 1463.67 63.4226 1463.67 Q57.6125 1463.67 54.5338 1459.08 Q51.4782 1454.48 51.4782 1445.75 Q51.4782 1437 54.5338 1432.42 Q57.6125 1427.81 63.4226 1427.81 Z" fill="#000000" fill-rule="nonzero" fill-opacity="1" /><path clip-path="url(#clip470)" d="M83.5845 1457.12 L88.4688 1457.12 L88.4688 1463 L83.5845 1463 L83.5845 1457.12 Z" fill="#000000" fill-rule="nonzero" fill-opacity="1" /><path clip-path="url(#clip470)" d="M108.654 1431.51 Q105.043 1431.51 103.214 1435.08 Q101.409 1438.62 101.409 1445.75 Q101.409 1452.86 103.214 1456.42 Q105.043 1459.96 108.654 1459.96 Q112.288 1459.96 114.094 1456.42 Q115.922 1452.86 115.922 1445.75 Q115.922 1438.62 114.094 1435.08 Q112.288 1431.51 108.654 1431.51 M108.654 1427.81 Q114.464 1427.81 117.52 1432.42 Q120.598 1437 120.598 1445.75 Q120.598 1454.48 117.52 1459.08 Q114.464 1463.67 108.654 1463.67 Q102.844 1463.67 99.765 1459.08 Q96.7095 1454.48 96.7095 1445.75 Q96.7095 1437 99.765 1432.42 Q102.844 1427.81 108.654 1427.81 Z" fill="#000000" fill-rule="nonzero" fill-opacity="1" /><path clip-path="url(#clip470)" d="M138.816 1431.51 Q135.205 1431.51 133.376 1435.08 Q131.57 1438.62 131.57 1445.75 Q131.57 1452.86 133.376 1456.42 Q135.205 1459.96 138.816 1459.96 Q142.45 1459.96 144.256 1456.42 Q146.084 1452.86 146.084 1445.75 Q146.084 1438.62 144.256 1435.08 Q142.45 1431.51 138.816 1431.51 M138.816 1427.81 Q144.626 1427.81 147.681 1432.42 Q150.76 1437 150.76 1445.75 Q150.76 1454.48 147.681 1459.08 Q144.626 1463.67 138.816 1463.67 Q133.006 1463.67 129.927 1459.08 Q126.871 1454.48 126.871 1445.75 Q126.871 1437 129.927 1432.42 Q133.006 1427.81 138.816 1427.81 Z" fill="#000000" fill-rule="nonzero" fill-opacity="1" /><path clip-path="url(#clip470)" d="M64.6495 1157.08 Q61.0384 1157.08 59.2097 1160.65 Q57.4041 1164.19 57.4041 1171.32 Q57.4041 1178.42 59.2097 1181.99 Q61.0384 1185.53 64.6495 1185.53 Q68.2837 1185.53 70.0892 1181.99 Q71.9179 1178.42 71.9179 1171.32 Q71.9179 1164.19 70.0892 1160.65 Q68.2837 1157.08 64.6495 1157.08 M64.6495 1153.38 Q70.4596 1153.38 73.5152 1157.98 Q76.5938 1162.57 76.5938 1171.32 Q76.5938 1180.05 73.5152 1184.65 Q70.4596 1189.23 64.6495 1189.23 Q58.8393 1189.23 55.7606 1184.65 Q52.7051 1180.05 52.7051 1171.32 Q52.7051 1162.57 55.7606 1157.98 Q58.8393 1153.38 64.6495 1153.38 Z" fill="#000000" fill-rule="nonzero" fill-opacity="1" /><path clip-path="url(#clip470)" d="M84.8114 1182.68 L89.6956 1182.68 L89.6956 1188.56 L84.8114 1188.56 L84.8114 1182.68 Z" fill="#000000" fill-rule="nonzero" fill-opacity="1" /><path clip-path="url(#clip470)" d="M109.881 1157.08 Q106.27 1157.08 104.441 1160.65 Q102.635 1164.19 102.635 1171.32 Q102.635 1178.42 104.441 1181.99 Q106.27 1185.53 109.881 1185.53 Q113.515 1185.53 115.32 1181.99 Q117.149 1178.42 117.149 1171.32 Q117.149 1164.19 115.32 1160.65 Q113.515 1157.08 109.881 1157.08 M109.881 1153.38 Q115.691 1153.38 118.746 1157.98 Q121.825 1162.57 121.825 1171.32 Q121.825 1180.05 118.746 1184.65 Q115.691 1189.23 109.881 1189.23 Q104.071 1189.23 100.992 1184.65 Q97.9363 1180.05 97.9363 1171.32 Q97.9363 1162.57 100.992 1157.98 Q104.071 1153.38 109.881 1153.38 Z" fill="#000000" fill-rule="nonzero" fill-opacity="1" /><path clip-path="url(#clip470)" d="M130.853 1184.63 L138.492 1184.63 L138.492 1158.26 L130.182 1159.93 L130.182 1155.67 L138.445 1154 L143.121 1154 L143.121 1184.63 L150.76 1184.63 L150.76 1188.56 L130.853 1188.56 L130.853 1184.63 Z" fill="#000000" fill-rule="nonzero" fill-opacity="1" /><path clip-path="url(#clip470)" d="M65.0198 882.65 Q61.4087 882.65 59.58 886.215 Q57.7745 889.756 57.7745 896.886 Q57.7745 903.993 59.58 907.557 Q61.4087 911.099 65.0198 911.099 Q68.6541 911.099 70.4596 907.557 Q72.2883 903.993 72.2883 896.886 Q72.2883 889.756 70.4596 886.215 Q68.6541 882.65 65.0198 882.65 M65.0198 878.946 Q70.83 878.946 73.8855 883.553 Q76.9642 888.136 76.9642 896.886 Q76.9642 905.613 73.8855 910.219 Q70.83 914.803 65.0198 914.803 Q59.2097 914.803 56.131 910.219 Q53.0754 905.613 53.0754 896.886 Q53.0754 888.136 56.131 883.553 Q59.2097 878.946 65.0198 878.946 Z" fill="#000000" fill-rule="nonzero" fill-opacity="1" /><path clip-path="url(#clip470)" d="M85.1818 908.252 L90.066 908.252 L90.066 914.131 L85.1818 914.131 L85.1818 908.252 Z" fill="#000000" fill-rule="nonzero" fill-opacity="1" /><path clip-path="url(#clip470)" d="M110.251 882.65 Q106.64 882.65 104.811 886.215 Q103.006 889.756 103.006 896.886 Q103.006 903.993 104.811 907.557 Q106.64 911.099 110.251 911.099 Q113.885 911.099 115.691 907.557 Q117.52 903.993 117.52 896.886 Q117.52 889.756 115.691 886.215 Q113.885 882.65 110.251 882.65 M110.251 878.946 Q116.061 878.946 119.117 883.553 Q122.195 888.136 122.195 896.886 Q122.195 905.613 119.117 910.219 Q116.061 914.803 110.251 914.803 Q104.441 914.803 101.362 910.219 Q98.3067 905.613 98.3067 896.886 Q98.3067 888.136 101.362 883.553 Q104.441 878.946 110.251 878.946 Z" fill="#000000" fill-rule="nonzero" fill-opacity="1" /><path clip-path="url(#clip470)" d="M134.441 910.196 L150.76 910.196 L150.76 914.131 L128.816 914.131 L128.816 910.196 Q131.478 907.442 136.061 902.812 Q140.668 898.159 141.848 896.817 Q144.093 894.294 144.973 892.557 Q145.876 890.798 145.876 889.108 Q145.876 886.354 143.931 884.618 Q142.01 882.882 138.908 882.882 Q136.709 882.882 134.256 883.645 Q131.825 884.409 129.047 885.96 L129.047 881.238 Q131.871 880.104 134.325 879.525 Q136.779 878.946 138.816 878.946 Q144.186 878.946 147.38 881.632 Q150.575 884.317 150.575 888.807 Q150.575 890.937 149.765 892.858 Q148.978 894.756 146.871 897.349 Q146.293 898.02 143.191 901.238 Q140.089 904.432 134.441 910.196 Z" fill="#000000" fill-rule="nonzero" fill-opacity="1" /><path clip-path="url(#clip470)" d="M64.0708 608.218 Q60.4597 608.218 58.631 611.783 Q56.8254 615.324 56.8254 622.454 Q56.8254 629.56 58.631 633.125 Q60.4597 636.667 64.0708 636.667 Q67.705 636.667 69.5105 633.125 Q71.3392 629.56 71.3392 622.454 Q71.3392 615.324 69.5105 611.783 Q67.705 608.218 64.0708 608.218 M64.0708 604.514 Q69.8809 604.514 72.9365 609.121 Q76.0151 613.704 76.0151 622.454 Q76.0151 631.181 72.9365 635.787 Q69.8809 640.37 64.0708 640.37 Q58.2606 640.37 55.1819 635.787 Q52.1264 631.181 52.1264 622.454 Q52.1264 613.704 55.1819 609.121 Q58.2606 604.514 64.0708 604.514 Z" fill="#000000" fill-rule="nonzero" fill-opacity="1" /><path clip-path="url(#clip470)" d="M84.2327 633.82 L89.1169 633.82 L89.1169 639.699 L84.2327 639.699 L84.2327 633.82 Z" fill="#000000" fill-rule="nonzero" fill-opacity="1" /><path clip-path="url(#clip470)" d="M109.302 608.218 Q105.691 608.218 103.862 611.783 Q102.057 615.324 102.057 622.454 Q102.057 629.56 103.862 633.125 Q105.691 636.667 109.302 636.667 Q112.936 636.667 114.742 633.125 Q116.57 629.56 116.57 622.454 Q116.57 615.324 114.742 611.783 Q112.936 608.218 109.302 608.218 M109.302 604.514 Q115.112 604.514 118.168 609.121 Q121.246 613.704 121.246 622.454 Q121.246 631.181 118.168 635.787 Q115.112 640.37 109.302 640.37 Q103.492 640.37 100.413 635.787 Q97.3576 631.181 97.3576 622.454 Q97.3576 613.704 100.413 609.121 Q103.492 604.514 109.302 604.514 Z" fill="#000000" fill-rule="nonzero" fill-opacity="1" /><path clip-path="url(#clip470)" d="M143.631 621.065 Q146.987 621.783 148.862 624.051 Q150.76 626.32 150.76 629.653 Q150.76 634.769 147.242 637.57 Q143.723 640.37 137.242 640.37 Q135.066 640.37 132.751 639.931 Q130.459 639.514 128.006 638.658 L128.006 634.144 Q129.95 635.278 132.265 635.857 Q134.58 636.435 137.103 636.435 Q141.501 636.435 143.793 634.699 Q146.107 632.963 146.107 629.653 Q146.107 626.597 143.955 624.884 Q141.825 623.148 138.006 623.148 L133.978 623.148 L133.978 619.306 L138.191 619.306 Q141.64 619.306 143.468 617.94 Q145.297 616.551 145.297 613.959 Q145.297 611.297 143.399 609.885 Q141.524 608.449 138.006 608.449 Q136.084 608.449 133.885 608.866 Q131.686 609.283 129.047 610.162 L129.047 605.996 Q131.709 605.255 134.024 604.885 Q136.362 604.514 138.422 604.514 Q143.746 604.514 146.848 606.945 Q149.95 609.352 149.95 613.472 Q149.95 616.343 148.306 618.334 Q146.663 620.301 143.631 621.065 Z" fill="#000000" fill-rule="nonzero" fill-opacity="1" /><path clip-path="url(#clip470)" d="M62.9365 333.786 Q59.3254 333.786 57.4967 337.351 Q55.6912 340.892 55.6912 348.022 Q55.6912 355.128 57.4967 358.693 Q59.3254 362.235 62.9365 362.235 Q66.5707 362.235 68.3763 358.693 Q70.205 355.128 70.205 348.022 Q70.205 340.892 68.3763 337.351 Q66.5707 333.786 62.9365 333.786 M62.9365 330.082 Q68.7467 330.082 71.8022 334.688 Q74.8809 339.272 74.8809 348.022 Q74.8809 356.749 71.8022 361.355 Q68.7467 365.938 62.9365 365.938 Q57.1264 365.938 54.0477 361.355 Q50.9921 356.749 50.9921 348.022 Q50.9921 339.272 54.0477 334.688 Q57.1264 330.082 62.9365 330.082 Z" fill="#000000" fill-rule="nonzero" fill-opacity="1" /><path clip-path="url(#clip470)" d="M83.0984 359.387 L87.9827 359.387 L87.9827 365.267 L83.0984 365.267 L83.0984 359.387 Z" fill="#000000" fill-rule="nonzero" fill-opacity="1" /><path clip-path="url(#clip470)" d="M108.168 333.786 Q104.557 333.786 102.728 337.351 Q100.922 340.892 100.922 348.022 Q100.922 355.128 102.728 358.693 Q104.557 362.235 108.168 362.235 Q111.802 362.235 113.608 358.693 Q115.436 355.128 115.436 348.022 Q115.436 340.892 113.608 337.351 Q111.802 333.786 108.168 333.786 M108.168 330.082 Q113.978 330.082 117.033 334.688 Q120.112 339.272 120.112 348.022 Q120.112 356.749 117.033 361.355 Q113.978 365.938 108.168 365.938 Q102.358 365.938 99.2789 361.355 Q96.2234 356.749 96.2234 348.022 Q96.2234 339.272 99.2789 334.688 Q102.358 330.082 108.168 330.082 Z" fill="#000000" fill-rule="nonzero" fill-opacity="1" /><path clip-path="url(#clip470)" d="M141.177 334.781 L129.371 353.23 L141.177 353.23 L141.177 334.781 M139.95 330.707 L145.83 330.707 L145.83 353.23 L150.76 353.23 L150.76 357.119 L145.83 357.119 L145.83 365.267 L141.177 365.267 L141.177 357.119 L125.575 357.119 L125.575 352.605 L139.95 330.707 Z" fill="#000000" fill-rule="nonzero" fill-opacity="1" /><path clip-path="url(#clip470)" d="M64.418 59.3536 Q60.8069 59.3536 58.9782 62.9184 Q57.1726 66.46 57.1726 73.5896 Q57.1726 80.696 58.9782 84.2608 Q60.8069 87.8025 64.418 87.8025 Q68.0522 87.8025 69.8578 84.2608 Q71.6865 80.696 71.6865 73.5896 Q71.6865 66.46 69.8578 62.9184 Q68.0522 59.3536 64.418 59.3536 M64.418 55.6499 Q70.2281 55.6499 73.2837 60.2563 Q76.3624 64.8396 76.3624 73.5896 Q76.3624 82.3164 73.2837 86.9229 Q70.2281 91.5062 64.418 91.5062 Q58.6078 91.5062 55.5291 86.9229 Q52.4736 82.3164 52.4736 73.5896 Q52.4736 64.8396 55.5291 60.2563 Q58.6078 55.6499 64.418 55.6499 Z" fill="#000000" fill-rule="nonzero" fill-opacity="1" /><path clip-path="url(#clip470)" d="M84.5799 84.9553 L89.4641 84.9553 L89.4641 90.8349 L84.5799 90.8349 L84.5799 84.9553 Z" fill="#000000" fill-rule="nonzero" fill-opacity="1" /><path clip-path="url(#clip470)" d="M109.649 59.3536 Q106.038 59.3536 104.209 62.9184 Q102.404 66.46 102.404 73.5896 Q102.404 80.696 104.209 84.2608 Q106.038 87.8025 109.649 87.8025 Q113.283 87.8025 115.089 84.2608 Q116.918 80.696 116.918 73.5896 Q116.918 66.46 115.089 62.9184 Q113.283 59.3536 109.649 59.3536 M109.649 55.6499 Q115.459 55.6499 118.515 60.2563 Q121.594 64.8396 121.594 73.5896 Q121.594 82.3164 118.515 86.9229 Q115.459 91.5062 109.649 91.5062 Q103.839 91.5062 100.76 86.9229 Q97.7048 82.3164 97.7048 73.5896 Q97.7048 64.8396 100.76 60.2563 Q103.839 55.6499 109.649 55.6499 Z" fill="#000000" fill-rule="nonzero" fill-opacity="1" /><path clip-path="url(#clip470)" d="M129.857 56.2749 L148.214 56.2749 L148.214 60.21 L134.14 60.21 L134.14 68.6822 Q135.158 68.335 136.177 68.173 Q137.195 67.9878 138.214 67.9878 Q144.001 67.9878 147.38 71.159 Q150.76 74.3303 150.76 79.747 Q150.76 85.3256 147.288 88.4275 Q143.816 91.5062 137.496 91.5062 Q135.32 91.5062 133.052 91.1358 Q130.807 90.7654 128.399 90.0247 L128.399 85.3256 Q130.482 86.4599 132.705 87.0154 Q134.927 87.571 137.404 87.571 Q141.408 87.571 143.746 85.4645 Q146.084 83.3581 146.084 79.747 Q146.084 76.1359 143.746 74.0294 Q141.408 71.9229 137.404 71.9229 Q135.529 71.9229 133.654 72.3396 Q131.802 72.7563 129.857 73.6359 L129.857 56.2749 Z" fill="#000000" fill-rule="nonzero" fill-opacity="1" /><polyline clip-path="url(#clip472)" style="stroke:#009af9; stroke-linecap:round; stroke-linejoin:round; stroke-width:4; stroke-opacity:1; fill:none" points="248.062,1445.72 258.33,1445.72 268.598,1445.72 278.867,1445.72 289.135,1445.72 299.403,1445.72 309.672,1445.72 319.94,1445.72 330.208,1445.72 340.477,1445.72 350.745,1445.72 361.013,1445.72 371.282,1445.72 381.55,1445.72 391.818,1445.72 402.086,1445.72 412.355,1445.72 422.623,1445.72 432.891,1445.72 443.16,1445.72 453.428,1445.72 463.696,1445.72 473.965,1445.72 484.233,1445.72 494.501,1445.72 504.769,1445.72 515.038,1445.72 525.306,1445.72 535.574,1445.72 545.843,1445.72 556.111,1445.72 566.379,1445.72 576.648,1445.72 586.916,1445.72 597.184,1445.72 607.452,1445.72 617.721,1445.72 627.989,1445.72 638.257,1445.72 648.526,1445.72 658.794,1445.72 669.062,1445.72 679.331,1445.72 689.599,1445.72 699.867,1445.72 710.136,1445.72 720.404,1445.72 730.672,1445.72 740.94,1445.72 751.209,1445.72 761.477,1445.72 771.745,1444.2 782.014,1439.64 792.282,1435.42 802.55,1431.94 812.819,1429.12 823.087,1427.22 833.355,1424.41 843.623,1422.45 853.892,1420.88 864.16,1417.83 874.428,1414.87 884.697,1411.09 894.965,1407.79 905.233,1402.17 915.502,1398.17 925.77,1392.1 936.038,1385.75 946.306,1378.58 956.575,1370.33 966.843,1360.9 977.111,1355.27 987.38,1352.16 997.648,1350.09 1007.92,1352.83 1018.18,1353.6 1028.45,1349.19 1038.72,1343.85 1048.99,1334.63 1059.26,1323.71 1069.53,1315.78 1079.79,1310.89 1090.06,1307.45 1100.33,1302.31 1110.6,1291.33 1120.87,1298.92 1131.14,1306.22 1141.4,1306.71 1151.67,1308.63 1161.94,1308.82 1172.21,1309.28 1182.48,1311.65 1192.75,1309.95 1203.01,1309.9 1213.28,1308.87 1223.55,1308.53 1233.82,1309.26 1244.09,1307.47 1254.36,1314.7 1264.62,1316.3 1274.89,1316.68 1285.16,1313.35 1295.43,1311.93 1305.7,1312.36 1315.97,1309.87 1326.23,1310.1 1336.5,1308.85 1346.77,1309.43 1357.04,1308.64 1367.31,1307.38 1377.58,1307.43 1387.84,1303.59 1398.11,1303.76 1408.38,1300.11 1418.65,1294.8 1428.92,1281.67 1439.19,1278.25 1449.45,1275.32 1459.72,1272 1469.99,1270.86 1480.26,1269.21 1490.53,1264.49 1500.79,1263.08 1511.06,1261.71 1521.33,1257.2 1531.6,1254.21 1541.87,1255.88 1552.14,1249.19 1562.4,1249.19 1572.67,1245.23 1582.94,1239.62 1593.21,1237.62 1603.48,1238.91 1613.75,1232.28 1624.01,1228.28 1634.28,1227.27 1644.55,1224.7 1654.82,1216.67 1665.09,1217.39 1675.36,1210.62 1685.62,1208.5 1695.89,1204.5 1706.16,1199.91 1716.43,1193.49 1726.7,1193.29 1736.97,1187.07 1747.23,1181.18 1757.5,1179.34 1767.77,1173.54 1778.04,1165.22 1788.31,1161.94 1798.58,1159.35 1808.84,1148.31 1819.11,1142.43 1829.38,1140.95 1839.65,1132.84 1849.92,1120.99 1860.19,1125.59 1870.45,1104.3 1880.72,1102.49 1890.99,1084.12 1901.26,1084.3 1911.53,1065.95 1921.8,1057.74 1932.06,1045.4 1942.33,1030.23 1952.6,1012.41 1962.87,992.416 1973.14,966.211 1983.41,949.003 1993.67,908.911 2003.94,850.112 2014.21,775.58 2024.48,583.274 2034.75,470.881 2045.01,684.507 2055.28,691.123 2065.55,1174.38 2075.82,1209.12 2086.09,1228.1 2096.36,1241.57 2106.62,1317.1 2116.89,1412.89 2127.16,1444.19 2137.43,1445.72 2147.7,1445.72 2157.97,1445.72 2168.23,1445.72 2178.5,1445.72 2188.77,1445.72 2199.04,1445.72 2209.31,1445.72 2219.58,1445.72 2229.84,1445.72 2240.11,1445.72 2250.38,1445.72 2260.65,1445.72 2270.92,1445.72 2281.19,1445.72 2291.45,1445.72 "/>
<polyline clip-path="url(#clip472)" style="stroke:#e26f46; stroke-linecap:round; stroke-linejoin:round; stroke-width:4; stroke-opacity:1; fill:none" points="248.062,1445.72 258.33,1445.72 268.598,1445.72 278.867,1445.72 289.135,1445.72 299.403,1445.72 309.672,1445.72 319.94,1445.72 330.208,1445.72 340.477,1445.72 350.745,1445.72 361.013,1445.72 371.282,1445.72 381.55,1445.72 391.818,1445.72 402.086,1445.72 412.355,1445.72 422.623,1445.72 432.891,1445.72 443.16,1445.72 453.428,1445.72 463.696,1445.72 473.965,1445.72 484.233,1445.72 494.501,1445.72 504.769,1445.72 515.038,1445.72 525.306,1445.72 535.574,1445.72 545.843,1445.72 556.111,1445.72 566.379,1445.72 576.648,1445.72 586.916,1445.72 597.184,1445.72 607.452,1445.72 617.721,1445.72 627.989,1445.72 638.257,1445.72 648.526,1445.72 658.794,1445.72 669.062,1445.72 679.331,1445.72 689.599,1445.72 699.867,1445.72 710.136,1445.72 720.404,1445.72 730.672,1445.72 740.94,1445.72 751.209,1445.72 761.477,1445.72 771.745,1445.72 782.014,1445.72 792.282,1445.72 802.55,1445.72 812.819,1445.72 823.087,1445.72 833.355,1445.72 843.623,1445.72 853.892,1445.16 864.16,1437.57 874.428,1430.27 884.697,1423.61 894.965,1416.74 905.233,1410.1 915.502,1402.34 925.77,1394.35 936.038,1386.52 946.306,1377.53 956.575,1368.48 966.843,1360.93 977.111,1354.14 987.38,1351.04 997.648,1350.36 1007.92,1354.12 1018.18,1350.05 1028.45,1344.06 1038.72,1335.76 1048.99,1323.72 1059.26,1312.32 1069.53,1304.75 1079.79,1297.22 1090.06,1292.79 1100.33,1284.84 1110.6,1273.01 1120.87,1285.59 1131.14,1291.82 1141.4,1295.26 1151.67,1297.03 1161.94,1298.39 1172.21,1299.23 1182.48,1302.52 1192.75,1300.01 1203.01,1301 1213.28,1299.07 1223.55,1301 1233.82,1304.25 1244.09,1312.12 1254.36,1312.9 1264.62,1312 1274.89,1310.97 1285.16,1310.98 1295.43,1308.1 1305.7,1308.53 1315.97,1306.48 1326.23,1304.22 1336.5,1308.93 1346.77,1307.05 1357.04,1303.49 1367.31,1306.91 1377.58,1307.53 1387.84,1305.64 1398.11,1304.41 1408.38,1298.39 1418.65,1283.86 1428.92,1273.29 1439.19,1273.35 1449.45,1269.46 1459.72,1269.03 1469.99,1266.42 1480.26,1263.52 1490.53,1261.92 1500.79,1260.63 1511.06,1258.71 1521.33,1254.39 1531.6,1253.55 1541.87,1249.45 1552.14,1250.55 1562.4,1244.11 1572.67,1244.19 1582.94,1238.95 1593.21,1237.24 1603.48,1233.12 1613.75,1230.23 1624.01,1229.25 1634.28,1226.01 1644.55,1222.02 1654.82,1218.77 1665.09,1213.28 1675.36,1211.42 1685.62,1209.44 1695.89,1204.25 1706.16,1202.55 1716.43,1193.85 1726.7,1193.15 1736.97,1186.8 1747.23,1187.81 1757.5,1174.65 1767.77,1174.16 1778.04,1173.06 1788.31,1156.7 1798.58,1163.88 1808.84,1148.32 1819.11,1140.88 1829.38,1143.75 1839.65,1126.57 1849.92,1128.28 1860.19,1106.13 1870.45,1111.55 1880.72,1090.55 1890.99,1094.94 1901.26,1069.25 1911.53,1064.3 1921.8,1043.98 1932.06,1041.13 1942.33,1007.81 1952.6,989.275 1962.87,977.065 1973.14,938.315 1983.41,908.679 1993.67,855.525 2003.94,787.706 2014.21,682.661 2024.48,441.71 2034.75,87.9763 2045.01,452.548 2055.28,985.953 2065.55,1353.02 2075.82,1422.16 2086.09,1445.72 2096.36,1445.72 2106.62,1445.72 2116.89,1445.72 2127.16,1445.72 2137.43,1445.72 2147.7,1445.72 2157.97,1445.72 2168.23,1445.72 2178.5,1445.72 2188.77,1445.72 2199.04,1445.72 2209.31,1445.72 2219.58,1445.72 2229.84,1445.72 2240.11,1445.72 2250.38,1445.72 2260.65,1445.72 2270.92,1445.72 2281.19,1445.72 2291.45,1445.72 "/>
<polyline clip-path="url(#clip472)" style="stroke:#3da44d; stroke-linecap:round; stroke-linejoin:round; stroke-width:4; stroke-opacity:1; fill:none" points="248.062,1445.72 258.33,1445.72 268.598,1445.72 278.867,1445.72 289.135,1445.72 299.403,1445.72 309.672,1445.72 319.94,1445.72 330.208,1445.72 340.477,1445.72 350.745,1445.72 361.013,1445.72 371.282,1445.72 381.55,1445.72 391.818,1445.72 402.086,1445.72 412.355,1445.72 422.623,1445.72 432.891,1445.72 443.16,1445.72 453.428,1445.72 463.696,1445.72 473.965,1445.72 484.233,1445.72 494.501,1445.72 504.769,1445.72 515.038,1445.72 525.306,1445.72 535.574,1445.72 545.843,1445.72 556.111,1445.72 566.379,1445.72 576.648,1445.72 586.916,1445.72 597.184,1445.72 607.452,1445.72 617.721,1445.72 627.989,1445.72 638.257,1445.72 648.526,1445.72 658.794,1445.72 669.062,1445.72 679.331,1445.72 689.599,1445.72 699.867,1442.16 710.136,1439.71 720.404,1437.4 730.672,1435.17 740.94,1433.75 751.209,1432.35 761.477,1430.71 771.745,1429.39 782.014,1427.22 792.282,1426.36 802.55,1424.38 812.819,1423.18 823.087,1421.56 833.355,1419.94 843.623,1417.87 853.892,1416.5 864.16,1415.12 874.428,1413.66 884.697,1411.31 894.965,1409.92 905.233,1408.11 915.502,1406.15 925.77,1404.45 936.038,1402.64 946.306,1400.83 956.575,1398.97 966.843,1396.61 977.111,1394.98 987.38,1392.63 997.648,1390.64 1007.92,1388.92 1018.18,1386.39 1028.45,1384.12 1038.72,1382.12 1048.99,1380.07 1059.26,1377.34 1069.53,1375.19 1079.79,1372.97 1090.06,1370.69 1100.33,1367.81 1110.6,1365.17 1120.87,1363.06 1131.14,1360.22 1141.4,1357.92 1151.67,1354.9 1161.94,1352.88 1172.21,1350.18 1182.48,1346.76 1192.75,1344.37 1203.01,1340.55 1213.28,1339.18 1223.55,1335.96 1233.82,1331 1244.09,1329.49 1254.36,1327.3 1264.62,1323.07 1274.89,1320.03 1285.16,1315.93 1295.43,1314.17 1305.7,1310.29 1315.97,1306.76 1326.23,1303.91 1336.5,1298.57 1346.77,1298.51 1357.04,1292.72 1367.31,1289.37 1377.58,1285.72 1387.84,1282.36 1398.11,1278.37 1408.38,1275.49 1418.65,1270.4 1428.92,1272.9 1439.19,1277.76 1449.45,1279.81 1459.72,1281.23 1469.99,1281.5 1480.26,1280.47 1490.53,1281.55 1500.79,1278.07 1511.06,1277.8 1521.33,1276.43 1531.6,1274.66 1541.87,1273.8 1552.14,1271.23 1562.4,1268.58 1572.67,1266.54 1582.94,1262.63 1593.21,1259.91 1603.48,1257.35 1613.75,1252.98 1624.01,1249.67 1634.28,1246.49 1644.55,1240.54 1654.82,1236.2 1665.09,1230.17 1675.36,1226.82 1685.62,1220.16 1695.89,1217.16 1706.16,1208.34 1716.43,1206.4 1726.7,1193.39 1736.97,1196.31 1747.23,1183.62 1757.5,1180.87 1767.77,1167.62 1778.04,1164.31 1788.31,1155.75 1798.58,1145.12 1808.84,1142.36 1819.11,1126.83 1829.38,1110.35 1839.65,1087.39 1849.92,1070.89 1860.19,1052.98 1870.45,1049.5 1880.72,1045.76 1890.99,1039.32 1901.26,1035.69 1911.53,1040.56 1921.8,1030.25 1932.06,1022.61 1942.33,1033.36 1952.6,1020.22 1962.87,1027.77 1973.14,1016.53 1983.41,1025.97 1993.67,1015.68 2003.94,1025.06 2014.21,1012.05 2024.48,1029.19 2034.75,1022.15 2045.01,1029.32 2055.28,1031.8 2065.55,1030.47 2075.82,1043.56 2086.09,1038.03 2096.36,1057.22 2106.62,1060.57 2116.89,1069.51 2127.16,1092.91 2137.43,1097.51 2147.7,1112.7 2157.97,1137.93 2168.23,1169.81 2178.5,1205.15 2188.77,1285.47 2199.04,1434.5 2209.31,1445.72 2219.58,1445.72 2229.84,1445.72 2240.11,1445.72 2250.38,1445.72 2260.65,1445.72 2270.92,1445.72 2281.19,1445.72 2291.45,1445.72 "/>
<polyline clip-path="url(#clip472)" style="stroke:#c271d2; stroke-linecap:round; stroke-linejoin:round; stroke-width:4; stroke-opacity:1; fill:none" points="248.062,1445.72 258.33,1445.72 268.598,1445.72 278.867,1445.72 289.135,1445.72 299.403,1445.72 309.672,1445.72 319.94,1445.72 330.208,1445.72 340.477,1445.72 350.745,1445.72 361.013,1445.72 371.282,1445.72 381.55,1445.72 391.818,1445.72 402.086,1445.72 412.355,1445.72 422.623,1445.72 432.891,1445.72 443.16,1445.72 453.428,1445.72 463.696,1445.72 473.965,1445.72 484.233,1445.72 494.501,1445.72 504.769,1445.72 515.038,1445.72 525.306,1445.72 535.574,1445.72 545.843,1445.72 556.111,1445.72 566.379,1445.72 576.648,1445.72 586.916,1445.72 597.184,1445.72 607.452,1445.72 617.721,1445.72 627.989,1445.72 638.257,1445.72 648.526,1445.72 658.794,1445.72 669.062,1445.72 679.331,1445.72 689.599,1445.72 699.867,1445.72 710.136,1445.72 720.404,1445.72 730.672,1445.72 740.94,1445.72 751.209,1445.72 761.477,1445.72 771.745,1445.72 782.014,1445.72 792.282,1445.72 802.55,1445.72 812.819,1445.72 823.087,1445.72 833.355,1445.72 843.623,1444.9 853.892,1437.21 864.16,1432.56 874.428,1429.01 884.697,1425.55 894.965,1422.4 905.233,1419.12 915.502,1416.6 925.77,1413.58 936.038,1410.85 946.306,1407.94 956.575,1405.22 966.843,1402.43 977.111,1399.71 987.38,1396.55 997.648,1393.94 1007.92,1390.68 1018.18,1389.03 1028.45,1384.71 1038.72,1382.38 1048.99,1378.93 1059.26,1376.48 1069.53,1373.73 1079.79,1369.73 1090.06,1367.71 1100.33,1363.43 1110.6,1360.13 1120.87,1357.69 1131.14,1353.65 1141.4,1350.33 1151.67,1347.32 1161.94,1344.29 1172.21,1340.49 1182.48,1336.61 1192.75,1333.64 1203.01,1329.21 1213.28,1326.24 1223.55,1322.66 1233.82,1318.95 1244.09,1314.7 1254.36,1310.42 1264.62,1307.8 1274.89,1303.26 1285.16,1299.28 1295.43,1295 1305.7,1291.59 1315.97,1286.77 1326.23,1283.01 1336.5,1279.43 1346.77,1274.01 1357.04,1271.68 1367.31,1266.51 1377.58,1262.91 1387.84,1255.77 1398.11,1253.59 1408.38,1248.09 1418.65,1243.39 1428.92,1247.41 1439.19,1254.73 1449.45,1258.68 1459.72,1260.59 1469.99,1261.83 1480.26,1262.93 1490.53,1262.15 1500.79,1261.7 1511.06,1261 1521.33,1259.42 1531.6,1259.64 1541.87,1256.4 1552.14,1256.36 1562.4,1253.27 1572.67,1251.5 1582.94,1248.57 1593.21,1244.82 1603.48,1242.27 1613.75,1237.48 1624.01,1234.04 1634.28,1230.49 1644.55,1225.62 1654.82,1219.1 1665.09,1214.25 1675.36,1209.1 1685.62,1205.37 1695.89,1195.17 1706.16,1193.32 1716.43,1185.01 1726.7,1174.29 1736.97,1174.27 1747.23,1160.79 1757.5,1156.23 1767.77,1141.53 1778.04,1137.26 1788.31,1127.88 1798.58,1116.09 1808.84,1107.42 1819.11,1091.62 1829.38,1069.1 1839.65,1055.6 1849.92,1013.68 1860.19,1000.3 1870.45,994.563 1880.72,992.211 1890.99,990.122 1901.26,986.085 1911.53,981.308 1921.8,978.539 1932.06,992.101 1942.33,978.216 1952.6,979.576 1962.87,990.417 1973.14,975.202 1983.41,995.645 1993.67,987.268 2003.94,1001.47 2014.21,991.885 2024.48,1015.92 2034.75,1004.02 2045.01,1040.42 2055.28,1023.1 2065.55,1058.91 2075.82,1058.53 2086.09,1089.87 2096.36,1098.05 2106.62,1132.88 2116.89,1154.7 2127.16,1189.98 2137.43,1243.04 2147.7,1311.52 2157.97,1437.51 2168.23,1445.72 2178.5,1445.72 2188.77,1445.72 2199.04,1445.72 2209.31,1445.72 2219.58,1445.72 2229.84,1445.72 2240.11,1445.72 2250.38,1445.72 2260.65,1445.72 2270.92,1445.72 2281.19,1445.72 2291.45,1445.72 "/>
<path clip-path="url(#clip470)" d="M258.96 354.418 L956.321 354.418 L956.321 95.2176 L258.96 95.2176  Z" fill="#ffffff" fill-rule="evenodd" fill-opacity="1"/>
<polyline clip-path="url(#clip470)" style="stroke:#000000; stroke-linecap:round; stroke-linejoin:round; stroke-width:4; stroke-opacity:1; fill:none" points="258.96,354.418 956.321,354.418 956.321,95.2176 258.96,95.2176 258.96,354.418 "/>
<polyline clip-path="url(#clip470)" style="stroke:#009af9; stroke-linecap:round; stroke-linejoin:round; stroke-width:4; stroke-opacity:1; fill:none" points="283.027,147.058 427.426,147.058 "/>
<path clip-path="url(#clip470)" d="M458.599 129.778 L463.275 129.778 L463.275 161.93 Q463.275 168.18 460.891 171.004 Q458.53 173.828 453.275 173.828 L451.493 173.828 L451.493 169.893 L452.951 169.893 Q456.053 169.893 457.326 168.157 Q458.599 166.421 458.599 161.93 L458.599 129.778 Z" fill="#000000" fill-rule="nonzero" fill-opacity="1" /><path clip-path="url(#clip470)" d="M482.442 141.398 Q479.016 141.398 477.025 144.083 Q475.034 146.745 475.034 151.398 Q475.034 156.051 477.002 158.736 Q478.993 161.398 482.442 161.398 Q485.845 161.398 487.835 158.713 Q489.826 156.027 489.826 151.398 Q489.826 146.791 487.835 144.106 Q485.845 141.398 482.442 141.398 M482.442 137.787 Q487.997 137.787 491.169 141.398 Q494.34 145.009 494.34 151.398 Q494.34 157.764 491.169 161.398 Q487.997 165.009 482.442 165.009 Q476.863 165.009 473.692 161.398 Q470.544 157.764 470.544 151.398 Q470.544 145.009 473.692 141.398 Q476.863 137.787 482.442 137.787 Z" fill="#000000" fill-rule="nonzero" fill-opacity="1" /><path clip-path="url(#clip470)" d="M522.951 148.689 L522.951 164.338 L518.692 164.338 L518.692 148.828 Q518.692 145.148 517.256 143.319 Q515.821 141.49 512.951 141.49 Q509.502 141.49 507.511 143.69 Q505.52 145.889 505.52 149.685 L505.52 164.338 L501.238 164.338 L501.238 128.319 L505.52 128.319 L505.52 142.44 Q507.048 140.102 509.108 138.944 Q511.192 137.787 513.9 137.787 Q518.368 137.787 520.659 140.565 Q522.951 143.319 522.951 148.689 Z" fill="#000000" fill-rule="nonzero" fill-opacity="1" /><path clip-path="url(#clip470)" d="M543.229 151.305 Q538.067 151.305 536.076 152.486 Q534.085 153.666 534.085 156.514 Q534.085 158.782 535.567 160.125 Q537.071 161.444 539.641 161.444 Q543.182 161.444 545.312 158.944 Q547.465 156.421 547.465 152.254 L547.465 151.305 L543.229 151.305 M551.724 149.546 L551.724 164.338 L547.465 164.338 L547.465 160.402 Q546.006 162.763 543.83 163.898 Q541.654 165.009 538.506 165.009 Q534.525 165.009 532.164 162.787 Q529.826 160.541 529.826 156.791 Q529.826 152.416 532.742 150.194 Q535.682 147.972 541.492 147.972 L547.465 147.972 L547.465 147.555 Q547.465 144.615 545.52 143.018 Q543.599 141.398 540.104 141.398 Q537.881 141.398 535.775 141.93 Q533.668 142.463 531.724 143.527 L531.724 139.592 Q534.062 138.69 536.261 138.25 Q538.46 137.787 540.543 137.787 Q546.168 137.787 548.946 140.703 Q551.724 143.62 551.724 149.546 Z" fill="#000000" fill-rule="nonzero" fill-opacity="1" /><path clip-path="url(#clip470)" d="M582.048 148.689 L582.048 164.338 L577.789 164.338 L577.789 148.828 Q577.789 145.148 576.353 143.319 Q574.918 141.49 572.048 141.49 Q568.599 141.49 566.608 143.69 Q564.617 145.889 564.617 149.685 L564.617 164.338 L560.335 164.338 L560.335 138.412 L564.617 138.412 L564.617 142.44 Q566.145 140.102 568.205 138.944 Q570.289 137.787 572.997 137.787 Q577.464 137.787 579.756 140.565 Q582.048 143.319 582.048 148.689 Z" fill="#000000" fill-rule="nonzero" fill-opacity="1" /><path clip-path="url(#clip470)" d="M612.094 148.689 L612.094 164.338 L607.835 164.338 L607.835 148.828 Q607.835 145.148 606.4 143.319 Q604.964 141.49 602.094 141.49 Q598.645 141.49 596.654 143.69 Q594.663 145.889 594.663 149.685 L594.663 164.338 L590.381 164.338 L590.381 138.412 L594.663 138.412 L594.663 142.44 Q596.191 140.102 598.251 138.944 Q600.335 137.787 603.043 137.787 Q607.511 137.787 609.802 140.565 Q612.094 143.319 612.094 148.689 Z" fill="#000000" fill-rule="nonzero" fill-opacity="1" /><path clip-path="url(#clip470)" d="M637.117 139.176 L637.117 143.203 Q635.311 142.277 633.367 141.815 Q631.423 141.352 629.339 141.352 Q626.168 141.352 624.571 142.324 Q622.997 143.296 622.997 145.24 Q622.997 146.722 624.131 147.578 Q625.265 148.412 628.691 149.176 L630.149 149.5 Q634.686 150.472 636.585 152.254 Q638.506 154.014 638.506 157.185 Q638.506 160.796 635.635 162.902 Q632.788 165.009 627.788 165.009 Q625.705 165.009 623.436 164.592 Q621.191 164.199 618.691 163.388 L618.691 158.99 Q621.052 160.217 623.344 160.842 Q625.636 161.444 627.881 161.444 Q630.89 161.444 632.51 160.426 Q634.131 159.384 634.131 157.509 Q634.131 155.773 632.95 154.847 Q631.793 153.921 627.835 153.064 L626.353 152.717 Q622.395 151.884 620.636 150.171 Q618.876 148.435 618.876 145.426 Q618.876 141.768 621.469 139.778 Q624.061 137.787 628.83 137.787 Q631.191 137.787 633.274 138.134 Q635.358 138.481 637.117 139.176 Z" fill="#000000" fill-rule="nonzero" fill-opacity="1" /><path clip-path="url(#clip470)" d="M667.464 150.31 L667.464 152.393 L647.881 152.393 Q648.159 156.791 650.52 159.106 Q652.904 161.398 657.14 161.398 Q659.594 161.398 661.885 160.796 Q664.2 160.194 666.469 158.99 L666.469 163.018 Q664.177 163.99 661.77 164.5 Q659.362 165.009 656.885 165.009 Q650.682 165.009 647.047 161.398 Q643.436 157.787 643.436 151.629 Q643.436 145.264 646.862 141.537 Q650.311 137.787 656.145 137.787 Q661.376 137.787 664.408 141.166 Q667.464 144.523 667.464 150.31 M663.205 149.06 Q663.158 145.565 661.237 143.481 Q659.339 141.398 656.191 141.398 Q652.626 141.398 650.473 143.412 Q648.344 145.426 648.02 149.083 L663.205 149.06 Z" fill="#000000" fill-rule="nonzero" fill-opacity="1" /><path clip-path="url(#clip470)" d="M696.006 148.689 L696.006 164.338 L691.746 164.338 L691.746 148.828 Q691.746 145.148 690.311 143.319 Q688.876 141.49 686.006 141.49 Q682.557 141.49 680.566 143.69 Q678.575 145.889 678.575 149.685 L678.575 164.338 L674.293 164.338 L674.293 138.412 L678.575 138.412 L678.575 142.44 Q680.103 140.102 682.163 138.944 Q684.246 137.787 686.955 137.787 Q691.422 137.787 693.714 140.565 Q696.006 143.319 696.006 148.689 Z" fill="#000000" fill-rule="nonzero" fill-opacity="1" /><path clip-path="url(#clip470)" d="M704.107 128.319 L713.922 128.319 L713.922 131.629 L708.367 131.629 L708.367 167.277 L713.922 167.277 L713.922 170.588 L704.107 170.588 L704.107 128.319 Z" fill="#000000" fill-rule="nonzero" fill-opacity="1" /><path clip-path="url(#clip470)" d="M727.209 131.051 L727.209 138.412 L735.982 138.412 L735.982 141.722 L727.209 141.722 L727.209 155.796 Q727.209 158.967 728.066 159.87 Q728.945 160.773 731.607 160.773 L735.982 160.773 L735.982 164.338 L731.607 164.338 Q726.677 164.338 724.802 162.509 Q722.927 160.657 722.927 155.796 L722.927 141.722 L719.802 141.722 L719.802 138.412 L722.927 138.412 L722.927 131.051 L727.209 131.051 Z" fill="#000000" fill-rule="nonzero" fill-opacity="1" /><path clip-path="url(#clip470)" d="M763.135 148.689 L763.135 164.338 L758.876 164.338 L758.876 148.828 Q758.876 145.148 757.44 143.319 Q756.005 141.49 753.135 141.49 Q749.686 141.49 747.695 143.69 Q745.704 145.889 745.704 149.685 L745.704 164.338 L741.422 164.338 L741.422 128.319 L745.704 128.319 L745.704 142.44 Q747.232 140.102 749.292 138.944 Q751.376 137.787 754.084 137.787 Q758.551 137.787 760.843 140.565 Q763.135 143.319 763.135 148.689 Z" fill="#000000" fill-rule="nonzero" fill-opacity="1" /><path clip-path="url(#clip470)" d="M771.63 138.412 L775.889 138.412 L775.889 164.338 L771.63 164.338 L771.63 138.412 M771.63 128.319 L775.889 128.319 L775.889 133.713 L771.63 133.713 L771.63 128.319 Z" fill="#000000" fill-rule="nonzero" fill-opacity="1" /><path clip-path="url(#clip470)" d="M803.459 139.407 L803.459 143.389 Q801.653 142.393 799.824 141.907 Q798.019 141.398 796.167 141.398 Q792.024 141.398 789.732 144.037 Q787.44 146.652 787.44 151.398 Q787.44 156.143 789.732 158.782 Q792.024 161.398 796.167 161.398 Q798.019 161.398 799.824 160.912 Q801.653 160.402 803.459 159.407 L803.459 163.342 Q801.676 164.176 799.755 164.592 Q797.857 165.009 795.704 165.009 Q789.848 165.009 786.399 161.328 Q782.949 157.648 782.949 151.398 Q782.949 145.055 786.422 141.421 Q789.917 137.787 795.982 137.787 Q797.949 137.787 799.824 138.203 Q801.699 138.597 803.459 139.407 Z" fill="#000000" fill-rule="nonzero" fill-opacity="1" /><path clip-path="url(#clip470)" d="M810.704 128.319 L814.986 128.319 L814.986 149.592 L827.695 138.412 L833.134 138.412 L819.384 150.541 L833.713 164.338 L828.158 164.338 L814.986 151.676 L814.986 164.338 L810.704 164.338 L810.704 128.319 Z" fill="#000000" fill-rule="nonzero" fill-opacity="1" /><path clip-path="url(#clip470)" d="M848.273 128.319 L848.273 170.588 L838.458 170.588 L838.458 167.277 L843.991 167.277 L843.991 131.629 L838.458 131.629 L838.458 128.319 L848.273 128.319 Z" fill="#000000" fill-rule="nonzero" fill-opacity="1" /><polyline clip-path="url(#clip470)" style="stroke:#e26f46; stroke-linecap:round; stroke-linejoin:round; stroke-width:4; stroke-opacity:1; fill:none" points="283.027,198.898 427.426,198.898 "/>
<path clip-path="url(#clip470)" d="M473.738 182.752 L473.738 187.312 Q471.076 186.039 468.715 185.414 Q466.354 184.789 464.155 184.789 Q460.335 184.789 458.252 186.27 Q456.192 187.752 456.192 190.483 Q456.192 192.775 457.558 193.955 Q458.947 195.113 462.789 195.83 L465.613 196.409 Q470.845 197.405 473.322 199.928 Q475.822 202.428 475.822 206.641 Q475.822 211.664 472.442 214.256 Q469.085 216.849 462.581 216.849 Q460.127 216.849 457.349 216.293 Q454.595 215.738 451.632 214.65 L451.632 209.835 Q454.479 211.432 457.21 212.242 Q459.942 213.053 462.581 213.053 Q466.585 213.053 468.761 211.479 Q470.937 209.904 470.937 206.988 Q470.937 204.442 469.363 203.006 Q467.812 201.571 464.247 200.854 L461.4 200.298 Q456.169 199.256 453.831 197.034 Q451.493 194.812 451.493 190.854 Q451.493 186.27 454.711 183.631 Q457.951 180.993 463.622 180.993 Q466.053 180.993 468.576 181.432 Q471.099 181.872 473.738 182.752 Z" fill="#000000" fill-rule="nonzero" fill-opacity="1" /><path clip-path="url(#clip470)" d="M501.585 191.247 L501.585 195.229 Q499.78 194.233 497.951 193.747 Q496.145 193.238 494.294 193.238 Q490.15 193.238 487.858 195.877 Q485.567 198.492 485.567 203.238 Q485.567 207.983 487.858 210.622 Q490.15 213.238 494.294 213.238 Q496.145 213.238 497.951 212.752 Q499.78 212.242 501.585 211.247 L501.585 215.182 Q499.803 216.016 497.882 216.432 Q495.983 216.849 493.831 216.849 Q487.974 216.849 484.525 213.168 Q481.076 209.488 481.076 203.238 Q481.076 196.895 484.548 193.261 Q488.044 189.627 494.108 189.627 Q496.076 189.627 497.951 190.043 Q499.826 190.437 501.585 191.247 Z" fill="#000000" fill-rule="nonzero" fill-opacity="1" /><path clip-path="url(#clip470)" d="M530.543 200.529 L530.543 216.178 L526.284 216.178 L526.284 200.668 Q526.284 196.988 524.849 195.159 Q523.414 193.33 520.543 193.33 Q517.094 193.33 515.104 195.53 Q513.113 197.729 513.113 201.525 L513.113 216.178 L508.831 216.178 L508.831 180.159 L513.113 180.159 L513.113 194.28 Q514.641 191.942 516.701 190.784 Q518.784 189.627 521.493 189.627 Q525.96 189.627 528.252 192.405 Q530.543 195.159 530.543 200.529 Z" fill="#000000" fill-rule="nonzero" fill-opacity="1" /><path clip-path="url(#clip470)" d="M536.562 190.252 L540.821 190.252 L546.145 210.483 L551.446 190.252 L556.469 190.252 L561.793 210.483 L567.094 190.252 L571.353 190.252 L564.571 216.178 L559.548 216.178 L553.969 194.928 L548.367 216.178 L543.344 216.178 L536.562 190.252 Z" fill="#000000" fill-rule="nonzero" fill-opacity="1" /><path clip-path="url(#clip470)" d="M589.594 203.145 Q584.432 203.145 582.441 204.326 Q580.451 205.506 580.451 208.354 Q580.451 210.622 581.932 211.965 Q583.437 213.284 586.006 213.284 Q589.548 213.284 591.677 210.784 Q593.83 208.261 593.83 204.094 L593.83 203.145 L589.594 203.145 M598.089 201.386 L598.089 216.178 L593.83 216.178 L593.83 212.242 Q592.372 214.603 590.196 215.738 Q588.02 216.849 584.872 216.849 Q580.89 216.849 578.529 214.627 Q576.191 212.381 576.191 208.631 Q576.191 204.256 579.108 202.034 Q582.048 199.812 587.858 199.812 L593.83 199.812 L593.83 199.395 Q593.83 196.455 591.886 194.858 Q589.964 193.238 586.469 193.238 Q584.247 193.238 582.14 193.77 Q580.034 194.303 578.089 195.367 L578.089 191.432 Q580.427 190.53 582.626 190.09 Q584.826 189.627 586.909 189.627 Q592.534 189.627 595.312 192.543 Q598.089 195.46 598.089 201.386 Z" fill="#000000" fill-rule="nonzero" fill-opacity="1" /><path clip-path="url(#clip470)" d="M621.886 194.233 Q621.168 193.817 620.311 193.631 Q619.478 193.423 618.46 193.423 Q614.849 193.423 612.904 195.784 Q610.983 198.122 610.983 202.52 L610.983 216.178 L606.7 216.178 L606.7 190.252 L610.983 190.252 L610.983 194.28 Q612.325 191.918 614.478 190.784 Q616.631 189.627 619.71 189.627 Q620.149 189.627 620.682 189.696 Q621.214 189.743 621.862 189.858 L621.886 194.233 Z" fill="#000000" fill-rule="nonzero" fill-opacity="1" /><path clip-path="url(#clip470)" d="M624.501 190.252 L644.733 190.252 L644.733 194.141 L628.714 212.775 L644.733 212.775 L644.733 216.178 L623.923 216.178 L623.923 212.289 L639.941 193.655 L624.501 193.655 L624.501 190.252 Z" fill="#000000" fill-rule="nonzero" fill-opacity="1" /><path clip-path="url(#clip470)" d="M667.765 191.016 L667.765 195.043 Q665.959 194.117 664.015 193.655 Q662.071 193.192 659.987 193.192 Q656.816 193.192 655.219 194.164 Q653.645 195.136 653.645 197.08 Q653.645 198.562 654.779 199.418 Q655.913 200.252 659.339 201.016 L660.797 201.34 Q665.334 202.312 667.233 204.094 Q669.154 205.854 669.154 209.025 Q669.154 212.636 666.283 214.742 Q663.436 216.849 658.436 216.849 Q656.353 216.849 654.084 216.432 Q651.839 216.039 649.339 215.228 L649.339 210.83 Q651.7 212.057 653.992 212.682 Q656.283 213.284 658.529 213.284 Q661.538 213.284 663.158 212.266 Q664.779 211.224 664.779 209.349 Q664.779 207.613 663.598 206.687 Q662.441 205.761 658.483 204.904 L657.001 204.557 Q653.043 203.724 651.284 202.011 Q649.524 200.275 649.524 197.266 Q649.524 193.608 652.117 191.618 Q654.709 189.627 659.478 189.627 Q661.839 189.627 663.922 189.974 Q666.006 190.321 667.765 191.016 Z" fill="#000000" fill-rule="nonzero" fill-opacity="1" /><path clip-path="url(#clip470)" d="M694.593 191.247 L694.593 195.229 Q692.788 194.233 690.959 193.747 Q689.154 193.238 687.302 193.238 Q683.158 193.238 680.867 195.877 Q678.575 198.492 678.575 203.238 Q678.575 207.983 680.867 210.622 Q683.158 213.238 687.302 213.238 Q689.154 213.238 690.959 212.752 Q692.788 212.242 694.593 211.247 L694.593 215.182 Q692.811 216.016 690.89 216.432 Q688.992 216.849 686.839 216.849 Q680.982 216.849 677.533 213.168 Q674.084 209.488 674.084 203.238 Q674.084 196.895 677.557 193.261 Q681.052 189.627 687.117 189.627 Q689.084 189.627 690.959 190.043 Q692.834 190.437 694.593 191.247 Z" fill="#000000" fill-rule="nonzero" fill-opacity="1" /><path clip-path="url(#clip470)" d="M723.552 200.529 L723.552 216.178 L719.292 216.178 L719.292 200.668 Q719.292 196.988 717.857 195.159 Q716.422 193.33 713.552 193.33 Q710.103 193.33 708.112 195.53 Q706.121 197.729 706.121 201.525 L706.121 216.178 L701.839 216.178 L701.839 180.159 L706.121 180.159 L706.121 194.28 Q707.649 191.942 709.709 190.784 Q711.792 189.627 714.501 189.627 Q718.968 189.627 721.26 192.405 Q723.552 195.159 723.552 200.529 Z" fill="#000000" fill-rule="nonzero" fill-opacity="1" /><path clip-path="url(#clip470)" d="M732.047 190.252 L736.306 190.252 L736.306 216.178 L732.047 216.178 L732.047 190.252 M732.047 180.159 L736.306 180.159 L736.306 185.553 L732.047 185.553 L732.047 180.159 Z" fill="#000000" fill-rule="nonzero" fill-opacity="1" /><path clip-path="url(#clip470)" d="M745.218 180.159 L749.477 180.159 L749.477 216.178 L745.218 216.178 L745.218 180.159 Z" fill="#000000" fill-rule="nonzero" fill-opacity="1" /><path clip-path="url(#clip470)" d="M775.45 194.187 L775.45 180.159 L779.709 180.159 L779.709 216.178 L775.45 216.178 L775.45 212.289 Q774.107 214.603 772.047 215.738 Q770.01 216.849 767.139 216.849 Q762.44 216.849 759.477 213.099 Q756.538 209.349 756.538 203.238 Q756.538 197.127 759.477 193.377 Q762.44 189.627 767.139 189.627 Q770.01 189.627 772.047 190.761 Q774.107 191.872 775.45 194.187 M760.936 203.238 Q760.936 207.937 762.857 210.622 Q764.801 213.284 768.181 213.284 Q771.561 213.284 773.505 210.622 Q775.45 207.937 775.45 203.238 Q775.45 198.539 773.505 195.877 Q771.561 193.192 768.181 193.192 Q764.801 193.192 762.857 195.877 Q760.936 198.539 760.936 203.238 Z" fill="#000000" fill-rule="nonzero" fill-opacity="1" /><path clip-path="url(#clip470)" d="M788.088 180.159 L797.903 180.159 L797.903 183.469 L792.348 183.469 L792.348 219.117 L797.903 219.117 L797.903 222.428 L788.088 222.428 L788.088 180.159 Z" fill="#000000" fill-rule="nonzero" fill-opacity="1" /><path clip-path="url(#clip470)" d="M811.19 182.891 L811.19 190.252 L819.963 190.252 L819.963 193.562 L811.19 193.562 L811.19 207.636 Q811.19 210.807 812.047 211.71 Q812.926 212.613 815.588 212.613 L819.963 212.613 L819.963 216.178 L815.588 216.178 Q810.658 216.178 808.783 214.349 Q806.908 212.497 806.908 207.636 L806.908 193.562 L803.783 193.562 L803.783 190.252 L806.908 190.252 L806.908 182.891 L811.19 182.891 Z" fill="#000000" fill-rule="nonzero" fill-opacity="1" /><path clip-path="url(#clip470)" d="M847.116 200.529 L847.116 216.178 L842.857 216.178 L842.857 200.668 Q842.857 196.988 841.421 195.159 Q839.986 193.33 837.116 193.33 Q833.667 193.33 831.676 195.53 Q829.685 197.729 829.685 201.525 L829.685 216.178 L825.403 216.178 L825.403 180.159 L829.685 180.159 L829.685 194.28 Q831.213 191.942 833.273 190.784 Q835.357 189.627 838.065 189.627 Q842.533 189.627 844.824 192.405 Q847.116 195.159 847.116 200.529 Z" fill="#000000" fill-rule="nonzero" fill-opacity="1" /><path clip-path="url(#clip470)" d="M855.611 190.252 L859.87 190.252 L859.87 216.178 L855.611 216.178 L855.611 190.252 M855.611 180.159 L859.87 180.159 L859.87 185.553 L855.611 185.553 L855.611 180.159 Z" fill="#000000" fill-rule="nonzero" fill-opacity="1" /><path clip-path="url(#clip470)" d="M887.44 191.247 L887.44 195.229 Q885.634 194.233 883.805 193.747 Q882 193.238 880.148 193.238 Q876.005 193.238 873.713 195.877 Q871.421 198.492 871.421 203.238 Q871.421 207.983 873.713 210.622 Q876.005 213.238 880.148 213.238 Q882 213.238 883.805 212.752 Q885.634 212.242 887.44 211.247 L887.44 215.182 Q885.657 216.016 883.736 216.432 Q881.838 216.849 879.685 216.849 Q873.829 216.849 870.38 213.168 Q866.931 209.488 866.931 203.238 Q866.931 196.895 870.403 193.261 Q873.898 189.627 879.963 189.627 Q881.93 189.627 883.805 190.043 Q885.68 190.437 887.44 191.247 Z" fill="#000000" fill-rule="nonzero" fill-opacity="1" /><path clip-path="url(#clip470)" d="M894.685 180.159 L898.967 180.159 L898.967 201.432 L911.676 190.252 L917.115 190.252 L903.366 202.381 L917.694 216.178 L912.139 216.178 L898.967 203.516 L898.967 216.178 L894.685 216.178 L894.685 180.159 Z" fill="#000000" fill-rule="nonzero" fill-opacity="1" /><path clip-path="url(#clip470)" d="M932.254 180.159 L932.254 222.428 L922.439 222.428 L922.439 219.117 L927.972 219.117 L927.972 183.469 L922.439 183.469 L922.439 180.159 L932.254 180.159 Z" fill="#000000" fill-rule="nonzero" fill-opacity="1" /><polyline clip-path="url(#clip470)" style="stroke:#3da44d; stroke-linecap:round; stroke-linejoin:round; stroke-width:4; stroke-opacity:1; fill:none" points="283.027,250.738 427.426,250.738 "/>
<path clip-path="url(#clip470)" d="M458.599 233.458 L463.275 233.458 L463.275 265.61 Q463.275 271.86 460.891 274.684 Q458.53 277.508 453.275 277.508 L451.493 277.508 L451.493 273.573 L452.951 273.573 Q456.053 273.573 457.326 271.837 Q458.599 270.101 458.599 265.61 L458.599 233.458 Z" fill="#000000" fill-rule="nonzero" fill-opacity="1" /><path clip-path="url(#clip470)" d="M482.442 245.078 Q479.016 245.078 477.025 247.763 Q475.034 250.425 475.034 255.078 Q475.034 259.731 477.002 262.416 Q478.993 265.078 482.442 265.078 Q485.845 265.078 487.835 262.393 Q489.826 259.707 489.826 255.078 Q489.826 250.471 487.835 247.786 Q485.845 245.078 482.442 245.078 M482.442 241.467 Q487.997 241.467 491.169 245.078 Q494.34 248.689 494.34 255.078 Q494.34 261.444 491.169 265.078 Q487.997 268.689 482.442 268.689 Q476.863 268.689 473.692 265.078 Q470.544 261.444 470.544 255.078 Q470.544 248.689 473.692 245.078 Q476.863 241.467 482.442 241.467 Z" fill="#000000" fill-rule="nonzero" fill-opacity="1" /><path clip-path="url(#clip470)" d="M522.951 252.369 L522.951 268.018 L518.692 268.018 L518.692 252.508 Q518.692 248.828 517.256 246.999 Q515.821 245.17 512.951 245.17 Q509.502 245.17 507.511 247.37 Q505.52 249.569 505.52 253.365 L505.52 268.018 L501.238 268.018 L501.238 231.999 L505.52 231.999 L505.52 246.12 Q507.048 243.782 509.108 242.624 Q511.192 241.467 513.9 241.467 Q518.368 241.467 520.659 244.245 Q522.951 246.999 522.951 252.369 Z" fill="#000000" fill-rule="nonzero" fill-opacity="1" /><path clip-path="url(#clip470)" d="M543.229 254.985 Q538.067 254.985 536.076 256.166 Q534.085 257.346 534.085 260.194 Q534.085 262.462 535.567 263.805 Q537.071 265.124 539.641 265.124 Q543.182 265.124 545.312 262.624 Q547.465 260.101 547.465 255.934 L547.465 254.985 L543.229 254.985 M551.724 253.226 L551.724 268.018 L547.465 268.018 L547.465 264.082 Q546.006 266.443 543.83 267.578 Q541.654 268.689 538.506 268.689 Q534.525 268.689 532.164 266.467 Q529.826 264.221 529.826 260.471 Q529.826 256.096 532.742 253.874 Q535.682 251.652 541.492 251.652 L547.465 251.652 L547.465 251.235 Q547.465 248.295 545.52 246.698 Q543.599 245.078 540.104 245.078 Q537.881 245.078 535.775 245.61 Q533.668 246.143 531.724 247.207 L531.724 243.272 Q534.062 242.37 536.261 241.93 Q538.46 241.467 540.543 241.467 Q546.168 241.467 548.946 244.383 Q551.724 247.3 551.724 253.226 Z" fill="#000000" fill-rule="nonzero" fill-opacity="1" /><path clip-path="url(#clip470)" d="M582.048 252.369 L582.048 268.018 L577.789 268.018 L577.789 252.508 Q577.789 248.828 576.353 246.999 Q574.918 245.17 572.048 245.17 Q568.599 245.17 566.608 247.37 Q564.617 249.569 564.617 253.365 L564.617 268.018 L560.335 268.018 L560.335 242.092 L564.617 242.092 L564.617 246.12 Q566.145 243.782 568.205 242.624 Q570.289 241.467 572.997 241.467 Q577.464 241.467 579.756 244.245 Q582.048 246.999 582.048 252.369 Z" fill="#000000" fill-rule="nonzero" fill-opacity="1" /><path clip-path="url(#clip470)" d="M612.094 252.369 L612.094 268.018 L607.835 268.018 L607.835 252.508 Q607.835 248.828 606.4 246.999 Q604.964 245.17 602.094 245.17 Q598.645 245.17 596.654 247.37 Q594.663 249.569 594.663 253.365 L594.663 268.018 L590.381 268.018 L590.381 242.092 L594.663 242.092 L594.663 246.12 Q596.191 243.782 598.251 242.624 Q600.335 241.467 603.043 241.467 Q607.511 241.467 609.802 244.245 Q612.094 246.999 612.094 252.369 Z" fill="#000000" fill-rule="nonzero" fill-opacity="1" /><path clip-path="url(#clip470)" d="M637.117 242.856 L637.117 246.883 Q635.311 245.957 633.367 245.495 Q631.423 245.032 629.339 245.032 Q626.168 245.032 624.571 246.004 Q622.997 246.976 622.997 248.92 Q622.997 250.402 624.131 251.258 Q625.265 252.092 628.691 252.856 L630.149 253.18 Q634.686 254.152 636.585 255.934 Q638.506 257.694 638.506 260.865 Q638.506 264.476 635.635 266.582 Q632.788 268.689 627.788 268.689 Q625.705 268.689 623.436 268.272 Q621.191 267.879 618.691 267.068 L618.691 262.67 Q621.052 263.897 623.344 264.522 Q625.636 265.124 627.881 265.124 Q630.89 265.124 632.51 264.106 Q634.131 263.064 634.131 261.189 Q634.131 259.453 632.95 258.527 Q631.793 257.601 627.835 256.744 L626.353 256.397 Q622.395 255.564 620.636 253.851 Q618.876 252.115 618.876 249.106 Q618.876 245.448 621.469 243.458 Q624.061 241.467 628.83 241.467 Q631.191 241.467 633.274 241.814 Q635.358 242.161 637.117 242.856 Z" fill="#000000" fill-rule="nonzero" fill-opacity="1" /><path clip-path="url(#clip470)" d="M667.464 253.99 L667.464 256.073 L647.881 256.073 Q648.159 260.471 650.52 262.786 Q652.904 265.078 657.14 265.078 Q659.594 265.078 661.885 264.476 Q664.2 263.874 666.469 262.67 L666.469 266.698 Q664.177 267.67 661.77 268.18 Q659.362 268.689 656.885 268.689 Q650.682 268.689 647.047 265.078 Q643.436 261.467 643.436 255.309 Q643.436 248.944 646.862 245.217 Q650.311 241.467 656.145 241.467 Q661.376 241.467 664.408 244.846 Q667.464 248.203 667.464 253.99 M663.205 252.74 Q663.158 249.245 661.237 247.161 Q659.339 245.078 656.191 245.078 Q652.626 245.078 650.473 247.092 Q648.344 249.106 648.02 252.763 L663.205 252.74 Z" fill="#000000" fill-rule="nonzero" fill-opacity="1" /><path clip-path="url(#clip470)" d="M696.006 252.369 L696.006 268.018 L691.746 268.018 L691.746 252.508 Q691.746 248.828 690.311 246.999 Q688.876 245.17 686.006 245.17 Q682.557 245.17 680.566 247.37 Q678.575 249.569 678.575 253.365 L678.575 268.018 L674.293 268.018 L674.293 242.092 L678.575 242.092 L678.575 246.12 Q680.103 243.782 682.163 242.624 Q684.246 241.467 686.955 241.467 Q691.422 241.467 693.714 244.245 Q696.006 246.999 696.006 252.369 Z" fill="#000000" fill-rule="nonzero" fill-opacity="1" /><path clip-path="url(#clip470)" d="M704.107 231.999 L713.922 231.999 L713.922 235.309 L708.367 235.309 L708.367 270.957 L713.922 270.957 L713.922 274.268 L704.107 274.268 L704.107 231.999 Z" fill="#000000" fill-rule="nonzero" fill-opacity="1" /><path clip-path="url(#clip470)" d="M727.209 234.731 L727.209 242.092 L735.982 242.092 L735.982 245.402 L727.209 245.402 L727.209 259.476 Q727.209 262.647 728.066 263.55 Q728.945 264.453 731.607 264.453 L735.982 264.453 L735.982 268.018 L731.607 268.018 Q726.677 268.018 724.802 266.189 Q722.927 264.337 722.927 259.476 L722.927 245.402 L719.802 245.402 L719.802 242.092 L722.927 242.092 L722.927 234.731 L727.209 234.731 Z" fill="#000000" fill-rule="nonzero" fill-opacity="1" /><path clip-path="url(#clip470)" d="M763.135 252.369 L763.135 268.018 L758.876 268.018 L758.876 252.508 Q758.876 248.828 757.44 246.999 Q756.005 245.17 753.135 245.17 Q749.686 245.17 747.695 247.37 Q745.704 249.569 745.704 253.365 L745.704 268.018 L741.422 268.018 L741.422 231.999 L745.704 231.999 L745.704 246.12 Q747.232 243.782 749.292 242.624 Q751.376 241.467 754.084 241.467 Q758.551 241.467 760.843 244.245 Q763.135 246.999 763.135 252.369 Z" fill="#000000" fill-rule="nonzero" fill-opacity="1" /><path clip-path="url(#clip470)" d="M771.63 242.092 L775.889 242.092 L775.889 268.018 L771.63 268.018 L771.63 242.092 M771.63 231.999 L775.889 231.999 L775.889 237.393 L771.63 237.393 L771.63 231.999 Z" fill="#000000" fill-rule="nonzero" fill-opacity="1" /><path clip-path="url(#clip470)" d="M806.352 252.369 L806.352 268.018 L802.093 268.018 L802.093 252.508 Q802.093 248.828 800.658 246.999 Q799.223 245.17 796.352 245.17 Q792.903 245.17 790.912 247.37 Q788.922 249.569 788.922 253.365 L788.922 268.018 L784.639 268.018 L784.639 242.092 L788.922 242.092 L788.922 246.12 Q790.449 243.782 792.51 242.624 Q794.593 241.467 797.301 241.467 Q801.769 241.467 804.06 244.245 Q806.352 246.999 806.352 252.369 Z" fill="#000000" fill-rule="nonzero" fill-opacity="1" /><path clip-path="url(#clip470)" d="M824.801 231.999 L824.801 274.268 L814.986 274.268 L814.986 270.957 L820.519 270.957 L820.519 235.309 L814.986 235.309 L814.986 231.999 L824.801 231.999 Z" fill="#000000" fill-rule="nonzero" fill-opacity="1" /><polyline clip-path="url(#clip470)" style="stroke:#c271d2; stroke-linecap:round; stroke-linejoin:round; stroke-width:4; stroke-opacity:1; fill:none" points="283.027,302.578 427.426,302.578 "/>
<path clip-path="url(#clip470)" d="M473.738 286.432 L473.738 290.992 Q471.076 289.719 468.715 289.094 Q466.354 288.469 464.155 288.469 Q460.335 288.469 458.252 289.95 Q456.192 291.432 456.192 294.163 Q456.192 296.455 457.558 297.635 Q458.947 298.793 462.789 299.51 L465.613 300.089 Q470.845 301.085 473.322 303.608 Q475.822 306.108 475.822 310.321 Q475.822 315.344 472.442 317.936 Q469.085 320.529 462.581 320.529 Q460.127 320.529 457.349 319.973 Q454.595 319.418 451.632 318.33 L451.632 313.515 Q454.479 315.112 457.21 315.922 Q459.942 316.733 462.581 316.733 Q466.585 316.733 468.761 315.159 Q470.937 313.584 470.937 310.668 Q470.937 308.122 469.363 306.686 Q467.812 305.251 464.247 304.534 L461.4 303.978 Q456.169 302.936 453.831 300.714 Q451.493 298.492 451.493 294.534 Q451.493 289.95 454.711 287.311 Q457.951 284.673 463.622 284.673 Q466.053 284.673 468.576 285.112 Q471.099 285.552 473.738 286.432 Z" fill="#000000" fill-rule="nonzero" fill-opacity="1" /><path clip-path="url(#clip470)" d="M501.585 294.927 L501.585 298.909 Q499.78 297.913 497.951 297.427 Q496.145 296.918 494.294 296.918 Q490.15 296.918 487.858 299.557 Q485.567 302.172 485.567 306.918 Q485.567 311.663 487.858 314.302 Q490.15 316.918 494.294 316.918 Q496.145 316.918 497.951 316.432 Q499.78 315.922 501.585 314.927 L501.585 318.862 Q499.803 319.696 497.882 320.112 Q495.983 320.529 493.831 320.529 Q487.974 320.529 484.525 316.848 Q481.076 313.168 481.076 306.918 Q481.076 300.575 484.548 296.941 Q488.044 293.307 494.108 293.307 Q496.076 293.307 497.951 293.723 Q499.826 294.117 501.585 294.927 Z" fill="#000000" fill-rule="nonzero" fill-opacity="1" /><path clip-path="url(#clip470)" d="M530.543 304.209 L530.543 319.858 L526.284 319.858 L526.284 304.348 Q526.284 300.668 524.849 298.839 Q523.414 297.01 520.543 297.01 Q517.094 297.01 515.104 299.21 Q513.113 301.409 513.113 305.205 L513.113 319.858 L508.831 319.858 L508.831 283.839 L513.113 283.839 L513.113 297.96 Q514.641 295.622 516.701 294.464 Q518.784 293.307 521.493 293.307 Q525.96 293.307 528.252 296.085 Q530.543 298.839 530.543 304.209 Z" fill="#000000" fill-rule="nonzero" fill-opacity="1" /><path clip-path="url(#clip470)" d="M536.562 293.932 L540.821 293.932 L546.145 314.163 L551.446 293.932 L556.469 293.932 L561.793 314.163 L567.094 293.932 L571.353 293.932 L564.571 319.858 L559.548 319.858 L553.969 298.608 L548.367 319.858 L543.344 319.858 L536.562 293.932 Z" fill="#000000" fill-rule="nonzero" fill-opacity="1" /><path clip-path="url(#clip470)" d="M589.594 306.825 Q584.432 306.825 582.441 308.006 Q580.451 309.186 580.451 312.034 Q580.451 314.302 581.932 315.645 Q583.437 316.964 586.006 316.964 Q589.548 316.964 591.677 314.464 Q593.83 311.941 593.83 307.774 L593.83 306.825 L589.594 306.825 M598.089 305.066 L598.089 319.858 L593.83 319.858 L593.83 315.922 Q592.372 318.283 590.196 319.418 Q588.02 320.529 584.872 320.529 Q580.89 320.529 578.529 318.307 Q576.191 316.061 576.191 312.311 Q576.191 307.936 579.108 305.714 Q582.048 303.492 587.858 303.492 L593.83 303.492 L593.83 303.075 Q593.83 300.135 591.886 298.538 Q589.964 296.918 586.469 296.918 Q584.247 296.918 582.14 297.45 Q580.034 297.983 578.089 299.047 L578.089 295.112 Q580.427 294.21 582.626 293.77 Q584.826 293.307 586.909 293.307 Q592.534 293.307 595.312 296.223 Q598.089 299.14 598.089 305.066 Z" fill="#000000" fill-rule="nonzero" fill-opacity="1" /><path clip-path="url(#clip470)" d="M621.886 297.913 Q621.168 297.497 620.311 297.311 Q619.478 297.103 618.46 297.103 Q614.849 297.103 612.904 299.464 Q610.983 301.802 610.983 306.2 L610.983 319.858 L606.7 319.858 L606.7 293.932 L610.983 293.932 L610.983 297.96 Q612.325 295.598 614.478 294.464 Q616.631 293.307 619.71 293.307 Q620.149 293.307 620.682 293.376 Q621.214 293.423 621.862 293.538 L621.886 297.913 Z" fill="#000000" fill-rule="nonzero" fill-opacity="1" /><path clip-path="url(#clip470)" d="M624.501 293.932 L644.733 293.932 L644.733 297.821 L628.714 316.455 L644.733 316.455 L644.733 319.858 L623.923 319.858 L623.923 315.969 L639.941 297.335 L624.501 297.335 L624.501 293.932 Z" fill="#000000" fill-rule="nonzero" fill-opacity="1" /><path clip-path="url(#clip470)" d="M667.765 294.696 L667.765 298.723 Q665.959 297.797 664.015 297.335 Q662.071 296.872 659.987 296.872 Q656.816 296.872 655.219 297.844 Q653.645 298.816 653.645 300.76 Q653.645 302.242 654.779 303.098 Q655.913 303.932 659.339 304.696 L660.797 305.02 Q665.334 305.992 667.233 307.774 Q669.154 309.534 669.154 312.705 Q669.154 316.316 666.283 318.422 Q663.436 320.529 658.436 320.529 Q656.353 320.529 654.084 320.112 Q651.839 319.719 649.339 318.908 L649.339 314.51 Q651.7 315.737 653.992 316.362 Q656.283 316.964 658.529 316.964 Q661.538 316.964 663.158 315.946 Q664.779 314.904 664.779 313.029 Q664.779 311.293 663.598 310.367 Q662.441 309.441 658.483 308.584 L657.001 308.237 Q653.043 307.404 651.284 305.691 Q649.524 303.955 649.524 300.946 Q649.524 297.288 652.117 295.298 Q654.709 293.307 659.478 293.307 Q661.839 293.307 663.922 293.654 Q666.006 294.001 667.765 294.696 Z" fill="#000000" fill-rule="nonzero" fill-opacity="1" /><path clip-path="url(#clip470)" d="M694.593 294.927 L694.593 298.909 Q692.788 297.913 690.959 297.427 Q689.154 296.918 687.302 296.918 Q683.158 296.918 680.867 299.557 Q678.575 302.172 678.575 306.918 Q678.575 311.663 680.867 314.302 Q683.158 316.918 687.302 316.918 Q689.154 316.918 690.959 316.432 Q692.788 315.922 694.593 314.927 L694.593 318.862 Q692.811 319.696 690.89 320.112 Q688.992 320.529 686.839 320.529 Q680.982 320.529 677.533 316.848 Q674.084 313.168 674.084 306.918 Q674.084 300.575 677.557 296.941 Q681.052 293.307 687.117 293.307 Q689.084 293.307 690.959 293.723 Q692.834 294.117 694.593 294.927 Z" fill="#000000" fill-rule="nonzero" fill-opacity="1" /><path clip-path="url(#clip470)" d="M723.552 304.209 L723.552 319.858 L719.292 319.858 L719.292 304.348 Q719.292 300.668 717.857 298.839 Q716.422 297.01 713.552 297.01 Q710.103 297.01 708.112 299.21 Q706.121 301.409 706.121 305.205 L706.121 319.858 L701.839 319.858 L701.839 283.839 L706.121 283.839 L706.121 297.96 Q707.649 295.622 709.709 294.464 Q711.792 293.307 714.501 293.307 Q718.968 293.307 721.26 296.085 Q723.552 298.839 723.552 304.209 Z" fill="#000000" fill-rule="nonzero" fill-opacity="1" /><path clip-path="url(#clip470)" d="M732.047 293.932 L736.306 293.932 L736.306 319.858 L732.047 319.858 L732.047 293.932 M732.047 283.839 L736.306 283.839 L736.306 289.233 L732.047 289.233 L732.047 283.839 Z" fill="#000000" fill-rule="nonzero" fill-opacity="1" /><path clip-path="url(#clip470)" d="M745.218 283.839 L749.477 283.839 L749.477 319.858 L745.218 319.858 L745.218 283.839 Z" fill="#000000" fill-rule="nonzero" fill-opacity="1" /><path clip-path="url(#clip470)" d="M775.45 297.867 L775.45 283.839 L779.709 283.839 L779.709 319.858 L775.45 319.858 L775.45 315.969 Q774.107 318.283 772.047 319.418 Q770.01 320.529 767.139 320.529 Q762.44 320.529 759.477 316.779 Q756.538 313.029 756.538 306.918 Q756.538 300.807 759.477 297.057 Q762.44 293.307 767.139 293.307 Q770.01 293.307 772.047 294.441 Q774.107 295.552 775.45 297.867 M760.936 306.918 Q760.936 311.617 762.857 314.302 Q764.801 316.964 768.181 316.964 Q771.561 316.964 773.505 314.302 Q775.45 311.617 775.45 306.918 Q775.45 302.219 773.505 299.557 Q771.561 296.872 768.181 296.872 Q764.801 296.872 762.857 299.557 Q760.936 302.219 760.936 306.918 Z" fill="#000000" fill-rule="nonzero" fill-opacity="1" /><path clip-path="url(#clip470)" d="M788.088 283.839 L797.903 283.839 L797.903 287.149 L792.348 287.149 L792.348 322.797 L797.903 322.797 L797.903 326.108 L788.088 326.108 L788.088 283.839 Z" fill="#000000" fill-rule="nonzero" fill-opacity="1" /><path clip-path="url(#clip470)" d="M811.19 286.571 L811.19 293.932 L819.963 293.932 L819.963 297.242 L811.19 297.242 L811.19 311.316 Q811.19 314.487 812.047 315.39 Q812.926 316.293 815.588 316.293 L819.963 316.293 L819.963 319.858 L815.588 319.858 Q810.658 319.858 808.783 318.029 Q806.908 316.177 806.908 311.316 L806.908 297.242 L803.783 297.242 L803.783 293.932 L806.908 293.932 L806.908 286.571 L811.19 286.571 Z" fill="#000000" fill-rule="nonzero" fill-opacity="1" /><path clip-path="url(#clip470)" d="M847.116 304.209 L847.116 319.858 L842.857 319.858 L842.857 304.348 Q842.857 300.668 841.421 298.839 Q839.986 297.01 837.116 297.01 Q833.667 297.01 831.676 299.21 Q829.685 301.409 829.685 305.205 L829.685 319.858 L825.403 319.858 L825.403 283.839 L829.685 283.839 L829.685 297.96 Q831.213 295.622 833.273 294.464 Q835.357 293.307 838.065 293.307 Q842.533 293.307 844.824 296.085 Q847.116 298.839 847.116 304.209 Z" fill="#000000" fill-rule="nonzero" fill-opacity="1" /><path clip-path="url(#clip470)" d="M855.611 293.932 L859.87 293.932 L859.87 319.858 L855.611 319.858 L855.611 293.932 M855.611 283.839 L859.87 283.839 L859.87 289.233 L855.611 289.233 L855.611 283.839 Z" fill="#000000" fill-rule="nonzero" fill-opacity="1" /><path clip-path="url(#clip470)" d="M890.333 304.209 L890.333 319.858 L886.074 319.858 L886.074 304.348 Q886.074 300.668 884.639 298.839 Q883.204 297.01 880.333 297.01 Q876.884 297.01 874.893 299.21 Q872.903 301.409 872.903 305.205 L872.903 319.858 L868.62 319.858 L868.62 293.932 L872.903 293.932 L872.903 297.96 Q874.43 295.622 876.491 294.464 Q878.574 293.307 881.282 293.307 Q885.75 293.307 888.042 296.085 Q890.333 298.839 890.333 304.209 Z" fill="#000000" fill-rule="nonzero" fill-opacity="1" /><path clip-path="url(#clip470)" d="M908.782 283.839 L908.782 326.108 L898.967 326.108 L898.967 322.797 L904.5 322.797 L904.5 287.149 L898.967 287.149 L898.967 283.839 L908.782 283.839 Z" fill="#000000" fill-rule="nonzero" fill-opacity="1" /></svg>
