<svg xmlns="http://www.w3.org/2000/svg" xmlns:xlink="http://www.w3.org/1999/xlink" width="600" height="400" viewBox="0 0 2400 1600">
<defs>
  <clipPath id="clip610">
    <rect x="0" y="0" width="2400" height="1600"></rect>
  </clipPath>
</defs>
<path clip-path="url(#clip610)" d="M0 1600 L2400 1600 L2400 0 L0 0  Z" fill="#ffffff" fill-rule="evenodd" fill-opacity="1"></path>
<defs>
  <clipPath id="clip611">
    <rect x="480" y="0" width="1681" height="1600"></rect>
  </clipPath>
</defs>
<path clip-path="url(#clip610)" d="M216.436 1486.45 L2352.76 1486.45 L2352.76 47.2441 L216.436 47.2441  Z" fill="#ffffff" fill-rule="evenodd" fill-opacity="1"></path>
<defs>
  <clipPath id="clip612">
    <rect x="216" y="47" width="2137" height="1440"></rect>
  </clipPath>
</defs>
<polyline clip-path="url(#clip612)" style="stroke:#000000; stroke-linecap:round; stroke-linejoin:round; stroke-width:2; stroke-opacity:0.1; fill:none" points="420.855,1486.45 420.855,47.2441 "></polyline>
<polyline clip-path="url(#clip612)" style="stroke:#000000; stroke-linecap:round; stroke-linejoin:round; stroke-width:2; stroke-opacity:0.1; fill:none" points="708.768,1486.45 708.768,47.2441 "></polyline>
<polyline clip-path="url(#clip612)" style="stroke:#000000; stroke-linecap:round; stroke-linejoin:round; stroke-width:2; stroke-opacity:0.1; fill:none" points="996.682,1486.45 996.682,47.2441 "></polyline>
<polyline clip-path="url(#clip612)" style="stroke:#000000; stroke-linecap:round; stroke-linejoin:round; stroke-width:2; stroke-opacity:0.1; fill:none" points="1284.6,1486.45 1284.6,47.2441 "></polyline>
<polyline clip-path="url(#clip612)" style="stroke:#000000; stroke-linecap:round; stroke-linejoin:round; stroke-width:2; stroke-opacity:0.1; fill:none" points="1572.51,1486.45 1572.51,47.2441 "></polyline>
<polyline clip-path="url(#clip612)" style="stroke:#000000; stroke-linecap:round; stroke-linejoin:round; stroke-width:2; stroke-opacity:0.1; fill:none" points="1860.42,1486.45 1860.42,47.2441 "></polyline>
<polyline clip-path="url(#clip612)" style="stroke:#000000; stroke-linecap:round; stroke-linejoin:round; stroke-width:2; stroke-opacity:0.1; fill:none" points="2148.34,1486.45 2148.34,47.2441 "></polyline>
<polyline clip-path="url(#clip612)" style="stroke:#000000; stroke-linecap:round; stroke-linejoin:round; stroke-width:2; stroke-opacity:0.1; fill:none" points="216.436,1445.72 2352.76,1445.72 "></polyline>
<polyline clip-path="url(#clip612)" style="stroke:#000000; stroke-linecap:round; stroke-linejoin:round; stroke-width:2; stroke-opacity:0.1; fill:none" points="216.436,1189.56 2352.76,1189.56 "></polyline>
<polyline clip-path="url(#clip612)" style="stroke:#000000; stroke-linecap:round; stroke-linejoin:round; stroke-width:2; stroke-opacity:0.1; fill:none" points="216.436,933.405 2352.76,933.405 "></polyline>
<polyline clip-path="url(#clip612)" style="stroke:#000000; stroke-linecap:round; stroke-linejoin:round; stroke-width:2; stroke-opacity:0.1; fill:none" points="216.436,677.249 2352.76,677.249 "></polyline>
<polyline clip-path="url(#clip612)" style="stroke:#000000; stroke-linecap:round; stroke-linejoin:round; stroke-width:2; stroke-opacity:0.1; fill:none" points="216.436,421.093 2352.76,421.093 "></polyline>
<polyline clip-path="url(#clip612)" style="stroke:#000000; stroke-linecap:round; stroke-linejoin:round; stroke-width:2; stroke-opacity:0.1; fill:none" points="216.436,164.938 2352.76,164.938 "></polyline>
<polyline clip-path="url(#clip610)" style="stroke:#000000; stroke-linecap:round; stroke-linejoin:round; stroke-width:4; stroke-opacity:1; fill:none" points="216.436,1486.45 2352.76,1486.45 "></polyline>
<polyline clip-path="url(#clip610)" style="stroke:#000000; stroke-linecap:round; stroke-linejoin:round; stroke-width:4; stroke-opacity:1; fill:none" points="420.855,1486.45 420.855,1467.55 "></polyline>
<polyline clip-path="url(#clip610)" style="stroke:#000000; stroke-linecap:round; stroke-linejoin:round; stroke-width:4; stroke-opacity:1; fill:none" points="708.768,1486.45 708.768,1467.55 "></polyline>
<polyline clip-path="url(#clip610)" style="stroke:#000000; stroke-linecap:round; stroke-linejoin:round; stroke-width:4; stroke-opacity:1; fill:none" points="996.682,1486.45 996.682,1467.55 "></polyline>
<polyline clip-path="url(#clip610)" style="stroke:#000000; stroke-linecap:round; stroke-linejoin:round; stroke-width:4; stroke-opacity:1; fill:none" points="1284.6,1486.45 1284.6,1467.55 "></polyline>
<polyline clip-path="url(#clip610)" style="stroke:#000000; stroke-linecap:round; stroke-linejoin:round; stroke-width:4; stroke-opacity:1; fill:none" points="1572.51,1486.45 1572.51,1467.55 "></polyline>
<polyline clip-path="url(#clip610)" style="stroke:#000000; stroke-linecap:round; stroke-linejoin:round; stroke-width:4; stroke-opacity:1; fill:none" points="1860.42,1486.45 1860.42,1467.55 "></polyline>
<polyline clip-path="url(#clip610)" style="stroke:#000000; stroke-linecap:round; stroke-linejoin:round; stroke-width:4; stroke-opacity:1; fill:none" points="2148.34,1486.45 2148.34,1467.55 "></polyline>
<path clip-path="url(#clip610)" d="M399.038 1517.37 Q395.427 1517.37 393.598 1520.93 Q391.792 1524.47 391.792 1531.6 Q391.792 1538.71 393.598 1542.27 Q395.427 1545.82 399.038 1545.82 Q402.672 1545.82 404.477 1542.27 Q406.306 1538.71 406.306 1531.6 Q406.306 1524.47 404.477 1520.93 Q402.672 1517.37 399.038 1517.37 M399.038 1513.66 Q404.848 1513.66 407.903 1518.27 Q410.982 1522.85 410.982 1531.6 Q410.982 1540.33 407.903 1544.94 Q404.848 1549.52 399.038 1549.52 Q393.227 1549.52 390.149 1544.94 Q387.093 1540.33 387.093 1531.6 Q387.093 1522.85 390.149 1518.27 Q393.227 1513.66 399.038 1513.66 Z" fill="#000000" fill-rule="nonzero" fill-opacity="1"></path><path clip-path="url(#clip610)" d="M419.2 1542.97 L424.084 1542.97 L424.084 1548.85 L419.2 1548.85 L419.2 1542.97 Z" fill="#000000" fill-rule="nonzero" fill-opacity="1"></path><path clip-path="url(#clip610)" d="M438.297 1544.91 L454.616 1544.91 L454.616 1548.85 L432.672 1548.85 L432.672 1544.91 Q435.334 1542.16 439.917 1537.53 Q444.523 1532.88 445.704 1531.53 Q447.949 1529.01 448.829 1527.27 Q449.732 1525.51 449.732 1523.82 Q449.732 1521.07 447.787 1519.33 Q445.866 1517.6 442.764 1517.6 Q440.565 1517.6 438.111 1518.36 Q435.681 1519.13 432.903 1520.68 L432.903 1515.95 Q435.727 1514.82 438.181 1514.24 Q440.635 1513.66 442.672 1513.66 Q448.042 1513.66 451.236 1516.35 Q454.431 1519.03 454.431 1523.52 Q454.431 1525.65 453.621 1527.57 Q452.834 1529.47 450.727 1532.07 Q450.148 1532.74 447.047 1535.95 Q443.945 1539.15 438.297 1544.91 Z" fill="#000000" fill-rule="nonzero" fill-opacity="1"></path><path clip-path="url(#clip610)" d="M685.91 1517.37 Q682.299 1517.37 680.47 1520.93 Q678.664 1524.47 678.664 1531.6 Q678.664 1538.71 680.47 1542.27 Q682.299 1545.82 685.91 1545.82 Q689.544 1545.82 691.35 1542.27 Q693.178 1538.71 693.178 1531.6 Q693.178 1524.47 691.35 1520.93 Q689.544 1517.37 685.91 1517.37 M685.91 1513.66 Q691.72 1513.66 694.775 1518.27 Q697.854 1522.85 697.854 1531.6 Q697.854 1540.33 694.775 1544.94 Q691.72 1549.52 685.91 1549.52 Q680.1 1549.52 677.021 1544.94 Q673.965 1540.33 673.965 1531.6 Q673.965 1522.85 677.021 1518.27 Q680.1 1513.66 685.91 1513.66 Z" fill="#000000" fill-rule="nonzero" fill-opacity="1"></path><path clip-path="url(#clip610)" d="M706.072 1542.97 L710.956 1542.97 L710.956 1548.85 L706.072 1548.85 L706.072 1542.97 Z" fill="#000000" fill-rule="nonzero" fill-opacity="1"></path><path clip-path="url(#clip610)" d="M733.988 1518.36 L722.183 1536.81 L733.988 1536.81 L733.988 1518.36 M732.761 1514.29 L738.641 1514.29 L738.641 1536.81 L743.571 1536.81 L743.571 1540.7 L738.641 1540.7 L738.641 1548.85 L733.988 1548.85 L733.988 1540.7 L718.386 1540.7 L718.386 1536.19 L732.761 1514.29 Z" fill="#000000" fill-rule="nonzero" fill-opacity="1"></path><path clip-path="url(#clip610)" d="M973.986 1517.37 Q970.374 1517.37 968.546 1520.93 Q966.74 1524.47 966.74 1531.6 Q966.74 1538.71 968.546 1542.27 Q970.374 1545.82 973.986 1545.82 Q977.62 1545.82 979.425 1542.27 Q981.254 1538.71 981.254 1531.6 Q981.254 1524.47 979.425 1520.93 Q977.62 1517.37 973.986 1517.37 M973.986 1513.66 Q979.796 1513.66 982.851 1518.27 Q985.93 1522.85 985.93 1531.6 Q985.93 1540.33 982.851 1544.94 Q979.796 1549.52 973.986 1549.52 Q968.175 1549.52 965.097 1544.94 Q962.041 1540.33 962.041 1531.6 Q962.041 1522.85 965.097 1518.27 Q968.175 1513.66 973.986 1513.66 Z" fill="#000000" fill-rule="nonzero" fill-opacity="1"></path><path clip-path="url(#clip610)" d="M994.147 1542.97 L999.032 1542.97 L999.032 1548.85 L994.147 1548.85 L994.147 1542.97 Z" fill="#000000" fill-rule="nonzero" fill-opacity="1"></path><path clip-path="url(#clip610)" d="M1019.8 1529.7 Q1016.65 1529.7 1014.8 1531.86 Q1012.97 1534.01 1012.97 1537.76 Q1012.97 1541.49 1014.8 1543.66 Q1016.65 1545.82 1019.8 1545.82 Q1022.94 1545.82 1024.77 1543.66 Q1026.62 1541.49 1026.62 1537.76 Q1026.62 1534.01 1024.77 1531.86 Q1022.94 1529.7 1019.8 1529.7 M1029.08 1515.05 L1029.08 1519.31 Q1027.32 1518.48 1025.51 1518.04 Q1023.73 1517.6 1021.97 1517.6 Q1017.34 1517.6 1014.89 1520.72 Q1012.46 1523.85 1012.11 1530.17 Q1013.48 1528.15 1015.54 1527.09 Q1017.6 1526 1020.07 1526 Q1025.28 1526 1028.29 1529.17 Q1031.32 1532.32 1031.32 1537.76 Q1031.32 1543.08 1028.18 1546.3 Q1025.03 1549.52 1019.8 1549.52 Q1013.8 1549.52 1010.63 1544.94 Q1007.46 1540.33 1007.46 1531.6 Q1007.46 1523.41 1011.35 1518.55 Q1015.24 1513.66 1021.79 1513.66 Q1023.55 1513.66 1025.33 1514.01 Q1027.13 1514.36 1029.08 1515.05 Z" fill="#000000" fill-rule="nonzero" fill-opacity="1"></path><path clip-path="url(#clip610)" d="M1262.03 1517.37 Q1258.42 1517.37 1256.59 1520.93 Q1254.78 1524.47 1254.78 1531.6 Q1254.78 1538.71 1256.59 1542.27 Q1258.42 1545.82 1262.03 1545.82 Q1265.66 1545.82 1267.47 1542.27 Q1269.3 1538.71 1269.3 1531.6 Q1269.3 1524.47 1267.47 1520.93 Q1265.66 1517.37 1262.03 1517.37 M1262.03 1513.66 Q1267.84 1513.66 1270.89 1518.27 Q1273.97 1522.85 1273.97 1531.6 Q1273.97 1540.33 1270.89 1544.94 Q1267.84 1549.52 1262.03 1549.52 Q1256.22 1549.52 1253.14 1544.94 Q1250.08 1540.33 1250.08 1531.6 Q1250.08 1522.85 1253.14 1518.27 Q1256.22 1513.66 1262.03 1513.66 Z" fill="#000000" fill-rule="nonzero" fill-opacity="1"></path><path clip-path="url(#clip610)" d="M1282.19 1542.97 L1287.07 1542.97 L1287.07 1548.85 L1282.19 1548.85 L1282.19 1542.97 Z" fill="#000000" fill-rule="nonzero" fill-opacity="1"></path><path clip-path="url(#clip610)" d="M1307.26 1532.44 Q1303.92 1532.44 1302 1534.22 Q1300.11 1536 1300.11 1539.13 Q1300.11 1542.25 1302 1544.03 Q1303.92 1545.82 1307.26 1545.82 Q1310.59 1545.82 1312.51 1544.03 Q1314.43 1542.23 1314.43 1539.13 Q1314.43 1536 1312.51 1534.22 Q1310.61 1532.44 1307.26 1532.44 M1302.58 1530.45 Q1299.57 1529.7 1297.88 1527.64 Q1296.22 1525.58 1296.22 1522.62 Q1296.22 1518.48 1299.16 1516.07 Q1302.12 1513.66 1307.26 1513.66 Q1312.42 1513.66 1315.36 1516.07 Q1318.3 1518.48 1318.3 1522.62 Q1318.3 1525.58 1316.61 1527.64 Q1314.94 1529.7 1311.96 1530.45 Q1315.34 1531.23 1317.21 1533.52 Q1319.11 1535.82 1319.11 1539.13 Q1319.11 1544.15 1316.03 1546.83 Q1312.98 1549.52 1307.26 1549.52 Q1301.54 1549.52 1298.46 1546.83 Q1295.41 1544.15 1295.41 1539.13 Q1295.41 1535.82 1297.3 1533.52 Q1299.2 1531.23 1302.58 1530.45 M1300.87 1523.06 Q1300.87 1525.75 1302.54 1527.25 Q1304.23 1528.76 1307.26 1528.76 Q1310.27 1528.76 1311.96 1527.25 Q1313.67 1525.75 1313.67 1523.06 Q1313.67 1520.38 1311.96 1518.87 Q1310.27 1517.37 1307.26 1517.37 Q1304.23 1517.37 1302.54 1518.87 Q1300.87 1520.38 1300.87 1523.06 Z" fill="#000000" fill-rule="nonzero" fill-opacity="1"></path><path clip-path="url(#clip610)" d="M1539.66 1544.91 L1547.3 1544.91 L1547.3 1518.55 L1538.99 1520.21 L1538.99 1515.95 L1547.26 1514.29 L1551.93 1514.29 L1551.93 1544.91 L1559.57 1544.91 L1559.57 1548.85 L1539.66 1548.85 L1539.66 1544.91 Z" fill="#000000" fill-rule="nonzero" fill-opacity="1"></path><path clip-path="url(#clip610)" d="M1569.01 1542.97 L1573.9 1542.97 L1573.9 1548.85 L1569.01 1548.85 L1569.01 1542.97 Z" fill="#000000" fill-rule="nonzero" fill-opacity="1"></path><path clip-path="url(#clip610)" d="M1594.08 1517.37 Q1590.47 1517.37 1588.64 1520.93 Q1586.84 1524.47 1586.84 1531.6 Q1586.84 1538.71 1588.64 1542.27 Q1590.47 1545.82 1594.08 1545.82 Q1597.72 1545.82 1599.52 1542.27 Q1601.35 1538.71 1601.35 1531.6 Q1601.35 1524.47 1599.52 1520.93 Q1597.72 1517.37 1594.08 1517.37 M1594.08 1513.66 Q1599.89 1513.66 1602.95 1518.27 Q1606.03 1522.85 1606.03 1531.6 Q1606.03 1540.33 1602.95 1544.94 Q1599.89 1549.52 1594.08 1549.52 Q1588.27 1549.52 1585.19 1544.94 Q1582.14 1540.33 1582.14 1531.6 Q1582.14 1522.85 1585.19 1518.27 Q1588.27 1513.66 1594.08 1513.66 Z" fill="#000000" fill-rule="nonzero" fill-opacity="1"></path><path clip-path="url(#clip610)" d="M1828.37 1544.91 L1836.01 1544.91 L1836.01 1518.55 L1827.7 1520.21 L1827.7 1515.95 L1835.97 1514.29 L1840.64 1514.29 L1840.64 1544.91 L1848.28 1544.91 L1848.28 1548.85 L1828.37 1548.85 L1828.37 1544.91 Z" fill="#000000" fill-rule="nonzero" fill-opacity="1"></path><path clip-path="url(#clip610)" d="M1857.73 1542.97 L1862.61 1542.97 L1862.61 1548.85 L1857.73 1548.85 L1857.73 1542.97 Z" fill="#000000" fill-rule="nonzero" fill-opacity="1"></path><path clip-path="url(#clip610)" d="M1876.82 1544.91 L1893.14 1544.91 L1893.14 1548.85 L1871.2 1548.85 L1871.2 1544.91 Q1873.86 1542.16 1878.44 1537.53 Q1883.05 1532.88 1884.23 1531.53 Q1886.48 1529.01 1887.36 1527.27 Q1888.26 1525.51 1888.26 1523.82 Q1888.26 1521.07 1886.31 1519.33 Q1884.39 1517.6 1881.29 1517.6 Q1879.09 1517.6 1876.64 1518.36 Q1874.21 1519.13 1871.43 1520.68 L1871.43 1515.95 Q1874.25 1514.82 1876.71 1514.24 Q1879.16 1513.66 1881.2 1513.66 Q1886.57 1513.66 1889.76 1516.35 Q1892.96 1519.03 1892.96 1523.52 Q1892.96 1525.65 1892.15 1527.57 Q1891.36 1529.47 1889.25 1532.07 Q1888.68 1532.74 1885.57 1535.95 Q1882.47 1539.15 1876.82 1544.91 Z" fill="#000000" fill-rule="nonzero" fill-opacity="1"></path><path clip-path="url(#clip610)" d="M2115.25 1544.91 L2122.89 1544.91 L2122.89 1518.55 L2114.58 1520.21 L2114.58 1515.95 L2122.84 1514.29 L2127.52 1514.29 L2127.52 1544.91 L2135.15 1544.91 L2135.15 1548.85 L2115.25 1548.85 L2115.25 1544.91 Z" fill="#000000" fill-rule="nonzero" fill-opacity="1"></path><path clip-path="url(#clip610)" d="M2144.6 1542.97 L2149.48 1542.97 L2149.48 1548.85 L2144.6 1548.85 L2144.6 1542.97 Z" fill="#000000" fill-rule="nonzero" fill-opacity="1"></path><path clip-path="url(#clip610)" d="M2172.52 1518.36 L2160.71 1536.81 L2172.52 1536.81 L2172.52 1518.36 M2171.29 1514.29 L2177.17 1514.29 L2177.17 1536.81 L2182.1 1536.81 L2182.1 1540.7 L2177.17 1540.7 L2177.17 1548.85 L2172.52 1548.85 L2172.52 1540.7 L2156.91 1540.7 L2156.91 1536.19 L2171.29 1514.29 Z" fill="#000000" fill-rule="nonzero" fill-opacity="1"></path><polyline clip-path="url(#clip610)" style="stroke:#000000; stroke-linecap:round; stroke-linejoin:round; stroke-width:4; stroke-opacity:1; fill:none" points="216.436,1486.45 216.436,47.2441 "></polyline>
<polyline clip-path="url(#clip610)" style="stroke:#000000; stroke-linecap:round; stroke-linejoin:round; stroke-width:4; stroke-opacity:1; fill:none" points="216.436,1445.72 235.334,1445.72 "></polyline>
<polyline clip-path="url(#clip610)" style="stroke:#000000; stroke-linecap:round; stroke-linejoin:round; stroke-width:4; stroke-opacity:1; fill:none" points="216.436,1189.56 235.334,1189.56 "></polyline>
<polyline clip-path="url(#clip610)" style="stroke:#000000; stroke-linecap:round; stroke-linejoin:round; stroke-width:4; stroke-opacity:1; fill:none" points="216.436,933.405 235.334,933.405 "></polyline>
<polyline clip-path="url(#clip610)" style="stroke:#000000; stroke-linecap:round; stroke-linejoin:round; stroke-width:4; stroke-opacity:1; fill:none" points="216.436,677.249 235.334,677.249 "></polyline>
<polyline clip-path="url(#clip610)" style="stroke:#000000; stroke-linecap:round; stroke-linejoin:round; stroke-width:4; stroke-opacity:1; fill:none" points="216.436,421.093 235.334,421.093 "></polyline>
<polyline clip-path="url(#clip610)" style="stroke:#000000; stroke-linecap:round; stroke-linejoin:round; stroke-width:4; stroke-opacity:1; fill:none" points="216.436,164.938 235.334,164.938 "></polyline>
<path clip-path="url(#clip610)" d="M62.9365 1431.51 Q59.3254 1431.51 57.4967 1435.08 Q55.6912 1438.62 55.6912 1445.75 Q55.6912 1452.86 57.4967 1456.42 Q59.3254 1459.96 62.9365 1459.96 Q66.5707 1459.96 68.3763 1456.42 Q70.205 1452.86 70.205 1445.75 Q70.205 1438.62 68.3763 1435.08 Q66.5707 1431.51 62.9365 1431.51 M62.9365 1427.81 Q68.7467 1427.81 71.8022 1432.42 Q74.8809 1437 74.8809 1445.75 Q74.8809 1454.48 71.8022 1459.08 Q68.7467 1463.67 62.9365 1463.67 Q57.1264 1463.67 54.0477 1459.08 Q50.9921 1454.48 50.9921 1445.75 Q50.9921 1437 54.0477 1432.42 Q57.1264 1427.81 62.9365 1427.81 Z" fill="#000000" fill-rule="nonzero" fill-opacity="1"></path><path clip-path="url(#clip610)" d="M83.0984 1457.12 L87.9827 1457.12 L87.9827 1463 L83.0984 1463 L83.0984 1457.12 Z" fill="#000000" fill-rule="nonzero" fill-opacity="1"></path><path clip-path="url(#clip610)" d="M108.168 1431.51 Q104.557 1431.51 102.728 1435.08 Q100.922 1438.62 100.922 1445.75 Q100.922 1452.86 102.728 1456.42 Q104.557 1459.96 108.168 1459.96 Q111.802 1459.96 113.608 1456.42 Q115.436 1452.86 115.436 1445.75 Q115.436 1438.62 113.608 1435.08 Q111.802 1431.51 108.168 1431.51 M108.168 1427.81 Q113.978 1427.81 117.033 1432.42 Q120.112 1437 120.112 1445.75 Q120.112 1454.48 117.033 1459.08 Q113.978 1463.67 108.168 1463.67 Q102.358 1463.67 99.2789 1459.08 Q96.2234 1454.48 96.2234 1445.75 Q96.2234 1437 99.2789 1432.42 Q102.358 1427.81 108.168 1427.81 Z" fill="#000000" fill-rule="nonzero" fill-opacity="1"></path><path clip-path="url(#clip610)" d="M138.33 1431.51 Q134.719 1431.51 132.89 1435.08 Q131.084 1438.62 131.084 1445.75 Q131.084 1452.86 132.89 1456.42 Q134.719 1459.96 138.33 1459.96 Q141.964 1459.96 143.769 1456.42 Q145.598 1452.86 145.598 1445.75 Q145.598 1438.62 143.769 1435.08 Q141.964 1431.51 138.33 1431.51 M138.33 1427.81 Q144.14 1427.81 147.195 1432.42 Q150.274 1437 150.274 1445.75 Q150.274 1454.48 147.195 1459.08 Q144.14 1463.67 138.33 1463.67 Q132.519 1463.67 129.441 1459.08 Q126.385 1454.48 126.385 1445.75 Q126.385 1437 129.441 1432.42 Q132.519 1427.81 138.33 1427.81 Z" fill="#000000" fill-rule="nonzero" fill-opacity="1"></path><path clip-path="url(#clip610)" d="M168.491 1431.51 Q164.88 1431.51 163.052 1435.08 Q161.246 1438.62 161.246 1445.75 Q161.246 1452.86 163.052 1456.42 Q164.88 1459.96 168.491 1459.96 Q172.126 1459.96 173.931 1456.42 Q175.76 1452.86 175.76 1445.75 Q175.76 1438.62 173.931 1435.08 Q172.126 1431.51 168.491 1431.51 M168.491 1427.81 Q174.302 1427.81 177.357 1432.42 Q180.436 1437 180.436 1445.75 Q180.436 1454.48 177.357 1459.08 Q174.302 1463.67 168.491 1463.67 Q162.681 1463.67 159.603 1459.08 Q156.547 1454.48 156.547 1445.75 Q156.547 1437 159.603 1432.42 Q162.681 1427.81 168.491 1427.81 Z" fill="#000000" fill-rule="nonzero" fill-opacity="1"></path><path clip-path="url(#clip610)" d="M63.9319 1175.36 Q60.3208 1175.36 58.4921 1178.92 Q56.6865 1182.47 56.6865 1189.59 Q56.6865 1196.7 58.4921 1200.27 Q60.3208 1203.81 63.9319 1203.81 Q67.5661 1203.81 69.3717 1200.27 Q71.2004 1196.7 71.2004 1189.59 Q71.2004 1182.47 69.3717 1178.92 Q67.5661 1175.36 63.9319 1175.36 M63.9319 1171.66 Q69.742 1171.66 72.7976 1176.26 Q75.8763 1180.84 75.8763 1189.59 Q75.8763 1198.32 72.7976 1202.93 Q69.742 1207.51 63.9319 1207.51 Q58.1217 1207.51 55.043 1202.93 Q51.9875 1198.32 51.9875 1189.59 Q51.9875 1180.84 55.043 1176.26 Q58.1217 1171.66 63.9319 1171.66 Z" fill="#000000" fill-rule="nonzero" fill-opacity="1"></path><path clip-path="url(#clip610)" d="M84.0938 1200.96 L88.978 1200.96 L88.978 1206.84 L84.0938 1206.84 L84.0938 1200.96 Z" fill="#000000" fill-rule="nonzero" fill-opacity="1"></path><path clip-path="url(#clip610)" d="M109.163 1175.36 Q105.552 1175.36 103.723 1178.92 Q101.918 1182.47 101.918 1189.59 Q101.918 1196.7 103.723 1200.27 Q105.552 1203.81 109.163 1203.81 Q112.797 1203.81 114.603 1200.27 Q116.432 1196.7 116.432 1189.59 Q116.432 1182.47 114.603 1178.92 Q112.797 1175.36 109.163 1175.36 M109.163 1171.66 Q114.973 1171.66 118.029 1176.26 Q121.107 1180.84 121.107 1189.59 Q121.107 1198.32 118.029 1202.93 Q114.973 1207.51 109.163 1207.51 Q103.353 1207.51 100.274 1202.93 Q97.2187 1198.32 97.2187 1189.59 Q97.2187 1180.84 100.274 1176.26 Q103.353 1171.66 109.163 1171.66 Z" fill="#000000" fill-rule="nonzero" fill-opacity="1"></path><path clip-path="url(#clip610)" d="M139.325 1175.36 Q135.714 1175.36 133.885 1178.92 Q132.08 1182.47 132.08 1189.59 Q132.08 1196.7 133.885 1200.27 Q135.714 1203.81 139.325 1203.81 Q142.959 1203.81 144.765 1200.27 Q146.593 1196.7 146.593 1189.59 Q146.593 1182.47 144.765 1178.92 Q142.959 1175.36 139.325 1175.36 M139.325 1171.66 Q145.135 1171.66 148.191 1176.26 Q151.269 1180.84 151.269 1189.59 Q151.269 1198.32 148.191 1202.93 Q145.135 1207.51 139.325 1207.51 Q133.515 1207.51 130.436 1202.93 Q127.381 1198.32 127.381 1189.59 Q127.381 1180.84 130.436 1176.26 Q133.515 1171.66 139.325 1171.66 Z" fill="#000000" fill-rule="nonzero" fill-opacity="1"></path><path clip-path="url(#clip610)" d="M159.533 1172.28 L177.89 1172.28 L177.89 1176.22 L163.816 1176.22 L163.816 1184.69 Q164.834 1184.34 165.853 1184.18 Q166.871 1183.99 167.89 1183.99 Q173.677 1183.99 177.056 1187.16 Q180.436 1190.34 180.436 1195.75 Q180.436 1201.33 176.964 1204.43 Q173.491 1207.51 167.172 1207.51 Q164.996 1207.51 162.728 1207.14 Q160.482 1206.77 158.075 1206.03 L158.075 1201.33 Q160.158 1202.47 162.38 1203.02 Q164.603 1203.58 167.079 1203.58 Q171.084 1203.58 173.422 1201.47 Q175.76 1199.36 175.76 1195.75 Q175.76 1192.14 173.422 1190.03 Q171.084 1187.93 167.079 1187.93 Q165.204 1187.93 163.329 1188.34 Q161.478 1188.76 159.533 1189.64 L159.533 1172.28 Z" fill="#000000" fill-rule="nonzero" fill-opacity="1"></path><path clip-path="url(#clip610)" d="M62.9365 919.203 Q59.3254 919.203 57.4967 922.768 Q55.6912 926.31 55.6912 933.439 Q55.6912 940.546 57.4967 944.111 Q59.3254 947.652 62.9365 947.652 Q66.5707 947.652 68.3763 944.111 Q70.205 940.546 70.205 933.439 Q70.205 926.31 68.3763 922.768 Q66.5707 919.203 62.9365 919.203 M62.9365 915.5 Q68.7467 915.5 71.8022 920.106 Q74.8809 924.689 74.8809 933.439 Q74.8809 942.166 71.8022 946.773 Q68.7467 951.356 62.9365 951.356 Q57.1264 951.356 54.0477 946.773 Q50.9921 942.166 50.9921 933.439 Q50.9921 924.689 54.0477 920.106 Q57.1264 915.5 62.9365 915.5 Z" fill="#000000" fill-rule="nonzero" fill-opacity="1"></path><path clip-path="url(#clip610)" d="M83.0984 944.805 L87.9827 944.805 L87.9827 950.685 L83.0984 950.685 L83.0984 944.805 Z" fill="#000000" fill-rule="nonzero" fill-opacity="1"></path><path clip-path="url(#clip610)" d="M108.168 919.203 Q104.557 919.203 102.728 922.768 Q100.922 926.31 100.922 933.439 Q100.922 940.546 102.728 944.111 Q104.557 947.652 108.168 947.652 Q111.802 947.652 113.608 944.111 Q115.436 940.546 115.436 933.439 Q115.436 926.31 113.608 922.768 Q111.802 919.203 108.168 919.203 M108.168 915.5 Q113.978 915.5 117.033 920.106 Q120.112 924.689 120.112 933.439 Q120.112 942.166 117.033 946.773 Q113.978 951.356 108.168 951.356 Q102.358 951.356 99.2789 946.773 Q96.2234 942.166 96.2234 933.439 Q96.2234 924.689 99.2789 920.106 Q102.358 915.5 108.168 915.5 Z" fill="#000000" fill-rule="nonzero" fill-opacity="1"></path><path clip-path="url(#clip610)" d="M129.14 946.749 L136.779 946.749 L136.779 920.384 L128.469 922.05 L128.469 917.791 L136.732 916.125 L141.408 916.125 L141.408 946.749 L149.047 946.749 L149.047 950.685 L129.14 950.685 L129.14 946.749 Z" fill="#000000" fill-rule="nonzero" fill-opacity="1"></path><path clip-path="url(#clip610)" d="M168.491 919.203 Q164.88 919.203 163.052 922.768 Q161.246 926.31 161.246 933.439 Q161.246 940.546 163.052 944.111 Q164.88 947.652 168.491 947.652 Q172.126 947.652 173.931 944.111 Q175.76 940.546 175.76 933.439 Q175.76 926.31 173.931 922.768 Q172.126 919.203 168.491 919.203 M168.491 915.5 Q174.302 915.5 177.357 920.106 Q180.436 924.689 180.436 933.439 Q180.436 942.166 177.357 946.773 Q174.302 951.356 168.491 951.356 Q162.681 951.356 159.603 946.773 Q156.547 942.166 156.547 933.439 Q156.547 924.689 159.603 920.106 Q162.681 915.5 168.491 915.5 Z" fill="#000000" fill-rule="nonzero" fill-opacity="1"></path><path clip-path="url(#clip610)" d="M63.9319 663.048 Q60.3208 663.048 58.4921 666.612 Q56.6865 670.154 56.6865 677.284 Q56.6865 684.39 58.4921 687.955 Q60.3208 691.497 63.9319 691.497 Q67.5661 691.497 69.3717 687.955 Q71.2004 684.39 71.2004 677.284 Q71.2004 670.154 69.3717 666.612 Q67.5661 663.048 63.9319 663.048 M63.9319 659.344 Q69.742 659.344 72.7976 663.95 Q75.8763 668.534 75.8763 677.284 Q75.8763 686.011 72.7976 690.617 Q69.742 695.2 63.9319 695.2 Q58.1217 695.2 55.043 690.617 Q51.9875 686.011 51.9875 677.284 Q51.9875 668.534 55.043 663.95 Q58.1217 659.344 63.9319 659.344 Z" fill="#000000" fill-rule="nonzero" fill-opacity="1"></path><path clip-path="url(#clip610)" d="M84.0938 688.649 L88.978 688.649 L88.978 694.529 L84.0938 694.529 L84.0938 688.649 Z" fill="#000000" fill-rule="nonzero" fill-opacity="1"></path><path clip-path="url(#clip610)" d="M109.163 663.048 Q105.552 663.048 103.723 666.612 Q101.918 670.154 101.918 677.284 Q101.918 684.39 103.723 687.955 Q105.552 691.497 109.163 691.497 Q112.797 691.497 114.603 687.955 Q116.432 684.39 116.432 677.284 Q116.432 670.154 114.603 666.612 Q112.797 663.048 109.163 663.048 M109.163 659.344 Q114.973 659.344 118.029 663.95 Q121.107 668.534 121.107 677.284 Q121.107 686.011 118.029 690.617 Q114.973 695.2 109.163 695.2 Q103.353 695.2 100.274 690.617 Q97.2187 686.011 97.2187 677.284 Q97.2187 668.534 100.274 663.95 Q103.353 659.344 109.163 659.344 Z" fill="#000000" fill-rule="nonzero" fill-opacity="1"></path><path clip-path="url(#clip610)" d="M130.135 690.594 L137.774 690.594 L137.774 664.228 L129.464 665.895 L129.464 661.636 L137.728 659.969 L142.404 659.969 L142.404 690.594 L150.043 690.594 L150.043 694.529 L130.135 694.529 L130.135 690.594 Z" fill="#000000" fill-rule="nonzero" fill-opacity="1"></path><path clip-path="url(#clip610)" d="M159.533 659.969 L177.89 659.969 L177.89 663.904 L163.816 663.904 L163.816 672.376 Q164.834 672.029 165.853 671.867 Q166.871 671.682 167.89 671.682 Q173.677 671.682 177.056 674.853 Q180.436 678.024 180.436 683.441 Q180.436 689.02 176.964 692.122 Q173.491 695.2 167.172 695.2 Q164.996 695.2 162.728 694.83 Q160.482 694.46 158.075 693.719 L158.075 689.02 Q160.158 690.154 162.38 690.71 Q164.603 691.265 167.079 691.265 Q171.084 691.265 173.422 689.159 Q175.76 687.052 175.76 683.441 Q175.76 679.83 173.422 677.724 Q171.084 675.617 167.079 675.617 Q165.204 675.617 163.329 676.034 Q161.478 676.45 159.533 677.33 L159.533 659.969 Z" fill="#000000" fill-rule="nonzero" fill-opacity="1"></path><path clip-path="url(#clip610)" d="M62.9365 406.892 Q59.3254 406.892 57.4967 410.457 Q55.6912 413.999 55.6912 421.128 Q55.6912 428.235 57.4967 431.799 Q59.3254 435.341 62.9365 435.341 Q66.5707 435.341 68.3763 431.799 Q70.205 428.235 70.205 421.128 Q70.205 413.999 68.3763 410.457 Q66.5707 406.892 62.9365 406.892 M62.9365 403.188 Q68.7467 403.188 71.8022 407.795 Q74.8809 412.378 74.8809 421.128 Q74.8809 429.855 71.8022 434.461 Q68.7467 439.045 62.9365 439.045 Q57.1264 439.045 54.0477 434.461 Q50.9921 429.855 50.9921 421.128 Q50.9921 412.378 54.0477 407.795 Q57.1264 403.188 62.9365 403.188 Z" fill="#000000" fill-rule="nonzero" fill-opacity="1"></path><path clip-path="url(#clip610)" d="M83.0984 432.494 L87.9827 432.494 L87.9827 438.373 L83.0984 438.373 L83.0984 432.494 Z" fill="#000000" fill-rule="nonzero" fill-opacity="1"></path><path clip-path="url(#clip610)" d="M108.168 406.892 Q104.557 406.892 102.728 410.457 Q100.922 413.999 100.922 421.128 Q100.922 428.235 102.728 431.799 Q104.557 435.341 108.168 435.341 Q111.802 435.341 113.608 431.799 Q115.436 428.235 115.436 421.128 Q115.436 413.999 113.608 410.457 Q111.802 406.892 108.168 406.892 M108.168 403.188 Q113.978 403.188 117.033 407.795 Q120.112 412.378 120.112 421.128 Q120.112 429.855 117.033 434.461 Q113.978 439.045 108.168 439.045 Q102.358 439.045 99.2789 434.461 Q96.2234 429.855 96.2234 421.128 Q96.2234 412.378 99.2789 407.795 Q102.358 403.188 108.168 403.188 Z" fill="#000000" fill-rule="nonzero" fill-opacity="1"></path><path clip-path="url(#clip610)" d="M132.357 434.438 L148.677 434.438 L148.677 438.373 L126.732 438.373 L126.732 434.438 Q129.394 431.684 133.978 427.054 Q138.584 422.401 139.765 421.059 Q142.01 418.536 142.89 416.799 Q143.793 415.04 143.793 413.35 Q143.793 410.596 141.848 408.86 Q139.927 407.124 136.825 407.124 Q134.626 407.124 132.172 407.887 Q129.742 408.651 126.964 410.202 L126.964 405.48 Q129.788 404.346 132.242 403.767 Q134.695 403.188 136.732 403.188 Q142.103 403.188 145.297 405.874 Q148.492 408.559 148.492 413.049 Q148.492 415.179 147.681 417.1 Q146.894 418.999 144.788 421.591 Q144.209 422.262 141.107 425.48 Q138.006 428.674 132.357 434.438 Z" fill="#000000" fill-rule="nonzero" fill-opacity="1"></path><path clip-path="url(#clip610)" d="M168.491 406.892 Q164.88 406.892 163.052 410.457 Q161.246 413.999 161.246 421.128 Q161.246 428.235 163.052 431.799 Q164.88 435.341 168.491 435.341 Q172.126 435.341 173.931 431.799 Q175.76 428.235 175.76 421.128 Q175.76 413.999 173.931 410.457 Q172.126 406.892 168.491 406.892 M168.491 403.188 Q174.302 403.188 177.357 407.795 Q180.436 412.378 180.436 421.128 Q180.436 429.855 177.357 434.461 Q174.302 439.045 168.491 439.045 Q162.681 439.045 159.603 434.461 Q156.547 429.855 156.547 421.128 Q156.547 412.378 159.603 407.795 Q162.681 403.188 168.491 403.188 Z" fill="#000000" fill-rule="nonzero" fill-opacity="1"></path><path clip-path="url(#clip610)" d="M63.9319 150.737 Q60.3208 150.737 58.4921 154.301 Q56.6865 157.843 56.6865 164.973 Q56.6865 172.079 58.4921 175.644 Q60.3208 179.185 63.9319 179.185 Q67.5661 179.185 69.3717 175.644 Q71.2004 172.079 71.2004 164.973 Q71.2004 157.843 69.3717 154.301 Q67.5661 150.737 63.9319 150.737 M63.9319 147.033 Q69.742 147.033 72.7976 151.639 Q75.8763 156.223 75.8763 164.973 Q75.8763 173.699 72.7976 178.306 Q69.742 182.889 63.9319 182.889 Q58.1217 182.889 55.043 178.306 Q51.9875 173.699 51.9875 164.973 Q51.9875 156.223 55.043 151.639 Q58.1217 147.033 63.9319 147.033 Z" fill="#000000" fill-rule="nonzero" fill-opacity="1"></path><path clip-path="url(#clip610)" d="M84.0938 176.338 L88.978 176.338 L88.978 182.218 L84.0938 182.218 L84.0938 176.338 Z" fill="#000000" fill-rule="nonzero" fill-opacity="1"></path><path clip-path="url(#clip610)" d="M109.163 150.737 Q105.552 150.737 103.723 154.301 Q101.918 157.843 101.918 164.973 Q101.918 172.079 103.723 175.644 Q105.552 179.185 109.163 179.185 Q112.797 179.185 114.603 175.644 Q116.432 172.079 116.432 164.973 Q116.432 157.843 114.603 154.301 Q112.797 150.737 109.163 150.737 M109.163 147.033 Q114.973 147.033 118.029 151.639 Q121.107 156.223 121.107 164.973 Q121.107 173.699 118.029 178.306 Q114.973 182.889 109.163 182.889 Q103.353 182.889 100.274 178.306 Q97.2187 173.699 97.2187 164.973 Q97.2187 156.223 100.274 151.639 Q103.353 147.033 109.163 147.033 Z" fill="#000000" fill-rule="nonzero" fill-opacity="1"></path><path clip-path="url(#clip610)" d="M133.353 178.283 L149.672 178.283 L149.672 182.218 L127.728 182.218 L127.728 178.283 Q130.39 175.528 134.973 170.898 Q139.58 166.246 140.76 164.903 Q143.006 162.38 143.885 160.644 Q144.788 158.885 144.788 157.195 Q144.788 154.44 142.843 152.704 Q140.922 150.968 137.82 150.968 Q135.621 150.968 133.168 151.732 Q130.737 152.496 127.959 154.047 L127.959 149.325 Q130.783 148.19 133.237 147.612 Q135.691 147.033 137.728 147.033 Q143.098 147.033 146.293 149.718 Q149.487 152.403 149.487 156.894 Q149.487 159.024 148.677 160.945 Q147.89 162.843 145.783 165.436 Q145.205 166.107 142.103 169.324 Q139.001 172.519 133.353 178.283 Z" fill="#000000" fill-rule="nonzero" fill-opacity="1"></path><path clip-path="url(#clip610)" d="M159.533 147.658 L177.89 147.658 L177.89 151.593 L163.816 151.593 L163.816 160.065 Q164.834 159.718 165.853 159.556 Q166.871 159.371 167.89 159.371 Q173.677 159.371 177.056 162.542 Q180.436 165.713 180.436 171.13 Q180.436 176.709 176.964 179.81 Q173.491 182.889 167.172 182.889 Q164.996 182.889 162.728 182.519 Q160.482 182.148 158.075 181.408 L158.075 176.709 Q160.158 177.843 162.38 178.398 Q164.603 178.954 167.079 178.954 Q171.084 178.954 173.422 176.848 Q175.76 174.741 175.76 171.13 Q175.76 167.519 173.422 165.412 Q171.084 163.306 167.079 163.306 Q165.204 163.306 163.329 163.723 Q161.478 164.139 159.533 165.019 L159.533 147.658 Z" fill="#000000" fill-rule="nonzero" fill-opacity="1"></path><polyline clip-path="url(#clip612)" style="stroke:#009af9; stroke-linecap:round; stroke-linejoin:round; stroke-width:4; stroke-opacity:1; fill:none" points="276.898,1442.29 288.157,1441.54 299.416,1440.72 310.675,1439.81 321.935,1438.83 333.194,1437.77 344.453,1436.62 355.712,1435.4 366.971,1434.09 378.231,1432.7 389.49,1431.24 400.749,1429.67 412.008,1428.01 423.267,1426.28 434.527,1424.46 445.786,1422.54 457.045,1420.54 468.304,1418.44 479.563,1416.26 490.823,1413.95 502.082,1411.57 513.341,1409.06 524.6,1406.47 535.859,1403.79 547.118,1400.91 558.378,1397.98 569.637,1394.91 580.896,1391.71 592.155,1388.33 603.414,1384.86 614.674,1381.14 625.933,1377.16 637.192,1372.87 648.451,1367.94 659.71,1362.5 670.97,1358.93 682.229,1355.1 693.488,1351.06 704.747,1346.92 716.006,1343.04 727.266,1338.48 738.525,1334.37 749.784,1329.88 761.043,1325.19 772.302,1320.8 783.562,1316.17 794.821,1311.18 806.08,1306.42 817.339,1301.63 828.598,1296.19 839.858,1291.42 851.117,1286.03 862.376,1280.52 873.635,1275.22 884.894,1269.77 896.154,1264.18 907.413,1258.48 918.672,1252.57 929.931,1246.7 941.19,1240.81 952.45,1234.62 963.709,1228.52 974.968,1222.01 986.227,1215.74 997.486,1209.62 1008.75,1202.74 1020,1195.96 1031.26,1189.01 1042.52,1182.69 1053.78,1175.17 1065.04,1168.25 1076.3,1160.73 1087.56,1154.32 1098.82,1145.86 1110.08,1139.03 1121.34,1130.75 1132.6,1123.57 1143.86,1115.13 1155.12,1106.96 1166.37,1100.06 1177.63,1091.12 1188.89,1083.04 1200.15,1074.43 1211.41,1065.17 1222.67,1057.88 1233.93,1047.75 1245.19,1039.15 1256.45,1031.13 1267.71,1020.47 1278.97,1011.74 1290.23,1002.77 1301.48,992.192 1312.74,982.781 1324,975.111 1335.26,962.552 1346.52,951.668 1357.78,944.534 1369.04,938.192 1380.3,941.652 1391.56,940.008 1402.82,936.028 1414.08,931.222 1425.34,925.304 1436.6,918.91 1447.85,911.77 1459.11,905.106 1470.37,897.16 1481.63,888.394 1492.89,880.242 1504.15,870.791 1515.41,861.055 1526.67,851.614 1537.93,841.004 1549.19,829.845 1560.45,818.286 1571.71,806.667 1582.96,795.047 1594.22,781.204 1605.48,768.882 1616.74,754.373 1628,739.873 1639.26,724.293 1650.52,707.467 1661.78,690.39 1673.04,670.932 1684.3,649.815 1695.56,625.445 1706.82,594.724 1718.07,550.231 1729.33,511.313 1740.59,493.623 1751.85,480.236 1763.11,466.28 1774.37,448.365 1785.63,436.817 1796.89,422.065 1808.15,407.594 1819.41,391.463 1830.67,378.277 1841.93,364.86 1853.19,354.871 1864.44,357.643 1875.7,1249.23 1886.96,1445.72 1898.22,1445.72 1909.48,1445.72 1920.74,1445.72 1932,1445.72 1943.26,1445.72 1954.52,1445.72 1965.78,1445.72 1977.04,1445.72 1988.3,1445.72 1999.55,1445.72 2010.81,1445.72 2022.07,1445.72 2033.33,1445.72 2044.59,1445.72 2055.85,1445.72 2067.11,1445.72 2078.37,1445.72 2089.63,1445.72 2100.89,1445.72 2112.15,1445.72 2123.41,1445.72 2134.67,1445.72 2145.92,1445.72 2157.18,1445.72 2168.44,1445.72 2179.7,1445.72 2190.96,1445.72 2202.22,1445.72 2213.48,1445.72 2224.74,1445.72 2236,1445.72 2247.26,1445.72 2258.52,1445.72 2269.78,1445.72 2281.03,1445.72 2292.29,1445.72 "></polyline>
<polyline clip-path="url(#clip612)" style="stroke:#e26f46; stroke-linecap:round; stroke-linejoin:round; stroke-width:4; stroke-opacity:1; fill:none" points="276.898,1445.25 288.157,1445.14 299.416,1445.03 310.675,1444.9 321.935,1444.76 333.194,1444.61 344.453,1444.44 355.712,1444.26 366.971,1444.05 378.231,1443.83 389.49,1443.59 400.749,1443.33 412.008,1443.05 423.267,1442.75 434.527,1442.42 445.786,1442.07 457.045,1441.69 468.304,1441.28 479.563,1440.85 490.823,1440.38 502.082,1439.87 513.341,1439.33 524.6,1438.75 535.859,1438.15 547.118,1437.8 558.378,1437.08 569.637,1436.61 580.896,1435.63 592.155,1435.12 603.414,1434 614.674,1432.97 625.933,1432.3 637.192,1430.84 648.451,1429.99 659.71,1428.27 670.97,1427.82 682.229,1426.98 693.488,1424.98 704.747,1424.94 716.006,1423.58 727.266,1420.98 738.525,1418.93 749.784,1416.78 761.043,1415.3 772.302,1413.08 783.562,1410.95 794.821,1408.83 806.08,1405.65 817.339,1402.82 828.598,1399.46 839.858,1396.46 851.117,1392.9 862.376,1389.15 873.635,1385.45 884.894,1381.27 896.154,1377.05 907.413,1372.52 918.672,1367.55 929.931,1362.31 941.19,1356.92 952.45,1351.1 963.709,1345.04 974.968,1338.25 986.227,1331.48 997.486,1324.69 1008.75,1316.48 1020,1308.36 1031.26,1299.41 1042.52,1291.61 1053.78,1280.98 1065.04,1271.47 1076.3,1260.22 1087.56,1251.45 1098.82,1237.46 1110.08,1227.38 1121.34,1213.22 1132.6,1202.03 1143.86,1186.99 1155.12,1173.18 1166.37,1160.86 1177.63,1144.21 1188.89,1129.66 1200.15,1114.23 1211.41,1096.19 1222.67,1083.07 1233.93,1062.33 1245.19,1047.7 1256.45,1031.95 1267.71,1011.26 1278.97,994.132 1290.23,978.838 1301.48,956.371 1312.74,940.188 1324,927.669 1335.26,901.043 1346.52,880.512 1357.78,871.274 1369.04,868.243 1380.3,899.194 1391.56,912.03 1402.82,917.49 1414.08,919.366 1425.34,918.788 1436.6,916.393 1447.85,912.409 1459.11,907.178 1470.37,900.502 1481.63,892.505 1492.89,883.428 1504.15,872.994 1515.41,861.361 1526.67,848.624 1537.93,834.538 1549.19,819.184 1560.45,802.565 1571.71,784.707 1582.96,765.583 1594.22,744.728 1605.48,722.672 1616.74,698.732 1628,672.84 1639.26,644.388 1650.52,613.222 1661.78,578.7 1673.04,538.972 1684.3,492.484 1695.56,435.772 1706.82,360.839 1718.07,233.156 1729.33,131.806 1740.59,106.396 1751.85,106.3 1763.11,96.778 1774.37,87.9763 1785.63,100.563 1796.89,110.225 1808.15,132.684 1819.41,157.556 1830.67,201.827 1841.93,245.818 1853.19,285.422 1864.44,355.543 1875.7,1254.4 1886.96,1445.72 1898.22,1445.72 1909.48,1445.72 1920.74,1445.72 1932,1445.72 1943.26,1445.72 1954.52,1445.72 1965.78,1445.72 1977.04,1445.72 1988.3,1445.72 1999.55,1445.72 2010.81,1445.72 2022.07,1445.72 2033.33,1445.72 2044.59,1445.72 2055.85,1445.72 2067.11,1445.72 2078.37,1445.72 2089.63,1445.72 2100.89,1445.72 2112.15,1445.72 2123.41,1445.72 2134.67,1445.72 2145.92,1445.72 2157.18,1445.72 2168.44,1445.72 2179.7,1445.72 2190.96,1445.72 2202.22,1445.72 2213.48,1445.72 2224.74,1445.72 2236,1445.72 2247.26,1445.72 2258.52,1445.72 2269.78,1445.72 2281.03,1445.72 2292.29,1445.72 "></polyline>
<path clip-path="url(#clip610)" d="M287.647 250.738 L553.709 250.738 L553.709 95.2176 L287.647 95.2176  Z" fill="#ffffff" fill-rule="evenodd" fill-opacity="1"></path>
<polyline clip-path="url(#clip610)" style="stroke:#000000; stroke-linecap:round; stroke-linejoin:round; stroke-width:4; stroke-opacity:1; fill:none" points="287.647,250.738 553.709,250.738 553.709,95.2176 287.647,95.2176 287.647,250.738 "></polyline>
<polyline clip-path="url(#clip610)" style="stroke:#009af9; stroke-linecap:round; stroke-linejoin:round; stroke-width:4; stroke-opacity:1; fill:none" points="311.383,147.058 453.805,147.058 "></polyline>
<path clip-path="url(#clip610)" d="M491.384 166.745 Q489.579 171.375 487.866 172.787 Q486.153 174.199 483.282 174.199 L479.88 174.199 L479.88 170.634 L482.38 170.634 Q484.139 170.634 485.111 169.8 Q486.083 168.967 487.264 165.865 L488.028 163.921 L477.542 138.412 L482.056 138.412 L490.157 158.689 L498.259 138.412 L502.773 138.412 L491.384 166.745 Z" fill="#000000" fill-rule="nonzero" fill-opacity="1"></path><path clip-path="url(#clip610)" d="M510.065 160.402 L517.703 160.402 L517.703 134.037 L509.393 135.703 L509.393 131.444 L517.657 129.778 L522.333 129.778 L522.333 160.402 L529.972 160.402 L529.972 164.338 L510.065 164.338 L510.065 160.402 Z" fill="#000000" fill-rule="nonzero" fill-opacity="1"></path><polyline clip-path="url(#clip610)" style="stroke:#e26f46; stroke-linecap:round; stroke-linejoin:round; stroke-width:4; stroke-opacity:1; fill:none" points="311.383,198.898 453.805,198.898 "></polyline>
<path clip-path="url(#clip610)" d="M491.384 218.585 Q489.579 223.215 487.866 224.627 Q486.153 226.039 483.282 226.039 L479.88 226.039 L479.88 222.474 L482.38 222.474 Q484.139 222.474 485.111 221.64 Q486.083 220.807 487.264 217.705 L488.028 215.761 L477.542 190.252 L482.056 190.252 L490.157 210.529 L498.259 190.252 L502.773 190.252 L491.384 218.585 Z" fill="#000000" fill-rule="nonzero" fill-opacity="1"></path><path clip-path="url(#clip610)" d="M513.282 212.242 L529.602 212.242 L529.602 216.178 L507.657 216.178 L507.657 212.242 Q510.319 209.488 514.903 204.858 Q519.509 200.205 520.69 198.863 Q522.935 196.34 523.815 194.604 Q524.717 192.844 524.717 191.155 Q524.717 188.4 522.773 186.664 Q520.852 184.928 517.75 184.928 Q515.551 184.928 513.097 185.692 Q510.666 186.455 507.889 188.006 L507.889 183.284 Q510.713 182.15 513.166 181.571 Q515.62 180.993 517.657 180.993 Q523.028 180.993 526.222 183.678 Q529.416 186.363 529.416 190.854 Q529.416 192.983 528.606 194.905 Q527.819 196.803 525.713 199.395 Q525.134 200.067 522.032 203.284 Q518.93 206.479 513.282 212.242 Z" fill="#000000" fill-rule="nonzero" fill-opacity="1"></path></svg>